<?xml version="1.0" encoding="UTF-8"?>
<svg id="Capa_1" data-name="Capa 1" xmlns="http://www.w3.org/2000/svg" xmlns:xlink="http://www.w3.org/1999/xlink" viewBox="0 0 1573.14 1451.63">
  <defs>
    <style>
      .cls-1 {
        mask: url(#mask);
      }

      .cls-2 {
        mask: url(#mask-1);
      }

      .cls-3 {
        fill: #fff;
      }

      .cls-4 {
        fill: #ff3e84;
      }

      .cls-4, .cls-5 {
        stroke: #000;
        stroke-width: 8.78px;
      }

      .cls-5 {
        fill: none;
      }
    </style>
    <mask id="mask" x="0" y="418.8" width="1571.45" height="1032.84" maskUnits="userSpaceOnUse">
      <g id="path-1-inside-1_458_11493" data-name="path-1-inside-1 458 11493">
        <path class="cls-3" d="M1509.78,449.9c-9.98,5.9-21.29,12.57-38.41,15.92-16.44,3.21-25.14-2.61-36.14-9.98-10.46-7.01-22.33-14.92-42.27-15.23-21.03-.31-31.96,6.55-41.62,12.59-9.34,5.85-17.37,10.88-34.19,10.64-16.84-.24-24.86-5.52-34.12-11.64-9.6-6.32-20.5-13.5-41.54-13.81-21.03-.31-31.96,6.55-41.62,12.61-9.31,5.85-17.37,10.88-34.19,10.64-16.81-.24-24.86-5.52-34.12-11.64-9.6-6.32-20.5-13.5-41.54-13.81-21.03-.31-31.96,6.55-41.62,12.59-9.3,5.85-17.37,10.88-34.18,10.64-16.82-.24-24.83-5.52-34.12-11.64-9.6-6.32-20.51-13.5-41.51-13.8-21.04-.31-31.97,6.55-41.59,12.59-9.3,5.85-17.37,10.88-34.18,10.64-16.85-.24-24.83-5.52-34.12-11.64-9.6-6.32-20.5-13.5-41.51-13.8-21.04-.31-31.97,6.55-41.62,12.59-9.33,5.85-17.37,10.88-34.18,10.64-16.82-.24-24.83-5.52-34.12-11.64-9.6-6.32-20.51-13.5-41.51-13.8-21.01-.31-31.97,6.55-41.62,12.59-9.3,5.85-17.37,10.88-34.18,10.64-16.85-.24-24.83-5.52-34.12-11.64-9.6-6.32-20.5-13.5-41.51-13.8-21.04-.31-31.96,6.55-41.62,12.59-9.3,5.85-17.37,10.88-34.18,10.64-16.85-.24-24.83-5.52-34.12-11.64-9.6-6.32-20.51-13.5-41.51-13.8-21.01-.31-31.97,6.55-41.63,12.61-9.3,5.85-17.37,10.88-34.18,10.64-16.82-.24-24.83-5.52-34.12-11.64-9.6-6.32-20.5-13.5-41.51-13.8-21.04-.31-31.96,6.55-41.6,12.61-9.3,5.85-17.37,10.88-34.18,10.64-14.77-.22-26.67-7.53-38.19-14.61-14.85-9.14-31.7-19.48-51.44-7.13-17.92,11.19-4.35,24.53,6.59,35.22,8.58,8.39,17.44,17.09,17.44,26.26-.05,10.31-6.66,15.22-14.36,20.95-8.29,6.17-17.7,13.14-17.75,27.08-.05,13.94,9.31,21.18,17.59,27.6,7.65,5.93,14.28,11.03,14.23,21.34-.08,10.31-6.66,15.22-14.36,20.93-8.29,6.15-17.67,13.14-17.75,27.08-.05,13.94,9.31,21.18,17.59,27.6,7.65,5.93,14.28,11.03,14.23,21.34-.05,10.31-6.66,15.22-14.36,20.93-8.29,6.15-17.67,13.14-17.75,27.08-.05,13.94,9.31,21.18,17.59,27.6,7.65,5.93,14.24,11.03,14.23,21.34-.05,10.31-6.66,15.22-14.36,20.93-8.29,6.15-17.68,13.18-17.75,27.08-.05,13.94,9.31,21.18,17.59,27.57,7.65,5.93,14.28,11.03,14.23,21.34-.05,10.33-6.66,15.22-14.36,20.93-8.29,6.15-17.7,13.14-17.75,27.08-.05,13.94,9.31,21.18,17.59,27.57,7.65,5.93,14.28,11.03,14.23,21.34-.05,10.31-6.66,15.22-14.36,20.93-8.29,6.15-17.7,13.14-17.75,27.08-.05,13.94,9.31,21.18,17.59,27.57,7.65,5.93,14.28,11.03,14.23,21.34-.02,10.31-6.66,15.22-14.36,20.92-8.29,6.15-17.67,13.14-17.75,27.08-.05,13.94,9.31,21.18,17.59,27.57,7.65,5.93,14.28,11.03,14.23,21.34-.04,10.29-6.66,15.22-14.36,20.93-8.29,6.15-17.7,13.14-17.75,27.08-.05,13.94,9.31,21.18,17.59,27.57,7.65,5.93,14.28,11.03,14.23,21.34-.05,10.31-6.66,15.22-14.36,20.92-8.29,6.15-17.7,13.16-17.75,27.08-.05,13.94,9.31,21.18,17.59,27.57,7.65,5.93,14.28,11.03,14.23,21.34-.06,9.15-8.96,17.58-17.6,25.74-10.99,10.4-24.69,23.31-6.83,35.02,19.7,12.91,36.61,3.05,51.51-5.66,11.56-6.75,23.48-13.71,38.28-13.51,16.85.24,24.86,5.52,34.12,11.64,9.6,6.32,20.5,13.5,41.54,13.81,21.04.31,31.96-6.55,41.62-12.59,9.33-5.85,17.37-10.88,34.21-10.64,16.85.24,24.83,5.52,34.12,11.64,9.6,6.32,20.5,13.5,41.54,13.8,21.04.31,31.96-6.55,41.62-12.58,9.33-5.85,17.37-10.88,34.18-10.64,16.85.24,24.86,5.52,34.12,11.64,9.6,6.32,20.51,13.5,41.54,13.81s31.96-6.55,41.62-12.59c9.3-5.85,17.37-10.88,34.18-10.64,16.82.24,24.83,5.52,34.12,11.64,9.6,6.32,20.51,13.5,41.51,13.8,21.03.31,31.96-6.55,41.59-12.59,9.3-5.85,17.37-10.87,34.18-10.64,16.82.24,24.83,5.52,34.12,11.64,9.6,6.32,20.51,13.5,41.54,13.81,21.04.3,31.97-6.56,41.62-12.59,9.3-5.85,17.37-10.88,34.18-10.64,16.82.24,24.83,5.52,34.12,11.63,9.6,6.32,20.51,13.5,41.51,13.81,21.03.31,31.96-6.55,41.62-12.59,9.3-5.85,17.37-10.88,34.18-10.64,16.85.24,24.83,5.52,34.12,11.64,9.61,6.32,20.51,13.49,41.51,13.8,21.04.31,31.97-6.55,41.59-12.59,9.31-5.85,17.37-10.88,34.19-10.64,16.85.24,24.83,5.52,34.12,11.64,9.6,6.32,20.5,13.49,41.51,13.8,21.03.31,31.96-6.55,41.62-12.59,9.31-5.85,17.37-10.87,34.19-10.63,16.81.24,24.83,5.52,34.12,11.63,9.6,6.32,20.5,13.5,41.51,13.81,21.03.3,31.96-6.56,41.59-12.59,9.3-5.86,17.37-10.88,34.18-10.64,14.77.21,26.67,7.53,38.19,14.6,14.85,9.14,31.7,19.49,51.45,7.14,5.78-3.62,8.29-7.46,8.65-11.37.77-8.16-7.87-16.63-15.24-23.88-8.59-8.4-17.45-17.09-17.45-26.26.02-10.29,6.67-15.22,14.37-20.95,8.29-6.17,17.7-13.16,17.75-27.08.05-13.94-9.32-21.18-17.59-27.6-7.65-5.93-14.28-11.03-14.23-21.34.04-10.31,6.66-15.22,14.36-20.93,8.29-6.17,17.7-13.16,17.75-27.08.05-13.94-9.32-21.18-17.59-27.6-7.65-5.93-14.28-11.03-14.23-21.34.04-10.31,6.66-15.22,14.36-20.93,8.29-6.15,17.7-13.16,17.75-27.08.05-13.94-9.32-21.18-17.59-27.6-7.65-5.93-14.28-11.03-14.23-21.34.04-10.29,6.66-15.22,14.36-20.93,8.29-6.15,17.73-13.16,17.75-27.08.05-13.94-9.31-21.18-17.59-27.57-7.65-5.93-14.25-11.03-14.23-21.34.01-10.29,6.66-15.22,14.36-20.93,8.29-6.15,17.7-13.14,17.75-27.08.05-13.94-9.32-21.18-17.6-27.57-7.65-5.93-14.24-11.03-14.22-21.34.04-10.29,6.66-15.22,14.35-20.93,8.3-6.15,17.74-13.16,17.76-27.08.05-13.94-9.32-21.18-17.6-27.57-7.65-5.93-14.24-11.03-14.23-21.34.02-10.29,6.66-15.22,14.36-20.92,8.29-6.15,17.71-13.16,17.76-27.08.05-13.94-9.32-21.18-17.6-27.57-7.65-5.93-14.27-11.03-14.23-21.34.05-10.33,6.66-15.22,14.36-20.93,8.29-6.15,17.71-13.18,17.75-27.08.05-13.94-9.31-21.18-17.59-27.57-7.65-5.93-14.28-11.03-14.23-21.34.05-10.33,6.66-15.22,14.36-20.93,8.29-6.15,17.7-13.14,17.75-27.08.05-13.94-9.31-21.18-17.59-27.57-7.65-5.94-14.28-11.03-14.23-21.34-.03-9.17,8.96-17.58,17.6-25.74,10.98-10.39,24.68-23.31,6.83-35.02-20.63-13.53-34.24-5.5-48.66,3.02v-.05Z"/>
      </g>
    </mask>
    <mask id="mask-1" x="16.69" y="0" width="1562.66" height="1032.84" maskUnits="userSpaceOnUse">
      <g id="path-1-inside-1_458_11493-2" data-name="path-1-inside-1 458 11493">
        <path class="cls-3" d="M1522.07,35.5c-9.98,5.9-21.29,12.57-38.41,15.92-16.44,3.21-25.14-2.61-36.14-9.98-10.46-7.01-22.33-14.92-42.27-15.23-21.03-.31-31.96,6.55-41.62,12.59-9.34,5.85-17.37,10.88-34.19,10.64-16.84-.24-24.86-5.52-34.12-11.64-9.6-6.32-20.5-13.5-41.54-13.81-21.03-.31-31.96,6.55-41.62,12.61-9.31,5.85-17.37,10.88-34.19,10.64-16.81-.24-24.86-5.52-34.12-11.64-9.6-6.32-20.5-13.5-41.54-13.81-21.03-.31-31.96,6.55-41.62,12.59-9.3,5.85-17.37,10.88-34.18,10.64-16.82-.24-24.83-5.52-34.12-11.64-9.6-6.32-20.51-13.5-41.51-13.8-21.04-.31-31.97,6.55-41.59,12.59-9.3,5.85-17.37,10.88-34.18,10.64-16.85-.24-24.83-5.52-34.12-11.64-9.6-6.32-20.5-13.5-41.51-13.8-21.04-.31-31.97,6.55-41.62,12.59-9.33,5.85-17.37,10.88-34.18,10.64-16.82-.24-24.83-5.52-34.12-11.64-9.6-6.32-20.51-13.5-41.51-13.8-21.01-.31-31.97,6.55-41.62,12.59-9.3,5.85-17.37,10.88-34.18,10.64-16.85-.24-24.83-5.52-34.12-11.64-9.6-6.32-20.5-13.5-41.51-13.8-21.04-.31-31.96,6.55-41.62,12.59-9.3,5.85-17.37,10.88-34.18,10.64-16.85-.24-24.83-5.52-34.12-11.64-9.6-6.32-20.51-13.5-41.51-13.8-21.01-.31-31.97,6.55-41.63,12.61-9.3,5.85-17.37,10.88-34.18,10.64-16.82-.24-24.83-5.52-34.12-11.64-9.6-6.32-20.5-13.5-41.51-13.8-21.04-.31-31.96,6.55-41.6,12.61-9.3,5.85-17.37,10.88-34.18,10.64-14.77-.22-26.67-7.53-38.19-14.61-14.85-9.14-31.7-19.48-51.44-7.13-17.92,11.19-4.35,24.53,6.59,35.22,8.58,8.39,17.44,17.09,17.44,26.26-.05,10.31-6.66,15.22-14.36,20.95-8.29,6.17-17.7,13.14-17.75,27.08-.05,13.94,9.31,21.18,17.59,27.6,7.65,5.93,14.28,11.03,14.23,21.34-.08,10.31-6.66,15.22-14.36,20.93-8.29,6.15-17.67,13.14-17.75,27.08-.05,13.94,9.31,21.18,17.59,27.6,7.65,5.93,14.28,11.03,14.23,21.34-.05,10.31-6.66,15.22-14.36,20.93-8.29,6.15-17.67,13.14-17.75,27.08-.05,13.94,9.31,21.18,17.59,27.6,7.65,5.93,14.24,11.03,14.23,21.34-.05,10.31-6.66,15.22-14.36,20.93-8.29,6.15-17.68,13.18-17.75,27.08-.05,13.94,9.31,21.18,17.59,27.57,7.65,5.93,14.28,11.03,14.23,21.34-.05,10.33-6.66,15.22-14.36,20.93-8.29,6.15-17.7,13.14-17.75,27.08-.05,13.94,9.31,21.18,17.59,27.57,7.65,5.93,14.28,11.03,14.23,21.34-.05,10.31-6.66,15.22-14.36,20.93-8.29,6.15-17.7,13.14-17.75,27.08-.05,13.94,9.31,21.18,17.59,27.57,7.65,5.93,14.28,11.03,14.23,21.34-.02,10.31-6.66,15.22-14.36,20.92-8.29,6.15-17.67,13.14-17.75,27.08-.05,13.94,9.31,21.18,17.59,27.57,7.65,5.93,14.28,11.03,14.23,21.34-.04,10.29-6.66,15.22-14.36,20.93-8.29,6.15-17.7,13.14-17.75,27.08-.05,13.94,9.31,21.18,17.59,27.57,7.65,5.93,14.28,11.03,14.23,21.34-.05,10.31-6.66,15.22-14.36,20.92-8.29,6.15-17.7,13.16-17.75,27.08-.05,13.94,9.31,21.18,17.59,27.57,7.65,5.93,14.28,11.03,14.23,21.34-.06,9.15-8.96,17.58-17.6,25.74-10.99,10.4-24.69,23.31-6.83,35.02,19.7,12.91,36.61,3.05,51.51-5.66,11.56-6.75,23.48-13.71,38.28-13.51,16.85.24,24.86,5.52,34.12,11.64,9.6,6.32,20.5,13.5,41.54,13.81,21.04.31,31.96-6.55,41.62-12.59,9.33-5.85,17.37-10.88,34.21-10.64,16.85.24,24.83,5.52,34.12,11.64,9.6,6.32,20.5,13.5,41.54,13.8,21.04.31,31.96-6.55,41.62-12.58,9.33-5.85,17.37-10.88,34.18-10.64,16.85.24,24.86,5.52,34.12,11.64,9.6,6.32,20.51,13.5,41.54,13.81s31.96-6.55,41.62-12.59c9.3-5.85,17.37-10.88,34.18-10.64,16.82.24,24.83,5.52,34.12,11.64,9.6,6.32,20.51,13.5,41.51,13.8,21.03.31,31.96-6.55,41.59-12.59,9.3-5.85,17.37-10.87,34.18-10.64,16.82.24,24.83,5.52,34.12,11.64,9.6,6.32,20.51,13.5,41.54,13.81,21.04.3,31.97-6.56,41.62-12.59,9.3-5.85,17.37-10.88,34.18-10.64,16.82.24,24.83,5.52,34.12,11.63,9.6,6.32,20.51,13.5,41.51,13.81,21.03.31,31.96-6.55,41.62-12.59,9.3-5.85,17.37-10.88,34.18-10.64,16.85.24,24.83,5.52,34.12,11.64,9.61,6.32,20.51,13.49,41.51,13.8,21.04.31,31.97-6.55,41.59-12.59,9.31-5.85,17.37-10.88,34.19-10.64,16.85.24,24.83,5.52,34.12,11.64,9.6,6.32,20.5,13.49,41.51,13.8,21.03.31,31.96-6.55,41.62-12.59,9.31-5.85,17.37-10.87,34.19-10.63,16.81.24,24.83,5.52,34.12,11.63,9.6,6.32,20.5,13.5,41.51,13.81,21.03.3,31.96-6.56,41.59-12.59,9.3-5.86,17.37-10.88,34.18-10.64,14.77.21,26.67,7.53,38.19,14.6,14.85,9.14,31.7,19.49,51.45,7.14,5.78-3.62,8.29-7.46,8.65-11.37.77-8.16-7.87-16.63-15.24-23.88-8.59-8.4-17.45-17.09-17.45-26.26.02-10.29,6.67-15.22,14.37-20.95,8.29-6.17,17.7-13.16,17.75-27.08.05-13.94-9.32-21.18-17.59-27.6-7.65-5.93-14.28-11.03-14.23-21.34.04-10.31,6.66-15.22,14.36-20.93,8.29-6.17,17.7-13.16,17.75-27.08.05-13.94-9.32-21.18-17.59-27.6-7.65-5.93-14.28-11.03-14.23-21.34.04-10.31,6.66-15.22,14.36-20.93,8.29-6.15,17.7-13.16,17.75-27.08.05-13.94-9.32-21.18-17.59-27.6-7.65-5.93-14.28-11.03-14.23-21.34.04-10.29,6.66-15.22,14.36-20.93,8.29-6.15,17.73-13.16,17.75-27.08.05-13.94-9.31-21.18-17.59-27.57-7.65-5.93-14.25-11.03-14.23-21.34.01-10.29,6.66-15.22,14.36-20.93,8.29-6.15,17.7-13.14,17.75-27.08.05-13.94-9.32-21.18-17.6-27.57-7.65-5.93-14.24-11.03-14.22-21.34.04-10.29,6.66-15.22,14.35-20.93,8.3-6.15,17.74-13.16,17.76-27.08.05-13.94-9.32-21.18-17.6-27.57-7.65-5.93-14.24-11.03-14.23-21.34.02-10.29,6.66-15.22,14.36-20.92,8.29-6.15,17.71-13.16,17.76-27.08.05-13.94-9.32-21.18-17.6-27.57-7.65-5.93-14.27-11.03-14.23-21.34.05-10.33,6.66-15.22,14.36-20.93,8.29-6.15,17.71-13.18,17.75-27.08.05-13.94-9.31-21.18-17.59-27.57-7.65-5.93-14.28-11.03-14.23-21.34.05-10.33,6.66-15.22,14.36-20.93,8.29-6.15,17.7-13.14,17.75-27.08.05-13.94-9.31-21.18-17.59-27.57-7.65-5.94-14.28-11.03-14.23-21.34-.03-9.17,8.96-17.58,17.6-25.74,10.98-10.39,24.68-23.31,6.83-35.02-20.63-13.53-34.24-5.5-48.66,3.02v-.05Z"/>
      </g>
    </mask>
  </defs>
  <g class="cls-1">
    <path class="cls-4" d="M16.01,424.47c-17.92,11.19-4.35,24.53,6.59,35.22,8.58,8.39,17.44,17.09,17.44,26.26-.05,10.31-6.66,15.22-14.36,20.95-8.29,6.17-17.7,13.14-17.75,27.08-.05,13.94,9.31,21.18,17.59,27.6,7.65,5.93,14.28,11.03,14.23,21.34-.08,10.31-6.66,15.22-14.36,20.92-8.29,6.15-17.67,13.14-17.75,27.08-.05,13.94,9.31,21.18,17.59,27.6,7.65,5.93,14.28,11.03,14.23,21.34-.05,10.31-6.66,15.22-14.36,20.93-8.29,6.15-17.67,13.14-17.75,27.08-.05,13.94,9.31,21.18,17.59,27.6,7.65,5.93,14.24,11.03,14.23,21.34-.05,10.31-6.66,15.22-14.36,20.93-8.29,6.15-17.68,13.18-17.75,27.08-.05,13.94,9.31,21.18,17.59,27.57,7.65,5.93,14.28,11.03,14.23,21.34-.05,10.33-6.66,15.22-14.36,20.93-8.29,6.15-17.7,13.14-17.75,27.08-.05,13.94,9.31,21.18,17.59,27.57,7.65,5.93,14.28,11.03,14.23,21.34-.05,10.31-6.66,15.22-14.36,20.93-8.29,6.15-17.7,13.14-17.75,27.08-.05,13.94,9.31,21.18,17.59,27.57,7.65,5.93,14.28,11.03,14.23,21.34-.02,10.31-6.66,15.22-14.36,20.92-8.29,6.15-17.67,13.14-17.75,27.08-.05,13.94,9.31,21.18,17.59,27.57,7.65,5.93,14.28,11.03,14.23,21.34-.04,10.29-6.66,15.22-14.36,20.93-8.29,6.15-17.7,13.14-17.75,27.08-.05,13.94,9.31,21.18,17.59,27.57,7.65,5.93,14.28,11.03,14.23,21.34-.05,10.31-6.66,15.22-14.36,20.92-8.29,6.15-17.7,13.16-17.75,27.08-.05,13.94,9.31,21.18,17.59,27.57,7.65,5.93,14.28,11.03,14.23,21.34-.06,9.15-8.96,17.58-17.6,25.74-10.99,10.4-24.69,23.31-6.83,35.02,19.7,12.91,36.61,3.05,51.51-5.66,11.56-6.75,23.48-13.71,38.28-13.51,16.85.24,24.86,5.52,34.12,11.64,9.6,6.32,20.5,13.5,41.54,13.81,21.04.31,31.96-6.55,41.62-12.59,9.33-5.85,17.37-10.88,34.21-10.64,16.85.24,24.83,5.52,34.12,11.64,9.6,6.32,20.5,13.5,41.54,13.8,21.04.31,31.96-6.55,41.62-12.58,9.33-5.85,17.37-10.88,34.18-10.64,16.85.24,24.86,5.52,34.12,11.64,9.6,6.32,20.51,13.5,41.54,13.81s31.96-6.55,41.62-12.59c9.3-5.85,17.37-10.88,34.18-10.64,16.82.24,24.83,5.52,34.12,11.64,9.6,6.32,20.51,13.5,41.51,13.8,21.03.31,31.96-6.55,41.59-12.59,9.3-5.85,17.37-10.87,34.18-10.64,16.82.24,24.83,5.52,34.12,11.64,9.6,6.32,20.51,13.5,41.54,13.81,21.04.3,31.97-6.56,41.62-12.59,9.3-5.85,17.37-10.88,34.18-10.64,16.82.24,24.83,5.52,34.12,11.63,9.6,6.32,20.51,13.5,41.51,13.81,21.03.31,31.96-6.55,41.62-12.59,9.3-5.85,17.37-10.88,34.18-10.64,16.85.24,24.83,5.52,34.12,11.64,9.61,6.32,20.51,13.49,41.51,13.8,21.04.31,31.97-6.55,41.59-12.59,9.31-5.85,17.37-10.88,34.19-10.64,16.85.24,24.83,5.52,34.12,11.64,9.6,6.32,20.5,13.49,41.51,13.8,21.03.31,31.96-6.55,41.62-12.59,9.31-5.85,17.37-10.87,34.19-10.63,16.81.24,24.83,5.52,34.12,11.63,9.6,6.32,20.5,13.5,41.51,13.81,21.03.3,31.96-6.56,41.59-12.59,9.3-5.86,17.37-10.88,34.18-10.64,14.77.21,26.67,7.53,38.19,14.6,14.85,9.14,31.7,19.49,51.45,7.14,5.78-3.62,8.29-7.46,8.65-11.37.77-8.16-7.87-16.63-15.24-23.88-8.59-8.4-17.45-17.09-17.45-26.26.02-10.29,6.67-15.22,14.37-20.95,8.29-6.17,17.7-13.16,17.75-27.08.05-13.94-9.32-21.18-17.59-27.6-7.65-5.93-14.28-11.03-14.23-21.34.04-10.31,6.66-15.22,14.36-20.93,8.29-6.17,17.7-13.16,17.75-27.08.05-13.94-9.32-21.18-17.59-27.6-7.65-5.93-14.28-11.03-14.23-21.34.04-10.31,6.66-15.22,14.36-20.93,8.29-6.15,17.7-13.16,17.75-27.08.05-13.94-9.32-21.18-17.59-27.6-7.65-5.93-14.28-11.03-14.23-21.34.04-10.29,6.66-15.22,14.36-20.93,8.29-6.15,17.73-13.16,17.75-27.08.05-13.94-9.31-21.18-17.59-27.57-7.65-5.93-14.25-11.03-14.23-21.34.01-10.29,6.66-15.22,14.36-20.93,8.29-6.15,17.7-13.14,17.75-27.08.05-13.94-9.32-21.18-17.6-27.57-7.65-5.93-14.24-11.03-14.22-21.34.04-10.29,6.66-15.22,14.35-20.93,8.3-6.15,17.74-13.16,17.76-27.08.05-13.94-9.32-21.18-17.6-27.57-7.65-5.93-14.24-11.03-14.23-21.34.02-10.29,6.66-15.22,14.36-20.92,8.29-6.15,17.71-13.16,17.76-27.08.05-13.94-9.32-21.18-17.6-27.57-7.65-5.93-14.27-11.03-14.23-21.34.05-10.33,6.66-15.22,14.36-20.93,8.29-6.15,17.71-13.18,17.75-27.08.05-13.94-9.31-21.18-17.59-27.57-7.65-5.93-14.28-11.03-14.23-21.34.05-10.33,6.66-15.22,14.36-20.92,8.29-6.15,17.7-13.14,17.75-27.08.05-13.94-9.31-21.18-17.59-27.57-7.65-5.93-14.28-11.03-14.23-21.34-.03-9.17,8.96-17.58,17.6-25.74,10.98-10.39,24.68-23.31,6.83-35.02"/>
  </g>
  <g class="cls-2">
    <path class="cls-5" d="M1570.73,32.53c-20.63-13.53-34.24-5.5-48.66,3.02v-.05c-9.98,5.9-21.29,12.57-38.41,15.92-16.44,3.21-25.14-2.61-36.14-9.98-10.46-7.01-22.33-14.92-42.27-15.23-21.03-.31-31.96,6.55-41.62,12.59-9.34,5.85-17.37,10.88-34.19,10.64-16.84-.24-24.86-5.52-34.12-11.64-9.6-6.32-20.5-13.5-41.54-13.81-21.03-.31-31.96,6.55-41.62,12.61-9.31,5.85-17.37,10.88-34.19,10.64-16.81-.24-24.86-5.52-34.12-11.64-9.6-6.32-20.5-13.5-41.54-13.81-21.03-.31-31.96,6.55-41.62,12.59-9.3,5.85-17.37,10.88-34.18,10.64-16.82-.24-24.83-5.52-34.12-11.64-9.6-6.32-20.51-13.5-41.51-13.8-21.04-.31-31.97,6.55-41.59,12.59-9.3,5.85-17.37,10.88-34.18,10.64-16.85-.24-24.83-5.52-34.12-11.64-9.6-6.32-20.5-13.5-41.51-13.8-21.04-.31-31.97,6.55-41.62,12.59-9.33,5.85-17.37,10.88-34.18,10.64-16.82-.24-24.83-5.52-34.12-11.64-9.6-6.32-20.51-13.5-41.51-13.8-21.01-.31-31.97,6.55-41.62,12.59-9.3,5.85-17.37,10.88-34.18,10.64-16.85-.24-24.83-5.52-34.12-11.64-9.6-6.32-20.5-13.5-41.51-13.8-21.04-.31-31.96,6.55-41.62,12.59-9.3,5.85-17.37,10.88-34.18,10.64-16.85-.24-24.83-5.52-34.12-11.64-9.6-6.32-20.51-13.5-41.51-13.8-21.01-.31-31.97,6.55-41.63,12.61-9.3,5.85-17.37,10.88-34.18,10.64-16.82-.24-24.83-5.52-34.12-11.64-9.6-6.32-20.5-13.5-41.51-13.8-21.04-.31-31.96,6.55-41.6,12.61-9.3,5.85-17.37,10.88-34.18,10.64-14.77-.22-26.67-7.53-38.19-14.61-14.85-9.14-31.7-19.48-51.44-7.13"/>
  </g>
</svg>