<?xml version="1.0" encoding="UTF-8"?>
<svg id="Capa_2" data-name="Capa 2" xmlns="http://www.w3.org/2000/svg" viewBox="0 0 61.71 51.18">
  <defs>
    <style>
      .cls-1 {
        fill: #1d1d1b;
      }
    </style>
  </defs>
  <g id="Capa_1-2" data-name="Capa 1">
    <g>
      <path class="cls-1" d="M44.78,37.25c-1.51-.96-2.99-1.81-4.33-2.59-1.34-.77-2.55-1.42-3.59-1.96-1.04-.54-1.94-.95-2.74-1.26-.8-.3-1.51-.44-2.29-.43-.55.01-1.06.24-1.76.68-.71.45-1.51,1.15-2.58,2.12-.03,0-.07,0-.1,0,1.42-2.99,2.53-5.82,3.32-8.68-5.15,7.62-17.04,14.17-30.7,20.97,5.8,2.18,11.77,3.75,17.82,4.7,2.44-4.06,4.58-7.65,6.41-10.94,1.08-1.92,2.24-3.17,3.28-3.94,1.07-.76,2.15-1.11,3.58-1.11,1.26,0,2.21.33,3.1,1.03.86.71,1.8,1.79,2.66,3.35,1.94,3.57,4.24,7.48,6.86,11.97,6.08-.79,12.11-2.19,17.99-4.22-6.13-3.32-11.93-6.52-16.93-9.71Z"/>
      <path class="cls-1" d="M32.44,12.66c.46.05,1.17.14,1.56.24-.47,1.22-1.3,3-2.1,4.73-.89,1.93-1.81,3.92-2.27,5.18-.08.22-.06.46.07.67.09.15.29.48,1.5.62.03,0,.05,0,.08,0,.34,0,.64-.26.68-.61.04-.38-.23-.72-.6-.77-.07,0-.14-.02-.21-.03.48-1.21,1.25-2.87,2-4.49.89-1.93,1.81-3.92,2.27-5.18.1-.29.08-.59-.08-.84-.37-.59-1.24-.72-2.74-.9-.43-.05-1.06-.13-1.46-.22.39-.4,1.15-.87,1.74-1.24,1.14-.71,2.22-1.38,2.54-2.26.08-.22.06-.46-.07-.67-.1-.15-.29-.48-1.51-.62-.38-.04-.72.23-.77.6-.04.37.21.7.57.76-.41.34-1.01.71-1.49,1.01-1.14.71-2.22,1.38-2.54,2.26-.1.29-.08.58.08.84.37.59,1.24.72,2.74.9Z"/>
      <path class="cls-1" d="M31.19,5.09s.05,0,.08,0c.34,0,.64-.26.68-.61.04-.31-.14-.59-.41-.71.39-.22.89-.43,1.25-.59,1.18-.52,2.3-1.01,2.62-1.88.08-.22.06-.46-.07-.67-.1-.15-.29-.48-1.51-.62-.38-.04-.72.23-.77.6-.04.31.14.6.41.72-.39.22-.89.43-1.25.59-1.18.52-2.3,1.01-2.62,1.88-.08.22-.06.46.07.67.1.15.29.48,1.5.62Z"/>
    </g>
  </g>
</svg>