<?xml version="1.0" encoding="UTF-8"?>
<svg id="Capa_2" data-name="Capa 2" xmlns="http://www.w3.org/2000/svg" viewBox="0 0 39.86 145.67">
  <defs>
    <style>
      .cls-1 {
        fill: #1e1e1c;
      }
    </style>
  </defs>
  <g id="Capa_1-2" data-name="Capa 1">
    <g>
      <path class="cls-1" d="M9.22,101.49c0,9.32,5.73,14.9,15.32,14.9,9.59,0,15.32-5.58,15.32-14.9s-5.73-14.84-15.26-14.84c-9.65,0-15.38,5.58-15.38,14.84ZM30.45,101.43c0,1.84-.99,2.2-6.08,2.2s-6.02-.36-6.02-2.02c0-1.78.94-2.14,6.02-2.14,4.97,0,6.08.36,6.08,1.96Z"/>
      <path class="cls-1" d="M14.19,42.51h-3.8s0,11.93,0,11.93h28.53s0-12.47,0-12.47h-10.76c-5.32,0-6.55-1.25-6.55-6.59v-.71s-12.1.06-12.1.06c.23,3.09,1.52,5.28,4.68,7.78Z"/>
      <path class="cls-1" d="M14.31,17.54c-3.22,1.96-4.85,4.27-4.85,7.12,0,5.76,6.2,9.79,14.91,9.79,9.18,0,15.32-3.62,15.32-8.96,0-3.09-1.58-5.94-4.44-7.95h3.68s0-11.87,0-11.87H10.39s0,11.87,0,11.87h3.92ZM30.62,19.5c0,1.84-.94,2.26-6.02,2.26-4.91,0-6.08-.42-6.08-2.08,0-1.78.99-2.14,6.08-2.14s6.02.36,6.02,1.96Z"/>
      <path class="cls-1" d="M11.65.54c-.36.36-.54.8-.54,1.31s.17.92.5,1.28c.35.39.8.58,1.33.58s.95-.18,1.3-.54c.35-.36.53-.8.53-1.32s-.17-.94-.52-1.3C13.9.19,13.46,0,12.94,0s-.94.18-1.29.54ZM14.02.78c.3.3.45.66.45,1.08s-.15.79-.44,1.08c-.3.3-.66.45-1.08.45s-.76-.15-1.06-.44c-.3-.3-.46-.66-.46-1.09s.15-.78.46-1.08c.3-.3.65-.45,1.06-.45s.78.15,1.08.45Z"/>
      <path class="cls-1" d="M13.84,1.02s-.04,0-.06,0h-.18c-.21,0-.36.06-.45.18-.05.07-.09.16-.12.29-.01-.14-.06-.26-.14-.36-.08-.1-.2-.14-.37-.14-.22,0-.38.09-.48.27-.06.11-.09.24-.1.41,0,.03,0,.17,0,.42,0,.25,0,.45,0,.57h2.03s0-.54,0-.54h-.72v-.23c.01-.08.02-.14.04-.18.03-.07.08-.12.15-.15.04-.02.13-.03.25-.03.12,0,.22-.02.28-.03v-.51s-.06.02-.06.02c-.02,0-.04.01-.06.01ZM12.8,1.63c.05.07.07.17.07.3v.21h-.59v-.13c0-.13.01-.24.04-.31.04-.11.12-.17.23-.17s.19.04.24.11Z"/>
      <path class="cls-1" d="M9.46,64.67c0,3.15,1.64,5.76,5.09,8.13h-4.15s0,11.93,0,11.93h28.53s0-12.47,0-12.47h-15.26c-1.53,0-2.16-.39-2.16-1.25,0-.9.47-1.48,2.28-1.48h15.14s0-12.17,0-12.17h-20.99c-3.83,0-8.48.75-8.48,7.3Z"/>
      <path class="cls-1" d="M9.46,126.08c0,3.38,1.46,6,3.92,7.12H0s0,12.47,0,12.47h38.93s0-12.47,0-12.47h-15.55c-1.61,0-2.1-.4-2.1-1.31,0-1.17.66-1.43,1.77-1.43h15.89s0-12.17,0-12.17h-19.06c-4.83,0-10.41.76-10.41,7.78Z"/>
    </g>
  </g>
</svg>