<?xml version="1.0" encoding="UTF-8"?>
<svg id="Capa_2" data-name="Capa 2" xmlns="http://www.w3.org/2000/svg" viewBox="0 0 145.67 39.86">
  <defs>
    <style>
      .cls-1 {
        fill: #1e1e1c;
      }
    </style>
  </defs>
  <g id="Capa_1-2" data-name="Capa 1">
    <g>
      <path class="cls-1" d="M44.18,9.22c-9.32,0-14.9,5.73-14.9,15.32s5.58,15.32,14.9,15.32,14.84-5.73,14.84-15.26-5.58-15.38-14.84-15.38ZM44.24,30.45c-1.84,0-2.2-.99-2.2-6.08s.36-6.02,2.02-6.02c1.78,0,2.14.94,2.14,6.02s-.36,6.08-1.96,6.08Z"/>
      <path class="cls-1" d="M103.16,14.19v-3.8h-11.93v28.53h12.47v-10.76c0-5.32,1.25-6.55,6.59-6.55h.71l-.06-12.1c-3.09.23-5.28,1.52-7.78,4.68Z"/>
      <path class="cls-1" d="M128.13,14.31c-1.96-3.22-4.27-4.85-7.12-4.85-5.76,0-9.79,6.2-9.79,14.91,0,9.18,3.62,15.32,8.96,15.32,3.09,0,5.94-1.58,7.95-4.44v3.68h11.87V10.39h-11.87v3.92ZM126.17,30.62c-1.84,0-2.26-.94-2.26-6.02s.42-6.08,2.08-6.08c1.78,0,2.14.99,2.14,6.08s-.36,6.02-1.96,6.02Z"/>
      <path class="cls-1" d="M145.13,11.65c-.36-.36-.8-.54-1.31-.54s-.92.17-1.28.5c-.39.35-.58.8-.58,1.33s.18.95.54,1.3c.36.35.8.53,1.32.53s.94-.17,1.3-.52c.37-.36.56-.79.56-1.31s-.18-.94-.54-1.29ZM144.89,14.02c-.3.3-.66.45-1.08.45s-.79-.15-1.08-.44c-.3-.3-.45-.66-.45-1.08s.15-.76.44-1.06c.3-.3.66-.46,1.09-.46s.78.15,1.08.46c.3.3.45.65.45,1.06s-.15.78-.45,1.08Z"/>
      <path class="cls-1" d="M144.65,13.84s0-.04,0-.06v-.18c0-.21-.06-.36-.18-.45-.07-.05-.16-.09-.29-.12.14-.01.26-.06.36-.14.1-.08.14-.2.14-.37,0-.22-.09-.38-.27-.48-.11-.06-.24-.09-.41-.1-.03,0-.17,0-.42,0-.25,0-.45,0-.57,0v2.03h.54v-.72h.23c.08.01.14.02.18.04.07.03.12.08.15.15.02.04.03.13.03.25,0,.12.02.22.03.28h.51l-.02-.06s-.01-.04-.01-.06ZM144.04,12.8c-.07.05-.17.07-.3.07h-.21v-.59h.13c.13,0,.24.01.31.04.11.04.17.12.17.23s-.04.19-.11.24Z"/>
      <path class="cls-1" d="M81,9.46c-3.15,0-5.76,1.64-8.13,5.09v-4.15h-11.93v28.53h12.47v-15.26c0-1.53.39-2.16,1.25-2.16s1.48.47,1.48,2.28v15.14h12.17v-20.99c0-3.83-.75-8.48-7.3-8.48Z"/>
      <path class="cls-1" d="M19.59,9.46c-3.38,0-6,1.46-7.12,3.92V0H0v38.93h12.47v-15.55c0-1.61.4-2.1,1.31-2.1,1.17,0,1.43.66,1.43,1.77v15.89h12.17v-19.06c0-4.83-.76-10.41-7.78-10.41Z"/>
    </g>
  </g>
</svg>