<?xml version="1.0" standalone="no"?>
<!DOCTYPE svg PUBLIC "-//W3C//DTD SVG 1.1//EN" "http://www.w3.org/Graphics/SVG/1.1/DTD/svg11.dtd" >
<svg xmlns="http://www.w3.org/2000/svg" xmlns:xlink="http://www.w3.org/1999/xlink" version="1.1">
<metadata>
Created by FontForge 20201107 at Mon Jul 14 14:24:42 2025
 By 
Copyright (c) 2023, Bao Nguyen (RandomMaerks) (rmforbusiness@gmail.com)
</metadata>
<defs>
<font id="OverusedGrotesk-Italic" horiz-adv-x="366" >
  <font-face 
    font-family="Overused Grotesk"
    font-weight="400"
    font-style="italic"
    font-stretch="normal"
    units-per-em="2048"
    panose-1="0 0 0 0 0 0 0 0 0 0"
    ascent="1638"
    descent="-410"
    x-height="1024"
    cap-height="1332"
    bbox="-138 -562 2570 2186"
    underline-thickness="102"
    underline-position="-254"
    slope="-10"
    unicode-range="U+0020-277E"
  />
<missing-glyph horiz-adv-x="1024" 
d="M102 -410v2048h820v-2048h-820zM204 -308h616v1844h-616v-1844z" />
    <glyph glyph-name=".notdef" horiz-adv-x="1024" 
d="M102 -410v2048h820v-2048h-820zM204 -308h616v1844h-616v-1844z" />
    <glyph glyph-name=".null" horiz-adv-x="0" 
 />
    <glyph glyph-name="nonmarkingreturn" horiz-adv-x="682" 
 />
    <glyph glyph-name="space" unicode=" " horiz-adv-x="408" 
 />
    <glyph glyph-name="exclam" unicode="!" 
d="M300 312h-122l166 1020h150zM274 0h-180l30 170h178z" />
    <glyph glyph-name="quotedbl" unicode="&#x22;" horiz-adv-x="628" 
d="M628 1434h146l-104 -444h-120zM362 1434h144l-102 -444h-120z" />
    <glyph glyph-name="numbersign" unicode="#" horiz-adv-x="1426" 
d="M1336 468v-126h-290l-134 -342h-156l132 342h-372l-132 -342h-158l134 342h-178v126h226l154 400h-242v126h292l130 338h158l-132 -338h372l132 338h158l-132 -338h174v-126h-222l-156 -400h242zM564 468h372l156 400h-372z" />
    <glyph glyph-name="dollar" unicode="$" horiz-adv-x="1186" 
d="M814 1540h106l-36 -202q167 -33 255.5 -143t88.5 -287h-154q0 244 -214 292l-82 -464l26 -4q354 -77 354 -336q0 -192 -127.5 -303t-346.5 -111h-38l-42 -232h-104l42 244q-182 32 -283 145t-101 287h158q0 -122 63.5 -197t186.5 -99l84 472l-50 12q-340 75 -340 322
q0 190 129.5 302t348.5 112h42zM644 766l32 -8l80 456h-24q-139 0 -227.5 -71.5t-88.5 -182.5q0 -147 228 -194zM760 578l-10 2l-80 -462h22q137 0 223.5 69.5t86.5 180.5q0 153 -242 210z" />
    <glyph glyph-name="percent" unicode="%" horiz-adv-x="1776" 
d="M222 868q0 206 110 346t272 140q136 0 218 -91t82 -243q0 -205 -110.5 -346.5t-269.5 -141.5q-138 0 -220 91.5t-82 244.5zM1322 1332h150l-782 -1332h-150zM768 1020q0 99 -45.5 153.5t-126.5 54.5q-102 0 -169 -103t-67 -259q0 -99 45.5 -153.5t128.5 -54.5
q100 0 167 103.5t67 258.5zM1102 316q0 206 110.5 346t271.5 140q138 0 220 -91t82 -243q0 -204 -111 -346t-271 -142q-137 0 -219.5 91.5t-82.5 244.5zM1650 470q0 98 -46 152t-128 54q-101 0 -167.5 -102t-66.5 -258q0 -100 45.5 -155t126.5 -55q101 0 168.5 104t67.5 260
z" />
    <glyph glyph-name="ampersand" unicode="&#x26;" horiz-adv-x="1278" 
d="M762 1348q138 0 226 -76.5t88 -193.5q0 -65 -21 -121.5t-53 -97t-81 -77t-94 -60.5t-103 -48l242 -310q84 120 132 294h152q-63 -238 -196 -406l198 -252h-182l-118 146q-184 -162 -414 -162q-177 0 -286.5 79t-109.5 213q0 138 84 238t280 196q-58 74 -90 139t-32 135
q0 149 105 256.5t273 107.5zM540 992q0 -55 27 -105t79 -115q53 25 94.5 49.5t88.5 61.5t73 84.5t26 100.5q0 68 -46.5 109t-125.5 41q-101 0 -158.5 -69t-57.5 -157zM302 298q0 -85 62.5 -132.5t181.5 -47.5q183 0 324 132l-290 366q-61 -28 -107 -57t-87 -67.5
t-62.5 -87.5t-21.5 -106z" />
    <glyph glyph-name="quotesingle" unicode="'" horiz-adv-x="360" 
d="M362 1434h144l-102 -444h-120z" />
    <glyph glyph-name="parenleft" unicode="(" horiz-adv-x="516" 
d="M438 -274h-152q-98 125 -131 338t13 504q49 277 160.5 497t253.5 345h152q-156 -131 -256 -336t-154 -506q-52 -304 -24 -507.5t138 -334.5z" />
    <glyph glyph-name="parenright" unicode=")" horiz-adv-x="516" 
d="M262 1410h154q97 -125 129.5 -338t-13.5 -504q-49 -277 -160.5 -497t-253.5 -345h-152q156 131 256 336t154 506q52 304 24 507.5t-138 334.5z" />
    <glyph glyph-name="asterisk" unicode="*" horiz-adv-x="1094" 
d="M736 1438l126 -22l-84 -434l430 76l18 -130l-432 -58l198 -380l-116 -56l-186 394l-304 -308l-88 92l314 292l-384 200l60 116l378 -218z" />
    <glyph glyph-name="plus" unicode="+" horiz-adv-x="1132" 
d="M750 648h428l-24 -138h-428l-76 -428h-138l74 428h-428l24 138h428l78 428h138z" />
    <glyph glyph-name="comma" unicode="," 
d="M128 188h178l-32 -188l-128 -276h-114l170 276h-108z" />
    <glyph glyph-name="hyphen" unicode="-" horiz-adv-x="964" 
d="M180 634h826l-24 -138h-826z" />
    <glyph glyph-name="period" unicode="." 
d="M128 188h178l-32 -188h-180z" />
    <glyph glyph-name="slash" unicode="/" horiz-adv-x="842" 
d="M828 1332h180l-758 -1332h-178z" />
    <glyph glyph-name="zero" unicode="0" horiz-adv-x="1150" 
d="M186 482q0 242 76 441.5t209.5 314t294.5 114.5q201 0 312.5 -135t111.5 -379q0 -245 -73 -440t-203.5 -304.5t-293.5 -109.5q-207 0 -320.5 130.5t-113.5 367.5zM1034 850q0 178 -70.5 269t-209.5 91q-115 0 -210 -96.5t-149.5 -265.5t-54.5 -374q0 -171 73.5 -258.5
t216.5 -87.5q117 0 209 91.5t143.5 256.5t51.5 374z" />
    <glyph glyph-name="one" unicode="1" horiz-adv-x="646" 
d="M622 1332h150l-234 -1332h-150l174 984h-320l22 128h158q83 0 128 30.5t58 107.5z" />
    <glyph glyph-name="two" unicode="2" horiz-adv-x="1082" 
d="M294 138h720l-24 -138h-900l4 36q16 105 56.5 186.5t111.5 147.5t159.5 117t218.5 107q210 90 288 167.5t78 204.5q0 112 -78 178t-210 66q-105 0 -193 -66.5t-113 -179.5h-156q43 175 168.5 279.5t301.5 104.5q194 0 314 -105t120 -273q0 -169 -99 -279t-331 -211
q-225 -99 -321.5 -174t-114.5 -168z" />
    <glyph glyph-name="three" unicode="3" horiz-adv-x="1086" 
d="M560 604l24 132h140q122 0 197 78.5t75 201.5q0 94 -63 145t-179 51q-121 0 -206.5 -67t-111.5 -181h-158q44 178 175 281t315 103q177 0 280.5 -86.5t103.5 -233.5q0 -119 -65.5 -214.5t-178.5 -143.5q76 -38 117 -106t41 -160q0 -178 -141.5 -299t-356.5 -121
q-197 0 -307.5 100t-110.5 278h156q0 -117 69 -179.5t199 -62.5q156 0 247 84.5t91 221.5q0 86 -55 132t-157 46h-140z" />
    <glyph glyph-name="four" unicode="4" horiz-adv-x="1116" 
d="M926 338l-60 -338h-148l60 338h-650l28 164l760 830h184l-152 -860h204l-24 -134h-202zM802 472l120 684l-614 -684h494z" />
    <glyph glyph-name="five" unicode="5" horiz-adv-x="1086" 
d="M926 522q0 117 -67.5 179.5t-190.5 62.5q-207 0 -322 -146h-148l190 716h796l-22 -138h-660l-124 -436q142 136 350 136q165 0 261.5 -100t96.5 -272q0 -231 -149.5 -385.5t-372.5 -154.5q-193 0 -302.5 97.5t-109.5 270.5h156q0 -112 65 -170t191 -58q164 0 263 109
t99 289z" />
    <glyph glyph-name="six" unicode="6" horiz-adv-x="1126" 
d="M188 468q0 262 80 463t224.5 311t331.5 110q175 0 275.5 -95.5t100.5 -260.5h-156q0 107 -59.5 165.5t-170.5 58.5q-354 0 -450 -536q-5 -52 -6 -64q63 116 172.5 184t233.5 68q162 0 261 -102t99 -270q0 -139 -66.5 -257.5t-182 -188.5t-251.5 -70q-200 0 -318 131
t-118 353zM362 370q0 -112 72 -182t188 -70q145 0 243.5 111t98.5 273q0 110 -62.5 173t-171.5 63q-154 0 -261 -107t-107 -261z" />
    <glyph glyph-name="seven" unicode="7" horiz-adv-x="1124" 
d="M550 0h-174q40 186 100.5 344t113 259t146 217t145.5 169t166 163q25 24 37 36h-786l24 144h948l-28 -164q-112 -104 -191.5 -186.5t-164 -192t-143 -220t-109.5 -255.5t-84 -314z" />
    <glyph glyph-name="eight" unicode="8" horiz-adv-x="1086" 
d="M878 670q90 -38 138 -108.5t48 -167.5q0 -176 -143 -293t-357 -117q-193 0 -305.5 88t-112.5 238q0 126 81 224t219 142q-72 38 -111 105t-39 155q0 175 132.5 293.5t327.5 118.5q175 0 277.5 -86.5t102.5 -235.5q0 -120 -69 -215.5t-189 -140.5zM686 736
q133 0 213.5 79.5t80.5 210.5q0 90 -62.5 139t-179.5 49q-129 0 -208.5 -81t-79.5 -213q0 -88 55 -136t159 -48h22zM660 602h-24q-151 0 -241.5 -80t-90.5 -212q0 -93 72 -142.5t206 -49.5q150 0 239 80t89 212q0 94 -64.5 143t-185.5 49z" />
    <glyph glyph-name="nine" unicode="9" horiz-adv-x="1126" 
d="M1172 868q0 -262 -79.5 -463t-223.5 -311t-331 -110q-176 0 -277 95t-101 261h156q0 -107 60.5 -165.5t169.5 -58.5q355 0 448 538q8 38 10 62q-63 -117 -173 -185.5t-233 -68.5q-162 0 -261 103t-99 271q0 139 66.5 257.5t182 188.5t251.5 70q199 0 316.5 -131
t117.5 -353zM1000 966q0 112 -72 182t-188 70q-145 0 -243.5 -110.5t-98.5 -271.5q0 -111 62.5 -174.5t171.5 -63.5q154 0 261 107t107 261z" />
    <glyph glyph-name="colon" unicode=":" 
d="M270 990h178l-32 -186h-180zM128 188h178l-32 -188h-180z" />
    <glyph glyph-name="semicolon" unicode=";" 
d="M270 990h178l-32 -186h-180zM128 188h178l-32 -188l-128 -276h-114l170 276h-108z" />
    <glyph glyph-name="less" unicode="&#x3c;" horiz-adv-x="1174" 
d="M1292 1052l-28 -162l-926 -328l814 -314l-32 -166l-966 400l30 170z" />
    <glyph glyph-name="equal" unicode="=" horiz-adv-x="1132" 
d="M1224 902l-24 -134h-996l24 134h996zM1130 368l-26 -136h-994l24 136h996z" />
    <glyph glyph-name="greater" unicode="&#x3e;" horiz-adv-x="1174" 
d="M84 82l28 162l924 328l-810 314l28 166l968 -400l-30 -170z" />
    <glyph glyph-name="question" unicode="?" horiz-adv-x="1082" 
d="M524 312q11 57 34.5 108t46.5 85.5t63 74t64 59t70 55.5q12 9 18 14q95 72 142.5 136.5t47.5 161.5q0 99 -67.5 152.5t-192.5 53.5q-127 0 -219 -76t-121 -204h-156q46 187 181.5 301.5t322.5 114.5q191 0 300.5 -87.5t109.5 -236.5q0 -61 -14.5 -114.5t-35 -91
t-57.5 -77t-65 -63t-74 -58.5q-106 -82 -139 -115q-87 -87 -107 -193h-152zM634 0h-180l30 170h180z" />
    <glyph glyph-name="at" unicode="@" horiz-adv-x="1832" 
d="M1442 964l-98 -548q-24 -142 114 -142q117 0 186.5 128t69.5 340q0 253 -149.5 393.5t-418.5 140.5q-177 0 -330.5 -65.5t-262 -179.5t-171 -275t-62.5 -346q0 -251 151.5 -390.5t424.5 -139.5q168 0 354 58l-18 -136q-171 -58 -346 -58q-328 0 -520 182.5t-192 485.5
q0 212 74 398t202.5 318.5t309 209t386.5 76.5q211 0 375 -81.5t255.5 -231.5t91.5 -345q0 -180 -52 -319.5t-147.5 -216t-220.5 -76.5q-105 0 -171 42t-79 118q-55 -78 -129.5 -121t-160.5 -43q-129 0 -208.5 90.5t-79.5 237.5q0 144 54.5 264t149.5 189t210 69
q85 0 148 -39t96 -111l22 124h142zM768 476q0 -100 47.5 -153t136.5 -53q124 0 205 108.5t81 273.5q0 100 -48 153t-138 53q-123 0 -203.5 -108t-80.5 -274z" />
    <glyph glyph-name="A" unicode="A" horiz-adv-x="1282" 
d="M1218 0h-154l-66 356h-568l-190 -356h-174l726 1332h172zM852 1152l-352 -664h474z" />
    <glyph glyph-name="B" unicode="B" horiz-adv-x="1210" 
d="M932 1332q151 0 238.5 -79.5t87.5 -216.5q0 -106 -62.5 -204.5t-179.5 -145.5q91 -35 140.5 -109.5t49.5 -180.5q0 -74 -29 -144.5t-81 -127t-132 -90.5t-174 -34h-682l236 1332h588zM914 1194h-444l-78 -444h444q57 0 103.5 19.5t75 49t47.5 68.5t26.5 75t7.5 70
q0 77 -47 119.5t-135 42.5zM820 612h-452l-84 -476h484q74 0 130.5 25.5t88.5 67.5t47.5 90t15.5 99q0 93 -59.5 143.5t-170.5 50.5z" />
    <glyph glyph-name="C" unicode="C" horiz-adv-x="1318" 
d="M194 546q0 168 51.5 317t140.5 256t213 169t263 62q232 0 374 -127.5t142 -340.5h-154q0 153 -99 239.5t-273 86.5q-139 0 -254 -88t-180.5 -242t-65.5 -340q0 -198 101.5 -304t290.5 -106q145 0 261 86t151 220h160q-56 -207 -213.5 -328.5t-376.5 -121.5
q-246 0 -389 150.5t-143 411.5z" />
    <glyph glyph-name="D" unicode="D" horiz-adv-x="1270" 
d="M816 1332q233 0 364.5 -145.5t131.5 -396.5q0 -152 -45 -293.5t-125.5 -252t-203.5 -177.5t-268 -67h-562l236 1332h472zM470 1192l-186 -1052h364q104 0 191 44t144 113.5t96.5 159t57 177t17.5 170.5q0 187 -92.5 287.5t-267.5 100.5h-324z" />
    <glyph glyph-name="E" unicode="E" horiz-adv-x="1094" 
d="M1242 1332l-26 -144h-748l-76 -436h690l-26 -144h-690l-82 -466h748l-24 -142h-900l236 1332h898z" />
    <glyph glyph-name="F" unicode="F" horiz-adv-x="1094" 
d="M1242 1332l-26 -144h-748l-84 -480h688l-24 -144h-688l-100 -564h-152l236 1332h898z" />
    <glyph glyph-name="G" unicode="G" horiz-adv-x="1338" 
d="M194 544q0 172 49 322t135 256t207 167t261 61q243 0 388.5 -134t145.5 -358h-156q0 165 -102.5 258.5t-283.5 93.5q-140 0 -251 -85.5t-173 -239t-62 -347.5q0 -190 97 -300t267 -112q157 0 275.5 117.5t164.5 320.5h-402l22 134h580l-126 -698h-124l36 248
q-80 -127 -196.5 -195.5t-257.5 -68.5q-219 0 -356.5 155t-137.5 405z" />
    <glyph glyph-name="H" unicode="H" horiz-adv-x="1266" 
d="M344 1332h150l-102 -572h748l102 572h150l-236 -1332h-150l108 616h-746l-108 -616h-152z" />
    <glyph glyph-name="I" unicode="I" 
d="M344 1332h150l-234 -1332h-152z" />
    <glyph glyph-name="J" unicode="J" horiz-adv-x="666" 
d="M74 140h128q53 0 94.5 13t79.5 44.5t65.5 90.5t42.5 144l158 900h150l-162 -920q-38 -216 -144.5 -314t-245.5 -98h-186z" />
    <glyph glyph-name="K" unicode="K" horiz-adv-x="1116" 
d="M344 1332h150l-118 -676l720 676h212l-700 -642l482 -690h-170l-418 594l-162 -146l-80 -448h-152z" />
    <glyph glyph-name="L" unicode="L" horiz-adv-x="972" 
d="M904 0h-796l236 1332h150l-210 -1190h646z" />
    <glyph glyph-name="M" unicode="M" horiz-adv-x="1534" 
d="M838 0h-142l-240 1122l-196 -1122h-152l236 1332h206l244 -1120l630 1120h238l-236 -1332h-150l196 1122z" />
    <glyph glyph-name="N" unicode="N" horiz-adv-x="1272" 
d="M1250 1332h150l-236 -1332h-156l-550 1132l-198 -1132h-152l236 1332h188l524 -1090z" />
    <glyph glyph-name="O" unicode="O" horiz-adv-x="1374" 
d="M194 542q0 229 87 414.5t241.5 290.5t345.5 105q240 0 390 -161t150 -419q0 -230 -82.5 -409t-233.5 -279t-346 -100q-245 0 -398.5 155.5t-153.5 402.5zM1256 778q0 204 -106 318t-298 114q-143 0 -258 -86.5t-179.5 -239.5t-64.5 -344q0 -196 108 -304t302 -108
q221 0 358.5 179.5t137.5 470.5z" />
    <glyph glyph-name="P" unicode="P" horiz-adv-x="1158" 
d="M762 492h-414l-88 -492h-152l236 1332h520q177 0 279.5 -99t102.5 -265q0 -91 -32.5 -175.5t-92 -152t-153 -108t-206.5 -40.5zM838 1194h-368l-100 -562h368q93 0 164 31.5t111 83.5t59.5 110.5t19.5 120.5q0 105 -65 160.5t-189 55.5z" />
    <glyph glyph-name="Q" unicode="Q" horiz-adv-x="1374" 
d="M194 542q0 167 52.5 317t142 258t214.5 171.5t265 63.5q246 0 393 -158t147 -422q0 -176 -53.5 -327t-150.5 -257l146 -120l-88 -102l-160 130q-159 -112 -356 -112q-251 0 -401.5 151.5t-150.5 406.5zM1256 778q0 204 -106.5 318t-297.5 114q-143 0 -258 -86.5
t-179.5 -239.5t-64.5 -344q0 -195 108 -303.5t302 -110.5q126 0 228 62l-264 214l86 104l282 -230q164 183 164 502z" />
    <glyph glyph-name="R" unicode="R" horiz-adv-x="1168" 
d="M672 548h-316l-96 -548h-152l236 1332h542q171 0 269.5 -91.5t98.5 -250.5q0 -145 -93.5 -251.5t-246.5 -138.5q101 -25 145.5 -93t44.5 -193v-314h-152v296q0 139 -62.5 195.5t-217.5 56.5zM858 1194h-388l-90 -510h388q150 0 238 87t88 225q0 96 -61.5 147t-174.5 51z
" />
    <glyph glyph-name="S" unicode="S" horiz-adv-x="1186" 
d="M768 578l-162 36q-340 75 -340 322q0 190 130.5 302t349.5 112q236 0 363 -114.5t127 -327.5h-154q0 154 -84.5 230t-257.5 76q-139 0 -227.5 -71.5t-88.5 -182.5q0 -147 230 -194l156 -34q356 -76 356 -336q0 -192 -128 -303t-346 -111q-244 0 -385 119t-141 325h156
q0 -149 97.5 -228.5t278.5 -79.5q137 0 224.5 69.5t87.5 180.5q0 153 -242 210z" />
    <glyph glyph-name="T" unicode="T" horiz-adv-x="1084" 
d="M1252 1332l-26 -144h-400l-208 -1188h-150l208 1188h-398l26 144h948z" />
    <glyph glyph-name="U" unicode="U" horiz-adv-x="1204" 
d="M332 1332h152l-140 -792q-35 -191 53 -301.5t275 -110.5q148 0 246 92.5t128 259.5l146 852h152l-152 -868q-39 -218 -183 -349t-345 -131q-164 0 -280.5 71t-167 201t-20.5 296z" />
    <glyph glyph-name="V" unicode="V" horiz-adv-x="1282" 
d="M302 1332h152l212 -1146l608 1146h180l-728 -1332h-170z" />
    <glyph glyph-name="W" unicode="W" horiz-adv-x="1986" 
d="M302 1332h154l100 -1138l572 1138h180l162 -1138l514 1138h174l-630 -1332h-172l-164 1142l-572 -1142h-176z" />
    <glyph glyph-name="X" unicode="X" horiz-adv-x="1190" 
d="M302 1332h164l252 -586l448 586h198l-528 -670l292 -662h-166l-252 584l-450 -584h-194l524 666z" />
    <glyph glyph-name="Y" unicode="Y" horiz-adv-x="1190" 
d="M600 458l-298 874h162l230 -700l484 700h186l-616 -874l-80 -458h-150z" />
    <glyph glyph-name="Z" unicode="Z" horiz-adv-x="1148" 
d="M328 1332h956l-22 -164l-972 -1032h788l-22 -136h-958l22 162l968 1032h-784z" />
    <glyph glyph-name="bracketleft" unicode="[" horiz-adv-x="514" 
d="M462 1270l-246 -1394h244l-24 -142h-394l296 1680h394l-26 -144h-244z" />
    <glyph glyph-name="backslash" unicode="\" horiz-adv-x="842" 
d="M460 1332l312 -1332h-156l-310 1332h154z" />
    <glyph glyph-name="bracketright" unicode="]" horiz-adv-x="514" 
d="M254 -124l246 1394h-242l26 144h392l-296 -1680h-392l24 142h242z" />
    <glyph glyph-name="asciicircum" unicode="^" horiz-adv-x="786" 
d="M572 1440h150l174 -416h-116l-138 334l-256 -334h-134z" />
    <glyph glyph-name="underscore" unicode="_" horiz-adv-x="1176" 
d="M68 0h1042l-22 -128h-1042z" />
    <glyph glyph-name="grave" unicode="`" horiz-adv-x="564" 
d="M326 1440h172l190 -340h-124z" />
    <glyph glyph-name="a" unicode="a" horiz-adv-x="1052" 
d="M1062 660l-116 -660h-156l26 144q-66 -79 -156.5 -121.5t-193.5 -42.5q-144 0 -235 78t-91 202q0 139 93.5 226.5t254.5 93.5l290 8q65 3 93.5 17t38.5 51l4 20q19 106 -54 174t-202 68q-217 0 -276 -184h-160q36 144 155 228t287 84q198 0 312 -110.5t86 -275.5z
M296 276q0 -75 58.5 -120.5t155.5 -45.5q124 0 220.5 75t129.5 195l16 86l-358 -10q-109 -3 -165.5 -52t-56.5 -128z" />
    <glyph glyph-name="b" unicode="b" horiz-adv-x="1150" 
d="M362 1434h154l-100 -570q62 86 147.5 134t188.5 48q187 0 300.5 -121.5t113.5 -322.5q0 -173 -67.5 -315.5t-185 -223.5t-259.5 -81q-282 0 -350 250l-40 -232h-154zM1010 602q0 144 -77.5 225t-218.5 81q-151 0 -256.5 -135t-105.5 -343q0 -148 77.5 -229t218.5 -81
q147 0 254.5 137.5t107.5 344.5z" />
    <glyph glyph-name="c" unicode="c" horiz-adv-x="1118" 
d="M168 430q0 175 69 317t190.5 221.5t270.5 79.5q194 0 308 -112.5t114 -299.5h-154q0 128 -73.5 200t-206.5 72q-154 0 -258 -138t-104 -342q0 -149 78.5 -229.5t223.5 -80.5q109 0 190.5 67t107.5 175h160q-40 -175 -166 -277.5t-302 -102.5q-205 0 -326.5 122
t-121.5 328z" />
    <glyph glyph-name="d" unicode="d" horiz-adv-x="1150" 
d="M1296 1434l-252 -1434h-152l30 168q-136 -184 -344 -184q-187 0 -298.5 120.5t-111.5 323.5q0 173 67 316t184.5 224.5t260.5 81.5q136 0 225.5 -66.5t126.5 -185.5l112 636h152zM324 432q0 -149 78 -230.5t218 -81.5q150 0 258 136t108 342q0 147 -78 228.5t-218 81.5
q-152 0 -259 -135t-107 -341z" />
    <glyph glyph-name="e" unicode="e" horiz-adv-x="1132" 
d="M168 430q0 170 64 309.5t184.5 222t275.5 82.5q115 0 207 -41t147.5 -111t77.5 -164.5t4 -199.5l-10 -60h-794q-2 -16 -2 -46q0 -150 80.5 -228t233.5 -78q107 0 183 51.5t115 148.5h168q-60 -163 -180 -248.5t-288 -85.5q-216 0 -341 120t-125 328zM700 914
q-134 0 -229.5 -87t-130.5 -239h640q21 144 -58.5 235t-221.5 91z" />
    <glyph glyph-name="f" unicode="f" horiz-adv-x="660" 
d="M226 892l22 132h162l26 148q24 134 112.5 198t205.5 64h92l-22 -132h-80q-133 0 -158 -142l-24 -136h212l-22 -132h-212l-158 -892h-152l158 892h-162z" />
    <glyph glyph-name="g" unicode="g" horiz-adv-x="1150" 
d="M1224 1024l-190 -1088q-27 -156 -149.5 -251t-302.5 -95q-218 0 -350 101t-132 267h154q0 -104 92 -170t242 -66q123 0 201.5 63.5t96.5 174.5l42 236q-67 -86 -156.5 -133t-191.5 -47q-183 0 -293.5 118t-110.5 312q0 167 65.5 304.5t180.5 216.5t254 79q131 0 224 -63
t134 -177l38 218h152zM330 454q0 -144 79.5 -223t222.5 -79q123 0 212.5 77t125.5 211l18 104q2 20 2 60q0 142 -79 221t-223 79q-159 0 -258.5 -125t-99.5 -325z" />
    <glyph glyph-name="h" unicode="h" horiz-adv-x="1076" 
d="M928 590q27 143 -34.5 227.5t-191.5 84.5q-129 0 -217 -73.5t-115 -202.5l-108 -626h-152l248 1434h152l-98 -562q67 81 157.5 126.5t188.5 45.5q109 0 191.5 -60t118.5 -161t14 -217l-108 -606h-150z" />
    <glyph glyph-name="i" unicode="i" 
d="M332 1336h180l-30 -168h-180zM290 1024h152l-180 -1024h-152z" />
    <glyph glyph-name="j" unicode="j" 
d="M332 1336h180l-30 -168h-180zM-104 -192h64q56 0 92 31t50 111l190 1074h152l-192 -1086q-13 -73 -43 -126.5t-71.5 -84t-88.5 -45t-101 -14.5h-76z" />
    <glyph glyph-name="k" unicode="k" horiz-adv-x="1008" 
d="M894 1024h216l-530 -502l374 -522h-176l-310 426l-160 -146l-50 -280h-150l252 1434h150l-166 -944z" />
    <glyph glyph-name="l" unicode="l" 
d="M362 1434h152l-252 -1434h-152z" />
    <glyph glyph-name="m" unicode="m" horiz-adv-x="1704" 
d="M290 1024h152l-24 -138q66 76 156 118t178 42q113 0 192.5 -61t103.5 -167q65 105 167.5 165.5t206.5 60.5q154 0 242 -113t56 -293l-116 -638h-150l112 618q27 145 -27.5 213.5t-168.5 68.5q-108 0 -201.5 -74.5t-118.5 -185.5v-4l-118 -636h-150l114 618
q26 144 -30 216t-178 72q-107 0 -192.5 -63.5t-115.5 -168.5l-118 -674h-152z" />
    <glyph glyph-name="n" unicode="n" horiz-adv-x="1076" 
d="M288 1024h152l-26 -152q65 81 155 126.5t189 45.5q109 0 191.5 -60t118.5 -161t14 -217l-108 -606h-150l104 590q27 143 -34.5 227.5t-191.5 84.5q-124 0 -211.5 -70t-116.5 -192l-112 -640h-152z" />
    <glyph glyph-name="o" unicode="o" horiz-adv-x="1136" 
d="M168 430q0 173 69.5 315t191 222.5t269.5 80.5q200 0 321 -122t121 -326q0 -173 -69.5 -315.5t-191 -223.5t-269.5 -81q-200 0 -321 123t-121 327zM986 602q0 144 -78.5 225t-219.5 81q-150 0 -257 -135.5t-107 -342.5q0 -148 78.5 -229t219.5 -81q149 0 256.5 137.5
t107.5 344.5z" />
    <glyph glyph-name="p" unicode="p" horiz-adv-x="1150" 
d="M290 1024h154l-28 -158q62 85 148 132.5t188 47.5q187 0 300.5 -121.5t113.5 -322.5q0 -174 -67.5 -316.5t-185 -223t-259.5 -80.5q-282 0 -350 252l-100 -568h-152zM1010 602q0 144 -77.5 225t-218.5 81q-151 0 -256.5 -135t-105.5 -343q0 -148 77.5 -229t218.5 -81
q149 0 255.5 137.5t106.5 344.5z" />
    <glyph glyph-name="q" unicode="q" horiz-adv-x="1150" 
d="M1222 1024l-240 -1358h-152l88 498q-135 -180 -340 -180q-187 0 -298.5 120.5t-111.5 323.5q0 173 67 316t184.5 224.5t260.5 81.5q136 0 225.5 -65.5t124.5 -182.5l40 222h152zM324 432q0 -149 78 -230.5t218 -81.5q124 0 222.5 97t129.5 253l6 28q8 64 8 100
q0 147 -78 228.5t-218 81.5q-152 0 -259 -135t-107 -341z" />
    <glyph glyph-name="r" unicode="r" horiz-adv-x="666" 
d="M292 1024h154l-26 -146q63 74 146.5 114t167.5 40h48l-28 -156h-46q-112 0 -205.5 -58.5t-122.5 -157.5l-114 -660h-152z" />
    <glyph glyph-name="s" unicode="s" horiz-adv-x="1028" 
d="M662 430l-158 38q-141 30 -208.5 94.5t-67.5 169.5q0 145 107 230.5t295 85.5q185 0 294.5 -92.5t113.5 -261.5h-148q0 110 -69.5 167t-200.5 57q-113 0 -177.5 -46.5t-64.5 -125.5q0 -56 40 -89t130 -53l164 -34q141 -30 209.5 -97.5t68.5 -178.5q0 -147 -106 -231.5
t-298 -84.5q-206 0 -322.5 94.5t-115.5 259.5h154q0 -110 75 -168t211 -58q120 0 186 45t66 123q0 60 -43 97.5t-135 58.5z" />
    <glyph glyph-name="t" unicode="t" horiz-adv-x="660" 
d="M618 136l-24 -136h-92q-106 0 -164 63.5t-36 198.5l112 630h-188l24 132h186l48 266h152l-46 -266h184l-22 -132h-186l-108 -610q-14 -82 7.5 -114t72.5 -32h80z" />
    <glyph glyph-name="u" unicode="u" horiz-adv-x="1060" 
d="M328 434q-26 -145 31 -228.5t185 -83.5q132 0 220 79.5t108 216.5h2l106 606h148l-178 -1024h-150l26 148q-64 -79 -152 -122.5t-186 -43.5q-110 0 -190 59t-113 159t-11 218l108 606h152z" />
    <glyph glyph-name="v" unicode="v" horiz-adv-x="1106" 
d="M250 1024h152l176 -850l466 850h178l-580 -1024h-172z" />
    <glyph glyph-name="w" unicode="w" horiz-adv-x="1586" 
d="M246 1024h154l76 -832l398 832h172l106 -832l372 832h174l-494 -1024h-164l-110 830l-396 -830h-168z" />
    <glyph glyph-name="x" unicode="x" horiz-adv-x="1044" 
d="M250 1024h160l210 -428l354 428h184l-422 -506l242 -518h-158l-204 438l-360 -438h-186l424 520z" />
    <glyph glyph-name="y" unicode="y" horiz-adv-x="1114" 
d="M86 -180h146q71 0 113 29t83 103l38 76l-218 996h156l180 -840l466 840h176l-614 -1088q-81 -142 -159.5 -202t-192.5 -60h-194z" />
    <glyph glyph-name="z" unicode="z" horiz-adv-x="966" 
d="M268 1024h780l-24 -156l-742 -740h612l-22 -128h-782l24 156l742 740h-610z" />
    <glyph glyph-name="braceleft" unicode="{" horiz-adv-x="514" 
d="M706 1274h-46q-60 0 -94.5 -33.5t-47.5 -108.5l-70 -398q-18 -122 -134 -160q97 -35 78 -162l-70 -396q-13 -75 8.5 -108.5t83.5 -33.5h44l-22 -140h-66q-115 0 -167 70t-31 196l70 398q10 55 -7 80.5t-65 25.5h-50l24 138h52q47 0 73 26.5t35 83.5l70 396q22 126 99 196
t193 70h66z" />
    <glyph glyph-name="bar" unicode="|" 
d="M398 1640h150l-362 -2050h-150z" />
    <glyph glyph-name="braceright" unicode="}" horiz-adv-x="514" 
d="M8 -126h46q62 0 95 33.5t47 108.5l68 396q10 60 46 102t90 60q-97 36 -78 160l70 398q14 75 -7.5 108.5t-82.5 33.5h-48l26 140h66q115 0 167 -70t29 -196l-70 -396q-10 -57 6.5 -83.5t63.5 -26.5h52l-24 -138h-50q-48 0 -73.5 -25t-36.5 -81l-70 -398q-22 -126 -99 -196
t-193 -70h-64z" />
    <glyph glyph-name="asciitilde" unicode="~" horiz-adv-x="902" 
d="M458 1026q42 0 77.5 -16t53 -32t44.5 -46q6 -7 9 -10q25 -31 36.5 -43.5t36.5 -26.5t53 -14q48 0 85.5 47.5t50.5 128.5h110q-26 -138 -97 -219t-167 -81q-44 0 -80.5 15.5t-53.5 31t-44 45.5q-7 8 -28.5 33t-31 34.5t-29.5 20t-41 10.5q-47 0 -84 -50t-50 -132h-112
q26 144 94.5 224t167.5 80z" />
    <glyph glyph-name="uni00A0" unicode="&#xa0;" horiz-adv-x="408" 
 />
    <glyph glyph-name="exclamdown" unicode="&#xa1;" 
d="M274 1024h180l-30 -170h-178zM248 712h122l-166 -1020h-150z" />
    <glyph glyph-name="cent" unicode="&#xa2;" horiz-adv-x="1118" 
d="M204 584q0 263 150 439t374 179l22 130h108l-26 -140q150 -28 237 -137t87 -265h-150q0 106 -51.5 175.5t-146.5 90.5l-138 -786q107 1 187 68t107 176h158q-40 -175 -167 -277.5t-303 -102.5h-6l-24 -134h-106l26 144q-158 32 -248 148.5t-90 291.5zM358 584
q0 -125 53 -202.5t155 -101.5l138 786q-149 -11 -247.5 -147.5t-98.5 -334.5z" />
    <glyph glyph-name="sterling" unicode="&#xa3;" horiz-adv-x="1110" 
d="M198 710h186l42 238q30 180 146.5 290t277.5 110q169 0 262.5 -91t93.5 -243h-150q0 95 -52.5 146.5t-153.5 51.5q-108 0 -180.5 -71t-93.5 -197l-42 -234h450l-20 -126h-452l-24 -132q-17 -100 -73 -184.5t-155 -127.5h804l-24 -140h-968l28 152q104 43 163.5 129
t78.5 187l20 116h-186z" />
    <glyph glyph-name="currency" unicode="&#xa4;" horiz-adv-x="1020" 
d="M832 838l192 164l80 -98l-192 -164q20 -46 20 -114q-3 -129 -84 -228l138 -168l-116 -98l-138 170q-86 -48 -176 -48q-93 0 -160 48l-200 -170l-80 98l198 168q-27 57 -24 122q3 127 80 222l-136 162l116 98l132 -162q82 50 182 50q104 0 168 -52zM414 528
q-2 -75 40.5 -117.5t121.5 -42.5q98 0 163.5 70t66.5 176q2 75 -41 118.5t-121 43.5q-98 0 -163.5 -70t-66.5 -178z" />
    <glyph glyph-name="yen" unicode="&#xa5;" horiz-adv-x="1190" 
d="M228 288h340l22 128h-342l22 122h320l-290 794h164l234 -666l480 666h184l-576 -794h312l-22 -122h-334l-22 -128h334l-24 -122h-332l-30 -166h-150l28 166h-342z" />
    <glyph glyph-name="brokenbar" unicode="&#xa6;" 
d="M398 1640h150l-162 -918h-150zM348 508l-162 -918h-150l162 918h150z" />
    <glyph glyph-name="section" unicode="&#xa7;" horiz-adv-x="1028" 
d="M654 380l-162 20q-146 21 -215 73.5t-69 142.5q0 86 61.5 148.5t170.5 89.5q-150 56 -150 196q0 135 115.5 219.5t298.5 84.5q200 0 311 -80.5t111 -227.5h-158q0 182 -254 182q-121 0 -196.5 -46t-75.5 -120q0 -85 170 -108l160 -20q147 -19 216.5 -71.5t69.5 -144.5
q0 -86 -57 -150t-157 -96q130 -59 130 -190q0 -133 -115.5 -217.5t-298.5 -84.5q-200 0 -310 80.5t-110 227.5h158q0 -182 252 -182q122 0 198 45.5t76 120.5q0 87 -170 108zM540 534l144 -20q95 3 155.5 53t60.5 125q0 45 -41.5 70.5t-134.5 39.5l-142 18
q-95 -3 -156.5 -53t-61.5 -123q0 -45 42 -71.5t134 -38.5z" />
    <glyph glyph-name="dieresis" unicode="&#xa8;" horiz-adv-x="734" 
d="M496 1204h172v-180h-172v180zM68 1204h172v-180h-172v180z" />
    <glyph glyph-name="copyright" unicode="&#xa9;" horiz-adv-x="1708" 
d="M1744 666q0 -226 -97 -402t-273 -273t-402 -97q-224 0 -394.5 93t-264 263.5t-93.5 393.5q0 172 56.5 319t156.5 250.5t243 162t310 58.5q166 0 307 -57t240 -157.5t155 -243.5t56 -310zM970 26q285 0 461.5 177.5t176.5 464.5q0 283 -172.5 457.5t-453.5 174.5
q-282 0 -454 -176.5t-172 -465.5q0 -287 167.5 -459.5t446.5 -172.5zM586 664q0 192 107 309t283 117q157 0 261.5 -91.5t116.5 -242.5h-144q-4 96 -68 152t-166 56q-119 0 -183.5 -78t-64.5 -222t65 -224t183 -80q103 0 165.5 50t68.5 138h144q-13 -143 -117 -228.5
t-261 -85.5q-176 0 -283 118.5t-107 311.5z" />
    <glyph glyph-name="ordfeminine" unicode="&#xaa;" horiz-adv-x="896" 
d="M926 764q-25 -145 -16 -226h-140q-3 45 4 112q-122 -132 -282 -132q-124 0 -199 60t-75 154q0 103 74 170t194 76l242 18q51 5 77 17t35 37l4 20q11 65 -38 109.5t-130 44.5q-197 0 -244 -148h-146q32 125 135 196.5t257 71.5q151 0 236 -80.5t64 -199.5zM362 744
q0 -47 42 -74.5t114 -27.5q108 0 190 63.5t98 160.5h2l4 26l-304 -22q-71 -4 -108.5 -37t-37.5 -89z" />
    <glyph glyph-name="guillemotleft" unicode="&#xab;" horiz-adv-x="1180" 
d="M1298 1052l-34 -190l-424 -300l318 -306l-30 -174l-428 400l30 170zM752 1052l-32 -190l-428 -300l320 -306l-30 -174l-428 400l30 170z" />
    <glyph glyph-name="logicalnot" unicode="&#xac;" horiz-adv-x="1092" 
d="M962 496h-806l24 138h958l-68 -386h-152z" />
    <glyph glyph-name="uni00AD" unicode="&#xad;" horiz-adv-x="790" 
d="M180 634h652l-24 -138h-652z" />
    <glyph glyph-name="registered" unicode="&#xae;" horiz-adv-x="1708" 
d="M1744 666q0 -226 -97 -402t-273 -273t-402 -97q-224 0 -394.5 93t-264 263.5t-93.5 393.5q0 172 56.5 319t156.5 250.5t243 162t310 58.5q166 0 307 -57t240 -157.5t155 -243.5t56 -310zM970 26q285 0 461.5 177.5t176.5 464.5q0 283 -172.5 457.5t-453.5 174.5
q-282 0 -454 -176.5t-172 -465.5q0 -287 167.5 -459.5t446.5 -172.5zM1022 566h-224v-294h-134v794h424q116 0 187 -63.5t71 -166.5q0 -79 -40.5 -136.5t-111.5 -83.5q62 -15 92.5 -56t39.5 -120l22 -168h-134l-18 150q-8 75 -49 109.5t-125 34.5zM1066 948h-268v-266h268
q68 0 105 37.5t37 106.5q0 58 -37 90t-105 32z" />
    <glyph glyph-name="macron" unicode="&#xaf;" horiz-adv-x="770" 
d="M278 1188h634l-22 -128h-634z" />
    <glyph glyph-name="degree" unicode="&#xb0;" horiz-adv-x="698" 
d="M820 1108q0 -135 -87.5 -226.5t-216.5 -91.5q-117 0 -190.5 69.5t-73.5 180.5q0 133 88 225.5t216 92.5q117 0 190.5 -70t73.5 -180zM380 1046q0 -64 39 -101t107 -37q73 0 119.5 54.5t46.5 137.5q0 66 -39 103t-107 37q-72 0 -119 -54.5t-47 -139.5z" />
    <glyph glyph-name="plusminus" unicode="&#xb1;" horiz-adv-x="1132" 
d="M752 666h430l-24 -140h-428l-74 -410h-138l70 410h-428l26 140h428l74 410h138zM1070 34l-24 -138h-996l24 138h996z" />
    <glyph glyph-name="uni00B2" unicode="&#xb2;" horiz-adv-x="794" 
d="M370 868h498l-22 -122h-642l6 36q6 36 18.5 68t26 57t36.5 48.5t40.5 39.5t48 33.5t49 27t54 23.5t52 20t53.5 19q49 17 79 30t63 32.5t51.5 44.5t24.5 57q12 68 -26 106t-118 38q-87 0 -147 -44t-77 -118h-144q33 126 141 204t249 78q140 0 212.5 -74.5t51.5 -197.5
q-8 -39 -29.5 -73.5t-49 -59.5t-68.5 -48.5t-76 -39t-83 -33.5q-152 -56 -194 -80q-60 -33 -78 -72z" />
    <glyph glyph-name="uni00B3" unicode="&#xb3;" horiz-adv-x="800" 
d="M532 1080l20 112h118q50 0 82.5 26.5t41.5 75.5q10 63 -28.5 97.5t-119.5 34.5q-75 0 -128 -35t-66 -95h-142q30 113 129 182.5t229 69.5q140 0 214.5 -67.5t53.5 -178.5q-19 -111 -124 -164q105 -53 84 -178q-18 -104 -117 -167t-243 -63q-140 0 -221 67t-71 173h142
q-6 -54 40 -86t130 -32q86 0 138 30.5t62 87.5q9 53 -18.5 81.5t-87.5 28.5h-118z" />
    <glyph glyph-name="acute" unicode="&#xb4;" horiz-adv-x="540" 
d="M514 1350l-290 -326h-126l238 326h178z" />
    <glyph glyph-name="mu" unicode="&#xb5;" horiz-adv-x="1060" 
d="M950 0h-150l24 136q-60 -74 -141 -116t-171 -42q-146 0 -236 96l-72 -408h-152l238 1358h154l-114 -638q-11 -123 47.5 -193.5t176.5 -70.5q127 0 212 79t106 213l108 610h150z" />
    <glyph glyph-name="paragraph" unicode="&#xb6;" horiz-adv-x="1046" 
d="M600 652q-164 0 -261 82.5t-97 221.5q0 74 30 141.5t84.5 120t138 83.5t183.5 31h490l-234 -1332h-144l210 1192h-160l-210 -1192h-146z" />
    <glyph glyph-name="periodcentered" unicode="&#xb7;" 
d="M228 752h178l-32 -184h-180z" />
    <glyph glyph-name="cedilla" unicode="&#xb8;" horiz-adv-x="592" 
d="M200 20h110l-28 -132h30q95 0 153.5 -59t58.5 -155q0 -104 -74 -165t-200 -61h-182v130h166q152 0 152 114q0 42 -28 65t-78 23h-68l-50 66z" />
    <glyph glyph-name="uni00B9" unicode="&#xb9;" horiz-adv-x="486" 
d="M546 1536h136l-140 -790h-136l90 508h-222l20 116h88q69 0 105.5 23.5t46.5 82.5z" />
    <glyph glyph-name="ordmasculine" unicode="&#xba;" horiz-adv-x="896" 
d="M234 870q0 203 118 337.5t296 134.5q158 0 253 -94.5t95 -251.5q0 -203 -118.5 -339.5t-293.5 -136.5q-159 0 -254.5 95.5t-95.5 254.5zM858 994q0 105 -58 163.5t-162 58.5q-118 0 -192 -95t-74 -247q0 -108 58 -168t162 -60q117 0 191.5 97.5t74.5 250.5z" />
    <glyph glyph-name="guillemotright" unicode="&#xbb;" horiz-adv-x="1180" 
d="M84 82l32 188l428 302l-320 304l30 176l428 -400l-30 -170zM628 82l34 188l426 302l-318 304l30 176l428 -400l-28 -170z" />
    <glyph glyph-name="onequarter" unicode="&#xbc;" horiz-adv-x="1776" 
d="M630 1332h136l-138 -792h-138l90 510h-224l22 116h88q69 0 106.5 23.5t47.5 82.5zM1322 1332h150l-784 -1332h-148zM1590 192l-34 -192h-132l34 192h-412l24 138l466 460h160l-86 -482h146l-22 -116h-144zM1478 308l58 334l-330 -334h272z" />
    <glyph glyph-name="onehalf" unicode="&#xbd;" horiz-adv-x="1776" 
d="M630 1332h136l-138 -792h-138l90 510h-224l22 116h88q69 0 106.5 23.5t47.5 82.5zM1322 1332h150l-784 -1332h-148zM1214 122h498l-22 -122h-642l6 36q6 36 18.5 68t26 57t36.5 48.5t40.5 39.5t48 33.5t49 27t54 23.5t52 20t53.5 19q49 17 79 30t63 32.5t51.5 44.5
t24.5 57q12 67 -26 105.5t-118 38.5q-87 0 -147 -44t-77 -118h-142q32 126 139.5 205t248.5 79q140 0 212.5 -75.5t51.5 -198.5q-7 -39 -28.5 -73.5t-49 -59.5t-69 -48.5t-76.5 -39t-83 -33.5q-152 -56 -194 -80q-60 -33 -78 -72z" />
    <glyph glyph-name="threequarters" unicode="&#xbe;" horiz-adv-x="1776" 
d="M496 874l20 112h118q50 0 82.5 27.5t41.5 76.5q11 62 -28 97t-120 35q-75 0 -128 -35t-66 -95h-142q30 113 129 182.5t229 69.5q140 0 214.5 -67.5t53.5 -178.5q-18 -110 -126 -164q110 -54 86 -178q-18 -104 -117 -168t-243 -64q-139 0 -221 67.5t-71 174.5h142
q-6 -54 40 -86t130 -32q86 0 138 30.5t62 87.5q9 52 -18.5 80t-87.5 28h-118zM1322 1332h150l-784 -1332h-148zM1590 192l-34 -192h-132l34 192h-412l24 138l466 460h160l-86 -482h146l-22 -116h-144zM1478 308l58 334l-330 -334h272z" />
    <glyph glyph-name="questiondown" unicode="&#xbf;" horiz-adv-x="1082" 
d="M632 1024h178l-30 -170h-178zM738 712q-11 -58 -34 -109.5t-45.5 -85t-63 -73.5t-63.5 -58.5t-71 -54.5q-11 -9 -17 -13q-48 -39 -73.5 -62t-57 -61.5t-45.5 -81.5t-14 -95q0 -99 67.5 -152.5t192.5 -53.5q128 0 219.5 76t120.5 204h158q-46 -187 -182.5 -301.5
t-323.5 -114.5q-190 0 -300 87.5t-110 236.5q0 61 14.5 115t34.5 91t56.5 76.5t64.5 63t74 58.5q107 83 141 118q87 87 107 190h150z" />
    <glyph glyph-name="Agrave" unicode="&#xc0;" horiz-adv-x="1282" 
d="M652 1760h168l190 -326h-120zM1218 0h-154l-66 356h-568l-190 -356h-174l726 1332h172zM852 1152l-352 -664h474z" />
    <glyph glyph-name="Aacute" unicode="&#xc1;" horiz-adv-x="1282" 
d="M1224 1760l-312 -326h-136l258 326h190zM1218 0h-154l-66 356h-568l-190 -356h-174l726 1332h172zM852 1152l-352 -664h474z" />
    <glyph glyph-name="Acircumflex" unicode="&#xc2;" horiz-adv-x="1282" 
d="M864 1776h152l264 -342h-152l-192 254l-278 -254h-178zM1218 0h-154l-66 356h-568l-190 -356h-174l726 1332h172zM852 1152l-352 -664h474z" />
    <glyph glyph-name="Atilde" unicode="&#xc3;" horiz-adv-x="1282" 
d="M768 1738q41 0 75.5 -18t50 -35.5t40.5 -50.5q39 -54 57 -68q24 -18 53 -18q48 0 85.5 48.5t50.5 129.5h114q-24 -139 -95 -219.5t-167 -80.5q-31 0 -54 6.5t-44 24.5t-28.5 26.5t-29.5 34.5q-5 7 -18.5 26.5t-20.5 28t-19 20.5t-24.5 16.5t-27.5 4.5q-47 0 -85 -49.5
t-51 -130.5h-118q26 145 92.5 224.5t163.5 79.5zM1218 0h-154l-66 356h-568l-190 -356h-174l726 1332h172zM852 1152l-352 -664h474z" />
    <glyph glyph-name="Adieresis" unicode="&#xc4;" horiz-adv-x="1282" 
d="M1040 1614h172l-32 -180h-172zM612 1614h172l-32 -180h-170zM1218 0h-154l-66 356h-568l-190 -356h-174l726 1332h172zM852 1152l-352 -664h474z" />
    <glyph glyph-name="Aring" unicode="&#xc5;" horiz-adv-x="1282" 
d="M1218 0h-154l-66 356h-568l-190 -356h-174l684 1256q-61 29 -94.5 84t-33.5 128q0 136 84.5 225t213.5 89q117 0 187.5 -66t70.5 -174q0 -107 -54 -186.5t-144 -109.5zM746 1472q0 -63 37.5 -98.5t104.5 -35.5q74 0 121 55.5t47 144.5q0 63 -37.5 98.5t-106.5 35.5
q-74 0 -120 -55t-46 -145zM852 1152l-352 -664h474z" />
    <glyph glyph-name="AE" unicode="&#xc6;" horiz-adv-x="1948" 
d="M2092 1332l-26 -144h-746l-78 -436h692l-26 -144h-692l-82 -466h748l-24 -142h-898l62 356h-552l-238 -356h-166l880 1332h1146zM554 488h492l124 700h-150z" />
    <glyph glyph-name="Ccedilla" unicode="&#xc7;" horiz-adv-x="1318" 
d="M194 546q0 168 51.5 317t140.5 256t213 169t263 62q232 0 374 -127.5t142 -340.5h-154q0 153 -99 239.5t-273 86.5q-139 0 -254 -88t-180.5 -242t-65.5 -340q0 -198 101.5 -304t290.5 -106q145 0 261 86t151 220h160q-56 -207 -213.5 -328.5t-376.5 -121.5h-16l-38 -96
h30q80 0 127 -53.5t47 -134.5q0 -119 -77 -185.5t-213 -66.5h-204l22 130h166q79 0 125.5 36t46.5 96q0 70 -90 70h-68l-40 66l60 148q-193 36 -301.5 181t-108.5 371z" />
    <glyph glyph-name="Egrave" unicode="&#xc8;" horiz-adv-x="1094" 
d="M590 1760h168l190 -326h-120zM1242 1332l-26 -144h-748l-76 -436h690l-26 -144h-690l-82 -466h748l-24 -142h-900l236 1332h898z" />
    <glyph glyph-name="Eacute" unicode="&#xc9;" horiz-adv-x="1094" 
d="M1162 1760l-312 -326h-138l260 326h190zM1242 1332l-26 -144h-748l-76 -436h690l-26 -144h-690l-82 -466h748l-24 -142h-900l236 1332h898z" />
    <glyph glyph-name="Ecircumflex" unicode="&#xca;" horiz-adv-x="1094" 
d="M804 1776h152l264 -342h-154l-190 254l-278 -254h-180zM1242 1332l-26 -144h-748l-76 -436h690l-26 -144h-690l-82 -466h748l-24 -142h-900l236 1332h898z" />
    <glyph glyph-name="Edieresis" unicode="&#xcb;" horiz-adv-x="1094" 
d="M978 1614h174l-32 -180h-174zM550 1614h174l-32 -180h-172zM1242 1332l-26 -144h-748l-76 -436h690l-26 -144h-690l-82 -466h748l-24 -142h-900l236 1332h898z" />
    <glyph glyph-name="Igrave" unicode="&#xcc;" 
d="M198 1760h168l190 -326h-120zM344 1332h150l-234 -1332h-152z" />
    <glyph glyph-name="Iacute" unicode="&#xcd;" 
d="M770 1760l-312 -326h-138l260 326h190zM344 1332h150l-234 -1332h-152z" />
    <glyph glyph-name="Icircumflex" unicode="&#xce;" 
d="M412 1776h152l264 -342h-154l-190 254l-280 -254h-178zM344 1332h150l-234 -1332h-152z" />
    <glyph glyph-name="Idieresis" unicode="&#xcf;" 
d="M586 1614h174l-32 -180h-174zM158 1614h174l-32 -180h-172zM344 1332h150l-234 -1332h-152z" />
    <glyph glyph-name="Eth" unicode="&#xd0;" horiz-adv-x="1446" 
d="M188 718h226l108 614h474q231 0 361.5 -145.5t130.5 -396.5q0 -152 -45 -293.5t-125 -252t-202.5 -177.5t-267.5 -67h-562l104 582h-226zM646 1192l-84 -474h394l-24 -136h-392l-78 -442h364q104 0 191 44t144 113.5t96.5 159t57 177t17.5 170.5q0 186 -93 287t-267 101
h-326z" />
    <glyph glyph-name="Ntilde" unicode="&#xd1;" horiz-adv-x="1272" 
d="M786 1738q40 0 74.5 -18.5t49.5 -35t42 -50.5q20 -30 31 -44t33 -28t46 -14q48 0 84 48.5t50 129.5h114q-24 -139 -94 -219.5t-168 -80.5q-39 0 -71 16t-46 31t-37 45q-6 8 -24 33t-26 34t-25 19t-35 10q-48 0 -85 -49.5t-51 -130.5h-120q26 145 93 224.5t165 79.5z
M1250 1332h150l-236 -1332h-156l-550 1132l-198 -1132h-152l236 1332h188l524 -1090z" />
    <glyph glyph-name="Ograve" unicode="&#xd2;" horiz-adv-x="1374" 
d="M702 1760h168l190 -326h-122zM194 542q0 229 87 414.5t241.5 290.5t345.5 105q240 0 390 -161t150 -419q0 -230 -82.5 -409t-233.5 -279t-346 -100q-245 0 -398.5 155.5t-153.5 402.5zM1256 778q0 204 -106 318t-298 114q-143 0 -258 -86.5t-179.5 -239.5t-64.5 -344
q0 -196 108 -304t302 -108q221 0 358.5 179.5t137.5 470.5z" />
    <glyph glyph-name="Oacute" unicode="&#xd3;" horiz-adv-x="1374" 
d="M1274 1760l-314 -326h-136l260 326h190zM194 542q0 229 87 414.5t241.5 290.5t345.5 105q240 0 390 -161t150 -419q0 -230 -82.5 -409t-233.5 -279t-346 -100q-245 0 -398.5 155.5t-153.5 402.5zM1256 778q0 204 -106 318t-298 114q-143 0 -258 -86.5t-179.5 -239.5
t-64.5 -344q0 -196 108 -304t302 -108q221 0 358.5 179.5t137.5 470.5z" />
    <glyph glyph-name="Ocircumflex" unicode="&#xd4;" horiz-adv-x="1374" 
d="M916 1776h150l264 -342h-152l-190 254l-280 -254h-178zM194 542q0 229 87 414.5t241.5 290.5t345.5 105q240 0 390 -161t150 -419q0 -230 -82.5 -409t-233.5 -279t-346 -100q-245 0 -398.5 155.5t-153.5 402.5zM1256 778q0 204 -106 318t-298 114q-143 0 -258 -86.5
t-179.5 -239.5t-64.5 -344q0 -196 108 -304t302 -108q221 0 358.5 179.5t137.5 470.5z" />
    <glyph glyph-name="Otilde" unicode="&#xd5;" horiz-adv-x="1374" 
d="M820 1738q40 0 74.5 -18.5t49.5 -35t42 -50.5q20 -30 31 -44t32.5 -28t44.5 -14q48 0 85.5 48.5t50.5 129.5h114q-24 -139 -94 -219.5t-168 -80.5q-39 0 -71 16t-46 31t-37 45q-5 7 -24 33t-27 34t-24.5 18.5t-34.5 10.5q-48 0 -85 -49.5t-51 -130.5h-120
q26 145 93 224.5t165 79.5zM194 542q0 229 87 414.5t241.5 290.5t345.5 105q240 0 390 -161t150 -419q0 -230 -82.5 -409t-233.5 -279t-346 -100q-245 0 -398.5 155.5t-153.5 402.5zM1256 778q0 204 -106 318t-298 114q-143 0 -258 -86.5t-179.5 -239.5t-64.5 -344
q0 -196 108 -304t302 -108q221 0 358.5 179.5t137.5 470.5z" />
    <glyph glyph-name="Odieresis" unicode="&#xd6;" horiz-adv-x="1374" 
d="M1090 1614h174l-34 -180h-172zM662 1614h174l-34 -180h-170zM194 542q0 229 87 414.5t241.5 290.5t345.5 105q240 0 390 -161t150 -419q0 -230 -82.5 -409t-233.5 -279t-346 -100q-245 0 -398.5 155.5t-153.5 402.5zM1256 778q0 204 -106 318t-298 114q-143 0 -258 -86.5
t-179.5 -239.5t-64.5 -344q0 -196 108 -304t302 -108q221 0 358.5 179.5t137.5 470.5z" />
    <glyph glyph-name="multiply" unicode="&#xd7;" horiz-adv-x="1132" 
d="M686 674l396 342l80 -100l-398 -336l280 -336l-116 -100l-276 340l-398 -340l-80 100l400 336l-282 336l116 100z" />
    <glyph glyph-name="Oslash" unicode="&#xd8;" horiz-adv-x="1374" 
d="M194 542q0 167 52.5 317t142 258t214.5 171.5t265 63.5q234 0 376 -142l190 198l86 -86l-200 -206q88 -143 88 -344q0 -224 -84.5 -404t-236 -282t-341.5 -102q-236 0 -382 134l-186 -194l-88 86l194 202q-90 137 -90 330zM350 540q0 -120 44 -214l748 778
q-109 106 -290 106q-143 0 -258 -86.5t-179.5 -239.5t-64.5 -344zM1256 778q0 127 -44 224l-744 -776q107 -98 292 -98q221 0 358.5 179.5t137.5 470.5z" />
    <glyph glyph-name="Ugrave" unicode="&#xd9;" horiz-adv-x="1204" 
d="M624 1760h168l190 -326h-120zM332 1332h152l-140 -792q-35 -191 53 -301.5t275 -110.5q148 0 246 92.5t128 259.5l146 852h152l-152 -868q-39 -218 -183 -349t-345 -131q-164 0 -280.5 71t-167 201t-20.5 296z" />
    <glyph glyph-name="Uacute" unicode="&#xda;" horiz-adv-x="1204" 
d="M1196 1760l-312 -326h-136l258 326h190zM332 1332h152l-140 -792q-35 -191 53 -301.5t275 -110.5q148 0 246 92.5t128 259.5l146 852h152l-152 -868q-39 -218 -183 -349t-345 -131q-164 0 -280.5 71t-167 201t-20.5 296z" />
    <glyph glyph-name="Ucircumflex" unicode="&#xdb;" horiz-adv-x="1204" 
d="M838 1776h152l264 -342h-152l-192 254l-278 -254h-178zM332 1332h152l-140 -792q-35 -191 53 -301.5t275 -110.5q148 0 246 92.5t128 259.5l146 852h152l-152 -868q-39 -218 -183 -349t-345 -131q-164 0 -280.5 71t-167 201t-20.5 296z" />
    <glyph glyph-name="Udieresis" unicode="&#xdc;" horiz-adv-x="1204" 
d="M1014 1614h172l-32 -180h-172zM586 1614h172l-32 -180h-172zM332 1332h152l-140 -792q-35 -191 53 -301.5t275 -110.5q148 0 246 92.5t128 259.5l146 852h152l-152 -868q-39 -218 -183 -349t-345 -131q-164 0 -280.5 71t-167 201t-20.5 296z" />
    <glyph glyph-name="Yacute" unicode="&#xdd;" horiz-adv-x="1190" 
d="M1196 1760l-312 -326h-136l258 326h190zM600 458l-298 874h162l230 -700l484 700h186l-616 -874l-80 -458h-150z" />
    <glyph glyph-name="Thorn" unicode="&#xde;" horiz-adv-x="1158" 
d="M344 1332h150l-38 -222h372q176 0 279 -98.5t103 -265.5q0 -126 -56.5 -233t-169 -175t-260.5 -68h-416l-48 -270h-152zM432 974l-100 -566h368q92 0 163 31t111.5 82.5t61 110.5t20.5 122q0 107 -66 163.5t-190 56.5h-368z" />
    <glyph glyph-name="germandbls" unicode="&#xdf;" horiz-adv-x="1150" 
d="M830 1312q-157 0 -265 -95t-137 -257l-168 -960h-152l172 974q36 212 188 344t360 132q176 0 291 -102t115 -258q0 -125 -70.5 -226t-185.5 -148q160 -85 160 -288q0 -180 -134 -304t-330 -124h-226l26 140h172q153 0 246.5 89.5t93.5 236.5q0 90 -56.5 139t-161.5 49
h-132l24 136h132q121 0 203.5 84.5t82.5 209.5q0 102 -68.5 165t-179.5 63z" />
    <glyph glyph-name="agrave" unicode="&#xe0;" horiz-adv-x="1052" 
d="M494 1470h168l190 -326h-122zM1062 660l-116 -660h-156l26 144q-66 -79 -156.5 -121.5t-193.5 -42.5q-144 0 -235 78t-91 202q0 139 93.5 226.5t254.5 93.5l290 8q65 3 93.5 17t38.5 51l4 20q19 106 -54 174t-202 68q-217 0 -276 -184h-160q36 144 155 228t287 84
q198 0 312 -110.5t86 -275.5zM296 276q0 -75 58.5 -120.5t155.5 -45.5q124 0 220.5 75t129.5 195l16 86l-358 -10q-109 -3 -165.5 -52t-56.5 -128z" />
    <glyph glyph-name="aacute" unicode="&#xe1;" horiz-adv-x="1052" 
d="M1066 1470l-314 -326h-136l260 326h190zM1062 660l-116 -660h-156l26 144q-66 -79 -156.5 -121.5t-193.5 -42.5q-144 0 -235 78t-91 202q0 139 93.5 226.5t254.5 93.5l290 8q65 3 93.5 17t38.5 51l4 20q19 106 -54 174t-202 68q-217 0 -276 -184h-160q36 144 155 228
t287 84q198 0 312 -110.5t86 -275.5zM296 276q0 -75 58.5 -120.5t155.5 -45.5q124 0 220.5 75t129.5 195l16 86l-358 -10q-109 -3 -165.5 -52t-56.5 -128z" />
    <glyph glyph-name="acircumflex" unicode="&#xe2;" horiz-adv-x="1052" 
d="M706 1486h152l264 -342h-154l-190 254l-278 -254h-180zM1062 660l-116 -660h-156l26 144q-66 -79 -156.5 -121.5t-193.5 -42.5q-144 0 -235 78t-91 202q0 139 93.5 226.5t254.5 93.5l290 8q65 3 93.5 17t38.5 51l4 20q19 106 -54 174t-202 68q-217 0 -276 -184h-160
q36 144 155 228t287 84q198 0 312 -110.5t86 -275.5zM296 276q0 -75 58.5 -120.5t155.5 -45.5q124 0 220.5 75t129.5 195l16 86l-358 -10q-109 -3 -165.5 -52t-56.5 -128z" />
    <glyph glyph-name="atilde" unicode="&#xe3;" horiz-adv-x="1052" 
d="M610 1448q40 0 74.5 -18.5t49.5 -35t42 -50.5q20 -30 31 -44t33 -28t46 -14q47 0 84 48.5t50 129.5h114q-24 -139 -94 -219.5t-168 -80.5q-39 0 -71 16t-46 31t-37 45q-6 8 -24 33t-26 34t-25 19t-35 10q-48 0 -85 -49.5t-51 -130.5h-120q26 145 93 224.5t165 79.5z
M1062 660l-116 -660h-156l26 144q-66 -79 -156.5 -121.5t-193.5 -42.5q-144 0 -235 78t-91 202q0 139 93.5 226.5t254.5 93.5l290 8q65 3 93.5 17t38.5 51l4 20q19 106 -54 174t-202 68q-217 0 -276 -184h-160q36 144 155 228t287 84q198 0 312 -110.5t86 -275.5zM296 276
q0 -75 58.5 -120.5t155.5 -45.5q124 0 220.5 75t129.5 195l16 86l-358 -10q-109 -3 -165.5 -52t-56.5 -128z" />
    <glyph glyph-name="adieresis" unicode="&#xe4;" horiz-adv-x="1052" 
d="M880 1324h174l-32 -180h-174zM452 1324h174l-32 -180h-172zM1062 660l-116 -660h-156l26 144q-66 -79 -156.5 -121.5t-193.5 -42.5q-144 0 -235 78t-91 202q0 139 93.5 226.5t254.5 93.5l290 8q65 3 93.5 17t38.5 51l4 20q19 106 -54 174t-202 68q-217 0 -276 -184h-160
q36 144 155 228t287 84q198 0 312 -110.5t86 -275.5zM296 276q0 -75 58.5 -120.5t155.5 -45.5q124 0 220.5 75t129.5 195l16 86l-358 -10q-109 -3 -165.5 -52t-56.5 -128z" />
    <glyph glyph-name="aring" unicode="&#xe5;" horiz-adv-x="1052" 
d="M1012 1442q0 -135 -85.5 -223.5t-214.5 -88.5q-116 0 -185 65.5t-69 174.5q0 135 84 223.5t212 88.5q117 0 187.5 -65.5t70.5 -174.5zM580 1374q0 -63 37.5 -98.5t104.5 -35.5q75 0 121.5 55t46.5 143q0 64 -37.5 99t-106.5 35q-74 0 -120 -55t-46 -143zM1062 660
l-116 -660h-156l26 144q-66 -79 -156.5 -121.5t-193.5 -42.5q-144 0 -235 78t-91 202q0 139 93.5 226.5t254.5 93.5l290 8q65 3 93.5 17t38.5 51l4 20q19 106 -54 174t-202 68q-217 0 -276 -184h-160q36 144 155 228t287 84q198 0 312 -110.5t86 -275.5zM296 276
q0 -75 58.5 -120.5t155.5 -45.5q124 0 220.5 75t129.5 195l16 86l-358 -10q-109 -3 -165.5 -52t-56.5 -128z" />
    <glyph glyph-name="ae" unicode="&#xe6;" horiz-adv-x="1834" 
d="M1356 -18q-162 0 -273 72.5t-155 203.5q-63 -129 -183.5 -203.5t-264.5 -74.5q-150 0 -245 78t-95 202q0 139 93.5 226.5t254.5 91.5l290 10q65 3 93.5 18t38.5 52l4 18q18 103 -56 172.5t-202 69.5q-215 0 -274 -184h-160q36 144 154.5 228t285.5 84q132 0 229.5 -53.5
t138.5 -144.5q69 93 169 144.5t221 51.5q149 0 255 -70t149.5 -187.5t19.5 -258.5l-12 -60h-792v-46q0 -150 79.5 -228t232.5 -78q107 0 183 51.5t115 148.5h168q-60 -164 -178 -249t-284 -85zM1418 914q-135 0 -230.5 -86.5t-131.5 -239.5h638q21 144 -57 235t-219 91z
M296 278q0 -75 59 -120.5t155 -45.5q134 0 234 85t124 221l10 50l-360 -10q-108 -3 -165 -51.5t-57 -128.5z" />
    <glyph glyph-name="ccedilla" unicode="&#xe7;" horiz-adv-x="1118" 
d="M168 430q0 175 69 317t190.5 221.5t270.5 79.5q194 0 308 -112.5t114 -299.5h-154q0 128 -73.5 200t-206.5 72q-154 0 -258 -138t-104 -342q0 -149 78.5 -229.5t223.5 -80.5q109 0 190.5 67t107.5 175h160q-40 -175 -166 -277.5t-302 -102.5h-2l-36 -90h32
q79 0 125.5 -53.5t46.5 -134.5q0 -119 -76 -185.5t-212 -66.5h-206l22 130h166q79 0 125.5 36t46.5 96q0 70 -90 70h-68l-40 66l58 142q-159 32 -249.5 148t-90.5 292z" />
    <glyph glyph-name="egrave" unicode="&#xe8;" horiz-adv-x="1132" 
d="M520 1470h168l192 -326h-122zM168 430q0 170 64 309.5t184.5 222t275.5 82.5q115 0 207 -41t147.5 -111t77.5 -164.5t4 -199.5l-10 -60h-794q-2 -16 -2 -46q0 -150 80.5 -228t233.5 -78q107 0 183 51.5t115 148.5h168q-60 -163 -180 -248.5t-288 -85.5q-216 0 -341 120
t-125 328zM700 914q-134 0 -229.5 -87t-130.5 -239h640q21 144 -58.5 235t-221.5 91z" />
    <glyph glyph-name="eacute" unicode="&#xe9;" horiz-adv-x="1132" 
d="M1092 1470l-312 -326h-136l258 326h190zM168 430q0 170 64 309.5t184.5 222t275.5 82.5q115 0 207 -41t147.5 -111t77.5 -164.5t4 -199.5l-10 -60h-794q-2 -16 -2 -46q0 -150 80.5 -228t233.5 -78q107 0 183 51.5t115 148.5h168q-60 -163 -180 -248.5t-288 -85.5
q-216 0 -341 120t-125 328zM700 914q-134 0 -229.5 -87t-130.5 -239h640q21 144 -58.5 235t-221.5 91z" />
    <glyph glyph-name="ecircumflex" unicode="&#xea;" horiz-adv-x="1132" 
d="M734 1486h152l264 -342h-152l-192 254l-278 -254h-178zM168 430q0 170 64 309.5t184.5 222t275.5 82.5q115 0 207 -41t147.5 -111t77.5 -164.5t4 -199.5l-10 -60h-794q-2 -16 -2 -46q0 -150 80.5 -228t233.5 -78q107 0 183 51.5t115 148.5h168q-60 -163 -180 -248.5
t-288 -85.5q-216 0 -341 120t-125 328zM700 914q-134 0 -229.5 -87t-130.5 -239h640q21 144 -58.5 235t-221.5 91z" />
    <glyph glyph-name="edieresis" unicode="&#xeb;" horiz-adv-x="1132" 
d="M910 1324h172l-32 -180h-172zM482 1324h172l-32 -180h-172zM168 430q0 170 64 309.5t184.5 222t275.5 82.5q115 0 207 -41t147.5 -111t77.5 -164.5t4 -199.5l-10 -60h-794q-2 -16 -2 -46q0 -150 80.5 -228t233.5 -78q107 0 183 51.5t115 148.5h168q-60 -163 -180 -248.5
t-288 -85.5q-216 0 -341 120t-125 328zM700 914q-134 0 -229.5 -87t-130.5 -239h640q21 144 -58.5 235t-221.5 91z" />
    <glyph glyph-name="igrave" unicode="&#xec;" 
d="M146 1472h168l190 -326h-120zM290 1024h150l-180 -1024h-152z" />
    <glyph glyph-name="iacute" unicode="&#xed;" 
d="M718 1472l-312 -326h-136l258 326h190zM290 1024h150l-180 -1024h-152z" />
    <glyph glyph-name="icircumflex" unicode="&#xee;" 
d="M360 1488h152l264 -342h-154l-190 254l-278 -254h-178zM290 1024h150l-180 -1024h-152z" />
    <glyph glyph-name="idieresis" unicode="&#xef;" 
d="M536 1326h172l-32 -180h-174zM108 1326h172l-32 -180h-172zM290 1024h150l-180 -1024h-152z" />
    <glyph glyph-name="eth" unicode="&#xf0;" horiz-adv-x="1174" 
d="M454 1230l280 50q-65 87 -138 154h188q60 -60 108 -126l220 40v-122l-148 -28q122 -223 122 -494q0 -324 -145.5 -522t-382.5 -198q-208 0 -339 146.5t-131 377.5q0 225 123.5 372.5t312.5 147.5q136 0 245 -80.5t157 -215.5q4 30 4 62q0 167 -124 376l-352 -62v122z
M884 512q0 167 -91 272.5t-235 105.5q-143 0 -228.5 -105.5t-85.5 -280.5q0 -173 84.5 -277.5t223.5 -104.5q144 0 238 110.5t94 279.5z" />
    <glyph glyph-name="ntilde" unicode="&#xf1;" horiz-adv-x="1076" 
d="M634 1450q40 0 74.5 -18.5t49.5 -35t42 -50.5q20 -30 31 -44t32.5 -28t44.5 -14q48 0 85.5 48.5t50.5 129.5h114q-24 -139 -94 -219.5t-168 -80.5q-39 0 -71 16t-46 31t-37 45q-5 7 -24 33t-27 34t-24.5 18.5t-34.5 10.5q-48 0 -85 -49.5t-51 -130.5h-120
q26 145 93 224.5t165 79.5zM288 1024h152l-26 -152q65 81 155 126.5t189 45.5q109 0 191.5 -60t118.5 -161t14 -217l-108 -606h-150l104 590q27 143 -34.5 227.5t-191.5 84.5q-124 0 -211.5 -70t-116.5 -192l-112 -640h-152z" />
    <glyph glyph-name="ograve" unicode="&#xf2;" horiz-adv-x="1136" 
d="M506 1470h168l192 -324h-122zM168 430q0 173 69.5 315t191 222.5t269.5 80.5q200 0 321 -122t121 -326q0 -173 -69.5 -315.5t-191 -223.5t-269.5 -81q-200 0 -321 123t-121 327zM986 602q0 144 -78.5 225t-219.5 81q-150 0 -257 -135.5t-107 -342.5q0 -148 78.5 -229
t219.5 -81q149 0 256.5 137.5t107.5 344.5z" />
    <glyph glyph-name="oacute" unicode="&#xf3;" horiz-adv-x="1136" 
d="M1080 1470l-314 -324h-136l260 324h190zM168 430q0 173 69.5 315t191 222.5t269.5 80.5q200 0 321 -122t121 -326q0 -173 -69.5 -315.5t-191 -223.5t-269.5 -81q-200 0 -321 123t-121 327zM986 602q0 144 -78.5 225t-219.5 81q-150 0 -257 -135.5t-107 -342.5
q0 -148 78.5 -229t219.5 -81q149 0 256.5 137.5t107.5 344.5z" />
    <glyph glyph-name="ocircumflex" unicode="&#xf4;" horiz-adv-x="1136" 
d="M720 1488h152l264 -342h-152l-192 254l-278 -254h-178zM168 430q0 173 69.5 315t191 222.5t269.5 80.5q200 0 321 -122t121 -326q0 -173 -69.5 -315.5t-191 -223.5t-269.5 -81q-200 0 -321 123t-121 327zM986 602q0 144 -78.5 225t-219.5 81q-150 0 -257 -135.5
t-107 -342.5q0 -148 78.5 -229t219.5 -81q149 0 256.5 137.5t107.5 344.5z" />
    <glyph glyph-name="otilde" unicode="&#xf5;" horiz-adv-x="1136" 
d="M624 1450q41 0 75.5 -18t50 -35.5t40.5 -50.5q39 -54 57 -68q24 -18 53 -18q48 0 85 48t51 128h114q-24 -138 -95 -218t-167 -80q-40 0 -72 15.5t-45.5 30t-38.5 46.5q-5 7 -18.5 26.5t-20.5 28t-19 20.5t-24.5 16.5t-27.5 4.5q-47 0 -85 -49.5t-51 -130.5h-118
q26 144 92.5 224t163.5 80zM168 430q0 173 69.5 315t191 222.5t269.5 80.5q200 0 321 -122t121 -326q0 -173 -69.5 -315.5t-191 -223.5t-269.5 -81q-200 0 -321 123t-121 327zM986 602q0 144 -78.5 225t-219.5 81q-150 0 -257 -135.5t-107 -342.5q0 -148 78.5 -229
t219.5 -81q149 0 256.5 137.5t107.5 344.5z" />
    <glyph glyph-name="odieresis" unicode="&#xf6;" horiz-adv-x="1136" 
d="M896 1326h172l-32 -180h-172zM468 1326h172l-32 -180h-170zM168 430q0 173 69.5 315t191 222.5t269.5 80.5q200 0 321 -122t121 -326q0 -173 -69.5 -315.5t-191 -223.5t-269.5 -81q-200 0 -321 123t-121 327zM986 602q0 144 -78.5 225t-219.5 81q-150 0 -257 -135.5
t-107 -342.5q0 -148 78.5 -229t219.5 -81q149 0 256.5 137.5t107.5 344.5z" />
    <glyph glyph-name="divide" unicode="&#xf7;" horiz-adv-x="964" 
d="M584 1054h166l-32 -176h-164zM180 632h826l-22 -132h-828zM436 220h166l-32 -174h-164z" />
    <glyph glyph-name="oslash" unicode="&#xf8;" horiz-adv-x="1136" 
d="M168 430q0 173 69.5 315t191 222.5t269.5 80.5q183 0 300 -102l144 148l78 -74l-152 -158q72 -110 72 -262q0 -173 -69.5 -315.5t-191 -223.5t-269.5 -81q-177 0 -296 100l-144 -150l-80 76l152 156q-74 111 -74 268zM322 430q0 -89 28 -154l546 564q-80 68 -208 68
q-152 0 -259 -135.5t-107 -342.5zM988 602q0 89 -28 148l-544 -564q75 -66 206 -66q150 0 258 137.5t108 344.5z" />
    <glyph glyph-name="ugrave" unicode="&#xf9;" horiz-adv-x="1060" 
d="M484 1472h168l192 -326h-122zM328 434q-26 -145 31 -228.5t185 -83.5q132 0 220 79.5t108 216.5h2l106 606h148l-178 -1024h-150l26 148q-64 -79 -152 -122.5t-186 -43.5q-110 0 -190 59t-113 159t-11 218l108 606h152z" />
    <glyph glyph-name="uacute" unicode="&#xfa;" horiz-adv-x="1060" 
d="M1058 1472l-314 -326h-136l260 326h190zM328 434q-26 -145 31 -228.5t185 -83.5q132 0 220 79.5t108 216.5h2l106 606h148l-178 -1024h-150l26 148q-64 -79 -152 -122.5t-186 -43.5q-110 0 -190 59t-113 159t-11 218l108 606h152z" />
    <glyph glyph-name="ucircumflex" unicode="&#xfb;" horiz-adv-x="1060" 
d="M698 1488h150l264 -342h-152l-192 254l-278 -254h-178zM328 434q-26 -145 31 -228.5t185 -83.5q132 0 220 79.5t108 216.5h2l106 606h148l-178 -1024h-150l26 148q-64 -79 -152 -122.5t-186 -43.5q-110 0 -190 59t-113 159t-11 218l108 606h152z" />
    <glyph glyph-name="udieresis" unicode="&#xfc;" horiz-adv-x="1060" 
d="M872 1326h172l-32 -180h-172zM444 1326h172l-32 -180h-170zM328 434q-26 -145 31 -228.5t185 -83.5q132 0 220 79.5t108 216.5h2l106 606h148l-178 -1024h-150l26 148q-64 -79 -152 -122.5t-186 -43.5q-110 0 -190 59t-113 159t-11 218l108 606h152z" />
    <glyph glyph-name="yacute" unicode="&#xfd;" horiz-adv-x="1114" 
d="M1108 1472l-314 -326h-136l260 326h190zM86 -180h146q71 0 113 29t83 103l38 76l-218 996h156l180 -840l466 840h176l-614 -1088q-81 -142 -159.5 -202t-192.5 -60h-194z" />
    <glyph glyph-name="thorn" unicode="&#xfe;" horiz-adv-x="1150" 
d="M362 1434h154l-100 -570q62 86 147.5 134t188.5 48q187 0 300.5 -121.5t113.5 -322.5q0 -173 -67.5 -315.5t-185 -223.5t-259.5 -81q-282 0 -350 248l-98 -564h-152zM1010 602q0 144 -77.5 225t-218.5 81q-151 0 -256.5 -135t-105.5 -343q0 -148 77.5 -229t218.5 -81
q147 0 254.5 137.5t107.5 344.5z" />
    <glyph glyph-name="ydieresis" unicode="&#xff;" horiz-adv-x="1114" 
d="M924 1326h172l-32 -180h-172zM496 1326h172l-32 -180h-170zM86 -180h146q71 0 113 29t83 103l38 76l-218 996h156l180 -840l466 840h176l-614 -1088q-81 -142 -159.5 -202t-192.5 -60h-194z" />
    <glyph glyph-name="Amacron" unicode="&#x100;" horiz-adv-x="1282" 
d="M590 1598h636l-22 -128h-636zM1218 0h-154l-66 356h-568l-190 -356h-174l726 1332h172zM852 1152l-352 -664h474z" />
    <glyph glyph-name="amacron" unicode="&#x101;" horiz-adv-x="1052" 
d="M432 1308h634l-22 -128h-634zM1062 660l-116 -660h-156l26 144q-66 -79 -156.5 -121.5t-193.5 -42.5q-144 0 -235 78t-91 202q0 139 93.5 226.5t254.5 93.5l290 8q65 3 93.5 17t38.5 51l4 20q19 106 -54 174t-202 68q-217 0 -276 -184h-160q36 144 155 228t287 84
q198 0 312 -110.5t86 -275.5zM296 276q0 -75 58.5 -120.5t155.5 -45.5q124 0 220.5 75t129.5 195l16 86l-358 -10q-109 -3 -165.5 -52t-56.5 -128z" />
    <glyph glyph-name="Abreve" unicode="&#x102;" horiz-adv-x="1282" 
d="M1280 1734q-32 -139 -130.5 -220.5t-241.5 -81.5q-161 0 -245.5 82t-72.5 220h142q-9 -186 172 -186q182 0 236 186h140zM1218 0h-154l-66 356h-568l-190 -356h-174l726 1332h172zM852 1152l-352 -664h474z" />
    <glyph glyph-name="abreve" unicode="&#x103;" horiz-adv-x="1052" 
d="M1122 1444q-33 -139 -132 -220.5t-240 -81.5q-162 0 -247 82t-71 220h142q-6 -90 37 -138t135 -48q179 0 236 186h140zM1062 660l-116 -660h-156l26 144q-66 -79 -156.5 -121.5t-193.5 -42.5q-144 0 -235 78t-91 202q0 139 93.5 226.5t254.5 93.5l290 8q65 3 93.5 17
t38.5 51l4 20q19 106 -54 174t-202 68q-217 0 -276 -184h-160q36 144 155 228t287 84q198 0 312 -110.5t86 -275.5zM296 276q0 -75 58.5 -120.5t155.5 -45.5q124 0 220.5 75t129.5 195l16 86l-358 -10q-109 -3 -165.5 -52t-56.5 -128z" />
    <glyph glyph-name="Aogonek" unicode="&#x104;" horiz-adv-x="1282" 
d="M1218 0q-139 -90 -197.5 -164.5t-58.5 -161.5q0 -102 136 -102h130l-24 -134h-134q-112 0 -181 56t-69 148q0 110 70.5 200.5t205.5 157.5h-32l-66 356h-568l-190 -356h-174l726 1332h172zM852 1152l-352 -664h474z" />
    <glyph glyph-name="aogonek" unicode="&#x105;" horiz-adv-x="1052" 
d="M946 0q-138 -90 -196 -164.5t-58 -161.5q0 -102 134 -102h130l-24 -134h-134q-111 0 -179.5 55.5t-68.5 148.5q0 221 274 358h-34l26 144q-66 -79 -156.5 -121.5t-193.5 -42.5q-144 0 -235 78t-91 202q0 139 93.5 226.5t254.5 93.5l290 8q65 3 93.5 17t38.5 51l4 20
q19 106 -54 174t-202 68q-217 0 -276 -184h-160q36 144 155 228t287 84q198 0 312 -110.5t86 -275.5zM296 276q0 -75 58.5 -120.5t155.5 -45.5q124 0 220.5 75t129.5 195l16 86l-358 -10q-109 -3 -165.5 -52t-56.5 -128z" />
    <glyph glyph-name="Cacute" unicode="&#x106;" horiz-adv-x="1318" 
d="M1250 1760l-314 -326h-136l260 326h190zM194 546q0 168 51.5 317t140.5 256t213 169t263 62q232 0 374 -127.5t142 -340.5h-154q0 153 -99 239.5t-273 86.5q-139 0 -254 -88t-180.5 -242t-65.5 -340q0 -198 101.5 -304t290.5 -106q145 0 261 86t151 220h160
q-56 -207 -213.5 -328.5t-376.5 -121.5q-246 0 -389 150.5t-143 411.5z" />
    <glyph glyph-name="cacute" unicode="&#x107;" horiz-adv-x="1118" 
d="M1096 1468l-312 -326h-138l260 326h190zM168 430q0 175 69 317t190.5 221.5t270.5 79.5q194 0 308 -112.5t114 -299.5h-154q0 128 -73.5 200t-206.5 72q-154 0 -258 -138t-104 -342q0 -149 78.5 -229.5t223.5 -80.5q109 0 190.5 67t107.5 175h160q-40 -175 -166 -277.5
t-302 -102.5q-205 0 -326.5 122t-121.5 328z" />
    <glyph glyph-name="Ccircumflex" unicode="&#x108;" horiz-adv-x="1318" 
d="M890 1776h152l264 -342h-152l-192 254l-278 -254h-178zM194 546q0 168 51.5 317t140.5 256t213 169t263 62q232 0 374 -127.5t142 -340.5h-154q0 153 -99 239.5t-273 86.5q-139 0 -254 -88t-180.5 -242t-65.5 -340q0 -198 101.5 -304t290.5 -106q145 0 261 86t151 220
h160q-56 -207 -213.5 -328.5t-376.5 -121.5q-246 0 -389 150.5t-143 411.5z" />
    <glyph glyph-name="ccircumflex" unicode="&#x109;" horiz-adv-x="1118" 
d="M738 1484h152l264 -342h-154l-190 256l-278 -256h-180zM168 430q0 175 69 317t190.5 221.5t270.5 79.5q194 0 308 -112.5t114 -299.5h-154q0 128 -73.5 200t-206.5 72q-154 0 -258 -138t-104 -342q0 -149 78.5 -229.5t223.5 -80.5q109 0 190.5 67t107.5 175h160
q-40 -175 -166 -277.5t-302 -102.5q-205 0 -326.5 122t-121.5 328z" />
    <glyph glyph-name="Cdotaccent" unicode="&#x10a;" horiz-adv-x="1318" 
d="M858 1622h178l-32 -188h-178zM194 546q0 168 51.5 317t140.5 256t213 169t263 62q232 0 374 -127.5t142 -340.5h-154q0 153 -99 239.5t-273 86.5q-139 0 -254 -88t-180.5 -242t-65.5 -340q0 -198 101.5 -304t290.5 -106q145 0 261 86t151 220h160q-56 -207 -213.5 -328.5
t-376.5 -121.5q-246 0 -389 150.5t-143 411.5z" />
    <glyph glyph-name="cdotaccent" unicode="&#x10b;" horiz-adv-x="1118" 
d="M706 1330h178l-32 -188h-180zM168 430q0 175 69 317t190.5 221.5t270.5 79.5q194 0 308 -112.5t114 -299.5h-154q0 128 -73.5 200t-206.5 72q-154 0 -258 -138t-104 -342q0 -149 78.5 -229.5t223.5 -80.5q109 0 190.5 67t107.5 175h160q-40 -175 -166 -277.5t-302 -102.5
q-205 0 -326.5 122t-121.5 328z" />
    <glyph glyph-name="Ccaron" unicode="&#x10c;" horiz-adv-x="1318" 
d="M984 1434h-154l-264 342h156l192 -254l278 254h174zM194 546q0 168 51.5 317t140.5 256t213 169t263 62q232 0 374 -127.5t142 -340.5h-154q0 153 -99 239.5t-273 86.5q-139 0 -254 -88t-180.5 -242t-65.5 -340q0 -198 101.5 -304t290.5 -106q145 0 261 86t151 220h160
q-56 -207 -213.5 -328.5t-376.5 -121.5q-246 0 -389 150.5t-143 411.5z" />
    <glyph glyph-name="ccaron" unicode="&#x10d;" horiz-adv-x="1118" 
d="M830 1142h-152l-264 342h156l190 -254l278 254h176zM168 430q0 175 69 317t190.5 221.5t270.5 79.5q194 0 308 -112.5t114 -299.5h-154q0 128 -73.5 200t-206.5 72q-154 0 -258 -138t-104 -342q0 -149 78.5 -229.5t223.5 -80.5q109 0 190.5 67t107.5 175h160
q-40 -175 -166 -277.5t-302 -102.5q-205 0 -326.5 122t-121.5 328z" />
    <glyph glyph-name="Dcaron" unicode="&#x10e;" horiz-adv-x="1270" 
d="M906 1434h-154l-264 342h156l192 -254l278 254h176zM816 1332q233 0 364.5 -145.5t131.5 -396.5q0 -152 -45 -293.5t-125.5 -252t-203.5 -177.5t-268 -67h-562l236 1332h472zM470 1192l-186 -1052h364q104 0 191 44t144 113.5t96.5 159t57 177t17.5 170.5
q0 187 -92.5 287.5t-267.5 100.5h-324z" />
    <glyph glyph-name="dcaron" unicode="&#x10f;" horiz-adv-x="1200" 
d="M1296 1434l-252 -1434h-152l30 168q-136 -184 -344 -184q-187 0 -298.5 120.5t-111.5 323.5q0 173 67 316t184.5 224.5t260.5 81.5q136 0 225.5 -66.5t126.5 -185.5l112 636h152zM1462 1432h146l-146 -408h-132zM324 432q0 -149 78 -230.5t218 -81.5q150 0 258 136
t108 342q0 147 -78 228.5t-218 81.5q-152 0 -259 -135t-107 -341z" />
    <glyph glyph-name="Dcroat" unicode="&#x110;" horiz-adv-x="1446" 
d="M188 718h226l108 614h474q231 0 361.5 -145.5t130.5 -396.5q0 -152 -45 -293.5t-125 -252t-202.5 -177.5t-267.5 -67h-562l104 582h-226zM646 1192l-84 -474h394l-24 -136h-392l-78 -442h364q104 0 191 44t144 113.5t96.5 159t57 177t17.5 170.5q0 186 -93 287t-267 101
h-326z" />
    <glyph glyph-name="dcroat" unicode="&#x111;" horiz-adv-x="1248" 
d="M742 1298h378l24 136h152l-24 -136h170l-22 -118h-170l-206 -1180h-152l28 166q-63 -86 -150.5 -134t-191.5 -48q-186 0 -298 119.5t-112 320.5q0 172 67 314t184.5 223t260.5 81q136 0 225.5 -65.5t126.5 -182.5l66 386h-378zM324 428q0 -148 78 -228t218 -80
q149 0 256.5 135t107.5 341q0 144 -77.5 225t-216.5 81q-151 0 -258.5 -134.5t-107.5 -339.5z" />
    <glyph glyph-name="Emacron" unicode="&#x112;" horiz-adv-x="1094" 
d="M530 1598h634l-22 -128h-634zM1242 1332l-26 -144h-748l-76 -436h690l-26 -144h-690l-82 -466h748l-24 -142h-900l236 1332h898z" />
    <glyph glyph-name="emacron" unicode="&#x113;" horiz-adv-x="1132" 
d="M460 1308h634l-20 -128h-636zM168 430q0 170 64 309.5t184.5 222t275.5 82.5q115 0 207 -41t147.5 -111t77.5 -164.5t4 -199.5l-10 -60h-794q-2 -16 -2 -46q0 -150 80.5 -228t233.5 -78q107 0 183 51.5t115 148.5h168q-60 -163 -180 -248.5t-288 -85.5q-216 0 -341 120
t-125 328zM700 914q-134 0 -229.5 -87t-130.5 -239h640q21 144 -58.5 235t-221.5 91z" />
    <glyph glyph-name="Ebreve" unicode="&#x114;" horiz-adv-x="1094" 
d="M1220 1734q-33 -139 -132 -220.5t-240 -81.5q-162 0 -247 82t-71 220h142q-6 -90 37 -138t135 -48q182 0 236 186h140zM1242 1332l-26 -144h-748l-76 -436h690l-26 -144h-690l-82 -466h748l-24 -142h-900l236 1332h898z" />
    <glyph glyph-name="ebreve" unicode="&#x115;" horiz-adv-x="1132" 
d="M1150 1444q-32 -139 -131 -220.5t-241 -81.5q-161 0 -246.5 82t-71.5 220h142q-9 -186 172 -186q182 0 236 186h140zM168 430q0 170 64 309.5t184.5 222t275.5 82.5q115 0 207 -41t147.5 -111t77.5 -164.5t4 -199.5l-10 -60h-794q-2 -16 -2 -46q0 -150 80.5 -228
t233.5 -78q107 0 183 51.5t115 148.5h168q-60 -163 -180 -248.5t-288 -85.5q-216 0 -341 120t-125 328zM700 914q-134 0 -229.5 -87t-130.5 -239h640q21 144 -58.5 235t-221.5 91z" />
    <glyph glyph-name="Edotaccent" unicode="&#x116;" horiz-adv-x="1094" 
d="M772 1622h178l-32 -188h-180zM1242 1332l-26 -144h-748l-76 -436h690l-26 -144h-690l-82 -466h748l-24 -142h-900l236 1332h898z" />
    <glyph glyph-name="edotaccent" unicode="&#x117;" horiz-adv-x="1132" 
d="M702 1332h178l-32 -188h-178zM168 430q0 170 64 309.5t184.5 222t275.5 82.5q115 0 207 -41t147.5 -111t77.5 -164.5t4 -199.5l-10 -60h-794q-2 -16 -2 -46q0 -150 80.5 -228t233.5 -78q107 0 183 51.5t115 148.5h168q-60 -163 -180 -248.5t-288 -85.5q-216 0 -341 120
t-125 328zM700 914q-134 0 -229.5 -87t-130.5 -239h640q21 144 -58.5 235t-221.5 91z" />
    <glyph glyph-name="Eogonek" unicode="&#x118;" horiz-adv-x="1094" 
d="M968 0q-138 -90 -196 -164.5t-58 -161.5q0 -102 134 -102h130l-24 -134h-134q-111 0 -179.5 55.5t-68.5 148.5q0 221 274 358h-738l236 1332h898l-26 -144h-748l-76 -436h690l-26 -144h-690l-82 -466h748l-24 -142h-40z" />
    <glyph glyph-name="eogonek" unicode="&#x119;" horiz-adv-x="1132" 
d="M168 430q0 170 64 309.5t184.5 222t275.5 82.5q115 0 207 -41t147.5 -111t77.5 -164.5t4 -199.5l-10 -60h-794q-2 -16 -2 -46q0 -150 80.5 -228t233.5 -78q107 0 183 51.5t115 148.5h168q-73 -197 -226 -278q-125 -84 -178.5 -155.5t-53.5 -154.5q0 -102 136 -102h130
l-24 -134h-136q-111 0 -179.5 55.5t-68.5 148.5q0 165 158 286h-26q-216 0 -341 120t-125 328zM700 914q-134 0 -229.5 -87t-130.5 -239h640q21 144 -58.5 235t-221.5 91z" />
    <glyph glyph-name="Ecaron" unicode="&#x11a;" horiz-adv-x="1094" 
d="M896 1434h-152l-264 342h156l190 -254l278 254h176zM1242 1332l-26 -144h-748l-76 -436h690l-26 -144h-690l-82 -466h748l-24 -142h-900l236 1332h898z" />
    <glyph glyph-name="ecaron" unicode="&#x11b;" horiz-adv-x="1132" 
d="M828 1144h-154l-264 342h156l192 -254l278 254h174zM168 430q0 170 64 309.5t184.5 222t275.5 82.5q115 0 207 -41t147.5 -111t77.5 -164.5t4 -199.5l-10 -60h-794q-2 -16 -2 -46q0 -150 80.5 -228t233.5 -78q107 0 183 51.5t115 148.5h168q-60 -163 -180 -248.5
t-288 -85.5q-216 0 -341 120t-125 328zM700 914q-134 0 -229.5 -87t-130.5 -239h640q21 144 -58.5 235t-221.5 91z" />
    <glyph glyph-name="Gcircumflex" unicode="&#x11c;" horiz-adv-x="1338" 
d="M890 1776h150l264 -342h-152l-190 254l-280 -254h-178zM194 544q0 172 49 322t135 256t207 167t261 61q243 0 388.5 -134t145.5 -358h-156q0 165 -102.5 258.5t-283.5 93.5q-140 0 -251 -85.5t-173 -239t-62 -347.5q0 -190 97 -300t267 -112q157 0 275.5 117.5
t164.5 320.5h-402l22 134h580l-126 -698h-124l36 248q-80 -127 -196.5 -195.5t-257.5 -68.5q-219 0 -356.5 155t-137.5 405z" />
    <glyph glyph-name="gcircumflex" unicode="&#x11d;" horiz-adv-x="1150" 
d="M734 1486h152l264 -342h-154l-190 254l-278 -254h-180zM1224 1024l-190 -1088q-27 -156 -149.5 -251t-302.5 -95q-218 0 -350 101t-132 267h154q0 -104 92 -170t242 -66q123 0 201.5 63.5t96.5 174.5l42 236q-67 -86 -156.5 -133t-191.5 -47q-183 0 -293.5 118
t-110.5 312q0 167 65.5 304.5t180.5 216.5t254 79q131 0 224 -63t134 -177l38 218h152zM330 454q0 -144 79.5 -223t222.5 -79q123 0 212.5 77t125.5 211l18 104q2 20 2 60q0 142 -79 221t-223 79q-159 0 -258.5 -125t-99.5 -325z" />
    <glyph glyph-name="Gbreve" unicode="&#x11e;" horiz-adv-x="1338" 
d="M1306 1734q-33 -139 -132 -220.5t-240 -81.5q-162 0 -247 82t-73 220h142q-5 -90 38.5 -138t135.5 -48q179 0 236 186h140zM194 544q0 172 49 322t135 256t207 167t261 61q243 0 388.5 -134t145.5 -358h-156q0 165 -102.5 258.5t-283.5 93.5q-140 0 -251 -85.5t-173 -239
t-62 -347.5q0 -190 97 -300t267 -112q157 0 275.5 117.5t164.5 320.5h-402l22 134h580l-126 -698h-124l36 248q-80 -127 -196.5 -195.5t-257.5 -68.5q-219 0 -356.5 155t-137.5 405z" />
    <glyph glyph-name="gbreve" unicode="&#x11f;" horiz-adv-x="1150" 
d="M1150 1444q-33 -139 -132 -220.5t-240 -81.5q-162 0 -247 82t-71 220h142q-6 -90 37 -138t135 -48q182 0 236 186h140zM1224 1024l-190 -1088q-27 -156 -149.5 -251t-302.5 -95q-218 0 -350 101t-132 267h154q0 -104 92 -170t242 -66q123 0 201.5 63.5t96.5 174.5l42 236
q-67 -86 -156.5 -133t-191.5 -47q-183 0 -293.5 118t-110.5 312q0 167 65.5 304.5t180.5 216.5t254 79q131 0 224 -63t134 -177l38 218h152zM330 454q0 -144 79.5 -223t222.5 -79q123 0 212.5 77t125.5 211l18 104q2 20 2 60q0 142 -79 221t-223 79q-159 0 -258.5 -125
t-99.5 -325z" />
    <glyph glyph-name="Gdotaccent" unicode="&#x120;" horiz-adv-x="1338" 
d="M858 1622h178l-32 -188h-180zM194 544q0 172 49 322t135 256t207 167t261 61q243 0 388.5 -134t145.5 -358h-156q0 165 -102.5 258.5t-283.5 93.5q-140 0 -251 -85.5t-173 -239t-62 -347.5q0 -190 97 -300t267 -112q157 0 275.5 117.5t164.5 320.5h-402l22 134h580
l-126 -698h-124l36 248q-80 -127 -196.5 -195.5t-257.5 -68.5q-219 0 -356.5 155t-137.5 405z" />
    <glyph glyph-name="gdotaccent" unicode="&#x121;" horiz-adv-x="1150" 
d="M702 1332h178l-32 -188h-180zM1224 1024l-190 -1088q-27 -156 -149.5 -251t-302.5 -95q-218 0 -350 101t-132 267h154q0 -104 92 -170t242 -66q123 0 201.5 63.5t96.5 174.5l42 236q-67 -86 -156.5 -133t-191.5 -47q-183 0 -293.5 118t-110.5 312q0 167 65.5 304.5
t180.5 216.5t254 79q131 0 224 -63t134 -177l38 218h152zM330 454q0 -144 79.5 -223t222.5 -79q123 0 212.5 77t125.5 211l18 104q2 20 2 60q0 142 -79 221t-223 79q-159 0 -258.5 -125t-99.5 -325z" />
    <glyph glyph-name="uni0122" unicode="&#x122;" horiz-adv-x="1338" 
d="M194 544q0 172 49 322t135 256t207 167t261 61q243 0 388.5 -134t145.5 -358h-156q0 165 -102.5 258.5t-283.5 93.5q-140 0 -251 -85.5t-173 -239t-62 -347.5q0 -190 97 -300t267 -112q157 0 275.5 117.5t164.5 320.5h-402l22 134h580l-126 -698h-124l36 248
q-80 -127 -196.5 -195.5t-257.5 -68.5q-219 0 -356.5 155t-137.5 405zM566 -74h180l-40 -224q-18 -108 -75.5 -159t-132.5 -51h-36l14 88h26q54 0 87 29t47 105l4 24h-106z" />
    <glyph glyph-name="uni0123" unicode="&#x123;" horiz-adv-x="1150" 
d="M998 1144h-178l40 224q18 108 75.5 159t130.5 51h38l-14 -88h-26q-55 0 -88 -29t-46 -105l-4 -24h104zM1224 1024l-190 -1088q-27 -156 -149.5 -251t-302.5 -95q-218 0 -350 101t-132 267h154q0 -104 92 -170t242 -66q123 0 201.5 63.5t96.5 174.5l42 236
q-67 -86 -156.5 -133t-191.5 -47q-183 0 -293.5 118t-110.5 312q0 167 65.5 304.5t180.5 216.5t254 79q131 0 224 -63t134 -177l38 218h152zM330 454q0 -144 79.5 -223t222.5 -79q123 0 212.5 77t125.5 211l18 104q2 20 2 60q0 142 -79 221t-223 79q-159 0 -258.5 -125
t-99.5 -325z" />
    <glyph glyph-name="Hcircumflex" unicode="&#x124;" horiz-adv-x="1266" 
d="M870 1776h152l264 -342h-154l-190 254l-278 -254h-180zM344 1332h150l-102 -572h748l102 572h150l-236 -1332h-150l108 616h-746l-108 -616h-152z" />
    <glyph glyph-name="hcircumflex" unicode="&#x125;" horiz-adv-x="1076" 
d="M422 1886h152l264 -340h-152l-192 254l-278 -254h-178zM928 590q27 143 -34.5 227.5t-191.5 84.5q-129 0 -217 -73.5t-115 -202.5l-108 -626h-152l248 1434h152l-98 -562q67 81 157.5 126.5t188.5 45.5q109 0 191.5 -60t118.5 -161t14 -217l-108 -606h-150z" />
    <glyph glyph-name="Hbar" unicode="&#x126;" horiz-adv-x="1340" 
d="M232 1104h110l40 228h150l-42 -228h750l40 228h150l-42 -228h110l-20 -122h-110l-172 -982h-150l108 616h-748l-108 -616h-150l172 982h-110zM430 754h748l40 228h-748z" />
    <glyph glyph-name="hbar" unicode="&#x127;" horiz-adv-x="1140" 
d="M994 588q25 144 -36 228t-190 84q-127 0 -216 -73t-118 -199l-108 -628h-150l204 1180h-170l22 118h168l24 136h150l-24 -136h384l-22 -118h-382l-54 -314q64 82 156 128t192 46q109 0 191 -59.5t118 -160t15 -216.5l-110 -604h-152z" />
    <glyph glyph-name="Itilde" unicode="&#x128;" 
d="M316 1738q40 0 74.5 -18.5t49.5 -35t42 -50.5q20 -30 31 -44t33 -28t46 -14q47 0 84 48.5t50 129.5h114q-24 -139 -94 -219.5t-168 -80.5q-39 0 -71 16t-46 31t-37 45q-6 8 -24 33t-26 34t-25 19t-35 10q-48 0 -85 -49.5t-51 -130.5h-120q26 145 93 224.5t165 79.5z
M344 1332h150l-234 -1332h-152z" />
    <glyph glyph-name="itilde" unicode="&#x129;" 
d="M264 1450q40 0 74 -18t51 -36t41 -50q39 -54 57 -68q24 -18 53 -18q48 0 84.5 48.5t51.5 129.5h112q-24 -139 -94 -219.5t-168 -80.5q-30 0 -53 6.5t-44 24.5t-28 26t-29 35q-5 7 -18.5 26.5t-20.5 28t-19 20.5t-24.5 16.5t-27.5 4.5q-48 0 -85 -49.5t-51 -130.5h-120
q26 145 93 224.5t165 79.5zM290 1024h150l-180 -1024h-152z" />
    <glyph glyph-name="Imacron" unicode="&#x12a;" 
d="M138 1598h634l-22 -128h-634zM344 1332h150l-234 -1332h-152z" />
    <glyph glyph-name="imacron" unicode="&#x12b;" 
d="M86 1310h634l-22 -128h-634zM290 1024h150l-180 -1024h-152z" />
    <glyph glyph-name="Ibreve" unicode="&#x12c;" 
d="M828 1734q-33 -139 -132 -220.5t-240 -81.5q-162 0 -247 82t-71 220h142q-6 -90 37 -138t135 -48q179 0 236 186h140zM344 1332h150l-234 -1332h-152z" />
    <glyph glyph-name="ibreve" unicode="&#x12d;" 
d="M776 1446q-32 -139 -131 -220.5t-241 -81.5q-161 0 -246.5 82t-71.5 220h142q-6 -90 37 -138t135 -48q182 0 236 186h140zM290 1024h150l-180 -1024h-152z" />
    <glyph glyph-name="Iogonek" unicode="&#x12e;" 
d="M260 0q-139 -90 -197.5 -164.5t-58.5 -161.5q0 -102 136 -102h130l-24 -134h-134q-112 0 -181 56t-69 148q0 110 70.5 200.5t205.5 157.5h-30l236 1332h150z" />
    <glyph glyph-name="iogonek" unicode="&#x12f;" 
d="M332 1336h180l-30 -168h-180zM262 0q-138 -90 -196 -164.5t-58 -161.5q0 -102 136 -102h128l-22 -134h-136q-111 0 -179.5 55.5t-68.5 148.5q0 110 70.5 200.5t205.5 157.5h-32l180 1024h152z" />
    <glyph glyph-name="Idotaccent" unicode="&#x130;" 
d="M380 1622h178l-32 -188h-180zM344 1332h150l-234 -1332h-152z" />
    <glyph glyph-name="dotlessi" unicode="&#x131;" 
d="M290 1024h150l-180 -1024h-152z" />
    <glyph glyph-name="IJ" unicode="&#x132;" horiz-adv-x="1034" 
d="M442 140h128q53 0 94.5 13t79.5 44.5t65.5 90.5t42.5 144l158 900h150l-162 -920q-16 -90 -46.5 -161.5t-68 -118t-84 -76.5t-94 -43t-99.5 -13h-184zM344 1332h150l-234 -1332h-152z" />
    <glyph glyph-name="ij" unicode="&#x133;" horiz-adv-x="734" 
d="M698 1336h182l-30 -168h-180zM332 1336h180l-30 -168h-180zM264 -192h64q56 0 92 31t50 111l190 1074h150l-192 -1086q-24 -141 -106 -205.5t-196 -64.5h-76zM290 1024h152l-180 -1024h-152z" />
    <glyph glyph-name="Jcircumflex" unicode="&#x134;" horiz-adv-x="666" 
d="M710 1776h152l264 -342h-154l-190 254l-278 -254h-180zM74 140h128q53 0 94.5 13t79.5 44.5t65.5 90.5t42.5 144l158 900h150l-162 -920q-38 -216 -144.5 -314t-245.5 -98h-186z" />
    <glyph glyph-name="jcircumflex" unicode="&#x135;" 
d="M360 1488h152l264 -342h-154l-190 254l-278 -254h-178zM-104 -192h64q55 0 90.5 31t49.5 111l190 1074h150l-192 -1086q-25 -140 -105.5 -205t-186.5 -65h-86z" />
    <glyph glyph-name="uni0136" unicode="&#x136;" horiz-adv-x="1116" 
d="M344 1332h150l-118 -676l720 676h212l-700 -642l482 -690h-170l-418 594l-162 -146l-80 -448h-152zM466 -74h180l-40 -224q-18 -108 -75.5 -159t-130.5 -51h-38l14 88h26q55 0 88 29t46 105l4 24h-104z" />
    <glyph glyph-name="uni0137" unicode="&#x137;" horiz-adv-x="1008" 
d="M894 1024h216l-530 -502l374 -522h-176l-310 426l-160 -146l-50 -280h-150l252 1434h150l-166 -944zM416 -74h180l-40 -224q-20 -108 -77 -159t-131 -51h-38l16 88h26q54 0 87 29t47 105l4 24h-106z" />
    <glyph glyph-name="kgreenlandic" unicode="&#x138;" horiz-adv-x="1012" 
d="M288 1024h148l-92 -534l550 534h216l-530 -502l374 -522h-176l-310 426l-162 -146l-48 -280h-150z" />
    <glyph glyph-name="Lacute" unicode="&#x139;" horiz-adv-x="972" 
d="M772 1760l-312 -326h-136l258 326h190zM904 0h-796l236 1332h150l-210 -1190h646z" />
    <glyph glyph-name="lacute" unicode="&#x13a;" 
d="M786 1870l-314 -324h-136l260 324h190zM362 1434h152l-252 -1434h-152z" />
    <glyph glyph-name="uni013B" unicode="&#x13b;" horiz-adv-x="972" 
d="M904 0h-796l236 1332h150l-210 -1190h646zM412 -74h180l-42 -224q-18 -108 -75.5 -159t-130.5 -51h-38l16 88h24q55 0 88 29t46 105l6 24h-106z" />
    <glyph glyph-name="uni013C" unicode="&#x13c;" 
d="M362 1434h152l-252 -1434h-152zM82 -74h180l-42 -224q-18 -108 -75.5 -159t-130.5 -51h-38l16 88h24q55 0 88 29t46 105l6 24h-106z" />
    <glyph glyph-name="Lcaron" unicode="&#x13d;" horiz-adv-x="972" 
d="M742 1358h146l-146 -408h-134zM904 0h-796l236 1332h150l-210 -1190h646z" />
    <glyph glyph-name="lcaron" unicode="&#x13e;" horiz-adv-x="418" 
d="M362 1434h152l-252 -1434h-152zM682 1432h144l-144 -408h-134z" />
    <glyph glyph-name="Ldot" unicode="&#x13f;" horiz-adv-x="972" 
d="M904 0h-796l236 1332h150l-210 -1190h646zM692 768h180l-34 -186h-180z" />
    <glyph glyph-name="ldot" unicode="&#x140;" horiz-adv-x="734" 
d="M362 1434h152l-252 -1434h-152zM594 752h180l-34 -184h-178z" />
    <glyph glyph-name="Lslash" unicode="&#x141;" horiz-adv-x="1034" 
d="M124 702l176 34l104 596h152l-100 -564l346 68l-24 -132l-344 -68l-88 -494h646l-26 -142h-796l106 604l-176 -34z" />
    <glyph glyph-name="lslash" unicode="&#x142;" horiz-adv-x="508" 
d="M130 738l192 34l116 662h150l-112 -634l180 32l-24 -132l-180 -32l-118 -668h-148l112 640l-190 -34z" />
    <glyph glyph-name="Nacute" unicode="&#x143;" horiz-adv-x="1272" 
d="M1240 1760l-312 -326h-138l260 326h190zM1250 1332h150l-236 -1332h-156l-550 1132l-198 -1132h-152l236 1332h188l524 -1090z" />
    <glyph glyph-name="nacute" unicode="&#x144;" horiz-adv-x="1076" 
d="M1088 1472l-314 -326h-136l260 326h190zM288 1024h152l-26 -152q65 81 155 126.5t189 45.5q109 0 191.5 -60t118.5 -161t14 -217l-108 -606h-150l104 590q27 143 -34.5 227.5t-191.5 84.5q-124 0 -211.5 -70t-116.5 -192l-112 -640h-152z" />
    <glyph glyph-name="uni0145" unicode="&#x145;" horiz-adv-x="1272" 
d="M1250 1332h150l-236 -1332h-156l-550 1132l-198 -1132h-152l236 1332h188l524 -1090zM558 -74h180l-40 -224q-20 -108 -77 -159t-131 -51h-38l16 88h26q54 0 87 29t47 105l4 24h-106z" />
    <glyph glyph-name="uni0146" unicode="&#x146;" horiz-adv-x="1076" 
d="M288 1024h152l-26 -152q65 81 155 126.5t189 45.5q109 0 191.5 -60t118.5 -161t14 -217l-108 -606h-150l104 590q27 143 -34.5 227.5t-191.5 84.5q-124 0 -211.5 -70t-116.5 -192l-112 -640h-152zM454 -74h180l-40 -224q-20 -108 -77.5 -159t-130.5 -51h-38l16 88h26
q54 0 86.5 29t45.5 105l6 24h-106z" />
    <glyph glyph-name="Ncaron" unicode="&#x147;" horiz-adv-x="1272" 
d="M974 1434h-152l-264 342h156l190 -254l278 254h176zM1250 1332h150l-236 -1332h-156l-550 1132l-198 -1132h-152l236 1332h188l524 -1090z" />
    <glyph glyph-name="ncaron" unicode="&#x148;" horiz-adv-x="1076" 
d="M822 1146h-152l-266 342h158l190 -254l278 254h176zM288 1024h152l-26 -152q65 81 155 126.5t189 45.5q109 0 191.5 -60t118.5 -161t14 -217l-108 -606h-150l104 590q27 143 -34.5 227.5t-191.5 84.5q-124 0 -211.5 -70t-116.5 -192l-112 -640h-152z" />
    <glyph glyph-name="napostrophe" unicode="&#x149;" horiz-adv-x="1370" 
d="M362 1404h178l-38 -224q-20 -108 -77.5 -159t-130.5 -51h-40l16 88h28q54 0 86 29t46 105l4 26h-106zM582 1024h152l-28 -152q67 82 156.5 127t189.5 45q109 0 191 -60t118 -161t15 -217l-110 -606h-150l106 590q25 144 -36 228t-190 84q-126 0 -213.5 -70t-116.5 -192
l-112 -640h-150z" />
    <glyph glyph-name="Eng" unicode="&#x14a;" horiz-adv-x="1272" 
d="M1248 1332h152l-246 -1390q-24 -145 -112 -225.5t-220 -80.5h-126l24 138h96q83 0 128.5 43t61.5 137l10 56l-558 1122l-198 -1132h-152l236 1332h186l530 -1072z" />
    <glyph glyph-name="eng" unicode="&#x14b;" horiz-adv-x="1076" 
d="M290 1024h150l-26 -154q66 81 157.5 129.5t188.5 48.5q183 0 270.5 -106.5t53.5 -289.5l-126 -710q-24 -145 -106.5 -225.5t-207.5 -80.5h-144l26 138h100q80 0 124 43t60 137l120 666q22 139 -30.5 211.5t-177.5 72.5q-129 0 -228.5 -75.5t-121.5 -192.5l-112 -636h-152
z" />
    <glyph glyph-name="Omacron" unicode="&#x14c;" horiz-adv-x="1374" 
d="M638 1598h634l-22 -128h-634zM194 542q0 229 87 414.5t241.5 290.5t345.5 105q240 0 390 -161t150 -419q0 -230 -82.5 -409t-233.5 -279t-346 -100q-245 0 -398.5 155.5t-153.5 402.5zM1256 778q0 204 -106 318t-298 114q-143 0 -258 -86.5t-179.5 -239.5t-64.5 -344
q0 -196 108 -304t302 -108q221 0 358.5 179.5t137.5 470.5z" />
    <glyph glyph-name="omacron" unicode="&#x14d;" horiz-adv-x="1136" 
d="M446 1310h636l-22 -128h-636zM168 430q0 173 69.5 315t191 222.5t269.5 80.5q200 0 321 -122t121 -326q0 -173 -69.5 -315.5t-191 -223.5t-269.5 -81q-200 0 -321 123t-121 327zM986 602q0 144 -78.5 225t-219.5 81q-150 0 -257 -135.5t-107 -342.5q0 -148 78.5 -229
t219.5 -81q149 0 256.5 137.5t107.5 344.5z" />
    <glyph glyph-name="Obreve" unicode="&#x14e;" horiz-adv-x="1374" 
d="M1328 1734q-32 -139 -131 -220.5t-241 -81.5q-161 0 -246.5 82t-71.5 220h142q-6 -90 37 -138t135 -48q182 0 236 186h140zM194 542q0 229 87 414.5t241.5 290.5t345.5 105q240 0 390 -161t150 -419q0 -230 -82.5 -409t-233.5 -279t-346 -100q-245 0 -398.5 155.5
t-153.5 402.5zM1256 778q0 204 -106 318t-298 114q-143 0 -258 -86.5t-179.5 -239.5t-64.5 -344q0 -196 108 -304t302 -108q221 0 358.5 179.5t137.5 470.5z" />
    <glyph glyph-name="obreve" unicode="&#x14f;" horiz-adv-x="1136" 
d="M1136 1446q-32 -139 -130.5 -220.5t-241.5 -81.5q-161 0 -245.5 82t-72.5 220h142q-9 -186 172 -186q183 0 236 186h140zM168 430q0 173 69.5 315t191 222.5t269.5 80.5q200 0 321 -122t121 -326q0 -173 -69.5 -315.5t-191 -223.5t-269.5 -81q-200 0 -321 123t-121 327z
M986 602q0 144 -78.5 225t-219.5 81q-150 0 -257 -135.5t-107 -342.5q0 -148 78.5 -229t219.5 -81q149 0 256.5 137.5t107.5 344.5z" />
    <glyph glyph-name="Ohungarumlaut" unicode="&#x150;" horiz-adv-x="1374" 
d="M1464 1760l-336 -326h-126l284 326h178zM1140 1760l-338 -326h-124l282 326h180zM194 542q0 229 87 414.5t241.5 290.5t345.5 105q240 0 390 -161t150 -419q0 -230 -82.5 -409t-233.5 -279t-346 -100q-245 0 -398.5 155.5t-153.5 402.5zM1256 778q0 204 -106 318
t-298 114q-143 0 -258 -86.5t-179.5 -239.5t-64.5 -344q0 -196 108 -304t302 -108q221 0 358.5 179.5t137.5 470.5z" />
    <glyph glyph-name="ohungarumlaut" unicode="&#x151;" horiz-adv-x="1136" 
d="M1272 1470l-336 -324h-124l282 324h178zM948 1470l-338 -324h-124l282 324h180zM168 430q0 173 69.5 315t191 222.5t269.5 80.5q200 0 321 -122t121 -326q0 -173 -69.5 -315.5t-191 -223.5t-269.5 -81q-200 0 -321 123t-121 327zM986 602q0 144 -78.5 225t-219.5 81
q-150 0 -257 -135.5t-107 -342.5q0 -148 78.5 -229t219.5 -81q149 0 256.5 137.5t107.5 344.5z" />
    <glyph glyph-name="OE" unicode="&#x152;" horiz-adv-x="2116" 
d="M194 542q0 229 84.5 414.5t234.5 290.5t335 105q168 0 291 -93.5t175 -254.5l58 328h898l-26 -144h-748l-78 -436h692l-26 -144h-692l-82 -466h748l-24 -142h-898l38 210q-84 -108 -199 -167t-251 -59q-235 0 -382.5 155t-147.5 403zM1256 778q0 204 -106 318t-298 114
q-143 0 -258 -86.5t-179.5 -239.5t-64.5 -344q0 -196 108 -304t302 -108q221 0 358.5 179.5t137.5 470.5z" />
    <glyph glyph-name="oe" unicode="&#x153;" horiz-adv-x="1936" 
d="M168 430q0 173 68.5 315t188.5 222.5t267 80.5q142 0 245 -65t151 -183q69 114 177 179t243 65q151 0 258.5 -70t151.5 -187.5t20 -258.5l-10 -60h-794q-2 -16 -2 -46q0 -150 80.5 -228t233.5 -78q107 0 183 51.5t115 148.5h166q-60 -164 -176.5 -249t-281.5 -85
q-156 0 -266 65.5t-158 184.5q-72 -117 -183 -184.5t-241 -67.5q-198 0 -317 123t-119 327zM1510 914q-134 0 -229.5 -87t-130.5 -239h638q21 145 -57.5 235.5t-220.5 90.5zM986 602q0 144 -78.5 225t-219.5 81q-150 0 -257 -135.5t-107 -342.5q0 -148 78.5 -229t219.5 -81
q149 0 256.5 137.5t107.5 344.5z" />
    <glyph glyph-name="Racute" unicode="&#x154;" horiz-adv-x="1168" 
d="M1172 1760l-314 -326h-136l260 326h190zM672 548h-316l-96 -548h-152l236 1332h542q171 0 269.5 -91.5t98.5 -250.5q0 -145 -93.5 -251.5t-246.5 -138.5q101 -25 145.5 -93t44.5 -193v-314h-152v296q0 139 -62.5 195.5t-217.5 56.5zM858 1194h-388l-90 -510h388
q150 0 238 87t88 225q0 96 -61.5 147t-174.5 51z" />
    <glyph glyph-name="racute" unicode="&#x155;" horiz-adv-x="666" 
d="M898 1470l-312 -326h-138l260 326h190zM292 1024h154l-26 -146q63 74 146.5 114t167.5 40h48l-28 -156h-46q-112 0 -205.5 -58.5t-122.5 -157.5l-114 -660h-152z" />
    <glyph glyph-name="uni0156" unicode="&#x156;" horiz-adv-x="1168" 
d="M672 548h-316l-96 -548h-152l236 1332h542q171 0 269.5 -91.5t98.5 -250.5q0 -145 -93.5 -251.5t-246.5 -138.5q101 -25 145.5 -93t44.5 -193v-314h-152v296q0 139 -62.5 195.5t-217.5 56.5zM858 1194h-388l-90 -510h388q150 0 238 87t88 225q0 96 -61.5 147t-174.5 51z
M508 -74h180l-42 -224q-18 -108 -75.5 -159t-130.5 -51h-38l16 88h24q55 0 88 29t46 105l6 24h-106z" />
    <glyph glyph-name="uni0157" unicode="&#x157;" horiz-adv-x="666" 
d="M292 1024h154l-26 -146q63 74 146.5 114t167.5 40h48l-28 -156h-46q-112 0 -205.5 -58.5t-122.5 -157.5l-114 -660h-152zM86 -74h180l-40 -224q-20 -108 -77.5 -159t-130.5 -51h-38l16 88h26q54 0 86.5 29t45.5 105l6 24h-106z" />
    <glyph glyph-name="Rcaron" unicode="&#x158;" horiz-adv-x="1168" 
d="M906 1434h-154l-264 342h156l192 -254l278 254h174zM672 548h-316l-96 -548h-152l236 1332h542q171 0 269.5 -91.5t98.5 -250.5q0 -145 -93.5 -251.5t-246.5 -138.5q101 -25 145.5 -93t44.5 -193v-314h-152v296q0 139 -62.5 195.5t-217.5 56.5zM858 1194h-388l-90 -510
h388q150 0 238 87t88 225q0 96 -61.5 147t-174.5 51z" />
    <glyph glyph-name="rcaron" unicode="&#x159;" horiz-adv-x="666" 
d="M630 1144h-152l-264 342h156l192 -254l278 254h174zM292 1024h154l-26 -146q63 74 146.5 114t167.5 40h48l-28 -156h-46q-112 0 -205.5 -58.5t-122.5 -157.5l-114 -660h-152z" />
    <glyph glyph-name="Sacute" unicode="&#x15a;" horiz-adv-x="1186" 
d="M1152 1760l-314 -326h-136l260 326h190zM768 578l-162 36q-340 75 -340 322q0 190 130.5 302t349.5 112q236 0 363 -114.5t127 -327.5h-154q0 154 -84.5 230t-257.5 76q-139 0 -227.5 -71.5t-88.5 -182.5q0 -147 230 -194l156 -34q356 -76 356 -336q0 -192 -128 -303
t-346 -111q-244 0 -385 119t-141 325h156q0 -149 97.5 -228.5t278.5 -79.5q137 0 224.5 69.5t87.5 180.5q0 153 -242 210z" />
    <glyph glyph-name="sacute" unicode="&#x15b;" horiz-adv-x="1028" 
d="M1028 1470l-312 -324h-136l258 324h190zM662 430l-158 38q-141 30 -208.5 94.5t-67.5 169.5q0 145 107 230.5t295 85.5q185 0 294.5 -92.5t113.5 -261.5h-148q0 110 -69.5 167t-200.5 57q-113 0 -177.5 -46.5t-64.5 -125.5q0 -56 40 -89t130 -53l164 -34
q141 -30 209.5 -97.5t68.5 -178.5q0 -147 -106 -231.5t-298 -84.5q-206 0 -322.5 94.5t-115.5 259.5h154q0 -110 75 -168t211 -58q120 0 186 45t66 123q0 60 -43 97.5t-135 58.5z" />
    <glyph glyph-name="Scircumflex" unicode="&#x15c;" horiz-adv-x="1186" 
d="M792 1776h150l264 -342h-152l-190 254l-280 -254h-178zM768 578l-162 36q-340 75 -340 322q0 190 130.5 302t349.5 112q236 0 363 -114.5t127 -327.5h-154q0 154 -84.5 230t-257.5 76q-139 0 -227.5 -71.5t-88.5 -182.5q0 -147 230 -194l156 -34q356 -76 356 -336
q0 -192 -128 -303t-346 -111q-244 0 -385 119t-141 325h156q0 -149 97.5 -228.5t278.5 -79.5q137 0 224.5 69.5t87.5 180.5q0 153 -242 210z" />
    <glyph glyph-name="scircumflex" unicode="&#x15d;" horiz-adv-x="1028" 
d="M670 1488h152l264 -342h-154l-190 254l-278 -254h-178zM662 430l-158 38q-141 30 -208.5 94.5t-67.5 169.5q0 145 107 230.5t295 85.5q185 0 294.5 -92.5t113.5 -261.5h-148q0 110 -69.5 167t-200.5 57q-113 0 -177.5 -46.5t-64.5 -125.5q0 -56 40 -89t130 -53l164 -34
q141 -30 209.5 -97.5t68.5 -178.5q0 -147 -106 -231.5t-298 -84.5q-206 0 -322.5 94.5t-115.5 259.5h154q0 -110 75 -168t211 -58q120 0 186 45t66 123q0 60 -43 97.5t-135 58.5z" />
    <glyph glyph-name="Scedilla" unicode="&#x15e;" horiz-adv-x="1186" 
d="M768 578l-162 36q-340 75 -340 322q0 190 130.5 302t349.5 112q236 0 363 -114.5t127 -327.5h-154q0 154 -84.5 230t-257.5 76q-139 0 -227.5 -71.5t-88.5 -182.5q0 -147 230 -194l156 -34q356 -76 356 -336q0 -192 -128 -303t-346 -111h-30l-36 -94h32q80 0 126 -53.5
t46 -134.5q0 -119 -76 -185.5t-212 -66.5h-206l22 130h166q79 0 126.5 36t47.5 96q0 70 -92 70h-68l-40 66l60 146q-186 32 -289 145.5t-103 288.5h156q0 -149 97.5 -228.5t278.5 -79.5q137 0 224.5 69.5t87.5 180.5q0 153 -242 210z" />
    <glyph glyph-name="scedilla" unicode="&#x15f;" horiz-adv-x="1028" 
d="M662 430l-158 38q-141 30 -208.5 94.5t-67.5 169.5q0 145 107 230.5t295 85.5q185 0 294.5 -92.5t113.5 -261.5h-148q0 110 -69.5 167t-200.5 57q-113 0 -177.5 -46.5t-64.5 -125.5q0 -56 40 -89t130 -53l164 -34q141 -30 209.5 -97.5t68.5 -178.5q0 -147 -105 -231.5
t-293 -84.5l-36 -90h32q80 0 126 -53.5t46 -134.5q0 -119 -76 -185.5t-212 -66.5h-206l22 130h166q79 0 126.5 36t47.5 96q0 70 -92 70h-68l-40 66l56 138q-160 23 -248.5 114t-87.5 234h154q0 -110 75 -168t211 -58q120 0 186 45t66 123q0 60 -43 97.5t-135 58.5z" />
    <glyph glyph-name="Scaron" unicode="&#x160;" horiz-adv-x="1186" 
d="M884 1434h-152l-266 342h158l190 -254l278 254h176zM768 578l-162 36q-340 75 -340 322q0 190 130.5 302t349.5 112q236 0 363 -114.5t127 -327.5h-154q0 154 -84.5 230t-257.5 76q-139 0 -227.5 -71.5t-88.5 -182.5q0 -147 230 -194l156 -34q356 -76 356 -336
q0 -192 -128 -303t-346 -111q-244 0 -385 119t-141 325h156q0 -149 97.5 -228.5t278.5 -79.5q137 0 224.5 69.5t87.5 180.5q0 153 -242 210z" />
    <glyph glyph-name="scaron" unicode="&#x161;" horiz-adv-x="1028" 
d="M762 1146h-152l-264 342h156l192 -256l278 256h174zM662 430l-158 38q-141 30 -208.5 94.5t-67.5 169.5q0 145 107 230.5t295 85.5q185 0 294.5 -92.5t113.5 -261.5h-148q0 110 -69.5 167t-200.5 57q-113 0 -177.5 -46.5t-64.5 -125.5q0 -56 40 -89t130 -53l164 -34
q141 -30 209.5 -97.5t68.5 -178.5q0 -147 -106 -231.5t-298 -84.5q-206 0 -322.5 94.5t-115.5 259.5h154q0 -110 75 -168t211 -58q120 0 186 45t66 123q0 60 -43 97.5t-135 58.5z" />
    <glyph glyph-name="uni0162" unicode="&#x162;" horiz-adv-x="1084" 
d="M1252 1332l-26 -144h-400l-208 -1188h-20l-44 -112h32q80 0 126 -53.5t46 -134.5q0 -119 -76 -185.5t-212 -66.5h-206l22 130h166q79 0 126.5 36t47.5 96q0 70 -92 70h-68l-40 66l62 154h-20l208 1188h-398l26 144h948z" />
    <glyph glyph-name="uni0163" unicode="&#x163;" horiz-adv-x="660" 
d="M618 136l-24 -136h-40l-44 -112h32q79 0 125.5 -53.5t46.5 -134.5q0 -119 -76 -185.5t-212 -66.5h-206l22 130h166q79 0 125.5 36t46.5 96q0 70 -90 70h-68l-40 66l64 158q-82 16 -123 79.5t-21 178.5l112 630h-188l24 132h186l48 266h152l-46 -266h184l-22 -132h-186
l-108 -610q-14 -82 7.5 -114t72.5 -32h80z" />
    <glyph glyph-name="Tcaron" unicode="&#x164;" horiz-adv-x="1084" 
d="M856 1434h-154l-264 342h156l192 -254l278 254h176zM1252 1332l-26 -144h-400l-208 -1188h-150l208 1188h-398l26 144h948z" />
    <glyph glyph-name="tcaron" unicode="&#x165;" horiz-adv-x="682" 
d="M836 1526h144l-144 -408h-134zM618 136l-24 -136h-92q-106 0 -164 63.5t-36 198.5l112 630h-188l24 132h186l48 266h152l-46 -266h184l-22 -132h-186l-108 -610q-14 -82 7.5 -114t72.5 -32h80z" />
    <glyph glyph-name="Tbar" unicode="&#x166;" horiz-adv-x="1084" 
d="M280 704h312l84 484h-398l24 144h950l-26 -144h-398l-86 -484h318l-26 -140h-316l-100 -564h-150l100 564h-310z" />
    <glyph glyph-name="tbar" unicode="&#x167;" horiz-adv-x="660" 
d="M618 136l-24 -136h-92q-50 0 -90 14t-71 45t-40.5 81t1.5 122l42 242h-188l20 114h188l50 278h-190l24 128h188l48 266h150l-48 -266h188l-22 -128h-188l-48 -278h188l-22 -114h-188l-38 -226q-14 -80 7.5 -111t72.5 -31h82z" />
    <glyph glyph-name="Utilde" unicode="&#x168;" horiz-adv-x="1204" 
d="M742 1738q41 0 75.5 -18t50 -35.5t40.5 -50.5q39 -54 57 -68q24 -18 53 -18q48 0 85.5 48.5t50.5 129.5h114q-25 -139 -95.5 -219.5t-166.5 -80.5q-31 0 -54 6.5t-44 24.5t-28.5 26.5t-29.5 34.5q-5 7 -18.5 26.5t-20.5 28t-19 20.5t-24.5 16.5t-27.5 4.5
q-48 0 -85 -49.5t-51 -130.5h-120q27 145 94 224.5t164 79.5zM332 1332h152l-140 -792q-35 -191 53 -301.5t275 -110.5q148 0 246 92.5t128 259.5l146 852h152l-152 -868q-39 -218 -183 -349t-345 -131q-164 0 -280.5 71t-167 201t-20.5 296z" />
    <glyph glyph-name="utilde" unicode="&#x169;" horiz-adv-x="1060" 
d="M600 1450q31 0 56.5 -8t47.5 -27t32.5 -31t31.5 -38q22 -32 31.5 -44.5t31 -27t45.5 -14.5q48 0 85.5 48.5t50.5 129.5h114q-24 -139 -95 -219.5t-167 -80.5q-31 0 -54 6.5t-44 24.5t-28.5 26.5t-29.5 34.5q-5 7 -18.5 26.5t-20.5 28t-19 20.5t-24.5 16.5t-27.5 4.5
q-46 0 -83.5 -49.5t-52.5 -130.5h-118q26 145 92.5 224.5t163.5 79.5zM328 434q-26 -145 31 -228.5t185 -83.5q132 0 220 79.5t108 216.5h2l106 606h148l-178 -1024h-150l26 148q-64 -79 -152 -122.5t-186 -43.5q-110 0 -190 59t-113 159t-11 218l108 606h152z" />
    <glyph glyph-name="Umacron" unicode="&#x16a;" horiz-adv-x="1204" 
d="M564 1598h634l-20 -128h-636zM332 1332h152l-140 -792q-35 -191 53 -301.5t275 -110.5q148 0 246 92.5t128 259.5l146 852h152l-152 -868q-39 -218 -183 -349t-345 -131q-164 0 -280.5 71t-167 201t-20.5 296z" />
    <glyph glyph-name="umacron" unicode="&#x16b;" horiz-adv-x="1060" 
d="M422 1310h636l-22 -128h-634zM328 434q-26 -145 31 -228.5t185 -83.5q132 0 220 79.5t108 216.5h2l106 606h148l-178 -1024h-150l26 148q-64 -79 -152 -122.5t-186 -43.5q-110 0 -190 59t-113 159t-11 218l108 606h152z" />
    <glyph glyph-name="Ubreve" unicode="&#x16c;" horiz-adv-x="1204" 
d="M1254 1734q-32 -139 -131 -220.5t-241 -81.5q-161 0 -246.5 82t-71.5 220h142q-9 -186 172 -186q182 0 236 186h140zM332 1332h152l-140 -792q-35 -191 53 -301.5t275 -110.5q148 0 246 92.5t128 259.5l146 852h152l-152 -868q-39 -218 -183 -349t-345 -131
q-164 0 -280.5 71t-167 201t-20.5 296z" />
    <glyph glyph-name="ubreve" unicode="&#x16d;" horiz-adv-x="1060" 
d="M1114 1446q-33 -139 -132 -220.5t-242 -81.5q-161 0 -245.5 82t-72.5 220h142q-5 -90 38.5 -138t135.5 -48q180 0 234 186h142zM328 434q-26 -145 31 -228.5t185 -83.5q132 0 220 79.5t108 216.5h2l106 606h148l-178 -1024h-150l26 148q-64 -79 -152 -122.5t-186 -43.5
q-110 0 -190 59t-113 159t-11 218l108 606h152z" />
    <glyph glyph-name="Uring" unicode="&#x16e;" horiz-adv-x="1204" 
d="M1144 1732q0 -135 -85.5 -223.5t-214.5 -88.5q-117 0 -186.5 65t-69.5 175q0 135 84.5 223.5t213.5 88.5q117 0 187.5 -65.5t70.5 -174.5zM712 1664q0 -63 37.5 -98.5t104.5 -35.5q74 0 120 55t46 143q0 65 -36.5 99.5t-105.5 34.5q-74 0 -120 -55t-46 -143zM332 1332
h152l-140 -792q-35 -191 53 -301.5t275 -110.5q148 0 246 92.5t128 259.5l146 852h152l-152 -868q-39 -218 -183 -349t-345 -131q-164 0 -280.5 71t-167 201t-20.5 296z" />
    <glyph glyph-name="uring" unicode="&#x16f;" horiz-adv-x="1060" 
d="M1004 1444q0 -135 -85.5 -223.5t-214.5 -88.5q-117 0 -186.5 65t-69.5 175q0 135 84.5 223.5t213.5 88.5q117 0 187.5 -65.5t70.5 -174.5zM572 1376q0 -63 37.5 -98.5t104.5 -35.5q74 0 120 55t46 143q0 65 -36.5 99.5t-105.5 34.5q-74 0 -120 -55t-46 -143zM328 434
q-26 -145 31 -228.5t185 -83.5q132 0 220 79.5t108 216.5h2l106 606h148l-178 -1024h-150l26 148q-64 -79 -152 -122.5t-186 -43.5q-110 0 -190 59t-113 159t-11 218l108 606h152z" />
    <glyph glyph-name="Uhungarumlaut" unicode="&#x170;" horiz-adv-x="1204" 
d="M1390 1760l-336 -326h-124l282 326h178zM1066 1760l-338 -326h-124l282 326h180zM332 1332h152l-140 -792q-35 -191 53 -301.5t275 -110.5q148 0 246 92.5t128 259.5l146 852h152l-152 -868q-39 -218 -183 -349t-345 -131q-164 0 -280.5 71t-167 201t-20.5 296z" />
    <glyph glyph-name="uhungarumlaut" unicode="&#x171;" horiz-adv-x="1060" 
d="M1248 1472l-336 -326h-124l282 326h178zM924 1472l-338 -326h-124l284 326h178zM328 434q-26 -145 31 -228.5t185 -83.5q132 0 220 79.5t108 216.5h2l106 606h148l-178 -1024h-150l26 148q-64 -79 -152 -122.5t-186 -43.5q-110 0 -190 59t-113 159t-11 218l108 606h152z
" />
    <glyph glyph-name="Uogonek" unicode="&#x172;" horiz-adv-x="1204" 
d="M332 1332h152l-140 -792q-35 -191 53 -301.5t275 -110.5q148 0 246 92.5t128 259.5l146 852h152l-152 -868q-39 -218 -183 -349t-343 -131q-125 -84 -178.5 -156t-53.5 -154q0 -102 136 -102h130l-24 -134h-134q-112 0 -181 56t-69 148q0 215 262 352
q-199 33 -298.5 185.5t-59.5 374.5z" />
    <glyph glyph-name="uogonek" unicode="&#x173;" horiz-adv-x="1060" 
d="M328 434q-26 -145 31 -228.5t185 -83.5q132 0 220 79.5t108 216.5h2l106 606h148l-178 -1024h2q-139 -90 -197.5 -164.5t-58.5 -161.5q0 -102 136 -102h130l-24 -134h-134q-112 0 -181 56t-69 148q0 110 70.5 200.5t205.5 157.5h-30l26 148q-64 -79 -152 -122.5
t-186 -43.5q-110 0 -190 59t-113 159t-11 218l108 606h152z" />
    <glyph glyph-name="Wcircumflex" unicode="&#x174;" horiz-adv-x="1986" 
d="M1214 1776h152l264 -342h-152l-192 254l-278 -254h-178zM302 1332h154l100 -1138l572 1138h180l162 -1138l514 1138h174l-630 -1332h-172l-164 1142l-572 -1142h-176z" />
    <glyph glyph-name="wcircumflex" unicode="&#x175;" horiz-adv-x="1586" 
d="M958 1488h152l264 -342h-152l-192 254l-278 -254h-178zM246 1024h154l76 -832l398 832h172l106 -832l372 832h174l-494 -1024h-164l-110 830l-396 -830h-168z" />
    <glyph glyph-name="Ycircumflex" unicode="&#x176;" horiz-adv-x="1190" 
d="M838 1776h152l264 -342h-152l-192 254l-278 -254h-178zM600 458l-298 874h162l230 -700l484 700h186l-616 -874l-80 -458h-150z" />
    <glyph glyph-name="ycircumflex" unicode="&#x177;" horiz-adv-x="1114" 
d="M750 1488h150l264 -342h-152l-192 254l-278 -254h-178zM86 -180h146q71 0 113 29t83 103l38 76l-218 996h156l180 -840l466 840h176l-614 -1088q-81 -142 -159.5 -202t-192.5 -60h-194z" />
    <glyph glyph-name="Ydieresis" unicode="&#x178;" horiz-adv-x="1190" 
d="M1014 1614h172l-32 -180h-172zM586 1614h172l-32 -180h-172zM600 458l-298 874h162l230 -700l484 700h186l-616 -874l-80 -458h-150z" />
    <glyph glyph-name="Zacute" unicode="&#x179;" horiz-adv-x="1148" 
d="M1166 1760l-312 -326h-136l258 326h190zM328 1332h956l-22 -164l-972 -1032h788l-22 -136h-958l22 162l968 1032h-784z" />
    <glyph glyph-name="zacute" unicode="&#x17a;" horiz-adv-x="966" 
d="M1014 1472l-314 -326h-136l260 326h190zM268 1024h780l-24 -156l-742 -740h612l-22 -128h-782l24 156l742 740h-610z" />
    <glyph glyph-name="Zdotaccent" unicode="&#x17b;" horiz-adv-x="1148" 
d="M776 1622h178l-32 -188h-178zM328 1332h956l-22 -164l-972 -1032h788l-22 -136h-958l22 162l968 1032h-784z" />
    <glyph glyph-name="zdotaccent" unicode="&#x17c;" horiz-adv-x="966" 
d="M622 1334h176l-32 -188h-178zM268 1024h780l-24 -156l-742 -740h612l-22 -128h-782l24 156l742 740h-610z" />
    <glyph glyph-name="Zcaron" unicode="&#x17d;" horiz-adv-x="1148" 
d="M902 1434h-154l-264 342h156l192 -254l278 254h174zM328 1332h956l-22 -164l-972 -1032h788l-22 -136h-958l22 162l968 1032h-784z" />
    <glyph glyph-name="zcaron" unicode="&#x17e;" horiz-adv-x="966" 
d="M746 1146h-154l-264 342h156l192 -254l278 254h176zM268 1024h780l-24 -156l-742 -740h612l-22 -128h-782l24 156l742 740h-610z" />
    <glyph glyph-name="longs" unicode="&#x17f;" horiz-adv-x="540" 
d="M702 1302h-80q-131 0 -156 -142l-204 -1160h-152l206 1172q24 134 112.5 198t205.5 64h92z" />
    <glyph glyph-name="Ohorn" unicode="&#x1a0;" horiz-adv-x="1374" 
d="M194 542q0 167 52.5 317t142 258t214.5 171.5t265 63.5q89 0 158 -20h240q66 0 107 31.5t55 116.5l12 68h134l-16 -80q-11 -69 -41.5 -120t-72.5 -78.5t-85.5 -40.5t-90.5 -13h-28q168 -159 168 -444q0 -224 -84.5 -404t-236 -282t-341.5 -102q-251 0 -401.5 151.5
t-150.5 406.5zM1256 778q0 204 -106.5 318t-297.5 114q-143 0 -258 -86.5t-179.5 -239.5t-64.5 -344q0 -195 108 -303.5t302 -108.5q221 0 358.5 179.5t137.5 470.5z" />
    <glyph glyph-name="ohorn" unicode="&#x1a1;" horiz-adv-x="1136" 
d="M168 430q0 173 69.5 315t191 222.5t269.5 80.5q83 0 164 -26h152q65 0 106 32.5t56 117.5l12 66h132l-14 -78q-12 -65 -39.5 -114.5t-66 -78t-79 -43t-85.5 -16.5q104 -123 104 -308q0 -173 -69.5 -315.5t-191 -223.5t-269.5 -81q-200 0 -321 123t-121 327zM986 602
q0 144 -78.5 225t-219.5 81q-150 0 -257 -135.5t-107 -342.5q0 -148 78.5 -229t219.5 -81q149 0 256.5 137.5t107.5 344.5z" />
    <glyph glyph-name="Uhorn" unicode="&#x1af;" horiz-adv-x="1218" 
d="M332 1332h152l-140 -792q-35 -191 53 -301.5t275 -110.5q148 0 246 92.5t128 259.5l146 852h152v-2q60 3 98 36t52 114l12 66h134l-16 -78q-11 -69 -41.5 -120t-72.5 -78.5t-85.5 -40.5t-90.5 -13h-10l-132 -752q-39 -218 -183 -349t-345 -131q-249 0 -381 158.5
t-87 411.5z" />
    <glyph glyph-name="uhorn" unicode="&#x1b0;" horiz-adv-x="1076" 
d="M328 434q-26 -145 31 -228.5t185 -83.5q132 0 220 79.5t108 216.5h2l104 598v8h140q65 0 106 32.5t56 117.5l12 66h132l-14 -78q-11 -69 -41.5 -120t-72.5 -78.5t-86.5 -40.5t-91.5 -13h-10l-158 -910h-150l26 148q-64 -79 -152 -122.5t-186 -43.5q-110 0 -190 59
t-113 159t-11 218l108 606h152z" />
    <glyph glyph-name="uni01CD" unicode="&#x1cd;" horiz-adv-x="1282" 
d="M958 1434h-154l-264 342h156l192 -254l278 254h174zM1218 0h-154l-66 356h-568l-190 -356h-174l726 1332h172zM852 1152l-352 -664h474z" />
    <glyph glyph-name="uni01CE" unicode="&#x1ce;" horiz-adv-x="1052" 
d="M798 1144h-152l-264 342h156l190 -254l278 254h176zM1062 660l-116 -660h-156l26 144q-66 -79 -156.5 -121.5t-193.5 -42.5q-144 0 -235 78t-91 202q0 139 93.5 226.5t254.5 93.5l290 8q65 3 93.5 17t38.5 51l4 20q19 106 -54 174t-202 68q-217 0 -276 -184h-160
q36 144 155 228t287 84q198 0 312 -110.5t86 -275.5zM296 276q0 -75 58.5 -120.5t155.5 -45.5q124 0 220.5 75t129.5 195l16 86l-358 -10q-109 -3 -165.5 -52t-56.5 -128z" />
    <glyph glyph-name="uni01CF" unicode="&#x1cf;" 
d="M504 1434h-152l-264 342h156l190 -254l278 254h176zM344 1332h150l-234 -1332h-152z" />
    <glyph glyph-name="uni01D0" unicode="&#x1d0;" 
d="M452 1146h-152l-264 342h156l192 -254l278 254h174zM290 1024h150l-180 -1024h-152z" />
    <glyph glyph-name="uni01D1" unicode="&#x1d1;" horiz-adv-x="1374" 
d="M1004 1434h-152l-264 342h156l192 -254l278 254h174zM194 542q0 229 87 414.5t241.5 290.5t345.5 105q240 0 390 -161t150 -419q0 -230 -82.5 -409t-233.5 -279t-346 -100q-245 0 -398.5 155.5t-153.5 402.5zM1256 778q0 204 -106 318t-298 114q-143 0 -258 -86.5
t-179.5 -239.5t-64.5 -344q0 -196 108 -304t302 -108q221 0 358.5 179.5t137.5 470.5z" />
    <glyph glyph-name="uni01D2" unicode="&#x1d2;" horiz-adv-x="1136" 
d="M814 1146h-154l-264 342h156l192 -256l278 256h174zM168 430q0 173 69.5 315t191 222.5t269.5 80.5q200 0 321 -122t121 -326q0 -173 -69.5 -315.5t-191 -223.5t-269.5 -81q-200 0 -321 123t-121 327zM986 602q0 144 -78.5 225t-219.5 81q-150 0 -257 -135.5t-107 -342.5
q0 -148 78.5 -229t219.5 -81q149 0 256.5 137.5t107.5 344.5z" />
    <glyph glyph-name="uni01D3" unicode="&#x1d3;" horiz-adv-x="1204" 
d="M932 1434h-154l-264 342h156l192 -254l278 254h174zM332 1332h152l-140 -792q-35 -191 53 -301.5t275 -110.5q148 0 246 92.5t128 259.5l146 852h152l-152 -868q-39 -218 -183 -349t-345 -131q-164 0 -280.5 71t-167 201t-20.5 296z" />
    <glyph glyph-name="uni01D4" unicode="&#x1d4;" horiz-adv-x="1060" 
d="M790 1146h-154l-264 342h156l192 -254l278 254h176zM328 434q-26 -145 31 -228.5t185 -83.5q132 0 220 79.5t108 216.5h2l106 606h148l-178 -1024h-150l26 148q-64 -79 -152 -122.5t-186 -43.5q-110 0 -190 59t-113 159t-11 218l108 606h152z" />
    <glyph glyph-name="uni01DD" unicode="&#x1dd;" horiz-adv-x="1132" 
d="M1136 596q0 -126 -37.5 -238.5t-104.5 -195.5t-166 -131.5t-216 -48.5q-152 0 -261 70.5t-153.5 188t-19.5 257.5l10 62h794v44q0 150 -79.5 228t-232.5 78q-107 0 -183 -51.5t-115 -148.5h-170q62 164 181 249t287 85q218 0 342 -119t124 -329zM604 112
q136 0 230.5 86.5t129.5 239.5h-638q-21 -144 58 -235t220 -91z" />
    <glyph glyph-name="uni01E2" unicode="&#x1e2;" horiz-adv-x="1948" 
d="M1094 1598h636l-22 -128h-634zM2092 1332l-26 -144h-746l-78 -436h692l-26 -144h-692l-82 -466h748l-24 -142h-898l62 356h-552l-238 -356h-166l880 1332h1146zM554 488h492l124 700h-150z" />
    <glyph glyph-name="uni01E3" unicode="&#x1e3;" horiz-adv-x="1834" 
d="M802 1310h634l-20 -128h-636zM1356 -18q-162 0 -273 72.5t-155 203.5q-63 -129 -183.5 -203.5t-264.5 -74.5q-150 0 -245 78t-95 202q0 139 93.5 226.5t254.5 91.5l290 10q65 3 93.5 18t38.5 52l4 18q18 103 -56 172.5t-202 69.5q-215 0 -274 -184h-160q36 144 154.5 228
t285.5 84q132 0 229.5 -53.5t138.5 -144.5q69 93 169 144.5t221 51.5q149 0 255 -70t149.5 -187.5t19.5 -258.5l-12 -60h-792v-46q0 -150 79.5 -228t232.5 -78q107 0 183 51.5t115 148.5h168q-60 -164 -178 -249t-284 -85zM1418 914q-135 0 -230.5 -86.5t-131.5 -239.5h638
q21 144 -57 235t-219 91zM296 278q0 -75 59 -120.5t155 -45.5q134 0 234 85t124 221l10 50l-360 -10q-108 -3 -165 -51.5t-57 -128.5z" />
    <glyph glyph-name="uni01F0" unicode="&#x1f0;" 
d="M452 1146h-152l-264 342h156l192 -254l278 254h174zM-104 -192h64q55 0 90.5 31t49.5 111l190 1074h150l-192 -1086q-25 -140 -105.5 -205t-186.5 -65h-86z" />
    <glyph glyph-name="AEacute" unicode="&#x1fc;" horiz-adv-x="1948" 
d="M1532 1760l-312 -326h-138l260 326h190zM2092 1332l-26 -144h-746l-78 -436h692l-26 -144h-692l-82 -466h748l-24 -142h-898l62 356h-552l-238 -356h-166l880 1332h1146zM554 488h492l124 700h-150z" />
    <glyph glyph-name="aeacute" unicode="&#x1fd;" horiz-adv-x="1834" 
d="M1434 1472l-312 -326h-136l258 326h190zM1356 -18q-162 0 -273 72.5t-155 203.5q-63 -129 -183.5 -203.5t-264.5 -74.5q-150 0 -245 78t-95 202q0 139 93.5 226.5t254.5 91.5l290 10q65 3 93.5 18t38.5 52l4 18q18 103 -56 172.5t-202 69.5q-215 0 -274 -184h-160
q36 144 154.5 228t285.5 84q132 0 229.5 -53.5t138.5 -144.5q69 93 169 144.5t221 51.5q149 0 255 -70t149.5 -187.5t19.5 -258.5l-12 -60h-792v-46q0 -150 79.5 -228t232.5 -78q107 0 183 51.5t115 148.5h168q-60 -164 -178 -249t-284 -85zM1418 914q-135 0 -230.5 -86.5
t-131.5 -239.5h638q21 144 -57 235t-219 91zM296 278q0 -75 59 -120.5t155 -45.5q134 0 234 85t124 221l10 50l-360 -10q-108 -3 -165 -51.5t-57 -128.5z" />
    <glyph glyph-name="uni0237" unicode="&#x237;" 
d="M-104 -192h64q55 0 90.5 31t49.5 111l190 1074h150l-192 -1086q-25 -140 -105.5 -205t-186.5 -65h-86z" />
    <glyph glyph-name="uni0250" unicode="&#x250;" horiz-adv-x="1052" 
d="M248 766q23 132 -4 258h152q20 -79 14 -158q68 85 162 131.5t200 46.5q144 0 235 -78t91 -202q0 -139 -93.5 -225.5t-254.5 -92.5l-288 -10q-66 -3 -95 -18t-39 -52l-4 -18q-17 -104 56 -173t200 -69q217 0 276 184h160q-36 -144 -155 -228t-287 -84q-198 0 -312 110.5
t-86 275.5zM370 606l-8 -50l358 10q108 3 165 51.5t57 128.5q0 75 -59 120.5t-155 45.5q-134 0 -234 -85t-124 -221z" />
    <glyph glyph-name="uni0251" unicode="&#x251;" horiz-adv-x="1166" 
d="M1220 136l-24 -136h-34q-97 0 -160.5 44.5t-69.5 137.5q-65 -94 -155.5 -146t-198.5 -52q-187 0 -298.5 120.5t-111.5 323.5q0 173 67 316t184.5 224.5t260.5 81.5q138 0 227.5 -67t124.5 -187l40 228h150l-132 -742q-14 -81 15.5 -113.5t92.5 -32.5h22zM324 432
q0 -149 78 -230.5t218 -81.5q150 0 258 136t108 342q0 147 -78 228.5t-218 81.5q-152 0 -259 -135t-107 -341z" />
    <glyph glyph-name="uni0252" unicode="&#x252;" horiz-adv-x="1166" 
d="M130 890l26 134h32q97 0 160.5 -44.5t69.5 -137.5q65 94 155.5 147t198.5 53q187 0 298.5 -120.5t111.5 -323.5q0 -173 -67 -316t-184.5 -225t-260.5 -83q-138 0 -227.5 67t-124.5 187l-40 -228h-150l132 744q14 81 -15.5 113.5t-92.5 32.5h-22zM1026 594q0 148 -78 229
t-218 81q-149 0 -256.5 -135.5t-107.5 -342.5q0 -147 77.5 -228.5t216.5 -81.5q152 0 259 135.5t107 342.5z" />
    <glyph glyph-name="uni0253" unicode="&#x253;" horiz-adv-x="1150" 
d="M110 0l190 1084q29 168 154.5 270t309.5 102q214 0 343 -102t129 -270h-152q0 107 -89 173.5t-237 66.5q-127 0 -209 -70.5t-103 -193.5l-40 -232q65 85 155.5 132.5t192.5 47.5q183 0 293.5 -118t110.5 -312q0 -167 -65.5 -304.5t-180.5 -216.5t-254 -79q-131 0 -224 63
t-134 177l-38 -218h-152zM1004 570q0 144 -79.5 223t-222.5 79q-123 0 -213 -78.5t-125 -211.5l-18 -100q-2 -20 -2 -62q0 -142 79 -221t223 -79q159 0 258.5 126t99.5 324z" />
    <glyph glyph-name="uni0254" unicode="&#x254;" horiz-adv-x="1118" 
d="M1128 598q0 -175 -69 -317t-190.5 -221.5t-270.5 -79.5q-194 0 -308 112.5t-114 299.5h154q0 -128 73.5 -200t206.5 -72q154 0 258 138t104 342q0 149 -78.5 229.5t-223.5 80.5q-110 0 -191 -66.5t-107 -175.5h-160q40 175 166 277.5t302 102.5q205 0 326.5 -122
t121.5 -328z" />
    <glyph glyph-name="uni0255" unicode="&#x255;" horiz-adv-x="1118" 
d="M208 -150q21 153 76 282q-116 129 -116 334q0 163 70 296.5t192.5 209.5t271.5 76q192 0 306 -108t116 -288h-154q-5 125 -78 194.5t-202 69.5q-156 0 -261 -130t-105 -324q0 -100 36 -182q82 124 191 191t235 67q132 0 213 -72.5t81 -201.5q0 -119 -123.5 -199.5
t-304.5 -80.5q-148 0 -260 62q-27 -80 -46 -196h-138zM664 110q111 0 186.5 44.5t75.5 109.5q0 75 -40.5 110.5t-111.5 35.5q-207 0 -328 -236q82 -64 218 -64z" />
    <glyph glyph-name="uni0256" unicode="&#x256;" horiz-adv-x="1166" 
d="M1158 -198l-24 -136h-38q-114 0 -179 64.5t-41 197.5l42 234q-136 -178 -340 -178q-187 0 -298.5 120.5t-111.5 323.5q0 173 67 316t184.5 224.5t260.5 81.5q136 0 225.5 -66t126.5 -184l112 634h150l-264 -1486q-14 -81 14.5 -113.5t89.5 -32.5h24zM324 432
q0 -149 78 -230.5t218 -81.5q150 0 258 136t108 342q0 147 -78 228.5t-218 81.5q-152 0 -259 -135t-107 -341z" />
    <glyph glyph-name="uni0257" unicode="&#x257;" horiz-adv-x="1166" 
d="M1424 1298h-32q-58 0 -96 -32.5t-52 -113.5l-202 -1152h-150l28 168q-63 -88 -150.5 -136t-191.5 -48q-187 0 -298.5 120.5t-111.5 323.5q0 173 67 316t184.5 224.5t260.5 81.5q136 0 225.5 -66.5t126.5 -185.5l66 374q45 262 286 262h62zM324 432q0 -149 78 -230.5
t218 -81.5q150 0 258 136t108 342q0 147 -78 228.5t-218 81.5q-152 0 -259 -135t-107 -341z" />
    <glyph glyph-name="uni0258" unicode="&#x258;" horiz-adv-x="1132" 
d="M1146 616q0 -275 -157.5 -453.5t-396.5 -178.5q-205 0 -319.5 88t-118.5 252h160q0 -99 73.5 -152.5t204.5 -53.5q145 0 246 95t136 261h-802l16 94q37 213 187.5 344.5t354.5 131.5q197 0 306.5 -113t109.5 -315zM354 596h636q0 7 1 21.5t1 22.5q0 136 -69 205t-203 69
q-136 0 -237 -87.5t-129 -230.5z" />
    <glyph glyph-name="uni0259" unicode="&#x259;" horiz-adv-x="1132" 
d="M1136 596q0 -126 -37.5 -238.5t-104.5 -195.5t-166 -131.5t-216 -48.5q-152 0 -261 70.5t-153.5 188t-19.5 257.5l10 62h794v44q0 150 -79.5 228t-232.5 78q-107 0 -183 -51.5t-115 -148.5h-170q62 164 181 249t287 85q218 0 342 -119t124 -329zM604 112
q136 0 230.5 86.5t129.5 239.5h-638q-21 -144 58 -235t220 -91z" />
    <glyph glyph-name="uni025A" unicode="&#x25a;" horiz-adv-x="1434" 
d="M1492 472l-20 -124h-38q-94 0 -144 55t-38 147l4 26l-114 -24q-20 -250 -175 -409t-383 -159q-207 0 -313.5 112t-106.5 328v54l824 150v4q0 137 -70 207.5t-206 70.5q-126 0 -216 -58t-130 -166h-158q61 177 189.5 267.5t316.5 90.5q192 0 304 -100t126 -280l174 34h78
l-18 -106q-10 -67 8.5 -93.5t77.5 -26.5h28zM324 382q0 -266 260 -266q155 0 261 106t135 286z" />
    <glyph glyph-name="uni025B" unicode="&#x25b;" horiz-adv-x="1004" 
d="M968 302q-34 -145 -154.5 -232.5t-285.5 -87.5q-180 0 -287 73.5t-107 196.5q0 88 52 158t142 106q-96 59 -96 188q0 148 117.5 246t296.5 98q183 0 286.5 -88.5t103.5 -243.5h-156q0 96 -59.5 148t-168.5 52q-121 0 -191.5 -61t-70.5 -165q0 -55 30.5 -84.5t87.5 -29.5
h222l-18 -126h-224q-85 0 -140.5 -49.5t-55.5 -126.5q0 -78 58.5 -119t167.5 -41q116 0 195.5 50.5t98.5 137.5h156z" />
    <glyph glyph-name="uni025C" unicode="&#x25c;" horiz-adv-x="1004" 
d="M452 450l22 126h224q77 0 125.5 53.5t48.5 138.5q0 71 -55 109.5t-157 38.5q-109 0 -177.5 -49t-102.5 -153h-156q36 162 155 248t285 86q167 0 266.5 -75.5t99.5 -204.5q0 -86 -46.5 -152.5t-127.5 -103.5q114 -60 114 -202q0 -143 -124 -235.5t-318 -92.5
q-178 0 -282 86.5t-104 233.5h156q0 -88 61.5 -138t168.5 -50q135 0 210.5 56t75.5 156q0 60 -35.5 92t-102.5 32h-224z" />
    <glyph glyph-name="uni025D" unicode="&#x25d;" horiz-adv-x="1240" 
d="M1286 472l-22 -124h-38q-93 0 -143 55.5t-37 146.5l2 26l-130 -26q-30 -24 -62 -38q114 -60 114 -202q0 -143 -124 -235.5t-318 -92.5q-178 0 -282 86.5t-104 233.5h156q0 -88 61.5 -138t168.5 -50q135 0 210.5 56t75.5 156q0 60 -35.5 92t-102.5 32h-224l22 126h224
q77 0 125.5 53.5t48.5 138.5q0 71 -55 109.5t-157 38.5q-109 0 -177.5 -49t-102.5 -153h-156q36 162 155 248t285 86q167 0 266.5 -75.5t99.5 -204.5q0 -45 -16 -90l98 20h78l-18 -106q-12 -67 6.5 -93.5t77.5 -26.5h30z" />
    <glyph glyph-name="uni025E" unicode="&#x25e;" horiz-adv-x="1048" 
d="M904 514q110 -63 110 -206q0 -141 -115 -233.5t-289 -92.5q-199 0 -319.5 121.5t-120.5 322.5q0 171 75 313.5t206.5 225.5t288.5 83q152 0 243 -74t91 -200q0 -85 -46 -155t-124 -105zM326 408q0 -140 72.5 -215t207.5 -75q117 0 185.5 56.5t68.5 153.5q0 59 -36.5 90.5
t-103.5 31.5h-168l22 126h168q76 0 124 55t48 141q0 68 -46.5 105t-131.5 37q-179 0 -294.5 -143t-115.5 -363z" />
    <glyph glyph-name="uni025F" unicode="&#x25f;" horiz-adv-x="660" 
d="M20 -278h80q64 0 104 31.5t54 110.5l24 136h-214l24 132h214l156 892h150l-156 -892h162l-24 -132h-162l-26 -148q-24 -134 -112.5 -198t-205.5 -64h-92z" />
    <glyph glyph-name="uni0260" unicode="&#x260;" horiz-adv-x="1150" 
d="M1422 1298h-30q-59 0 -96.5 -32t-51.5 -114l-210 -1208q-27 -159 -154 -256.5t-312 -97.5q-214 0 -342 101t-128 267h154q0 -105 91 -170.5t241 -65.5q125 0 203.5 63.5t98.5 176.5l40 234q-66 -85 -155 -132.5t-191 -47.5q-183 0 -293.5 118t-110.5 312
q0 167 65.5 304.5t180.5 216.5t254 79q131 0 224 -63t134 -177l64 366q15 92 60.5 152.5t102 85t123.5 24.5h62zM330 454q0 -144 79.5 -223t222.5 -79q122 0 212 77t126 209l18 108q2 18 2 58q0 142 -79 221t-223 79q-159 0 -258.5 -125t-99.5 -325z" />
    <glyph glyph-name="uni0261" unicode="&#x261;" horiz-adv-x="1150" 
d="M1224 1024l-190 -1088q-27 -156 -149.5 -251t-302.5 -95q-218 0 -350 101t-132 267h154q0 -104 92 -170t242 -66q123 0 201.5 63.5t96.5 174.5l42 236q-67 -86 -156.5 -133t-191.5 -47q-183 0 -293.5 118t-110.5 312q0 167 65.5 304.5t180.5 216.5t254 79q131 0 224 -63
t134 -177l38 218h152zM330 454q0 -144 79.5 -223t222.5 -79q123 0 212.5 77t125.5 211l18 104q2 20 2 60q0 142 -79 221t-223 79q-159 0 -258.5 -125t-99.5 -325z" />
    <glyph glyph-name="uni0262" unicode="&#x262;" horiz-adv-x="1118" 
d="M186 424q0 178 68.5 320.5t193 223t282.5 80.5q195 0 310.5 -102.5t115.5 -275.5h-156q0 115 -73.5 179.5t-204.5 64.5q-166 0 -272 -140.5t-106 -359.5q0 -139 73 -218.5t201 -79.5q115 0 200 77t124 217h-282l20 120h460l-102 -530h-108l24 194q-65 -103 -158.5 -158.5
t-203.5 -55.5q-182 0 -294 122.5t-112 321.5z" />
    <glyph glyph-name="uni0263" unicode="&#x263;" horiz-adv-x="1106" 
d="M318 -72l158 236l-228 860h156l190 -766l452 766h174l-532 -862l74 -234q14 -49 14 -86q0 -105 -79.5 -175.5t-196.5 -70.5q-104 0 -170 52t-66 136q0 68 54 144zM622 -108l-56 182l-116 -182q-30 -48 -30 -84q0 -35 23.5 -53.5t66.5 -18.5q51 0 85.5 32t34.5 80
q0 23 -8 44z" />
    <glyph glyph-name="uni0264" unicode="&#x264;" horiz-adv-x="920" 
d="M320 310l106 134l-178 580h158l142 -488l312 488h172l-390 -582l62 -132q26 -55 26 -108q0 -90 -76.5 -156t-181.5 -66q-99 0 -159.5 47.5t-60.5 124.5q0 69 68 158zM562 274l-44 90l-70 -90q-40 -52 -40 -96q0 -60 70 -60q42 0 69 27t27 71q0 31 -12 58z" />
    <glyph glyph-name="uni0265" unicode="&#x265;" horiz-adv-x="1074" 
d="M334 434q-25 -144 35.5 -228t188.5 -84q133 0 223 79.5t111 216.5l104 606h152l-234 -1358h-152l84 486q-65 -80 -155.5 -125t-188.5 -45q-109 0 -190.5 59.5t-117 160t-14.5 216.5l108 606h150z" />
    <glyph glyph-name="uni0266" unicode="&#x266;" horiz-adv-x="1076" 
d="M110 0l190 1084q29 168 157 270t317 102q194 0 312 -101.5t118 -266.5h-154q0 105 -78.5 170.5t-207.5 65.5q-130 0 -213.5 -70.5t-104.5 -193.5l-34 -190q67 80 157.5 125t188.5 45q109 0 191 -60t118 -161t15 -217l-108 -602h-150l104 586q25 144 -36 228t-190 84
q-124 0 -211.5 -69t-116.5 -189l-112 -640h-152z" />
    <glyph glyph-name="uni0267" unicode="&#x267;" horiz-adv-x="1076" 
d="M110 0l190 1084q29 168 157 270t317 102q194 0 312 -101.5t118 -266.5h-154q0 105 -78.5 170.5t-207.5 65.5q-130 0 -213.5 -70.5t-104.5 -193.5l-34 -198q66 82 157 130t189 48q183 0 271 -105.5t55 -288.5l-126 -704q-24 -145 -106.5 -225.5t-207.5 -80.5h-144l26 138
h100q80 0 124 42.5t60 137.5l118 660q23 140 -29.5 212t-176.5 72q-126 0 -224 -72.5t-124 -183.5l-112 -642h-152z" />
    <glyph glyph-name="uni0268" unicode="&#x268;" horiz-adv-x="448" 
d="M372 1336h178l-30 -168h-178zM330 1024h150l-70 -392h150l-22 -132h-150l-88 -500h-150l88 500h-150l24 132h150z" />
    <glyph glyph-name="uni0269" unicode="&#x269;" horiz-adv-x="498" 
d="M472 136l-24 -136h-92q-106 0 -165 63.5t-37 198.5l136 762h150l-130 -742q-14 -82 8 -114t74 -32h80z" />
    <glyph glyph-name="uni026A" unicode="&#x26a;" horiz-adv-x="716" 
d="M828 1024l-24 -138h-214l-132 -746h214l-24 -140h-580l26 140h214l130 746h-214l26 138h578z" />
    <glyph glyph-name="uni026B" unicode="&#x26b;" horiz-adv-x="628" 
d="M348 878q29 0 48 -8l100 564h150l-124 -696q21 -14 38 -14q40 0 71 38.5t43 103.5h108q-21 -121 -85 -192.5t-153 -71.5q-26 0 -44 6l-108 -608h-150l130 734q-19 22 -40 22q-40 0 -70 -39.5t-42 -106.5h-112q23 126 86 197t154 71z" />
    <glyph glyph-name="uni026C" unicode="&#x26c;" horiz-adv-x="628" 
d="M514 1434h148l-134 -766h220l-20 -114h-220l-98 -554h-150l98 554h-2q-107 0 -165.5 50.5t-58.5 141.5q0 114 73 185t191 71h40zM368 668h10l38 218h-10q-148 0 -148 -136q0 -82 110 -82z" />
    <glyph glyph-name="uni026D" unicode="&#x26d;" horiz-adv-x="488" 
d="M386 -198l-24 -136h-40q-55 0 -99.5 14.5t-78.5 44t-47 82t-1 121.5l266 1506h152l-262 -1486q-15 -81 14 -113.5t92 -32.5h28z" />
    <glyph glyph-name="uni026E" unicode="&#x26e;" horiz-adv-x="1144" 
d="M768 442q157 -13 237.5 -109t80.5 -269q0 -208 -145.5 -341t-378.5 -133q-196 0 -312 85t-116 229h154q1 -85 73 -131.5t201 -46.5q165 0 265.5 97.5t100.5 256.5q0 117 -66 179.5t-192 62.5h-94l22 130l384 434l-566 2l-156 -888h-152l252 1434h152l-72 -410h750
l-20 -138z" />
    <glyph glyph-name="uni026F" unicode="&#x26f;" horiz-adv-x="1704" 
d="M320 406q-27 -144 27.5 -213t168.5 -69q108 0 200.5 74.5t119.5 185.5v4l118 636h150l-114 -616q-26 -146 29.5 -218t178.5 -72q107 0 192.5 63.5t115.5 168.5l118 674h152l-180 -1024h-152l24 138q-66 -76 -156.5 -118t-179.5 -42q-112 0 -191 61t-103 167
q-65 -104 -167.5 -164t-206.5 -60q-155 0 -242.5 112t-55.5 292l116 638h150z" />
    <glyph glyph-name="uni0270" unicode="&#x270;" horiz-adv-x="1704" 
d="M320 406q-27 -144 27.5 -213t168.5 -69q108 0 200.5 74.5t119.5 185.5v4l118 636h150l-114 -616q-26 -146 29.5 -218t178.5 -72q105 0 190.5 62.5t115.5 165.5l120 678h152l-240 -1358h-152l84 470q-66 -75 -156.5 -116.5t-179.5 -41.5q-112 0 -191 61t-103 167
q-65 -104 -167.5 -164t-206.5 -60q-75 0 -137.5 28.5t-104 81t-57.5 127.5t1 167l116 638h150z" />
    <glyph glyph-name="uni0271" unicode="&#x271;" horiz-adv-x="1704" 
d="M290 1024h152l-24 -138q66 76 156.5 118t179.5 42q113 0 193.5 -63.5t102.5 -172.5q61 102 159 164t205 62q171 0 253.5 -106.5t52.5 -289.5l-128 -700q-26 -145 -107 -224.5t-205 -79.5h-138l24 138h98q78 0 121 42.5t61 137.5l118 654q22 139 -26 211.5t-160 72.5
q-118 0 -210 -71.5t-118 -182.5v-2l-118 -636h-150l114 618q26 144 -30 216t-178 72q-107 0 -192.5 -63.5t-115.5 -168.5l-118 -674h-152z" />
    <glyph glyph-name="uni0272" unicode="&#x272;" horiz-adv-x="1076" 
d="M-108 -214h64q56 0 91 31t49 111l194 1096h150l-24 -146q65 80 154 124t186 44q169 0 265 -126t63 -308l-110 -612h-150l106 590q25 144 -37 228t-191 84q-127 0 -216 -74t-116 -202l-124 -710q-12 -70 -40 -122.5t-67 -82t-82.5 -43.5t-92.5 -14h-96z" />
    <glyph glyph-name="uni0273" unicode="&#x273;" horiz-adv-x="1076" 
d="M290 1024h150l-24 -136q67 77 156.5 118.5t177.5 41.5q184 0 277.5 -104.5t56.5 -291.5l-124 -704q-14 -81 12 -113.5t84 -32.5h24l-24 -136h-32q-109 0 -173.5 71t-42.5 191l122 692q25 145 -35 214.5t-191 69.5q-122 0 -216.5 -76t-115.5 -194l-112 -634h-152z" />
    <glyph glyph-name="uni0274" unicode="&#x274;" horiz-adv-x="1088" 
d="M1008 1024h150l-180 -1024h-164l-408 834l-146 -834h-152l182 1024h190l388 -800z" />
    <glyph glyph-name="uni0275" unicode="&#x275;" horiz-adv-x="1136" 
d="M168 430q0 173 69.5 315t191 222.5t269.5 80.5q200 0 321 -122t121 -326q0 -173 -69.5 -315.5t-191 -223.5t-269.5 -81q-200 0 -321 123t-121 327zM992 602q0 147 -80 229.5t-224 82.5q-124 0 -222 -93t-132 -245h658v26zM318 430q0 -151 80 -233.5t224 -82.5
q122 0 220 94t134 248h-658v-26z" />
    <glyph glyph-name="uni0276" unicode="&#x276;" horiz-adv-x="1710" 
d="M168 430q0 173 67 315t185 222.5t262 80.5q123 0 215 -60.5t139 -169.5l36 206h746l-22 -132h-592l-54 -314h534l-22 -126h-536l-54 -316h590l-24 -136h-746l24 134q-138 -154 -330 -154q-189 0 -303.5 123t-114.5 327zM986 602q0 144 -78.5 225t-219.5 81
q-150 0 -257 -135.5t-107 -342.5q0 -148 78.5 -229t219.5 -81q149 0 256.5 137.5t107.5 344.5z" />
    <glyph glyph-name="uni0277" unicode="&#x277;" horiz-adv-x="1440" 
d="M762 178q-57 -98 -137.5 -150t-174.5 -52q-138 0 -217 95.5t-79 262.5q0 149 55.5 281t152 226.5t232.5 149.5t292 55q255 0 405.5 -138t150.5 -372q0 -151 -58 -280.5t-157 -204.5t-215 -75q-97 0 -161.5 52t-88.5 150zM888 902q-257 0 -417.5 -159.5t-160.5 -414.5
q0 -100 40.5 -152t117.5 -52q92 0 156.5 58t91.5 164l50 276h126l-46 -254q-17 -110 26.5 -176t131.5 -66q122 0 202 119.5t80 300.5q0 171 -103.5 263.5t-294.5 92.5z" />
    <glyph glyph-name="uni0278" unicode="&#x278;" horiz-adv-x="1136" 
d="M168 430q0 173 69.5 315t190.5 222.5t268 80.5l68 386h110l-70 -396q156 -32 246 -148t90 -290q0 -261 -150 -438t-372 -182l-54 -314h-112l58 324q-158 30 -250 147t-92 293zM318 430q0 -125 56 -203t160 -101l138 784q-148 -8 -251 -143t-103 -337zM992 602
q0 120 -55 198t-157 102l-138 -784q146 11 248 147t102 337z" />
    <glyph glyph-name="uni0279" unicode="&#x279;" horiz-adv-x="666" 
d="M96 138h44q123 0 220 75t118 191l110 620h150l-180 -1024h-150l26 156q-63 -82 -150 -129t-170 -47h-46z" />
    <glyph glyph-name="uni027A" unicode="&#x27a;" horiz-adv-x="666" 
d="M96 138h44q123 0 220 75t118 191l182 1030h150l-252 -1434h-150l26 156q-63 -82 -150 -129t-170 -47h-46z" />
    <glyph glyph-name="uni027B" unicode="&#x27b;" horiz-adv-x="666" 
d="M96 138h44q123 0 220 75t118 191l110 620h150l-190 -1076q-14 -81 15.5 -113.5t92.5 -32.5h28l-24 -136h-40q-55 0 -99.5 14.5t-78.5 44t-47 82t-1 121.5l40 228q-63 -82 -150 -129t-170 -47h-46z" />
    <glyph glyph-name="uni027C" unicode="&#x27c;" horiz-adv-x="666" 
d="M288 1024h152l-26 -154q63 82 149 128t169 46h46l-28 -158h-44q-124 0 -220.5 -75t-115.5 -191l-170 -954h-150z" />
    <glyph glyph-name="uni027D" unicode="&#x27d;" horiz-adv-x="666" 
d="M386 -198l-24 -136h-42q-54 0 -98.5 14.5t-78 44t-46.5 82t-1 121.5l192 1096h152l-26 -154q63 82 149 128t169 46h46l-28 -158h-44q-124 0 -220.5 -75t-115.5 -191l-120 -672q-14 -81 14.5 -113.5t91.5 -32.5h30z" />
    <glyph glyph-name="uni027E" unicode="&#x27e;" horiz-adv-x="510" 
d="M600 888h-28q-76 0 -121.5 -36t-62.5 -132l-128 -720h-152l130 734q14 77 48.5 134.5t82.5 90.5t102 49t113 16h40z" />
    <glyph glyph-name="uni027F" unicode="&#x27f;" horiz-adv-x="476" 
d="M190 888l24 136h72q53 0 95.5 -14.5t75 -47t43.5 -84.5t0 -126l-192 -1086h-150l188 1070q15 84 -11 118t-85 34h-60z" />
    <glyph glyph-name="uni0280" unicode="&#x280;" horiz-adv-x="1050" 
d="M600 380h-272l-68 -380h-152l180 1024h492q145 0 229.5 -71.5t84.5 -194.5q0 -121 -72.5 -209t-191.5 -117q78 -18 113 -71.5t35 -150.5v-210h-150v188q0 102 -53.5 147t-174.5 45zM764 892h-346l-66 -380h344q110 0 175 62.5t65 167.5q0 72 -44.5 111t-127.5 39z" />
    <glyph glyph-name="uni0281" unicode="&#x281;" horiz-adv-x="1050" 
d="M646 644q131 0 201.5 51.5t104.5 172.5l46 156h148l-50 -174q-36 -121 -94.5 -184t-155.5 -82q84 -27 131 -92t47 -158q0 -141 -110.5 -237.5t-269.5 -96.5h-536l182 1024h150l-66 -380h272zM630 132q105 0 172.5 63.5t67.5 162.5q0 74 -45 114t-129 40h-346l-66 -380
h346z" />
    <glyph glyph-name="uni0282" unicode="&#x282;" horiz-adv-x="1028" 
d="M362 -214l-22 -132h-36q-128 0 -189 66.5t-43 189.5l76 422h150q0 -110 75.5 -169t214.5 -59q118 0 185 44.5t67 123.5q0 60 -42.5 98t-135.5 60l-158 36q-142 33 -209 97.5t-67 168.5q0 146 108 231t292 85q189 0 297 -93.5t113 -260.5h-148q0 111 -69 168.5t-201 57.5
q-111 0 -176.5 -46.5t-65.5 -127.5q0 -56 40 -89t130 -51l164 -34q278 -56 278 -278q0 -150 -101.5 -233t-282.5 -83q-123 0 -210.5 46t-129.5 132l-44 -228q-15 -73 12 -107.5t96 -34.5h32z" />
    <glyph glyph-name="uni0283" unicode="&#x283;" horiz-adv-x="608" 
d="M320 -44q-28 -155 -120 -228.5t-210 -73.5h-86l24 138h62q71 0 117.5 39t64.5 139l212 1202q24 134 112.5 198t205.5 64h92l-24 -132h-80q-65 0 -104.5 -31t-53.5 -111z" />
    <glyph glyph-name="uni0284" unicode="&#x284;" horiz-adv-x="658" 
d="M66 0l22 132h164l182 1040q24 134 112.5 198t205.5 64h92l-22 -132h-80q-65 0 -105.5 -31t-54.5 -111l-180 -1028h214l-24 -132h-214l-14 -82q-24 -134 -113.5 -199t-204.5 -65h-76l24 136h64q64 0 104 30.5t54 109.5l12 70h-162z" />
    <glyph glyph-name="uni0285" unicode="&#x285;" horiz-adv-x="688" 
d="M222 892l24 132h92q55 0 99.5 -14.5t78.5 -44t47 -82t1 -121.5l-146 -828q-14 -79 14 -110.5t92 -31.5h64l-24 -138h-76q-116 0 -181 66t-41 202l146 828q14 80 -15.5 111t-94.5 31h-80z" />
    <glyph glyph-name="uni0286" unicode="&#x286;" horiz-adv-x="914" 
d="M116 -88q0 -57 39 -88.5t111 -31.5q95 0 147 54.5t73 177.5l10 50q-72 36 -168 36q-92 0 -152 -56.5t-60 -141.5zM828 -410h-148q0 226 -60 352q-42 -140 -133 -214t-223 -74q-140 0 -220 68t-80 186q0 141 107 239.5t261 98.5q101 0 188 -34l170 960q20 123 99.5 192.5
t200.5 69.5h108l-22 -132h-80q-69 0 -106 -33.5t-52 -108.5l-182 -1034q172 -169 172 -536z" />
    <glyph glyph-name="uni0287" unicode="&#x287;" horiz-adv-x="660" 
d="M594 0h-188l-48 -266h-150l48 266h-188l24 132h186l108 610q14 82 -8 114t-74 32h-80l24 136h94q105 0 163.5 -64t34.5 -198l-112 -630h190z" />
    <glyph glyph-name="uni0288" unicode="&#x288;" horiz-adv-x="660" 
d="M560 -198l-24 -136h-94q-105 0 -164.5 64t-35.5 198l170 964h-186l22 132h188l46 266h150l-46 -266h190l-24 -132h-190l-166 -944q-14 -82 8.5 -114t75.5 -32h80z" />
    <glyph glyph-name="uni0289" unicode="&#x289;" horiz-adv-x="1060" 
d="M108 618h102l72 406h152l-74 -406h548l72 406h148l-70 -406h110l-22 -126h-110l-86 -492h-150l26 148q-64 -79 -152 -122.5t-186 -43.5q-110 0 -190 59t-113 159t-11 218l12 74h-100zM328 434q-26 -145 31 -228.5t185 -83.5q132 0 220 79.5t108 216.5h2l12 74h-548z" />
    <glyph glyph-name="uni028A" unicode="&#x28a;" horiz-adv-x="1150" 
d="M598 -20q-201 0 -318.5 107.5t-119.5 292.5q0 156 85.5 292.5t226.5 215.5h-226l22 136h410l-22 -136q-143 -48 -237.5 -190t-94.5 -310q0 -127 72 -195.5t204 -68.5q177 0 287.5 125t110.5 325q0 115 -49 198t-137 116l24 136h408l-22 -136h-236q80 -57 124 -147.5
t44 -200.5q0 -154 -73.5 -282.5t-201.5 -203t-281 -74.5z" />
    <glyph glyph-name="uni028B" unicode="&#x28b;" horiz-adv-x="1076" 
d="M288 1024h152l-110 -620q-22 -129 36 -201.5t184 -72.5q174 0 284 153.5t110 392.5q0 108 -46.5 160t-143.5 52h-42l24 136h58q144 0 223 -94.5t79 -267.5q0 -189 -72 -344.5t-197.5 -244.5t-278.5 -89q-200 0 -302 116.5t-66 303.5z" />
    <glyph glyph-name="uni028C" unicode="&#x28c;" horiz-adv-x="1106" 
d="M1040 0h-154l-174 854l-468 -854h-176l580 1024h172z" />
    <glyph glyph-name="uni028D" unicode="&#x28d;" horiz-adv-x="1586" 
d="M1520 0h-156l-68 840l-404 -840h-174l-98 840l-380 -840h-172l496 1024h164l100 -846l404 846h170z" />
    <glyph glyph-name="uni028E" unicode="&#x28e;" horiz-adv-x="1114" 
d="M1216 1290h-90q-90 0 -146.5 -48t-123.5 -170l-30 -58l220 -1014h-152l-182 840l-466 -840h-178l614 1088q106 189 198.5 267.5t219.5 78.5h142z" />
    <glyph glyph-name="uni028F" unicode="&#x28f;" horiz-adv-x="1048" 
d="M504 328l-254 696h160l186 -532l376 532h190l-508 -696l-58 -328h-150z" />
    <glyph glyph-name="uni0290" unicode="&#x290;" horiz-adv-x="966" 
d="M1004 -214l-24 -132h-42q-115 0 -181.5 62.5t-44.5 193.5l16 90h-636l26 156l742 740h-610l22 128h784l-28 -156l-744 -740h614l-22 -128l-14 -72q-14 -80 15.5 -111t92.5 -31h34z" />
    <glyph glyph-name="uni0291" unicode="&#x291;" horiz-adv-x="1164" 
d="M450 -202q19 115 50 202h-408l26 156l740 740h-608l22 128h784l-28 -156l-738 -740h262q74 153 182.5 238.5t231.5 85.5q108 0 175 -59.5t67 -154.5q0 -102 -79 -170t-197 -68h-294q-27 -82 -50 -202h-138zM956 328q-157 0 -262 -200h240q58 0 95 32.5t37 83.5
q0 38 -29.5 61t-80.5 23z" />
    <glyph glyph-name="uni0292" unicode="&#x292;" horiz-adv-x="1086" 
d="M708 442q156 -14 237 -110t81 -268q0 -208 -144 -341t-374 -133q-199 0 -316.5 101.5t-117.5 274.5h154q0 -112 74 -174t208 -62q161 0 259.5 96.5t98.5 253.5q0 117 -66.5 179.5t-191.5 62.5h-94l20 130l430 434l-718 2l22 136h910l-20 -138z" />
    <glyph glyph-name="uni0293" unicode="&#x293;" horiz-adv-x="1086" 
d="M422 24q-79 0 -137.5 -40t-58.5 -104q0 -75 71 -116.5t199 -41.5q183 0 286 116q-64 97 -151 141.5t-209 44.5zM708 456q156 -15 237 -114.5t81 -277.5q0 -146 -76 -260q42 -90 70 -214h-132q-18 60 -36 108q-143 -108 -350 -108q-198 0 -315 78.5t-117 211.5
q0 116 101 195t235 79q279 0 444 -192q18 54 18 118q0 125 -67.5 191.5t-194.5 66.5h-94l22 130l430 418l-716 2l22 136h910l-20 -138z" />
    <glyph glyph-name="uni0294" unicode="&#x294;" horiz-adv-x="1082" 
d="M702 460l-82 -460h-150l96 548q218 81 338 222.5t120 317.5q0 110 -66.5 169t-189.5 59q-128 0 -221 -81t-123 -217h-156q45 204 179 320t319 116q186 0 301 -103.5t115 -268.5q0 -189 -128.5 -355t-351.5 -267z" />
    <glyph glyph-name="uni0295" unicode="&#x295;" horiz-adv-x="1082" 
d="M546 460q-288 173 -288 478q0 223 143 369.5t363 146.5q207 0 318 -118.5t90 -317.5h-154q14 134 -54 216t-204 82q-156 0 -250 -106t-94 -282q0 -256 296 -380l-98 -548h-150z" />
    <glyph glyph-name="uni0296" unicode="&#x296;" horiz-adv-x="1082" 
d="M780 974q288 -173 288 -478q0 -223 -143 -369.5t-363 -146.5q-207 0 -318 118.5t-90 317.5h156q-15 -135 52 -216.5t204 -81.5q156 0 251 106.5t95 281.5q0 254 -296 380l96 548h150z" />
    <glyph glyph-name="uni0297" unicode="&#x297;" horiz-adv-x="1124" 
d="M144 224q0 233 76.5 422t210.5 295.5t299 106.5q182 0 289 -117.5t107 -310.5h-154q0 134 -67.5 211t-188.5 77q-116 0 -211.5 -89.5t-150 -247t-54.5 -349.5q0 -239 80 -366.5t230 -127.5q114 0 198.5 75.5t111.5 198.5h160q-42 -191 -171.5 -301.5t-310.5 -110.5
q-207 0 -330.5 172.5t-123.5 461.5z" />
    <glyph glyph-name="uni0298" unicode="&#x298;" horiz-adv-x="1280" 
d="M186 484q0 244 87 442.5t240.5 312t342.5 113.5q225 0 346.5 -133.5t121.5 -382.5q0 -247 -84 -441.5t-235 -302.5t-343 -108q-230 0 -353 129.5t-123 370.5zM1172 854q0 362 -318 362q-149 0 -267 -95t-183.5 -266t-65.5 -387q0 -348 324 -348q231 0 370.5 200.5
t139.5 533.5zM694 736h158l-30 -164h-158z" />
    <glyph glyph-name="uni0299" unicode="&#x299;" horiz-adv-x="1058" 
d="M888 516q136 -66 136 -214q0 -127 -97.5 -214.5t-240.5 -87.5h-578l180 1024h522q126 0 201 -67t75 -179q0 -91 -51.5 -159t-146.5 -103zM738 576q84 0 135 53t51 141q0 61 -36 93.5t-104 32.5h-360l-56 -320h370zM656 128q97 0 154.5 53t57.5 143q0 62 -39.5 95
t-112.5 33h-370l-56 -324h366z" />
    <glyph glyph-name="uni029A" unicode="&#x29a;" horiz-adv-x="1048" 
d="M330 516q-110 63 -110 206q0 141 113.5 233.5t286.5 92.5q202 0 323 -126t121 -336q0 -165 -75 -303.5t-206.5 -219.5t-288.5 -81q-152 0 -242 74.5t-90 201.5q0 84 45 154t123 104zM910 604q0 148 -73.5 228t-208.5 80q-117 0 -185.5 -56.5t-68.5 -153.5q0 -58 36.5 -89
t105.5 -31h168l-22 -128h-168q-78 0 -126 -54.5t-48 -141.5q0 -67 46 -103.5t132 -36.5q179 0 295.5 137t116.5 349z" />
    <glyph glyph-name="uni029B" unicode="&#x29b;" horiz-adv-x="1118" 
d="M186 424q0 178 66.5 320.5t186 223t271.5 80.5q114 0 199 -47.5t131 -132.5l34 192q12 72 42.5 126t73 85t89.5 46t99 15h38l-24 -138h-26q-63 0 -102.5 -33t-53.5 -117l-66 -372h-150q0 114 -72 178t-200 64q-166 0 -272 -140.5t-106 -359.5q0 -139 73 -218.5t201 -79.5
q115 0 200 77t124 217h-282l20 120h460l-102 -530h-108l24 194q-65 -103 -158.5 -158.5t-203.5 -55.5q-182 0 -294 122.5t-112 321.5z" />
    <glyph glyph-name="uni029C" unicode="&#x29c;" horiz-adv-x="1088" 
d="M290 1024h150l-76 -440h568l76 440h150l-180 -1024h-150l78 444h-568l-78 -444h-152z" />
    <glyph glyph-name="uni029D" unicode="&#x29d;" horiz-adv-x="544" 
d="M506 1336h178l-28 -168h-178zM422 -76q-21 -126 -98 -198t-194 -72q-121 0 -188.5 60t-67.5 168q0 130 99.5 217t246.5 87h98l148 838h150l-148 -838h124l-24 -130h-122zM128 -210q63 0 97.5 35t48.5 111l22 120h-72q-90 0 -146 -47.5t-56 -122.5q0 -46 27.5 -71
t78.5 -25z" />
    <glyph glyph-name="uni029E" unicode="&#x29e;" horiz-adv-x="1008" 
d="M296 0h-216l528 502l-372 522h176l310 -424l160 144l50 280h150l-240 -1358h-150l154 868z" />
    <glyph glyph-name="uni029F" unicode="&#x29f;" horiz-adv-x="796" 
d="M726 0h-618l182 1024h150l-154 -882h466z" />
    <glyph glyph-name="uni02A0" unicode="&#x2a0;" horiz-adv-x="1166" 
d="M1424 1298h-32q-58 0 -96 -32.5t-52 -113.5l-258 -1486h-150l88 504q-64 -89 -152.5 -137.5t-193.5 -48.5q-187 0 -298.5 120.5t-111.5 323.5q0 173 67 316t184.5 224.5t260.5 81.5q138 0 227.5 -67t124.5 -187l66 376q46 262 286 262h62zM324 432q0 -149 78 -230.5
t218 -81.5q150 0 258 136t108 342q0 147 -78 228.5t-218 81.5q-152 0 -259 -135t-107 -341z" />
    <glyph glyph-name="uni02A1" unicode="&#x2a1;" horiz-adv-x="1082" 
d="M238 378h298l30 170q218 81 338 222.5t120 317.5q0 110 -66.5 169t-189.5 59q-128 0 -221 -81t-123 -217h-156q45 204 179 320t319 116q186 0 301 -103.5t115 -268.5q0 -186 -128.5 -349.5t-351.5 -262.5l-16 -92h298l-22 -124h-298l-44 -254h-150l44 254h-298z" />
    <glyph glyph-name="uni02A2" unicode="&#x2a2;" horiz-adv-x="1082" 
d="M238 378h292l16 94q-288 173 -288 472q0 221 143 365.5t363 144.5q207 0 318 -118.5t90 -317.5h-154q14 134 -54 216t-204 82q-156 0 -250 -106t-94 -282q0 -256 296 -380l-30 -170h302l-22 -124h-304l-44 -254h-150l44 254h-292z" />
    <glyph glyph-name="uni02A3" unicode="&#x2a3;" horiz-adv-x="2008" 
d="M1296 1434l-72 -410h872l-26 -156l-744 -740h614l-24 -128h-784l28 156l742 740h-700l-158 -896h-152l30 168q-136 -184 -344 -184q-187 0 -298.5 120.5t-111.5 323.5q0 173 67 316t184.5 224.5t260.5 81.5q136 0 225.5 -66.5t126.5 -185.5l112 636h152zM324 432
q0 -149 78 -230.5t218 -81.5q150 0 258 136t108 342q0 147 -78 228.5t-218 81.5q-152 0 -259 -135t-107 -341z" />
    <glyph glyph-name="uni02A4" unicode="&#x2a4;" horiz-adv-x="1942" 
d="M1144 1434h152l-72 -410h750l-20 -138l-402 -444q157 -13 237.5 -109t80.5 -269q0 -208 -145.5 -341t-378.5 -133q-196 0 -312 85t-116 229h154q0 -85 72 -131.5t202 -46.5q165 0 265.5 97.5t100.5 256.5q0 117 -66 179.5t-192 62.5h-94l20 130l384 434l-564 2l-156 -888
h-152l30 168q-136 -184 -344 -184q-187 0 -298.5 120.5t-111.5 323.5q0 173 67 316t184.5 224.5t260.5 81.5q136 0 225.5 -66.5t126.5 -185.5zM324 432q0 -149 78 -230.5t218 -81.5q150 0 258 136t108 342q0 147 -78 228.5t-218 81.5q-152 0 -259 -135t-107 -341z" />
    <glyph glyph-name="uni02A5" unicode="&#x2a5;" horiz-adv-x="2094" 
d="M1490 -202q19 115 50 202h-408l26 156l740 740h-696l-158 -896h-152l30 168q-136 -184 -344 -184q-187 0 -298.5 120.5t-111.5 323.5q0 173 67 316t184.5 224.5t260.5 81.5q136 0 225.5 -66.5t126.5 -185.5l112 636h152l-72 -410h872l-28 -156l-738 -740h262
q74 153 182.5 238.5t231.5 85.5q108 0 175 -59.5t67 -154.5q0 -102 -79 -170t-197 -68h-294q-27 -82 -50 -202h-138zM324 432q0 -149 78 -230.5t218 -81.5q150 0 258 136t108 342q0 147 -78 228.5t-218 81.5q-152 0 -259 -135t-107 -341zM1996 326q-157 3 -262 -198h240
q58 0 95 32.5t37 83.5q0 38 -30 60.5t-80 21.5z" />
    <glyph glyph-name="uni02A6" unicode="&#x2a6;" horiz-adv-x="1566" 
d="M1202 438l-160 22q-142 21 -211 83.5t-69 170.5q0 147 118 238.5t310 91.5q190 0 292 -84t102 -242h-150q0 104 -61 152t-191 48q-118 0 -192 -53t-74 -137q0 -54 40 -83t132 -41l164 -20q143 -21 212.5 -87.5t69.5 -180.5q0 -142 -104.5 -229t-275.5 -87h-572
q-65 0 -117.5 15t-94.5 48.5t-58.5 96.5t-1.5 150l104 582h-188l22 132h188l48 266h150l-48 -266h188l-22 -132h-188l-100 -564q-16 -92 13 -140t125 -48h532q115 0 180.5 44.5t65.5 121.5q0 109 -178 132z" />
    <glyph glyph-name="uni02A7" unicode="&#x2a7;" horiz-adv-x="1154" 
d="M868 -48q-13 -79 -44.5 -138.5t-74 -93.5t-90 -50t-99.5 -16h-110l26 138h62q71 0 117 38.5t63 135.5l6 34h-216q-110 0 -170.5 64t-35.5 198l110 630h-186l22 132h188l46 266h150l-46 -266h318l26 148q15 91 62 152t105.5 85.5t126.5 24.5h118l-24 -132h-80
q-65 0 -104.5 -31t-53.5 -111zM538 136h210l134 756h-320l-108 -610q-14 -82 8.5 -114t75.5 -32z" />
    <glyph glyph-name="uni02A8" unicode="&#x2a8;" horiz-adv-x="1642" 
d="M530 0q-130 0 -190 70t-38 196l112 626h-188l22 132h188l48 266h150l-48 -266h188l-22 -132h-188l-108 -608q-15 -81 6.5 -118.5t81.5 -37.5q94 0 206 76q-52 98 -52 222q0 126 44 240.5t118.5 197t177.5 131.5t216 49q192 0 308 -101t116 -269h-158q-3 110 -73 172
t-193 62q-174 0 -287 -139t-113 -353q0 -67 18 -118h2q60 56 102 90t100.5 71t119.5 55t128 18q131 0 206.5 -69t75.5 -189t-123.5 -208t-292.5 -88q-231 0 -366 126q-153 -104 -294 -104zM1208 106q107 0 174.5 46.5t67.5 121.5q0 62 -39.5 95t-112.5 33q-58 0 -117.5 -28
t-103.5 -63t-112 -96q-16 -15 -25 -23q92 -86 268 -86z" />
    <glyph glyph-name="uni02A9" unicode="&#x2a9;" horiz-adv-x="1562" 
d="M226 892l22 132h162l26 148q22 134 105 198t191 64h116l-24 -132h-80q-65 0 -105.5 -31t-54.5 -111l-24 -136h216l-6 -30l6 30h148l-24 -142q62 77 148.5 121.5t185.5 44.5q189 0 279.5 -106.5t54.5 -289.5l-124 -710q-24 -145 -109 -225.5t-213 -80.5h-138l26 138h100
q81 0 125.5 43t60.5 137l116 666q26 140 -30.5 212t-191.5 72q-123 0 -218 -76.5t-116 -193.5l-112 -634h-150l158 892h-214l-158 -892h-150l158 892h-162z" />
    <glyph glyph-name="uni02AA" unicode="&#x2aa;" horiz-adv-x="1360" 
d="M992 438l-160 22q-141 21 -208.5 82t-67.5 168q0 151 117 242.5t309 91.5q195 0 301.5 -88.5t106.5 -251.5h-150q0 105 -66 159.5t-192 54.5q-122 0 -198 -54.5t-76 -141.5q0 -51 39.5 -78.5t130.5 -39.5l166 -20q142 -19 211 -84.5t69 -179.5q0 -147 -112 -233.5
t-302 -86.5h-490q-146 0 -213.5 82.5t-42.5 227.5l196 1124h152l-194 -1106q-16 -99 17 -143.5t123 -44.5h432q131 0 206.5 44.5t75.5 119.5q0 111 -180 134z" />
    <glyph glyph-name="uni02AB" unicode="&#x2ab;" horiz-adv-x="1224" 
d="M514 1434l-74 -410h876l-28 -156l-742 -740h612l-22 -128h-784l28 156l738 740h-700l-158 -896h-152l254 1434h152z" />
    <glyph glyph-name="uni02AC" unicode="&#x2ac;" horiz-adv-x="1070" 
d="M304 1332h142l32 -432l212 432h148l52 -432l198 432h148l-298 -594h-136l-60 436l-220 -436h-144zM174 594h142l32 -430l212 430h148l52 -430l198 430h148l-298 -594h-136l-60 436l-220 -436h-144z" />
    <glyph glyph-name="uni02AD" unicode="&#x2ad;" horiz-adv-x="1070" 
d="M1090 738h-132l82 466h-582l-82 -466h-136l106 594h850zM960 0h-132l82 468h-582l-82 -468h-136l106 594h850z" />
    <glyph glyph-name="uni02AE" unicode="&#x2ae;" horiz-adv-x="1060" 
d="M334 416q-28 -151 29 -223.5t183 -72.5q118 0 212 80.5t116 203.5l108 620h150l-238 -1358h-150l84 480q-63 -81 -151 -125.5t-185 -44.5q-174 0 -262 109t-54 301l62 350q16 85 -10 118.5t-86 33.5h-60l24 136h72q113 0 176 -66.5t38 -205.5z" />
    <glyph glyph-name="uni02AF" unicode="&#x2af;" horiz-adv-x="1060" 
d="M334 416q-28 -151 29 -223.5t183 -72.5q118 0 212 80.5t116 203.5l108 620h150l-190 -1076q-14 -84 12 -117t86 -33h30l-24 -132h-44q-52 0 -94 14t-75 45t-43.5 81t0.5 122l40 224q-65 -83 -155.5 -129.5t-182.5 -46.5q-175 0 -262.5 107.5t-53.5 302.5l62 350
q16 85 -10 118.5t-86 33.5h-60l24 136h72q113 0 176 -66.5t38 -205.5z" />
    <glyph glyph-name="uni02BC" unicode="&#x2bc;" horiz-adv-x="292" 
d="M362 1404h178l-38 -224q-20 -108 -77.5 -159t-130.5 -51h-40l16 88h28q54 0 86 29t46 105l4 26h-106z" />
    <glyph glyph-name="uni02C8" unicode="&#x2c8;" horiz-adv-x="362" 
d="M362 1434h146l-116 -654h-146z" />
    <glyph glyph-name="uni02CC" unicode="&#x2cc;" horiz-adv-x="362" 
d="M166 320h146l-116 -654h-146z" />
    <glyph glyph-name="uni02D0" unicode="&#x2d0;" horiz-adv-x="456" 
d="M274 1024h270l-178 -244zM272 246l92 -246h-270z" />
    <glyph glyph-name="gravecomb" unicode="&#x300;" horiz-adv-x="614" 
d="M108 1350h170l190 -326h-122z" />
    <glyph glyph-name="acutecomb" unicode="&#x301;" horiz-adv-x="614" 
d="M682 1350l-314 -326h-136l260 326h190z" />
    <glyph glyph-name="uni0302" unicode="&#x302;" horiz-adv-x="614" 
d="M474 1366h150l264 -342h-152l-192 254l-278 -254h-178z" />
    <glyph glyph-name="tildecomb" unicode="&#x303;" horiz-adv-x="614" 
d="M376 1328q31 0 56.5 -8t47.5 -27t32.5 -31t31.5 -38q22 -32 31.5 -44.5t31 -27t45.5 -14.5q48 0 85.5 48.5t50.5 129.5h114q-24 -139 -95 -219.5t-167 -80.5q-31 0 -54 6.5t-44 24.5t-28.5 26.5t-29.5 34.5q-5 7 -18.5 26.5t-20.5 28t-19 20.5t-24.5 16.5t-27.5 4.5
q-46 0 -83.5 -49.5t-52.5 -130.5h-118q26 145 92.5 224.5t163.5 79.5z" />
    <glyph glyph-name="uni0304" unicode="&#x304;" horiz-adv-x="614" 
d="M198 1188h636l-22 -128h-634z" />
    <glyph glyph-name="uni0306" unicode="&#x306;" horiz-adv-x="614" 
d="M890 1324q-33 -139 -132 -220.5t-242 -81.5q-161 0 -245.5 82t-72.5 220h142q-5 -90 38.5 -138t135.5 -48q180 0 234 186h142z" />
    <glyph glyph-name="uni0307" unicode="&#x307;" horiz-adv-x="614" 
d="M442 1212h176l-32 -188h-178z" />
    <glyph glyph-name="uni0308" unicode="&#x308;" horiz-adv-x="614" 
d="M648 1204h172l-32 -180h-172zM220 1204h172l-32 -180h-170z" />
    <glyph glyph-name="hookabovecomb" unicode="&#x309;" horiz-adv-x="614" 
d="M428 1024q7 41 35 72.5t97 81.5q42 29 61 50t23 46q6 32 -13.5 51t-58.5 19q-93 0 -124 -86h-126q31 90 99 138t161 48q99 0 149 -47.5t35 -126.5q-7 -46 -31.5 -76.5t-82.5 -71.5q-47 -27 -67.5 -47.5t-26.5 -50.5h-130z" />
    <glyph glyph-name="uni030A" unicode="&#x30a;" horiz-adv-x="614" 
d="M628 1322q0 -135 -85.5 -223.5t-214.5 -88.5q-116 0 -186 65.5t-70 174.5q0 135 85 223.5t213 88.5q117 0 187.5 -65.5t70.5 -174.5zM196 1254q0 -63 37.5 -98.5t104.5 -35.5q75 0 121.5 55t46.5 143q0 64 -37.5 99t-106.5 35q-74 0 -120 -55t-46 -143z" />
    <glyph glyph-name="uni030B" unicode="&#x30b;" horiz-adv-x="614" 
d="M1024 1350l-336 -326h-124l282 326h178zM700 1350l-338 -326h-124l284 326h178z" />
    <glyph glyph-name="uni030C" unicode="&#x30c;" horiz-adv-x="614" 
d="M566 1024h-154l-264 342h156l192 -254l278 254h176z" />
    <glyph glyph-name="uni0312" unicode="&#x312;" horiz-adv-x="614" 
d="M588 1024h-180l42 224q18 108 75.5 159t130.5 51h38l-16 -88h-26q-54 0 -86.5 -29t-45.5 -105l-6 -24h106z" />
    <glyph glyph-name="uni0313" unicode="&#x313;" horiz-adv-x="614" 
d="M516 1458h178l-38 -224q-18 -108 -75.5 -159t-130.5 -51h-40l14 88h28q54 0 86.5 29t45.5 105l4 26h-104z" />
    <glyph glyph-name="uni0315" unicode="&#x315;" horiz-adv-x="614" 
d="M418 1432h144l-144 -408h-134z" />
    <glyph glyph-name="uni031B" unicode="&#x31b;" horiz-adv-x="614" 
d="M354 1122h140q65 0 106 32.5t56 117.5l12 66h132l-14 -78q-11 -69 -41.5 -120t-72.5 -78.5t-86.5 -40.5t-91.5 -13h-146z" />
    <glyph glyph-name="dotbelowcomb" unicode="&#x323;" horiz-adv-x="606" 
d="M190 -142h178l-30 -170h-178z" />
    <glyph glyph-name="uni0326" unicode="&#x326;" horiz-adv-x="614" 
d="M224 -74h180l-42 -224q-18 -108 -75.5 -159t-130.5 -51h-38l16 88h24q55 0 88 29t46 105l6 24h-106z" />
    <glyph glyph-name="uni0327" unicode="&#x327;" horiz-adv-x="614" 
d="M280 20h110l-52 -132h32q80 0 127 -53.5t47 -134.5q0 -119 -77 -185.5t-213 -66.5h-206l24 130h164q81 0 127.5 36t46.5 96q0 70 -92 70h-68l-40 66z" />
    <glyph glyph-name="uni0328" unicode="&#x328;" horiz-adv-x="614" 
d="M402 0q-138 -90 -196 -164.5t-58 -161.5q0 -102 134 -102h130l-24 -134h-134q-111 0 -179.5 55.5t-68.5 148.5q0 221 274 358h122z" />
    <glyph glyph-name="uni1E9E" unicode="&#x1e9e;" horiz-adv-x="1266" 
d="M928 720q149 -11 235.5 -91t86.5 -219q0 -177 -139 -293.5t-351 -116.5h-186l24 136h134q80 0 144 17.5t104.5 46t68 66.5t38.5 76t11 78q0 87 -69.5 134.5t-198.5 47.5h-94l24 132l404 454q-129 38 -274 38q-216 0 -332 -96t-152 -304l-146 -826h-152l152 868
q42 244 199.5 367t422.5 123q224 0 440 -84l-22 -134z" />
    <glyph glyph-name="uni1EA0" unicode="&#x1ea0;" horiz-adv-x="1282" 
d="M1218 0h-154l-66 356h-568l-190 -356h-174l726 1332h172zM852 1152l-352 -664h474zM526 -142h178l-30 -170h-180z" />
    <glyph glyph-name="uni1EA1" unicode="&#x1ea1;" horiz-adv-x="1052" 
d="M1062 660l-116 -660h-156l26 144q-66 -79 -156.5 -121.5t-193.5 -42.5q-144 0 -235 78t-91 202q0 139 93.5 226.5t254.5 93.5l290 8q65 3 93.5 17t38.5 51l4 20q19 106 -54 174t-202 68q-217 0 -276 -184h-160q36 144 155 228t287 84q198 0 312 -110.5t86 -275.5z
M296 276q0 -75 58.5 -120.5t155.5 -45.5q124 0 220.5 75t129.5 195l16 86l-358 -10q-109 -3 -165.5 -52t-56.5 -128zM464 -144h178l-28 -170h-180z" />
    <glyph glyph-name="uni1EA2" unicode="&#x1ea2;" horiz-adv-x="1282" 
d="M762 1434q7 41 35 72.5t97 81.5q42 30 61 50.5t23 45.5q6 32 -13.5 51t-58.5 19q-92 0 -126 -86h-124q31 90 99 138t161 48q98 0 148.5 -47.5t35.5 -126.5q-7 -46 -31.5 -76.5t-82.5 -71.5q-47 -27 -67.5 -47.5t-26.5 -50.5h-130zM1218 0h-154l-66 356h-568l-190 -356
h-174l726 1332h172zM852 1152l-352 -664h474z" />
    <glyph glyph-name="uni1EA3" unicode="&#x1ea3;" horiz-adv-x="1052" 
d="M642 1146q9 41 36.5 73t95.5 81q43 29 62.5 50t23.5 44q6 33 -14.5 52.5t-59.5 19.5q-89 0 -124 -86h-126q33 90 100 138t160 48q99 0 149.5 -47t36.5 -127q-9 -47 -33 -77.5t-81 -70.5q-48 -26 -69 -47.5t-27 -50.5h-130zM1062 660l-116 -660h-156l26 144
q-66 -79 -156.5 -121.5t-193.5 -42.5q-144 0 -235 78t-91 202q0 139 93.5 226.5t254.5 93.5l290 8q65 3 93.5 17t38.5 51l4 20q19 106 -54 174t-202 68q-217 0 -276 -184h-160q36 144 155 228t287 84q198 0 312 -110.5t86 -275.5zM296 276q0 -75 58.5 -120.5t155.5 -45.5
q124 0 220.5 75t129.5 195l16 86l-358 -10q-109 -3 -165.5 -52t-56.5 -128z" />
    <glyph glyph-name="uni1EA4" unicode="&#x1ea4;" horiz-adv-x="1282" 
d="M1660 1964l-314 -326h-136l260 326h190zM864 1776h152l264 -342h-152l-192 254l-278 -254h-178zM1218 0h-154l-66 356h-568l-190 -356h-174l726 1332h172zM852 1152l-352 -664h474z" />
    <glyph glyph-name="uni1EA5" unicode="&#x1ea5;" horiz-adv-x="1052" 
d="M1458 1718l-312 -326h-136l258 326h190zM706 1486h152l264 -342h-154l-190 254l-278 -254h-180zM1062 660l-116 -660h-156l26 144q-66 -79 -156.5 -121.5t-193.5 -42.5q-144 0 -235 78t-91 202q0 139 93.5 226.5t254.5 93.5l290 8q65 3 93.5 17t38.5 51l4 20
q19 106 -54 174t-202 68q-217 0 -276 -184h-160q36 144 155 228t287 84q198 0 312 -110.5t86 -275.5zM296 276q0 -75 58.5 -120.5t155.5 -45.5q124 0 220.5 75t129.5 195l16 86l-358 -10q-109 -3 -165.5 -52t-56.5 -128z" />
    <glyph glyph-name="uni1EA6" unicode="&#x1ea6;" horiz-adv-x="1282" 
d="M1104 1964h170l190 -326h-122zM864 1776h152l264 -342h-152l-192 254l-278 -254h-178zM1218 0h-154l-66 356h-568l-190 -356h-174l726 1332h172zM852 1152l-352 -664h474z" />
    <glyph glyph-name="uni1EA7" unicode="&#x1ea7;" horiz-adv-x="1052" 
d="M904 1718h168l192 -326h-122zM706 1486h152l264 -342h-154l-190 254l-278 -254h-180zM1062 660l-116 -660h-156l26 144q-66 -79 -156.5 -121.5t-193.5 -42.5q-144 0 -235 78t-91 202q0 139 93.5 226.5t254.5 93.5l290 8q65 3 93.5 17t38.5 51l4 20q19 106 -54 174
t-202 68q-217 0 -276 -184h-160q36 144 155 228t287 84q198 0 312 -110.5t86 -275.5zM296 276q0 -75 58.5 -120.5t155.5 -45.5q124 0 220.5 75t129.5 195l16 86l-358 -10q-109 -3 -165.5 -52t-56.5 -128z" />
    <glyph glyph-name="uni1EA8" unicode="&#x1ea8;" horiz-adv-x="1282" 
d="M1240 1638q9 41 36.5 73t95.5 81q43 29 62.5 50t23.5 46q6 31 -14.5 50.5t-59.5 19.5q-90 0 -124 -86h-126q33 90 100 138t160 48q99 0 149.5 -47t36.5 -127q-9 -47 -33 -77.5t-81 -70.5q-49 -27 -69.5 -47.5t-26.5 -50.5h-130zM864 1776h152l264 -342h-152l-192 254
l-278 -254h-178zM1218 0h-154l-66 356h-568l-190 -356h-174l726 1332h172zM852 1152l-352 -664h474z" />
    <glyph glyph-name="uni1EA9" unicode="&#x1ea9;" horiz-adv-x="1052" 
d="M1040 1392q9 41 36.5 73t95.5 81q43 29 62.5 50t23.5 46q6 31 -14.5 50.5t-59.5 19.5q-90 0 -124 -86h-126q33 90 100 138t160 48q99 0 149.5 -47t36.5 -127q-9 -47 -33 -77.5t-81 -70.5q-49 -27 -69.5 -47.5t-26.5 -50.5h-130zM706 1486h152l264 -342h-154l-190 254
l-278 -254h-180zM1062 660l-116 -660h-156l26 144q-66 -79 -156.5 -121.5t-193.5 -42.5q-144 0 -235 78t-91 202q0 139 93.5 226.5t254.5 93.5l290 8q65 3 93.5 17t38.5 51l4 20q19 106 -54 174t-202 68q-217 0 -276 -184h-160q36 144 155 228t287 84q198 0 312 -110.5
t86 -275.5zM296 276q0 -75 58.5 -120.5t155.5 -45.5q124 0 220.5 75t129.5 195l16 86l-358 -10q-109 -3 -165.5 -52t-56.5 -128z" />
    <glyph glyph-name="uni1EAA" unicode="&#x1eaa;" horiz-adv-x="1282" 
d="M860 2170q40 0 74.5 -18.5t49.5 -35t42 -50.5q39 -54 57 -68q24 -18 53 -18q48 0 84 48t50 128h114q-24 -138 -94.5 -218t-167.5 -80q-39 0 -70.5 15t-46.5 31t-37 46q-6 8 -24 33t-26 34t-25 19t-35 10q-48 0 -85 -49.5t-51 -130.5h-120q26 144 93 224t165 80zM864 1776
h152l264 -342h-152l-192 254l-278 -254h-178zM1218 0h-154l-66 356h-568l-190 -356h-174l726 1332h172zM852 1152l-352 -664h474z" />
    <glyph glyph-name="uni1EAB" unicode="&#x1eab;" horiz-adv-x="1052" 
d="M692 1900q40 0 74.5 -18.5t49.5 -35t42 -50.5q39 -54 57 -68q24 -18 53 -18q48 0 84 48.5t50 129.5h114q-24 -139 -94 -219.5t-168 -80.5q-39 0 -71 16t-46 31t-37 45q-6 8 -24 33t-26 34t-25 19t-35 10q-48 0 -85 -49.5t-51 -130.5h-120q26 145 93 224.5t165 79.5z
M706 1486h152l264 -342h-154l-190 254l-278 -254h-180zM1062 660l-116 -660h-156l26 144q-66 -79 -156.5 -121.5t-193.5 -42.5q-144 0 -235 78t-91 202q0 139 93.5 226.5t254.5 93.5l290 8q65 3 93.5 17t38.5 51l4 20q19 106 -54 174t-202 68q-217 0 -276 -184h-160
q36 144 155 228t287 84q198 0 312 -110.5t86 -275.5zM296 276q0 -75 58.5 -120.5t155.5 -45.5q124 0 220.5 75t129.5 195l16 86l-358 -10q-109 -3 -165.5 -52t-56.5 -128z" />
    <glyph glyph-name="uni1EAC" unicode="&#x1eac;" horiz-adv-x="1282" 
d="M860 1776h152l264 -342h-154l-190 254l-278 -254h-180zM1218 0h-154l-66 356h-568l-190 -356h-174l726 1332h172zM852 1152l-352 -664h474zM526 -142h178l-30 -170h-180z" />
    <glyph glyph-name="uni1EAD" unicode="&#x1ead;" horiz-adv-x="1052" 
d="M706 1486h152l264 -342h-154l-190 254l-278 -254h-180zM1062 660l-116 -660h-156l26 144q-66 -79 -156.5 -121.5t-193.5 -42.5q-144 0 -235 78t-91 202q0 139 93.5 226.5t254.5 93.5l290 8q65 3 93.5 17t38.5 51l4 20q19 106 -54 174t-202 68q-217 0 -276 -184h-160
q36 144 155 228t287 84q198 0 312 -110.5t86 -275.5zM296 276q0 -75 58.5 -120.5t155.5 -45.5q124 0 220.5 75t129.5 195l16 86l-358 -10q-109 -3 -165.5 -52t-56.5 -128zM464 -144h178l-28 -170h-180z" />
    <glyph glyph-name="uni1EAE" unicode="&#x1eae;" horiz-adv-x="1282" 
d="M1262 2054l-312 -324h-136l258 324h190zM1280 1734q-32 -139 -130.5 -220.5t-241.5 -81.5q-161 0 -245.5 82t-72.5 220h142q-9 -186 172 -186q182 0 236 186h140zM1218 0h-154l-66 356h-568l-190 -356h-174l726 1332h172zM852 1152l-352 -664h474z" />
    <glyph glyph-name="uni1EAF" unicode="&#x1eaf;" horiz-adv-x="1052" 
d="M1094 1782l-312 -324h-138l260 324h190zM1122 1444q-33 -139 -132 -220.5t-240 -81.5q-162 0 -247 82t-71 220h142q-6 -90 37 -138t135 -48q179 0 236 186h140zM1062 660l-116 -660h-156l26 144q-66 -79 -156.5 -121.5t-193.5 -42.5q-144 0 -235 78t-91 202
q0 139 93.5 226.5t254.5 93.5l290 8q65 3 93.5 17t38.5 51l4 20q19 106 -54 174t-202 68q-217 0 -276 -184h-160q36 144 155 228t287 84q198 0 312 -110.5t86 -275.5zM296 276q0 -75 58.5 -120.5t155.5 -45.5q124 0 220.5 75t129.5 195l16 86l-358 -10q-109 -3 -165.5 -52
t-56.5 -128z" />
    <glyph glyph-name="uni1EB0" unicode="&#x1eb0;" horiz-adv-x="1282" 
d="M690 2054h168l192 -324h-122zM1280 1734q-32 -139 -130.5 -220.5t-241.5 -81.5q-161 0 -245.5 82t-72.5 220h142q-9 -186 172 -186q182 0 236 186h140zM1218 0h-154l-66 356h-568l-190 -356h-174l726 1332h172zM852 1152l-352 -664h474z" />
    <glyph glyph-name="uni1EB1" unicode="&#x1eb1;" horiz-adv-x="1052" 
d="M522 1782h168l190 -324h-120zM1122 1444q-33 -139 -132 -220.5t-240 -81.5q-162 0 -247 82t-71 220h142q-6 -90 37 -138t135 -48q179 0 236 186h140zM1062 660l-116 -660h-156l26 144q-66 -79 -156.5 -121.5t-193.5 -42.5q-144 0 -235 78t-91 202q0 139 93.5 226.5
t254.5 93.5l290 8q65 3 93.5 17t38.5 51l4 20q19 106 -54 174t-202 68q-217 0 -276 -184h-160q36 144 155 228t287 84q198 0 312 -110.5t86 -275.5zM296 276q0 -75 58.5 -120.5t155.5 -45.5q124 0 220.5 75t129.5 195l16 86l-358 -10q-109 -3 -165.5 -52t-56.5 -128z" />
    <glyph glyph-name="uni1EB2" unicode="&#x1eb2;" horiz-adv-x="1282" 
d="M860 1730q7 41 35.5 72.5t96.5 79.5q42 31 61 52t23 44q6 33 -13.5 52.5t-58.5 19.5q-43 0 -76 -22.5t-50 -63.5h-124q31 90 99 138t161 48q98 0 148.5 -47.5t35.5 -126.5q-7 -47 -32 -78t-82 -70q-48 -28 -68 -48.5t-26 -49.5h-130zM1280 1734q-32 -139 -130.5 -220.5
t-241.5 -81.5q-161 0 -245.5 82t-72.5 220h142q-9 -186 172 -186q182 0 236 186h140zM1218 0h-154l-66 356h-568l-190 -356h-174l726 1332h172zM852 1152l-352 -664h474z" />
    <glyph glyph-name="uni1EB3" unicode="&#x1eb3;" horiz-adv-x="1052" 
d="M690 1458q9 41 36.5 73t95.5 81q43 29 62.5 50t23.5 44q6 33 -14 52.5t-60 19.5q-42 0 -74.5 -22.5t-49.5 -63.5h-126q33 90 100.5 138t159.5 48q99 0 150 -47.5t36 -126.5q-9 -47 -33 -77.5t-81 -70.5q-47 -27 -68.5 -48t-27.5 -50h-130zM1122 1444
q-33 -139 -132 -220.5t-240 -81.5q-162 0 -247 82t-71 220h142q-6 -90 37 -138t135 -48q179 0 236 186h140zM1062 660l-116 -660h-156l26 144q-66 -79 -156.5 -121.5t-193.5 -42.5q-144 0 -235 78t-91 202q0 139 93.5 226.5t254.5 93.5l290 8q65 3 93.5 17t38.5 51l4 20
q19 106 -54 174t-202 68q-217 0 -276 -184h-160q36 144 155 228t287 84q198 0 312 -110.5t86 -275.5zM296 276q0 -75 58.5 -120.5t155.5 -45.5q124 0 220.5 75t129.5 195l16 86l-358 -10q-109 -3 -165.5 -52t-56.5 -128z" />
    <glyph glyph-name="uni1EB4" unicode="&#x1eb4;" horiz-adv-x="1282" 
d="M844 2120q40 0 74 -17.5t51.5 -35.5t40.5 -49q39 -54 57 -68q24 -18 53 -18q48 0 84.5 48t51.5 128h112q-24 -138 -94 -218t-166 -80q-40 0 -72 15.5t-45.5 30t-38.5 46.5q-5 7 -18.5 26.5t-20.5 28t-19 20.5t-24.5 16.5t-27.5 4.5q-48 0 -85 -49.5t-51 -130.5h-120
q26 144 93 223t165 79zM1280 1734q-32 -139 -130.5 -220.5t-241.5 -81.5q-161 0 -245.5 82t-72.5 220h142q-9 -186 172 -186q182 0 236 186h140zM1218 0h-154l-66 356h-568l-190 -356h-174l726 1332h172zM852 1152l-352 -664h474z" />
    <glyph glyph-name="uni1EB5" unicode="&#x1eb5;" horiz-adv-x="1052" 
d="M690 1850q31 0 56.5 -8t47.5 -27t32.5 -31t31.5 -38q20 -30 30.5 -43t32 -27t45.5 -14q48 0 85.5 47.5t50.5 128.5h114q-24 -138 -95 -219t-167 -81q-31 0 -54 6.5t-44 24.5t-28.5 26.5t-29.5 34.5q-5 7 -18.5 26.5t-20.5 28t-19 20.5t-24.5 16.5t-27.5 4.5
q-47 0 -85 -49t-51 -131h-118q26 145 92.5 224.5t163.5 79.5zM1122 1444q-33 -139 -132 -220.5t-240 -81.5q-162 0 -247 82t-71 220h142q-6 -90 37 -138t135 -48q179 0 236 186h140zM1062 660l-116 -660h-156l26 144q-66 -79 -156.5 -121.5t-193.5 -42.5q-144 0 -235 78
t-91 202q0 139 93.5 226.5t254.5 93.5l290 8q65 3 93.5 17t38.5 51l4 20q19 106 -54 174t-202 68q-217 0 -276 -184h-160q36 144 155 228t287 84q198 0 312 -110.5t86 -275.5zM296 276q0 -75 58.5 -120.5t155.5 -45.5q124 0 220.5 75t129.5 195l16 86l-358 -10
q-109 -3 -165.5 -52t-56.5 -128z" />
    <glyph glyph-name="uni1EB6" unicode="&#x1eb6;" horiz-adv-x="1282" 
d="M1276 1734q-33 -139 -132 -220.5t-240 -81.5q-162 0 -247 82t-71 220h142q-6 -90 37 -138t135 -48q182 0 236 186h140zM1218 0h-154l-66 356h-568l-190 -356h-174l726 1332h172zM852 1152l-352 -664h474zM526 -142h178l-30 -170h-180z" />
    <glyph glyph-name="uni1EB7" unicode="&#x1eb7;" horiz-adv-x="1052" 
d="M1124 1446q-33 -139 -132 -220.5t-240 -81.5q-162 0 -247 82t-73 220h142q-9 -186 174 -186q180 0 236 186h140zM1062 660l-116 -660h-156l26 144q-66 -79 -156.5 -121.5t-193.5 -42.5q-144 0 -235 78t-91 202q0 139 93.5 226.5t254.5 93.5l290 8q65 3 93.5 17t38.5 51
l4 20q19 106 -54 174t-202 68q-217 0 -276 -184h-160q36 144 155 228t287 84q198 0 312 -110.5t86 -275.5zM296 276q0 -75 58.5 -120.5t155.5 -45.5q124 0 220.5 75t129.5 195l16 86l-358 -10q-109 -3 -165.5 -52t-56.5 -128zM464 -144h178l-28 -170h-180z" />
    <glyph glyph-name="uni1EB8" unicode="&#x1eb8;" horiz-adv-x="1094" 
d="M1242 1332l-26 -144h-748l-76 -436h690l-26 -144h-690l-82 -466h748l-24 -142h-900l236 1332h898zM464 -142h178l-30 -170h-178z" />
    <glyph glyph-name="uni1EB9" unicode="&#x1eb9;" horiz-adv-x="1132" 
d="M168 430q0 170 64 309.5t184.5 222t275.5 82.5q115 0 207 -41t147.5 -111t77.5 -164.5t4 -199.5l-10 -60h-794q-2 -16 -2 -46q0 -150 80.5 -228t233.5 -78q107 0 183 51.5t115 148.5h168q-60 -163 -180 -248.5t-288 -85.5q-216 0 -341 120t-125 328zM700 914
q-134 0 -229.5 -87t-130.5 -239h640q21 144 -58.5 235t-221.5 91zM470 -142h178l-28 -170h-180z" />
    <glyph glyph-name="uni1EBA" unicode="&#x1eba;" horiz-adv-x="1094" 
d="M758 1434q9 41 36.5 73t95.5 81q43 29 62.5 50t23.5 46q6 32 -14 51t-60 19q-90 0 -124 -86h-126q33 90 100.5 138t159.5 48q99 0 150 -47.5t36 -126.5q-9 -47 -33 -77.5t-81 -70.5q-48 -27 -69 -47.5t-27 -50.5h-130zM1242 1332l-26 -144h-748l-76 -436h690l-26 -144
h-690l-82 -466h748l-24 -142h-900l236 1332h898z" />
    <glyph glyph-name="uni1EBB" unicode="&#x1ebb;" horiz-adv-x="1132" 
d="M690 1144q7 41 35 72.5t97 81.5q42 30 61 50.5t23 45.5q6 32 -13.5 51t-58.5 19q-92 0 -126 -86h-124q31 90 99 138t161 48q98 0 148.5 -47.5t35.5 -126.5q-7 -46 -31.5 -76.5t-82.5 -71.5q-47 -27 -67.5 -47.5t-26.5 -50.5h-130zM168 430q0 170 64 309.5t184.5 222
t275.5 82.5q115 0 207 -41t147.5 -111t77.5 -164.5t4 -199.5l-10 -60h-794q-2 -16 -2 -46q0 -150 80.5 -228t233.5 -78q107 0 183 51.5t115 148.5h168q-60 -163 -180 -248.5t-288 -85.5q-216 0 -341 120t-125 328zM700 914q-134 0 -229.5 -87t-130.5 -239h640
q21 144 -58.5 235t-221.5 91z" />
    <glyph glyph-name="uni1EBC" unicode="&#x1ebc;" horiz-adv-x="1094" 
d="M696 1738q40 0 74.5 -18.5t49.5 -35t42 -50.5q20 -30 31 -44t32.5 -28t44.5 -14q48 0 85.5 48.5t50.5 129.5h114q-24 -139 -94 -219.5t-168 -80.5q-39 0 -71 16t-46 31t-37 45q-5 7 -24 33t-27 34t-24.5 18.5t-34.5 10.5q-48 0 -85 -49.5t-51 -130.5h-120
q26 145 93 224.5t165 79.5zM1242 1332l-26 -144h-748l-76 -436h690l-26 -144h-690l-82 -466h748l-24 -142h-900l236 1332h898z" />
    <glyph glyph-name="uni1EBD" unicode="&#x1ebd;" horiz-adv-x="1132" 
d="M636 1448q40 0 74.5 -18.5t49.5 -35t42 -50.5q19 -28 31 -42.5t33 -28t44 -13.5q48 0 85.5 47.5t50.5 128.5h114q-24 -138 -94.5 -219t-167.5 -81q-39 0 -71 16t-46 31t-37 45q-5 7 -24 33t-27 34t-24.5 18.5t-34.5 10.5q-48 0 -85.5 -49t-50.5 -131h-120
q26 145 93 224.5t165 79.5zM168 430q0 170 64 309.5t184.5 222t275.5 82.5q115 0 207 -41t147.5 -111t77.5 -164.5t4 -199.5l-10 -60h-794q-2 -16 -2 -46q0 -150 80.5 -228t233.5 -78q107 0 183 51.5t115 148.5h168q-60 -163 -180 -248.5t-288 -85.5q-216 0 -341 120
t-125 328zM700 914q-134 0 -229.5 -87t-130.5 -239h640q21 144 -58.5 235t-221.5 91z" />
    <glyph glyph-name="uni1EBE" unicode="&#x1ebe;" horiz-adv-x="1094" 
d="M1614 1964l-312 -326h-138l260 326h190zM804 1776h152l264 -342h-154l-190 254l-278 -254h-180zM1242 1332l-26 -144h-748l-76 -436h690l-26 -144h-690l-82 -466h748l-24 -142h-900l236 1332h898z" />
    <glyph glyph-name="uni1EBF" unicode="&#x1ebf;" horiz-adv-x="1132" 
d="M1494 1718l-314 -326h-136l260 326h190zM734 1486h152l264 -342h-152l-192 254l-278 -254h-178zM168 430q0 170 64 309.5t184.5 222t275.5 82.5q115 0 207 -41t147.5 -111t77.5 -164.5t4 -199.5l-10 -60h-794q-2 -16 -2 -46q0 -150 80.5 -228t233.5 -78q107 0 183 51.5
t115 148.5h168q-60 -163 -180 -248.5t-288 -85.5q-216 0 -341 120t-125 328zM700 914q-134 0 -229.5 -87t-130.5 -239h640q21 144 -58.5 235t-221.5 91z" />
    <glyph glyph-name="uni1EC0" unicode="&#x1ec0;" horiz-adv-x="1094" 
d="M1008 1964h170l190 -326h-122zM804 1776h152l264 -342h-154l-190 254l-278 -254h-180zM1242 1332l-26 -144h-748l-76 -436h690l-26 -144h-690l-82 -466h748l-24 -142h-900l236 1332h898z" />
    <glyph glyph-name="uni1EC1" unicode="&#x1ec1;" horiz-adv-x="1132" 
d="M938 1718h168l192 -326h-122zM734 1486h152l264 -342h-152l-192 254l-278 -254h-178zM168 430q0 170 64 309.5t184.5 222t275.5 82.5q115 0 207 -41t147.5 -111t77.5 -164.5t4 -199.5l-10 -60h-794q-2 -16 -2 -46q0 -150 80.5 -228t233.5 -78q107 0 183 51.5t115 148.5
h168q-60 -163 -180 -248.5t-288 -85.5q-216 0 -341 120t-125 328zM700 914q-134 0 -229.5 -87t-130.5 -239h640q21 144 -58.5 235t-221.5 91z" />
    <glyph glyph-name="uni1EC2" unicode="&#x1ec2;" horiz-adv-x="1094" 
d="M1148 1642q7 41 35 72.5t97 81.5q42 29 61 50t23 46q6 32 -13.5 51t-58.5 19q-93 0 -124 -86h-126q31 90 99 138t161 48q99 0 149 -47.5t35 -126.5q-7 -46 -31.5 -76.5t-82.5 -71.5q-47 -27 -67.5 -47.5t-26.5 -50.5h-130zM804 1776h152l264 -342h-154l-190 254
l-278 -254h-180zM1242 1332l-26 -144h-748l-76 -436h690l-26 -144h-690l-82 -466h748l-24 -142h-900l236 1332h898z" />
    <glyph glyph-name="uni1EC3" unicode="&#x1ec3;" horiz-adv-x="1132" 
d="M1078 1394q7 41 35 72.5t97 81.5q42 29 61 50t23 46q6 32 -13.5 51t-58.5 19q-93 0 -124 -86h-126q31 90 99 138t161 48q99 0 149 -47.5t35 -126.5q-7 -46 -31.5 -76.5t-82.5 -71.5q-47 -27 -67.5 -47.5t-26.5 -50.5h-130zM734 1486h152l264 -342h-152l-192 254
l-278 -254h-178zM168 430q0 170 64 309.5t184.5 222t275.5 82.5q115 0 207 -41t147.5 -111t77.5 -164.5t4 -199.5l-10 -60h-794q-2 -16 -2 -46q0 -150 80.5 -228t233.5 -78q107 0 183 51.5t115 148.5h168q-60 -163 -180 -248.5t-288 -85.5q-216 0 -341 120t-125 328z
M700 914q-134 0 -229.5 -87t-130.5 -239h640q21 144 -58.5 235t-221.5 91z" />
    <glyph glyph-name="uni1EC4" unicode="&#x1ec4;" horiz-adv-x="1094" 
d="M784 2186q40 0 74.5 -18.5t49.5 -35t42 -50.5q18 -25 24.5 -33t22 -24t30 -21.5t33.5 -5.5q48 0 84.5 47.5t49.5 128.5h114q-24 -138 -94.5 -219t-167.5 -81q-39 0 -71 16t-46 31t-37 45q-6 8 -24 33t-26 34t-25 19t-35 10q-48 0 -85.5 -49t-50.5 -131h-120
q26 145 93 224.5t165 79.5zM804 1776h152l264 -342h-154l-190 254l-278 -254h-180zM1242 1332l-26 -144h-748l-76 -436h690l-26 -144h-690l-82 -466h748l-24 -142h-900l236 1332h898z" />
    <glyph glyph-name="uni1EC5" unicode="&#x1ec5;" horiz-adv-x="1132" 
d="M708 1900q41 0 75.5 -18t50 -35.5t40.5 -50.5q39 -54 57 -68q24 -18 53 -18q48 0 85.5 48.5t50.5 129.5h114q-25 -139 -95.5 -219.5t-166.5 -80.5q-31 0 -54 6.5t-44 24.5t-28.5 26.5t-29.5 34.5q-5 7 -18.5 26.5t-20.5 28t-19 20.5t-24.5 16.5t-27.5 4.5
q-48 0 -85 -49.5t-51 -130.5h-120q27 145 94 224.5t164 79.5zM734 1486h152l264 -342h-152l-192 254l-278 -254h-178zM168 430q0 170 64 309.5t184.5 222t275.5 82.5q115 0 207 -41t147.5 -111t77.5 -164.5t4 -199.5l-10 -60h-794q-2 -16 -2 -46q0 -150 80.5 -228t233.5 -78
q107 0 183 51.5t115 148.5h168q-60 -163 -180 -248.5t-288 -85.5q-216 0 -341 120t-125 328zM700 914q-134 0 -229.5 -87t-130.5 -239h640q21 144 -58.5 235t-221.5 91z" />
    <glyph glyph-name="uni1EC6" unicode="&#x1ec6;" horiz-adv-x="1094" 
d="M804 1776h152l264 -342h-154l-190 254l-278 -254h-180zM1242 1332l-26 -144h-748l-76 -436h690l-26 -144h-690l-82 -466h748l-24 -142h-900l236 1332h898zM464 -142h178l-30 -170h-178z" />
    <glyph glyph-name="uni1EC7" unicode="&#x1ec7;" horiz-adv-x="1132" 
d="M734 1486h152l264 -342h-152l-192 254l-278 -254h-178zM168 430q0 170 64 309.5t184.5 222t275.5 82.5q115 0 207 -41t147.5 -111t77.5 -164.5t4 -199.5l-10 -60h-794q-2 -16 -2 -46q0 -150 80.5 -228t233.5 -78q107 0 183 51.5t115 148.5h168q-60 -163 -180 -248.5
t-288 -85.5q-216 0 -341 120t-125 328zM700 914q-134 0 -229.5 -87t-130.5 -239h640q21 144 -58.5 235t-221.5 91zM470 -142h178l-28 -170h-180z" />
    <glyph glyph-name="uni1EC8" unicode="&#x1ec8;" 
d="M366 1434q9 41 36.5 73t95.5 81q43 29 62.5 50t23.5 46q6 32 -14 51t-60 19q-90 0 -124 -86h-126q33 90 100.5 138t159.5 48q99 0 150 -47.5t36 -126.5q-9 -47 -33 -77.5t-81 -70.5q-48 -27 -69 -47.5t-27 -50.5h-130zM344 1332h150l-234 -1332h-152z" />
    <glyph glyph-name="uni1EC9" unicode="&#x1ec9;" 
d="M314 1146q9 41 37 72.5t97 81.5q42 30 61 50.5t23 45.5q6 32 -14 51t-60 19q-90 0 -124 -86h-124q31 90 98.5 138t159.5 48q99 0 150 -47.5t36 -126.5q-9 -47 -33 -77.5t-81 -70.5q-48 -27 -69 -47.5t-27 -50.5h-130zM290 1024h150l-180 -1024h-152z" />
    <glyph glyph-name="uni1ECA" unicode="&#x1eca;" 
d="M344 1332h150l-234 -1332h-152zM70 -142h178l-28 -170h-180z" />
    <glyph glyph-name="uni1ECB" unicode="&#x1ecb;" 
d="M332 1336h180l-30 -168h-180zM290 1024h152l-180 -1024h-152zM76 -142h178l-28 -170h-180z" />
    <glyph glyph-name="uni1ECC" unicode="&#x1ecc;" horiz-adv-x="1374" 
d="M194 542q0 229 87 414.5t241.5 290.5t345.5 105q240 0 390 -161t150 -419q0 -230 -82.5 -409t-233.5 -279t-346 -100q-245 0 -398.5 155.5t-153.5 402.5zM1256 778q0 204 -106 318t-298 114q-143 0 -258 -86.5t-179.5 -239.5t-64.5 -344q0 -196 108 -304t302 -108
q221 0 358.5 179.5t137.5 470.5zM568 -142h178l-28 -170h-180z" />
    <glyph glyph-name="uni1ECD" unicode="&#x1ecd;" horiz-adv-x="1136" 
d="M168 430q0 173 69.5 315t191 222.5t269.5 80.5q200 0 321 -122t121 -326q0 -173 -69.5 -315.5t-191 -223.5t-269.5 -81q-200 0 -321 123t-121 327zM986 602q0 144 -78.5 225t-219.5 81q-150 0 -257 -135.5t-107 -342.5q0 -148 78.5 -229t219.5 -81q149 0 256.5 137.5
t107.5 344.5zM454 -142h178l-28 -170h-180z" />
    <glyph glyph-name="uni1ECE" unicode="&#x1ece;" horiz-adv-x="1374" 
d="M868 1434q7 41 35 72.5t97 81.5q42 30 61 50.5t23 45.5q6 32 -14 51t-60 19q-90 0 -124 -86h-124q31 90 98.5 138t159.5 48q99 0 150 -47.5t36 -126.5q-9 -47 -33 -77.5t-81 -70.5q-48 -27 -69 -47.5t-27 -50.5h-128zM194 542q0 229 87 414.5t241.5 290.5t345.5 105
q240 0 390 -161t150 -419q0 -230 -82.5 -409t-233.5 -279t-346 -100q-245 0 -398.5 155.5t-153.5 402.5zM1256 778q0 204 -106 318t-298 114q-143 0 -258 -86.5t-179.5 -239.5t-64.5 -344q0 -196 108 -304t302 -108q221 0 358.5 179.5t137.5 470.5z" />
    <glyph glyph-name="uni1ECF" unicode="&#x1ecf;" horiz-adv-x="1136" 
d="M676 1146q7 41 35 72.5t97 81.5q42 29 61 49.5t23 44.5q6 33 -13.5 52.5t-58.5 19.5q-43 0 -76 -22.5t-48 -63.5h-126q31 90 99 138t161 48q98 0 148.5 -47.5t35.5 -126.5q-7 -46 -31.5 -76.5t-82.5 -71.5q-46 -26 -67 -47.5t-27 -50.5h-130zM168 430q0 173 69.5 315
t191 222.5t269.5 80.5q200 0 321 -122t121 -326q0 -173 -69.5 -315.5t-191 -223.5t-269.5 -81q-200 0 -321 123t-121 327zM986 602q0 144 -78.5 225t-219.5 81q-150 0 -257 -135.5t-107 -342.5q0 -148 78.5 -229t219.5 -81q149 0 256.5 137.5t107.5 344.5z" />
    <glyph glyph-name="uni1ED0" unicode="&#x1ed0;" horiz-adv-x="1374" 
d="M1708 1964l-314 -326h-136l260 326h190zM916 1776h150l264 -342h-152l-190 254l-280 -254h-178zM194 542q0 229 87 414.5t241.5 290.5t345.5 105q240 0 390 -161t150 -419q0 -230 -82.5 -409t-233.5 -279t-346 -100q-245 0 -398.5 155.5t-153.5 402.5zM1256 778
q0 204 -106 318t-298 114q-143 0 -258 -86.5t-179.5 -239.5t-64.5 -344q0 -196 108 -304t302 -108q221 0 358.5 179.5t137.5 470.5z" />
    <glyph glyph-name="uni1ED1" unicode="&#x1ed1;" horiz-adv-x="1136" 
d="M1474 1718l-312 -326h-138l260 326h190zM720 1488h152l264 -342h-152l-192 254l-278 -254h-178zM168 430q0 173 69.5 315t191 222.5t269.5 80.5q200 0 321 -122t121 -326q0 -173 -69.5 -315.5t-191 -223.5t-269.5 -81q-200 0 -321 123t-121 327zM986 602q0 144 -78.5 225
t-219.5 81q-150 0 -257 -135.5t-107 -342.5q0 -148 78.5 -229t219.5 -81q149 0 256.5 137.5t107.5 344.5z" />
    <glyph glyph-name="uni1ED2" unicode="&#x1ed2;" horiz-adv-x="1374" 
d="M1120 1964h170l190 -326h-122zM916 1776h150l264 -342h-152l-190 254l-280 -254h-178zM194 542q0 229 87 414.5t241.5 290.5t345.5 105q240 0 390 -161t150 -419q0 -230 -82.5 -409t-233.5 -279t-346 -100q-245 0 -398.5 155.5t-153.5 402.5zM1256 778q0 204 -106 318
t-298 114q-143 0 -258 -86.5t-179.5 -239.5t-64.5 -344q0 -196 108 -304t302 -108q221 0 358.5 179.5t137.5 470.5z" />
    <glyph glyph-name="uni1ED3" unicode="&#x1ed3;" horiz-adv-x="1136" 
d="M894 1718h168l190 -326h-122zM720 1488h152l264 -342h-152l-192 254l-278 -254h-178zM168 430q0 173 69.5 315t191 222.5t269.5 80.5q200 0 321 -122t121 -326q0 -173 -69.5 -315.5t-191 -223.5t-269.5 -81q-200 0 -321 123t-121 327zM986 602q0 144 -78.5 225t-219.5 81
q-150 0 -257 -135.5t-107 -342.5q0 -148 78.5 -229t219.5 -81q149 0 256.5 137.5t107.5 344.5z" />
    <glyph glyph-name="uni1ED4" unicode="&#x1ed4;" horiz-adv-x="1374" 
d="M1270 1638q9 41 36.5 73t95.5 81q43 29 62.5 50t23.5 46q6 32 -14 51t-60 19q-90 0 -124 -86h-126q33 90 100.5 138t159.5 48q99 0 150 -47.5t36 -126.5q-9 -47 -33 -77.5t-81 -70.5q-48 -27 -69 -47.5t-27 -50.5h-130zM916 1776h150l264 -342h-152l-190 254l-280 -254
h-178zM194 542q0 229 87 414.5t241.5 290.5t345.5 105q240 0 390 -161t150 -419q0 -230 -82.5 -409t-233.5 -279t-346 -100q-245 0 -398.5 155.5t-153.5 402.5zM1256 778q0 204 -106 318t-298 114q-143 0 -258 -86.5t-179.5 -239.5t-64.5 -344q0 -196 108 -304t302 -108
q221 0 358.5 179.5t137.5 470.5z" />
    <glyph glyph-name="uni1ED5" unicode="&#x1ed5;" horiz-adv-x="1136" 
d="M1054 1394q9 41 36.5 73t95.5 81q43 29 62.5 50t23.5 46q6 31 -14.5 50.5t-59.5 19.5q-90 0 -124 -86h-126q33 90 100 138t160 48q99 0 149.5 -47t36.5 -127q-9 -47 -33 -77.5t-81 -70.5q-49 -27 -69.5 -47.5t-26.5 -50.5h-130zM720 1488h152l264 -342h-152l-192 254
l-278 -254h-178zM168 430q0 173 69.5 315t191 222.5t269.5 80.5q200 0 321 -122t121 -326q0 -173 -69.5 -315.5t-191 -223.5t-269.5 -81q-200 0 -321 123t-121 327zM986 602q0 144 -78.5 225t-219.5 81q-150 0 -257 -135.5t-107 -342.5q0 -148 78.5 -229t219.5 -81
q149 0 256.5 137.5t107.5 344.5z" />
    <glyph glyph-name="uni1ED6" unicode="&#x1ed6;" horiz-adv-x="1374" 
d="M892 2186q41 0 75.5 -18t50 -35.5t40.5 -50.5q18 -25 24.5 -33t22 -24t30 -21.5t33.5 -5.5q48 0 85.5 47.5t50.5 128.5h114q-26 -138 -96 -219t-166 -81q-31 0 -54 6.5t-44 24.5t-28.5 26.5t-29.5 34.5q-5 7 -18.5 26.5t-20.5 28t-19 20.5t-24.5 16.5t-27.5 4.5
q-48 0 -85.5 -49t-50.5 -131h-120q27 145 94 224.5t164 79.5zM916 1776h150l264 -342h-152l-190 254l-280 -254h-178zM194 542q0 229 87 414.5t241.5 290.5t345.5 105q240 0 390 -161t150 -419q0 -230 -82.5 -409t-233.5 -279t-346 -100q-245 0 -398.5 155.5t-153.5 402.5z
M1256 778q0 204 -106 318t-298 114q-143 0 -258 -86.5t-179.5 -239.5t-64.5 -344q0 -196 108 -304t302 -108q221 0 358.5 179.5t137.5 470.5z" />
    <glyph glyph-name="uni1ED7" unicode="&#x1ed7;" horiz-adv-x="1136" 
d="M714 1900q41 0 75.5 -18t50 -35.5t40.5 -50.5q39 -54 57 -68q24 -18 53 -18q48 0 85.5 48.5t50.5 129.5h114q-25 -139 -95.5 -219.5t-166.5 -80.5q-31 0 -54 6.5t-44 24.5t-28.5 26.5t-29.5 34.5q-5 7 -18.5 26.5t-20.5 28t-19 20.5t-24.5 16.5t-27.5 4.5
q-48 0 -85 -49.5t-51 -130.5h-120q27 145 94 224.5t164 79.5zM720 1488h152l264 -342h-152l-192 254l-278 -254h-178zM168 430q0 173 69.5 315t191 222.5t269.5 80.5q200 0 321 -122t121 -326q0 -173 -69.5 -315.5t-191 -223.5t-269.5 -81q-200 0 -321 123t-121 327z
M986 602q0 144 -78.5 225t-219.5 81q-150 0 -257 -135.5t-107 -342.5q0 -148 78.5 -229t219.5 -81q149 0 256.5 137.5t107.5 344.5z" />
    <glyph glyph-name="uni1ED8" unicode="&#x1ed8;" horiz-adv-x="1374" 
d="M912 1776h152l264 -342h-154l-190 254l-278 -254h-178zM194 542q0 229 87 414.5t241.5 290.5t345.5 105q240 0 390 -161t150 -419q0 -230 -82.5 -409t-233.5 -279t-346 -100q-245 0 -398.5 155.5t-153.5 402.5zM1256 778q0 204 -106 318t-298 114q-143 0 -258 -86.5
t-179.5 -239.5t-64.5 -344q0 -196 108 -304t302 -108q221 0 358.5 179.5t137.5 470.5zM568 -142h178l-28 -170h-180z" />
    <glyph glyph-name="uni1ED9" unicode="&#x1ed9;" horiz-adv-x="1136" 
d="M720 1488h152l264 -342h-152l-192 254l-278 -254h-178zM168 430q0 173 69.5 315t191 222.5t269.5 80.5q200 0 321 -122t121 -326q0 -173 -69.5 -315.5t-191 -223.5t-269.5 -81q-200 0 -321 123t-121 327zM986 602q0 144 -78.5 225t-219.5 81q-150 0 -257 -135.5
t-107 -342.5q0 -148 78.5 -229t219.5 -81q149 0 256.5 137.5t107.5 344.5zM454 -142h178l-28 -170h-180z" />
    <glyph glyph-name="uni1EDA" unicode="&#x1eda;" horiz-adv-x="1374" 
d="M1202 1760l-314 -326h-136l260 326h190zM194 542q0 167 52.5 317t142 258t214.5 171.5t265 63.5q89 0 158 -20h240q66 0 107 31.5t55 116.5l12 68h134l-16 -80q-11 -69 -41.5 -120t-72.5 -78.5t-85.5 -40.5t-90.5 -13h-28q168 -159 168 -444q0 -224 -84.5 -404t-236 -282
t-341.5 -102q-251 0 -401.5 151.5t-150.5 406.5zM1256 778q0 204 -106.5 318t-297.5 114q-143 0 -258 -86.5t-179.5 -239.5t-64.5 -344q0 -195 108 -303.5t302 -108.5q221 0 358.5 179.5t137.5 470.5z" />
    <glyph glyph-name="uni1EDB" unicode="&#x1edb;" horiz-adv-x="1136" 
d="M1032 1470l-312 -324h-138l260 324h190zM168 430q0 173 69.5 315t191 222.5t269.5 80.5q83 0 164 -26h152q65 0 106 32.5t56 117.5l12 66h132l-14 -78q-12 -65 -39.5 -114.5t-66 -78t-79 -43t-85.5 -16.5q104 -123 104 -308q0 -173 -69.5 -315.5t-191 -223.5t-269.5 -81
q-200 0 -321 123t-121 327zM986 602q0 144 -78.5 225t-219.5 81q-150 0 -257 -135.5t-107 -342.5q0 -148 78.5 -229t219.5 -81q149 0 256.5 137.5t107.5 344.5z" />
    <glyph glyph-name="uni1EDC" unicode="&#x1edc;" horiz-adv-x="1374" 
d="M630 1760h168l190 -326h-122zM194 542q0 167 52.5 317t142 258t214.5 171.5t265 63.5q89 0 158 -20h240q66 0 107 31.5t55 116.5l12 68h134l-16 -80q-11 -69 -41.5 -120t-72.5 -78.5t-85.5 -40.5t-90.5 -13h-28q168 -159 168 -444q0 -224 -84.5 -404t-236 -282
t-341.5 -102q-251 0 -401.5 151.5t-150.5 406.5zM1256 778q0 204 -106.5 318t-297.5 114q-143 0 -258 -86.5t-179.5 -239.5t-64.5 -344q0 -195 108 -303.5t302 -108.5q221 0 358.5 179.5t137.5 470.5z" />
    <glyph glyph-name="uni1EDD" unicode="&#x1edd;" horiz-adv-x="1136" 
d="M460 1470h168l190 -324h-120zM168 430q0 173 69.5 315t191 222.5t269.5 80.5q83 0 164 -26h152q65 0 106 32.5t56 117.5l12 66h132l-14 -78q-12 -65 -39.5 -114.5t-66 -78t-79 -43t-85.5 -16.5q104 -123 104 -308q0 -173 -69.5 -315.5t-191 -223.5t-269.5 -81
q-200 0 -321 123t-121 327zM986 602q0 144 -78.5 225t-219.5 81q-150 0 -257 -135.5t-107 -342.5q0 -148 78.5 -229t219.5 -81q149 0 256.5 137.5t107.5 344.5z" />
    <glyph glyph-name="uni1EDE" unicode="&#x1ede;" horiz-adv-x="1374" 
d="M798 1434q9 41 36.5 73t95.5 81q43 29 62.5 50t23.5 46q6 31 -14.5 50.5t-59.5 19.5q-90 0 -124 -86h-126q33 90 100 138t160 48q99 0 149.5 -47t36.5 -127q-9 -47 -33 -77.5t-81 -70.5q-49 -27 -69.5 -47.5t-26.5 -50.5h-130zM194 542q0 167 52.5 317t142 258
t214.5 171.5t265 63.5q89 0 158 -20h240q66 0 107 31.5t55 116.5l12 68h134l-16 -80q-11 -69 -41.5 -120t-72.5 -78.5t-85.5 -40.5t-90.5 -13h-28q168 -159 168 -444q0 -224 -84.5 -404t-236 -282t-341.5 -102q-251 0 -401.5 151.5t-150.5 406.5zM1256 778q0 204 -106.5 318
t-297.5 114q-143 0 -258 -86.5t-179.5 -239.5t-64.5 -344q0 -195 108 -303.5t302 -108.5q221 0 358.5 179.5t137.5 470.5z" />
    <glyph glyph-name="uni1EDF" unicode="&#x1edf;" horiz-adv-x="1136" 
d="M628 1146q7 41 35 72.5t97 81.5q42 30 61 50.5t23 43.5q6 33 -14 52.5t-60 19.5q-42 0 -74.5 -22.5t-49.5 -63.5h-124q31 90 98.5 138t159.5 48q99 0 150 -47.5t36 -126.5q-9 -47 -33 -77.5t-81 -70.5q-47 -27 -68.5 -48t-27.5 -50h-128zM168 430q0 173 69.5 315
t191 222.5t269.5 80.5q83 0 164 -26h152q65 0 106 32.5t56 117.5l12 66h132l-14 -78q-12 -65 -39.5 -114.5t-66 -78t-79 -43t-85.5 -16.5q104 -123 104 -308q0 -173 -69.5 -315.5t-191 -223.5t-269.5 -81q-200 0 -321 123t-121 327zM986 602q0 144 -78.5 225t-219.5 81
q-150 0 -257 -135.5t-107 -342.5q0 -148 78.5 -229t219.5 -81q149 0 256.5 137.5t107.5 344.5z" />
    <glyph glyph-name="uni1EE0" unicode="&#x1ee0;" horiz-adv-x="1374" 
d="M748 1738q40 0 74.5 -18.5t49.5 -35t42 -50.5q20 -30 31 -44t32.5 -28t44.5 -14q48 0 85.5 48.5t50.5 129.5h114q-24 -139 -94 -219.5t-168 -80.5q-39 0 -71 16t-46 31t-37 45q-5 7 -24 33t-27 34t-24.5 18.5t-34.5 10.5q-48 0 -85 -49.5t-51 -130.5h-120
q26 145 93 224.5t165 79.5zM194 542q0 167 52.5 317t142 258t214.5 171.5t265 63.5q89 0 158 -20h240q66 0 107 31.5t55 116.5l12 68h134l-16 -80q-11 -69 -41.5 -120t-72.5 -78.5t-85.5 -40.5t-90.5 -13h-28q168 -159 168 -444q0 -224 -84.5 -404t-236 -282t-341.5 -102
q-251 0 -401.5 151.5t-150.5 406.5zM1256 778q0 204 -106.5 318t-297.5 114q-143 0 -258 -86.5t-179.5 -239.5t-64.5 -344q0 -195 108 -303.5t302 -108.5q221 0 358.5 179.5t137.5 470.5z" />
    <glyph glyph-name="uni1EE1" unicode="&#x1ee1;" horiz-adv-x="1136" 
d="M576 1450q40 0 74 -18t51 -36t41 -50q39 -54 57 -68q24 -18 53 -18q48 0 84.5 48t51.5 128h112q-24 -138 -94.5 -218t-167.5 -80q-39 0 -70.5 15.5t-45 30t-38.5 46.5q-5 7 -18.5 26.5t-20.5 28t-19 20.5t-24.5 16.5t-27.5 4.5q-48 0 -85 -49.5t-51 -130.5h-120
q26 144 93 224t165 80zM168 430q0 173 69.5 315t191 222.5t269.5 80.5q83 0 164 -26h152q65 0 106 32.5t56 117.5l12 66h132l-14 -78q-12 -65 -39.5 -114.5t-66 -78t-79 -43t-85.5 -16.5q104 -123 104 -308q0 -173 -69.5 -315.5t-191 -223.5t-269.5 -81q-200 0 -321 123
t-121 327zM986 602q0 144 -78.5 225t-219.5 81q-150 0 -257 -135.5t-107 -342.5q0 -148 78.5 -229t219.5 -81q149 0 256.5 137.5t107.5 344.5z" />
    <glyph glyph-name="uni1EE2" unicode="&#x1ee2;" horiz-adv-x="1374" 
d="M194 542q0 167 52.5 317t142 258t214.5 171.5t265 63.5q89 0 158 -20h240q66 0 107 31.5t55 116.5l12 68h134l-16 -80q-11 -69 -41.5 -120t-72.5 -78.5t-85.5 -40.5t-90.5 -13h-28q168 -159 168 -444q0 -224 -84.5 -404t-236 -282t-341.5 -102q-251 0 -401.5 151.5
t-150.5 406.5zM1256 778q0 204 -106.5 318t-297.5 114q-143 0 -258 -86.5t-179.5 -239.5t-64.5 -344q0 -195 108 -303.5t302 -108.5q221 0 358.5 179.5t137.5 470.5zM562 -142h178l-28 -170h-180z" />
    <glyph glyph-name="uni1EE3" unicode="&#x1ee3;" horiz-adv-x="1136" 
d="M168 430q0 173 69.5 315t191 222.5t269.5 80.5q83 0 164 -26h152q65 0 106 32.5t56 117.5l12 66h132l-14 -78q-12 -65 -39.5 -114.5t-66 -78t-79 -43t-85.5 -16.5q104 -123 104 -308q0 -173 -69.5 -315.5t-191 -223.5t-269.5 -81q-200 0 -321 123t-121 327zM986 602
q0 144 -78.5 225t-219.5 81q-150 0 -257 -135.5t-107 -342.5q0 -148 78.5 -229t219.5 -81q149 0 256.5 137.5t107.5 344.5zM452 -142h178l-30 -170h-178z" />
    <glyph glyph-name="uni1EE4" unicode="&#x1ee4;" horiz-adv-x="1204" 
d="M332 1332h152l-140 -792q-35 -191 53 -301.5t275 -110.5q148 0 246 92.5t128 259.5l146 852h152l-152 -868q-39 -218 -183 -349t-345 -131q-164 0 -280.5 71t-167 201t-20.5 296zM492 -142h178l-28 -170h-180z" />
    <glyph glyph-name="uni1EE5" unicode="&#x1ee5;" horiz-adv-x="1060" 
d="M328 434q-26 -145 31 -228.5t185 -83.5q132 0 220 79.5t108 216.5h2l106 606h148l-178 -1024h-150l26 148q-64 -79 -152 -122.5t-186 -43.5q-110 0 -190 59t-113 159t-11 218l108 606h152zM440 -142h178l-28 -170h-180z" />
    <glyph glyph-name="uni1EE6" unicode="&#x1ee6;" horiz-adv-x="1204" 
d="M794 1434q7 41 35 72.5t97 81.5q42 30 61 50.5t23 45.5q6 32 -13.5 51t-58.5 19q-92 0 -126 -86h-124q31 90 99 138t161 48q98 0 148.5 -47.5t35.5 -126.5q-7 -46 -31.5 -76.5t-82.5 -71.5q-47 -27 -67.5 -47.5t-26.5 -50.5h-130zM332 1332h152l-140 -792
q-35 -191 53 -301.5t275 -110.5q148 0 246 92.5t128 259.5l146 852h152l-152 -868q-39 -218 -183 -349t-345 -131q-164 0 -280.5 71t-167 201t-20.5 296z" />
    <glyph glyph-name="uni1EE7" unicode="&#x1ee7;" horiz-adv-x="1060" 
d="M652 1146q7 41 35 72.5t97 81.5q42 29 61 50t23 46q6 32 -13.5 51t-58.5 19q-90 0 -124 -86h-126q31 90 99 138t161 48q99 0 149 -47.5t35 -126.5q-7 -46 -31.5 -76.5t-82.5 -71.5q-47 -27 -67.5 -47.5t-26.5 -50.5h-130zM328 434q-26 -145 31 -228.5t185 -83.5
q132 0 220 79.5t108 216.5h2l106 606h148l-178 -1024h-150l26 148q-64 -79 -152 -122.5t-186 -43.5q-110 0 -190 59t-113 159t-11 218l108 606h152z" />
    <glyph glyph-name="uni1EE8" unicode="&#x1ee8;" horiz-adv-x="1218" 
d="M1186 1760l-312 -326h-136l258 326h190zM332 1332h152l-140 -792q-35 -191 53 -301.5t275 -110.5q148 0 246 92.5t128 259.5l146 852h152v-2q60 3 98 36t52 114l12 66h134l-16 -78q-11 -69 -41.5 -120t-72.5 -78.5t-85.5 -40.5t-90.5 -13h-10l-132 -752
q-39 -218 -183 -349t-345 -131q-249 0 -381 158.5t-87 411.5z" />
    <glyph glyph-name="uni1EE9" unicode="&#x1ee9;" horiz-adv-x="1076" 
d="M1054 1472l-314 -326h-136l260 326h190zM328 434q-26 -145 31 -228.5t185 -83.5q132 0 220 79.5t108 216.5h2l104 598v8h140q65 0 106 32.5t56 117.5l12 66h132l-14 -78q-11 -69 -41.5 -120t-72.5 -78.5t-86.5 -40.5t-91.5 -13h-10l-158 -910h-150l26 148
q-64 -79 -152 -122.5t-186 -43.5q-110 0 -190 59t-113 159t-11 218l108 606h152z" />
    <glyph glyph-name="uni1EEA" unicode="&#x1eea;" horiz-adv-x="1218" 
d="M614 1760h168l190 -326h-120zM332 1332h152l-140 -792q-35 -191 53 -301.5t275 -110.5q148 0 246 92.5t128 259.5l146 852h152v-2q60 3 98 36t52 114l12 66h134l-16 -78q-11 -69 -41.5 -120t-72.5 -78.5t-85.5 -40.5t-90.5 -13h-10l-132 -752q-39 -218 -183 -349
t-345 -131q-249 0 -381 158.5t-87 411.5z" />
    <glyph glyph-name="uni1EEB" unicode="&#x1eeb;" horiz-adv-x="1076" 
d="M482 1472h168l190 -326h-122zM328 434q-26 -145 31 -228.5t185 -83.5q132 0 220 79.5t108 216.5h2l104 598v8h140q65 0 106 32.5t56 117.5l12 66h132l-14 -78q-11 -69 -41.5 -120t-72.5 -78.5t-86.5 -40.5t-91.5 -13h-10l-158 -910h-150l26 148q-64 -79 -152 -122.5
t-186 -43.5q-110 0 -190 59t-113 159t-11 218l108 606h152z" />
    <glyph glyph-name="uni1EEC" unicode="&#x1eec;" horiz-adv-x="1218" 
d="M784 1434q7 41 35 72.5t97 81.5q42 30 61 50.5t23 45.5q6 32 -13.5 51t-58.5 19q-92 0 -126 -86h-124q31 90 99 138t161 48q98 0 148.5 -47.5t35.5 -126.5q-7 -46 -31.5 -76.5t-82.5 -71.5q-47 -27 -67.5 -47.5t-26.5 -50.5h-130zM332 1332h152l-140 -792
q-35 -191 53 -301.5t275 -110.5q148 0 246 92.5t128 259.5l146 852h152v-2q60 3 98 36t52 114l12 66h134l-16 -78q-11 -69 -41.5 -120t-72.5 -78.5t-85.5 -40.5t-90.5 -13h-10l-132 -752q-39 -218 -183 -349t-345 -131q-249 0 -381 158.5t-87 411.5z" />
    <glyph glyph-name="uni1EED" unicode="&#x1eed;" horiz-adv-x="1076" 
d="M650 1146q9 41 36.5 73t95.5 81q43 29 62.5 50t23.5 46q6 31 -14.5 50.5t-59.5 19.5q-90 0 -124 -86h-126q33 90 100 138t160 48q99 0 149.5 -47t36.5 -127q-9 -47 -33 -77.5t-81 -70.5q-49 -27 -69.5 -47.5t-26.5 -50.5h-130zM328 434q-26 -145 31 -228.5t185 -83.5
q132 0 220 79.5t108 216.5h2l104 598v8h140q65 0 106 32.5t56 117.5l12 66h132l-14 -78q-11 -69 -41.5 -120t-72.5 -78.5t-86.5 -40.5t-91.5 -13h-10l-158 -910h-150l26 148q-64 -79 -152 -122.5t-186 -43.5q-110 0 -190 59t-113 159t-11 218l108 606h152z" />
    <glyph glyph-name="uni1EEE" unicode="&#x1eee;" horiz-adv-x="1218" 
d="M732 1738q41 0 75.5 -18t50 -35.5t40.5 -50.5q39 -54 57 -68q24 -18 53 -18q48 0 85.5 48.5t50.5 129.5h114q-25 -139 -95.5 -219.5t-166.5 -80.5q-31 0 -54 6.5t-44 24.5t-28.5 26.5t-29.5 34.5q-5 7 -18.5 26.5t-20.5 28t-19 20.5t-24.5 16.5t-27.5 4.5
q-48 0 -85 -49.5t-51 -130.5h-120q27 145 94 224.5t164 79.5zM332 1332h152l-140 -792q-35 -191 53 -301.5t275 -110.5q148 0 246 92.5t128 259.5l146 852h152v-2q60 3 98 36t52 114l12 66h134l-16 -78q-11 -69 -41.5 -120t-72.5 -78.5t-85.5 -40.5t-90.5 -13h-10l-132 -752
q-39 -218 -183 -349t-345 -131q-249 0 -381 158.5t-87 411.5z" />
    <glyph glyph-name="uni1EEF" unicode="&#x1eef;" horiz-adv-x="1076" 
d="M600 1450q40 0 74.5 -18.5t49.5 -35t42 -50.5q20 -30 31 -44t32.5 -28t44.5 -14q48 0 85.5 48.5t50.5 129.5h114q-24 -139 -94 -219.5t-168 -80.5q-39 0 -71 16t-46 31t-37 45q-5 7 -24 33t-27 34t-24.5 18.5t-34.5 10.5q-48 0 -85 -49.5t-51 -130.5h-120
q26 145 93 224.5t165 79.5zM328 434q-26 -145 31 -228.5t185 -83.5q132 0 220 79.5t108 216.5h2l104 598v8h140q65 0 106 32.5t56 117.5l12 66h132l-14 -78q-11 -69 -41.5 -120t-72.5 -78.5t-86.5 -40.5t-91.5 -13h-10l-158 -910h-150l26 148q-64 -79 -152 -122.5
t-186 -43.5q-110 0 -190 59t-113 159t-11 218l108 606h152z" />
    <glyph glyph-name="uni1EF0" unicode="&#x1ef0;" horiz-adv-x="1218" 
d="M332 1332h152l-140 -792q-35 -191 53 -301.5t275 -110.5q148 0 246 92.5t128 259.5l146 852h152v-2q60 3 98 36t52 114l12 66h134l-16 -78q-11 -69 -41.5 -120t-72.5 -78.5t-85.5 -40.5t-90.5 -13h-10l-132 -752q-39 -218 -183 -349t-345 -131q-249 0 -381 158.5
t-87 411.5zM484 -142h178l-28 -170h-180z" />
    <glyph glyph-name="uni1EF1" unicode="&#x1ef1;" horiz-adv-x="1076" 
d="M328 434q-26 -145 31 -228.5t185 -83.5q132 0 220 79.5t108 216.5h2l104 598v8h140q65 0 106 32.5t56 117.5l12 66h132l-14 -78q-11 -69 -41.5 -120t-72.5 -78.5t-86.5 -40.5t-91.5 -13h-10l-158 -910h-150l26 148q-64 -79 -152 -122.5t-186 -43.5q-110 0 -190 59
t-113 159t-11 218l108 606h152zM386 -142h178l-28 -170h-180z" />
    <glyph glyph-name="Ygrave" unicode="&#x1ef2;" horiz-adv-x="1190" 
d="M624 1760h168l190 -326h-120zM600 458l-298 874h162l230 -700l484 700h186l-616 -874l-80 -458h-150z" />
    <glyph glyph-name="ygrave" unicode="&#x1ef3;" horiz-adv-x="1114" 
d="M534 1472h170l190 -326h-122zM86 -180h146q71 0 113 29t83 103l38 76l-218 996h156l180 -840l466 840h176l-614 -1088q-81 -142 -159.5 -202t-192.5 -60h-194z" />
    <glyph glyph-name="uni1EF4" unicode="&#x1ef4;" horiz-adv-x="1190" 
d="M600 458l-298 874h162l230 -700l484 700h186l-616 -874l-80 -458h-150zM482 -142h178l-28 -170h-180z" />
    <glyph glyph-name="uni1EF5" unicode="&#x1ef5;" horiz-adv-x="1114" 
d="M86 -180h146q71 0 113 29t83 103l38 76l-218 996h156l180 -840l466 840h176l-614 -1088q-81 -142 -159.5 -202t-192.5 -60h-194zM688 -142h178l-28 -170h-180z" />
    <glyph glyph-name="uni1EF6" unicode="&#x1ef6;" horiz-adv-x="1190" 
d="M794 1434q7 41 35 72.5t97 81.5q42 30 61 50.5t23 45.5q6 32 -13.5 51t-58.5 19q-92 0 -126 -86h-124q31 90 99 138t161 48q98 0 148.5 -47.5t35.5 -126.5q-7 -46 -31.5 -76.5t-82.5 -71.5q-47 -27 -67.5 -47.5t-26.5 -50.5h-130zM600 458l-298 874h162l230 -700l484 700
h186l-616 -874l-80 -458h-150z" />
    <glyph glyph-name="uni1EF7" unicode="&#x1ef7;" horiz-adv-x="1114" 
d="M704 1146q7 41 35 72.5t97 81.5q42 29 61 50t23 46q6 32 -13.5 51t-58.5 19q-90 0 -124 -86h-126q31 90 99 138t161 48q99 0 149 -47.5t35 -126.5q-7 -46 -31.5 -76.5t-82.5 -71.5q-47 -27 -67.5 -47.5t-26.5 -50.5h-130zM86 -180h146q71 0 113 29t83 103l38 76l-218 996
h156l180 -840l466 840h176l-614 -1088q-81 -142 -159.5 -202t-192.5 -60h-194z" />
    <glyph glyph-name="uni1EF8" unicode="&#x1ef8;" horiz-adv-x="1190" 
d="M742 1738q41 0 75.5 -18t50 -35.5t40.5 -50.5q39 -54 57 -68q24 -18 53 -18q48 0 85.5 48.5t50.5 129.5h114q-25 -139 -95.5 -219.5t-166.5 -80.5q-31 0 -54 6.5t-44 24.5t-28.5 26.5t-29.5 34.5q-5 7 -18.5 26.5t-20.5 28t-19 20.5t-24.5 16.5t-27.5 4.5
q-48 0 -85 -49.5t-51 -130.5h-120q27 145 94 224.5t164 79.5zM600 458l-298 874h162l230 -700l484 700h186l-616 -874l-80 -458h-150z" />
    <glyph glyph-name="uni1EF9" unicode="&#x1ef9;" horiz-adv-x="1114" 
d="M652 1450q31 0 56.5 -8t47.5 -27t32.5 -31t31.5 -38q22 -32 31.5 -44.5t31 -27t45.5 -14.5q48 0 85.5 48.5t50.5 129.5h114q-24 -139 -95 -219.5t-167 -80.5q-31 0 -54 6.5t-44 24.5t-28.5 26.5t-29.5 34.5q-5 7 -18.5 26.5t-20.5 28t-19 20.5t-24.5 16.5t-27.5 4.5
q-46 0 -83.5 -49.5t-52.5 -130.5h-118q26 145 92.5 224.5t163.5 79.5zM86 -180h146q71 0 113 29t83 103l38 76l-218 996h156l180 -840l466 840h176l-614 -1088q-81 -142 -159.5 -202t-192.5 -60h-194z" />
    <glyph glyph-name="endash" unicode="&#x2013;" horiz-adv-x="1354" 
d="M180 634h1218l-24 -138h-1218z" />
    <glyph glyph-name="emdash" unicode="&#x2014;" horiz-adv-x="2016" 
d="M180 634h1882l-26 -138h-1880z" />
    <glyph glyph-name="quoteleft" unicode="&#x2018;" 
d="M430 962h-180l34 188l128 284h114l-170 -284h106z" />
    <glyph glyph-name="quoteright" unicode="&#x2019;" 
d="M348 1434h178l-34 -188l-128 -284h-114l172 284h-108z" />
    <glyph glyph-name="quotesinglbase" unicode="&#x201a;" 
d="M128 188h178l-32 -188l-130 -284h-112l170 284h-108z" />
    <glyph glyph-name="quotereversed" unicode="&#x201b;" 
d="M512 1434l-34 -188h-106l70 -284h-114l-26 284l30 188h180z" />
    <glyph glyph-name="quotedblleft" unicode="&#x201c;" horiz-adv-x="648" 
d="M710 962h-178l34 188l128 284h114l-172 -284h108zM430 962h-180l34 188l128 284h114l-170 -284h106z" />
    <glyph glyph-name="quotedblright" unicode="&#x201d;" horiz-adv-x="648" 
d="M348 1434h178l-34 -188l-128 -284h-114l172 284h-108zM628 1434h180l-34 -188l-126 -284h-116l170 284h-106z" />
    <glyph glyph-name="quotedblbase" unicode="&#x201e;" horiz-adv-x="648" 
d="M128 188h178l-32 -188l-130 -284h-112l170 284h-108zM408 188h180l-34 -188l-128 -284h-114l172 284h-108z" />
    <glyph glyph-name="uni201F" unicode="&#x201f;" horiz-adv-x="648" 
d="M796 1434l-34 -188h-108l72 -284h-116l-28 284l34 188h180zM512 1434l-34 -188h-106l70 -284h-114l-26 284l30 188h180z" />
    <glyph glyph-name="dagger" unicode="&#x2020;" horiz-adv-x="674" 
d="M420 892h-196l24 132h194l48 266h150l-46 -266h194l-24 -132h-194l-158 -892h-150z" />
    <glyph glyph-name="daggerdbl" unicode="&#x2021;" horiz-adv-x="674" 
d="M594 1024h194l-24 -132h-194l-88 -494h196l-24 -132h-194l-48 -266h-150l48 266h-196l24 132h194l88 494h-196l24 132h194l48 266h150z" />
    <glyph glyph-name="bullet" unicode="&#x2022;" horiz-adv-x="454" 
d="M208 750q0 63 44.5 107.5t107.5 44.5t108.5 -44.5t45.5 -107.5q0 -64 -45.5 -109t-108.5 -45t-107.5 45t-44.5 109z" />
    <glyph glyph-name="uni2023" unicode="&#x2023;" horiz-adv-x="454" 
d="M172 552l70 392l270 -218z" />
    <glyph glyph-name="ellipsis" unicode="&#x2026;" horiz-adv-x="1092" 
d="M852 188h180l-34 -188h-176zM492 188h178l-32 -188h-180zM128 188h178l-32 -188h-180z" />
    <glyph glyph-name="perthousand" unicode="&#x2030;" horiz-adv-x="2556" 
d="M222 868q0 206 110 346t272 140q136 0 218 -91t82 -243q0 -205 -110.5 -346.5t-269.5 -141.5q-138 0 -220 91.5t-82 244.5zM1322 1332h150l-782 -1332h-150zM768 1020q0 99 -45.5 153.5t-126.5 54.5q-102 0 -169 -103t-67 -259q0 -99 45.5 -153.5t128.5 -54.5
q100 0 167 103.5t67 258.5zM1884 316q0 207 111 346.5t273 139.5q138 0 220 -91t82 -243q0 -204 -111 -346t-271 -142q-138 0 -221 91.5t-83 244.5zM1102 316q0 206 110.5 346t271.5 140q138 0 220 -91t82 -243q0 -204 -111 -346t-271 -142q-137 0 -219.5 91.5t-82.5 244.5z
M2432 470q0 97 -45.5 151.5t-126.5 54.5q-102 0 -168 -102t-66 -258q0 -101 45 -155.5t127 -54.5q100 0 167 104t67 260zM1650 470q0 98 -46 152t-128 54q-101 0 -167.5 -102t-66.5 -258q0 -100 45.5 -155t126.5 -55q101 0 168.5 104t67.5 260z" />
    <glyph glyph-name="minute" unicode="&#x2032;" horiz-adv-x="516" 
d="M700 1332l-346 -324h-124l292 324h178z" />
    <glyph glyph-name="second" unicode="&#x2033;" horiz-adv-x="822" 
d="M1006 1332l-346 -324h-126l294 324h178zM700 1332l-346 -324h-124l292 324h178z" />
    <glyph glyph-name="uni2034" unicode="&#x2034;" horiz-adv-x="1128" 
d="M700 1332l-346 -324h-124l292 324h178zM1312 1332l-346 -324h-126l294 324h178zM1006 1332l-346 -324h-126l294 324h178z" />
    <glyph glyph-name="uni2035" unicode="&#x2035;" horiz-adv-x="516" 
d="M286 1332h178l180 -324h-126z" />
    <glyph glyph-name="uni2036" unicode="&#x2036;" horiz-adv-x="822" 
d="M286 1332h178l180 -324h-126zM592 1332h180l178 -324h-126z" />
    <glyph glyph-name="uni2037" unicode="&#x2037;" horiz-adv-x="1128" 
d="M898 1332h180l176 -324h-124zM286 1332h178l180 -324h-126zM592 1332h180l178 -324h-126z" />
    <glyph glyph-name="guilsinglleft" unicode="&#x2039;" horiz-adv-x="620" 
d="M754 1052l-34 -204l-428 -298l320 -308l-30 -160l-428 400l30 170z" />
    <glyph glyph-name="guilsinglright" unicode="&#x203a;" horiz-adv-x="620" 
d="M84 82l32 204l428 298l-320 308l30 160l428 -400l-30 -170z" />
    <glyph glyph-name="uni2070" unicode="&#x2070;" horiz-adv-x="814" 
d="M272 1138q33 184 145.5 296t264.5 112q150 0 222 -111.5t40 -296.5q-33 -186 -145 -299t-263 -113q-152 0 -224.5 113t-39.5 299zM804 1138q24 134 -13.5 208t-130.5 74q-94 0 -160 -74t-90 -208q-24 -136 15.5 -211t134.5 -75q93 0 156.5 74.5t87.5 211.5z" />
    <glyph glyph-name="uni2074" unicode="&#x2074;" horiz-adv-x="820" 
d="M778 938l-34 -192h-132l34 192h-412l24 136l464 462h162l-86 -482h146l-22 -116h-144zM666 1054l60 334l-334 -334h274z" />
    <glyph glyph-name="uni2075" unicode="&#x2075;" horiz-adv-x="770" 
d="M736 1008q14 74 -20.5 117t-111.5 43q-133 0 -208 -98h-134l136 466h532l-22 -120h-414l-64 -226q91 94 228 94q121 0 181.5 -76t40.5 -196q-24 -132 -122.5 -209t-239.5 -77q-133 0 -209 65.5t-67 170.5h142q-6 -53 35 -83.5t119 -30.5q82 0 133.5 40.5t64.5 119.5z" />
    <glyph glyph-name="uni2076" unicode="&#x2076;" horiz-adv-x="800" 
d="M272 1130q35 197 146 306.5t276 109.5q114 0 181.5 -59.5t68.5 -164.5h-142q-1 51 -34.5 77.5t-95.5 26.5q-205 0 -256 -280q-4 -32 -4 -48q40 71 111.5 113.5t150.5 42.5q120 0 184.5 -73t43.5 -187q-20 -116 -114 -190t-222 -74q-168 0 -247.5 108t-46.5 292zM432 992
q-11 -60 30 -100t114 -40q72 0 122 38.5t62 101.5q11 63 -26 100.5t-110 37.5q-76 0 -129 -37.5t-63 -100.5z" />
    <glyph glyph-name="uni2077" unicode="&#x2077;" horiz-adv-x="814" 
d="M534 746h-156q33 116 82 214.5t113 179t125 141t144 127.5h-522l22 128h670l-26 -148q-357 -272 -452 -642z" />
    <glyph glyph-name="uni2078" unicode="&#x2078;" horiz-adv-x="796" 
d="M552 850q85 0 137 29.5t63 82.5q9 59 -30.5 90.5t-121.5 31.5h-12q-87 0 -140 -31.5t-64 -88.5q-9 -54 35 -84t133 -30zM460 1304q-9 -52 30 -80t118 -28h12q155 0 174 108q11 57 -26 89.5t-114 32.5q-82 0 -132.5 -32.5t-61.5 -89.5zM676 1546q136 0 207 -63t53 -165
q-21 -121 -154 -178q63 -27 91.5 -76.5t18.5 -113.5q-18 -99 -116.5 -159.5t-243.5 -60.5q-149 0 -229.5 60.5t-62.5 159.5q10 64 58 113.5t124 76.5q-119 56 -98 178q18 102 115.5 165t236.5 63z" />
    <glyph glyph-name="uni2079" unicode="&#x2079;" horiz-adv-x="800" 
d="M924 1112q-33 -181 -142.5 -281.5t-275.5 -100.5q-122 0 -192.5 57t-73.5 159h142q6 -96 144 -96q213 0 258 262q2 8 3 16.5t1.5 18.5t1.5 15q-40 -70 -112 -112t-152 -42q-120 0 -185 75t-45 191q21 119 120 195.5t232 76.5q161 0 235.5 -117.5t40.5 -316.5zM772 1274
q12 64 -29 107t-113 43q-73 0 -123.5 -40.5t-62.5 -107.5q-12 -66 24.5 -107t109.5 -41q75 0 128.5 40t65.5 106z" />
    <glyph glyph-name="uni207A" unicode="&#x207a;" horiz-adv-x="756" 
d="M656 1216h248l-22 -126h-248l-44 -248h-126l44 248h-248l22 126h248l44 246h126z" />
    <glyph glyph-name="uni207B" unicode="&#x207b;" horiz-adv-x="756" 
d="M282 1216h622l-22 -126h-622z" />
    <glyph glyph-name="uni207C" unicode="&#x207c;" horiz-adv-x="756" 
d="M314 1394h620l-22 -126h-620zM252 1038h620l-22 -124h-620z" />
    <glyph glyph-name="uni207D" unicode="&#x207d;" horiz-adv-x="404" 
d="M478 588h-138q-61 83 -80.5 225.5t12.5 338.5q30 176 101 317t161 221h138q-198 -192 -258 -538q-64 -368 64 -564z" />
    <glyph glyph-name="uni207E" unicode="&#x207e;" horiz-adv-x="404" 
d="M328 1690h140q61 -83 79.5 -226t-13.5 -338q-32 -178 -101.5 -318.5t-158.5 -219.5h-140q199 196 258 538q64 368 -64 564z" />
    <glyph glyph-name="uni207F" unicode="&#x207f;" horiz-adv-x="890" 
d="M860 1218q19 108 -21.5 160t-130.5 52q-91 0 -160 -55.5t-84 -142.5l-86 -486h-138l140 790h138l-18 -102q55 59 127.5 92.5t142.5 33.5q128 0 193 -82t39 -228l-88 -504h-136z" />
    <glyph glyph-name="uni2080" unicode="&#x2080;" horiz-adv-x="814" 
d="M104 188q33 184 145.5 296t264.5 112q150 0 222.5 -112t39.5 -296q-33 -186 -144.5 -300t-261.5 -114q-153 0 -226 114t-40 300zM638 188q23 134 -15 208t-131 74q-95 0 -160.5 -74.5t-87.5 -207.5q-24 -136 14.5 -211t133.5 -75q93 0 157.5 75t88.5 211z" />
    <glyph glyph-name="uni2081" unicode="&#x2081;" horiz-adv-x="486" 
d="M378 586h136l-140 -790h-136l90 508h-222l20 116h88q70 0 106 23t48 83z" />
    <glyph glyph-name="uni2082" unicode="&#x2082;" horiz-adv-x="794" 
d="M202 -82h498l-22 -122h-642l6 34q8 46 26 86t38 68.5t53.5 55t58 42.5t67.5 34.5t66 27t69 24.5q100 35 153.5 69.5t64.5 94.5q12 68 -25.5 106t-118.5 38q-87 0 -147 -44t-77 -118h-142q31 126 139.5 204t248.5 78t212.5 -74.5t51.5 -197.5q-7 -39 -28.5 -73.5
t-49 -59.5t-69 -48.5t-76.5 -39t-83 -33.5q-156 -58 -203 -86q-52 -31 -69 -66z" />
    <glyph glyph-name="uni2083" unicode="&#x2083;" horiz-adv-x="800" 
d="M366 130l18 112h118q50 0 82.5 26.5t41.5 75.5q10 63 -28.5 97.5t-119.5 34.5q-75 0 -127.5 -35t-64.5 -95h-142q29 113 127.5 182.5t230.5 69.5q139 0 213 -67.5t55 -178.5q-21 -112 -126 -164q107 -54 86 -178q-20 -104 -119 -168t-243 -64q-139 0 -221 67.5t-71 174.5
h142q-5 -54 41.5 -86t128.5 -32q86 0 138.5 30.5t61.5 87.5q9 53 -18.5 81.5t-87.5 28.5h-116z" />
    <glyph glyph-name="uni2084" unicode="&#x2084;" horiz-adv-x="820" 
d="M610 -12l-32 -192h-134l34 192h-412l24 136l464 462h162l-84 -482h144l-20 -116h-146zM498 104l60 332l-332 -332h272z" />
    <glyph glyph-name="uni2085" unicode="&#x2085;" horiz-adv-x="770" 
d="M568 58q14 74 -20.5 117t-111.5 43q-130 0 -208 -98h-134l136 466h532l-20 -120h-416l-64 -226q91 94 230 94q122 0 181.5 -76t38.5 -196q-24 -133 -122.5 -210.5t-239.5 -77.5q-133 0 -209 66t-67 172h142q-6 -53 35 -83.5t119 -30.5q82 0 133.5 40.5t64.5 119.5z" />
    <glyph glyph-name="uni2086" unicode="&#x2086;" horiz-adv-x="800" 
d="M104 180q35 197 146 306.5t276 109.5q116 0 182.5 -59.5t67.5 -164.5h-142q-3 104 -128 104q-207 0 -258 -280q-4 -32 -4 -48q40 72 112 114t152 42q119 0 183 -74t43 -188q-19 -116 -113.5 -190t-222.5 -74q-168 0 -247.5 108.5t-46.5 293.5zM264 40q-10 -60 31 -99
t113 -39q74 0 124 37.5t60 100.5q11 63 -25.5 101.5t-108.5 38.5q-77 0 -130.5 -38.5t-63.5 -101.5z" />
    <glyph glyph-name="uni2087" unicode="&#x2087;" horiz-adv-x="814" 
d="M366 -204h-156q34 116 83 214.5t112.5 179t125 141t143.5 127.5h-522l24 128h668l-26 -150q-358 -272 -452 -640z" />
    <glyph glyph-name="uni2088" unicode="&#x2088;" horiz-adv-x="796" 
d="M386 -100q85 0 137 29.5t61 82.5q10 58 -29 89t-121 31h-14q-87 0 -140.5 -31t-63.5 -89q-9 -53 35.5 -82.5t134.5 -29.5zM294 354q-9 -52 29.5 -80t116.5 -28h14q74 0 119.5 28t54.5 80q9 58 -27.5 90t-114.5 32q-81 0 -132 -32.5t-60 -89.5zM508 596q136 0 207 -63
t53 -165q-21 -121 -154 -178q64 -27 93 -76.5t17 -113.5q-18 -99 -116.5 -160.5t-243.5 -61.5q-148 0 -229 61.5t-63 160.5q12 64 59.5 113.5t122.5 76.5q-119 56 -98 178q18 102 115.5 165t236.5 63z" />
    <glyph glyph-name="uni2089" unicode="&#x2089;" horiz-adv-x="800" 
d="M756 162q-32 -181 -142 -282.5t-276 -101.5q-121 0 -192 58t-74 160h142q6 -96 144 -96q213 0 258 262q6 27 6 50q-40 -70 -112 -112t-150 -42q-121 0 -186 75t-44 191q21 119 119.5 195.5t230.5 76.5q161 0 235.5 -117.5t40.5 -316.5zM604 324q12 65 -28.5 107.5
t-113.5 42.5q-72 0 -123 -41t-63 -107q-11 -66 25.5 -107t108.5 -41q76 0 130 40t64 106z" />
    <glyph glyph-name="uni208A" unicode="&#x208a;" horiz-adv-x="756" 
d="M488 266h248l-22 -126h-248l-44 -248h-124l42 248h-246l22 126h246l44 246h126z" />
    <glyph glyph-name="uni208B" unicode="&#x208b;" horiz-adv-x="756" 
d="M116 266h620l-22 -126h-620z" />
    <glyph glyph-name="uni208C" unicode="&#x208c;" horiz-adv-x="756" 
d="M146 444h622l-22 -126h-622zM84 88h620l-22 -124h-620z" />
    <glyph glyph-name="uni208D" unicode="&#x208d;" horiz-adv-x="404" 
d="M310 -362h-138q-61 83 -80.5 224.5t12.5 337.5q30 176 101.5 318t160.5 222h138q-198 -195 -258 -540q-33 -191 -17 -326.5t81 -235.5z" />
    <glyph glyph-name="uni208E" unicode="&#x208e;" horiz-adv-x="404" 
d="M160 740h140q61 -83 79.5 -226t-13.5 -338q-30 -177 -100.5 -317.5t-159.5 -220.5h-140q198 192 258 538q66 364 -64 564z" />
    <glyph glyph-name="uni2099" unicode="&#x2099;" horiz-adv-x="890" 
d="M212 586h138l-18 -102q55 59 127.5 92.5t142.5 33.5q128 0 193 -82t39 -228l-88 -504h-136l84 472q19 108 -22.5 160t-131.5 52q-89 0 -159 -57t-85 -143l-86 -484h-138z" />
    <glyph glyph-name="uni20A0" unicode="&#x20a0;" horiz-adv-x="1506" 
d="M232 810q0 150 67 278t181.5 202t249.5 74q160 0 256 -85.5t98 -218.5h-148q-3 81 -57 126.5t-147 45.5q-150 0 -250 -123.5t-100 -306.5q0 -140 84.5 -212t249.5 -72h86l68 386h708l-22 -126h-558l-46 -262h502l-22 -122h-502l-46 -264h558l-24 -130h-706l68 388h-68
q-225 0 -352.5 112t-127.5 310z" />
    <glyph glyph-name="colonmonetary" unicode="&#x20a1;" horiz-adv-x="1318" 
d="M194 546q0 167 50.5 316.5t137 256.5t207 169t255.5 62h36l96 204h124l-104 -220q88 -20 168 -68l134 288h126l-172 -362q126 -135 126 -344h-148q0 113 -46 196l-436 -924q147 1 263 90t151 224h154q-56 -207 -213.5 -328.5t-376.5 -121.5q-28 0 -42 2l-68 -146h-122
l76 162q-97 25 -166 74l-112 -236h-120l148 314q-126 148 -126 392zM346 538q0 -133 46 -228l424 904q-132 -6 -240 -96t-169 -243t-61 -337zM468 210q62 -56 164 -78l472 1004q-66 51 -168 70z" />
    <glyph glyph-name="uni20A2" unicode="&#x20a2;" horiz-adv-x="1318" 
d="M194 550q0 222 87.5 405.5t242 289t344.5 105.5q233 0 372.5 -122.5t141.5 -327.5h-146q0 147 -101 232.5t-275 85.5q-143 0 -261 -89.5t-185.5 -246t-67.5 -346.5q0 -185 88 -291.5t254 -122.5l108 618h140l-24 -134q59 73 138 113.5t158 40.5h68l-26 -144h-48
q-126 0 -220.5 -73t-113.5 -185l-42 -230q122 20 213 91t119 171h152q-53 -186 -209.5 -296t-370.5 -110q-249 0 -392.5 151t-143.5 415z" />
    <glyph glyph-name="franc" unicode="&#x20a3;" horiz-adv-x="1204" 
d="M1352 1332l-24 -140h-748l-70 -404h688l-24 -140h-690l-44 -256h428l-22 -128h-430l-46 -264h-152l48 264h-190l24 128h188l166 940h898z" />
    <glyph glyph-name="lira" unicode="&#x20a4;" horiz-adv-x="1110" 
d="M168 530h216l30 162h-218l20 112h216l36 206q27 151 136.5 244.5t259.5 93.5q163 0 252.5 -90t89.5 -240h-150q0 94 -48 144t-140 50q-99 0 -165.5 -56t-84.5 -156l-34 -196h418l-20 -112h-418l-28 -162h416l-20 -112h-418q-23 -89 -86.5 -164t-167.5 -114h802l-22 -140
h-968l28 150q105 39 169.5 110t92.5 158h-216z" />
    <glyph glyph-name="uni20A5" unicode="&#x20a5;" horiz-adv-x="1704" 
d="M290 1024h152l-24 -138q66 76 156 118t178 42q94 0 166 -43t108 -121l256 450h168l-184 -322q80 34 156 34q154 0 242 -113t56 -293l-116 -638h-150l112 618q27 145 -27.5 213.5t-168.5 68.5q-118 0 -214 -86l-110 -190l-114 -624h-150l42 234l-266 -468h-168l512 898
q12 121 -45 181.5t-169 60.5q-107 0 -192.5 -63.5t-115.5 -168.5l-118 -674h-152z" />
    <glyph glyph-name="uni20A6" unicode="&#x20a6;" horiz-adv-x="1382" 
d="M1464 530l-22 -128h-152l-72 -402h-156l-194 402h-486l-70 -402h-148l70 402h-154l24 128h154l48 282h-152l22 128h154l68 392h192l186 -392h462l68 392h148l-70 -392h152l-22 -128h-152l-50 -282h152zM512 1140l-34 -200h132zM406 530h400l-136 282h-214zM970 530h196
l50 282h-380zM1112 228l30 174h-112z" />
    <glyph glyph-name="peseta" unicode="&#x20a7;" horiz-adv-x="2524" 
d="M762 492h-414l-88 -492h-152l236 1332h520q162 0 262 -82.5t118 -225.5h150l48 266h150l-48 -266h190l-22 -132h-190l-100 -564q-15 -92 14.5 -140t123.5 -48h534q114 0 179 44.5t65 121.5q0 109 -178 132l-160 22q-142 21 -210 83.5t-68 170.5q0 148 117.5 239t310.5 91
q190 0 292 -84t102 -242h-152q0 104 -60 152t-192 48q-117 0 -191.5 -53t-74.5 -137q0 -54 40 -83t132 -41l166 -20q143 -21 211.5 -87t68.5 -181q0 -143 -104 -229.5t-276 -86.5h-572q-51 0 -94 9t-83 30.5t-63.5 57t-35 88.5t3.5 125l104 582h-132q-12 -81 -49.5 -152.5
t-96.5 -127t-145 -88t-187 -32.5zM838 1194h-368l-100 -562h368q93 0 164 31.5t111 83.5t59.5 110.5t19.5 120.5q0 105 -65 160.5t-189 55.5z" />
    <glyph glyph-name="uni20A8" unicode="&#x20a8;" horiz-adv-x="2078" 
d="M672 548h-316l-96 -548h-152l236 1332h542q171 0 269.5 -91.5t98.5 -250.5q0 -145 -93.5 -251.5t-246.5 -138.5q101 -25 145.5 -93t44.5 -193v-314h-152v296q0 139 -62.5 195.5t-217.5 56.5zM858 1194h-388l-90 -510h388q150 0 238 87t88 225q0 96 -61.5 147t-174.5 51z
M1712 430l-158 38q-140 30 -208 94.5t-68 169.5q0 145 108 230.5t294 85.5q185 0 294.5 -92.5t113.5 -261.5h-148q0 110 -69.5 167t-200.5 57q-113 0 -176.5 -46.5t-63.5 -125.5q0 -57 39.5 -89.5t130.5 -52.5l162 -34q141 -30 209.5 -97.5t68.5 -178.5
q0 -147 -105.5 -231.5t-298.5 -84.5q-205 0 -321.5 94.5t-116.5 259.5h156q0 -110 74.5 -168t209.5 -58q120 0 186 45t66 123q0 60 -43 97.5t-135 58.5z" />
    <glyph glyph-name="uni20A9" unicode="&#x20a9;" horiz-adv-x="1986" 
d="M300 1332h154l34 -392h442l198 392h176l56 -392h446l176 392h174l-186 -392h170l-22 -128h-208l-132 -282h290l-22 -128h-328l-190 -402h-172l-58 402h-478l-200 -402h-176l-44 402h-320l24 128h282l-30 282h-202l22 128h166zM1192 1146l-104 -206h134zM524 530h200
l142 282h-366zM884 530h396l-40 282h-216zM1418 530h202l128 282h-370zM554 190l106 212h-124zM1468 190l94 212h-124z" />
    <glyph glyph-name="uni20AA" unicode="&#x20aa;" horiz-adv-x="1354" 
d="M606 132h296q119 0 183 55.5t85 176.5l118 660h138l-118 -672q-29 -168 -125.5 -260t-254.5 -92h-486l128 728h140zM406 892l-156 -892h-142l182 1024h440q182 0 258 -92t44 -260l-68 -376h-138l64 364q21 122 -23.5 177t-162.5 55h-298z" />
    <glyph glyph-name="dong" unicode="&#x20ab;" horiz-adv-x="1116" 
d="M738 1298h234l24 136h150l-24 -136h172l-22 -118h-170l-182 -1036h-150l22 126q-123 -146 -286 -146q-152 0 -239 97.5t-87 266.5q0 151 59.5 278t162.5 200.5t226 73.5q95 0 164 -45.5t104 -128.5l56 314h-236zM336 488q0 -109 53 -166.5t151 -57.5q104 0 182.5 68.5
t113.5 185.5l20 114q0 7 1 22.5t1 23.5q0 108 -53.5 166t-152.5 58q-135 0 -225.5 -118t-90.5 -296zM118 6h908l-22 -126h-908z" />
    <glyph glyph-name="Euro" unicode="&#x20ac;" horiz-adv-x="1396" 
d="M274 546q0 125 32 250h-156l20 112h172q82 201 242 321.5t358 120.5q232 0 374 -127.5t142 -340.5h-154q0 153 -99 239.5t-273 86.5q-133 0 -243.5 -80.5t-176.5 -219.5h494l-20 -112h-518q-36 -120 -36 -256h510l-20 -112h-480q26 -146 123.5 -223t258.5 -77
q145 0 261 86t151 220h160q-56 -207 -213.5 -328.5t-376.5 -121.5q-217 0 -354.5 117.5t-167.5 326.5h-198l20 112h168v6z" />
    <glyph glyph-name="uni20AD" unicode="&#x20ad;" horiz-adv-x="1108" 
d="M130 736h152l104 596h152l-104 -592l634 592h210l-648 -596h398l-22 -128h-414l426 -608h-180l-428 606l-108 -606h-150l108 608h-152z" />
    <glyph glyph-name="uni20AE" unicode="&#x20ae;" horiz-adv-x="1084" 
d="M1028 624l-24 -132l-314 -86l-72 -406h-150l64 362l-298 -82l22 132l300 82l32 180l-300 -82l24 132l298 82l68 382h-400l26 144h948l-24 -144h-400l-60 -338l316 86l-24 -132l-316 -86l-32 -180z" />
    <glyph glyph-name="uni20AF" unicode="&#x20af;" horiz-adv-x="2402" 
d="M94 138h158l358 1012q-133 -31 -250 -76l24 144q115 56 282 88l44 128h150l-36 -106q52 4 74 4q241 0 378.5 -129.5t137.5 -356.5q0 -171 -66 -327.5t-177.5 -270t-265 -181t-321.5 -67.5h-516zM896 1186q-67 0 -126 -8l-368 -1040h142q201 0 364.5 93t256.5 257t93 366
q0 160 -94 246t-268 86zM2432 696q0 -130 -53 -260.5t-138 -229.5t-197.5 -160.5t-225.5 -61.5q-136 0 -221.5 54.5t-106.5 155.5l-186 -528h-150l300 860q83 238 247 378t361 140q175 0 272.5 -91.5t97.5 -256.5zM1784 122q91 0 181 49.5t158 129t110.5 184.5t42.5 211
q0 99 -58 154.5t-160 55.5q-120 0 -234 -82.5t-184 -216t-70 -275.5q0 -97 57.5 -153.5t156.5 -56.5z" />
    <glyph glyph-name="uni20B0" unicode="&#x20b0;" horiz-adv-x="1078" 
d="M1174 1100q0 -86 -32 -174.5t-108 -205.5l-114 -176q63 -111 90.5 -194.5t27.5 -165.5q0 -231 -129.5 -363.5t-360.5 -132.5v136q161 0 256.5 90.5t95.5 243.5q0 126 -68 250l-270 -418h-130l-64 346l-170 -336h-138l276 506h110l70 -364l246 384q-83 141 -113.5 233
t-30.5 197q0 171 88 284.5t220 113.5q248 0 248 -254zM910 760q124 198 124 338q0 122 -114 122q-72 0 -117 -78.5t-45 -201.5q0 -139 88 -280z" />
    <glyph glyph-name="uni20B1" unicode="&#x20b1;" horiz-adv-x="1284" 
d="M148 780h136l28 160h-136l18 110h138l50 282h508q160 0 265 -74.5t135 -207.5h170l-20 -110h-140q0 -85 -24 -160h136l-20 -108h-160q-67 -123 -184.5 -194.5t-259.5 -71.5h-424l-72 -406h-144l118 672h-138zM876 1200h-372l-28 -150h658q-52 150 -258 150zM430 780h690
q31 89 28 160h-690zM386 538h374q189 0 298 134h-648z" />
    </font>
</defs>
</svg>
