<?xml version="1.0" standalone="no"?>
<!DOCTYPE svg PUBLIC "-//W3C//DTD SVG 1.1//EN" "http://www.w3.org/Graphics/SVG/1.1/DTD/svg11.dtd" >
<svg xmlns="http://www.w3.org/2000/svg" xmlns:xlink="http://www.w3.org/1999/xlink" version="1.1">
<metadata>
Created by FontForge 20201107 at Mon Jul 14 14:24:38 2025
 By 
Copyright (c) 2023, Bao Nguyen (RandomMaerks) (rmforbusiness@gmail.com)
</metadata>
<defs>
<font id="OverusedGrotesk-ExtraBoldItalic" horiz-adv-x="524" >
  <font-face 
    font-family="Overused Grotesk ExtraBold"
    font-weight="800"
    font-style="italic"
    font-stretch="normal"
    units-per-em="2048"
    panose-1="0 0 0 0 0 0 0 0 0 0"
    ascent="1638"
    descent="-410"
    x-height="1024"
    cap-height="1332"
    bbox="-172 -770 2934 2338"
    underline-thickness="102"
    underline-position="-254"
    slope="-10"
    unicode-range="U+0020-277E"
  />
<missing-glyph horiz-adv-x="1024" 
d="M102 -410v2048h820v-2048h-820zM204 -308h616v1844h-616v-1844z" />
    <glyph glyph-name=".notdef" horiz-adv-x="1024" 
d="M102 -410v2048h820v-2048h-820zM204 -308h616v1844h-616v-1844z" />
    <glyph glyph-name=".null" horiz-adv-x="0" 
 />
    <glyph glyph-name="nonmarkingreturn" horiz-adv-x="682" 
 />
    <glyph glyph-name="space" unicode=" " horiz-adv-x="408" 
 />
    <glyph glyph-name="exclam" unicode="!" 
d="M466 390h-268l128 942h342zM448 0h-370l48 276h370z" />
    <glyph glyph-name="quotedbl" unicode="&#x22;" horiz-adv-x="930" 
d="M782 1434h308l-142 -580h-268zM348 1434h308l-140 -580h-270z" />
    <glyph glyph-name="numbersign" unicode="#" horiz-adv-x="1496" 
d="M610 1332h326l-90 -302h238l88 302h328l-88 -302h142v-236h-210l-78 -264h178v-234h-246l-86 -296h-328l86 296h-236l-86 -296h-326l86 296h-142v234h210l76 264h-176v236h246zM702 530h238l76 264h-238z" />
    <glyph glyph-name="dollar" unicode="$" horiz-adv-x="1270" 
d="M846 1552h120l-38 -212q191 -33 292.5 -146t101.5 -294h-342q0 126 -100 168l-42 -244l50 -8q376 -73 376 -382q0 -214 -141.5 -334t-386.5 -120q-32 0 -48 2l-42 -244h-118l44 256q-200 35 -311 152t-111 298h346q0 -135 124 -178l44 248l-92 16q-160 32 -246 127
t-86 243q0 212 140.5 332t389.5 120q28 0 40 -2zM694 850l28 -4l42 240q-77 -2 -124.5 -39t-47.5 -97q0 -36 26.5 -63t75.5 -37zM788 490l-10 2l-42 -242q76 0 126 39.5t50 98.5q0 78 -124 102z" />
    <glyph glyph-name="percent" unicode="%" horiz-adv-x="2044" 
d="M204 880q0 209 123.5 348.5t306.5 139.5q165 0 263.5 -97.5t98.5 -260.5q0 -209 -122.5 -349.5t-305.5 -140.5q-165 0 -264.5 97.5t-99.5 262.5zM1382 1332h292l-776 -1332h-292zM736 1006q0 67 -29.5 103.5t-82.5 36.5q-67 0 -111.5 -74.5t-44.5 -187.5q0 -68 29 -105
t81 -37q66 0 112 76.5t46 187.5zM1282 326q0 209 123 348.5t307 139.5q164 0 262 -98t98 -262q0 -209 -122.5 -349.5t-305.5 -140.5q-164 0 -263 98.5t-99 263.5zM1814 450q0 68 -29 105t-81 37q-69 0 -114.5 -75.5t-45.5 -188.5q0 -68 29 -106t81 -38q68 0 114 77t46 189z
" />
    <glyph glyph-name="ampersand" unicode="&#x26;" horiz-adv-x="1420" 
d="M836 1348q178 0 295 -89.5t117 -224.5t-84.5 -227t-249.5 -153l136 -178q43 77 64 178h312q-48 -251 -198 -416l180 -238h-364l-50 60q-155 -76 -336 -76q-226 0 -374 90.5t-148 239.5q0 134 75.5 226t250.5 168q-94 132 -94 248q0 173 129.5 282.5t338.5 109.5zM702 976
q0 -61 78 -150q166 73 166 182q0 41 -30 67.5t-78 26.5q-61 0 -98.5 -36.5t-37.5 -89.5zM490 376q0 -62 49.5 -95t140.5 -33q71 0 140 24l-224 272q-106 -61 -106 -168z" />
    <glyph glyph-name="quotesingle" unicode="'" horiz-adv-x="498" 
d="M348 1434h308l-140 -580h-270z" />
    <glyph glyph-name="parenleft" unicode="(" horiz-adv-x="692" 
d="M614 -274h-342q-95 123 -128.5 348t12.5 494q46 260 160 489.5t252 352.5h344q-308 -263 -410 -842q-52 -281 -23.5 -496.5t135.5 -345.5z" />
    <glyph glyph-name="parenright" unicode=")" horiz-adv-x="692" 
d="M276 1410h344q95 -123 128 -348.5t-12 -493.5q-47 -262 -161 -491t-253 -351h-344q304 257 410 842q100 586 -112 842z" />
    <glyph glyph-name="asterisk" unicode="*" horiz-adv-x="1146" 
d="M708 1448l236 -44l-96 -376l378 82l36 -236l-388 -26l194 -334l-214 -104l-144 358l-258 -286l-168 170l300 248l-356 156l112 212l328 -208z" />
    <glyph glyph-name="plus" unicode="+" horiz-adv-x="1190" 
d="M884 786h390l-54 -304h-388l-68 -388h-304l68 388h-390l56 304h388l68 388h304z" />
    <glyph glyph-name="comma" unicode="," 
d="M140 360h370l-62 -360l-208 -358h-238l294 358h-218z" />
    <glyph glyph-name="hyphen" unicode="-" horiz-adv-x="1032" 
d="M182 718h922l-54 -304h-924z" />
    <glyph glyph-name="period" unicode="." 
d="M140 360h370l-62 -360h-370z" />
    <glyph glyph-name="slash" unicode="/" horiz-adv-x="988" 
d="M758 1332h398l-692 -1332h-396z" />
    <glyph glyph-name="zero" unicode="0" horiz-adv-x="1286" 
d="M176 514q0 239 83.5 430.5t230 299.5t328.5 108q244 0 381 -145t137 -405q0 -240 -79.5 -426.5t-223.5 -289t-329 -102.5q-249 0 -388.5 140t-139.5 390zM990 798q0 248 -184 248q-78 0 -143.5 -70t-103 -189.5t-37.5 -260.5q0 -234 194 -234q121 0 197.5 141.5
t76.5 364.5z" />
    <glyph glyph-name="one" unicode="1" horiz-adv-x="810" 
d="M610 1332h340l-234 -1332h-342l144 820h-320l54 292h156q83 0 128 30.5t58 107.5z" />
    <glyph glyph-name="two" unicode="2" horiz-adv-x="1178" 
d="M554 302h600l-54 -302h-1022l12 64q13 75 33 141t43.5 118t55.5 98t62.5 80t70.5 65t73.5 52.5t78 43t77.5 35t78 29.5q69 26 110.5 44.5t79 43t54 54t16.5 66.5q0 61 -41.5 94.5t-116.5 33.5q-68 0 -116.5 -36t-63.5 -104h-350q48 191 195 308.5t339 117.5
q222 0 361 -112.5t139 -289.5q0 -73 -19.5 -135t-51.5 -106.5t-81.5 -83.5t-99 -65.5t-114.5 -53.5q-32 -13 -98.5 -39.5t-94.5 -39t-67.5 -34t-59 -42t-28.5 -45.5z" />
    <glyph glyph-name="three" unicode="3" horiz-adv-x="1194" 
d="M590 546l46 250h140q70 0 107 50t37 112q0 57 -34.5 87.5t-97.5 30.5q-70 0 -118.5 -41t-63.5 -113h-348q53 212 203 319t367 107q200 0 320 -96t120 -252q0 -103 -55 -190t-159 -140q136 -90 136 -254q0 -87 -39.5 -165.5t-109.5 -137.5t-173 -94t-222 -35
q-233 0 -365.5 115t-132.5 317h346q0 -77 41 -117.5t119 -40.5q98 0 147 57.5t49 130.5q0 100 -118 100h-142z" />
    <glyph glyph-name="four" unicode="4" horiz-adv-x="1224" 
d="M1066 284l-52 -284h-324l52 284h-638l64 356l668 692h414l-134 -764h174l-50 -284h-174zM790 568l72 394l-378 -394h306z" />
    <glyph glyph-name="five" unicode="5" horiz-adv-x="1194" 
d="M858 504q0 73 -40 111.5t-114 38.5q-117 0 -190 -92h-340l210 772h924l-50 -286h-612l-86 -286q131 144 320 144q151 0 240.5 -103t89.5 -277q0 -235 -160.5 -388.5t-405.5 -153.5q-233 0 -364.5 115t-131.5 319h348q0 -144 152 -144q96 0 153 63t57 167z" />
    <glyph glyph-name="six" unicode="6" horiz-adv-x="1234" 
d="M178 496q0 191 51 351t140.5 271t215.5 172.5t273 61.5q216 0 337 -102t121 -282h-348q0 60 -33 94t-93 34q-105 0 -182.5 -96.5t-107.5 -263.5q-2 -14 -6 -34q52 78 147.5 124t202.5 46q158 0 255 -100.5t97 -265.5q0 -222 -157 -372t-401 -150q-240 0 -376 136
t-136 376zM542 392q0 -68 40.5 -109t107.5 -41q86 0 145 67.5t59 164.5q0 66 -38 103t-104 37q-90 0 -150 -64t-60 -158z" />
    <glyph glyph-name="seven" unicode="7" horiz-adv-x="1176" 
d="M698 0h-408q29 158 77 293t102.5 233.5t130 190.5t144 156t160.5 137h-650l56 322h1028l-60 -342q-246 -177 -382.5 -409.5t-197.5 -580.5z" />
    <glyph glyph-name="eight" unicode="8" horiz-adv-x="1194" 
d="M1010 658q180 -81 180 -268q0 -116 -71.5 -208.5t-199 -145t-287.5 -52.5q-228 0 -363 96t-135 258q0 120 77.5 213.5t214.5 138.5q-144 78 -144 254q0 174 146 289t368 115q210 0 335 -94.5t125 -253.5q0 -113 -66 -205t-180 -137zM752 798q75 0 121.5 46.5t46.5 121.5
q0 55 -37 85.5t-105 30.5q-76 0 -122 -45.5t-46 -120.5q0 -57 33.5 -87.5t96.5 -30.5h12zM694 542h-14q-87 0 -138.5 -45.5t-51.5 -122.5q0 -60 41 -93t119 -33q89 0 142.5 47.5t53.5 124.5q0 59 -39.5 90.5t-112.5 31.5z" />
    <glyph glyph-name="nine" unicode="9" horiz-adv-x="1234" 
d="M1292 840q0 -190 -50.5 -350.5t-140.5 -271.5t-215.5 -172.5t-271.5 -61.5q-217 0 -338.5 101t-121.5 283h348q0 -62 33 -95t95 -33q105 0 181.5 96.5t106.5 265.5l2 10t2 11t2 9q-52 -78 -147 -124t-203 -46q-157 0 -253.5 101.5t-96.5 266.5q0 145 69.5 264t198 188.5
t290.5 69.5q240 0 375 -136t135 -376zM930 944q0 68 -41 109t-109 41q-85 0 -143.5 -67t-58.5 -163q0 -67 37 -104.5t103 -37.5q90 0 151 64.5t61 157.5z" />
    <glyph glyph-name="colon" unicode=":" 
d="M258 1016h370l-64 -360h-372zM140 360h370l-62 -360h-370z" />
    <glyph glyph-name="semicolon" unicode=";" 
d="M258 1016h370l-64 -360h-372zM140 360h370l-62 -360l-208 -358h-238l294 358h-218z" />
    <glyph glyph-name="less" unicode="&#x3c;" horiz-adv-x="1202" 
d="M1352 1160l-60 -354l-822 -190l758 -176l-64 -358l-1032 346l68 388z" />
    <glyph glyph-name="equal" unicode="=" horiz-adv-x="1190" 
d="M1316 1032l-48 -284h-1082l50 284h1080zM1222 484l-52 -288h-1080l50 288h1082z" />
    <glyph glyph-name="greater" unicode="&#x3e;" horiz-adv-x="1202" 
d="M72 82l60 354l822 188l-756 178l62 358l1032 -344l-68 -388z" />
    <glyph glyph-name="question" unicode="?" horiz-adv-x="1178" 
d="M496 390q16 60 42.5 112t49 83.5t63.5 69t59 51t64 46.5q40 28 59.5 44t44.5 42.5t35.5 56.5t10.5 67q0 55 -37 85.5t-103 30.5q-77 0 -131.5 -49t-70.5 -133h-348q51 202 209.5 327t366.5 125q215 0 339.5 -93.5t124.5 -250.5q0 -127 -50 -207.5t-140 -148.5
q-19 -15 -59 -44t-62.5 -47t-51 -45t-47 -57t-28.5 -65h-340zM782 0h-370l48 276h370z" />
    <glyph glyph-name="at" unicode="@" horiz-adv-x="1916" 
d="M1522 918l-80 -456q-18 -88 68 -88q67 0 105.5 86t38.5 236q0 213 -124.5 328.5t-353.5 115.5q-208 0 -373 -93.5t-257 -261.5t-92 -379q0 -213 137.5 -327.5t392.5 -114.5q234 0 414 66l-14 -272q-186 -68 -414 -68q-368 0 -592 192t-224 506q0 217 78 407t213.5 326
t328.5 214.5t414 78.5q225 0 400 -83t273.5 -239.5t98.5 -363.5q0 -280 -128.5 -444t-347.5 -164q-146 0 -232.5 43.5t-107.5 126.5q-107 -156 -254 -156q-123 0 -194.5 84.5t-71.5 231.5q0 138 49 254t135 183t188 67q154 0 220 -128l16 92h290zM924 494q0 -122 98 -122
q63 0 105.5 64t42.5 158q0 59 -26 90.5t-74 31.5q-63 0 -104.5 -63.5t-41.5 -158.5z" />
    <glyph glyph-name="A" unicode="A" horiz-adv-x="1366" 
d="M1328 0h-340l-28 238h-438l-110 -238h-374l686 1332h388zM868 974l-218 -466h276z" />
    <glyph glyph-name="B" unicode="B" horiz-adv-x="1302" 
d="M958 1332q179 0 285.5 -86.5t106.5 -229.5q0 -102 -65 -194t-173 -136q89 -36 138.5 -111t49.5 -175q0 -167 -122 -283.5t-306 -116.5h-776l234 1332h628zM902 1046h-282l-40 -228h282q61 0 94.5 40t33.5 98q0 39 -24.5 64.5t-63.5 25.5zM852 530h-320l-44 -244h320
q71 0 111.5 42.5t40.5 103.5q0 44 -30 71t-78 27z" />
    <glyph glyph-name="C" unicode="C" horiz-adv-x="1372" 
d="M182 558q0 222 89 403.5t246 285t349 103.5q260 0 413 -138.5t153 -397.5h-342q0 111 -60 170.5t-174 59.5q-141 0 -234.5 -136.5t-93.5 -341.5q0 -132 63.5 -203t182.5 -71q95 0 164.5 53.5t91.5 144.5h354q-51 -239 -211 -372.5t-419 -133.5q-263 0 -417.5 155
t-154.5 419z" />
    <glyph glyph-name="D" unicode="D" horiz-adv-x="1366" 
d="M872 1332q254 0 401 -152t147 -414q0 -221 -82.5 -395t-235 -272.5t-350.5 -98.5h-656l234 1332h542zM618 1028l-128 -724h258q97 0 171 64.5t111.5 167t37.5 224.5q0 129 -60.5 198.5t-173.5 69.5h-216z" />
    <glyph glyph-name="E" unicode="E" horiz-adv-x="1136" 
d="M1296 1332l-56 -322h-624l-32 -176h566l-56 -320h-566l-34 -194h624l-56 -320h-966l234 1332h966z" />
    <glyph glyph-name="F" unicode="F" horiz-adv-x="1136" 
d="M1296 1332l-56 -322h-624l-42 -234h568l-56 -320h-570l-78 -456h-342l234 1332h966z" />
    <glyph glyph-name="G" unicode="G" horiz-adv-x="1392" 
d="M182 542q0 230 88.5 415t245 289t350.5 104q271 0 425.5 -131t154.5 -361h-350q0 87 -61 137.5t-167 50.5q-147 0 -242.5 -137.5t-95.5 -346.5q0 -128 60.5 -199t169.5 -71q92 0 173.5 54.5t108.5 149.5h-300l46 270h654l-150 -766h-256l16 144q-144 -156 -384 -156
q-215 0 -350.5 154t-135.5 400z" />
    <glyph glyph-name="H" unicode="H" horiz-adv-x="1334" 
d="M330 1332h342l-86 -484h462l86 484h340l-234 -1332h-342l92 528h-460l-92 -528h-342z" />
    <glyph glyph-name="I" unicode="I" 
d="M326 1332h342l-234 -1332h-342z" />
    <glyph glyph-name="J" unicode="J" horiz-adv-x="774" 
d="M90 304h140q81 0 129 42t65 140l150 846h342l-158 -892q-37 -213 -156 -326.5t-294 -113.5h-254z" />
    <glyph glyph-name="K" unicode="K" horiz-adv-x="1336" 
d="M330 1332h342l-96 -548l512 548h446l-622 -646l410 -686h-376l-282 502l-168 -168l-58 -334h-342z" />
    <glyph glyph-name="L" unicode="L" horiz-adv-x="1014" 
d="M958 0h-862l234 1332h344l-178 -1012h520z" />
    <glyph glyph-name="M" unicode="M" horiz-adv-x="1724" 
d="M1016 0h-308l-122 848l-148 -848h-342l234 1332h490l112 -860l406 860h528l-236 -1332h-342l150 848z" />
    <glyph glyph-name="N" unicode="N" horiz-adv-x="1368" 
d="M1166 1332h342l-236 -1332h-336l-354 818l-144 -818h-342l234 1332h400l302 -762z" />
    <glyph glyph-name="O" unicode="O" horiz-adv-x="1428" 
d="M182 550q0 224 89 407t251 289t366 106q266 0 427 -160.5t161 -427.5q0 -168 -50 -312t-139.5 -247.5t-221 -162t-287.5 -58.5q-270 0 -433 155t-163 411zM1132 756q0 138 -68.5 214t-191.5 76q-145 0 -243.5 -139.5t-98.5 -342.5q0 -130 69 -201t197 -71
q149 0 242.5 129.5t93.5 334.5z" />
    <glyph glyph-name="P" unicode="P" horiz-adv-x="1258" 
d="M822 420h-310l-74 -420h-342l236 1332h562q210 0 331 -113t121 -303q0 -70 -22 -140.5t-66.5 -134.5t-105.5 -113.5t-147 -78.5t-183 -29zM846 1040h-226l-56 -316h226q56 0 98.5 18t66.5 47.5t35.5 62t11.5 66.5q0 60 -40.5 91t-115.5 31z" />
    <glyph glyph-name="Q" unicode="Q" horiz-adv-x="1428" 
d="M182 550q0 167 52.5 315t144.5 255t224.5 169.5t284.5 62.5q267 0 427.5 -160.5t160.5 -427.5q0 -300 -154 -514l110 -100l-174 -184l-124 112q-157 -94 -356 -94q-272 0 -434 154t-162 412zM1132 756q0 138 -68.5 214t-191.5 76q-145 0 -243.5 -139.5t-98.5 -342.5
q0 -130 69 -201t197 -71q51 0 90 14l-196 180l174 184l208 -192q60 120 60 278z" />
    <glyph glyph-name="R" unicode="R" horiz-adv-x="1260" 
d="M724 452h-206l-80 -452h-342l236 1332h598q200 0 316 -104.5t114 -281.5q2 -114 -77.5 -209.5t-220.5 -136.5q86 -31 126 -101t40 -185v-314h-340v282q0 96 -35.5 133t-128.5 37zM862 1046h-240l-54 -308h244q53 0 92.5 18.5t60.5 48.5t31 61t10 62q0 57 -37.5 87.5
t-106.5 30.5z" />
    <glyph glyph-name="S" unicode="S" horiz-adv-x="1270" 
d="M792 490l-214 40q-161 32 -246.5 127t-85.5 243q0 212 139.5 332t388.5 120q265 0 409.5 -118t144.5 -334h-344q0 91 -53 138.5t-155 47.5q-80 0 -129 -37.5t-49 -98.5q0 -37 25.5 -63.5t74.5 -36.5l196 -34q374 -72 374 -382q0 -214 -141.5 -334t-386.5 -120
q-272 0 -429 124t-157 340h346q0 -93 63 -143.5t177 -50.5q76 0 127 39.5t51 98.5q0 77 -126 102z" />
    <glyph glyph-name="T" unicode="T" horiz-adv-x="1166" 
d="M1348 1332l-56 -322h-360l-178 -1010h-340l178 1010h-360l58 322h1058z" />
    <glyph glyph-name="U" unicode="U" horiz-adv-x="1288" 
d="M320 1332h340l-136 -790q-20 -109 35.5 -174.5t172.5 -65.5q87 0 146 54.5t76 147.5l144 828h342l-150 -856q-41 -225 -195.5 -358.5t-376.5 -133.5q-136 0 -246.5 44t-181 121.5t-99.5 187.5t-7 237z" />
    <glyph glyph-name="V" unicode="V" horiz-adv-x="1366" 
d="M274 1332h336l124 -940l452 940h376l-684 -1332h-390z" />
    <glyph glyph-name="W" unicode="W" horiz-adv-x="2110" 
d="M274 1332h336l40 -948l408 948h422l74 -948l378 948h374l-598 -1332h-426l-68 938l-384 -938h-442z" />
    <glyph glyph-name="X" unicode="X" horiz-adv-x="1314" 
d="M274 1332h370l158 -470l298 470h412l-472 -666l236 -666h-370l-156 466l-302 -466h-410l472 666z" />
    <glyph glyph-name="Y" unicode="Y" horiz-adv-x="1314" 
d="M562 446l-288 886h354l154 -532l336 532h394l-608 -886l-80 -446h-340z" />
    <glyph glyph-name="Z" unicode="Z" horiz-adv-x="1216" 
d="M326 1332h1014l-42 -342l-748 -704h624l-50 -286h-1014l42 342l748 704h-624z" />
    <glyph glyph-name="bracketleft" unicode="[" horiz-adv-x="692" 
d="M610 1092l-184 -1038h230l-56 -320h-572l296 1680h572l-58 -322h-228z" />
    <glyph glyph-name="backslash" unicode="\" horiz-adv-x="988" 
d="M662 1332l258 -1332h-360l-258 1332h360z" />
    <glyph glyph-name="bracketright" unicode="]" horiz-adv-x="692" 
d="M286 54l184 1038h-230l56 322h570l-296 -1680h-570l58 320h228z" />
    <glyph glyph-name="asciicircum" unicode="^" horiz-adv-x="926" 
d="M558 1468h328l150 -444h-258l-68 290l-174 -290h-284z" />
    <glyph glyph-name="underscore" unicode="_" horiz-adv-x="1284" 
d="M56 0h1174l-42 -244h-1178z" />
    <glyph glyph-name="grave" unicode="`" horiz-adv-x="816" 
d="M330 1468h396l208 -396h-270z" />
    <glyph glyph-name="a" unicode="a" horiz-adv-x="1152" 
d="M1176 614l-102 -614h-348l20 112q-111 -136 -292 -136q-144 0 -235 85.5t-91 220.5q0 160 97.5 248t282.5 94l250 6q72 3 86 50l2 12q10 53 -28.5 88.5t-105.5 35.5q-122 0 -154 -108h-348q39 158 175 253t323 95q238 0 369 -123.5t99 -318.5zM480 314q0 -44 33.5 -70
t88.5 -26q66 0 117 37t69 97l12 66l-198 -6q-59 -1 -90.5 -27t-31.5 -71z" />
    <glyph glyph-name="b" unicode="b" horiz-adv-x="1226" 
d="M346 1434h344l-96 -544q128 160 302 160q161 0 261.5 -124t100.5 -324q0 -177 -63 -322t-174 -227.5t-247 -82.5q-112 0 -190 53t-114 151l-32 -174h-344zM910 582q0 90 -43.5 140t-122.5 50q-92 0 -155 -92t-63 -230q0 -92 43.5 -142t122.5 -50q91 0 154.5 93t63.5 231z
" />
    <glyph glyph-name="c" unicode="c" horiz-adv-x="1194" 
d="M156 440q0 277 162 448.5t412 171.5q240 0 367 -120t127 -334h-350q0 81 -40 123.5t-118 42.5q-92 0 -154 -93t-62 -231q0 -94 45 -143t131 -49q151 0 184 156h334q-36 -211 -176.5 -328.5t-355.5 -117.5q-231 0 -368.5 129t-137.5 345z" />
    <glyph glyph-name="d" unicode="d" horiz-adv-x="1226" 
d="M1390 1434l-252 -1434h-344l28 154q-140 -176 -328 -176q-158 0 -250 120.5t-92 325.5q0 177 65 326t177.5 235.5t247.5 86.5q110 0 187 -58t115 -166l102 586h344zM500 460q0 -99 41.5 -151.5t118.5 -52.5q97 0 161.5 89t64.5 225q0 98 -41 150t-117 52
q-97 0 -162.5 -89t-65.5 -223z" />
    <glyph glyph-name="e" unicode="e" horiz-adv-x="1208" 
d="M156 458q0 256 154.5 422t397.5 166q177 0 302.5 -69t179 -193.5t24.5 -283.5l-12 -68h-702q3 -188 172 -188q122 0 164 100h362q-115 -362 -512 -362q-252 0 -391 125t-139 351zM716 806q-138 0 -190 -160h354q3 72 -41.5 116t-122.5 44z" />
    <glyph glyph-name="f" unicode="f" horiz-adv-x="752" 
d="M184 754l48 270h148l12 66q28 164 146.5 254t295.5 90h120l-46 -270h-68q-48 0 -74.5 -20.5t-33.5 -67.5l-10 -52h160l-48 -270h-160l-132 -754h-342l132 754h-148z" />
    <glyph glyph-name="g" unicode="g" horiz-adv-x="1226" 
d="M1318 1024l-192 -1092q-27 -159 -160 -250.5t-334 -91.5q-256 0 -405 99t-149 277h342q0 -59 52.5 -92.5t143.5 -33.5q73 0 119 35t57 97l36 210q-132 -158 -310 -158q-164 0 -262 114t-98 304q0 168 62 308t169.5 220t236.5 80q112 0 193.5 -54t122.5 -152l32 180h344z
M508 482q0 -84 46.5 -131t127.5 -47q92 0 150 76t58 196q0 84 -44.5 130t-125.5 46q-94 0 -153 -74.5t-59 -195.5z" />
    <glyph glyph-name="h" unicode="h" horiz-adv-x="1208" 
d="M876 560q15 94 -21.5 144t-116.5 50q-74 0 -128 -43t-70 -119l-104 -592h-342l248 1434h344l-98 -558q71 83 160.5 127.5t177.5 44.5q105 0 183 -65.5t109 -167.5t12 -213l-108 -602h-342z" />
    <glyph glyph-name="i" unicode="i" 
d="M328 1414h368l-48 -274h-370zM272 1024h342l-180 -1024h-344z" />
    <glyph glyph-name="j" unicode="j" 
d="M328 1414h370l-48 -274h-370zM-76 -92h64q90 0 104 88l180 1028h344l-184 -1040q-36 -201 -139.5 -289.5t-304.5 -88.5h-118z" />
    <glyph glyph-name="k" unicode="k" horiz-adv-x="1212" 
d="M892 1024h462l-450 -470l286 -554h-378l-176 366l-164 -154l-38 -212h-342l254 1434h340l-138 -790z" />
    <glyph glyph-name="l" unicode="l" 
d="M342 1434h344l-252 -1434h-344z" />
    <glyph glyph-name="m" unicode="m" horiz-adv-x="1808" 
d="M836 566q17 95 -15 141.5t-105 46.5q-61 0 -108 -38.5t-66 -109.5l-106 -606h-342l178 1024h344l-24 -136q64 76 146.5 118t171.5 42q102 0 175 -64.5t101 -171.5q63 110 161 173t207 63q149 0 232 -128t50 -312l-108 -608h-344l98 566q16 95 -15.5 140.5t-100.5 45.5
q-61 0 -110 -40t-68 -110l-108 -602h-342z" />
    <glyph glyph-name="n" unicode="n" horiz-adv-x="1208" 
d="M876 560q15 94 -21.5 144t-116.5 50q-70 0 -123.5 -39.5t-72.5 -110.5l-106 -604h-342l178 1024h344l-26 -146q69 82 158.5 126t177.5 44q105 0 183 -65.5t109 -167.5t12 -213l-108 -602h-342z" />
    <glyph glyph-name="o" unicode="o" horiz-adv-x="1212" 
d="M156 442q0 131 44 246t120 196.5t183 128.5t229 47q227 0 363.5 -127t136.5 -343q0 -131 -44 -247t-120 -198t-182.5 -129.5t-227.5 -47.5q-227 0 -364.5 129.5t-137.5 344.5zM886 582q0 90 -43 140t-121 50q-92 0 -156 -92t-64 -230q0 -93 44 -143.5t122 -50.5
q91 0 154.5 94t63.5 232z" />
    <glyph glyph-name="p" unicode="p" horiz-adv-x="1226" 
d="M276 1024h344l-24 -128q128 154 300 154q164 0 263 -124t99 -322q0 -180 -65 -326.5t-175.5 -227.5t-243.5 -80q-112 0 -190 52.5t-116 153.5l-92 -510h-344zM910 582q0 90 -43.5 140t-122.5 50q-92 0 -155 -92t-63 -230q0 -92 43.5 -142t122.5 -50q92 0 155 92.5
t63 231.5z" />
    <glyph glyph-name="q" unicode="q" horiz-adv-x="1226" 
d="M1318 1024l-240 -1358h-342l86 488q-64 -83 -149 -129.5t-179 -46.5q-158 0 -250 120.5t-92 325.5q0 177 65 326t177.5 235.5t247.5 86.5q111 0 188.5 -58.5t113.5 -167.5l32 178h342zM500 460q0 -99 41.5 -151.5t118.5 -52.5q97 0 161.5 89t64.5 225q0 98 -41 150
t-117 52q-97 0 -162.5 -89t-65.5 -223z" />
    <glyph glyph-name="r" unicode="r" horiz-adv-x="838" 
d="M274 1024h344l-30 -168q65 89 143 137.5t151 48.5h74l-62 -348h-72q-105 0 -187.5 -45t-104.5 -117l-92 -532h-344z" />
    <glyph glyph-name="s" unicode="s" horiz-adv-x="1132" 
d="M698 370l-198 38q-146 27 -222 102.5t-76 193.5q0 168 123.5 262t346.5 94q232 0 357 -92t125 -264h-324q0 52 -42 81t-116 29q-58 0 -89 -23t-31 -65q0 -53 72 -68l214 -38q276 -50 276 -288q0 -178 -120 -271t-352 -93q-240 0 -377 93.5t-137 258.5h346q0 -54 46 -84
t126 -30q63 0 98.5 23.5t35.5 64.5q0 58 -82 76z" />
    <glyph glyph-name="t" unicode="t" horiz-adv-x="752" 
d="M750 286l-52 -286h-120q-175 0 -258.5 89.5t-53.5 254.5l72 410h-154l48 270h154l46 266h342l-48 -266h156l-48 -270h-156l-64 -364q-9 -56 7.5 -80t60.5 -24h68z" />
    <glyph glyph-name="u" unicode="u" horiz-adv-x="1188" 
d="M516 464q-34 -194 128 -194q68 0 117.5 40t68.5 112l106 602h340l-178 -1024h-342l24 142q-68 -81 -154 -123.5t-174 -42.5q-104 0 -179 65.5t-103 167t-8 213.5l106 602h344z" />
    <glyph glyph-name="v" unicode="v" horiz-adv-x="1190" 
d="M238 1024h336l64 -702l304 702h376l-526 -1024h-390z" />
    <glyph glyph-name="w" unicode="w" horiz-adv-x="1806" 
d="M234 1024h340l16 -690l280 690h390l48 -690l252 690h370l-486 -1024h-392l-42 680l-258 -680h-406z" />
    <glyph glyph-name="x" unicode="x" horiz-adv-x="1160" 
d="M236 1024h338l114 -338l224 338h378l-360 -510l178 -514h-338l-110 340l-224 -340h-380l360 514z" />
    <glyph glyph-name="y" unicode="y" horiz-adv-x="1222" 
d="M114 -72h128q54 0 85.5 18t56.5 60l26 50l-174 968h348l92 -650l310 650h366l-538 -1046q-50 -98 -96 -159t-110.5 -105t-148 -62t-203.5 -18h-194z" />
    <glyph glyph-name="z" unicode="z" horiz-adv-x="1048" 
d="M264 1024h872l-54 -306l-564 -466h482l-44 -252h-870l52 306l562 466h-480z" />
    <glyph glyph-name="braceleft" unicode="{" horiz-adv-x="692" 
d="M840 1110h-56q-48 0 -72.5 -20.5t-33.5 -65.5l-44 -252q-13 -75 -64 -126t-132 -72q73 -21 105.5 -73t20.5 -127l-44 -250q-9 -45 8.5 -65.5t65.5 -20.5h58l-52 -304h-114q-169 0 -246.5 95t-47.5 265l42 252q8 42 -8.5 61t-59.5 19h-44l52 296h42q45 0 68 19t32 63
l44 248q28 171 140 266.5t282 95.5h114z" />
    <glyph glyph-name="bar" unicode="|" 
d="M380 1638h342l-362 -2048h-340z" />
    <glyph glyph-name="braceright" unicode="}" horiz-adv-x="692" 
d="M54 38h58q90 0 104 86l44 250q12 75 63.5 127t134.5 73q-75 21 -108 72t-20 126l44 252q9 45 -8 65.5t-64 20.5h-58l52 304h114q169 0 246.5 -95.5t47.5 -266.5l-44 -248q-9 -43 8 -62.5t62 -19.5h42l-52 -296h-44q-43 0 -65.5 -19t-30.5 -61l-44 -252
q-30 -170 -141.5 -265t-280.5 -95h-114z" />
    <glyph glyph-name="asciitilde" unicode="~" horiz-adv-x="1010" 
d="M482 1032q50 0 94 -14t62.5 -26t55.5 -38q3 -2 11.5 -8t12 -8t11.5 -7t12.5 -7t12 -5.5t13 -5.5t13.5 -4t16 -2.5t16 -0.5q54 0 89.5 30.5t44.5 83.5h192q-31 -175 -123 -271.5t-227 -96.5q-60 0 -101 17.5t-79 48.5q-6 5 -22 17.5t-24 17.5t-21.5 13t-26.5 11t-28 3
q-46 0 -78.5 -32.5t-41.5 -85.5h-196q33 181 113 275.5t199 94.5z" />
    <glyph glyph-name="uni00A0" unicode="&#xa0;" horiz-adv-x="408" 
 />
    <glyph glyph-name="exclamdown" unicode="&#xa1;" 
d="M258 1024h370l-48 -276h-370zM240 634h270l-130 -942h-342z" />
    <glyph glyph-name="cent" unicode="&#xa2;" horiz-adv-x="1194" 
d="M184 596q0 277 162 448.5t412 171.5h4l20 114h120l-22 -122q181 -30 276.5 -146.5t95.5 -299.5h-324q0 128 -98 168l-94 -534q135 18 168 170h320q-36 -211 -177.5 -328.5t-356.5 -117.5h-2l-22 -120h-118l22 130q-179 32 -282.5 155.5t-103.5 310.5zM514 604
q0 -154 106 -196l94 534q-87 -17 -143.5 -111.5t-56.5 -226.5z" />
    <glyph glyph-name="sterling" unicode="&#xa3;" horiz-adv-x="1260" 
d="M218 778h164l30 166q32 180 167.5 292t324.5 112q206 0 324 -104.5t118 -283.5h-342q0 54 -29 84t-81 30q-57 0 -94.5 -41.5t-51.5 -116.5l-24 -138h350l-26 -236h-366l-6 -40q-12 -68 -48.5 -120.5t-93.5 -77.5h710l-56 -304h-1116l56 316q89 27 143.5 80t66.5 122l4 24
h-166z" />
    <glyph glyph-name="currency" unicode="&#xa4;" horiz-adv-x="1168" 
d="M876 910l178 158l176 -216l-176 -142q14 -51 2 -124q-9 -78 -52 -152l128 -144l-254 -216l-126 164q-60 -22 -128 -22q-69 0 -126 22l-184 -164l-176 216l180 144q-12 65 -4 130q8 67 50 144l-126 144l252 216l120 -158q66 24 138 24q68 0 128 -24zM546 566
q-8 -65 22.5 -102.5t91.5 -37.5q66 0 110.5 43t53.5 115q9 64 -21.5 102t-90.5 38q-66 0 -111.5 -43.5t-54.5 -114.5z" />
    <glyph glyph-name="yen" unicode="&#xa5;" horiz-adv-x="1314" 
d="M256 332h286l16 96h-288l40 218h204l-242 686h356l154 -526l336 526h394l-488 -686h208l-40 -218h-292l-16 -96h294l-40 -218h-294l-20 -114h-340l20 114h-288z" />
    <glyph glyph-name="brokenbar" unicode="&#xa6;" 
d="M386 1640h334l-162 -918h-334zM520 508l-162 -918h-334l162 918h334z" />
    <glyph glyph-name="section" unicode="&#xa7;" horiz-adv-x="1132" 
d="M698 336l-202 20q-159 15 -236.5 67t-77.5 145q0 77 63.5 134.5t178.5 87.5q-172 63 -172 220q0 156 137.5 255t350.5 99q242 0 373 -85.5t131 -242.5h-350q-2 51 -38 75.5t-112 24.5q-68 0 -111 -26t-43 -66q0 -39 82 -48l200 -20q161 -18 237.5 -69.5t76.5 -144.5
q0 -77 -58 -137t-164 -95q150 -69 150 -228q0 -147 -136.5 -240.5t-349.5 -93.5q-236 0 -370 85.5t-134 238.5h348q1 -49 38 -72.5t114 -23.5q68 0 112 24.5t44 63.5q0 43 -82 52zM620 594l102 -10q47 6 74.5 31.5t27.5 64.5q0 46 -76 54l-104 14q-47 -8 -73.5 -33.5
t-26.5 -62.5q0 -47 76 -58z" />
    <glyph glyph-name="dieresis" unicode="&#xa8;" horiz-adv-x="952" 
d="M564 1350h334v-326h-334v326zM56 1350h334v-326h-334v326z" />
    <glyph glyph-name="copyright" unicode="&#xa9;" horiz-adv-x="1792" 
d="M1824 666q0 -230 -102 -408.5t-287.5 -277t-424.5 -98.5q-357 0 -575.5 209.5t-218.5 552.5q0 175 59.5 324t165.5 254t256.5 164.5t326.5 59.5q233 0 415.5 -98t283.5 -276t101 -406zM1008 106q253 0 409.5 155.5t156.5 406.5q0 248 -153 400t-403 152
q-249 0 -401.5 -154.5t-152.5 -407.5q0 -249 149 -400.5t395 -151.5zM594 664q0 192 116 309t306 117q173 0 284.5 -92.5t123.5 -253.5h-280q-3 124 -128 124q-68 0 -105 -52.5t-37 -151.5t37 -153.5t105 -54.5q122 0 128 106h280q-15 -155 -125.5 -241.5t-282.5 -86.5
q-190 0 -306 118t-116 312z" />
    <glyph glyph-name="ordfeminine" unicode="&#xaa;" horiz-adv-x="1000" 
d="M1044 764q-27 -151 -18 -240h-276q-3 56 2 106q-51 -59 -118.5 -92.5t-137.5 -33.5q-132 0 -212 63.5t-80 168.5q0 107 87.5 176.5t238.5 81.5l194 18q46 5 68.5 14t29.5 28l2 16q6 36 -24 61t-82 25q-136 0 -166 -92h-282q35 135 149.5 212.5t294.5 77.5
q203 0 302.5 -89t77.5 -217zM488 770q0 -27 28 -43.5t76 -16.5q74 0 129 40.5t65 101.5l2 12l-204 -20q-96 -9 -96 -74z" />
    <glyph glyph-name="guillemotleft" unicode="&#xab;" horiz-adv-x="1236" 
d="M1388 1160l-64 -358l-328 -186l264 -174l-64 -360l-464 346l68 388zM788 1160l-64 -358l-328 -186l264 -174l-64 -360l-464 346l68 388z" />
    <glyph glyph-name="logicalnot" unicode="&#xac;" horiz-adv-x="1270" 
d="M948 414h-822l56 304h1160l-100 -570h-342z" />
    <glyph glyph-name="uni00AD" unicode="&#xad;" horiz-adv-x="850" 
d="M182 718h740l-54 -304h-742z" />
    <glyph glyph-name="registered" unicode="&#xae;" horiz-adv-x="1792" 
d="M1824 666q0 -230 -102 -408.5t-287.5 -277t-424.5 -98.5q-357 0 -575.5 209.5t-218.5 552.5q0 175 59.5 324t165.5 254t256.5 164.5t326.5 59.5q233 0 415.5 -98t283.5 -276t101 -406zM1008 106q253 0 409.5 155.5t156.5 406.5q0 248 -153 400t-403 152
q-249 0 -401.5 -154.5t-152.5 -407.5q0 -249 149 -400.5t395 -151.5zM1016 506h-116v-234h-256v780h464q124 0 200 -60.5t76 -159.5q0 -66 -36.5 -117.5t-101.5 -80.5q59 -21 89 -66t41 -124l22 -172h-252l-18 140q-8 49 -33.5 71.5t-78.5 22.5zM1042 856h-142v-160h142
q42 0 66 23t24 63q0 35 -24 54.5t-66 19.5z" />
    <glyph glyph-name="macron" unicode="&#xaf;" horiz-adv-x="824" 
d="M282 1296h718l-44 -248h-716z" />
    <glyph glyph-name="degree" unicode="&#xb0;" horiz-adv-x="836" 
d="M962 1054q0 -165 -110.5 -276.5t-275.5 -111.5q-153 0 -248.5 88t-95.5 226q0 167 110.5 278.5t275.5 111.5q153 0 248.5 -87.5t95.5 -228.5zM480 998q0 -49 28 -76.5t78 -27.5q54 0 90 41t36 105q0 48 -28.5 76t-77.5 28q-54 0 -90 -41t-36 -105z" />
    <glyph glyph-name="plusminus" unicode="&#xb1;" horiz-adv-x="1190" 
d="M900 870h390l-56 -302h-388l-52 -304h-304l54 304h-388l52 302h388l54 304h304zM1166 170l-54 -302h-1082l56 302h1080z" />
    <glyph glyph-name="uni00B2" unicode="&#xb2;" horiz-adv-x="890" 
d="M542 964h440l-38 -218h-740l10 64q14 79 45 141t65.5 100t84 68t87.5 44.5t90 28.5q11 3 30.5 8t29.5 8t26.5 8t25 8.5t20.5 8.5t19 10.5t14 12t10.5 14t4.5 16.5q6 34 -13.5 53t-60.5 19q-45 0 -76 -23.5t-40 -62.5h-280q35 128 153.5 207t278.5 79q166 0 253.5 -74.5
t64.5 -197.5q-7 -41 -28 -75.5t-47 -57.5t-64.5 -43.5t-70.5 -32.5t-76 -25q-13 -4 -45.5 -13.5t-45.5 -13.5t-38 -12.5t-37.5 -14.5t-27.5 -15t-24 -19z" />
    <glyph glyph-name="uni00B3" unicode="&#xb3;" horiz-adv-x="908" 
d="M572 1066l26 148h96q55 0 68 60q6 39 -14.5 60.5t-63.5 21.5q-40 0 -68.5 -22t-37.5 -60h-280q35 128 152 206t274 78q161 0 252.5 -66.5t73.5 -171.5q-24 -124 -146 -178q124 -54 100 -190q-16 -100 -125.5 -161t-270.5 -61q-170 0 -269 81t-87 211h280q-3 -42 22.5 -64
t75.5 -22q91 0 104 68q9 62 -66 62h-96z" />
    <glyph glyph-name="acute" unicode="&#xb4;" horiz-adv-x="696" 
d="M854 1418l-378 -394h-270l268 394h380z" />
    <glyph glyph-name="mu" unicode="&#xb5;" horiz-adv-x="1188" 
d="M272 1024h344l-106 -598q-9 -75 26 -115.5t110 -40.5q69 0 120.5 45.5t63.5 118.5h2l104 590h342l-182 -1024h-340l16 94q-117 -130 -250 -130q-54 0 -94 8l-52 -306h-342z" />
    <glyph glyph-name="paragraph" unicode="&#xb6;" horiz-adv-x="1394" 
d="M608 544q-174 0 -276 95.5t-102 260.5q0 83 32.5 160.5t91.5 138t150 97t200 36.5h812l-234 -1332h-306l182 1036h-146l-184 -1036h-316z" />
    <glyph glyph-name="periodcentered" unicode="&#xb7;" 
d="M232 866h370l-64 -358h-372z" />
    <glyph glyph-name="cedilla" unicode="&#xb8;" horiz-adv-x="620" 
d="M198 20h182l-70 -132h30q100 0 163 -66.5t63 -173.5q0 -105 -89 -166.5t-239 -61.5h-182v238h166q80 0 80 62q0 48 -62 48h-70l-52 78z" />
    <glyph glyph-name="uni00B9" unicode="&#xb9;" horiz-adv-x="628" 
d="M538 1536h274l-140 -790h-272l72 414h-216l40 222h92q65 0 98.5 24t43.5 86z" />
    <glyph glyph-name="ordmasculine" unicode="&#xba;" horiz-adv-x="1000" 
d="M224 876q0 207 131 342.5t329 135.5q186 0 299 -101t113 -269q0 -207 -131 -344.5t-329 -137.5q-186 0 -299 103t-113 271zM832 974q0 75 -40.5 116.5t-115.5 41.5q-84 0 -136 -68t-52 -178q0 -77 40.5 -118.5t115.5 -41.5q83 0 135.5 69.5t52.5 178.5z" />
    <glyph glyph-name="guillemotright" unicode="&#xbb;" horiz-adv-x="1236" 
d="M72 82l62 360l326 182l-262 176l62 360l466 -344l-70 -388zM672 82l62 360l328 182l-264 176l64 360l466 -344l-68 -388z" />
    <glyph glyph-name="onequarter" unicode="&#xbc;" horiz-adv-x="2044" 
d="M614 1332h272l-138 -792h-274l72 416h-216l40 222h92q64 0 98 23.5t46 84.5zM1386 1332h290l-776 -1332h-292zM1874 156l-28 -156h-256l28 156h-418l38 220l436 414h310l-76 -436h116l-36 -198h-114zM1652 354l36 200l-192 -200h156z" />
    <glyph glyph-name="onehalf" unicode="&#xbd;" horiz-adv-x="2044" 
d="M614 1332h272l-138 -792h-274l72 416h-216l40 222h92q64 0 98 23.5t46 84.5zM1386 1332h290l-776 -1332h-292zM1562 218h438l-38 -218h-740l12 64q14 79 44.5 141t64.5 100t84 68t87.5 44t89.5 29q11 3 30.5 8t29.5 8t26.5 8t25.5 8.5t21 8.5t18.5 10.5t14 12t11 14
t5.5 16.5q6 34 -13.5 53t-60.5 19q-46 0 -77.5 -23.5t-40.5 -62.5h-278q33 128 152.5 208t279.5 80q165 0 252 -75.5t66 -198.5q-8 -41 -29 -75t-46.5 -57t-64.5 -43t-71 -32t-77 -25q-18 -6 -53 -16.5t-53.5 -17t-43 -16t-40.5 -19.5t-26 -21z" />
    <glyph glyph-name="threequarters" unicode="&#xbe;" horiz-adv-x="2044" 
d="M536 862l26 148h96q56 0 68 60q6 37 -15 58.5t-63 21.5q-87 0 -106 -82h-280q35 128 152.5 207t275.5 79q159 0 250.5 -67.5t73.5 -172.5q-24 -125 -146 -176q124 -54 100 -190q-16 -100 -125.5 -162t-270.5 -62q-171 0 -269.5 81.5t-86.5 212.5h280q-3 -42 22.5 -64
t75.5 -22q91 0 104 66q5 30 -12 47t-54 17h-96zM1386 1332h290l-776 -1332h-292zM1874 156l-28 -156h-256l28 156h-418l38 220l436 414h310l-76 -436h116l-36 -198h-114zM1652 354l36 200l-192 -200h156z" />
    <glyph glyph-name="questiondown" unicode="&#xbf;" horiz-adv-x="1178" 
d="M582 1024h370l-48 -276h-372zM870 634q-16 -59 -42.5 -110.5t-50 -84t-63.5 -68.5t-60.5 -51.5t-63.5 -45.5q-34 -25 -48 -35.5t-38.5 -33.5t-34.5 -40.5t-18.5 -44.5t-8.5 -58q0 -55 36 -85.5t102 -30.5q76 0 130 49t72 133h348q-50 -202 -208 -327t-366 -125
q-215 0 -340.5 93.5t-125.5 250.5q0 127 50 207.5t140 148.5q19 15 59.5 44t62.5 47t50.5 45.5t47 57.5t28.5 64h342z" />
    <glyph glyph-name="Agrave" unicode="&#xc0;" horiz-adv-x="1366" 
d="M604 1828h362l162 -394h-256zM1328 0h-340l-28 238h-438l-110 -238h-374l686 1332h388zM868 974l-218 -466h276z" />
    <glyph glyph-name="Aacute" unicode="&#xc1;" horiz-adv-x="1366" 
d="M1404 1828l-366 -394h-290l258 394h398zM1328 0h-340l-28 238h-438l-110 -238h-374l686 1332h388zM868 974l-218 -466h276z" />
    <glyph glyph-name="Acircumflex" unicode="&#xc2;" horiz-adv-x="1366" 
d="M828 1830h324l224 -396h-292l-114 226l-176 -226h-332zM1328 0h-340l-28 238h-438l-110 -238h-374l686 1332h388zM868 974l-218 -466h276z" />
    <glyph glyph-name="Atilde" unicode="&#xc3;" horiz-adv-x="1366" 
d="M778 1806q49 0 93 -14.5t59.5 -24.5t57.5 -39q51 -36 77 -43q17 -5 35 -5q54 0 89.5 30t44.5 84h192q-30 -175 -121.5 -271.5t-226.5 -96.5q-41 0 -77 11.5t-53.5 22.5t-45.5 32q-3 2 -18 14t-19 15t-17 11.5t-20.5 11t-19.5 5.5t-24 3q-45 0 -78 -32t-42 -86h-196
q31 183 110.5 277.5t199.5 94.5zM1328 0h-340l-28 238h-438l-110 -238h-374l686 1332h388zM868 974l-218 -466h276z" />
    <glyph glyph-name="Adieresis" unicode="&#xc4;" horiz-adv-x="1366" 
d="M1070 1760h336l-58 -326h-336zM562 1760h336l-58 -326h-334zM1328 0h-340l-28 238h-438l-110 -238h-374l686 1332h388zM868 974l-218 -466h276z" />
    <glyph glyph-name="Aring" unicode="&#xc5;" horiz-adv-x="1366" 
d="M1328 0h-340l-28 238h-438l-110 -238h-374l632 1230q-60 73 -60 178q0 154 106 258t262 104q138 0 219 -73.5t81 -198.5q0 -91 -38.5 -167t-105.5 -125zM830 1428q0 -86 100 -86q59 0 94.5 37.5t35.5 98.5q0 42 -25.5 64t-72.5 22q-58 0 -95 -38t-37 -98zM868 974
l-218 -466h276z" />
    <glyph glyph-name="AE" unicode="&#xc6;" horiz-adv-x="1966" 
d="M2108 1332l-56 -322h-624l-32 -176h568l-58 -320h-566l-34 -194h624l-56 -320h-966l42 238h-400l-138 -238h-374l786 1332h1284zM698 508h300l90 516h-96z" />
    <glyph glyph-name="Ccedilla" unicode="&#xc7;" horiz-adv-x="1372" 
d="M182 558q0 222 89 403.5t246 285t349 103.5q260 0 413 -138.5t153 -397.5h-342q0 111 -60 170.5t-174 59.5q-141 0 -234.5 -136.5t-93.5 -341.5q0 -132 63.5 -203t182.5 -71q95 0 164.5 53.5t93.5 144.5h352q-51 -239 -211 -372.5t-419 -133.5h-2l-68 -96h30
q86 0 136 -56.5t50 -151.5q0 -120 -90 -190t-244 -70h-220l42 238h166q44 0 69 18.5t25 51.5q0 18 -15.5 29t-40.5 11h-68l-40 78l102 158q-190 45 -297 190.5t-107 363.5z" />
    <glyph glyph-name="Egrave" unicode="&#xc8;" horiz-adv-x="1136" 
d="M530 1828h362l162 -394h-254zM1296 1332l-56 -322h-624l-32 -176h566l-56 -320h-566l-34 -194h624l-56 -320h-966l234 1332h966z" />
    <glyph glyph-name="Eacute" unicode="&#xc9;" horiz-adv-x="1136" 
d="M1330 1828l-364 -394h-290l256 394h398zM1296 1332l-56 -322h-624l-32 -176h566l-56 -320h-566l-34 -194h624l-56 -320h-966l234 1332h966z" />
    <glyph glyph-name="Ecircumflex" unicode="&#xca;" horiz-adv-x="1136" 
d="M754 1830h326l224 -396h-292l-116 226l-174 -226h-332zM1296 1332l-56 -322h-624l-32 -176h566l-56 -320h-566l-34 -194h624l-56 -320h-966l234 1332h966z" />
    <glyph glyph-name="Edieresis" unicode="&#xcb;" horiz-adv-x="1136" 
d="M998 1760h334l-56 -326h-336zM490 1760h334l-56 -326h-336zM1296 1332l-56 -322h-624l-32 -176h566l-56 -320h-566l-34 -194h624l-56 -320h-966l234 1332h966z" />
    <glyph glyph-name="Igrave" unicode="&#xcc;" 
d="M194 1828h362l162 -394h-254zM326 1332h342l-234 -1332h-342z" />
    <glyph glyph-name="Iacute" unicode="&#xcd;" 
d="M994 1828l-364 -394h-290l256 394h398zM326 1332h342l-234 -1332h-342z" />
    <glyph glyph-name="Icircumflex" unicode="&#xce;" 
d="M418 1830h326l224 -396h-292l-116 226l-174 -226h-332zM326 1332h342l-234 -1332h-342z" />
    <glyph glyph-name="Idieresis" unicode="&#xcf;" 
d="M662 1760h334l-56 -326h-336zM154 1760h334l-56 -326h-336zM326 1332h342l-234 -1332h-342z" />
    <glyph glyph-name="Eth" unicode="&#xd0;" horiz-adv-x="1508" 
d="M204 806h184l92 526h544q253 0 399.5 -152.5t146.5 -413.5q0 -221 -82 -395t-234.5 -272.5t-351.5 -98.5h-656l92 520h-186zM768 1028l-40 -222h272l-50 -286h-272l-36 -216h254q97 0 171.5 64.5t112.5 167.5t38 224q0 129 -60 198.5t-174 69.5h-216z" />
    <glyph glyph-name="Ntilde" unicode="&#xd1;" horiz-adv-x="1368" 
d="M790 1806q38 0 69 -6t60 -21t40 -22t41 -29q3 -2 17 -11.5t18 -12t16 -9t19.5 -8.5t19.5 -4.5t24 -2.5q54 0 89.5 30t44.5 84h192q-31 -175 -122.5 -271.5t-225.5 -96.5q-42 0 -79 12t-52.5 22t-46.5 32q-3 3 -11.5 10t-12 10t-11.5 9t-12.5 8.5t-12 7t-13 6.5t-13.5 4.5
t-16 3.5t-16 1q-45 0 -78 -32t-42 -86h-196q33 183 112 277.5t198 94.5zM1166 1332h342l-236 -1332h-336l-354 818l-144 -818h-342l234 1332h400l302 -762z" />
    <glyph glyph-name="Ograve" unicode="&#xd2;" horiz-adv-x="1428" 
d="M640 1828h362l162 -394h-254zM182 550q0 224 89 407t251 289t366 106q266 0 427 -160.5t161 -427.5q0 -168 -50 -312t-139.5 -247.5t-221 -162t-287.5 -58.5q-270 0 -433 155t-163 411zM1132 756q0 138 -68.5 214t-191.5 76q-145 0 -243.5 -139.5t-98.5 -342.5
q0 -130 69 -201t197 -71q149 0 242.5 129.5t93.5 334.5z" />
    <glyph glyph-name="Oacute" unicode="&#xd3;" horiz-adv-x="1428" 
d="M1440 1828l-364 -394h-290l256 394h398zM182 550q0 224 89 407t251 289t366 106q266 0 427 -160.5t161 -427.5q0 -168 -50 -312t-139.5 -247.5t-221 -162t-287.5 -58.5q-270 0 -433 155t-163 411zM1132 756q0 138 -68.5 214t-191.5 76q-145 0 -243.5 -139.5t-98.5 -342.5
q0 -130 69 -201t197 -71q149 0 242.5 129.5t93.5 334.5z" />
    <glyph glyph-name="Ocircumflex" unicode="&#xd4;" horiz-adv-x="1428" 
d="M864 1830h326l224 -396h-292l-114 226l-176 -226h-332zM182 550q0 224 89 407t251 289t366 106q266 0 427 -160.5t161 -427.5q0 -168 -50 -312t-139.5 -247.5t-221 -162t-287.5 -58.5q-270 0 -433 155t-163 411zM1132 756q0 138 -68.5 214t-191.5 76
q-145 0 -243.5 -139.5t-98.5 -342.5q0 -130 69 -201t197 -71q149 0 242.5 129.5t93.5 334.5z" />
    <glyph glyph-name="Otilde" unicode="&#xd5;" horiz-adv-x="1428" 
d="M816 1806q30 0 58.5 -5.5t45 -10.5t41.5 -20t31 -19t32 -23q3 -2 17 -11.5t18 -12t16 -9t19.5 -8.5t19.5 -4.5t24 -2.5q54 0 89.5 30t44.5 84h192q-32 -176 -122.5 -272t-225.5 -96q-42 0 -78.5 12t-52.5 22.5t-45 31.5q-3 2 -18 14t-19 15t-17 11.5t-20.5 11t-19.5 5.5
t-24 3q-47 0 -80 -32t-40 -86h-198q33 183 112.5 277.5t199.5 94.5zM182 550q0 224 89 407t251 289t366 106q266 0 427 -160.5t161 -427.5q0 -168 -50 -312t-139.5 -247.5t-221 -162t-287.5 -58.5q-270 0 -433 155t-163 411zM1132 756q0 138 -68.5 214t-191.5 76
q-145 0 -243.5 -139.5t-98.5 -342.5q0 -130 69 -201t197 -71q149 0 242.5 129.5t93.5 334.5z" />
    <glyph glyph-name="Odieresis" unicode="&#xd6;" horiz-adv-x="1428" 
d="M1108 1760h336l-58 -326h-336zM600 1760h336l-58 -326h-336zM182 550q0 224 89 407t251 289t366 106q266 0 427 -160.5t161 -427.5q0 -168 -50 -312t-139.5 -247.5t-221 -162t-287.5 -58.5q-270 0 -433 155t-163 411zM1132 756q0 138 -68.5 214t-191.5 76
q-145 0 -243.5 -139.5t-98.5 -342.5q0 -130 69 -201t197 -71q149 0 242.5 129.5t93.5 334.5z" />
    <glyph glyph-name="multiply" unicode="&#xd7;" horiz-adv-x="1190" 
d="M742 830l334 302l178 -216l-350 -282l248 -282l-252 -214l-228 298l-334 -298l-178 214l348 282l-248 282l252 216z" />
    <glyph glyph-name="Oslash" unicode="&#xd8;" horiz-adv-x="1428" 
d="M182 550q0 167 52.5 315t144.5 255t224.5 169.5t284.5 62.5q212 0 362 -106l180 182l150 -148l-186 -190q82 -142 82 -326q0 -224 -85.5 -401t-245.5 -278t-367 -101q-213 0 -366 100l-176 -180l-152 148l180 184q-82 131 -82 314zM530 564q0 -36 2 -52l486 496
q-63 38 -146 38q-145 0 -243.5 -139.5t-98.5 -342.5zM1132 756q0 24 -4 60l-480 -490q57 -34 148 -34q149 0 242.5 129.5t93.5 334.5z" />
    <glyph glyph-name="Ugrave" unicode="&#xd9;" horiz-adv-x="1288" 
d="M560 1828h362l162 -394h-256zM320 1332h340l-136 -790q-20 -109 35.5 -174.5t172.5 -65.5q87 0 146 54.5t76 147.5l144 828h342l-150 -856q-41 -225 -195.5 -358.5t-376.5 -133.5q-136 0 -246.5 44t-181 121.5t-99.5 187.5t-7 237z" />
    <glyph glyph-name="Uacute" unicode="&#xda;" horiz-adv-x="1288" 
d="M1360 1828l-366 -394h-290l258 394h398zM320 1332h340l-136 -790q-20 -109 35.5 -174.5t172.5 -65.5q87 0 146 54.5t76 147.5l144 828h342l-150 -856q-41 -225 -195.5 -358.5t-376.5 -133.5q-136 0 -246.5 44t-181 121.5t-99.5 187.5t-7 237z" />
    <glyph glyph-name="Ucircumflex" unicode="&#xdb;" horiz-adv-x="1288" 
d="M784 1830h324l224 -396h-290l-116 226l-176 -226h-332zM320 1332h340l-136 -790q-20 -109 35.5 -174.5t172.5 -65.5q87 0 146 54.5t76 147.5l144 828h342l-150 -856q-41 -225 -195.5 -358.5t-376.5 -133.5q-136 0 -246.5 44t-181 121.5t-99.5 187.5t-7 237z" />
    <glyph glyph-name="Udieresis" unicode="&#xdc;" horiz-adv-x="1288" 
d="M1026 1760h336l-58 -326h-334zM518 1760h336l-58 -326h-334zM320 1332h340l-136 -790q-20 -109 35.5 -174.5t172.5 -65.5q87 0 146 54.5t76 147.5l144 828h342l-150 -856q-41 -225 -195.5 -358.5t-376.5 -133.5q-136 0 -246.5 44t-181 121.5t-99.5 187.5t-7 237z" />
    <glyph glyph-name="Yacute" unicode="&#xdd;" horiz-adv-x="1314" 
d="M1384 1828l-366 -394h-290l258 394h398zM562 446l-288 886h354l154 -532l336 532h394l-608 -886l-80 -446h-340z" />
    <glyph glyph-name="Thorn" unicode="&#xde;" horiz-adv-x="1258" 
d="M326 1332h342l-32 -194h240q203 0 320.5 -111t117.5 -303q0 -208 -148 -352t-380 -144h-308l-40 -228h-346zM588 850l-58 -318h226q98 0 155 55t57 139q0 59 -40 91.5t-116 32.5h-224z" />
    <glyph glyph-name="germandbls" unicode="&#xdf;" horiz-adv-x="1286" 
d="M880 1164q-110 0 -186.5 -69t-97.5 -189l-158 -906h-342l162 920q39 236 215.5 383t420.5 147q210 0 348 -112.5t138 -283.5q0 -112 -67 -203t-183 -143q156 -100 156 -298q0 -176 -139 -293t-349 -117h-226l50 290h134q92 0 148 48.5t56 127.5q0 57 -41.5 87.5
t-120.5 30.5h-94l48 272h94q85 0 140.5 49.5t55.5 126.5q0 59 -45.5 95.5t-116.5 36.5z" />
    <glyph glyph-name="agrave" unicode="&#xe0;" horiz-adv-x="1152" 
d="M458 1538h360l162 -394h-254zM1176 614l-102 -614h-348l20 112q-111 -136 -292 -136q-144 0 -235 85.5t-91 220.5q0 160 97.5 248t282.5 94l250 6q72 3 86 50l2 12q10 53 -28.5 88.5t-105.5 35.5q-122 0 -154 -108h-348q39 158 175 253t323 95q238 0 369 -123.5
t99 -318.5zM480 314q0 -44 33.5 -70t88.5 -26q66 0 117 37t69 97l12 66l-198 -6q-59 -1 -90.5 -27t-31.5 -71z" />
    <glyph glyph-name="aacute" unicode="&#xe1;" horiz-adv-x="1152" 
d="M1256 1538l-364 -394h-290l256 394h398zM1176 614l-102 -614h-348l20 112q-111 -136 -292 -136q-144 0 -235 85.5t-91 220.5q0 160 97.5 248t282.5 94l250 6q72 3 86 50l2 12q10 53 -28.5 88.5t-105.5 35.5q-122 0 -154 -108h-348q39 158 175 253t323 95
q238 0 369 -123.5t99 -318.5zM480 314q0 -44 33.5 -70t88.5 -26q66 0 117 37t69 97l12 66l-198 -6q-59 -1 -90.5 -27t-31.5 -71z" />
    <glyph glyph-name="acircumflex" unicode="&#xe2;" horiz-adv-x="1152" 
d="M680 1540h326l224 -396h-292l-116 226l-174 -226h-332zM1176 614l-102 -614h-348l20 112q-111 -136 -292 -136q-144 0 -235 85.5t-91 220.5q0 160 97.5 248t282.5 94l250 6q72 3 86 50l2 12q10 53 -28.5 88.5t-105.5 35.5q-122 0 -154 -108h-348q39 158 175 253t323 95
q238 0 369 -123.5t99 -318.5zM480 314q0 -44 33.5 -70t88.5 -26q66 0 117 37t69 97l12 66l-198 -6q-59 -1 -90.5 -27t-31.5 -71z" />
    <glyph glyph-name="atilde" unicode="&#xe3;" horiz-adv-x="1152" 
d="M630 1516q38 0 69 -6t60 -21t40 -22t41 -29q3 -2 17 -11.5t18 -12t16 -9t19.5 -8.5t19.5 -4.5t24 -2.5q54 0 89.5 30t44.5 84h192q-31 -175 -122.5 -271.5t-225.5 -96.5q-42 0 -79 12t-52.5 22t-46.5 32q-3 3 -11.5 10t-12 10t-11.5 9t-12.5 8.5t-12 7t-13 6.5t-13.5 4.5
t-16 3.5t-16 1q-45 0 -78 -32t-42 -86h-196q33 183 112 277.5t198 94.5zM1176 614l-102 -614h-348l20 112q-111 -136 -292 -136q-144 0 -235 85.5t-91 220.5q0 160 97.5 248t282.5 94l250 6q72 3 86 50l2 12q10 53 -28.5 88.5t-105.5 35.5q-122 0 -154 -108h-348
q39 158 175 253t323 95q238 0 369 -123.5t99 -318.5zM480 314q0 -44 33.5 -70t88.5 -26q66 0 117 37t69 97l12 66l-198 -6q-59 -1 -90.5 -27t-31.5 -71z" />
    <glyph glyph-name="adieresis" unicode="&#xe4;" horiz-adv-x="1152" 
d="M924 1470h334l-56 -326h-336zM416 1470h334l-56 -326h-336zM1176 614l-102 -614h-348l20 112q-111 -136 -292 -136q-144 0 -235 85.5t-91 220.5q0 160 97.5 248t282.5 94l250 6q72 3 86 50l2 12q10 53 -28.5 88.5t-105.5 35.5q-122 0 -154 -108h-348q39 158 175 253
t323 95q238 0 369 -123.5t99 -318.5zM480 314q0 -44 33.5 -70t88.5 -26q66 0 117 37t69 97l12 66l-198 -6q-59 -1 -90.5 -27t-31.5 -71z" />
    <glyph glyph-name="aring" unicode="&#xe5;" horiz-adv-x="1152" 
d="M1154 1492q0 -154 -105 -258t-261 -104q-139 0 -220.5 73.5t-81.5 198.5q0 155 105.5 259.5t262.5 104.5q138 0 219 -74.5t81 -199.5zM706 1422q0 -42 26 -64t74 -22q57 0 92.5 37.5t35.5 98.5q0 42 -25 65t-71 23q-59 0 -95.5 -38.5t-36.5 -99.5zM1176 614l-102 -614
h-348l20 112q-111 -136 -292 -136q-144 0 -235 85.5t-91 220.5q0 160 97.5 248t282.5 94l250 6q72 3 86 50l2 12q10 53 -28.5 88.5t-105.5 35.5q-122 0 -154 -108h-348q39 158 175 253t323 95q238 0 369 -123.5t99 -318.5zM480 314q0 -44 33.5 -70t88.5 -26q66 0 117 37
t69 97l12 66l-198 -6q-59 -1 -90.5 -27t-31.5 -71z" />
    <glyph glyph-name="ae" unicode="&#xe6;" horiz-adv-x="1858" 
d="M1368 -18q-156 0 -264 64.5t-158 185.5q-59 -122 -169.5 -189t-254.5 -67q-173 0 -283.5 85.5t-110.5 220.5q0 162 99 248.5t281 91.5l250 6q73 3 86 50l2 12q10 54 -32 89t-114 35q-113 0 -142 -108h-348q37 159 169 254.5t311 95.5q126 0 222.5 -42.5t151.5 -119.5
q146 152 360 152q241 0 368 -152t88 -394l-12 -68h-704q3 -96 45.5 -142t128.5 -46q120 0 162 100h362q-109 -362 -494 -362zM1382 806q-138 0 -190 -160h352q4 72 -40.5 116t-121.5 44zM482 326q0 -45 33 -70.5t89 -25.5q68 0 122.5 42.5t67.5 113.5l8 44l-198 -6
q-59 -2 -90.5 -27t-31.5 -71z" />
    <glyph glyph-name="ccedilla" unicode="&#xe7;" horiz-adv-x="1194" 
d="M156 440q0 277 162 448.5t412 171.5q240 0 367 -120t127 -334h-350q0 81 -40 123.5t-118 42.5q-92 0 -154 -93t-62 -231q0 -94 45 -143t131 -49q151 0 184 156h334q-36 -208 -172 -324.5t-344 -121.5l-56 -78h32q86 0 136 -56.5t50 -151.5q0 -120 -90 -190t-244 -70h-222
l44 238h166q44 0 69 18.5t25 51.5q0 40 -58 40h-68l-38 78l88 136q-167 39 -261.5 159.5t-94.5 298.5z" />
    <glyph glyph-name="egrave" unicode="&#xe8;" horiz-adv-x="1208" 
d="M472 1538h362l160 -394h-254zM156 458q0 256 154.5 422t397.5 166q177 0 302.5 -69t179 -193.5t24.5 -283.5l-12 -68h-702q3 -188 172 -188q122 0 164 100h362q-115 -362 -512 -362q-252 0 -391 125t-139 351zM716 806q-138 0 -190 -160h354q3 72 -41.5 116t-122.5 44z
" />
    <glyph glyph-name="eacute" unicode="&#xe9;" horiz-adv-x="1208" 
d="M1272 1538l-366 -394h-290l258 394h398zM156 458q0 256 154.5 422t397.5 166q177 0 302.5 -69t179 -193.5t24.5 -283.5l-12 -68h-702q3 -188 172 -188q122 0 164 100h362q-115 -362 -512 -362q-252 0 -391 125t-139 351zM716 806q-138 0 -190 -160h354q3 72 -41.5 116
t-122.5 44z" />
    <glyph glyph-name="ecircumflex" unicode="&#xea;" horiz-adv-x="1208" 
d="M696 1540h324l224 -396h-290l-116 226l-176 -226h-332zM156 458q0 256 154.5 422t397.5 166q177 0 302.5 -69t179 -193.5t24.5 -283.5l-12 -68h-702q3 -188 172 -188q122 0 164 100h362q-115 -362 -512 -362q-252 0 -391 125t-139 351zM716 806q-138 0 -190 -160h354
q3 72 -41.5 116t-122.5 44z" />
    <glyph glyph-name="edieresis" unicode="&#xeb;" horiz-adv-x="1208" 
d="M938 1470h336l-58 -326h-334zM430 1470h336l-58 -326h-334zM156 458q0 256 154.5 422t397.5 166q177 0 302.5 -69t179 -193.5t24.5 -283.5l-12 -68h-702q3 -188 172 -188q122 0 164 100h362q-115 -362 -512 -362q-252 0 -391 125t-139 351zM716 806q-138 0 -190 -160h354
q3 72 -41.5 116t-122.5 44z" />
    <glyph glyph-name="igrave" unicode="&#xec;" 
d="M144 1540h362l162 -394h-256zM272 1024h342l-180 -1024h-342z" />
    <glyph glyph-name="iacute" unicode="&#xed;" 
d="M944 1540l-366 -394h-288l256 394h398zM272 1024h342l-180 -1024h-342z" />
    <glyph glyph-name="icircumflex" unicode="&#xee;" 
d="M368 1542h324l224 -396h-290l-116 226l-176 -226h-330zM272 1024h342l-180 -1024h-342z" />
    <glyph glyph-name="idieresis" unicode="&#xef;" 
d="M610 1472h336l-58 -326h-334zM104 1472h334l-58 -326h-334zM272 1024h342l-180 -1024h-342z" />
    <glyph glyph-name="eth" unicode="&#xf0;" horiz-adv-x="1310" 
d="M484 1298l210 16q-42 52 -110 120h378q28 -28 76 -92l214 18v-218l-94 -6q78 -184 78 -392q0 -348 -163 -554t-439 -206q-247 0 -402.5 149.5t-155.5 386.5q0 219 124 362.5t314 143.5q126 0 226.5 -65.5t147.5 -178.5v32q0 149 -66 294l-338 -28v218zM844 512
q0 106 -58.5 172t-153.5 66t-152.5 -66.5t-57.5 -175.5q0 -113 56.5 -181.5t149.5 -68.5q94 0 155 71.5t61 182.5z" />
    <glyph glyph-name="ntilde" unicode="&#xf1;" horiz-adv-x="1208" 
d="M670 1518q30 0 58.5 -5.5t45 -10.5t41.5 -20t31 -19t32 -23q3 -2 17 -11.5t18 -12t16 -9t19.5 -8.5t19.5 -4.5t24 -2.5q54 0 89.5 30t44.5 84h192q-32 -176 -122.5 -272t-225.5 -96q-42 0 -78.5 12t-52.5 22.5t-45 31.5q-3 2 -18 14t-19 15t-17 11.5t-20.5 11t-19.5 5.5
t-24 3q-47 0 -80 -32t-40 -86h-198q33 183 112.5 277.5t199.5 94.5zM876 560q15 94 -21.5 144t-116.5 50q-70 0 -123.5 -39.5t-72.5 -110.5l-106 -604h-342l178 1024h344l-26 -146q69 82 158.5 126t177.5 44q105 0 183 -65.5t109 -167.5t12 -213l-108 -602h-342z" />
    <glyph glyph-name="ograve" unicode="&#xf2;" horiz-adv-x="1212" 
d="M476 1538h362l160 -394h-254zM156 442q0 131 44 246t120 196.5t183 128.5t229 47q227 0 363.5 -127t136.5 -343q0 -131 -44 -247t-120 -198t-182.5 -129.5t-227.5 -47.5q-227 0 -364.5 129.5t-137.5 344.5zM886 582q0 90 -43 140t-121 50q-92 0 -156 -92t-64 -230
q0 -93 44 -143.5t122 -50.5q91 0 154.5 94t63.5 232z" />
    <glyph glyph-name="oacute" unicode="&#xf3;" horiz-adv-x="1212" 
d="M1276 1538l-366 -394h-290l258 394h398zM156 442q0 131 44 246t120 196.5t183 128.5t229 47q227 0 363.5 -127t136.5 -343q0 -131 -44 -247t-120 -198t-182.5 -129.5t-227.5 -47.5q-227 0 -364.5 129.5t-137.5 344.5zM886 582q0 90 -43 140t-121 50q-92 0 -156 -92
t-64 -230q0 -93 44 -143.5t122 -50.5q91 0 154.5 94t63.5 232z" />
    <glyph glyph-name="ocircumflex" unicode="&#xf4;" horiz-adv-x="1212" 
d="M700 1540h324l224 -396h-292l-114 226l-176 -226h-332zM156 442q0 131 44 246t120 196.5t183 128.5t229 47q227 0 363.5 -127t136.5 -343q0 -131 -44 -247t-120 -198t-182.5 -129.5t-227.5 -47.5q-227 0 -364.5 129.5t-137.5 344.5zM886 582q0 90 -43 140t-121 50
q-92 0 -156 -92t-64 -230q0 -93 44 -143.5t122 -50.5q91 0 154.5 94t63.5 232z" />
    <glyph glyph-name="otilde" unicode="&#xf5;" horiz-adv-x="1212" 
d="M650 1518q19 0 37.5 -2.5t32 -4.5t30.5 -9t25 -10t24 -13t20.5 -13t21.5 -15t19 -13q51 -36 77 -43q17 -5 35 -5q54 0 89.5 30t44.5 84h192q-30 -175 -121.5 -271.5t-226.5 -96.5q-41 0 -77 11.5t-53.5 22.5t-45.5 32q-3 2 -18 14t-19 15t-17 11.5t-20.5 11t-19.5 5.5
t-24 3q-45 0 -78 -32t-42 -86h-196q31 183 110.5 278.5t199.5 95.5zM156 442q0 131 44 246t120 196.5t183 128.5t229 47q227 0 363.5 -127t136.5 -343q0 -131 -44 -247t-120 -198t-182.5 -129.5t-227.5 -47.5q-227 0 -364.5 129.5t-137.5 344.5zM886 582q0 90 -43 140
t-121 50q-92 0 -156 -92t-64 -230q0 -93 44 -143.5t122 -50.5q91 0 154.5 94t63.5 232z" />
    <glyph glyph-name="odieresis" unicode="&#xf6;" horiz-adv-x="1212" 
d="M942 1470h336l-58 -326h-336zM434 1470h336l-58 -326h-334zM156 442q0 131 44 246t120 196.5t183 128.5t229 47q227 0 363.5 -127t136.5 -343q0 -131 -44 -247t-120 -198t-182.5 -129.5t-227.5 -47.5q-227 0 -364.5 129.5t-137.5 344.5zM886 582q0 90 -43 140t-121 50
q-92 0 -156 -92t-64 -230q0 -93 44 -143.5t122 -50.5q91 0 154.5 94t63.5 232z" />
    <glyph glyph-name="divide" unicode="&#xf7;" horiz-adv-x="1032" 
d="M564 1120h302l-54 -310h-302zM178 700h922l-48 -268h-922zM424 312h302l-56 -310h-300z" />
    <glyph glyph-name="oslash" unicode="&#xf8;" horiz-adv-x="1212" 
d="M156 442q0 131 44 246t120 196.5t183 128.5t229 47q197 0 324 -94l154 148l104 -114l-152 -146q70 -110 70 -264q0 -131 -44 -247t-120 -198t-182.5 -129.5t-227.5 -47.5q-191 0 -320 92l-152 -146l-106 112l150 146q-74 114 -74 270zM484 450q2 -12 2 -32l340 328
q-46 26 -104 26q-100 0 -168.5 -91.5t-69.5 -230.5zM904 582l-2 22l-336 -324q42 -24 102 -24q98 0 167 94t69 232z" />
    <glyph glyph-name="ugrave" unicode="&#xf9;" horiz-adv-x="1188" 
d="M454 1540h362l160 -394h-254zM516 464q-34 -194 128 -194q68 0 117.5 40t68.5 112l106 602h340l-178 -1024h-342l24 142q-68 -81 -154 -123.5t-174 -42.5q-104 0 -179 65.5t-103 167t-8 213.5l106 602h344z" />
    <glyph glyph-name="uacute" unicode="&#xfa;" horiz-adv-x="1188" 
d="M1254 1540l-366 -394h-290l258 394h398zM516 464q-34 -194 128 -194q68 0 117.5 40t68.5 112l106 602h340l-178 -1024h-342l24 142q-68 -81 -154 -123.5t-174 -42.5q-104 0 -179 65.5t-103 167t-8 213.5l106 602h344z" />
    <glyph glyph-name="ucircumflex" unicode="&#xfb;" horiz-adv-x="1188" 
d="M678 1542h324l224 -396h-292l-114 226l-176 -226h-332zM516 464q-34 -194 128 -194q68 0 117.5 40t68.5 112l106 602h340l-178 -1024h-342l24 142q-68 -81 -154 -123.5t-174 -42.5q-104 0 -179 65.5t-103 167t-8 213.5l106 602h344z" />
    <glyph glyph-name="udieresis" unicode="&#xfc;" horiz-adv-x="1188" 
d="M920 1472h336l-58 -326h-336zM412 1472h336l-58 -326h-336zM516 464q-34 -194 128 -194q68 0 117.5 40t68.5 112l106 602h340l-178 -1024h-342l24 142q-68 -81 -154 -123.5t-174 -42.5q-104 0 -179 65.5t-103 167t-8 213.5l106 602h344z" />
    <glyph glyph-name="yacute" unicode="&#xfd;" horiz-adv-x="1222" 
d="M1296 1540l-364 -394h-290l256 394h398zM114 -72h128q54 0 85.5 18t56.5 60l26 50l-174 968h348l92 -650l310 650h366l-538 -1046q-50 -98 -96 -159t-110.5 -105t-148 -62t-203.5 -18h-194z" />
    <glyph glyph-name="thorn" unicode="&#xfe;" horiz-adv-x="1226" 
d="M346 1434h344l-94 -544q59 76 136.5 118t163.5 42q161 0 261.5 -124t100.5 -324q0 -177 -63 -322t-174 -227.5t-247 -82.5q-111 0 -188.5 52.5t-115.5 151.5l-90 -508h-342zM910 582q0 90 -43.5 140t-122.5 50q-92 0 -155 -92t-63 -230q0 -92 43.5 -142t122.5 -50
q91 0 154.5 93t63.5 231z" />
    <glyph glyph-name="ydieresis" unicode="&#xff;" horiz-adv-x="1222" 
d="M964 1472h336l-58 -326h-336zM456 1472h336l-58 -326h-336zM114 -72h128q54 0 85.5 18t56.5 60l26 50l-174 968h348l92 -650l310 650h366l-538 -1046q-50 -98 -96 -159t-110.5 -105t-148 -62t-203.5 -18h-194z" />
    <glyph glyph-name="Amacron" unicode="&#x100;" horiz-adv-x="1366" 
d="M608 1706h718l-46 -248h-716zM1328 0h-340l-28 238h-438l-110 -238h-374l686 1332h388zM868 974l-218 -466h276z" />
    <glyph glyph-name="amacron" unicode="&#x101;" horiz-adv-x="1152" 
d="M460 1416h718l-44 -248h-718zM1176 614l-102 -614h-348l20 112q-111 -136 -292 -136q-144 0 -235 85.5t-91 220.5q0 160 97.5 248t282.5 94l250 6q72 3 86 50l2 12q10 53 -28.5 88.5t-105.5 35.5q-122 0 -154 -108h-348q39 158 175 253t323 95q238 0 369 -123.5
t99 -318.5zM480 314q0 -44 33.5 -70t88.5 -26q66 0 117 37t69 97l12 66l-198 -6q-59 -1 -90.5 -27t-31.5 -71z" />
    <glyph glyph-name="Abreve" unicode="&#x102;" horiz-adv-x="1366" 
d="M1420 1794q-36 -174 -158.5 -273t-303.5 -99q-195 0 -306 102t-102 270h286q-2 -65 31.5 -100.5t96.5 -35.5q60 0 104.5 35.5t65.5 100.5h286zM1328 0h-340l-28 238h-438l-110 -238h-374l686 1332h388zM868 974l-218 -466h276z" />
    <glyph glyph-name="abreve" unicode="&#x103;" horiz-adv-x="1152" 
d="M1272 1504q-34 -174 -157 -273t-305 -99q-194 0 -305 102t-101 270h286q-2 -65 30.5 -100.5t95.5 -35.5q61 0 105.5 35.5t64.5 100.5h286zM1176 614l-102 -614h-348l20 112q-111 -136 -292 -136q-144 0 -235 85.5t-91 220.5q0 160 97.5 248t282.5 94l250 6q72 3 86 50
l2 12q10 53 -28.5 88.5t-105.5 35.5q-122 0 -154 -108h-348q39 158 175 253t323 95q238 0 369 -123.5t99 -318.5zM480 314q0 -44 33.5 -70t88.5 -26q66 0 117 37t69 97l12 66l-198 -6q-59 -1 -90.5 -27t-31.5 -71z" />
    <glyph glyph-name="Aogonek" unicode="&#x104;" horiz-adv-x="1366" 
d="M1328 0q-115 -60 -162.5 -110t-47.5 -110q0 -72 102 -72h142l-44 -256h-156q-141 0 -223.5 62t-82.5 170q0 96 66 177.5t190 138.5h-124l-28 238h-438l-110 -238h-374l686 1332h388zM868 974l-218 -466h276z" />
    <glyph glyph-name="aogonek" unicode="&#x105;" horiz-adv-x="1152" 
d="M1074 0q-115 -60 -162.5 -110t-47.5 -110q0 -72 102 -72h142l-44 -256h-158q-141 0 -222.5 62t-81.5 170q0 96 66 177.5t190 138.5h-132l20 112q-111 -136 -292 -136q-144 0 -235 85.5t-91 220.5q0 160 97.5 248t282.5 94l250 6q72 3 86 50l2 12q10 53 -28.5 88.5
t-105.5 35.5q-122 0 -154 -108h-348q39 158 175 253t323 95q238 0 369 -123.5t99 -318.5zM480 314q0 -44 33.5 -70t88.5 -26q66 0 117 37t69 97l12 66l-198 -6q-59 -1 -90.5 -27t-31.5 -71z" />
    <glyph glyph-name="Cacute" unicode="&#x106;" horiz-adv-x="1372" 
d="M1414 1828l-366 -394h-290l258 394h398zM182 558q0 222 89 403.5t246 285t349 103.5q260 0 413 -138.5t153 -397.5h-342q0 111 -60 170.5t-174 59.5q-141 0 -234.5 -136.5t-93.5 -341.5q0 -132 63.5 -203t182.5 -71q95 0 164.5 53.5t91.5 144.5h354q-51 -239 -211 -372.5
t-419 -133.5q-263 0 -417.5 155t-154.5 419z" />
    <glyph glyph-name="cacute" unicode="&#x107;" horiz-adv-x="1194" 
d="M1272 1536l-364 -392h-290l256 392h398zM156 440q0 277 162 448.5t412 171.5q240 0 367 -120t127 -334h-350q0 81 -40 123.5t-118 42.5q-92 0 -154 -93t-62 -231q0 -94 45 -143t131 -49q151 0 184 156h334q-36 -211 -176.5 -328.5t-355.5 -117.5q-231 0 -368.5 129
t-137.5 345z" />
    <glyph glyph-name="Ccircumflex" unicode="&#x108;" horiz-adv-x="1372" 
d="M838 1830h324l224 -396h-292l-114 226l-176 -226h-332zM182 558q0 222 89 403.5t246 285t349 103.5q260 0 413 -138.5t153 -397.5h-342q0 111 -60 170.5t-174 59.5q-141 0 -234.5 -136.5t-93.5 -341.5q0 -132 63.5 -203t182.5 -71q95 0 164.5 53.5t91.5 144.5h354
q-51 -239 -211 -372.5t-419 -133.5q-263 0 -417.5 155t-154.5 419z" />
    <glyph glyph-name="ccircumflex" unicode="&#x109;" horiz-adv-x="1194" 
d="M696 1540h326l224 -396h-292l-116 226l-174 -226h-332zM156 440q0 277 162 448.5t412 171.5q240 0 367 -120t127 -334h-350q0 81 -40 123.5t-118 42.5q-92 0 -154 -93t-62 -231q0 -94 45 -143t131 -49q151 0 184 156h334q-36 -211 -176.5 -328.5t-355.5 -117.5
q-231 0 -368.5 129t-137.5 345z" />
    <glyph glyph-name="Cdotaccent" unicode="&#x10a;" horiz-adv-x="1372" 
d="M814 1794h370l-64 -360h-370zM182 558q0 222 89 403.5t246 285t349 103.5q260 0 413 -138.5t153 -397.5h-342q0 111 -60 170.5t-174 59.5q-141 0 -234.5 -136.5t-93.5 -341.5q0 -132 63.5 -203t182.5 -71q95 0 164.5 53.5t91.5 144.5h354q-51 -239 -211 -372.5
t-419 -133.5q-263 0 -417.5 155t-154.5 419z" />
    <glyph glyph-name="cdotaccent" unicode="&#x10b;" horiz-adv-x="1194" 
d="M672 1504h370l-64 -360h-368zM156 440q0 277 162 448.5t412 171.5q240 0 367 -120t127 -334h-350q0 81 -40 123.5t-118 42.5q-92 0 -154 -93t-62 -231q0 -94 45 -143t131 -49q151 0 184 156h334q-36 -211 -176.5 -328.5t-355.5 -117.5q-231 0 -368.5 129t-137.5 345z" />
    <glyph glyph-name="Ccaron" unicode="&#x10c;" horiz-adv-x="1372" 
d="M1092 1434h-324l-226 396h294l116 -224l174 224h332zM182 558q0 222 89 403.5t246 285t349 103.5q260 0 413 -138.5t153 -397.5h-342q0 111 -60 170.5t-174 59.5q-141 0 -234.5 -136.5t-93.5 -341.5q0 -132 63.5 -203t182.5 -71q95 0 164.5 53.5t91.5 144.5h354
q-51 -239 -211 -372.5t-419 -133.5q-263 0 -417.5 155t-154.5 419z" />
    <glyph glyph-name="ccaron" unicode="&#x10d;" horiz-adv-x="1194" 
d="M952 1144h-326l-224 396h292l118 -226l174 226h330zM156 440q0 277 162 448.5t412 171.5q240 0 367 -120t127 -334h-350q0 81 -40 123.5t-118 42.5q-92 0 -154 -93t-62 -231q0 -94 45 -143t131 -49q151 0 184 156h334q-36 -211 -176.5 -328.5t-355.5 -117.5
q-231 0 -368.5 129t-137.5 345z" />
    <glyph glyph-name="Dcaron" unicode="&#x10e;" horiz-adv-x="1366" 
d="M1032 1434h-324l-226 396h294l116 -224l174 224h332zM872 1332q254 0 401 -152t147 -414q0 -221 -82.5 -395t-235 -272.5t-350.5 -98.5h-656l234 1332h542zM618 1028l-128 -724h258q97 0 171 64.5t111.5 167t37.5 224.5q0 129 -60.5 198.5t-173.5 69.5h-216z" />
    <glyph glyph-name="dcaron" unicode="&#x10f;" horiz-adv-x="1322" 
d="M1576 1570h294l-180 -546h-286zM1390 1434l-252 -1434h-344l28 154q-140 -176 -328 -176q-158 0 -250 120.5t-92 325.5q0 177 65 326t177.5 235.5t247.5 86.5q110 0 187 -58t115 -166l102 586h344zM500 460q0 -99 41.5 -151.5t118.5 -52.5q97 0 161.5 89t64.5 225
q0 98 -41 150t-117 52q-97 0 -162.5 -89t-65.5 -223z" />
    <glyph glyph-name="Dcroat" unicode="&#x110;" horiz-adv-x="1508" 
d="M204 806h184l92 526h544q253 0 399.5 -152.5t146.5 -413.5q0 -221 -82 -395t-234.5 -272.5t-351.5 -98.5h-656l92 520h-186zM768 1028l-40 -222h272l-50 -286h-272l-36 -216h254q97 0 171.5 64.5t112.5 167.5t38 224q0 129 -60 198.5t-174 69.5h-216z" />
    <glyph glyph-name="dcroat" unicode="&#x111;" horiz-adv-x="1314" 
d="M746 1326h282l18 108h344l-18 -108h156l-38 -214h-156l-196 -1112h-344l26 150q-65 -81 -148.5 -126.5t-177.5 -45.5q-157 0 -249.5 115.5t-92.5 312.5q0 174 64.5 319.5t176.5 229t247 83.5q109 0 185.5 -55.5t114.5 -158.5l50 288h-282zM500 442q0 -89 42 -137.5
t118 -48.5q95 0 158.5 83.5t63.5 210.5q0 91 -40.5 139.5t-115.5 48.5q-95 0 -160.5 -84t-65.5 -212z" />
    <glyph glyph-name="Emacron" unicode="&#x112;" horiz-adv-x="1136" 
d="M534 1706h718l-44 -248h-718zM1296 1332l-56 -322h-624l-32 -176h566l-56 -320h-566l-34 -194h624l-56 -320h-966l234 1332h966z" />
    <glyph glyph-name="emacron" unicode="&#x113;" horiz-adv-x="1208" 
d="M476 1416h718l-44 -248h-718zM156 458q0 256 154.5 422t397.5 166q177 0 302.5 -69t179 -193.5t24.5 -283.5l-12 -68h-702q3 -188 172 -188q122 0 164 100h362q-115 -362 -512 -362q-252 0 -391 125t-139 351zM716 806q-138 0 -190 -160h354q3 72 -41.5 116t-122.5 44z
" />
    <glyph glyph-name="Ebreve" unicode="&#x114;" horiz-adv-x="1136" 
d="M1346 1794q-34 -174 -157 -273t-305 -99q-194 0 -305 102t-101 270h286q-2 -65 30.5 -100.5t95.5 -35.5q61 0 105.5 35.5t64.5 100.5h286zM1296 1332l-56 -322h-624l-32 -176h566l-56 -320h-566l-34 -194h624l-56 -320h-966l234 1332h966z" />
    <glyph glyph-name="ebreve" unicode="&#x115;" horiz-adv-x="1208" 
d="M1288 1504q-36 -174 -158.5 -273t-303.5 -99q-195 0 -306 102t-102 270h286q0 -65 33 -100.5t95 -35.5q60 0 104.5 35.5t65.5 100.5h286zM156 458q0 256 154.5 422t397.5 166q177 0 302.5 -69t179 -193.5t24.5 -283.5l-12 -68h-702q3 -188 172 -188q122 0 164 100h362
q-115 -362 -512 -362q-252 0 -391 125t-139 351zM716 806q-138 0 -190 -160h354q3 72 -41.5 116t-122.5 44z" />
    <glyph glyph-name="Edotaccent" unicode="&#x116;" horiz-adv-x="1136" 
d="M730 1794h370l-64 -360h-368zM1296 1332l-56 -322h-624l-32 -176h566l-56 -320h-566l-34 -194h624l-56 -320h-966l234 1332h966z" />
    <glyph glyph-name="edotaccent" unicode="&#x117;" horiz-adv-x="1208" 
d="M672 1504h370l-64 -360h-368zM156 458q0 256 154.5 422t397.5 166q177 0 302.5 -69t179 -193.5t24.5 -283.5l-12 -68h-702q3 -188 172 -188q122 0 164 100h362q-115 -362 -512 -362q-252 0 -391 125t-139 351zM716 806q-138 0 -190 -160h354q3 72 -41.5 116t-122.5 44z
" />
    <glyph glyph-name="Eogonek" unicode="&#x118;" horiz-adv-x="1136" 
d="M1032 0q-115 -60 -162.5 -110t-47.5 -110q0 -72 102 -72h142l-44 -256h-158q-141 0 -222.5 62t-81.5 170q0 96 66 177.5t190 138.5h-720l234 1332h966l-56 -322h-624l-32 -176h566l-56 -320h-566l-34 -194h624l-56 -320h-30z" />
    <glyph glyph-name="eogonek" unicode="&#x119;" horiz-adv-x="1208" 
d="M156 458q0 256 154.5 422t397.5 166q177 0 302.5 -69t179 -193.5t24.5 -283.5l-12 -68h-702q3 -188 172 -188q122 0 164 100h362q-75 -243 -284 -322q-66 -43 -95 -83.5t-29 -88.5q0 -72 102 -72h142l-44 -256h-156q-141 0 -223.5 62t-82.5 170q0 130 116 228
q-232 10 -360 135t-128 341zM716 806q-138 0 -190 -160h354q3 72 -41.5 116t-122.5 44z" />
    <glyph glyph-name="Ecaron" unicode="&#x11a;" horiz-adv-x="1136" 
d="M1010 1434h-326l-224 396h292l118 -224l174 224h330zM1296 1332l-56 -322h-624l-32 -176h566l-56 -320h-566l-34 -194h624l-56 -320h-966l234 1332h966z" />
    <glyph glyph-name="ecaron" unicode="&#x11b;" horiz-adv-x="1208" 
d="M952 1144h-326l-226 396h294l116 -224l174 224h332zM156 458q0 256 154.5 422t397.5 166q177 0 302.5 -69t179 -193.5t24.5 -283.5l-12 -68h-702q3 -188 172 -188q122 0 164 100h362q-115 -362 -512 -362q-252 0 -391 125t-139 351zM716 806q-138 0 -190 -160h354
q3 72 -41.5 116t-122.5 44z" />
    <glyph glyph-name="Gcircumflex" unicode="&#x11c;" horiz-adv-x="1392" 
d="M822 1830h326l224 -396h-292l-114 226l-176 -226h-332zM182 542q0 230 88.5 415t245 289t350.5 104q271 0 425.5 -131t154.5 -361h-350q0 87 -61 137.5t-167 50.5q-147 0 -242.5 -137.5t-95.5 -346.5q0 -128 60.5 -199t169.5 -71q92 0 173.5 54.5t108.5 149.5h-300
l46 270h654l-150 -766h-256l16 144q-144 -156 -384 -156q-215 0 -350.5 154t-135.5 400z" />
    <glyph glyph-name="gcircumflex" unicode="&#x11d;" horiz-adv-x="1226" 
d="M700 1540h326l224 -396h-292l-116 226l-174 -226h-332zM1318 1024l-192 -1092q-27 -159 -160 -250.5t-334 -91.5q-256 0 -405 99t-149 277h342q0 -59 52.5 -92.5t143.5 -33.5q73 0 119 35t57 97l36 210q-132 -158 -310 -158q-164 0 -262 114t-98 304q0 168 62 308
t169.5 220t236.5 80q112 0 193.5 -54t122.5 -152l32 180h344zM508 482q0 -84 46.5 -131t127.5 -47q92 0 150 76t58 196q0 84 -44.5 130t-125.5 46q-94 0 -153 -74.5t-59 -195.5z" />
    <glyph glyph-name="Gbreve" unicode="&#x11e;" horiz-adv-x="1392" 
d="M1414 1794q-34 -174 -157 -273t-303 -99q-195 0 -307 102t-101 270h286q-2 -65 30.5 -100.5t95.5 -35.5q61 0 106 35.5t66 100.5h284zM182 542q0 230 88.5 415t245 289t350.5 104q271 0 425.5 -131t154.5 -361h-350q0 87 -61 137.5t-167 50.5q-147 0 -242.5 -137.5
t-95.5 -346.5q0 -128 60.5 -199t169.5 -71q92 0 173.5 54.5t108.5 149.5h-300l46 270h654l-150 -766h-256l16 144q-144 -156 -384 -156q-215 0 -350.5 154t-135.5 400z" />
    <glyph glyph-name="gbreve" unicode="&#x11f;" horiz-adv-x="1226" 
d="M1292 1504q-34 -174 -157 -273t-305 -99q-194 0 -305 102t-101 270h286q-2 -65 30.5 -100.5t95.5 -35.5q61 0 105.5 35.5t64.5 100.5h286zM1318 1024l-192 -1092q-27 -159 -160 -250.5t-334 -91.5q-256 0 -405 99t-149 277h342q0 -59 52.5 -92.5t143.5 -33.5q73 0 119 35
t57 97l36 210q-132 -158 -310 -158q-164 0 -262 114t-98 304q0 168 62 308t169.5 220t236.5 80q112 0 193.5 -54t122.5 -152l32 180h344zM508 482q0 -84 46.5 -131t127.5 -47q92 0 150 76t58 196q0 84 -44.5 130t-125.5 46q-94 0 -153 -74.5t-59 -195.5z" />
    <glyph glyph-name="Gdotaccent" unicode="&#x120;" horiz-adv-x="1392" 
d="M798 1794h370l-64 -360h-368zM182 542q0 230 88.5 415t245 289t350.5 104q271 0 425.5 -131t154.5 -361h-350q0 87 -61 137.5t-167 50.5q-147 0 -242.5 -137.5t-95.5 -346.5q0 -128 60.5 -199t169.5 -71q92 0 173.5 54.5t108.5 149.5h-300l46 270h654l-150 -766h-256
l16 144q-144 -156 -384 -156q-215 0 -350.5 154t-135.5 400z" />
    <glyph glyph-name="gdotaccent" unicode="&#x121;" horiz-adv-x="1226" 
d="M676 1504h370l-64 -360h-368zM1318 1024l-192 -1092q-27 -159 -160 -250.5t-334 -91.5q-256 0 -405 99t-149 277h342q0 -59 52.5 -92.5t143.5 -33.5q73 0 119 35t57 97l36 210q-132 -158 -310 -158q-164 0 -262 114t-98 304q0 168 62 308t169.5 220t236.5 80
q112 0 193.5 -54t122.5 -152l32 180h344zM508 482q0 -84 46.5 -131t127.5 -47q92 0 150 76t58 196q0 84 -44.5 130t-125.5 46q-94 0 -153 -74.5t-59 -195.5z" />
    <glyph glyph-name="uni0122" unicode="&#x122;" horiz-adv-x="1392" 
d="M182 542q0 230 88.5 415t245 289t350.5 104q271 0 425.5 -131t154.5 -361h-350q0 87 -61 137.5t-167 50.5q-147 0 -242.5 -137.5t-95.5 -346.5q0 -128 60.5 -199t169.5 -71q92 0 173.5 54.5t108.5 149.5h-300l46 270h654l-150 -766h-256l16 144q-144 -156 -384 -156
q-215 0 -350.5 154t-135.5 400zM512 -62h370l-74 -418q-21 -121 -106.5 -186.5t-215.5 -65.5h-92l28 162h38q88 0 133.5 24t54.5 78l8 48h-206z" />
    <glyph glyph-name="uni0123" unicode="&#x123;" horiz-adv-x="1226" 
d="M1010 1144h-370l74 420q22 121 107 186.5t215 65.5h94l-28 -162h-42q-87 0 -131.5 -23.5t-54.5 -78.5l-8 -48h208zM1318 1024l-192 -1092q-27 -159 -160 -250.5t-334 -91.5q-256 0 -405 99t-149 277h342q0 -59 52.5 -92.5t143.5 -33.5q73 0 119 35t57 97l36 210
q-132 -158 -310 -158q-164 0 -262 114t-98 304q0 168 62 308t169.5 220t236.5 80q112 0 193.5 -54t122.5 -152l32 180h344zM508 482q0 -84 46.5 -131t127.5 -47q92 0 150 76t58 196q0 84 -44.5 130t-125.5 46q-94 0 -153 -74.5t-59 -195.5z" />
    <glyph glyph-name="Hcircumflex" unicode="&#x124;" horiz-adv-x="1334" 
d="M820 1830h326l224 -396h-292l-116 226l-174 -226h-332zM330 1332h342l-86 -484h462l86 484h340l-234 -1332h-342l92 528h-460l-92 -528h-342z" />
    <glyph glyph-name="hcircumflex" unicode="&#x125;" horiz-adv-x="1208" 
d="M424 1938h324l224 -396h-292l-114 224l-176 -224h-332zM876 560q15 94 -21.5 144t-116.5 50q-74 0 -128 -43t-70 -119l-104 -592h-342l248 1434h344l-98 -558q71 83 160.5 127.5t177.5 44.5q105 0 183 -65.5t109 -167.5t12 -213l-108 -602h-342z" />
    <glyph glyph-name="Hbar" unicode="&#x126;" horiz-adv-x="1382" 
d="M234 1188h96l24 144h342l-26 -144h462l24 144h342l-26 -144h96l-38 -218h-96l-170 -970h-342l92 528h-460l-92 -528h-342l170 970h-96zM604 814h462l28 156h-462z" />
    <glyph glyph-name="hbar" unicode="&#x127;" horiz-adv-x="1286" 
d="M952 548q16 94 -21 144t-119 50q-69 0 -122 -40t-72 -110l-104 -592h-342l192 1112h-150l38 214h150l18 108h344l-18 -108h288l-38 -214h-288l-42 -248q69 82 159 127t179 45q104 0 181.5 -65t109 -167.5t11.5 -213.5l-104 -590h-344z" />
    <glyph glyph-name="Itilde" unicode="&#x128;" 
d="M368 1806q38 0 69 -6t60 -21t40 -22t41 -29q3 -2 17 -11.5t18 -12t16 -9t19.5 -8.5t19.5 -4.5t24 -2.5q54 0 89.5 30t44.5 84h192q-31 -175 -122.5 -271.5t-225.5 -96.5q-42 0 -79 12t-52.5 22t-46.5 32q-3 3 -11.5 10t-12 10t-11.5 9t-12.5 8.5t-12 7t-13 6.5t-13.5 4.5
t-16 3.5t-16 1q-45 0 -78 -32t-42 -86h-196q33 183 112 277.5t198 94.5zM326 1332h342l-234 -1332h-342z" />
    <glyph glyph-name="itilde" unicode="&#x129;" 
d="M318 1518q38 0 69 -6t60 -21t40 -22t41 -29q51 -36 77 -43q17 -5 35 -5q54 0 90.5 30t45.5 84h192q-31 -175 -122.5 -271.5t-225.5 -96.5q-42 0 -79 12t-52.5 22t-46.5 32q-3 2 -18 14t-19 15t-17 11.5t-20.5 11t-19.5 5.5t-24 3q-45 0 -78 -32t-42 -86h-196
q33 183 112 277.5t198 94.5zM272 1024h342l-180 -1024h-342z" />
    <glyph glyph-name="Imacron" unicode="&#x12a;" 
d="M198 1706h718l-44 -248h-718zM326 1332h342l-234 -1332h-342z" />
    <glyph glyph-name="imacron" unicode="&#x12b;" 
d="M148 1418h718l-44 -248h-718zM272 1024h342l-180 -1024h-342z" />
    <glyph glyph-name="Ibreve" unicode="&#x12c;" 
d="M1010 1794q-34 -174 -157 -273t-305 -99q-194 0 -305 102t-101 270h286q-2 -65 30.5 -100.5t95.5 -35.5q61 0 105.5 35.5t64.5 100.5h286zM326 1332h342l-234 -1332h-342z" />
    <glyph glyph-name="ibreve" unicode="&#x12d;" 
d="M960 1506q-34 -174 -157 -273t-305 -99q-193 0 -305 102t-103 270h286q0 -65 33 -100.5t95 -35.5q60 0 104.5 35.5t65.5 100.5h286zM272 1024h342l-180 -1024h-342z" />
    <glyph glyph-name="Iogonek" unicode="&#x12e;" 
d="M434 0q-115 -60 -162.5 -110t-47.5 -110q0 -72 102 -72h142l-44 -256h-156q-141 0 -223.5 62t-82.5 170q0 96 66 177.5t190 138.5h-126l234 1332h342z" />
    <glyph glyph-name="iogonek" unicode="&#x12f;" 
d="M328 1414h368l-48 -274h-370zM434 0q-116 -60 -164 -110t-48 -110q0 -72 102 -72h144l-46 -256h-156q-141 0 -223.5 62t-82.5 170q0 96 66 177.5t192 138.5h-128l182 1024h342z" />
    <glyph glyph-name="Idotaccent" unicode="&#x130;" 
d="M394 1794h370l-64 -360h-368zM326 1332h342l-234 -1332h-342z" />
    <glyph glyph-name="dotlessi" unicode="&#x131;" 
d="M272 1024h342l-180 -1024h-342z" />
    <glyph glyph-name="IJ" unicode="&#x132;" horiz-adv-x="1302" 
d="M616 304h142q80 0 127.5 42t66.5 140l148 846h342l-158 -892q-37 -213 -156 -326.5t-294 -113.5h-254zM326 1332h342l-234 -1332h-342z" />
    <glyph glyph-name="ij" unicode="&#x133;" horiz-adv-x="1050" 
d="M854 1414h370l-48 -274h-370zM328 1414h368l-48 -274h-370zM450 -92h64q90 0 104 88l182 1028h342l-184 -1040q-36 -201 -139.5 -289.5t-304.5 -88.5h-118zM272 1024h342l-180 -1024h-344z" />
    <glyph glyph-name="Jcircumflex" unicode="&#x134;" horiz-adv-x="774" 
d="M660 1830h326l224 -396h-292l-116 226l-174 -226h-332zM90 304h140q81 0 129 42t65 140l150 846h342l-158 -892q-37 -213 -156 -326.5t-294 -113.5h-254z" />
    <glyph glyph-name="jcircumflex" unicode="&#x135;" 
d="M368 1542h324l224 -396h-290l-116 226l-176 -226h-330zM-76 -92h64q46 0 70.5 20.5t33.5 67.5l180 1028h342l-184 -1040q-34 -196 -130.5 -287t-261.5 -91h-168z" />
    <glyph glyph-name="uni0136" unicode="&#x136;" horiz-adv-x="1336" 
d="M330 1332h342l-96 -548l512 548h446l-622 -646l410 -686h-376l-282 502l-168 -168l-58 -334h-342zM470 -62h370l-74 -418q-22 -121 -107.5 -186.5t-214.5 -65.5h-94l30 162h38q88 0 133.5 24t54.5 78l8 48h-206z" />
    <glyph glyph-name="uni0137" unicode="&#x137;" horiz-adv-x="1212" 
d="M892 1024h462l-450 -470l286 -554h-378l-176 366l-164 -154l-38 -212h-342l254 1434h340l-138 -790zM416 -62h370l-74 -418q-21 -121 -106 -186.5t-216 -65.5h-92l28 162h38q87 0 133.5 24t56.5 78l6 48h-206z" />
    <glyph glyph-name="kgreenlandic" unicode="&#x138;" horiz-adv-x="1236" 
d="M276 1024h340l-68 -380l344 380h462l-450 -470l286 -554h-378l-176 366l-164 -154l-38 -212h-342z" />
    <glyph glyph-name="Lacute" unicode="&#x139;" horiz-adv-x="1014" 
d="M998 1828l-366 -394h-288l256 394h398zM958 0h-862l234 1332h344l-178 -1012h520z" />
    <glyph glyph-name="lacute" unicode="&#x13a;" 
d="M1008 1934l-364 -392h-290l256 392h398zM342 1434h344l-252 -1434h-344z" />
    <glyph glyph-name="uni013B" unicode="&#x13b;" horiz-adv-x="1014" 
d="M958 0h-862l234 1332h344l-178 -1012h520zM352 -62h372l-74 -418q-22 -122 -107.5 -187t-216.5 -65h-92l28 162h40q87 0 132.5 23.5t55.5 78.5l8 48h-208z" />
    <glyph glyph-name="uni013C" unicode="&#x13c;" 
d="M342 1434h344l-252 -1434h-344zM70 -62h372l-74 -418q-22 -122 -107.5 -187t-216.5 -65h-92l28 162h40q87 0 132.5 23.5t55.5 78.5l8 48h-208z" />
    <glyph glyph-name="Lcaron" unicode="&#x13d;" horiz-adv-x="1014" 
d="M884 1474h296l-182 -546h-284zM958 0h-862l234 1332h344l-178 -1012h520z" />
    <glyph glyph-name="lcaron" unicode="&#x13e;" horiz-adv-x="622" 
d="M878 1570h294l-182 -546h-284zM342 1434h344l-252 -1434h-344z" />
    <glyph glyph-name="Ldot" unicode="&#x13f;" horiz-adv-x="1014" 
d="M958 0h-862l234 1332h344l-178 -1012h520zM732 854h370l-64 -358h-370z" />
    <glyph glyph-name="ldot" unicode="&#x140;" horiz-adv-x="1050" 
d="M342 1434h344l-252 -1434h-344zM758 866h370l-64 -358h-370z" />
    <glyph glyph-name="Lslash" unicode="&#x141;" horiz-adv-x="1074" 
d="M140 798l162 30l90 504h342l-78 -436l262 48l-48 -268l-262 -50l-54 -306h522l-56 -320h-862l98 560l-162 -32z" />
    <glyph glyph-name="lslash" unicode="&#x142;" horiz-adv-x="672" 
d="M144 820l170 26l104 588h342l-96 -534l172 26l-48 -268l-170 -26l-112 -632h-340l100 576l-170 -26z" />
    <glyph glyph-name="Nacute" unicode="&#x143;" horiz-adv-x="1368" 
d="M1416 1828l-364 -394h-290l256 394h398zM1166 1332h342l-236 -1332h-336l-354 818l-144 -818h-342l234 1332h400l302 -762z" />
    <glyph glyph-name="nacute" unicode="&#x144;" horiz-adv-x="1208" 
d="M1294 1540l-364 -394h-290l256 394h398zM876 560q15 94 -21.5 144t-116.5 50q-70 0 -123.5 -39.5t-72.5 -110.5l-106 -604h-342l178 1024h344l-26 -146q69 82 158.5 126t177.5 44q105 0 183 -65.5t109 -167.5t12 -213l-108 -602h-342z" />
    <glyph glyph-name="uni0145" unicode="&#x145;" horiz-adv-x="1368" 
d="M1166 1332h342l-236 -1332h-336l-354 818l-144 -818h-342l234 1332h400l302 -762zM494 -62h370l-74 -418q-21 -121 -106 -186.5t-216 -65.5h-92l28 162h38q87 0 133.5 24t56.5 78l6 48h-206z" />
    <glyph glyph-name="uni0146" unicode="&#x146;" horiz-adv-x="1208" 
d="M876 560q15 94 -21.5 144t-116.5 50q-70 0 -123.5 -39.5t-72.5 -110.5l-106 -604h-342l178 1024h344l-26 -146q69 82 158.5 126t177.5 44q105 0 183 -65.5t109 -167.5t12 -213l-108 -602h-342zM412 -62h370l-72 -418q-22 -122 -107.5 -187t-216.5 -65h-92l28 162h40
q87 0 132.5 23.5t55.5 78.5l6 48h-206z" />
    <glyph glyph-name="Ncaron" unicode="&#x147;" horiz-adv-x="1368" 
d="M1096 1434h-326l-224 396h292l118 -224l174 224h330zM1166 1332h342l-236 -1332h-336l-354 818l-144 -818h-342l234 1332h400l302 -762z" />
    <glyph glyph-name="ncaron" unicode="&#x148;" horiz-adv-x="1208" 
d="M974 1146h-324l-226 396h294l116 -224l174 224h330zM876 560q15 94 -21.5 144t-116.5 50q-70 0 -123.5 -39.5t-72.5 -110.5l-106 -604h-342l178 1024h344l-26 -146q69 82 158.5 126t177.5 44q105 0 183 -65.5t109 -167.5t12 -213l-108 -602h-342z" />
    <glyph glyph-name="napostrophe" unicode="&#x149;" horiz-adv-x="1648" 
d="M322 1428h370l-74 -420q-21 -121 -106 -186.5t-216 -65.5h-92l28 162h38q88 0 133.5 23.5t54.5 78.5l8 48h-206zM714 1024h344l-26 -146q69 82 158 126t178 44q104 0 181.5 -65t109 -167.5t11.5 -213.5l-106 -602h-344l96 560q16 93 -20.5 143.5t-117.5 50.5
q-70 0 -122.5 -39.5t-71.5 -110.5l-106 -604h-342z" />
    <glyph glyph-name="Eng" unicode="&#x14a;" horiz-adv-x="1368" 
d="M1166 1332h342l-234 -1330q-33 -190 -161 -296t-325 -106h-128l56 302h68q68 0 104 27t46 85l6 38l-358 766l-144 -818h-342l234 1332h398l308 -742z" />
    <glyph glyph-name="eng" unicode="&#x14b;" horiz-adv-x="1208" 
d="M878 564q16 93 -18.5 140.5t-117.5 47.5q-72 0 -128 -45t-72 -117l-106 -592h-340l180 1024h342l-26 -148q67 86 154.5 136t177.5 50q177 0 260 -115t48 -309l-112 -634q-30 -189 -140.5 -295.5t-275.5 -106.5h-196l54 302h86q60 0 91.5 26.5t42.5 85.5z" />
    <glyph glyph-name="Omacron" unicode="&#x14c;" horiz-adv-x="1428" 
d="M628 1706h718l-44 -248h-718zM182 550q0 224 89 407t251 289t366 106q266 0 427 -160.5t161 -427.5q0 -168 -50 -312t-139.5 -247.5t-221 -162t-287.5 -58.5q-270 0 -433 155t-163 411zM1132 756q0 138 -68.5 214t-191.5 76q-145 0 -243.5 -139.5t-98.5 -342.5
q0 -130 69 -201t197 -71q149 0 242.5 129.5t93.5 334.5z" />
    <glyph glyph-name="omacron" unicode="&#x14d;" horiz-adv-x="1212" 
d="M480 1418h718l-46 -250h-716zM156 442q0 131 44 246t120 196.5t183 128.5t229 47q227 0 363.5 -127t136.5 -343q0 -131 -44 -247t-120 -198t-182.5 -129.5t-227.5 -47.5q-227 0 -364.5 129.5t-137.5 344.5zM886 582q0 90 -43 140t-121 50q-92 0 -156 -92t-64 -230
q0 -93 44 -143.5t122 -50.5q91 0 154.5 94t63.5 232z" />
    <glyph glyph-name="Obreve" unicode="&#x14e;" horiz-adv-x="1428" 
d="M1440 1794q-34 -174 -157 -273t-305 -99q-193 0 -305 102t-103 270h286q0 -65 33 -100.5t95 -35.5q60 0 104.5 35.5t65.5 100.5h286zM182 550q0 224 89 407t251 289t366 106q266 0 427 -160.5t161 -427.5q0 -168 -50 -312t-139.5 -247.5t-221 -162t-287.5 -58.5
q-270 0 -433 155t-163 411zM1132 756q0 138 -68.5 214t-191.5 76q-145 0 -243.5 -139.5t-98.5 -342.5q0 -130 69 -201t197 -71q149 0 242.5 129.5t93.5 334.5z" />
    <glyph glyph-name="obreve" unicode="&#x14f;" horiz-adv-x="1212" 
d="M1292 1504q-36 -174 -158.5 -273t-303.5 -99q-195 0 -306 102t-102 270h286q-2 -65 31.5 -100.5t96.5 -35.5q60 0 104.5 35.5t65.5 100.5h286zM156 442q0 131 44 246t120 196.5t183 128.5t229 47q227 0 363.5 -127t136.5 -343q0 -131 -44 -247t-120 -198t-182.5 -129.5
t-227.5 -47.5q-227 0 -364.5 129.5t-137.5 344.5zM886 582q0 90 -43 140t-121 50q-92 0 -156 -92t-64 -230q0 -93 44 -143.5t122 -50.5q91 0 154.5 94t63.5 232z" />
    <glyph glyph-name="Ohungarumlaut" unicode="&#x150;" horiz-adv-x="1428" 
d="M1678 1828l-386 -394h-270l276 394h380zM1204 1828l-388 -394h-270l278 394h380zM182 550q0 224 89 407t251 289t366 106q266 0 427 -160.5t161 -427.5q0 -168 -50 -312t-139.5 -247.5t-221 -162t-287.5 -58.5q-270 0 -433 155t-163 411zM1132 756q0 138 -68.5 214
t-191.5 76q-145 0 -243.5 -139.5t-98.5 -342.5q0 -130 69 -201t197 -71q149 0 242.5 129.5t93.5 334.5z" />
    <glyph glyph-name="ohungarumlaut" unicode="&#x151;" horiz-adv-x="1212" 
d="M1530 1538l-388 -394h-270l278 394h380zM1056 1538l-388 -394h-270l278 394h380zM156 442q0 131 44 246t120 196.5t183 128.5t229 47q227 0 363.5 -127t136.5 -343q0 -131 -44 -247t-120 -198t-182.5 -129.5t-227.5 -47.5q-227 0 -364.5 129.5t-137.5 344.5zM886 582
q0 90 -43 140t-121 50q-92 0 -156 -92t-64 -230q0 -93 44 -143.5t122 -50.5q91 0 154.5 94t63.5 232z" />
    <glyph glyph-name="OE" unicode="&#x152;" horiz-adv-x="2048" 
d="M182 550q0 224 82.5 407t233 289t338.5 106q123 0 219.5 -60.5t154.5 -169.5l38 210h964l-56 -322h-624l-32 -176h568l-58 -320h-566l-34 -194h624l-56 -320h-966l18 102q-140 -118 -322 -118q-238 0 -382 154.5t-144 411.5zM1132 756q0 138 -68.5 214t-191.5 76
q-145 0 -243.5 -139.5t-98.5 -342.5q0 -130 69 -201t197 -71q149 0 242.5 129.5t93.5 334.5z" />
    <glyph glyph-name="oe" unicode="&#x153;" horiz-adv-x="1932" 
d="M156 442q0 176 70 317.5t193.5 221t276.5 79.5q130 0 231 -50t161 -142q70 85 168.5 131.5t215.5 46.5q165 0 282 -69t167 -193.5t23 -283.5l-12 -68h-702q1 -96 43.5 -142t128.5 -46q120 0 162 100h364q-106 -362 -480 -362q-292 0 -418 188q-75 -96 -180 -149t-226 -53
q-212 0 -340 129t-128 345zM1446 806q-138 0 -190 -160h352q3 72 -40.5 116t-121.5 44zM886 582q0 90 -43 140t-121 50q-92 0 -156 -92t-64 -230q0 -93 44 -143.5t122 -50.5q91 0 154.5 94t63.5 232z" />
    <glyph glyph-name="Racute" unicode="&#x154;" horiz-adv-x="1260" 
d="M1352 1828l-366 -394h-290l258 394h398zM724 452h-206l-80 -452h-342l236 1332h598q200 0 316 -104.5t114 -281.5q2 -114 -77.5 -209.5t-220.5 -136.5q86 -31 126 -101t40 -185v-314h-340v282q0 96 -35.5 133t-128.5 37zM862 1046h-240l-54 -308h244q53 0 92.5 18.5
t60.5 48.5t31 61t10 62q0 57 -37.5 87.5t-106.5 30.5z" />
    <glyph glyph-name="racute" unicode="&#x155;" horiz-adv-x="838" 
d="M1162 1538l-364 -392h-290l256 392h398zM274 1024h344l-30 -168q65 89 143 137.5t151 48.5h74l-62 -348h-72q-105 0 -187.5 -45t-104.5 -117l-92 -532h-344z" />
    <glyph glyph-name="uni0156" unicode="&#x156;" horiz-adv-x="1260" 
d="M724 452h-206l-80 -452h-342l236 1332h598q200 0 316 -104.5t114 -281.5q2 -114 -77.5 -209.5t-220.5 -136.5q86 -31 126 -101t40 -185v-314h-340v282q0 96 -35.5 133t-128.5 37zM862 1046h-240l-54 -308h244q53 0 92.5 18.5t60.5 48.5t31 61t10 62q0 57 -37.5 87.5
t-106.5 30.5zM448 -62h372l-74 -418q-22 -122 -107.5 -187t-216.5 -65h-92l28 162h40q87 0 132.5 23.5t55.5 78.5l8 48h-208z" />
    <glyph glyph-name="uni0157" unicode="&#x157;" horiz-adv-x="838" 
d="M274 1024h344l-30 -168q65 89 143 137.5t151 48.5h74l-62 -348h-72q-105 0 -187.5 -45t-104.5 -117l-92 -532h-344zM70 -62h370l-74 -418q-21 -121 -106 -186.5t-216 -65.5h-92l28 162h38q87 0 133.5 24t56.5 78l6 48h-206z" />
    <glyph glyph-name="Rcaron" unicode="&#x158;" horiz-adv-x="1260" 
d="M1030 1434h-324l-226 396h294l116 -224l174 224h332zM724 452h-206l-80 -452h-342l236 1332h598q200 0 316 -104.5t114 -281.5q2 -114 -77.5 -209.5t-220.5 -136.5q86 -31 126 -101t40 -185v-314h-340v282q0 96 -35.5 133t-128.5 37zM862 1046h-240l-54 -308h244
q53 0 92.5 18.5t60.5 48.5t31 61t10 62q0 57 -37.5 87.5t-106.5 30.5z" />
    <glyph glyph-name="rcaron" unicode="&#x159;" horiz-adv-x="838" 
d="M842 1146h-326l-226 396h294l118 -226l172 226h332zM274 1024h344l-30 -168q65 89 143 137.5t151 48.5h74l-62 -348h-72q-105 0 -187.5 -45t-104.5 -117l-92 -532h-344z" />
    <glyph glyph-name="Sacute" unicode="&#x15a;" horiz-adv-x="1270" 
d="M1332 1828l-364 -394h-290l256 394h398zM792 490l-214 40q-161 32 -246.5 127t-85.5 243q0 212 139.5 332t388.5 120q265 0 409.5 -118t144.5 -334h-344q0 91 -53 138.5t-155 47.5q-80 0 -129 -37.5t-49 -98.5q0 -37 25.5 -63.5t74.5 -36.5l196 -34q374 -72 374 -382
q0 -214 -141.5 -334t-386.5 -120q-272 0 -429 124t-157 340h346q0 -93 63 -143.5t177 -50.5q76 0 127 39.5t51 98.5q0 77 -126 102z" />
    <glyph glyph-name="sacute" unicode="&#x15b;" horiz-adv-x="1132" 
d="M1222 1538l-366 -394h-288l256 394h398zM698 370l-198 38q-146 27 -222 102.5t-76 193.5q0 168 123.5 262t346.5 94q232 0 357 -92t125 -264h-324q0 52 -42 81t-116 29q-58 0 -89 -23t-31 -65q0 -53 72 -68l214 -38q276 -50 276 -288q0 -178 -120 -271t-352 -93
q-240 0 -377 93.5t-137 258.5h346q0 -54 46 -84t126 -30q63 0 98.5 23.5t35.5 64.5q0 58 -82 76z" />
    <glyph glyph-name="Scircumflex" unicode="&#x15c;" horiz-adv-x="1270" 
d="M756 1830h326l224 -396h-292l-114 226l-176 -226h-332zM792 490l-214 40q-161 32 -246.5 127t-85.5 243q0 212 139.5 332t388.5 120q265 0 409.5 -118t144.5 -334h-344q0 91 -53 138.5t-155 47.5q-80 0 -129 -37.5t-49 -98.5q0 -37 25.5 -63.5t74.5 -36.5l196 -34
q374 -72 374 -382q0 -214 -141.5 -334t-386.5 -120q-272 0 -429 124t-157 340h346q0 -93 63 -143.5t177 -50.5q76 0 127 39.5t51 98.5q0 77 -126 102z" />
    <glyph glyph-name="scircumflex" unicode="&#x15d;" horiz-adv-x="1132" 
d="M646 1540h324l224 -396h-290l-116 226l-176 -226h-330zM698 370l-198 38q-146 27 -222 102.5t-76 193.5q0 168 123.5 262t346.5 94q232 0 357 -92t125 -264h-324q0 52 -42 81t-116 29q-58 0 -89 -23t-31 -65q0 -53 72 -68l214 -38q276 -50 276 -288q0 -178 -120 -271
t-352 -93q-240 0 -377 93.5t-137 258.5h346q0 -54 46 -84t126 -30q63 0 98.5 23.5t35.5 64.5q0 58 -82 76z" />
    <glyph glyph-name="Scedilla" unicode="&#x15e;" horiz-adv-x="1270" 
d="M792 490l-214 40q-161 32 -246.5 127t-85.5 243q0 212 139.5 332t388.5 120q265 0 409.5 -118t144.5 -334h-344q0 91 -53 138.5t-155 47.5q-80 0 -129 -37.5t-49 -98.5q0 -37 25.5 -63.5t74.5 -36.5l196 -34q374 -72 374 -382q0 -214 -141.5 -334t-386.5 -120h-10
l-66 -92h30q88 0 138 -56.5t50 -151.5q0 -120 -90.5 -190t-245.5 -70h-220l44 238h166q44 0 69 18.5t25 51.5q0 18 -15.5 29t-42.5 11h-68l-38 78l96 150q-193 38 -300.5 154.5t-107.5 293.5h346q0 -93 63 -143.5t177 -50.5q76 0 127 39.5t51 98.5q0 77 -126 102z" />
    <glyph glyph-name="scedilla" unicode="&#x15f;" horiz-adv-x="1132" 
d="M698 370l-198 38q-146 27 -222 102.5t-76 193.5q0 168 123.5 262t346.5 94q232 0 357 -92t125 -264h-324q0 52 -42 81t-116 29q-58 0 -89 -23t-31 -65q0 -53 72 -68l214 -38q276 -50 276 -288q0 -174 -115.5 -267t-338.5 -97l-58 -80h30q88 0 138 -56.5t50 -151.5
q0 -120 -90.5 -190t-245.5 -70h-220l44 238h166q44 0 69 18.5t25 51.5q0 18 -15.5 29t-42.5 11h-68l-38 78l86 134q-172 27 -267 115.5t-95 224.5h346q0 -54 46 -84t126 -30q63 0 98.5 23.5t35.5 64.5q0 58 -82 76z" />
    <glyph glyph-name="Scaron" unicode="&#x160;" horiz-adv-x="1270" 
d="M1012 1434h-324l-226 396h294l116 -224l174 224h330zM792 490l-214 40q-161 32 -246.5 127t-85.5 243q0 212 139.5 332t388.5 120q265 0 409.5 -118t144.5 -334h-344q0 91 -53 138.5t-155 47.5q-80 0 -129 -37.5t-49 -98.5q0 -37 25.5 -63.5t74.5 -36.5l196 -34
q374 -72 374 -382q0 -214 -141.5 -334t-386.5 -120q-272 0 -429 124t-157 340h346q0 -93 63 -143.5t177 -50.5q76 0 127 39.5t51 98.5q0 77 -126 102z" />
    <glyph glyph-name="scaron" unicode="&#x161;" horiz-adv-x="1132" 
d="M902 1144h-326l-226 396h294l118 -224l172 224h332zM698 370l-198 38q-146 27 -222 102.5t-76 193.5q0 168 123.5 262t346.5 94q232 0 357 -92t125 -264h-324q0 52 -42 81t-116 29q-58 0 -89 -23t-31 -65q0 -53 72 -68l214 -38q276 -50 276 -288q0 -178 -120 -271
t-352 -93q-240 0 -377 93.5t-137 258.5h346q0 -54 46 -84t126 -30q63 0 98.5 23.5t35.5 64.5q0 58 -82 76z" />
    <glyph glyph-name="uni0162" unicode="&#x162;" horiz-adv-x="1166" 
d="M1348 1332l-56 -322h-360l-178 -1010h-74l-80 -112h30q88 0 138 -56.5t50 -151.5q0 -120 -90.5 -190t-245.5 -70h-220l44 238h166q44 0 69 18.5t25 51.5q0 18 -15.5 29t-42.5 11h-68l-38 78l98 154h-86l178 1010h-358l56 322h1058z" />
    <glyph glyph-name="uni0163" unicode="&#x163;" horiz-adv-x="752" 
d="M750 286l-52 -286h-24l-80 -112h32q86 0 136 -56.5t50 -151.5q0 -120 -90 -190t-244 -70h-222l44 238h166q44 0 69 18.5t25 51.5q0 18 -15.5 29t-42.5 11h-68l-38 78l102 160q-135 20 -196 106.5t-36 231.5l72 410h-154l48 270h154l46 266h342l-48 -266h156l-48 -270
h-156l-64 -364q-9 -56 7.5 -80t60.5 -24h68z" />
    <glyph glyph-name="Tcaron" unicode="&#x164;" horiz-adv-x="1166" 
d="M982 1434h-324l-226 396h294l116 -224l174 224h332zM1348 1332l-56 -322h-360l-178 -1010h-340l178 1010h-360l58 322h1058z" />
    <glyph glyph-name="tcaron" unicode="&#x165;" horiz-adv-x="858" 
d="M984 1634h296l-182 -544h-284zM750 286l-52 -286h-120q-175 0 -258.5 89.5t-53.5 254.5l72 410h-154l48 270h154l46 266h342l-48 -266h156l-48 -270h-156l-64 -364q-9 -56 7.5 -80t60.5 -24h68z" />
    <glyph glyph-name="Tbar" unicode="&#x166;" horiz-adv-x="1166" 
d="M300 732h242l50 278h-358l56 322h1058l-56 -322h-360l-50 -278h264l-52 -304h-264l-76 -428h-340l74 428h-242z" />
    <glyph glyph-name="tbar" unicode="&#x167;" horiz-adv-x="752" 
d="M164 638h154l24 134h-154l44 252h154l46 266h342l-46 -266h154l-46 -252h-152l-24 -134h152l-32 -186h-154l-14 -78q-9 -47 8.5 -67.5t63.5 -20.5h66l-48 -286h-122q-175 0 -259.5 90t-54.5 254l18 108h-154z" />
    <glyph glyph-name="Utilde" unicode="&#x168;" horiz-adv-x="1288" 
d="M734 1806q18 0 33.5 -1t30.5 -4.5t26.5 -6t25 -9t20.5 -9.5t20.5 -12t18 -11.5t18.5 -12.5t17 -12q51 -36 77 -43q17 -5 35 -5q54 0 90.5 30t43.5 84h194q-31 -175 -123 -271.5t-227 -96.5q-41 0 -77 11.5t-53.5 22.5t-45.5 32q-3 2 -18 14t-19 15t-17 11.5t-20.5 11
t-19.5 5.5t-24 3q-45 0 -78 -32t-42 -86h-196q33 183 112 277.5t198 94.5zM320 1332h340l-136 -790q-20 -109 35.5 -174.5t172.5 -65.5q87 0 146 54.5t76 147.5l144 828h342l-150 -856q-41 -225 -195.5 -358.5t-376.5 -133.5q-136 0 -246.5 44t-181 121.5t-99.5 187.5
t-7 237z" />
    <glyph glyph-name="utilde" unicode="&#x169;" horiz-adv-x="1188" 
d="M628 1518q30 0 58.5 -5.5t45 -10.5t41.5 -20t31 -19t32 -23q3 -2 13 -8.5t13.5 -9t12.5 -8t14 -7.5t13.5 -6t15 -5t15 -2.5t17.5 -1.5q54 0 89.5 30t44.5 84h192q-32 -176 -122.5 -272t-225.5 -96q-41 0 -77 11.5t-53.5 22.5t-45.5 32q-3 2 -18 14t-19 15t-17 11.5
t-20.5 11t-19.5 5.5t-24 3q-46 0 -78.5 -32t-41.5 -86h-198q33 183 112.5 277.5t199.5 94.5zM516 464q-34 -194 128 -194q68 0 117.5 40t68.5 112l106 602h340l-178 -1024h-342l24 142q-68 -81 -154 -123.5t-174 -42.5q-104 0 -179 65.5t-103 167t-8 213.5l106 602h344z" />
    <glyph glyph-name="Umacron" unicode="&#x16a;" horiz-adv-x="1288" 
d="M564 1706h718l-44 -248h-718zM320 1332h340l-136 -790q-20 -109 35.5 -174.5t172.5 -65.5q87 0 146 54.5t76 147.5l144 828h342l-150 -856q-41 -225 -195.5 -358.5t-376.5 -133.5q-136 0 -246.5 44t-181 121.5t-99.5 187.5t-7 237z" />
    <glyph glyph-name="umacron" unicode="&#x16b;" horiz-adv-x="1188" 
d="M458 1418h716l-44 -248h-716zM516 464q-34 -194 128 -194q68 0 117.5 40t68.5 112l106 602h340l-178 -1024h-342l24 142q-68 -81 -154 -123.5t-174 -42.5q-104 0 -179 65.5t-103 167t-8 213.5l106 602h344z" />
    <glyph glyph-name="Ubreve" unicode="&#x16c;" horiz-adv-x="1288" 
d="M1376 1794q-36 -174 -158.5 -273t-303.5 -99q-195 0 -306 102t-102 270h286q0 -65 33 -100.5t95 -35.5q60 0 104.5 35.5t65.5 100.5h286zM320 1332h340l-136 -790q-20 -109 35.5 -174.5t172.5 -65.5q87 0 146 54.5t76 147.5l144 828h342l-150 -856
q-41 -225 -195.5 -358.5t-376.5 -133.5q-136 0 -246.5 44t-181 121.5t-99.5 187.5t-7 237z" />
    <glyph glyph-name="ubreve" unicode="&#x16d;" horiz-adv-x="1188" 
d="M1270 1506q-36 -174 -159 -273t-303 -99q-195 0 -307 102t-101 270h286q-2 -65 31.5 -100.5t96.5 -35.5q60 0 104.5 35.5t65.5 100.5h286zM516 464q-34 -194 128 -194q68 0 117.5 40t68.5 112l106 602h340l-178 -1024h-342l24 142q-68 -81 -154 -123.5t-174 -42.5
q-104 0 -179 65.5t-103 167t-8 213.5l106 602h344z" />
    <glyph glyph-name="Uring" unicode="&#x16e;" horiz-adv-x="1288" 
d="M1260 1782q0 -154 -106 -258t-262 -104q-138 0 -220 74t-82 198q0 154 106 259t262 105q138 0 220 -74.5t82 -199.5zM812 1712q0 -42 25.5 -64t72.5 -22q59 0 94.5 37.5t35.5 98.5q0 42 -25 65t-73 23q-58 0 -94 -38t-36 -100zM320 1332h340l-136 -790
q-20 -109 35.5 -174.5t172.5 -65.5q87 0 146 54.5t76 147.5l144 828h342l-150 -856q-41 -225 -195.5 -358.5t-376.5 -133.5q-136 0 -246.5 44t-181 121.5t-99.5 187.5t-7 237z" />
    <glyph glyph-name="uring" unicode="&#x16f;" horiz-adv-x="1188" 
d="M1152 1494q0 -154 -106 -258t-262 -104q-138 0 -220 74t-82 198q0 154 106 259t262 105q138 0 220 -74.5t82 -199.5zM704 1424q0 -42 25.5 -64t72.5 -22q59 0 94.5 37.5t35.5 98.5q0 42 -25 65t-73 23q-58 0 -94 -38t-36 -100zM516 464q-34 -194 128 -194q68 0 117.5 40
t68.5 112l106 602h340l-178 -1024h-342l24 142q-68 -81 -154 -123.5t-174 -42.5q-104 0 -179 65.5t-103 167t-8 213.5l106 602h344z" />
    <glyph glyph-name="Uhungarumlaut" unicode="&#x170;" horiz-adv-x="1288" 
d="M1614 1828l-388 -394h-268l276 394h380zM1140 1828l-388 -394h-270l278 394h380zM320 1332h340l-136 -790q-20 -109 35.5 -174.5t172.5 -65.5q87 0 146 54.5t76 147.5l144 828h342l-150 -856q-41 -225 -195.5 -358.5t-376.5 -133.5q-136 0 -246.5 44t-181 121.5
t-99.5 187.5t-7 237z" />
    <glyph glyph-name="uhungarumlaut" unicode="&#x171;" horiz-adv-x="1188" 
d="M1508 1540l-388 -394h-270l278 394h380zM1034 1540l-388 -394h-270l278 394h380zM516 464q-34 -194 128 -194q68 0 117.5 40t68.5 112l106 602h340l-178 -1024h-342l24 142q-68 -81 -154 -123.5t-174 -42.5q-104 0 -179 65.5t-103 167t-8 213.5l106 602h344z" />
    <glyph glyph-name="Uogonek" unicode="&#x172;" horiz-adv-x="1288" 
d="M320 1332h340l-136 -790q-20 -109 35.5 -174.5t172.5 -65.5q87 0 146 54.5t76 147.5l144 828h342l-150 -856q-39 -216 -183 -347.5t-351 -142.5q-99 -56 -140.5 -102.5t-41.5 -103.5q0 -72 102 -72h142l-44 -256h-156q-141 0 -223.5 62t-82.5 170q0 96 65.5 177.5
t188.5 138.5q-209 44 -315 200t-67 374z" />
    <glyph glyph-name="uogonek" unicode="&#x173;" horiz-adv-x="1188" 
d="M516 464q-34 -194 128 -194q68 0 117.5 40t68.5 112l106 602h340l-178 -1024h4q-115 -60 -162.5 -110t-47.5 -110q0 -72 102 -72h142l-44 -256h-156q-141 0 -223.5 62t-82.5 170q0 96 66 177.5t190 138.5h-130l24 142q-68 -81 -154 -123.5t-174 -42.5q-104 0 -179 65.5
t-103 167t-8 213.5l106 602h344z" />
    <glyph glyph-name="Wcircumflex" unicode="&#x174;" horiz-adv-x="2110" 
d="M1192 1830h324l224 -396h-290l-116 226l-176 -226h-332zM274 1332h336l40 -948l408 948h422l74 -948l378 948h374l-598 -1332h-426l-68 938l-384 -938h-442z" />
    <glyph glyph-name="wcircumflex" unicode="&#x175;" horiz-adv-x="1806" 
d="M992 1542h324l224 -396h-290l-116 226l-176 -226h-332zM234 1024h340l16 -690l280 690h390l48 -690l252 690h370l-486 -1024h-392l-42 680l-258 -680h-406z" />
    <glyph glyph-name="Ycircumflex" unicode="&#x176;" horiz-adv-x="1314" 
d="M808 1830h324l224 -396h-290l-116 226l-176 -226h-332zM562 446l-288 886h354l154 -532l336 532h394l-608 -886l-80 -446h-340z" />
    <glyph glyph-name="ycircumflex" unicode="&#x177;" horiz-adv-x="1222" 
d="M722 1542h324l224 -396h-292l-114 226l-176 -226h-332zM114 -72h128q54 0 85.5 18t56.5 60l26 50l-174 968h348l92 -650l310 650h366l-538 -1046q-50 -98 -96 -159t-110.5 -105t-148 -62t-203.5 -18h-194z" />
    <glyph glyph-name="Ydieresis" unicode="&#x178;" horiz-adv-x="1314" 
d="M1050 1760h336l-58 -326h-334zM542 1760h336l-58 -326h-334zM562 446l-288 886h354l154 -532l336 532h394l-608 -886l-80 -446h-340z" />
    <glyph glyph-name="Zacute" unicode="&#x179;" horiz-adv-x="1216" 
d="M1338 1828l-366 -394h-290l258 394h398zM326 1332h1014l-42 -342l-748 -704h624l-50 -286h-1014l42 342l748 704h-624z" />
    <glyph glyph-name="zacute" unicode="&#x17a;" horiz-adv-x="1048" 
d="M1210 1540l-366 -394h-290l258 394h398zM264 1024h872l-54 -306l-564 -466h482l-44 -252h-870l52 306l562 466h-480z" />
    <glyph glyph-name="Zdotaccent" unicode="&#x17b;" horiz-adv-x="1216" 
d="M738 1794h370l-64 -360h-368zM326 1332h1014l-42 -342l-748 -704h624l-50 -286h-1014l42 342l748 704h-624z" />
    <glyph glyph-name="zdotaccent" unicode="&#x17c;" horiz-adv-x="1048" 
d="M610 1506h370l-64 -360h-370zM264 1024h872l-54 -306l-564 -466h482l-44 -252h-870l52 306l562 466h-480z" />
    <glyph glyph-name="Zcaron" unicode="&#x17d;" horiz-adv-x="1216" 
d="M1018 1434h-326l-226 396h294l116 -224l174 224h332zM326 1332h1014l-42 -342l-748 -704h624l-50 -286h-1014l42 342l748 704h-624z" />
    <glyph glyph-name="zcaron" unicode="&#x17e;" horiz-adv-x="1048" 
d="M888 1146h-324l-226 396h294l116 -224l174 224h332zM264 1024h872l-54 -306l-564 -466h482l-44 -252h-870l52 306l562 466h-480z" />
    <glyph glyph-name="longs" unicode="&#x17f;" horiz-adv-x="646" 
d="M802 1164h-68q-47 0 -72 -20.5t-34 -67.5l-190 -1076h-342l192 1090q28 164 145.5 254t294.5 90h122z" />
    <glyph glyph-name="Ohorn" unicode="&#x1a0;" horiz-adv-x="1428" 
d="M182 550q0 167 52.5 315t144.5 255t224.5 169.5t284.5 62.5q98 0 172 -20h220q53 0 87 26t45 94l22 124h256l-24 -136q-24 -131 -110 -200t-206 -88q126 -154 126 -388q0 -224 -85.5 -401t-245.5 -278t-367 -101q-272 0 -434 154t-162 412zM1132 756q0 138 -68.5 214
t-191.5 76q-145 0 -243.5 -139.5t-98.5 -342.5q0 -130 69 -201t197 -71q149 0 242.5 129.5t93.5 334.5z" />
    <glyph glyph-name="ohorn" unicode="&#x1a1;" horiz-adv-x="1212" 
d="M156 442q0 131 44 246t120 196.5t183 128.5t229 47q133 0 240 -46h94q53 0 86 26t44 96l22 122h256l-24 -134q-21 -122 -97.5 -190.5t-184.5 -91.5q64 -107 64 -252q0 -131 -44 -247t-120 -198t-182.5 -129.5t-227.5 -47.5q-227 0 -364.5 129.5t-137.5 344.5zM886 582
q0 90 -43 140t-121 50q-92 0 -156 -92t-64 -230q0 -93 44 -143.5t122 -50.5q91 0 154.5 94t63.5 232z" />
    <glyph glyph-name="Uhorn" unicode="&#x1af;" horiz-adv-x="1356" 
d="M320 1332h340l-136 -790q-20 -109 35.5 -174.5t172.5 -65.5q87 0 146 54.5t76 147.5l144 828h222q84 14 102 120l20 122h258l-24 -134q-21 -118 -92.5 -185.5t-173.5 -92.5l-120 -686q-41 -225 -195.5 -358.5t-376.5 -133.5q-136 0 -246.5 44t-181 121.5t-99.5 187.5
t-7 237z" />
    <glyph glyph-name="uhorn" unicode="&#x1b0;" horiz-adv-x="1264" 
d="M516 464q-34 -194 128 -194q68 0 117.5 40t68.5 112l106 602h194q53 0 87 26.5t45 95.5l20 122h258l-24 -134q-21 -119 -94 -187t-176 -91l-148 -856h-342l24 142q-68 -81 -154 -123.5t-174 -42.5q-104 0 -179 65.5t-103 167t-8 213.5l106 602h344z" />
    <glyph glyph-name="uni01CD" unicode="&#x1cd;" horiz-adv-x="1366" 
d="M1082 1434h-324l-226 396h294l116 -224l174 224h332zM1328 0h-340l-28 238h-438l-110 -238h-374l686 1332h388zM868 974l-218 -466h276z" />
    <glyph glyph-name="uni01CE" unicode="&#x1ce;" horiz-adv-x="1152" 
d="M936 1144h-326l-224 396h292l118 -224l174 224h330zM1176 614l-102 -614h-348l20 112q-111 -136 -292 -136q-144 0 -235 85.5t-91 220.5q0 160 97.5 248t282.5 94l250 6q72 3 86 50l2 12q10 53 -28.5 88.5t-105.5 35.5q-122 0 -154 -108h-348q39 158 175 253t323 95
q238 0 369 -123.5t99 -318.5zM480 314q0 -44 33.5 -70t88.5 -26q66 0 117 37t69 97l12 66l-198 -6q-59 -1 -90.5 -27t-31.5 -71z" />
    <glyph glyph-name="uni01CF" unicode="&#x1cf;" 
d="M674 1434h-326l-224 396h292l118 -224l174 224h330zM326 1332h342l-234 -1332h-342z" />
    <glyph glyph-name="uni01D0" unicode="&#x1d0;" 
d="M624 1146h-326l-226 396h294l118 -224l172 224h332zM272 1024h342l-180 -1024h-342z" />
    <glyph glyph-name="uni01D1" unicode="&#x1d1;" horiz-adv-x="1428" 
d="M1104 1434h-326l-226 396h294l118 -224l174 224h330zM182 550q0 224 89 407t251 289t366 106q266 0 427 -160.5t161 -427.5q0 -168 -50 -312t-139.5 -247.5t-221 -162t-287.5 -58.5q-270 0 -433 155t-163 411zM1132 756q0 138 -68.5 214t-191.5 76q-145 0 -243.5 -139.5
t-98.5 -342.5q0 -130 69 -201t197 -71q149 0 242.5 129.5t93.5 334.5z" />
    <glyph glyph-name="uni01D2" unicode="&#x1d2;" horiz-adv-x="1212" 
d="M954 1144h-324l-226 396h294l116 -224l174 224h332zM156 442q0 131 44 246t120 196.5t183 128.5t229 47q227 0 363.5 -127t136.5 -343q0 -131 -44 -247t-120 -198t-182.5 -129.5t-227.5 -47.5q-227 0 -364.5 129.5t-137.5 344.5zM886 582q0 90 -43 140t-121 50
q-92 0 -156 -92t-64 -230q0 -93 44 -143.5t122 -50.5q91 0 154.5 94t63.5 232z" />
    <glyph glyph-name="uni01D3" unicode="&#x1d3;" horiz-adv-x="1288" 
d="M1040 1434h-326l-226 396h294l116 -224l174 224h332zM320 1332h340l-136 -790q-20 -109 35.5 -174.5t172.5 -65.5q87 0 146 54.5t76 147.5l144 828h342l-150 -856q-41 -225 -195.5 -358.5t-376.5 -133.5q-136 0 -246.5 44t-181 121.5t-99.5 187.5t-7 237z" />
    <glyph glyph-name="uni01D4" unicode="&#x1d4;" horiz-adv-x="1188" 
d="M932 1146h-324l-226 396h294l116 -224l174 224h332zM516 464q-34 -194 128 -194q68 0 117.5 40t68.5 112l106 602h340l-178 -1024h-342l24 142q-68 -81 -154 -123.5t-174 -42.5q-104 0 -179 65.5t-103 167t-8 213.5l106 602h344z" />
    <glyph glyph-name="uni01DD" unicode="&#x1dd;" horiz-adv-x="1208" 
d="M1224 570q0 -256 -154.5 -422t-397.5 -166q-269 0 -409.5 152t-96.5 394l10 68h704q-6 188 -174 188q-120 0 -162 -100h-362q112 362 512 362q252 0 391 -125t139 -351zM664 222q136 0 188 160h-352q-4 -72 41 -116t123 -44z" />
    <glyph glyph-name="uni01E2" unicode="&#x1e2;" horiz-adv-x="1966" 
d="M954 1706h716l-44 -248h-716zM2108 1332l-56 -322h-624l-32 -176h568l-58 -320h-566l-34 -194h624l-56 -320h-966l42 238h-400l-138 -238h-374l786 1332h1284zM698 508h300l90 516h-96z" />
    <glyph glyph-name="uni01E3" unicode="&#x1e3;" horiz-adv-x="1858" 
d="M794 1418h718l-44 -248h-718zM1368 -18q-156 0 -264 64.5t-158 185.5q-59 -122 -169.5 -189t-254.5 -67q-173 0 -283.5 85.5t-110.5 220.5q0 162 99 248.5t281 91.5l250 6q73 3 86 50l2 12q10 54 -32 89t-114 35q-113 0 -142 -108h-348q37 159 169 254.5t311 95.5
q126 0 222.5 -42.5t151.5 -119.5q146 152 360 152q241 0 368 -152t88 -394l-12 -68h-704q3 -96 45.5 -142t128.5 -46q120 0 162 100h362q-109 -362 -494 -362zM1382 806q-138 0 -190 -160h352q4 72 -40.5 116t-121.5 44zM482 326q0 -45 33 -70.5t89 -25.5q68 0 122.5 42.5
t67.5 113.5l8 44l-198 -6q-59 -2 -90.5 -27t-31.5 -71z" />
    <glyph glyph-name="uni01F0" unicode="&#x1f0;" 
d="M624 1146h-326l-226 396h294l118 -224l172 224h332zM-76 -92h64q46 0 70.5 20.5t33.5 67.5l180 1028h342l-184 -1040q-34 -196 -130.5 -287t-261.5 -91h-168z" />
    <glyph glyph-name="AEacute" unicode="&#x1fc;" horiz-adv-x="1966" 
d="M1628 1828l-364 -394h-290l256 394h398zM2108 1332l-56 -322h-624l-32 -176h568l-58 -320h-566l-34 -194h624l-56 -320h-966l42 238h-400l-138 -238h-374l786 1332h1284zM698 508h300l90 516h-96z" />
    <glyph glyph-name="aeacute" unicode="&#x1fd;" horiz-adv-x="1858" 
d="M1590 1540l-366 -394h-290l258 394h398zM1368 -18q-156 0 -264 64.5t-158 185.5q-59 -122 -169.5 -189t-254.5 -67q-173 0 -283.5 85.5t-110.5 220.5q0 162 99 248.5t281 91.5l250 6q73 3 86 50l2 12q10 54 -32 89t-114 35q-113 0 -142 -108h-348q37 159 169 254.5
t311 95.5q126 0 222.5 -42.5t151.5 -119.5q146 152 360 152q241 0 368 -152t88 -394l-12 -68h-704q3 -96 45.5 -142t128.5 -46q120 0 162 100h362q-109 -362 -494 -362zM1382 806q-138 0 -190 -160h352q4 72 -40.5 116t-121.5 44zM482 326q0 -45 33 -70.5t89 -25.5
q68 0 122.5 42.5t67.5 113.5l8 44l-198 -6q-59 -2 -90.5 -27t-31.5 -71z" />
    <glyph glyph-name="uni0237" unicode="&#x237;" 
d="M-76 -92h64q46 0 70.5 20.5t33.5 67.5l180 1028h342l-184 -1040q-34 -196 -130.5 -287t-261.5 -91h-168z" />
    <glyph glyph-name="uni0250" unicode="&#x250;" horiz-adv-x="1152" 
d="M212 730q31 168 10 294h340q14 -50 14 -132q112 156 304 156q144 0 235 -85.5t91 -220.5q0 -161 -99 -247.5t-281 -92.5l-248 -6q-75 -3 -88 -50l-2 -12q-9 -54 29.5 -89t104.5 -35q122 0 154 108h348q-39 -159 -175.5 -254.5t-322.5 -95.5q-239 0 -370 123.5t-98 318.5z
M540 638l-8 -44l198 6q59 2 90.5 27t31.5 71q0 45 -33 70.5t-89 25.5q-68 0 -122.5 -42.5t-67.5 -113.5z" />
    <glyph glyph-name="uni0251" unicode="&#x251;" horiz-adv-x="1228" 
d="M1298 286l-50 -286h-74q-132 0 -215 51.5t-105 148.5q-66 -104 -159.5 -163t-200.5 -59q-158 0 -250 120.5t-92 325.5q0 177 65 326t177.5 235.5t247.5 86.5q111 0 188.5 -58.5t113.5 -167.5l32 178h342l-114 -634q-10 -56 8 -80t66 -24h20zM500 460q0 -99 41.5 -151.5
t118.5 -52.5q97 0 161.5 89t64.5 225q0 98 -41 150t-117 52q-97 0 -162.5 -89t-65.5 -223z" />
    <glyph glyph-name="uni0252" unicode="&#x252;" horiz-adv-x="1228" 
d="M116 742l52 286h72q133 0 216 -51.5t104 -148.5q66 103 159.5 161.5t200.5 58.5q158 0 250 -119.5t92 -324.5q0 -178 -65 -327.5t-177.5 -235.5t-247.5 -85q-111 0 -188.5 58.5t-113.5 167.5l-32 -178h-342l114 632q10 56 -8.5 81t-65.5 25h-20zM914 568
q0 99 -41.5 151.5t-118.5 52.5q-95 0 -159.5 -89t-64.5 -225q0 -98 40 -150t116 -52q97 0 162.5 89t65.5 223z" />
    <glyph glyph-name="uni0253" unicode="&#x253;" horiz-adv-x="1226" 
d="M94 0l186 1072q30 177 165 279.5t339 102.5q257 0 404.5 -102.5t147.5 -289.5h-342q0 67 -51.5 104.5t-142.5 37.5q-76 0 -123 -45.5t-61 -126.5l-34 -194q133 162 314 162q163 0 260.5 -113.5t97.5 -304.5q0 -169 -61.5 -308.5t-169 -219.5t-237.5 -80q-112 0 -193.5 54
t-122.5 154l-32 -182h-344zM906 542q0 84 -46.5 131t-127.5 47q-92 0 -150 -76t-58 -196q0 -84 44 -130t126 -46q93 0 152.5 75t59.5 195z" />
    <glyph glyph-name="uni0254" unicode="&#x254;" horiz-adv-x="1194" 
d="M1220 586q0 -184 -74.5 -325.5t-205.5 -218t-296 -76.5q-240 0 -367 120.5t-127 333.5h350q0 -80 41 -123t117 -43q91 0 153.5 94t62.5 232q0 93 -45 141.5t-131 48.5q-148 0 -184 -154h-334q37 211 177 327.5t355 116.5q233 0 370.5 -128.5t137.5 -345.5z" />
    <glyph glyph-name="uni0255" unicode="&#x255;" horiz-adv-x="1198" 
d="M172 -150q26 161 88 300q-106 122 -106 304q0 168 78.5 307.5t215 219t302.5 79.5q237 0 363.5 -97.5t126.5 -280.5h-346q-18 69 -53 97.5t-101 28.5q-99 0 -163.5 -90t-70.5 -236q147 116 328 116q161 0 251.5 -78t90.5 -220q0 -138 -138 -227t-352 -89q-116 0 -218 32
q-17 -60 -38 -166h-258zM702 218q60 0 96 22.5t36 59.5q0 70 -78 70q-101 0 -180 -112q49 -40 126 -40z" />
    <glyph glyph-name="uni0256" unicode="&#x256;" horiz-adv-x="1228" 
d="M1240 -48l-52 -286h-90q-174 0 -253 89.5t-49 254.5l24 142q-64 -83 -148 -128.5t-178 -45.5q-158 0 -250 120.5t-92 325.5q0 177 65 326t177.5 235.5t247.5 86.5q112 0 190 -60t114 -170l106 592h342l-246 -1378q-16 -104 56 -104h36zM500 460q0 -99 41.5 -151.5
t118.5 -52.5q97 0 161.5 89t64.5 225q0 98 -41 150t-117 52q-97 0 -162.5 -89t-65.5 -223z" />
    <glyph glyph-name="uni0257" unicode="&#x257;" horiz-adv-x="1228" 
d="M1484 1148h-54q-48 0 -76 -24t-38 -80l-182 -1044h-342l28 150q-140 -172 -326 -172q-158 0 -250 120.5t-92 325.5q0 177 65 326t177.5 235.5t247.5 86.5q110 0 187 -57.5t113 -164.5l44 240q31 176 130.5 260t255.5 84h160zM500 460q0 -99 41.5 -151.5t118.5 -52.5
q97 0 161.5 89t64.5 225q0 98 -41 150t-117 52q-97 0 -162.5 -89t-65.5 -223z" />
    <glyph glyph-name="uni0258" unicode="&#x258;" horiz-adv-x="1208" 
d="M1238 580q0 -184 -77 -320.5t-210.5 -206t-306.5 -69.5q-217 0 -345.5 92.5t-152.5 275.5h364q4 -52 41.5 -80t102.5 -28q71 0 126 50t84 138h-716l20 116q43 242 197 369t385 127q230 0 359 -122.5t129 -341.5zM554 650h338q-12 156 -146 156q-71 0 -123.5 -42
t-68.5 -114z" />
    <glyph glyph-name="uni0259" unicode="&#x259;" horiz-adv-x="1208" 
d="M1224 570q0 -256 -154.5 -422t-397.5 -166q-269 0 -409.5 152t-96.5 394l10 68h704q-6 188 -174 188q-120 0 -162 -100h-362q112 362 512 362q252 0 391 -125t139 -351zM664 222q136 0 188 160h-352q-4 -72 41 -116t123 -44z" />
    <glyph glyph-name="uni025A" unicode="&#x25a;" horiz-adv-x="1564" 
d="M1664 580l-42 -232h-94q-112 0 -169.5 50.5t-50.5 147.5l2 30l-74 -14q-9 -263 -168.5 -420.5t-415.5 -157.5q-239 0 -368.5 117.5t-129.5 334.5v78l732 140q-21 130 -146 130q-138 0 -178 -110h-366q117 370 558 370q187 0 307.5 -80.5t158.5 -229.5l166 32h174
l-18 -106q-7 -42 8 -61t56 -19h58zM506 364q9 -130 140 -130q73 0 131 56.5t87 151.5z" />
    <glyph glyph-name="uni025B" unicode="&#x25b;" horiz-adv-x="1112" 
d="M1100 338q-43 -175 -181 -268.5t-351 -93.5q-204 0 -325 76.5t-121 205.5q0 177 188 260q-106 61 -106 184q0 154 137.5 253t350.5 99q218 0 343 -96t125 -264h-348q0 112 -118 112q-62 0 -101 -33t-39 -87q0 -60 74 -60h130l-26 -220h-130q-57 0 -91.5 -28.5
t-34.5 -73.5q0 -38 29 -58t83 -20q65 0 108.5 30t55.5 82h348z" />
    <glyph glyph-name="uni025C" unicode="&#x25c;" horiz-adv-x="1112" 
d="M526 406l40 220h130q45 0 73.5 27.5t28.5 72.5q0 37 -28 58.5t-78 21.5q-57 0 -94.5 -29t-51.5 -83h-346q26 122 101.5 204.5t180.5 119t238 36.5q192 0 310 -85.5t118 -224.5q0 -159 -168 -232q114 -68 114 -198q0 -150 -134.5 -244t-361.5 -94q-216 0 -341 97t-125 265
h346q0 -54 34 -83t94 -29q66 0 104 29.5t38 80.5q0 33 -23.5 51.5t-68.5 18.5h-130z" />
    <glyph glyph-name="uni025D" unicode="&#x25d;" horiz-adv-x="1412" 
d="M1508 580l-40 -232h-94q-112 0 -169.5 50.5t-50.5 147.5l2 30l-102 -20q-32 -26 -74 -44q114 -68 114 -198q0 -150 -134.5 -244t-361.5 -94q-216 0 -341 97t-125 265h346q0 -54 34 -83t94 -29q66 0 104 29.5t38 80.5q0 33 -23.5 51.5t-68.5 18.5h-130l40 220h130
q45 0 73.5 27.5t28.5 72.5q0 37 -28 58.5t-78 21.5q-57 0 -94.5 -29t-51.5 -83h-346q26 122 101.5 204.5t180.5 119t238 36.5q192 0 310 -84.5t118 -219.5l82 16h174l-18 -106q-6 -42 9 -61t57 -19h56z" />
    <glyph glyph-name="uni025E" unicode="&#x25e;" horiz-adv-x="1172" 
d="M1038 516q112 -76 112 -220q0 -140 -131 -230t-333 -90q-240 0 -384 130.5t-144 347.5q0 125 45.5 235.5t126 191t195.5 127t247 46.5q191 0 308.5 -85t117.5 -223q0 -74 -43 -135.5t-117 -94.5zM506 436q0 -93 42 -143.5t120 -50.5q64 0 102 27t38 71q0 31 -24 48.5
t-68 17.5h-104l38 220h104q45 0 71.5 24.5t26.5 65.5q0 35 -27.5 54.5t-76.5 19.5q-106 0 -174 -99.5t-68 -254.5z" />
    <glyph glyph-name="uni025F" unicode="&#x25f;" horiz-adv-x="752" 
d="M28 -140h64q48 0 74.5 20.5t33.5 67.5l10 52h-158l48 270h158l132 754h342l-132 -754h148l-46 -270h-150l-12 -66q-28 -164 -145.5 -254t-294.5 -90h-120z" />
    <glyph glyph-name="uni0260" unicode="&#x260;" horiz-adv-x="1226" 
d="M1482 1148h-54q-47 0 -73.5 -24t-36.5 -80l-188 -1072q-30 -174 -185.5 -280t-380.5 -106q-231 0 -362.5 102.5t-131.5 277.5h346q0 -58 46 -92t130 -34q82 0 134 38t64 104l34 196q-61 -73 -140 -113.5t-166 -40.5q-164 0 -262 114t-98 304q0 168 62 308t169.5 220
t236.5 80q112 0 193.5 -53t122.5 -151l42 244q30 165 145.5 254.5t290.5 89.5h114zM508 482q0 -84 46.5 -131t127.5 -47q70 0 121.5 46.5t72.5 125.5l12 62q0 6 1 19t1 19q0 84 -44.5 130t-125.5 46q-94 0 -153 -74.5t-59 -195.5z" />
    <glyph glyph-name="uni0261" unicode="&#x261;" horiz-adv-x="1226" 
d="M1318 1024l-192 -1092q-27 -159 -160 -250.5t-334 -91.5q-256 0 -405 99t-149 277h342q0 -59 52.5 -92.5t143.5 -33.5q73 0 119 35t57 97l36 210q-132 -158 -310 -158q-164 0 -262 114t-98 304q0 168 62 308t169.5 220t236.5 80q112 0 193.5 -54t122.5 -152l32 180h344z
M508 482q0 -84 46.5 -131t127.5 -47q92 0 150 76t58 196q0 84 -44.5 130t-125.5 46q-94 0 -153 -74.5t-59 -195.5z" />
    <glyph glyph-name="uni0262" unicode="&#x262;" horiz-adv-x="1194" 
d="M154 422q0 185 70.5 328.5t208 226.5t323.5 83q233 0 359.5 -102.5t126.5 -291.5h-346q0 60 -39 92t-107 32q-106 0 -176 -104t-70 -260q0 -90 39 -138t111 -48q132 0 182 138h-164l36 206h522l-106 -584h-220l2 146q-63 -86 -149 -132t-185 -46q-193 0 -305.5 122
t-112.5 332z" />
    <glyph glyph-name="uni0263" unicode="&#x263;" horiz-adv-x="1190" 
d="M282 68l130 176l-176 780h336l82 -602l286 602h376l-454 -782l70 -174q32 -90 32 -150q0 -138 -121.5 -232t-298.5 -94q-164 0 -264 65t-100 171t102 240zM658 -38l-50 124l-90 -124q-22 -37 -22 -54q0 -24 21.5 -39t54.5 -15q42 0 68 20.5t26 53.5q0 10 -8 34z" />
    <glyph glyph-name="uni0264" unicode="&#x264;" horiz-adv-x="1152" 
d="M350 440l70 68l-184 516h352l108 -358l224 358h358l-368 -516l46 -68q58 -81 58 -184q0 -125 -120 -208.5t-298 -83.5q-163 0 -256.5 72t-93.5 198q0 53 28 109.5t76 96.5zM682 334l-38 74l-56 -74q-24 -35 -24 -60q0 -23 14.5 -35.5t39.5 -12.5q30 0 51 20.5t21 51.5
q0 20 -8 36z" />
    <glyph glyph-name="uni0265" unicode="&#x265;" horiz-adv-x="1190" 
d="M514 464q-15 -94 19.5 -144t110.5 -50q69 0 119.5 41t68.5 113l104 600h344l-236 -1358h-344l84 478q-68 -81 -155 -124.5t-173 -43.5q-102 0 -178 65t-106.5 167.5t-11.5 213.5l108 602h342z" />
    <glyph glyph-name="uni0266" unicode="&#x266;" horiz-adv-x="1208" 
d="M94 0l186 1072q33 177 180.5 279.5t369.5 102.5q232 0 366 -98t134 -276h-344q0 58 -42 91t-116 33q-87 0 -142 -45.5t-70 -126.5l-30 -174q69 81 158.5 125.5t177.5 44.5q105 0 183 -65.5t109 -167.5t12 -213l-104 -582h-342l92 540q16 93 -20.5 143.5t-117.5 50.5
q-69 0 -121 -38.5t-73 -107.5l-102 -588h-344z" />
    <glyph glyph-name="uni0267" unicode="&#x267;" horiz-adv-x="1208" 
d="M94 0l186 1072q30 176 178.5 279t371.5 103q232 0 366 -98t134 -276h-344q0 58 -42 91t-116 33q-88 0 -143 -46t-69 -126l-34 -194q69 88 157.5 139t180.5 51q175 0 258 -115t48 -309l-106 -602q-33 -190 -142.5 -296t-273.5 -106h-196l54 302h86q60 0 92 26t42 86
l92 518q30 188 -138 188q-74 0 -131.5 -49t-72.5 -125l-94 -546h-344z" />
    <glyph glyph-name="uni0268" unicode="&#x268;" horiz-adv-x="606" 
d="M368 1414h370l-48 -274h-370zM314 1024h340l-56 -324h134l-48 -268h-134l-76 -432h-340l76 432h-134l48 268h134z" />
    <glyph glyph-name="uni0269" unicode="&#x269;" horiz-adv-x="638" 
d="M640 286l-50 -286h-118q-176 0 -261 89.5t-55 254.5l120 680h342l-112 -634q-9 -56 7.5 -80t62.5 -24h64z" />
    <glyph glyph-name="uni026A" unicode="&#x26a;" horiz-adv-x="798" 
d="M924 1024l-52 -302h-174l-74 -418h174l-54 -304h-688l52 304h174l74 418h-174l54 302h688z" />
    <glyph glyph-name="uni026B" unicode="&#x26b;" horiz-adv-x="872" 
d="M410 954q18 0 26 -2l84 482h342l-104 -596q36 9 60.5 36.5t31.5 67.5h190q-28 -168 -114 -261.5t-214 -98.5l-102 -582h-342l122 698q-34 -7 -58 -36.5t-32 -71.5h-196q31 178 109 271t197 93z" />
    <glyph glyph-name="uni026C" unicode="&#x26c;" horiz-adv-x="842" 
d="M554 1434h340l-130 -738h204l-34 -184h-202l-90 -512h-340l90 512h-8q-121 0 -186.5 58.5t-65.5 165.5q0 136 85.5 221t222.5 85h44zM412 696h12l28 162h-10q-47 0 -73.5 -27.5t-26.5 -74.5q0 -60 70 -60z" />
    <glyph glyph-name="uni026D" unicode="&#x26d;" horiz-adv-x="636" 
d="M576 -48l-50 -286h-108q-178 0 -264 90t-56 254l250 1424h342l-242 -1378q-10 -56 8 -80t66 -24h54z" />
    <glyph glyph-name="uni026E" unicode="&#x26e;" horiz-adv-x="1348" 
d="M1034 440q264 -70 264 -378q0 -213 -158 -342.5t-442 -129.5q-221 0 -354.5 98.5t-133.5 263.5h348q0 -92 152 -92q103 0 168.5 63.5t65.5 164.5q0 66 -43.5 102t-124.5 36h-136l42 238l304 272l-422 2l-130 -738h-342l252 1434h342l-72 -410h808l-48 -288z" />
    <glyph glyph-name="uni026F" unicode="&#x26f;" horiz-adv-x="1808" 
d="M508 458q-17 -94 14.5 -140t101.5 -46q60 0 108.5 40t67.5 110l108 602h342l-98 -564q-17 -96 15.5 -143t104.5 -47q61 0 108 38.5t66 109.5l106 606h342l-178 -1024h-344l24 136q-64 -76 -146 -118t-170 -42q-102 0 -176 64.5t-100 171.5q-65 -110 -163 -173t-207 -63
q-149 0 -231 128t-49 312l108 608h342z" />
    <glyph glyph-name="uni0270" unicode="&#x270;" horiz-adv-x="1808" 
d="M508 458q-17 -95 14 -140.5t102 -45.5q60 0 108.5 40t67.5 110l108 602h342l-98 -564q-17 -96 15.5 -143t104.5 -47q61 0 107 38t65 108l108 608h342l-238 -1358h-344l84 470q-64 -76 -146 -118t-170 -42q-102 0 -176 64.5t-100 171.5q-65 -109 -163.5 -172.5
t-206.5 -63.5q-149 0 -231 128t-49 312l108 608h342z" />
    <glyph glyph-name="uni0271" unicode="&#x271;" horiz-adv-x="1808" 
d="M836 566q17 95 -15 141.5t-105 46.5q-61 0 -108 -38.5t-66 -109.5l-106 -606h-342l178 1024h344l-24 -136q64 76 146.5 118t171.5 42q102 0 176 -66t100 -174q65 113 162.5 180.5t199.5 67.5q165 0 242.5 -114t45.5 -308l-112 -632q-32 -190 -137 -296t-263 -106h-178
l52 302h70q53 0 80.5 26t37.5 86l96 548q15 92 -15.5 140t-100.5 48q-61 0 -109.5 -40.5t-68.5 -105.5l-108 -604h-342z" />
    <glyph glyph-name="uni0272" unicode="&#x272;" horiz-adv-x="1208" 
d="M-80 -126h64q46 0 71.5 20.5t32.5 67.5l188 1064h342l-22 -122q68 75 152.5 115.5t165.5 40.5q175 0 264.5 -118t53.5 -312l-110 -630h-342l98 560q18 95 -20 144.5t-120 49.5q-74 0 -128.5 -48t-69.5 -126l-112 -632q-29 -171 -138.5 -257.5t-279.5 -86.5h-138z" />
    <glyph glyph-name="uni0273" unicode="&#x273;" horiz-adv-x="1208" 
d="M878 566q17 95 -20.5 141.5t-119.5 46.5q-72 0 -128.5 -49t-69.5 -125l-102 -580h-342l180 1024h342l-22 -126q67 77 152 119.5t164 42.5q179 0 268.5 -111.5t51.5 -310.5l-102 -582q-10 -56 8 -80t64 -24h18l-50 -286h-56q-184 0 -274 91t-60 253z" />
    <glyph glyph-name="uni0274" unicode="&#x274;" horiz-adv-x="1244" 
d="M986 1024h342l-180 -1024h-356l-258 558l-96 -558h-342l180 1024h382l236 -542z" />
    <glyph glyph-name="uni0275" unicode="&#x275;" horiz-adv-x="1212" 
d="M156 442q0 131 44 246t120 196.5t183 128.5t229 47q227 0 363.5 -127t136.5 -343q0 -131 -44 -247t-120 -198t-182.5 -129.5t-227.5 -47.5q-227 0 -364.5 129.5t-137.5 344.5zM722 806q-74 0 -134 -52t-92 -140h422q-8 92 -58.5 142t-137.5 50zM668 222q73 0 132.5 52
t91.5 140h-422q9 -92 61 -142t137 -50z" />
    <glyph glyph-name="uni0276" unicode="&#x276;" horiz-adv-x="1656" 
d="M156 442q0 175 64 317t176.5 221.5t251.5 79.5q99 0 175.5 -52t120.5 -148l30 164h790l-48 -270h-442l-22 -118h388l-42 -236h-386l-20 -114h442l-50 -286h-792l14 76q-118 -108 -264 -108q-176 0 -281 129t-105 345zM886 582q0 90 -43 140t-121 50q-92 0 -156 -92
t-64 -230q0 -93 44 -143.5t122 -50.5q91 0 154.5 94t63.5 232z" />
    <glyph glyph-name="uni0277" unicode="&#x277;" horiz-adv-x="1482" 
d="M794 158q-124 -182 -318 -182q-153 0 -243.5 107.5t-90.5 290.5q0 142 54 266.5t151 215t239.5 142.5t311.5 52q276 0 439 -143t163 -387q0 -143 -63.5 -269t-170 -200.5t-228.5 -74.5q-94 0 -156 46.5t-88 135.5zM892 766q-172 0 -286 -105.5t-114 -264.5
q0 -116 84 -116q44 0 75.5 26t46.5 74l36 210h222l-32 -188q-7 -46 14.5 -75t63.5 -29q68 0 110 63t42 163q0 117 -68 179.5t-194 62.5z" />
    <glyph glyph-name="uni0278" unicode="&#x278;" horiz-adv-x="1212" 
d="M156 442q0 264 159.5 438.5t402.5 179.5l66 374h146l-68 -386q172 -35 271 -155.5t99 -302.5q0 -174 -72.5 -315t-200.5 -222t-287 -85l-52 -302h-148l56 314q-173 35 -272.5 157.5t-99.5 304.5zM468 450q0 -146 108 -194l92 526q-87 -24 -143.5 -115.5t-56.5 -216.5z
M920 582q0 143 -106 190l-92 -526q86 24 142 117.5t56 218.5z" />
    <glyph glyph-name="uni0279" unicode="&#x279;" horiz-adv-x="838" 
d="M126 328h74q112 0 196.5 52t99.5 132l90 512h340l-180 -1024h-342l30 170q-65 -90 -143 -140t-151 -50h-74z" />
    <glyph glyph-name="uni027A" unicode="&#x27a;" horiz-adv-x="838" 
d="M126 328h74q112 0 196.5 52t99.5 132l162 922h340l-252 -1434h-342l30 170q-65 -90 -143 -140t-151 -50h-74z" />
    <glyph glyph-name="uni027B" unicode="&#x27b;" horiz-adv-x="838" 
d="M126 328h74q112 0 196.5 52t99.5 132l90 512h340l-172 -968q-9 -56 9.5 -80t64.5 -24h58l-50 -286h-110q-176 0 -262 90t-58 254l28 160q-65 -90 -143 -140t-151 -50h-74z" />
    <glyph glyph-name="uni027C" unicode="&#x27c;" horiz-adv-x="838" 
d="M272 1024h342l-28 -170q63 90 142 140t152 50h74l-62 -348h-72q-112 0 -196.5 -52t-99.5 -132l-148 -846h-342z" />
    <glyph glyph-name="uni027D" unicode="&#x27d;" horiz-adv-x="838" 
d="M574 -48l-52 -286h-108q-177 0 -263.5 90t-56.5 254l178 1014h342l-28 -170q63 90 142 140t152 50h74l-62 -348h-72q-112 0 -196.5 -52t-99.5 -132l-80 -456q-10 -56 8 -80t66 -24h56z" />
    <glyph glyph-name="uni027E" unicode="&#x27e;" horiz-adv-x="658" 
d="M738 738h-42q-66 0 -103.5 -33t-50.5 -109l-104 -596h-342l110 626q33 189 163.5 293.5t324.5 104.5h94z" />
    <glyph glyph-name="uni027F" unicode="&#x27f;" horiz-adv-x="650" 
d="M176 738l50 286h98q192 0 283.5 -103.5t58.5 -292.5l-170 -962h-342l164 934q13 74 -10.5 106t-87.5 32h-44z" />
    <glyph glyph-name="uni0280" unicode="&#x280;" horiz-adv-x="1172" 
d="M652 272h-166l-48 -272h-342l180 1024h556q180 0 287 -82.5t107 -221.5q0 -108 -74 -189.5t-198 -114.5q89 -21 124.5 -72t35.5 -150v-194h-338v162q0 59 -29 84.5t-95 25.5zM768 754h-198l-38 -214h200q66 0 105 35t39 95q0 41 -28 62.5t-80 21.5z" />
    <glyph glyph-name="uni0281" unicode="&#x281;" horiz-adv-x="1172" 
d="M736 752q67 0 105.5 27t58.5 89l54 156h334l-60 -186q-35 -106 -97 -160.5t-173 -73.5q95 -33 147.5 -102t52.5 -164q0 -144 -129 -241t-321 -97h-612l180 1024h342l-48 -272h166zM684 270q65 0 103.5 36t38.5 96q0 82 -104 82h-200l-36 -214h198z" />
    <glyph glyph-name="uni0282" unicode="&#x282;" horiz-adv-x="1132" 
d="M540 -128l-48 -270h-76q-197 0 -292 82.5t-68 229.5l72 410h326q0 -60 50 -93t138 -33q65 0 101.5 23t36.5 65q0 58 -82 76l-198 36q-144 29 -221 107.5t-77 198.5q0 169 119.5 262.5t334.5 93.5q240 0 369 -91.5t129 -262.5h-324q0 55 -42 85.5t-116 30.5
q-57 0 -88.5 -23t-31.5 -65q0 -53 72 -68l214 -38q276 -50 276 -296q0 -179 -94.5 -271.5t-277.5 -92.5q-231 0 -324 158l-30 -166q-7 -46 11.5 -67t66.5 -21h74z" />
    <glyph glyph-name="uni0283" unicode="&#x283;" horiz-adv-x="660" 
d="M448 -12q-31 -183 -151 -284.5t-297 -101.5h-120l54 304h62q49 0 76.5 21.5t37.5 72.5l192 1090q28 164 145.5 254t294.5 90h120l-48 -270h-66q-48 0 -73.5 -20t-34.5 -68z" />
    <glyph glyph-name="uni0284" unicode="&#x284;" horiz-adv-x="742" 
d="M38 0l46 270h152l144 820q30 165 147 254.5t295 89.5h118l-46 -270h-66q-48 0 -73.5 -20t-34.5 -68l-142 -806h156l-48 -270h-156l-8 -46q-30 -166 -148 -259t-294 -93h-118l50 288h64q48 0 73.5 17.5t32.5 58.5l6 34h-150z" />
    <glyph glyph-name="uni0285" unicode="&#x285;" horiz-adv-x="730" 
d="M170 754l48 270h120q178 0 264 -90t56 -254l-120 -686q-9 -47 9.5 -67.5t66.5 -20.5h62l-54 -304h-116q-176 0 -260.5 100t-51.5 280l120 686q9 47 -9.5 66.5t-66.5 19.5h-68z" />
    <glyph glyph-name="uni0286" unicode="&#x286;" horiz-adv-x="1142" 
d="M292 -16q0 -45 33 -69.5t93 -24.5q81 0 123.5 39.5t58.5 130.5l12 66q-48 12 -104 12q-95 0 -155.5 -43.5t-60.5 -110.5zM1200 -410h-300q0 151 -34 268q-139 -256 -462 -256q-201 0 -315.5 96t-114.5 264q0 190 153 319t377 129q87 0 154 -14l124 694
q27 163 142.5 253.5t293.5 90.5h124l-46 -270h-66q-50 0 -75.5 -21t-32.5 -67l-150 -842q110 -106 169 -270t59 -374z" />
    <glyph glyph-name="uni0287" unicode="&#x287;" horiz-adv-x="752" 
d="M702 0h-156l-46 -266h-342l46 266h-152l48 270h152l64 364q10 56 -6.5 80t-61.5 24h-66l50 286h120q175 0 259.5 -90t54.5 -254l-72 -410h154z" />
    <glyph glyph-name="uni0288" unicode="&#x288;" horiz-adv-x="752" 
d="M692 -48l-50 -286h-120q-175 0 -259.5 89.5t-56.5 254.5l132 744h-152l46 270h154l46 266h342l-46 -266h154l-48 -270h-154l-124 -698q-9 -56 7.5 -80t62.5 -24h66z" />
    <glyph glyph-name="uni0289" unicode="&#x289;" horiz-adv-x="1188" 
d="M126 714h86l56 310h344l-54 -310h322l56 310h340l-54 -310h92l-42 -234h-92l-82 -480h-342l24 142q-68 -81 -154 -123.5t-174 -42.5q-104 0 -179 65.5t-103 167t-8 213.5l10 58h-88zM516 464q-34 -194 128 -194q68 0 117.5 40t68.5 112l10 58h-322z" />
    <glyph glyph-name="uni028A" unicode="&#x28a;" horiz-adv-x="1288" 
d="M676 -32q-246 0 -390.5 105t-143.5 283q0 115 65.5 215t180.5 167h-182l50 286h504l-50 -286q-90 -28 -148 -111.5t-58 -184.5q0 -81 50 -124.5t140 -43.5q117 0 190.5 77t73.5 199q0 69 -31 118.5t-87 69.5l48 286h506l-48 -286h-196q144 -109 144 -282
q0 -136 -81.5 -248t-223 -176t-313.5 -64z" />
    <glyph glyph-name="uni028B" unicode="&#x28b;" horiz-adv-x="1192" 
d="M272 1024h342l-94 -530q-15 -88 19 -137t111 -49q97 0 155.5 84t58.5 224q0 122 -100 122h-32l50 286h84q163 0 252.5 -100.5t89.5 -283.5q0 -185 -74.5 -335.5t-206.5 -235.5t-295 -85q-162 0 -275.5 64t-160.5 180.5t-18 265.5z" />
    <glyph glyph-name="uni028C" unicode="&#x28c;" horiz-adv-x="1190" 
d="M1136 0h-342l-62 718l-306 -718h-370l524 1024h390z" />
    <glyph glyph-name="uni028D" unicode="&#x28d;" horiz-adv-x="1806" 
d="M1752 0h-338l-14 692l-280 -692h-392l-44 692l-256 -692h-372l486 1024h390l42 -682l258 682h408z" />
    <glyph glyph-name="uni028E" unicode="&#x28e;" horiz-adv-x="1222" 
d="M1296 1140h-118q-51 0 -87 -29.5t-71 -92.5l-24 -46l174 -972h-342l-90 650l-312 -650h-370l536 1046q75 146 150.5 228t176 121t245.5 39h184z" />
    <glyph glyph-name="uni028F" unicode="&#x28f;" horiz-adv-x="1244" 
d="M500 290l-264 734h352l120 -432l266 432h398l-530 -736l-50 -288h-342z" />
    <glyph glyph-name="uni0290" unicode="&#x290;" horiz-adv-x="1048" 
d="M270 1024h870l-54 -306l-564 -466h482l-44 -252l-8 -40q-9 -47 10.5 -67.5t65.5 -20.5h74l-48 -270h-108q-177 0 -265 81.5t-61 230.5l16 86h-548l54 306l562 466h-480z" />
    <glyph glyph-name="uni0291" unicode="&#x291;" horiz-adv-x="1504" 
d="M592 -222q22 128 50 222h-554l54 306l560 466h-478l44 252h872l-54 -306l-562 -466h224q93 167 221.5 257.5t274.5 90.5q144 0 233 -76t89 -196q0 -141 -112 -234.5t-280 -93.5h-284q-32 -107 -52 -222h-246zM1224 380q-117 0 -214 -128h172q54 0 86 20.5t32 55.5
q0 23 -21 37.5t-55 14.5z" />
    <glyph glyph-name="uni0292" unicode="&#x292;" horiz-adv-x="1206" 
d="M890 440q264 -70 264 -378q0 -213 -148.5 -342.5t-415.5 -129.5q-234 0 -374 119.5t-140 318.5h346q0 -76 44 -113t136 -37q88 0 143 58.5t55 151.5q0 66 -43.5 102t-124.5 36h-136l42 238l312 272l-628 2l50 286h1016l-48 -288z" />
    <glyph glyph-name="uni0293" unicode="&#x293;" horiz-adv-x="1206" 
d="M504 -14q-43 0 -71.5 -19.5t-28.5 -50.5q0 -72 130 -72q123 0 200 74q-82 68 -230 68zM890 506q264 -82 264 -444q0 -124 -56 -224q50 -99 82 -248h-256q-4 13 -13.5 36.5t-12.5 31.5q-142 -68 -342 -68q-227 0 -363.5 89t-136.5 237q0 136 106.5 217t281.5 81
q209 0 352 -70q-10 81 -56.5 123.5t-123.5 42.5h-136l42 238l298 188l-598 2l50 286h1016l-48 -288z" />
    <glyph glyph-name="uni0294" unicode="&#x294;" horiz-adv-x="1178" 
d="M850 496l-90 -496h-340l118 666q219 90 310.5 179.5t91.5 212.5q0 61 -35.5 94.5t-100.5 33.5q-76 0 -131 -49t-75 -135h-346q47 225 194.5 344.5t349.5 119.5q227 0 360.5 -109.5t133.5 -294.5q0 -169 -108.5 -308t-331.5 -258z" />
    <glyph glyph-name="uni0295" unicode="&#x295;" horiz-adv-x="1178" 
d="M506 496q-137 105 -198.5 212.5t-61.5 243.5q0 228 157.5 371t420.5 143q228 0 353 -127t103 -337h-346q12 82 -27.5 133t-116.5 51q-87 0 -140.5 -62t-53.5 -162q0 -90 61 -155t219 -141l-118 -666h-340z" />
    <glyph glyph-name="uni0296" unicode="&#x296;" horiz-adv-x="1178" 
d="M918 938q137 -105 198.5 -212.5t61.5 -243.5q0 -228 -158 -372t-420 -144q-228 0 -353.5 128t-102.5 338h346q-12 -83 27 -133.5t117 -50.5q87 0 140.5 62t53.5 162q0 89 -61 154.5t-219 141.5l118 666h340z" />
    <glyph glyph-name="uni0297" unicode="&#x297;" horiz-adv-x="1228" 
d="M130 206q0 383 174.5 618.5t445.5 235.5q246 0 377 -129.5t131 -360.5h-350q0 98 -44 150t-128 52q-73 0 -133 -73t-94.5 -201t-34.5 -284q0 -162 42.5 -247t123.5 -85q162 0 198 194h336q-39 -229 -183 -356.5t-365 -127.5q-227 0 -361.5 167t-134.5 447z" />
    <glyph glyph-name="uni0298" unicode="&#x298;" horiz-adv-x="1444" 
d="M174 520q0 239 96 429t267.5 296.5t386.5 106.5q278 0 428 -144.5t150 -411.5q0 -238 -94 -423t-263 -287t-387 -102q-280 0 -432 139.5t-152 396.5zM1168 802q0 276 -254 276q-180 0 -293 -155.5t-113 -402.5q0 -264 262 -264q183 0 290.5 147t107.5 399zM728 786h266
l-44 -258h-266z" />
    <glyph glyph-name="uni0299" unicode="&#x299;" horiz-adv-x="1222" 
d="M1052 516q150 -73 150 -228q0 -121 -103 -204.5t-253 -83.5h-750l180 1024h650q151 0 243.5 -70.5t92.5 -187.5q0 -173 -210 -250zM820 626q38 0 61 23.5t23 62.5q0 60 -74 60h-250l-26 -146h266zM754 252q48 0 76 25t28 67q0 62 -76 62h-266l-28 -154h266z" />
    <glyph glyph-name="uni029A" unicode="&#x29a;" horiz-adv-x="1172" 
d="M316 514q-112 76 -112 220q0 140 126 230t322 90q247 0 395.5 -131t148.5 -349q0 -124 -45.5 -234t-126 -190.5t-195.5 -127t-247 -46.5q-191 0 -307.5 85.5t-116.5 224.5q0 73 42 134t116 94zM850 592q0 94 -43 145t-121 51q-64 0 -102 -27t-38 -71q0 -64 94 -64h104
l-38 -222h-104q-47 0 -73.5 -24t-26.5 -66q0 -34 27 -53t77 -19q107 0 175.5 98.5t68.5 251.5z" />
    <glyph glyph-name="uni029B" unicode="&#x29b;" horiz-adv-x="1194" 
d="M154 422q0 185 59 328.5t173.5 226.5t269.5 83q122 0 205.5 -52t122.5 -152l14 80q33 189 147.5 292.5t282.5 103.5h92l-50 -286h-38q-136 0 -150 -140l-42 -240h-346q0 60 -38.5 92t-105.5 32q-106 0 -176 -104t-70 -260q0 -90 39 -138t111 -48q132 0 182 138h-164
l36 206h522l-106 -584h-220l2 146q-63 -86 -149 -132t-185 -46q-193 0 -305.5 122t-112.5 332z" />
    <glyph glyph-name="uni029C" unicode="&#x29c;" horiz-adv-x="1244" 
d="M276 1024h342l-62 -352h368l62 352h342l-180 -1024h-342l64 368h-368l-64 -368h-342z" />
    <glyph glyph-name="uni029D" unicode="&#x29d;" horiz-adv-x="852" 
d="M654 1414h370l-48 -274h-370zM760 -6q-32 -183 -154 -287.5t-308 -104.5q-189 0 -292.5 82.5t-103.5 233.5q0 167 119.5 271.5t312.5 104.5h136l128 730h342l-128 -730h114l-44 -254h-114zM308 -110q49 0 75 28t37 88l6 34h-104q-47 0 -74.5 -24t-27.5 -64q0 -62 88 -62z
" />
    <glyph glyph-name="uni029E" unicode="&#x29e;" horiz-adv-x="1212" 
d="M504 0h-460l448 470l-286 554h378l176 -364l164 152l38 212h342l-240 -1358h-340l124 714z" />
    <glyph glyph-name="uni029F" unicode="&#x29f;" horiz-adv-x="864" 
d="M810 0h-714l180 1024h342l-124 -704h372z" />
    <glyph glyph-name="uni02A0" unicode="&#x2a0;" horiz-adv-x="1228" 
d="M1484 1148h-54q-48 0 -76 -24t-38 -80l-236 -1378h-342l84 490q-136 -178 -328 -178q-158 0 -250 120.5t-92 325.5q0 177 65 326t177.5 235.5t247.5 86.5q110 0 187 -57.5t115 -166.5l42 242q31 176 130.5 260t255.5 84h160zM500 460q0 -99 41.5 -151.5t118.5 -52.5
q97 0 161.5 89t64.5 225q0 98 -41 150t-117 52q-97 0 -162.5 -89t-65.5 -223z" />
    <glyph glyph-name="uni02A1" unicode="&#x2a1;" horiz-adv-x="1178" 
d="M246 502h262l30 164q219 90 310.5 179.5t91.5 212.5q0 61 -35.5 94.5t-100.5 33.5q-76 0 -131 -49t-75 -135h-346q47 225 194.5 344.5t349.5 119.5q227 0 360.5 -109.5t133.5 -294.5q0 -305 -440 -516l-8 -44h260l-40 -236h-258l-44 -266h-340l48 266h-264z" />
    <glyph glyph-name="uni02A2" unicode="&#x2a2;" horiz-adv-x="1178" 
d="M246 502h254l12 62q-140 96 -203 195.5t-63 226.5q0 213 157.5 346.5t420.5 133.5q228 0 353 -127t103 -337h-346q12 82 -27.5 133t-116.5 51q-87 0 -140.5 -62t-53.5 -162q0 -90 61 -155t219 -141l-30 -164h256l-40 -236h-258l-46 -266h-340l44 266h-258z" />
    <glyph glyph-name="uni02A3" unicode="&#x2a3;" horiz-adv-x="2172" 
d="M1390 1434l-72 -410h948l-54 -306l-564 -466h482l-44 -252h-872l54 306l562 466h-556l-136 -772h-344l28 154q-140 -176 -328 -176q-158 0 -250 120.5t-92 325.5q0 177 65 326t177.5 235.5t247.5 86.5q110 0 187 -58t115 -166l102 586h344zM500 460q0 -99 41.5 -151.5
t118.5 -52.5q97 0 161.5 89t64.5 225q0 98 -41 150t-117 52q-97 0 -162.5 -89t-65.5 -223z" />
    <glyph glyph-name="uni02A4" unicode="&#x2a4;" horiz-adv-x="2050" 
d="M1046 1434h342l-72 -410h808l-48 -288l-340 -296q264 -70 264 -378q0 -213 -158 -342.5t-442 -129.5q-221 0 -353.5 98.5t-132.5 263.5h346q0 -92 152 -92q103 0 168.5 63.5t65.5 164.5q0 66 -43.5 102t-124.5 36h-136l42 238l300 272l-418 2l-130 -738h-342l28 154
q-140 -176 -328 -176q-158 0 -250 120.5t-92 325.5q0 177 65 326t177.5 235.5t247.5 86.5q110 0 187 -58t115 -166zM500 460q0 -99 41.5 -151.5t118.5 -52.5q97 0 161.5 89t64.5 225q0 98 -41 150t-117 52q-97 0 -162.5 -89t-65.5 -223z" />
    <glyph glyph-name="uni02A5" unicode="&#x2a5;" horiz-adv-x="2610" 
d="M1712 -222q22 128 50 222h-554l54 306l560 466h-548l-136 -772h-344l28 154q-140 -176 -328 -176q-158 0 -250 120.5t-92 325.5q0 177 65 326t177.5 235.5t247.5 86.5q110 0 187 -58t115 -166l102 586h344l-72 -410h942l-54 -306l-562 -466h224q93 167 221.5 257.5
t274.5 90.5q144 0 233 -76t89 -196q0 -141 -112 -234.5t-280 -93.5h-284q-32 -107 -52 -222h-246zM500 460q0 -99 41.5 -151.5t118.5 -52.5q97 0 161.5 89t64.5 225q0 98 -41 150t-117 52q-97 0 -162.5 -89t-65.5 -223zM2344 378q-119 0 -214 -126h172q54 0 86 20.5t32 55.5
q0 23 -21 37t-55 13z" />
    <glyph glyph-name="uni02A6" unicode="&#x2a6;" horiz-adv-x="1806" 
d="M1378 386l-202 22q-298 33 -298 286q0 165 133.5 263.5t358.5 98.5q219 0 342.5 -89t123.5 -245h-330q-2 51 -35.5 75.5t-104.5 24.5q-63 0 -100.5 -24.5t-37.5 -65.5q0 -43 72 -52l220 -20q143 -13 211.5 -82.5t68.5 -197.5q0 -178 -114.5 -279t-317.5 -101h-706
q-212 0 -315.5 108.5t-68.5 309.5l60 336h-152l46 270h154l46 266h342l-46 -266h154l-48 -270h-154l-52 -288q-15 -92 16 -135t118 -43h566q68 0 96 12t28 38q0 21 -16.5 31.5t-57.5 16.5z" />
    <glyph glyph-name="uni02A7" unicode="&#x2a7;" horiz-adv-x="1318" 
d="M232 1024h154l46 266h342l-46 -266h234l12 66q27 164 135 254t269 90h158l-48 -270h-66q-48 0 -73.5 -20t-34.5 -68l-196 -1104q-28 -176 -137.5 -273t-272.5 -97h-154l54 304h62q49 0 75 18.5t33 59.5l4 16h-200q-176 0 -261 89.5t-55 254.5l72 410h-152zM684 286h148
l82 468h-234l-64 -364q-10 -56 6.5 -80t61.5 -24z" />
    <glyph glyph-name="uni02A8" unicode="&#x2a8;" horiz-adv-x="1852" 
d="M638 0q-207 0 -303.5 94.5t-66.5 267.5l70 392h-154l48 270h152l48 266h342l-48 -266h156l-48 -270h-154l-60 -346q-15 -82 7 -119t85 -37q61 0 124 34q-24 72 -24 156q0 168 79.5 309.5t217 223t301.5 81.5q226 0 358 -100.5t132 -273.5h-348q-18 64 -52 91t-98 27
q-97 0 -161.5 -82.5t-78.5 -219.5q170 94 344 94q156 0 239 -79t83 -227q0 -135 -136 -221.5t-350 -86.5q-245 0 -388 124q-169 -102 -316 -102zM1360 212q60 0 93 19.5t33 54.5q0 70 -78 70q-46 0 -89 -17.5t-111 -62.5q52 -64 152 -64z" />
    <glyph glyph-name="uni02A9" unicode="&#x2a9;" horiz-adv-x="1820" 
d="M186 754l46 270h148l12 66q27 164 135 254t269 90h158l-48 -270h-66q-48 0 -74.5 -20t-33.5 -68l-10 -52h160l-48 -270h-160l-132 -754h-342l132 754h-146zM882 1022h340l-24 -134q64 81 146 126.5t174 45.5q183 0 269.5 -115t48.5 -309l-112 -634q-30 -189 -145 -295.5
t-289 -106.5h-178l54 302h86q60 0 90.5 26.5t41.5 85.5l98 550q33 188 -138 188q-74 0 -130.5 -49t-69.5 -125l-102 -580h-340z" />
    <glyph glyph-name="uni02AA" unicode="&#x2aa;" horiz-adv-x="1636" 
d="M1202 386l-200 22q-298 33 -298 286q0 165 133.5 263.5t358.5 98.5q219 0 343.5 -89.5t124.5 -248.5h-330q0 104 -140 104q-64 0 -102 -25t-38 -67q0 -22 17 -33.5t55 -16.5l218 -20q144 -13 212 -82t68 -198q0 -178 -116 -279t-322 -101h-634q-214 0 -315.5 110.5
t-66.5 307.5l178 1016h344l-170 -968q-17 -93 15 -135.5t119 -42.5h490q71 0 101.5 12t30.5 38q0 20 -17.5 31t-58.5 17z" />
    <glyph glyph-name="uni02AB" unicode="&#x2ab;" horiz-adv-x="1476" 
d="M690 1434l-72 -410h952l-54 -306l-564 -466h480l-44 -252h-870l54 306l562 466h-560l-136 -772h-342l252 1434h342z" />
    <glyph glyph-name="uni02AC" unicode="&#x2ac;" horiz-adv-x="1178" 
d="M290 1332h244l18 -364l118 364h272l-6 -364l144 364h280l-306 -594h-242l-28 354l-130 -354h-282zM160 594h244l18 -362l118 362h272l-6 -362l144 362h280l-306 -594h-242l-28 354l-130 -354h-282z" />
    <glyph glyph-name="uni02AD" unicode="&#x2ad;" horiz-adv-x="1178" 
d="M1214 738h-260l66 370h-470l-66 -370h-258l104 594h988zM1084 0h-260l66 370h-470l-66 -370h-258l104 594h988z" />
    <glyph glyph-name="uni02AE" unicode="&#x2ae;" horiz-adv-x="1188" 
d="M512 444q-29 -174 132 -174q68 0 122 46t66 116l104 592h340l-238 -1358h-342l84 472q-68 -83 -155.5 -128.5t-172.5 -45.5q-163 0 -245.5 107.5t-48.5 300.5l40 228q13 74 -10.5 106t-87.5 32h-48l52 286h98q192 0 284.5 -103.5t59.5 -292.5z" />
    <glyph glyph-name="uni02AF" unicode="&#x2af;" horiz-adv-x="1188" 
d="M512 444q-29 -174 132 -174q68 0 122 46t66 116l104 592h340l-170 -968q-10 -56 7.5 -80t64.5 -24h56l-50 -286h-110q-176 0 -261 89.5t-55 254.5l22 130q-68 -84 -156 -130t-172 -46q-164 0 -246.5 107.5t-47.5 300.5l40 228q13 74 -10.5 106t-87.5 32h-48l52 286h98
q192 0 284.5 -103.5t59.5 -292.5z" />
    <glyph glyph-name="uni02BC" unicode="&#x2bc;" horiz-adv-x="440" 
d="M322 1428h370l-74 -420q-21 -121 -106 -186.5t-216 -65.5h-92l28 162h38q88 0 133.5 23.5t54.5 78.5l8 48h-206z" />
    <glyph glyph-name="uni02C8" unicode="&#x2c8;" horiz-adv-x="508" 
d="M344 1434h326l-122 -694h-326z" />
    <glyph glyph-name="uni02CC" unicode="&#x2cc;" horiz-adv-x="508" 
d="M156 360h324l-122 -694h-324z" />
    <glyph glyph-name="uni02D0" unicode="&#x2d0;" horiz-adv-x="648" 
d="M262 1024h486l-314 -408zM396 410l172 -410h-486z" />
    <glyph glyph-name="gravecomb" unicode="&#x300;" horiz-adv-x="614" 
d="M144 1418h362l160 -394h-254z" />
    <glyph glyph-name="acutecomb" unicode="&#x301;" horiz-adv-x="614" 
d="M942 1418l-364 -394h-290l256 394h398z" />
    <glyph glyph-name="uni0302" unicode="&#x302;" horiz-adv-x="614" 
d="M396 1420h326l224 -396h-292l-114 226l-176 -226h-332z" />
    <glyph glyph-name="tildecomb" unicode="&#x303;" horiz-adv-x="614" 
d="M348 1396q30 0 58.5 -5.5t45 -10.5t41.5 -20t31 -19t32 -23q3 -2 13 -8.5t13.5 -9t12.5 -8t14 -7.5t13.5 -6t15 -5t15 -2.5t17.5 -1.5q54 0 89.5 30t44.5 84h192q-32 -176 -122.5 -272t-225.5 -96q-41 0 -77 11.5t-53.5 22.5t-45.5 32q-3 2 -18 14t-19 15t-17 11.5
t-20.5 11t-19.5 5.5t-24 3q-46 0 -78.5 -32t-41.5 -86h-198q33 183 112.5 277.5t199.5 94.5z" />
    <glyph glyph-name="uni0304" unicode="&#x304;" horiz-adv-x="614" 
d="M178 1296h716l-44 -248h-718z" />
    <glyph glyph-name="uni0306" unicode="&#x306;" horiz-adv-x="614" 
d="M990 1384q-36 -174 -159 -273t-303 -99q-195 0 -307 102t-101 270h286q-2 -65 31.5 -100.5t96.5 -35.5q60 0 104.5 35.5t65.5 100.5h286z" />
    <glyph glyph-name="uni0307" unicode="&#x307;" horiz-adv-x="614" 
d="M372 1384h372l-64 -360h-370z" />
    <glyph glyph-name="uni0308" unicode="&#x308;" horiz-adv-x="614" 
d="M640 1350h336l-58 -326h-336zM132 1350h336l-58 -326h-336z" />
    <glyph glyph-name="hookabovecomb" unicode="&#x309;" horiz-adv-x="614" 
d="M388 1024q10 51 43 87t89 71q73 48 90 68q12 14 14 28q6 30 -9 48t-45 18q-72 0 -94 -74h-234q34 130 123 193t239 63q134 0 203.5 -65t50.5 -173q-11 -57 -46 -94t-92 -68q-7 -4 -25.5 -13.5t-25 -13.5t-20.5 -12.5t-20 -14t-14 -14t-11.5 -16.5t-5.5 -18h-210z" />
    <glyph glyph-name="uni030A" unicode="&#x30a;" horiz-adv-x="614" 
d="M840 1372q0 -154 -105 -258t-261 -104q-138 0 -220 74t-82 198q0 154 106 259t262 105q138 0 219 -74.5t81 -199.5zM392 1302q0 -42 26 -64t74 -22q59 0 94.5 37.5t35.5 98.5q0 42 -25.5 65t-72.5 23q-59 0 -95.5 -38.5t-36.5 -99.5z" />
    <glyph glyph-name="uni030B" unicode="&#x30b;" horiz-adv-x="614" 
d="M1228 1418l-388 -394h-270l278 394h380zM754 1418l-388 -394h-270l278 394h380z" />
    <glyph glyph-name="uni030C" unicode="&#x30c;" horiz-adv-x="614" 
d="M652 1024h-324l-226 396h294l116 -224l174 224h332z" />
    <glyph glyph-name="uni0312" unicode="&#x312;" horiz-adv-x="614" 
d="M676 1024h-370l74 420q22 120 107.5 186t214.5 66h94l-28 -162h-40q-87 0 -132.5 -23.5t-55.5 -78.5l-8 -48h208z" />
    <glyph glyph-name="uni0313" unicode="&#x313;" horiz-adv-x="614" 
d="M432 1696h370l-76 -420q-21 -121 -106 -186.5t-214 -65.5h-94l28 162h40q87 0 132 24t54 78l10 48h-210z" />
    <glyph glyph-name="uni0315" unicode="&#x315;" horiz-adv-x="614" 
d="M574 1570h296l-182 -546h-284z" />
    <glyph glyph-name="uni031B" unicode="&#x31b;" horiz-adv-x="614" 
d="M354 1122h192q53 0 87 26.5t45 95.5l20 122h258l-24 -134q-11 -65 -40 -116t-68 -83.5t-88.5 -54t-98 -30t-99.5 -8.5h-214z" />
    <glyph glyph-name="dotbelowcomb" unicode="&#x323;" horiz-adv-x="572" 
d="M74 -114h370l-46 -276h-372z" />
    <glyph glyph-name="uni0326" unicode="&#x326;" horiz-adv-x="614" 
d="M124 -62h372l-74 -418q-22 -122 -107.5 -187t-216.5 -65h-92l28 162h40q87 0 132.5 23.5t55.5 78.5l8 48h-208z" />
    <glyph glyph-name="uni0327" unicode="&#x327;" horiz-adv-x="614" 
d="M252 20h180l-94 -132h30q87 0 137.5 -56.5t50.5 -151.5q0 -120 -90.5 -190t-245.5 -70h-220l42 238h168q43 0 67.5 18.5t24.5 51.5q0 18 -14.5 29t-41.5 11h-68l-38 78z" />
    <glyph glyph-name="uni0328" unicode="&#x328;" horiz-adv-x="614" 
d="M402 0q-115 -60 -162.5 -110t-47.5 -110q0 -72 102 -72h142l-44 -256h-158q-141 0 -222.5 62t-81.5 170q0 96 66 177.5t190 138.5h216z" />
    <glyph glyph-name="uni1E9E" unicode="&#x1e9e;" horiz-adv-x="1374" 
d="M1158 740q110 -23 172 -109t62 -219q0 -177 -133 -294.5t-335 -117.5h-282l48 274h160q102 0 157 43t55 109q0 52 -43.5 80t-124.5 28h-132l46 254l362 288q-95 26 -206 26q-173 0 -265.5 -72t-120.5 -232l-140 -798h-342l144 852q44 267 225.5 392.5t500.5 125.5
q271 0 516 -124l-50 -296z" />
    <glyph glyph-name="uni1EA0" unicode="&#x1ea0;" horiz-adv-x="1366" 
d="M1328 0h-340l-28 238h-438l-110 -238h-374l686 1332h388zM868 974l-218 -466h276zM474 -114h370l-48 -276h-370z" />
    <glyph glyph-name="uni1EA1" unicode="&#x1ea1;" horiz-adv-x="1152" 
d="M1176 614l-102 -614h-348l20 112q-111 -136 -292 -136q-144 0 -235 85.5t-91 220.5q0 160 97.5 248t282.5 94l250 6q72 3 86 50l2 12q10 53 -28.5 88.5t-105.5 35.5q-122 0 -154 -108h-348q39 158 175 253t323 95q238 0 369 -123.5t99 -318.5zM480 314q0 -44 33.5 -70
t88.5 -26q66 0 117 37t69 97l12 66l-198 -6q-59 -1 -90.5 -27t-31.5 -71zM410 -116h370l-48 -274h-370z" />
    <glyph glyph-name="uni1EA2" unicode="&#x1ea2;" horiz-adv-x="1366" 
d="M806 1434q10 51 43 87t89 71q34 22 51 33.5t33.5 29t19.5 33.5q6 30 -8.5 48t-43.5 18q-76 0 -94 -74h-236q35 131 124 193.5t240 62.5q134 0 202.5 -65t49.5 -173q-10 -56 -45 -93t-93 -69q-7 -4 -25.5 -13.5t-25 -13.5t-20.5 -12.5t-20 -14t-14 -14t-11.5 -16.5
t-5.5 -18h-210zM1328 0h-340l-28 238h-438l-110 -238h-374l686 1332h388zM868 974l-218 -466h276z" />
    <glyph glyph-name="uni1EA3" unicode="&#x1ea3;" horiz-adv-x="1152" 
d="M668 1144q10 51 42.5 87t89.5 73q34 21 50.5 32t33.5 28.5t20 33.5q6 30 -9 48t-45 18q-35 0 -60 -19.5t-34 -54.5h-234q34 130 123 193t239 63q134 0 203.5 -65t50.5 -173q-11 -56 -45.5 -92t-92.5 -70q-78 -40 -98 -59q-20 -20 -24 -43h-210zM1176 614l-102 -614h-348
l20 112q-111 -136 -292 -136q-144 0 -235 85.5t-91 220.5q0 160 97.5 248t282.5 94l250 6q72 3 86 50l2 12q10 53 -28.5 88.5t-105.5 35.5q-122 0 -154 -108h-348q39 158 175 253t323 95q238 0 369 -123.5t99 -318.5zM480 314q0 -44 33.5 -70t88.5 -26q66 0 117 37t69 97
l12 66l-198 -6q-59 -1 -90.5 -27t-31.5 -71z" />
    <glyph glyph-name="uni1EA4" unicode="&#x1ea4;" horiz-adv-x="1366" 
d="M1962 2032l-364 -394h-290l256 394h398zM828 1830h324l224 -396h-292l-114 226l-176 -226h-332zM1328 0h-340l-28 238h-438l-110 -238h-374l686 1332h388zM868 974l-218 -466h276z" />
    <glyph glyph-name="uni1EA5" unicode="&#x1ea5;" horiz-adv-x="1152" 
d="M1798 1786l-366 -394h-290l258 394h398zM680 1540h326l224 -396h-292l-116 226l-174 -226h-332zM1176 614l-102 -614h-348l20 112q-111 -136 -292 -136q-144 0 -235 85.5t-91 220.5q0 160 97.5 248t282.5 94l250 6q72 3 86 50l2 12q10 53 -28.5 88.5t-105.5 35.5
q-122 0 -154 -108h-348q39 158 175 253t323 95q238 0 369 -123.5t99 -318.5zM480 314q0 -44 33.5 -70t88.5 -26q66 0 117 37t69 97l12 66l-198 -6q-59 -1 -90.5 -27t-31.5 -71z" />
    <glyph glyph-name="uni1EA6" unicode="&#x1ea6;" horiz-adv-x="1366" 
d="M1140 2032h362l160 -394h-254zM828 1830h324l224 -396h-292l-114 226l-176 -226h-332zM1328 0h-340l-28 238h-438l-110 -238h-374l686 1332h388zM868 974l-218 -466h276z" />
    <glyph glyph-name="uni1EA7" unicode="&#x1ea7;" horiz-adv-x="1152" 
d="M954 1786h362l160 -394h-254zM680 1540h326l224 -396h-292l-116 226l-174 -226h-332zM1176 614l-102 -614h-348l20 112q-111 -136 -292 -136q-144 0 -235 85.5t-91 220.5q0 160 97.5 248t282.5 94l250 6q72 3 86 50l2 12q10 53 -28.5 88.5t-105.5 35.5q-122 0 -154 -108
h-348q39 158 175 253t323 95q238 0 369 -123.5t99 -318.5zM480 314q0 -44 33.5 -70t88.5 -26q66 0 117 37t69 97l12 66l-198 -6q-59 -1 -90.5 -27t-31.5 -71z" />
    <glyph glyph-name="uni1EA8" unicode="&#x1ea8;" horiz-adv-x="1366" 
d="M1338 1638q10 51 43 87t89 71q73 48 90 68q12 14 14 28q6 30 -9 48t-45 18q-35 0 -60 -19.5t-34 -54.5h-234q34 130 123 193t239 63q134 0 203.5 -65t50.5 -173q-11 -57 -46 -94t-92 -68q-7 -4 -25.5 -13.5t-25 -13.5t-20.5 -12.5t-20 -14t-14 -14t-11.5 -16.5t-5.5 -18
h-210zM828 1830h324l224 -396h-292l-114 226l-176 -226h-332zM1328 0h-340l-28 238h-438l-110 -238h-374l686 1332h388zM868 974l-218 -466h276z" />
    <glyph glyph-name="uni1EA9" unicode="&#x1ea9;" horiz-adv-x="1152" 
d="M1178 1392q10 51 43 87t89 71q73 48 90 68q12 14 14 28q6 30 -9 48t-45 18q-35 0 -60 -19.5t-34 -54.5h-234q34 130 123 193t239 63q134 0 203.5 -65t50.5 -173q-11 -57 -46 -94t-92 -68q-7 -4 -25.5 -13.5t-25 -13.5t-20.5 -12.5t-20 -14t-14 -14t-11.5 -16.5t-5.5 -18
h-210zM680 1540h326l224 -396h-292l-116 226l-174 -226h-332zM1176 614l-102 -614h-348l20 112q-111 -136 -292 -136q-144 0 -235 85.5t-91 220.5q0 160 97.5 248t282.5 94l250 6q72 3 86 50l2 12q10 53 -28.5 88.5t-105.5 35.5q-122 0 -154 -108h-348q39 158 175 253
t323 95q238 0 369 -123.5t99 -318.5zM480 314q0 -44 33.5 -70t88.5 -26q66 0 117 37t69 97l12 66l-198 -6q-59 -1 -90.5 -27t-31.5 -71z" />
    <glyph glyph-name="uni1EAA" unicode="&#x1eaa;" horiz-adv-x="1366" 
d="M840 2294q16 0 31 -1.5t27 -3t26 -6t22 -7t21 -9t18.5 -9.5t18 -11.5t15.5 -10.5t16 -11.5t15 -10.5q3 -2 17 -11.5t18 -12t16 -9t19.5 -8.5t19.5 -4.5t24 -2.5q54 0 89.5 30t44.5 84h192q-31 -175 -122.5 -271.5t-225.5 -96.5q-42 0 -79 12t-52.5 22t-46.5 32
q-3 3 -11.5 10t-12 10t-11.5 9t-12.5 8.5t-12 7t-13 6.5t-13.5 4.5t-16 3.5t-16 1q-45 0 -78 -32t-42 -86h-196q33 183 112 278.5t198 95.5zM828 1830h324l224 -396h-292l-114 226l-176 -226h-332zM1328 0h-340l-28 238h-438l-110 -238h-374l686 1332h388zM868 974
l-218 -466h276z" />
    <glyph glyph-name="uni1EAB" unicode="&#x1eab;" horiz-adv-x="1152" 
d="M696 2008q38 0 69 -6t60 -21t40 -22t41 -29q3 -2 17 -11.5t18 -12t16 -9t19.5 -8.5t19.5 -4.5t24 -2.5q54 0 89.5 30t44.5 84h192q-31 -175 -122.5 -271.5t-225.5 -96.5q-42 0 -79 12t-52.5 22t-46.5 32q-3 3 -11.5 10t-12 10t-11.5 9t-12.5 8.5t-12 7t-13 6.5t-13.5 4.5
t-16 3.5t-16 1q-45 0 -78 -32t-42 -86h-196q33 183 112 277.5t198 94.5zM680 1540h326l224 -396h-292l-116 226l-174 -226h-332zM1176 614l-102 -614h-348l20 112q-111 -136 -292 -136q-144 0 -235 85.5t-91 220.5q0 160 97.5 248t282.5 94l250 6q72 3 86 50l2 12
q10 53 -28.5 88.5t-105.5 35.5q-122 0 -154 -108h-348q39 158 175 253t323 95q238 0 369 -123.5t99 -318.5zM480 314q0 -44 33.5 -70t88.5 -26q66 0 117 37t69 97l12 66l-198 -6q-59 -1 -90.5 -27t-31.5 -71z" />
    <glyph glyph-name="uni1EAC" unicode="&#x1eac;" horiz-adv-x="1366" 
d="M826 1830h326l224 -396h-292l-116 226l-174 -226h-332zM1328 0h-340l-28 238h-438l-110 -238h-374l686 1332h388zM868 974l-218 -466h276zM474 -114h370l-48 -276h-370z" />
    <glyph glyph-name="uni1EAD" unicode="&#x1ead;" horiz-adv-x="1152" 
d="M680 1540h326l224 -396h-292l-116 226l-174 -226h-332zM1176 614l-102 -614h-348l20 112q-111 -136 -292 -136q-144 0 -235 85.5t-91 220.5q0 160 97.5 248t282.5 94l250 6q72 3 86 50l2 12q10 53 -28.5 88.5t-105.5 35.5q-122 0 -154 -108h-348q39 158 175 253t323 95
q238 0 369 -123.5t99 -318.5zM480 314q0 -44 33.5 -70t88.5 -26q66 0 117 37t69 97l12 66l-198 -6q-59 -1 -90.5 -27t-31.5 -71zM410 -116h370l-48 -274h-370z" />
    <glyph glyph-name="uni1EAE" unicode="&#x1eae;" horiz-adv-x="1366" 
d="M1458 2230l-366 -392h-290l258 392h398zM1420 1794q-36 -174 -158.5 -273t-303.5 -99q-195 0 -306 102t-102 270h286q-2 -65 31.5 -100.5t96.5 -35.5q60 0 104.5 35.5t65.5 100.5h286zM1328 0h-340l-28 238h-438l-110 -238h-374l686 1332h388zM868 974l-218 -466h276z
" />
    <glyph glyph-name="uni1EAF" unicode="&#x1eaf;" horiz-adv-x="1152" 
d="M1310 1946l-364 -394h-290l256 394h398zM1272 1504q-34 -174 -157 -273t-305 -99q-194 0 -305 102t-101 270h286q-2 -65 30.5 -100.5t95.5 -35.5q61 0 105.5 35.5t64.5 100.5h286zM1176 614l-102 -614h-348l20 112q-111 -136 -292 -136q-144 0 -235 85.5t-91 220.5
q0 160 97.5 248t282.5 94l250 6q72 3 86 50l2 12q10 53 -28.5 88.5t-105.5 35.5q-122 0 -154 -108h-348q39 158 175 253t323 95q238 0 369 -123.5t99 -318.5zM480 314q0 -44 33.5 -70t88.5 -26q66 0 117 37t69 97l12 66l-198 -6q-59 -1 -90.5 -27t-31.5 -71z" />
    <glyph glyph-name="uni1EB0" unicode="&#x1eb0;" horiz-adv-x="1366" 
d="M658 2230h362l162 -392h-256zM1420 1794q-36 -174 -158.5 -273t-303.5 -99q-195 0 -306 102t-102 270h286q-2 -65 31.5 -100.5t96.5 -35.5q60 0 104.5 35.5t65.5 100.5h286zM1328 0h-340l-28 238h-438l-110 -238h-374l686 1332h388zM868 974l-218 -466h276z" />
    <glyph glyph-name="uni1EB1" unicode="&#x1eb1;" horiz-adv-x="1152" 
d="M510 1946h362l162 -394h-254zM1272 1504q-34 -174 -157 -273t-305 -99q-194 0 -305 102t-101 270h286q-2 -65 30.5 -100.5t95.5 -35.5q61 0 105.5 35.5t64.5 100.5h286zM1176 614l-102 -614h-348l20 112q-111 -136 -292 -136q-144 0 -235 85.5t-91 220.5q0 160 97.5 248
t282.5 94l250 6q72 3 86 50l2 12q10 53 -28.5 88.5t-105.5 35.5q-122 0 -154 -108h-348q39 158 175 253t323 95q238 0 369 -123.5t99 -318.5zM480 314q0 -44 33.5 -70t88.5 -26q66 0 117 37t69 97l12 66l-198 -6q-59 -1 -90.5 -27t-31.5 -71z" />
    <glyph glyph-name="uni1EB2" unicode="&#x1eb2;" horiz-adv-x="1366" 
d="M872 1838q10 49 42.5 85t89.5 73q38 24 52 33.5t31.5 27t20.5 33.5q6 30 -8.5 49t-43.5 19q-75 0 -94 -76h-236q35 131 124 193.5t240 62.5q134 0 202.5 -64.5t49.5 -173.5q-10 -55 -45 -91.5t-93 -70.5q-79 -41 -99 -60q-19 -18 -23 -40h-210zM1420 1794
q-36 -174 -158.5 -273t-303.5 -99q-195 0 -306 102t-102 270h286q-2 -65 31.5 -100.5t96.5 -35.5q60 0 104.5 35.5t65.5 100.5h286zM1328 0h-340l-28 238h-438l-110 -238h-374l686 1332h388zM868 974l-218 -466h276z" />
    <glyph glyph-name="uni1EB3" unicode="&#x1eb3;" horiz-adv-x="1152" 
d="M726 1552q8 50 41 86t91 74q33 20 50 32t33 29t19 33q6 30 -8 48t-44 18q-35 0 -60 -19.5t-34 -54.5h-234q33 130 122.5 193t239.5 63q134 0 203.5 -65t48.5 -173q-10 -56 -44.5 -92t-93.5 -70q-75 -40 -94 -58q-22 -20 -26 -44h-210zM1272 1504q-34 -174 -157 -273
t-305 -99q-194 0 -305 102t-101 270h286q-2 -65 30.5 -100.5t95.5 -35.5q61 0 105.5 35.5t64.5 100.5h286zM1176 614l-102 -614h-348l20 112q-111 -136 -292 -136q-144 0 -235 85.5t-91 220.5q0 160 97.5 248t282.5 94l250 6q72 3 86 50l2 12q10 53 -28.5 88.5t-105.5 35.5
q-122 0 -154 -108h-348q39 158 175 253t323 95q238 0 369 -123.5t99 -318.5zM480 314q0 -44 33.5 -70t88.5 -26q66 0 117 37t69 97l12 66l-198 -6q-59 -1 -90.5 -27t-31.5 -71z" />
    <glyph glyph-name="uni1EB4" unicode="&#x1eb4;" horiz-adv-x="1366" 
d="M866 2244q20 0 38.5 -2.5t32.5 -5t30 -8.5t25 -10t24.5 -13t20.5 -12.5t20.5 -14t18.5 -12.5q23 -18 34.5 -25.5t33.5 -16t44 -8.5q54 0 90.5 30t45.5 84h192q-31 -175 -122.5 -271.5t-225.5 -96.5q-42 0 -78.5 12t-53.5 23t-46 33q-25 21 -37 30t-35 18.5t-46 9.5
q-45 0 -78 -32t-42 -86h-196q33 183 112 278.5t198 95.5zM1420 1794q-36 -174 -158.5 -273t-303.5 -99q-195 0 -306 102t-102 270h286q-2 -65 31.5 -100.5t96.5 -35.5q60 0 104.5 35.5t65.5 100.5h286zM1328 0h-340l-28 238h-438l-110 -238h-374l686 1332h388zM868 974
l-218 -466h276z" />
    <glyph glyph-name="uni1EB5" unicode="&#x1eb5;" horiz-adv-x="1152" 
d="M708 1960q49 0 93 -14.5t59.5 -24.5t57.5 -39q51 -36 77 -43q17 -5 35 -5q54 0 89.5 29.5t44.5 82.5h192q-30 -174 -121.5 -270t-226.5 -96q-41 0 -76.5 11t-55 23t-44.5 32q-3 2 -18 14t-19 15t-17 11.5t-20.5 11t-19.5 5.5t-24 3q-45 0 -78 -32t-42 -86h-196
q32 182 111 277t199 95zM1272 1504q-34 -174 -157 -273t-305 -99q-194 0 -305 102t-101 270h286q-2 -65 30.5 -100.5t95.5 -35.5q61 0 105.5 35.5t64.5 100.5h286zM1176 614l-102 -614h-348l20 112q-111 -136 -292 -136q-144 0 -235 85.5t-91 220.5q0 160 97.5 248t282.5 94
l250 6q72 3 86 50l2 12q10 53 -28.5 88.5t-105.5 35.5q-122 0 -154 -108h-348q39 158 175 253t323 95q238 0 369 -123.5t99 -318.5zM480 314q0 -44 33.5 -70t88.5 -26q66 0 117 37t69 97l12 66l-198 -6q-59 -1 -90.5 -27t-31.5 -71z" />
    <glyph glyph-name="uni1EB6" unicode="&#x1eb6;" horiz-adv-x="1366" 
d="M1418 1794q-34 -174 -157 -273t-305 -99q-194 0 -305 102t-101 270h286q-2 -65 30.5 -100.5t95.5 -35.5q61 0 105.5 35.5t64.5 100.5h286zM1328 0h-340l-28 238h-438l-110 -238h-374l686 1332h388zM868 974l-218 -466h276zM474 -114h370l-48 -276h-370z" />
    <glyph glyph-name="uni1EB7" unicode="&#x1eb7;" horiz-adv-x="1152" 
d="M1272 1504q-34 -174 -157 -273t-303 -99q-195 0 -307 102t-101 270h286q-2 -65 30.5 -100.5t95.5 -35.5q61 0 106 35.5t66 100.5h284zM1176 614l-102 -614h-348l20 112q-111 -136 -292 -136q-144 0 -235 85.5t-91 220.5q0 160 97.5 248t282.5 94l250 6q72 3 86 50l2 12
q10 53 -28.5 88.5t-105.5 35.5q-122 0 -154 -108h-348q39 158 175 253t323 95q238 0 369 -123.5t99 -318.5zM480 314q0 -44 33.5 -70t88.5 -26q66 0 117 37t69 97l12 66l-198 -6q-59 -1 -90.5 -27t-31.5 -71zM410 -116h370l-48 -274h-370z" />
    <glyph glyph-name="uni1EB8" unicode="&#x1eb8;" horiz-adv-x="1136" 
d="M1296 1332l-56 -322h-624l-32 -176h566l-56 -320h-566l-34 -194h624l-56 -320h-966l234 1332h966zM388 -114h370l-46 -276h-370z" />
    <glyph glyph-name="uni1EB9" unicode="&#x1eb9;" horiz-adv-x="1208" 
d="M156 458q0 256 154.5 422t397.5 166q177 0 302.5 -69t179 -193.5t24.5 -283.5l-12 -68h-702q3 -188 172 -188q122 0 164 100h362q-115 -362 -512 -362q-252 0 -391 125t-139 351zM716 806q-138 0 -190 -160h354q3 72 -41.5 116t-122.5 44zM406 -114h370l-48 -276h-370z
" />
    <glyph glyph-name="uni1EBA" unicode="&#x1eba;" horiz-adv-x="1136" 
d="M746 1434q8 51 41.5 86.5t90.5 71.5q35 23 50.5 34t32 28.5t19.5 33.5q6 30 -8 48t-44 18q-35 0 -60 -19.5t-34 -54.5h-234q33 130 122.5 193t239.5 63q134 0 203.5 -65t48.5 -173q-10 -56 -45 -93t-93 -69q-7 -4 -28.5 -15.5t-28.5 -16t-22 -14.5t-20.5 -17t-12 -17.5
t-8.5 -21.5h-210zM1296 1332l-56 -322h-624l-32 -176h566l-56 -320h-566l-34 -194h624l-56 -320h-966l234 1332h966z" />
    <glyph glyph-name="uni1EBB" unicode="&#x1ebb;" horiz-adv-x="1208" 
d="M686 1144q10 51 43 87t89 71q34 22 51 33.5t33.5 29t19.5 33.5q6 30 -8.5 48t-43.5 18q-76 0 -94 -74h-236q35 131 124 193.5t240 62.5q134 0 202.5 -65t49.5 -173q-10 -56 -45 -93t-93 -69q-7 -4 -25.5 -13.5t-25 -13.5t-20.5 -12.5t-20 -14t-14 -14t-11.5 -16.5
t-5.5 -18h-210zM156 458q0 256 154.5 422t397.5 166q177 0 302.5 -69t179 -193.5t24.5 -283.5l-12 -68h-702q3 -188 172 -188q122 0 164 100h362q-115 -362 -512 -362q-252 0 -391 125t-139 351zM716 806q-138 0 -190 -160h354q3 72 -41.5 116t-122.5 44z" />
    <glyph glyph-name="uni1EBC" unicode="&#x1ebc;" horiz-adv-x="1136" 
d="M644 1806q30 0 58.5 -5.5t45 -10.5t41.5 -20t31 -19t32 -23q3 -2 17 -11.5t18 -12t16 -9t19.5 -8.5t19.5 -4.5t24 -2.5q54 0 89.5 30t44.5 84h192q-32 -176 -122.5 -272t-225.5 -96q-42 0 -78.5 12t-52.5 22.5t-45 31.5q-3 2 -18 14t-19 15t-17 11.5t-20.5 11t-19.5 5.5
t-24 3q-47 0 -80 -32t-40 -86h-198q33 183 112.5 277.5t199.5 94.5zM1296 1332l-56 -322h-624l-32 -176h566l-56 -320h-566l-34 -194h624l-56 -320h-966l234 1332h966z" />
    <glyph glyph-name="uni1EBD" unicode="&#x1ebd;" horiz-adv-x="1208" 
d="M632 1518q30 0 58.5 -5.5t45 -10.5t41.5 -20t31 -19t32 -23q3 -2 17 -11.5t18 -12t16 -9t19.5 -8.5t19.5 -4.5t24 -2.5q54 0 89.5 29.5t44.5 82.5h192q-32 -174 -122.5 -270t-225.5 -96q-42 0 -77.5 11t-54 22.5t-44.5 32.5q-3 2 -18 14t-19 15t-17 11.5t-20.5 11
t-19.5 5.5t-24 3q-47 0 -80 -32t-40 -86h-198q33 182 112.5 277t199.5 95zM156 458q0 256 154.5 422t397.5 166q177 0 302.5 -69t179 -193.5t24.5 -283.5l-12 -68h-702q3 -188 172 -188q122 0 164 100h362q-115 -362 -512 -362q-252 0 -391 125t-139 351zM716 806
q-138 0 -190 -160h354q3 72 -41.5 116t-122.5 44z" />
    <glyph glyph-name="uni1EBE" unicode="&#x1ebe;" horiz-adv-x="1136" 
d="M1902 2032l-364 -394h-290l256 394h398zM754 1830h326l224 -396h-292l-116 226l-174 -226h-332zM1296 1332l-56 -322h-624l-32 -176h566l-56 -320h-566l-34 -194h624l-56 -320h-966l234 1332h966z" />
    <glyph glyph-name="uni1EBF" unicode="&#x1ebf;" horiz-adv-x="1208" 
d="M1810 1786l-366 -394h-290l258 394h398zM696 1540h324l224 -396h-290l-116 226l-176 -226h-332zM156 458q0 256 154.5 422t397.5 166q177 0 302.5 -69t179 -193.5t24.5 -283.5l-12 -68h-702q3 -188 172 -188q122 0 164 100h362q-115 -362 -512 -362q-252 0 -391 125
t-139 351zM716 806q-138 0 -190 -160h354q3 72 -41.5 116t-122.5 44z" />
    <glyph glyph-name="uni1EC0" unicode="&#x1ec0;" horiz-adv-x="1136" 
d="M1044 2032h362l160 -394h-254zM754 1830h326l224 -396h-292l-116 226l-174 -226h-332zM1296 1332l-56 -322h-624l-32 -176h566l-56 -320h-566l-34 -194h624l-56 -320h-966l234 1332h966z" />
    <glyph glyph-name="uni1EC1" unicode="&#x1ec1;" horiz-adv-x="1208" 
d="M986 1786h362l162 -394h-256zM696 1540h324l224 -396h-290l-116 226l-176 -226h-332zM156 458q0 256 154.5 422t397.5 166q177 0 302.5 -69t179 -193.5t24.5 -283.5l-12 -68h-702q3 -188 172 -188q122 0 164 100h362q-115 -362 -512 -362q-252 0 -391 125t-139 351z
M716 806q-138 0 -190 -160h354q3 72 -41.5 116t-122.5 44z" />
    <glyph glyph-name="uni1EC2" unicode="&#x1ec2;" horiz-adv-x="1136" 
d="M1258 1642q10 51 43 87t89 71q34 22 51 33.5t33.5 29t19.5 33.5q6 30 -9 48t-45 18q-35 0 -59 -19t-33 -55h-236q34 130 123 193t239 63q135 0 204.5 -65t49.5 -173q-11 -57 -46 -94t-92 -68q-7 -4 -25.5 -13.5t-25 -13.5t-20.5 -12.5t-20 -14t-14 -14t-11.5 -16.5
t-5.5 -18h-210zM754 1830h326l224 -396h-292l-116 226l-174 -226h-332zM1296 1332l-56 -322h-624l-32 -176h566l-56 -320h-566l-34 -194h624l-56 -320h-966l234 1332h966z" />
    <glyph glyph-name="uni1EC3" unicode="&#x1ec3;" horiz-adv-x="1208" 
d="M1188 1394q10 51 43 87t89 71q34 22 51 33.5t33.5 29t19.5 33.5q6 30 -9 48t-45 18q-35 0 -59 -19t-33 -55h-236q34 130 123 193t239 63q135 0 204.5 -65t49.5 -173q-11 -57 -46 -94t-92 -68q-7 -4 -25.5 -13.5t-25 -13.5t-20.5 -12.5t-20 -14t-14 -14t-11.5 -16.5
t-5.5 -18h-210zM696 1540h324l224 -396h-290l-116 226l-176 -226h-332zM156 458q0 256 154.5 422t397.5 166q177 0 302.5 -69t179 -193.5t24.5 -283.5l-12 -68h-702q3 -188 172 -188q122 0 164 100h362q-115 -362 -512 -362q-252 0 -391 125t-139 351zM716 806
q-138 0 -190 -160h354q3 72 -41.5 116t-122.5 44z" />
    <glyph glyph-name="uni1EC4" unicode="&#x1ec4;" horiz-adv-x="1136" 
d="M780 2296q38 0 69 -6t60 -21t40 -22t41 -29q3 -2 17 -11.5t18 -12t16 -9t19.5 -8.5t19.5 -4.5t24 -2.5q54 0 89.5 29.5t44.5 82.5h192q-31 -174 -122.5 -270t-225.5 -96q-42 0 -78 11t-54 22.5t-46 32.5q-3 3 -11.5 10t-12 10t-11.5 9t-12.5 8.5t-12 7t-13 6.5t-13.5 4.5
t-16 3.5t-16 1q-45 0 -78 -32t-42 -86h-196q33 182 112.5 277t197.5 95zM754 1830h326l224 -396h-292l-116 226l-174 -226h-332zM1296 1332l-56 -322h-624l-32 -176h566l-56 -320h-566l-34 -194h624l-56 -320h-966l234 1332h966z" />
    <glyph glyph-name="uni1EC5" unicode="&#x1ec5;" horiz-adv-x="1208" 
d="M716 2008q18 0 33.5 -1t30.5 -4.5t26.5 -6t25 -9t20.5 -9.5t20.5 -12t18 -11.5t18.5 -12.5t17 -12q51 -36 77 -43q17 -5 35 -5q54 0 90.5 30t43.5 84h194q-31 -175 -123 -271.5t-227 -96.5q-41 0 -77 11.5t-53.5 22.5t-45.5 32q-3 2 -18 14t-19 15t-17 11.5t-20.5 11
t-19.5 5.5t-24 3q-45 0 -78 -32t-42 -86h-196q33 183 112 277.5t198 94.5zM696 1540h324l224 -396h-290l-116 226l-176 -226h-332zM156 458q0 256 154.5 422t397.5 166q177 0 302.5 -69t179 -193.5t24.5 -283.5l-12 -68h-702q3 -188 172 -188q122 0 164 100h362
q-115 -362 -512 -362q-252 0 -391 125t-139 351zM716 806q-138 0 -190 -160h354q3 72 -41.5 116t-122.5 44z" />
    <glyph glyph-name="uni1EC6" unicode="&#x1ec6;" horiz-adv-x="1136" 
d="M754 1830h326l224 -396h-292l-116 226l-174 -226h-332zM1296 1332l-56 -322h-624l-32 -176h566l-56 -320h-566l-34 -194h624l-56 -320h-966l234 1332h966zM388 -114h370l-46 -276h-370z" />
    <glyph glyph-name="uni1EC7" unicode="&#x1ec7;" horiz-adv-x="1208" 
d="M696 1540h324l224 -396h-290l-116 226l-176 -226h-332zM156 458q0 256 154.5 422t397.5 166q177 0 302.5 -69t179 -193.5t24.5 -283.5l-12 -68h-702q3 -188 172 -188q122 0 164 100h362q-115 -362 -512 -362q-252 0 -391 125t-139 351zM716 806q-138 0 -190 -160h354
q3 72 -41.5 116t-122.5 44zM406 -114h370l-48 -276h-370z" />
    <glyph glyph-name="uni1EC8" unicode="&#x1ec8;" 
d="M410 1434q8 51 41.5 86.5t90.5 71.5q35 23 50.5 34t32 28.5t19.5 33.5q6 30 -8 48t-44 18q-35 0 -60 -19.5t-34 -54.5h-234q33 130 122.5 193t239.5 63q134 0 203.5 -65t48.5 -173q-10 -56 -45 -93t-93 -69q-7 -4 -28.5 -15.5t-28.5 -16t-22 -14.5t-20.5 -17t-12 -17.5
t-8.5 -21.5h-210zM326 1332h342l-234 -1332h-342z" />
    <glyph glyph-name="uni1EC9" unicode="&#x1ec9;" 
d="M360 1146q8 51 41.5 86.5t90.5 71.5q35 23 50.5 34t32 28.5t19.5 33.5q6 30 -8.5 48t-43.5 18q-76 0 -94 -74h-236q35 131 124 193.5t240 62.5q134 0 202.5 -65t49.5 -173q-10 -56 -45 -93t-93 -69q-6 -3 -22 -12t-22 -12t-18.5 -11t-18 -12t-14 -11.5t-12.5 -13.5
t-8 -14t-5 -16h-210zM272 1024h342l-180 -1024h-342z" />
    <glyph glyph-name="uni1ECA" unicode="&#x1eca;" 
d="M326 1332h342l-234 -1332h-342zM54 -114h370l-48 -276h-370z" />
    <glyph glyph-name="uni1ECB" unicode="&#x1ecb;" 
d="M328 1414h368l-48 -274h-370zM272 1024h342l-180 -1024h-344zM60 -114h370l-48 -276h-370z" />
    <glyph glyph-name="uni1ECC" unicode="&#x1ecc;" horiz-adv-x="1428" 
d="M182 550q0 224 89 407t251 289t366 106q266 0 427 -160.5t161 -427.5q0 -168 -50 -312t-139.5 -247.5t-221 -162t-287.5 -58.5q-270 0 -433 155t-163 411zM1132 756q0 138 -68.5 214t-191.5 76q-145 0 -243.5 -139.5t-98.5 -342.5q0 -130 69 -201t197 -71
q149 0 242.5 129.5t93.5 334.5zM484 -114h370l-48 -276h-370z" />
    <glyph glyph-name="uni1ECD" unicode="&#x1ecd;" horiz-adv-x="1212" 
d="M156 442q0 131 44 246t120 196.5t183 128.5t229 47q227 0 363.5 -127t136.5 -343q0 -131 -44 -247t-120 -198t-182.5 -129.5t-227.5 -47.5q-227 0 -364.5 129.5t-137.5 344.5zM886 582q0 90 -43 140t-121 50q-92 0 -156 -92t-64 -230q0 -93 44 -143.5t122 -50.5
q91 0 154.5 94t63.5 232zM394 -114h370l-48 -274h-370z" />
    <glyph glyph-name="uni1ECE" unicode="&#x1ece;" horiz-adv-x="1428" 
d="M840 1434q8 51 41.5 86.5t90.5 71.5q35 23 50.5 34t32 28.5t19.5 33.5q6 30 -8.5 48t-43.5 18q-76 0 -94 -74h-234q33 130 121.5 193t240.5 63q134 0 202.5 -65t49.5 -173q-10 -56 -45 -93t-93 -69q-6 -3 -22 -12t-22 -12t-18.5 -11t-18 -12t-14 -11.5t-12.5 -13.5
t-8 -14t-5 -16h-210zM182 550q0 224 89 407t251 289t366 106q266 0 427 -160.5t161 -427.5q0 -168 -50 -312t-139.5 -247.5t-221 -162t-287.5 -58.5q-270 0 -433 155t-163 411zM1132 756q0 138 -68.5 214t-191.5 76q-145 0 -243.5 -139.5t-98.5 -342.5q0 -130 69 -201
t197 -71q149 0 242.5 129.5t93.5 334.5z" />
    <glyph glyph-name="uni1ECF" unicode="&#x1ecf;" horiz-adv-x="1212" 
d="M690 1144q10 51 42.5 87t89.5 73q49 29 74.5 50t29.5 44q6 30 -9 48t-45 18q-35 0 -59 -19t-33 -55h-236q34 130 123 193t239 63q135 0 204.5 -65t49.5 -173q-11 -56 -45.5 -92t-92.5 -70q-78 -40 -98 -59q-20 -20 -24 -43h-210zM156 442q0 131 44 246t120 196.5
t183 128.5t229 47q227 0 363.5 -127t136.5 -343q0 -131 -44 -247t-120 -198t-182.5 -129.5t-227.5 -47.5q-227 0 -364.5 129.5t-137.5 344.5zM886 582q0 90 -43 140t-121 50q-92 0 -156 -92t-64 -230q0 -93 44 -143.5t122 -50.5q91 0 154.5 94t63.5 232z" />
    <glyph glyph-name="uni1ED0" unicode="&#x1ed0;" horiz-adv-x="1428" 
d="M1986 2032l-364 -394h-290l256 394h398zM864 1830h326l224 -396h-292l-114 226l-176 -226h-332zM182 550q0 224 89 407t251 289t366 106q266 0 427 -160.5t161 -427.5q0 -168 -50 -312t-139.5 -247.5t-221 -162t-287.5 -58.5q-270 0 -433 155t-163 411zM1132 756
q0 138 -68.5 214t-191.5 76q-145 0 -243.5 -139.5t-98.5 -342.5q0 -130 69 -201t197 -71q149 0 242.5 129.5t93.5 334.5z" />
    <glyph glyph-name="uni1ED1" unicode="&#x1ed1;" horiz-adv-x="1212" 
d="M1802 1786l-364 -394h-290l256 394h398zM700 1540h324l224 -396h-292l-114 226l-176 -226h-332zM156 442q0 131 44 246t120 196.5t183 128.5t229 47q227 0 363.5 -127t136.5 -343q0 -131 -44 -247t-120 -198t-182.5 -129.5t-227.5 -47.5q-227 0 -364.5 129.5
t-137.5 344.5zM886 582q0 90 -43 140t-121 50q-92 0 -156 -92t-64 -230q0 -93 44 -143.5t122 -50.5q91 0 154.5 94t63.5 232z" />
    <glyph glyph-name="uni1ED2" unicode="&#x1ed2;" horiz-adv-x="1428" 
d="M1156 2032h362l160 -394h-254zM864 1830h326l224 -396h-292l-114 226l-176 -226h-332zM182 550q0 224 89 407t251 289t366 106q266 0 427 -160.5t161 -427.5q0 -168 -50 -312t-139.5 -247.5t-221 -162t-287.5 -58.5q-270 0 -433 155t-163 411zM1132 756q0 138 -68.5 214
t-191.5 76q-145 0 -243.5 -139.5t-98.5 -342.5q0 -130 69 -201t197 -71q149 0 242.5 129.5t93.5 334.5z" />
    <glyph glyph-name="uni1ED3" unicode="&#x1ed3;" horiz-adv-x="1212" 
d="M970 1786h360l162 -394h-254zM700 1540h324l224 -396h-292l-114 226l-176 -226h-332zM156 442q0 131 44 246t120 196.5t183 128.5t229 47q227 0 363.5 -127t136.5 -343q0 -131 -44 -247t-120 -198t-182.5 -129.5t-227.5 -47.5q-227 0 -364.5 129.5t-137.5 344.5zM886 582
q0 90 -43 140t-121 50q-92 0 -156 -92t-64 -230q0 -93 44 -143.5t122 -50.5q91 0 154.5 94t63.5 232z" />
    <glyph glyph-name="uni1ED4" unicode="&#x1ed4;" horiz-adv-x="1428" 
d="M1354 1638q8 51 41.5 86.5t90.5 71.5q35 23 50.5 34t32 28.5t19.5 33.5q6 30 -8 48t-44 18q-35 0 -60 -19.5t-34 -54.5h-234q33 130 122.5 193t239.5 63q134 0 203.5 -65t48.5 -173q-10 -56 -45 -93t-93 -69q-7 -4 -28.5 -15.5t-28.5 -16t-22 -14.5t-20.5 -17t-12 -17.5
t-8.5 -21.5h-210zM864 1830h326l224 -396h-292l-114 226l-176 -226h-332zM182 550q0 224 89 407t251 289t366 106q266 0 427 -160.5t161 -427.5q0 -168 -50 -312t-139.5 -247.5t-221 -162t-287.5 -58.5q-270 0 -433 155t-163 411zM1132 756q0 138 -68.5 214t-191.5 76
q-145 0 -243.5 -139.5t-98.5 -342.5q0 -130 69 -201t197 -71q149 0 242.5 129.5t93.5 334.5z" />
    <glyph glyph-name="uni1ED5" unicode="&#x1ed5;" horiz-adv-x="1212" 
d="M1192 1394q10 51 43 87t89 71q73 48 90 68q12 14 14 28q6 30 -9 48t-45 18q-35 0 -60 -19.5t-34 -54.5h-234q34 130 123 193t239 63q134 0 203.5 -65t50.5 -173q-11 -57 -46 -94t-92 -68q-7 -4 -25.5 -13.5t-25 -13.5t-20.5 -12.5t-20 -14t-14 -14t-11.5 -16.5t-5.5 -18
h-210zM700 1540h324l224 -396h-292l-114 226l-176 -226h-332zM156 442q0 131 44 246t120 196.5t183 128.5t229 47q227 0 363.5 -127t136.5 -343q0 -131 -44 -247t-120 -198t-182.5 -129.5t-227.5 -47.5q-227 0 -364.5 129.5t-137.5 344.5zM886 582q0 90 -43 140t-121 50
q-92 0 -156 -92t-64 -230q0 -93 44 -143.5t122 -50.5q91 0 154.5 94t63.5 232z" />
    <glyph glyph-name="uni1ED6" unicode="&#x1ed6;" horiz-adv-x="1428" 
d="M876 2296q18 0 33.5 -1t30.5 -4.5t26.5 -6t25 -9t20.5 -9.5t20.5 -12t18 -11.5t18.5 -12.5t17 -12q51 -36 77 -43q17 -5 35 -5q54 0 90.5 30t43.5 82h194q-32 -174 -123.5 -270t-226.5 -96q-41 0 -76.5 11t-55 23t-44.5 32q-3 2 -18 14t-19 15t-17 11.5t-20.5 11
t-19.5 5.5t-24 3q-45 0 -78 -32t-42 -86h-196q33 182 112.5 277t197.5 95zM864 1830h326l224 -396h-292l-114 226l-176 -226h-332zM182 550q0 224 89 407t251 289t366 106q266 0 427 -160.5t161 -427.5q0 -168 -50 -312t-139.5 -247.5t-221 -162t-287.5 -58.5
q-270 0 -433 155t-163 411zM1132 756q0 138 -68.5 214t-191.5 76q-145 0 -243.5 -139.5t-98.5 -342.5q0 -130 69 -201t197 -71q149 0 242.5 129.5t93.5 334.5z" />
    <glyph glyph-name="uni1ED7" unicode="&#x1ed7;" horiz-adv-x="1212" 
d="M738 2008q18 0 33.5 -1t30.5 -4.5t26.5 -6t25 -9t20.5 -9.5t20.5 -12t18 -11.5t18.5 -12.5t17 -12q51 -36 77 -43q17 -5 35 -5q54 0 90.5 30t43.5 84h194q-31 -175 -123 -271.5t-227 -96.5q-41 0 -77 11.5t-53.5 22.5t-45.5 32q-3 2 -18 14t-19 15t-17 11.5t-20.5 11
t-19.5 5.5t-24 3q-45 0 -78 -32t-42 -86h-196q33 183 112 277.5t198 94.5zM700 1540h324l224 -396h-292l-114 226l-176 -226h-332zM156 442q0 131 44 246t120 196.5t183 128.5t229 47q227 0 363.5 -127t136.5 -343q0 -131 -44 -247t-120 -198t-182.5 -129.5t-227.5 -47.5
q-227 0 -364.5 129.5t-137.5 344.5zM886 582q0 90 -43 140t-121 50q-92 0 -156 -92t-64 -230q0 -93 44 -143.5t122 -50.5q91 0 154.5 94t63.5 232z" />
    <glyph glyph-name="uni1ED8" unicode="&#x1ed8;" horiz-adv-x="1428" 
d="M848 1830h324l224 -396h-290l-116 226l-176 -226h-330zM182 550q0 224 89 407t251 289t366 106q266 0 427 -160.5t161 -427.5q0 -168 -50 -312t-139.5 -247.5t-221 -162t-287.5 -58.5q-270 0 -433 155t-163 411zM1132 756q0 138 -68.5 214t-191.5 76
q-145 0 -243.5 -139.5t-98.5 -342.5q0 -130 69 -201t197 -71q149 0 242.5 129.5t93.5 334.5zM484 -114h370l-48 -276h-370z" />
    <glyph glyph-name="uni1ED9" unicode="&#x1ed9;" horiz-adv-x="1212" 
d="M700 1540h324l224 -396h-292l-114 226l-176 -226h-332zM156 442q0 131 44 246t120 196.5t183 128.5t229 47q227 0 363.5 -127t136.5 -343q0 -131 -44 -247t-120 -198t-182.5 -129.5t-227.5 -47.5q-227 0 -364.5 129.5t-137.5 344.5zM886 582q0 90 -43 140t-121 50
q-92 0 -156 -92t-64 -230q0 -93 44 -143.5t122 -50.5q91 0 154.5 94t63.5 232zM394 -114h370l-48 -274h-370z" />
    <glyph glyph-name="uni1EDA" unicode="&#x1eda;" horiz-adv-x="1428" 
d="M1360 1828l-364 -394h-290l256 394h398zM182 550q0 167 52.5 315t144.5 255t224.5 169.5t284.5 62.5q98 0 172 -20h220q53 0 87 26t45 94l22 124h256l-24 -136q-24 -131 -110 -200t-206 -88q126 -154 126 -388q0 -224 -85.5 -401t-245.5 -278t-367 -101q-272 0 -434 154
t-162 412zM1132 756q0 138 -68.5 214t-191.5 76q-145 0 -243.5 -139.5t-98.5 -342.5q0 -130 69 -201t197 -71q149 0 242.5 129.5t93.5 334.5z" />
    <glyph glyph-name="uni1EDB" unicode="&#x1edb;" horiz-adv-x="1212" 
d="M1200 1538l-364 -394h-290l256 394h398zM156 442q0 131 44 246t120 196.5t183 128.5t229 47q133 0 240 -46h94q53 0 86 26t44 96l22 122h256l-24 -134q-21 -122 -97.5 -190.5t-184.5 -91.5q64 -107 64 -252q0 -131 -44 -247t-120 -198t-182.5 -129.5t-227.5 -47.5
q-227 0 -364.5 129.5t-137.5 344.5zM886 582q0 90 -43 140t-121 50q-92 0 -156 -92t-64 -230q0 -93 44 -143.5t122 -50.5q91 0 154.5 94t63.5 232z" />
    <glyph glyph-name="uni1EDC" unicode="&#x1edc;" horiz-adv-x="1428" 
d="M562 1828h360l162 -394h-254zM182 550q0 167 52.5 315t144.5 255t224.5 169.5t284.5 62.5q98 0 172 -20h220q53 0 87 26t45 94l22 124h256l-24 -136q-24 -131 -110 -200t-206 -88q126 -154 126 -388q0 -224 -85.5 -401t-245.5 -278t-367 -101q-272 0 -434 154t-162 412z
M1132 756q0 138 -68.5 214t-191.5 76q-145 0 -243.5 -139.5t-98.5 -342.5q0 -130 69 -201t197 -71q149 0 242.5 129.5t93.5 334.5z" />
    <glyph glyph-name="uni1EDD" unicode="&#x1edd;" horiz-adv-x="1212" 
d="M400 1538h362l162 -394h-254zM156 442q0 131 44 246t120 196.5t183 128.5t229 47q133 0 240 -46h94q53 0 86 26t44 96l22 122h256l-24 -134q-21 -122 -97.5 -190.5t-184.5 -91.5q64 -107 64 -252q0 -131 -44 -247t-120 -198t-182.5 -129.5t-227.5 -47.5
q-227 0 -364.5 129.5t-137.5 344.5zM886 582q0 90 -43 140t-121 50q-92 0 -156 -92t-64 -230q0 -93 44 -143.5t122 -50.5q91 0 154.5 94t63.5 232z" />
    <glyph glyph-name="uni1EDE" unicode="&#x1ede;" horiz-adv-x="1428" 
d="M776 1434q10 51 43 87t89 71q73 48 90 68q12 14 14 28q6 30 -9 48t-45 18q-35 0 -60 -19.5t-34 -54.5h-234q34 130 123 193t239 63q134 0 203.5 -65t50.5 -173q-11 -57 -46 -94t-92 -68q-7 -4 -25.5 -13.5t-25 -13.5t-20.5 -12.5t-20 -14t-14 -14t-11.5 -16.5t-5.5 -18
h-210zM182 550q0 167 52.5 315t144.5 255t224.5 169.5t284.5 62.5q98 0 172 -20h220q53 0 87 26t45 94l22 124h256l-24 -136q-24 -131 -110 -200t-206 -88q126 -154 126 -388q0 -224 -85.5 -401t-245.5 -278t-367 -101q-272 0 -434 154t-162 412zM1132 756q0 138 -68.5 214
t-191.5 76q-145 0 -243.5 -139.5t-98.5 -342.5q0 -130 69 -201t197 -71q149 0 242.5 129.5t93.5 334.5z" />
    <glyph glyph-name="uni1EDF" unicode="&#x1edf;" horiz-adv-x="1212" 
d="M616 1144q8 50 41 86t91 74q33 20 50 32t33 29t19 33q6 30 -8.5 48t-43.5 18q-76 0 -94 -74h-236q35 131 124 193.5t240 62.5q134 0 202.5 -65t49.5 -173q-10 -56 -44.5 -92t-93.5 -70q-43 -22 -60 -31.5t-36.5 -29t-23.5 -41.5h-210zM156 442q0 131 44 246t120 196.5
t183 128.5t229 47q133 0 240 -46h94q53 0 86 26t44 96l22 122h256l-24 -134q-21 -122 -97.5 -190.5t-184.5 -91.5q64 -107 64 -252q0 -131 -44 -247t-120 -198t-182.5 -129.5t-227.5 -47.5q-227 0 -364.5 129.5t-137.5 344.5zM886 582q0 90 -43 140t-121 50q-92 0 -156 -92
t-64 -230q0 -93 44 -143.5t122 -50.5q91 0 154.5 94t63.5 232z" />
    <glyph glyph-name="uni1EE0" unicode="&#x1ee0;" horiz-adv-x="1428" 
d="M736 1806q30 0 58.5 -5.5t45 -10.5t41.5 -20t31 -19t32 -23q3 -2 17 -11.5t18 -12t16 -9t19.5 -8.5t19.5 -4.5t24 -2.5q54 0 89.5 30t44.5 84h192q-32 -176 -122.5 -272t-225.5 -96q-42 0 -78.5 12t-52.5 22.5t-45 31.5q-3 2 -18 14t-19 15t-17 11.5t-20.5 11t-19.5 5.5
t-24 3q-47 0 -80 -32t-40 -86h-198q33 183 112.5 277.5t199.5 94.5zM182 550q0 167 52.5 315t144.5 255t224.5 169.5t284.5 62.5q98 0 172 -20h220q53 0 87 26t45 94l22 124h256l-24 -136q-24 -131 -110 -200t-206 -88q126 -154 126 -388q0 -224 -85.5 -401t-245.5 -278
t-367 -101q-272 0 -434 154t-162 412zM1132 756q0 138 -68.5 214t-191.5 76q-145 0 -243.5 -139.5t-98.5 -342.5q0 -130 69 -201t197 -71q149 0 242.5 129.5t93.5 334.5z" />
    <glyph glyph-name="uni1EE1" unicode="&#x1ee1;" horiz-adv-x="1212" 
d="M574 1518q16 0 31 -1.5t27 -3t26 -6t22 -7t21 -9t18.5 -9.5t18 -11.5t15.5 -10.5t16 -11.5t15 -10.5q51 -36 77 -43q17 -5 35 -5q54 0 90.5 30t45.5 84h192q-31 -175 -122.5 -271.5t-225.5 -96.5q-42 0 -79 12t-52.5 22t-46.5 32q-3 2 -18 14t-19 15t-17 11.5t-20.5 11
t-19.5 5.5t-24 3q-45 0 -78 -32t-42 -86h-196q33 183 112 278.5t198 95.5zM156 442q0 131 44 246t120 196.5t183 128.5t229 47q133 0 240 -46h94q53 0 86 26t44 96l22 122h256l-24 -134q-21 -122 -97.5 -190.5t-184.5 -91.5q64 -107 64 -252q0 -131 -44 -247t-120 -198
t-182.5 -129.5t-227.5 -47.5q-227 0 -364.5 129.5t-137.5 344.5zM886 582q0 90 -43 140t-121 50q-92 0 -156 -92t-64 -230q0 -93 44 -143.5t122 -50.5q91 0 154.5 94t63.5 232z" />
    <glyph glyph-name="uni1EE2" unicode="&#x1ee2;" horiz-adv-x="1428" 
d="M182 550q0 167 52.5 315t144.5 255t224.5 169.5t284.5 62.5q98 0 172 -20h220q53 0 87 26t45 94l22 124h256l-24 -136q-24 -131 -110 -200t-206 -88q126 -154 126 -388q0 -224 -85.5 -401t-245.5 -278t-367 -101q-272 0 -434 154t-162 412zM1132 756q0 138 -68.5 214
t-191.5 76q-145 0 -243.5 -139.5t-98.5 -342.5q0 -130 69 -201t197 -71q149 0 242.5 129.5t93.5 334.5zM482 -114h370l-48 -276h-370z" />
    <glyph glyph-name="uni1EE3" unicode="&#x1ee3;" horiz-adv-x="1212" 
d="M156 442q0 131 44 246t120 196.5t183 128.5t229 47q133 0 240 -46h94q53 0 86 26t44 96l22 122h256l-24 -134q-21 -122 -97.5 -190.5t-184.5 -91.5q64 -107 64 -252q0 -131 -44 -247t-120 -198t-182.5 -129.5t-227.5 -47.5q-227 0 -364.5 129.5t-137.5 344.5zM886 582
q0 90 -43 140t-121 50q-92 0 -156 -92t-64 -230q0 -93 44 -143.5t122 -50.5q91 0 154.5 94t63.5 232zM392 -114h370l-46 -274h-370z" />
    <glyph glyph-name="uni1EE4" unicode="&#x1ee4;" horiz-adv-x="1288" 
d="M320 1332h340l-136 -790q-20 -109 35.5 -174.5t172.5 -65.5q87 0 146 54.5t76 147.5l144 828h342l-150 -856q-41 -225 -195.5 -358.5t-376.5 -133.5q-136 0 -246.5 44t-181 121.5t-99.5 187.5t-7 237zM440 -114h370l-48 -276h-370z" />
    <glyph glyph-name="uni1EE5" unicode="&#x1ee5;" horiz-adv-x="1188" 
d="M516 464q-34 -194 128 -194q68 0 117.5 40t68.5 112l106 602h340l-178 -1024h-342l24 142q-68 -81 -154 -123.5t-174 -42.5q-104 0 -179 65.5t-103 167t-8 213.5l106 602h344zM404 -114h370l-48 -276h-370z" />
    <glyph glyph-name="uni1EE6" unicode="&#x1ee6;" horiz-adv-x="1288" 
d="M774 1434q10 51 43 87t89 71q34 22 51 33.5t33.5 29t19.5 33.5q6 30 -8.5 48t-43.5 18q-76 0 -94 -74h-236q35 131 124 193.5t240 62.5q134 0 202.5 -65t49.5 -173q-10 -56 -45 -93t-93 -69q-7 -4 -25.5 -13.5t-25 -13.5t-20.5 -12.5t-20 -14t-14 -14t-11.5 -16.5
t-5.5 -18h-210zM320 1332h340l-136 -790q-20 -109 35.5 -174.5t172.5 -65.5q87 0 146 54.5t76 147.5l144 828h342l-150 -856q-41 -225 -195.5 -358.5t-376.5 -133.5q-136 0 -246.5 44t-181 121.5t-99.5 187.5t-7 237z" />
    <glyph glyph-name="uni1EE7" unicode="&#x1ee7;" horiz-adv-x="1188" 
d="M668 1146q10 51 43 87t89 71q73 48 90 68q12 14 14 28q6 30 -9 48t-45 18q-72 0 -94 -74h-234q34 130 123 193t239 63q134 0 203.5 -65t50.5 -173q-11 -57 -46 -94t-92 -68q-7 -4 -25.5 -13.5t-25 -13.5t-20.5 -12.5t-20 -14t-14 -14t-11.5 -16.5t-5.5 -18h-210zM516 464
q-34 -194 128 -194q68 0 117.5 40t68.5 112l106 602h340l-178 -1024h-342l24 142q-68 -81 -154 -123.5t-174 -42.5q-104 0 -179 65.5t-103 167t-8 213.5l106 602h344z" />
    <glyph glyph-name="uni1EE8" unicode="&#x1ee8;" horiz-adv-x="1356" 
d="M1358 1828l-366 -394h-290l258 394h398zM320 1332h340l-136 -790q-20 -109 35.5 -174.5t172.5 -65.5q87 0 146 54.5t76 147.5l144 828h222q84 14 102 120l20 122h258l-24 -134q-21 -118 -92.5 -185.5t-173.5 -92.5l-120 -686q-41 -225 -195.5 -358.5t-376.5 -133.5
q-136 0 -246.5 44t-181 121.5t-99.5 187.5t-7 237z" />
    <glyph glyph-name="uni1EE9" unicode="&#x1ee9;" horiz-adv-x="1264" 
d="M1252 1540l-364 -394h-290l256 394h398zM516 464q-34 -194 128 -194q68 0 117.5 40t68.5 112l106 602h194q53 0 87 26.5t45 95.5l20 122h258l-24 -134q-21 -119 -94 -187t-176 -91l-148 -856h-342l24 142q-68 -81 -154 -123.5t-174 -42.5q-104 0 -179 65.5t-103 167
t-8 213.5l106 602h344z" />
    <glyph glyph-name="uni1EEA" unicode="&#x1eea;" horiz-adv-x="1356" 
d="M558 1828h362l162 -394h-256zM320 1332h340l-136 -790q-20 -109 35.5 -174.5t172.5 -65.5q87 0 146 54.5t76 147.5l144 828h222q84 14 102 120l20 122h258l-24 -134q-21 -118 -92.5 -185.5t-173.5 -92.5l-120 -686q-41 -225 -195.5 -358.5t-376.5 -133.5
q-136 0 -246.5 44t-181 121.5t-99.5 187.5t-7 237z" />
    <glyph glyph-name="uni1EEB" unicode="&#x1eeb;" horiz-adv-x="1264" 
d="M454 1540h360l162 -394h-254zM516 464q-34 -194 128 -194q68 0 117.5 40t68.5 112l106 602h194q53 0 87 26.5t45 95.5l20 122h258l-24 -134q-21 -119 -94 -187t-176 -91l-148 -856h-342l24 142q-68 -81 -154 -123.5t-174 -42.5q-104 0 -179 65.5t-103 167t-8 213.5
l106 602h344z" />
    <glyph glyph-name="uni1EEC" unicode="&#x1eec;" horiz-adv-x="1356" 
d="M772 1434q10 51 43 87t89 71q34 22 51 33.5t33.5 29t19.5 33.5q6 30 -8.5 48t-43.5 18q-76 0 -94 -74h-236q35 131 124 193.5t240 62.5q134 0 202.5 -65t49.5 -173q-10 -56 -45 -93t-93 -69q-7 -4 -25.5 -13.5t-25 -13.5t-20.5 -12.5t-20 -14t-14 -14t-11.5 -16.5
t-5.5 -18h-210zM320 1332h340l-136 -790q-20 -109 35.5 -174.5t172.5 -65.5q87 0 146 54.5t76 147.5l144 828h222q84 14 102 120l20 122h258l-24 -134q-21 -118 -92.5 -185.5t-173.5 -92.5l-120 -686q-41 -225 -195.5 -358.5t-376.5 -133.5q-136 0 -246.5 44t-181 121.5
t-99.5 187.5t-7 237z" />
    <glyph glyph-name="uni1EED" unicode="&#x1eed;" horiz-adv-x="1264" 
d="M668 1146q10 51 43 87t89 71q73 48 90 68q12 14 14 28q6 30 -9 48t-45 18q-35 0 -60 -19.5t-34 -54.5h-234q34 130 123 193t239 63q134 0 203.5 -65t50.5 -173q-11 -57 -46 -94t-92 -68q-7 -4 -25.5 -13.5t-25 -13.5t-20.5 -12.5t-20 -14t-14 -14t-11.5 -16.5t-5.5 -18
h-210zM516 464q-34 -194 128 -194q68 0 117.5 40t68.5 112l106 602h194q53 0 87 26.5t45 95.5l20 122h258l-24 -134q-21 -119 -94 -187t-176 -91l-148 -856h-342l24 142q-68 -81 -154 -123.5t-174 -42.5q-104 0 -179 65.5t-103 167t-8 213.5l106 602h344z" />
    <glyph glyph-name="uni1EEE" unicode="&#x1eee;" horiz-adv-x="1356" 
d="M732 1806q18 0 33.5 -1t30.5 -4.5t26.5 -6t25 -9t20.5 -9.5t20.5 -12t18 -11.5t18.5 -12.5t17 -12q51 -36 77 -43q17 -5 35 -5q54 0 90.5 30t43.5 84h194q-31 -175 -123 -271.5t-227 -96.5q-41 0 -77 11.5t-53.5 22.5t-45.5 32q-3 2 -18 14t-19 15t-17 11.5t-20.5 11
t-19.5 5.5t-24 3q-45 0 -78 -32t-42 -86h-196q33 183 112 277.5t198 94.5zM320 1332h340l-136 -790q-20 -109 35.5 -174.5t172.5 -65.5q87 0 146 54.5t76 147.5l144 828h222q84 14 102 120l20 122h258l-24 -134q-21 -118 -92.5 -185.5t-173.5 -92.5l-120 -686
q-41 -225 -195.5 -358.5t-376.5 -133.5q-136 0 -246.5 44t-181 121.5t-99.5 187.5t-7 237z" />
    <glyph glyph-name="uni1EEF" unicode="&#x1eef;" horiz-adv-x="1264" 
d="M628 1518q30 0 58.5 -5.5t45 -10.5t41.5 -20t31 -19t32 -23q3 -2 17 -11.5t18 -12t16 -9t19.5 -8.5t19.5 -4.5t24 -2.5q54 0 89.5 30t44.5 84h192q-32 -176 -122.5 -272t-225.5 -96q-42 0 -78.5 12t-52.5 22.5t-45 31.5q-3 2 -18 14t-19 15t-17 11.5t-20.5 11t-19.5 5.5
t-24 3q-47 0 -80 -32t-40 -86h-198q33 183 112.5 277.5t199.5 94.5zM516 464q-34 -194 128 -194q68 0 117.5 40t68.5 112l106 602h194q53 0 87 26.5t45 95.5l20 122h258l-24 -134q-21 -119 -94 -187t-176 -91l-148 -856h-342l24 142q-68 -81 -154 -123.5t-174 -42.5
q-104 0 -179 65.5t-103 167t-8 213.5l106 602h344z" />
    <glyph glyph-name="uni1EF0" unicode="&#x1ef0;" horiz-adv-x="1356" 
d="M320 1332h340l-136 -790q-20 -109 35.5 -174.5t172.5 -65.5q87 0 146 54.5t76 147.5l144 828h222q84 14 102 120l20 122h258l-24 -134q-21 -118 -92.5 -185.5t-173.5 -92.5l-120 -686q-41 -225 -195.5 -358.5t-376.5 -133.5q-136 0 -246.5 44t-181 121.5t-99.5 187.5
t-7 237zM438 -114h370l-48 -276h-370z" />
    <glyph glyph-name="uni1EF1" unicode="&#x1ef1;" horiz-adv-x="1264" 
d="M516 464q-34 -194 128 -194q68 0 117.5 40t68.5 112l106 602h194q53 0 87 26.5t45 95.5l20 122h258l-24 -134q-21 -119 -94 -187t-176 -91l-148 -856h-342l24 142q-68 -81 -154 -123.5t-174 -42.5q-104 0 -179 65.5t-103 167t-8 213.5l106 602h344zM392 -114h370
l-46 -276h-372z" />
    <glyph glyph-name="Ygrave" unicode="&#x1ef2;" horiz-adv-x="1314" 
d="M584 1828h362l162 -394h-256zM562 446l-288 886h354l154 -532l336 532h394l-608 -886l-80 -446h-340z" />
    <glyph glyph-name="ygrave" unicode="&#x1ef3;" horiz-adv-x="1222" 
d="M498 1540h362l160 -394h-254zM114 -72h128q54 0 85.5 18t56.5 60l26 50l-174 968h348l92 -650l310 650h366l-538 -1046q-50 -98 -96 -159t-110.5 -105t-148 -62t-203.5 -18h-194z" />
    <glyph glyph-name="uni1EF4" unicode="&#x1ef4;" horiz-adv-x="1314" 
d="M562 446l-288 886h354l154 -532l336 532h394l-608 -886l-80 -446h-340zM450 -114h370l-48 -276h-370z" />
    <glyph glyph-name="uni1EF5" unicode="&#x1ef5;" horiz-adv-x="1222" 
d="M114 -72h128q54 0 85.5 18t56.5 60l26 50l-174 968h348l92 -650l310 650h366l-538 -1046q-50 -98 -96 -159t-110.5 -105t-148 -62t-203.5 -18h-194zM830 -114h370l-46 -276h-372z" />
    <glyph glyph-name="uni1EF6" unicode="&#x1ef6;" horiz-adv-x="1314" 
d="M798 1434q10 51 43 87t89 71q34 22 51 33.5t33.5 29t19.5 33.5q6 30 -8.5 48t-43.5 18q-76 0 -94 -74h-236q35 131 124 193.5t240 62.5q134 0 202.5 -65t49.5 -173q-10 -56 -45 -93t-93 -69q-7 -4 -25.5 -13.5t-25 -13.5t-20.5 -12.5t-20 -14t-14 -14t-11.5 -16.5
t-5.5 -18h-210zM562 446l-288 886h354l154 -532l336 532h394l-608 -886l-80 -446h-340z" />
    <glyph glyph-name="uni1EF7" unicode="&#x1ef7;" horiz-adv-x="1222" 
d="M712 1146q10 51 43 87t89 71q73 48 90 68q12 14 14 28q6 30 -9 48t-45 18q-72 0 -94 -74h-234q34 130 123 193t239 63q134 0 203.5 -65t50.5 -173q-11 -57 -46 -94t-92 -68q-7 -4 -25.5 -13.5t-25 -13.5t-20.5 -12.5t-20 -14t-14 -14t-11.5 -16.5t-5.5 -18h-210zM114 -72
h128q54 0 85.5 18t56.5 60l26 50l-174 968h348l92 -650l310 650h366l-538 -1046q-50 -98 -96 -159t-110.5 -105t-148 -62t-203.5 -18h-194z" />
    <glyph glyph-name="uni1EF8" unicode="&#x1ef8;" horiz-adv-x="1314" 
d="M758 1806q18 0 33.5 -1t30.5 -4.5t26.5 -6t25 -9t20.5 -9.5t20.5 -12t18 -11.5t18.5 -12.5t17 -12q51 -36 77 -43q17 -5 35 -5q54 0 90.5 30t43.5 84h194q-31 -175 -123 -271.5t-227 -96.5q-41 0 -77 11.5t-53.5 22.5t-45.5 32q-3 2 -18 14t-19 15t-17 11.5t-20.5 11
t-19.5 5.5t-24 3q-45 0 -78 -32t-42 -86h-196q33 183 112 277.5t198 94.5zM562 446l-288 886h354l154 -532l336 532h394l-608 -886l-80 -446h-340z" />
    <glyph glyph-name="uni1EF9" unicode="&#x1ef9;" horiz-adv-x="1222" 
d="M672 1518q30 0 58.5 -5.5t45 -10.5t41.5 -20t31 -19t32 -23q3 -2 13 -8.5t13.5 -9t12.5 -8t14 -7.5t13.5 -6t15 -5t15 -2.5t17.5 -1.5q54 0 89.5 30t44.5 84h192q-32 -176 -122.5 -272t-225.5 -96q-41 0 -77 11.5t-53.5 22.5t-45.5 32q-3 2 -18 14t-19 15t-17 11.5
t-20.5 11t-19.5 5.5t-24 3q-46 0 -78.5 -32t-41.5 -86h-198q33 183 112.5 277.5t199.5 94.5zM114 -72h128q54 0 85.5 18t56.5 60l26 50l-174 968h348l92 -650l310 650h366l-538 -1046q-50 -98 -96 -159t-110.5 -105t-148 -62t-203.5 -18h-194z" />
    <glyph glyph-name="endash" unicode="&#x2013;" horiz-adv-x="1416" 
d="M182 718h1308l-54 -304h-1310z" />
    <glyph glyph-name="emdash" unicode="&#x2014;" horiz-adv-x="2042" 
d="M182 718h1932l-52 -304h-1936z" />
    <glyph glyph-name="quoteleft" unicode="&#x2018;" 
d="M562 714h-370l64 360l208 360h236l-292 -360h218z" />
    <glyph glyph-name="quoteright" unicode="&#x2019;" 
d="M330 1434h370l-62 -360l-208 -360h-238l294 360h-218z" />
    <glyph glyph-name="quotesinglbase" unicode="&#x201a;" 
d="M140 360h370l-62 -360l-208 -360h-238l294 360h-218z" />
    <glyph glyph-name="quotereversed" unicode="&#x201b;" 
d="M690 1434l-64 -360h-218l166 -360h-238l-78 360l62 360h370z" />
    <glyph glyph-name="quotedblleft" unicode="&#x201c;" horiz-adv-x="1032" 
d="M1072 714h-370l62 360l208 360h238l-294 -360h218zM562 714h-370l64 360l208 360h236l-292 -360h218z" />
    <glyph glyph-name="quotedblright" unicode="&#x201d;" horiz-adv-x="1032" 
d="M330 1434h370l-62 -360l-208 -360h-238l294 360h-218zM840 1434h370l-64 -360l-206 -360h-238l292 360h-218z" />
    <glyph glyph-name="quotedblbase" unicode="&#x201e;" horiz-adv-x="1032" 
d="M140 360h370l-62 -360l-208 -360h-238l294 360h-218zM650 360h370l-64 -360l-206 -360h-238l292 360h-218z" />
    <glyph glyph-name="uni201F" unicode="&#x201f;" horiz-adv-x="1032" 
d="M1200 1434l-66 -360h-218l166 -360h-236l-82 360l64 360h372zM690 1434l-64 -360h-218l166 -360h-238l-78 360l62 360h370z" />
    <glyph glyph-name="dagger" unicode="&#x2020;" horiz-adv-x="820" 
d="M372 754h-188l48 270h188l46 266h342l-46 -266h188l-48 -270h-188l-134 -754h-340z" />
    <glyph glyph-name="daggerdbl" unicode="&#x2021;" horiz-adv-x="820" 
d="M762 1024h188l-48 -270h-188l-40 -218h190l-48 -270h-188l-48 -266h-340l46 266h-188l48 270h188l38 218h-188l48 270h188l46 266h342z" />
    <glyph glyph-name="bullet" unicode="&#x2022;" horiz-adv-x="642" 
d="M184 682q0 107 74 181.5t182 74.5t182 -74.5t74 -181.5q0 -108 -74 -183t-182 -75t-182 75t-74 183z" />
    <glyph glyph-name="uni2023" unicode="&#x2023;" horiz-adv-x="642" 
d="M130 366l110 628l448 -350z" />
    <glyph glyph-name="ellipsis" unicode="&#x2026;" horiz-adv-x="1536" 
d="M1152 360h370l-64 -360h-368zM648 360h370l-64 -360h-372zM140 360h370l-62 -360h-370z" />
    <glyph glyph-name="perthousand" unicode="&#x2030;" horiz-adv-x="2904" 
d="M204 880q0 209 123.5 348.5t306.5 139.5q165 0 263.5 -97.5t98.5 -260.5q0 -209 -122.5 -349.5t-305.5 -140.5q-165 0 -264.5 97.5t-99.5 262.5zM1382 1332h292l-776 -1332h-292zM736 1006q0 67 -29.5 103.5t-82.5 36.5q-67 0 -111.5 -74.5t-44.5 -187.5q0 -68 29 -105
t81 -37q66 0 112 76.5t46 187.5zM2144 326q0 209 122.5 348.5t305.5 139.5q165 0 263.5 -98t98.5 -262q0 -209 -123 -349.5t-307 -140.5q-164 0 -262 98.5t-98 263.5zM1282 326q0 209 123 348.5t307 139.5q164 0 262 -98t98 -262q0 -209 -122.5 -349.5t-305.5 -140.5
q-164 0 -263 98.5t-99 263.5zM2674 450q0 68 -29 105t-81 37q-67 0 -112.5 -75.5t-45.5 -188.5q0 -68 28.5 -106t79.5 -38q68 0 114 77t46 189zM1814 450q0 68 -29 105t-81 37q-69 0 -114.5 -75.5t-45.5 -188.5q0 -68 29 -106t81 -38q68 0 114 77t46 189z" />
    <glyph glyph-name="minute" unicode="&#x2032;" horiz-adv-x="742" 
d="M926 1332l-440 -392h-268l328 392h380z" />
    <glyph glyph-name="second" unicode="&#x2033;" horiz-adv-x="1220" 
d="M1406 1332l-438 -392h-270l328 392h380zM926 1332l-440 -392h-268l328 392h380z" />
    <glyph glyph-name="uni2034" unicode="&#x2034;" horiz-adv-x="1700" 
d="M926 1332l-440 -392h-268l328 392h380zM1886 1332l-436 -392h-272l328 392h380zM1406 1332l-438 -392h-270l328 392h380z" />
    <glyph glyph-name="uni2035" unicode="&#x2035;" horiz-adv-x="742" 
d="M286 1332h380l190 -392h-270z" />
    <glyph glyph-name="uni2036" unicode="&#x2036;" horiz-adv-x="1220" 
d="M286 1332h380l190 -392h-270zM766 1332h380l192 -392h-270z" />
    <glyph glyph-name="uni2037" unicode="&#x2037;" horiz-adv-x="1700" 
d="M1246 1332h380l192 -392h-270zM286 1332h380l190 -392h-270zM766 1332h380l192 -392h-270z" />
    <glyph glyph-name="guilsinglleft" unicode="&#x2039;" horiz-adv-x="636" 
d="M786 1160l-62 -394l-326 -168l262 -192l-64 -324l-464 346l68 388z" />
    <glyph glyph-name="guilsinglright" unicode="&#x203a;" horiz-adv-x="636" 
d="M72 82l62 394l328 168l-264 192l64 324l464 -344l-68 -388z" />
    <glyph glyph-name="uni2070" unicode="&#x2070;" horiz-adv-x="918" 
d="M268 1134q35 191 163 307.5t305 116.5q175 0 261 -116.5t53 -307.5q-35 -192 -162 -309t-302 -117q-177 0 -264 117t-54 309zM788 1134q17 97 -7 149.5t-85 52.5q-62 0 -106 -53t-60 -149q-17 -97 8 -150.5t88 -53.5q60 0 102.5 54t59.5 150z" />
    <glyph glyph-name="uni2074" unicode="&#x2074;" horiz-adv-x="880" 
d="M888 902l-28 -156h-254l26 156h-418l38 218l438 416h310l-76 -436h112l-34 -198h-114zM668 1100l34 200l-192 -200h158z" />
    <glyph glyph-name="uni2075" unicode="&#x2075;" horiz-adv-x="886" 
d="M712 1002q8 44 -13 69t-67 25q-63 0 -104 -54h-270l162 494h620l-38 -210h-390l-40 -128q79 66 206 66q115 0 175.5 -70.5t40.5 -181.5q-24 -137 -136.5 -218.5t-275.5 -81.5q-162 0 -255 75t-81 195h278q-3 -33 18 -52.5t62 -19.5q44 0 72.5 23.5t35.5 68.5z" />
    <glyph glyph-name="uni2076" unicode="&#x2076;" horiz-adv-x="908" 
d="M272 1138q35 197 158 308.5t306 111.5q144 0 228 -65.5t88 -182.5h-280q-6 56 -66 56q-53 0 -92 -50.5t-54 -137.5q-1 -6 -3 -17t-3 -17q39 57 106 89.5t144 32.5q111 0 170.5 -72.5t39.5 -183.5q-21 -124 -130.5 -202t-261.5 -78q-194 0 -288.5 110.5t-61.5 297.5z
M556 1002q-6 -35 17 -58.5t63 -23.5q38 0 64 21.5t34 56.5q6 36 -14 57t-60 21q-41 0 -69.5 -20t-34.5 -54z" />
    <glyph glyph-name="uni2077" unicode="&#x2077;" horiz-adv-x="906" 
d="M684 746h-338q20 100 58 183t92.5 147.5t110 111.5t129.5 96h-438l44 252h764l-48 -272q-163 -91 -251 -215.5t-123 -302.5z" />
    <glyph glyph-name="uni2078" unicode="&#x2078;" horiz-adv-x="890" 
d="M608 926q95 0 108 72q6 35 -14.5 54.5t-63.5 19.5h-6q-44 0 -71 -19t-33 -53q-6 -36 14.5 -55t65.5 -19zM582 1292q-9 -68 76 -68h8q41 0 67.5 17.5t30.5 50.5q6 33 -14.5 51.5t-63.5 18.5q-91 0 -104 -70zM720 1558q159 0 245.5 -65t68.5 -171q-24 -122 -168 -174
q148 -52 124 -182q-18 -106 -133 -171t-283 -65t-259 64t-73 170q24 132 190 184q-127 52 -106 176q18 105 126.5 169.5t267.5 64.5z" />
    <glyph glyph-name="uni2079" unicode="&#x2079;" horiz-adv-x="908" 
d="M1038 1140q-35 -192 -159.5 -301t-310.5 -109q-150 0 -235.5 65t-90.5 181h278q0 -54 72 -54q59 0 102 49.5t58 134.5q1 6 3 17t3 17q-39 -57 -106 -89.5t-144 -32.5q-111 0 -171 73t-41 185q23 125 133 203.5t263 78.5q193 0 286 -113t60 -305zM756 1284q8 36 -15 60
t-65 24q-37 0 -63.5 -22t-32.5 -58q-6 -37 13 -59.5t59 -22.5q42 0 70 21.5t34 56.5z" />
    <glyph glyph-name="uni207A" unicode="&#x207a;" horiz-adv-x="786" 
d="M732 1260h224l-42 -234h-222l-40 -222h-234l38 222h-220l42 234h220l40 222h234z" />
    <glyph glyph-name="uni207B" unicode="&#x207b;" horiz-adv-x="786" 
d="M278 1260h678l-42 -234h-678z" />
    <glyph glyph-name="uni207C" unicode="&#x207c;" horiz-adv-x="786" 
d="M312 1454h678l-42 -234h-678zM244 1074h678l-42 -236h-676z" />
    <glyph glyph-name="uni207D" unicode="&#x207d;" horiz-adv-x="554" 
d="M618 528h-274q-71 88 -96 249.5t8 354.5q32 186 115.5 350.5t184.5 251.5h276q-227 -194 -298 -602q-74 -410 84 -604z" />
    <glyph glyph-name="uni207E" unicode="&#x207e;" horiz-adv-x="554" 
d="M336 1734h276q70 -87 95 -250.5t-7 -355.5q-32 -185 -116.5 -349.5t-185.5 -250.5h-276q226 193 300 600q71 410 -86 606z" />
    <glyph glyph-name="uni207F" unicode="&#x207f;" horiz-adv-x="1006" 
d="M854 1178q28 156 -114 156q-59 0 -104.5 -40.5t-55.5 -103.5l-80 -446h-274l140 792h274l-16 -94q57 62 130 96t142 34q134 0 202 -85t40 -237l-88 -506h-272z" />
    <glyph glyph-name="uni2080" unicode="&#x2080;" horiz-adv-x="918" 
d="M102 184q33 191 161 307.5t305 116.5q175 0 261 -116.5t53 -307.5q-35 -192 -162 -309t-302 -117q-177 0 -264 117t-52 309zM620 184q17 97 -7 149.5t-85 52.5q-62 0 -106 -53t-60 -149q-17 -97 8 -150.5t88 -53.5q60 0 102.5 54t59.5 150z" />
    <glyph glyph-name="uni2081" unicode="&#x2081;" horiz-adv-x="628" 
d="M370 586h274l-138 -790h-274l72 414h-216l40 222h92q64 0 98 23.5t44 84.5z" />
    <glyph glyph-name="uni2082" unicode="&#x2082;" horiz-adv-x="890" 
d="M376 12h438l-38 -216h-740l10 62q14 79 45 141.5t65.5 100.5t83.5 68t87.5 45t90.5 29q11 3 30.5 8t29.5 8t26.5 8t25.5 8.5t21 8.5t18.5 10.5t14 12t11 14t5.5 16.5q6 34 -14 53t-60 19q-46 0 -77.5 -23.5t-40.5 -62.5h-280q35 128 154 207t278 79q166 0 253.5 -74.5
t64.5 -197.5q-9 -51 -36 -90.5t-70.5 -66.5t-83.5 -43.5t-96 -33.5q-9 -3 -30.5 -9t-31 -9t-28 -8.5t-28 -9.5t-24 -9.5t-23.5 -10t-19.5 -10t-18 -11.5t-13.5 -13z" />
    <glyph glyph-name="uni2083" unicode="&#x2083;" horiz-adv-x="908" 
d="M404 116l26 148h98q26 0 44 16t22 44q7 39 -13.5 60.5t-64.5 21.5q-40 0 -68.5 -22t-37.5 -60h-278q33 128 150 206t276 78t250.5 -67.5t73.5 -172.5q-24 -125 -144 -176q121 -54 100 -190q-18 -100 -127.5 -162t-270.5 -62q-169 0 -268 81.5t-88 212.5h280
q-3 -41 23 -63.5t75 -22.5q91 0 104 68q6 30 -11 46t-53 16h-98z" />
    <glyph glyph-name="uni2084" unicode="&#x2084;" horiz-adv-x="880" 
d="M720 -48l-26 -156h-256l28 156h-420l40 218l436 416h310l-76 -436h114l-36 -198h-114zM500 150l36 200l-194 -200h158z" />
    <glyph glyph-name="uni2085" unicode="&#x2085;" horiz-adv-x="886" 
d="M544 52q9 43 -12 67.5t-68 24.5q-65 0 -102 -52h-270l160 494h620l-36 -210h-392l-40 -128q79 66 206 66q116 0 176 -70t40 -182q-24 -136 -136 -218t-274 -82q-163 0 -256.5 74t-81.5 194h278q-3 -33 18.5 -51.5t63.5 -18.5q44 0 71.5 23.5t34.5 68.5z" />
    <glyph glyph-name="uni2086" unicode="&#x2086;" horiz-adv-x="908" 
d="M106 188q35 197 157 308.5t305 111.5q145 0 228 -65.5t88 -182.5h-280q-6 56 -66 56q-53 0 -92 -50.5t-54 -137.5l-6 -36q39 57 107 90.5t143 33.5q111 0 171 -72.5t41 -183.5q-23 -125 -133 -203.5t-261 -78.5q-194 0 -288 111.5t-60 298.5zM388 52q-6 -36 16.5 -59
t63.5 -23q39 0 65.5 21t32.5 57t-14 57t-60 21t-69 -20.5t-35 -53.5z" />
    <glyph glyph-name="uni2087" unicode="&#x2087;" horiz-adv-x="906" 
d="M516 -204h-338q20 100 58 183t92.5 147.5t110 111.5t129.5 96h-436l44 252h762l-48 -274q-163 -90 -251 -214t-123 -302z" />
    <glyph glyph-name="uni2088" unicode="&#x2088;" horiz-adv-x="890" 
d="M440 -24q95 0 108 72q6 34 -14 53t-62 19h-8q-91 0 -104 -72q-6 -35 14.5 -53.5t65.5 -18.5zM416 342q-6 -33 13 -50.5t61 -17.5h8q88 0 100 68q5 34 -15.5 52t-64.5 18t-71 -18.5t-31 -51.5zM552 608q159 0 245.5 -65t68.5 -171q-21 -122 -166 -174q146 -53 122 -182
q-18 -106 -133 -172t-283 -66t-259 64.5t-73 171.5q24 132 190 184q-127 52 -106 176q18 105 126.5 169.5t267.5 64.5z" />
    <glyph glyph-name="uni2089" unicode="&#x2089;" horiz-adv-x="908" 
d="M870 190q-35 -192 -159.5 -302t-310.5 -110q-150 0 -235.5 65t-90.5 181h278q0 -52 72 -52q60 0 103.5 49.5t58.5 134.5q1 6 2 17t2 17q-37 -57 -105 -89.5t-145 -32.5q-111 0 -170 73t-40 185q21 124 131.5 203t262.5 79q193 0 287 -113t59 -305zM590 334q6 36 -17 60
t-63 24q-39 0 -65.5 -22t-32.5 -58t13.5 -59t58.5 -23q41 0 69.5 21.5t36.5 56.5z" />
    <glyph glyph-name="uni208A" unicode="&#x208a;" horiz-adv-x="786" 
d="M566 310h222l-42 -234h-222l-40 -222h-234l40 222h-222l42 234h220l40 222h234z" />
    <glyph glyph-name="uni208B" unicode="&#x208b;" horiz-adv-x="786" 
d="M110 310h678l-42 -234h-678z" />
    <glyph glyph-name="uni208C" unicode="&#x208c;" horiz-adv-x="786" 
d="M144 504h678l-42 -234h-678zM78 124h676l-40 -236h-678z" />
    <glyph glyph-name="uni208D" unicode="&#x208d;" horiz-adv-x="554" 
d="M452 -422h-276q-71 88 -96 249.5t8 354.5q32 186 115.5 350.5t184.5 251.5h276q-227 -194 -298 -602q-74 -411 86 -604z" />
    <glyph glyph-name="uni208E" unicode="&#x208e;" horiz-adv-x="554" 
d="M168 784h276q70 -87 95 -250.5t-7 -355.5q-32 -186 -115.5 -350t-184.5 -250h-276q227 194 298 600q73 407 -86 606z" />
    <glyph glyph-name="uni2099" unicode="&#x2099;" horiz-adv-x="1006" 
d="M198 586h274l-16 -94q57 62 130 96t142 34q134 0 202 -85t40 -237l-88 -506h-272l76 434q14 80 -16 118t-96 38q-59 0 -105.5 -40.5t-56.5 -103.5l-78 -446h-274z" />
    <glyph glyph-name="uni20A0" unicode="&#x20a0;" horiz-adv-x="1518" 
d="M212 784q0 246 161 412t399 166q205 0 332 -97t136 -261h-312q-12 50 -50 77t-98 27q-109 0 -180.5 -92.5t-71.5 -233.5q0 -101 57 -154.5t165 -53.5h44l58 330h752l-44 -236h-436l-18 -108h380l-34 -202h-382l-18 -104h436l-44 -254h-752l58 320h-26
q-237 0 -374.5 124.5t-137.5 339.5z" />
    <glyph glyph-name="colonmonetary" unicode="&#x20a1;" horiz-adv-x="1372" 
d="M182 558q0 222 88.5 403.5t245 285t348.5 103.5h4l80 204h144l-86 -216q53 -9 104 -28l96 244h142l-120 -304q204 -143 204 -442h-308q0 69 -22 122l-262 -666q83 18 142.5 77.5t81.5 148.5h320q-51 -239 -211 -372.5t-419 -133.5h-26l-56 -144h-142l64 162
q-59 13 -102 32l-76 -194h-142l104 262q-196 156 -196 456zM600 308q42 -30 98 -42l306 778q-42 24 -102 30zM494 566q0 -66 16 -124l244 616q-117 -44 -188.5 -177.5t-71.5 -314.5z" />
    <glyph glyph-name="uni20A2" unicode="&#x20a2;" horiz-adv-x="1372" 
d="M180 570q0 221 86.5 398t251 280.5t378.5 103.5q262 0 405 -117t155 -331h-312q0 84 -65 133t-175 49q-177 0 -292.5 -150.5t-115.5 -381.5q0 -198 132 -266l92 520h276l-20 -112q112 124 280 124h96l-50 -280h-90q-123 0 -198 -43t-94 -125l-18 -94q62 20 104.5 60
t55.5 92h314q-42 -207 -204 -326.5t-400 -119.5q-274 0 -433 157t-159 429z" />
    <glyph glyph-name="franc" unicode="&#x20a3;" horiz-adv-x="1238" 
d="M1400 1332l-54 -304h-626l-28 -170h566l-54 -302h-566l-22 -124h286l-44 -248h-286l-32 -184h-342l32 184h-168l44 248h168l158 900h968z" />
    <glyph glyph-name="lira" unicode="&#x20a4;" horiz-adv-x="1260" 
d="M188 614h170l14 78h-170l30 168h166l22 132q25 160 159 258t321 98q210 0 328 -99.5t118 -268.5h-338q0 42 -30 68t-82 26q-54 0 -90 -33t-46 -93l-16 -88h344l-30 -168h-344l-14 -78h344l-28 -168h-350q-38 -101 -134 -142h710l-54 -304h-1116l56 316q138 39 188 130
h-158z" />
    <glyph glyph-name="uni20A5" unicode="&#x20a5;" horiz-adv-x="1808" 
d="M272 1024h344l-24 -136q64 76 146.5 118t171.5 42q85 0 152 -46l172 330h376l-154 -298q56 14 98 14q149 0 232 -128t50 -312l-108 -608h-344l98 566q16 95 -15.5 140.5t-100.5 45.5q-29 0 -62 -10l-140 -270l-84 -472h-160l-132 -254h-376l426 822q16 93 -17 139.5
t-105 46.5q-61 0 -108 -38.5t-66 -109.5l-106 -606h-342z" />
    <glyph glyph-name="uni20A6" unicode="&#x20a6;" horiz-adv-x="1514" 
d="M1604 564l-44 -248h-156l-56 -316h-322l-140 316h-334l-56 -316h-326l56 316h-160l44 248h160l40 228h-160l44 248h160l52 292h384l114 -292h304l50 292h324l-52 -292h158l-44 -248h-156l-40 -228h156zM596 564h180l-100 228h-40zM1090 564h34l40 228h-164z" />
    <glyph glyph-name="peseta" unicode="&#x20a7;" horiz-adv-x="2864" 
d="M822 420h-310l-74 -420h-342l236 1332h562q178 0 293 -82t147 -226h108l48 266h342l-48 -266h156l-48 -270h-154l-52 -288q-15 -92 16 -135t118 -43h566q66 0 95 12t29 38q0 21 -17 31.5t-59 16.5l-200 22q-298 33 -298 286q0 165 133.5 263.5t358.5 98.5
q219 0 342.5 -89t123.5 -245h-332q0 100 -138 100q-63 0 -100.5 -24.5t-37.5 -65.5q0 -43 72 -52l218 -20q144 -13 212 -82t68 -198q0 -178 -114.5 -279t-315.5 -101h-706q-213 0 -316 108.5t-68 309.5l60 336h-80q-52 -144 -180.5 -239t-313.5 -95zM846 1040h-226l-56 -316
h226q56 0 98.5 18t66.5 47.5t35.5 62t11.5 66.5q0 60 -40.5 91t-115.5 31z" />
    <glyph glyph-name="uni20A8" unicode="&#x20a8;" horiz-adv-x="2288" 
d="M724 452h-206l-80 -452h-342l236 1332h598q200 0 316 -104.5t114 -281.5q2 -114 -77.5 -209.5t-220.5 -136.5q86 -31 126 -101t40 -185v-314h-340v282q0 96 -35.5 133t-128.5 37zM1854 370l-198 38q-146 27 -222 102.5t-76 193.5q0 168 123.5 262t346.5 94q232 0 357 -92
t125 -264h-326q0 52 -41.5 81t-116.5 29q-57 0 -88.5 -23t-31.5 -65q0 -53 74 -68l214 -38q140 -25 207 -96.5t67 -191.5q0 -178 -119 -271t-351 -93q-240 0 -378 93.5t-138 258.5h348q0 -54 46 -84t126 -30q62 0 97 23.5t35 64.5q0 58 -80 76zM862 1046h-240l-54 -308h244
q53 0 92.5 18.5t60.5 48.5t31 61t10 62q0 57 -37.5 87.5t-106.5 30.5z" />
    <glyph glyph-name="uni20A9" unicode="&#x20a9;" horiz-adv-x="2110" 
d="M272 1332h338l12 -292h312l124 292h422l22 -292h316l116 292h374l-132 -292h106l-44 -248h-174l-104 -228h238l-44 -248h-304l-142 -316h-426l-22 316h-304l-126 -316h-442l-28 316h-294l44 248h228l-18 228h-170l44 248h104zM642 564h92l96 228h-198zM1056 564h186
l-18 228h-78zM1538 564h92l90 228h-198z" />
    <glyph glyph-name="uni20AA" unicode="&#x20aa;" horiz-adv-x="1672" 
d="M828 264h364q76 0 118 34t54 106l110 620h286l-112 -632q-31 -188 -142.5 -290t-297.5 -102h-714l118 660h286zM516 760l-134 -760h-286l180 1024h640q223 0 317 -102t57 -290l-46 -268h-286l46 256q12 72 -18 106t-106 34h-364z" />
    <glyph glyph-name="dong" unicode="&#x20ab;" horiz-adv-x="1288" 
d="M728 1326h204l20 108h342l-20 -108h160l-38 -214h-160l-168 -956h-342l16 88q-114 -120 -262 -120q-147 0 -232.5 99t-85.5 273q0 145 58 267.5t158.5 193.5t219.5 71q88 0 153 -40t101 -114l42 238h-204zM516 532q0 -57 30.5 -88.5t85.5 -31.5q58 0 102.5 38t61.5 100
l8 46q0 8 2 24q0 57 -31 87.5t-87 30.5q-75 0 -123.5 -58t-48.5 -148zM72 34h1148l-44 -246h-1148z" />
    <glyph glyph-name="Euro" unicode="&#x20ac;" horiz-adv-x="1442" 
d="M984 616l-28 -168h-332q49 -156 230 -156q95 0 164.5 53.5t93.5 144.5h352q-51 -239 -211 -372.5t-419 -133.5q-233 0 -382.5 123.5t-181.5 340.5h-182l30 168h144q3 52 12 96h-138l30 168h150q79 215 247 342.5t383 127.5q260 0 413 -138.5t153 -397.5h-342
q0 111 -60 170.5t-174 59.5q-77 0 -141.5 -43t-110.5 -121h348l-30 -168h-380q-9 -45 -12 -96h374z" />
    <glyph glyph-name="uni20AD" unicode="&#x20ad;" horiz-adv-x="1296" 
d="M140 788h152l94 544h338l-94 -536l416 536h418l-450 -544h250l-44 -248h-268l254 -540h-368l-242 540h-12l-94 -540h-338l96 540h-152z" />
    <glyph glyph-name="uni20AE" unicode="&#x20ae;" horiz-adv-x="1168" 
d="M1098 572l-36 -212l-254 -56l-54 -304h-340l40 226l-240 -54l38 212l238 54l18 100l-238 -54l36 212l240 54l46 260h-358l56 322h1058l-58 -322h-358l-32 -182l254 56l-38 -212l-254 -56l-18 -100z" />
    <glyph glyph-name="uni20AF" unicode="&#x20af;" horiz-adv-x="2480" 
d="M108 298h116l264 670q-86 -23 -170 -54l54 314q94 40 246 74l52 132h338l-42 -104q242 -18 379 -155.5t137 -364.5q0 -163 -66.5 -313t-178.5 -259t-265.5 -173.5t-319.5 -64.5h-596zM2522 652q0 -124 -46.5 -246.5t-121.5 -214.5t-175.5 -149.5t-202.5 -57.5
q-115 0 -188 40.5t-94 115.5l-164 -474h-338l308 904q81 236 233 355t357 119q204 0 318 -103t114 -289zM882 1026h-34l-286 -728h50q221 0 371.5 147.5t150.5 364.5q0 104 -65.5 160t-186.5 56zM1900 270q63 0 128 58.5t106.5 148t41.5 175.5q0 51 -28 78.5t-78 27.5
q-62 0 -126.5 -58t-106 -147.5t-41.5 -176.5q0 -49 28 -77.5t76 -28.5z" />
    <glyph glyph-name="uni20B0" unicode="&#x20b0;" horiz-adv-x="1282" 
d="M1360 1028q0 -160 -122 -308l-130 -176q82 -99 120 -194t38 -202q0 -262 -146.5 -401t-449.5 -139v268q150 0 236 65.5t86 178.5q0 85 -68 176l-256 -346h-176l-96 334l-122 -284h-262l314 574h190l94 -300l152 198q-164 207 -164 448q0 186 120 310t300 124
q161 0 251.5 -86t90.5 -240zM982 760q100 132 100 254q0 42 -21.5 66t-58.5 24q-58 0 -93 -52.5t-35 -139.5q0 -101 74 -196z" />
    <glyph glyph-name="uni20B1" unicode="&#x20b1;" horiz-adv-x="1352" 
d="M150 792h124l12 64h-124l26 158h126l56 318h560q180 0 298.5 -84.5t151.5 -233.5h140l-28 -158h-102q-4 -44 -8 -64h98l-26 -156h-118q-67 -149 -196 -239.5t-284 -90.5h-358l-54 -306h-308l110 636h-124zM892 1074h-258l-12 -60h414q-47 60 -144 60zM584 792h474
q9 30 12 64h-474zM546 576h258q93 0 162 60h-410z" />
    <glyph glyph-name="uni20B2" unicode="&#x20b2;" horiz-adv-x="1392" 
d="M182 542q0 172 52 322.5t142 257t216.5 167.5t271.5 61q81 0 150 -12l90 216h140l-102 -250q146 -54 225 -168.5t79 -277.5h-350q0 100 -78 150l-100 -242h524l-150 -766h-222l12 244q-70 -127 -169.5 -191.5t-244.5 -64.5q-24 0 -72 4l-64 -152h-138l78 188
q-135 59 -212.5 195t-77.5 319zM530 562q0 -143 74 -214l288 696q-4 0 -12 1t-12 1q-147 0 -242.5 -137.5t-95.5 -346.5zM760 292q92 0 173.5 54.5t108.5 149.5h-236l-84 -202q12 -2 38 -2z" />
    <glyph glyph-name="uni20B3" unicode="&#x20b3;" horiz-adv-x="1366" 
d="M124 458h148l56 108h-184l36 202h254l290 564h390l90 -564h252l-36 -202h-182l16 -108h148l-36 -204h-78l40 -254h-338l-28 254h-432l-116 -254h-376l130 254h-80zM876 1008l-110 -240h138zM624 458h314l-12 108h-254z" />
    <glyph glyph-name="uni20B4" unicode="&#x20b4;" horiz-adv-x="1300" 
d="M118 610h164q105 77 318 114h-462l26 148h842q16 35 16 78q0 62 -47 98t-129 36q-167 0 -214 -134h-346q48 186 199 293t365 107q247 0 385.5 -100t138.5 -276q0 -57 -14 -102h84l-26 -148h-168q-116 -85 -318 -114h464l-26 -148h-844q-20 -40 -20 -88q0 -56 46.5 -88
t127.5 -32q202 0 254 140h348q-53 -192 -210.5 -301t-383.5 -109q-246 0 -388 102.5t-142 277.5q0 56 14 98h-80z" />
    <glyph glyph-name="uni20B5" unicode="&#x20b5;" horiz-adv-x="1372" 
d="M182 558q0 222 89 403.5t246 285t349 103.5h8l36 202h120l-38 -212q206 -31 323 -165.5t117 -360.5h-342q0 180 -152 220l-132 -742q83 9 143.5 61.5t82.5 136.5h352q-51 -239 -211 -372.5t-419 -133.5h-2l-42 -246h-120l46 256q-212 33 -333 182.5t-121 381.5zM528 566
q0 -218 162 -264l130 738q-128 -18 -210 -150.5t-82 -323.5z" />
    <glyph glyph-name="uni20B6" unicode="&#x20b6;" horiz-adv-x="1350" 
d="M232 1024h156l48 266h342l-48 -266h254l48 266h342l-48 -266h156l-48 -270h-154l-66 -364q-9 -56 7.5 -80t62.5 -24h68l-52 -286h-84q-195 0 -290 90t-62 254l74 410h-254l-134 -754h-342l132 754h-154z" />
    <glyph glyph-name="uni20B7" unicode="&#x20b7;" horiz-adv-x="1400" 
d="M348 290q15 76 -30 76q-17 0 -28.5 -14t-11.5 -36q0 -57 58 -94zM826 290q12 76 -36 76q-21 0 -37.5 -20t-22.5 -50l-24 -140h32q24 0 64 4zM586 290q15 76 -34 76q-21 0 -37.5 -19t-22.5 -51l-20 -120q42 -9 92 -12zM934 542l-220 22q-167 16 -254.5 101.5t-87.5 228.5
q0 202 155 329t403 127q254 0 394 -110.5t140 -311.5h-348q0 81 -44 118.5t-140 37.5q-90 0 -148 -43t-58 -109q0 -68 104 -80l196 -20q378 -42 378 -386q0 -183 -131 -303.5t-359 -150.5l-28 -158h-140l26 150q-66 0 -98 2l-26 -152h-142l30 166q-58 10 -92 20l-34 -186
h-142l42 232q-176 83 -176 238q0 87 56.5 138.5t137.5 51.5q132 0 164 -86q26 40 60.5 63t69.5 23q43 0 72 -21t40 -59q57 80 126 80q66 0 97 -45.5t17 -122.5l-24 -128q70 32 108 84t38 118q0 124 -162 142z" />
    <glyph glyph-name="uni20B8" unicode="&#x20b8;" horiz-adv-x="1166" 
d="M240 1044l50 288h1058l-52 -288h-1056zM1272 908l-56 -320h-358l-104 -588h-340l104 588h-360l58 320h1056z" />
    <glyph glyph-name="uni20B9" unicode="&#x20b9;" horiz-adv-x="982" 
d="M324 418h-178l46 254h208q61 0 108.5 31t73.5 87h-368l26 152h364q-25 120 -176 120h-166l46 270h834l-46 -270h-228q51 -51 70 -120h136l-26 -152h-120q-27 -78 -94.5 -135.5t-163.5 -86.5q80 -31 116 -99t36 -183v-286h-336v288q0 67 -39 98.5t-123 31.5z" />
    <glyph glyph-name="uni20BA" unicode="&#x20ba;" horiz-adv-x="1334" 
d="M634 302q175 0 291 118.5t167 347.5h342q-179 -768 -796 -768h-398l78 444l-232 -52l38 212l232 52l16 100l-232 -52l38 212l232 52l64 364h322l-52 -290l282 62l-38 -212l-282 -62l-18 -100l282 62l-38 -212l-280 -62l-38 -216h20z" />
    <glyph glyph-name="uni20BB" unicode="&#x20bb;" horiz-adv-x="1520" 
d="M1324 40q-210 -56 -368 -56q-176 0 -289.5 62t-146.5 174q-158 -38 -368 -38l38 226q180 0 332 28l56 322h-24q-160 0 -246 74t-86 210q0 85 40 158t122.5 120.5t191.5 47.5q180 0 271 -90t61 -240l-4 -28h388q150 0 231 -81.5t81 -230.5q0 -127 -69.5 -222.5
t-156.5 -95.5q-128 0 -162 104q-25 -50 -59 -78t-69 -28q-53 0 -87.5 29t-46.5 83q-60 -87 -150 -150q34 -92 212 -92q155 0 320 58zM636 994l8 44q9 50 -9.5 81t-58.5 31q-37 0 -62.5 -26.5t-25.5 -63.5q0 -66 104 -66h44zM1320 586q26 0 43 30t17 62q0 39 -24 59.5
t-68 20.5h-428l-38 -216q72 51 84 116h116q-7 -40 10 -65t52 -25q30 0 54 25.5t32 64.5h116q-13 -72 34 -72z" />
    <glyph glyph-name="uni20BC" unicode="&#x20bc;" horiz-adv-x="1474" 
d="M1390 0h-326l78 440q33 189 -128 254l-124 -694h-308l122 698q-89 -29 -145.5 -95t-72.5 -163l-76 -440h-324l82 468q40 233 201 385.5t395 184.5l52 294h310l-56 -310q222 -54 328.5 -216.5t65.5 -381.5z" />
    <glyph glyph-name="uni20BD" unicode="&#x20bd;" horiz-adv-x="1360" 
d="M106 432h168l18 102h-168l52 286h166l90 512h592q201 0 319.5 -98t118.5 -264q0 -184 -137 -310t-335 -126h-356l-18 -102h286l-44 -248h-286l-32 -184h-342l32 184h-168zM982 1058h-256l-42 -238h256q77 0 122.5 38t45.5 102q0 47 -33 72.5t-93 25.5z" />
    </font>
</defs>
</svg>
