<?xml version="1.0" standalone="no"?>
<!DOCTYPE svg PUBLIC "-//W3C//DTD SVG 1.1//EN" "http://www.w3.org/Graphics/SVG/1.1/DTD/svg11.dtd" >
<svg xmlns="http://www.w3.org/2000/svg" xmlns:xlink="http://www.w3.org/1999/xlink" version="1.1">
<metadata>
Created by FontForge 20201107 at Mon Jul 14 14:24:44 2025
 By 
Copyright (c) 2023, Bao Nguyen (RandomMaerks) (rmforbusiness@gmail.com)
</metadata>
<defs>
<font id="OverusedGrotesk-BookItalic" horiz-adv-x="346" >
  <font-face 
    font-family="Overused Grotesk Book"
    font-weight="350"
    font-style="italic"
    font-stretch="normal"
    units-per-em="2048"
    panose-1="0 0 0 0 0 0 0 0 0 0"
    ascent="1638"
    descent="-410"
    x-height="1024"
    cap-height="1332"
    bbox="-150 -564 2524 2172"
    underline-thickness="102"
    underline-position="-254"
    slope="-10"
    unicode-range="U+0020-277E"
  />
<missing-glyph horiz-adv-x="1024" 
d="M102 -410v2048h820v-2048h-820zM204 -308h616v1844h-616v-1844z" />
    <glyph glyph-name=".notdef" horiz-adv-x="1024" 
d="M102 -410v2048h820v-2048h-820zM204 -308h616v1844h-616v-1844z" />
    <glyph glyph-name=".null" horiz-adv-x="0" 
 />
    <glyph glyph-name="nonmarkingreturn" horiz-adv-x="682" 
 />
    <glyph glyph-name="space" unicode=" " horiz-adv-x="408" 
 />
    <glyph glyph-name="exclam" unicode="!" 
d="M278 302h-104l172 1030h126zM252 0h-156l28 158h154z" />
    <glyph glyph-name="quotedbl" unicode="&#x22;" horiz-adv-x="590" 
d="M610 1434h124l-100 -426h-100zM364 1434h122l-96 -426h-100z" />
    <glyph glyph-name="numbersign" unicode="#" horiz-adv-x="1416" 
d="M1322 460v-112h-296l-138 -348h-136l138 348h-388l-140 -348h-134l138 348h-182v112h226l168 416h-254v114h298l138 342h134l-136 -342h390l136 342h136l-136 -342h178v-114h-224l-166 -416h250zM546 460h390l166 416h-390z" />
    <glyph glyph-name="dollar" unicode="$" horiz-adv-x="1176" 
d="M810 1538h104l-36 -202q164 -32 251 -141.5t87 -284.5h-130q0 257 -228 308l-88 -492l22 -6q354 -77 354 -330q0 -189 -126.5 -298.5t-341.5 -109.5h-38l-40 -230h-104l42 242q-180 32 -279.5 144.5t-98.5 285.5h132q0 -127 68.5 -206.5t199.5 -103.5l88 500l-46 10
q-340 78 -340 318q0 187 128.5 297.5t343.5 110.5h42zM638 754l32 -6l86 482h-30q-147 0 -239.5 -75.5t-92.5 -194.5q0 -153 244 -206zM758 590l-10 2l-88 -490h26q144 0 235 73t91 189q0 164 -254 226z" />
    <glyph glyph-name="percent" unicode="%" horiz-adv-x="1742" 
d="M224 866q0 206 108.5 346t267.5 140q133 0 213.5 -91t80.5 -241q0 -204 -109.5 -346t-266.5 -142q-133 0 -213.5 91t-80.5 243zM1314 1332h134l-784 -1332h-132zM772 1022q0 103 -47.5 159.5t-132.5 56.5q-105 0 -174.5 -106t-69.5 -268q0 -104 47.5 -161t132.5 -57
q105 0 174.5 107.5t69.5 268.5zM1078 316q0 205 109.5 344.5t268.5 139.5q134 0 214 -90t80 -240q0 -204 -109.5 -346t-266.5 -142q-134 0 -215 91.5t-81 242.5zM1628 472q0 102 -47 158t-133 56q-105 0 -174.5 -106t-69.5 -266q0 -104 47.5 -161t132.5 -57q105 0 174.5 107
t69.5 269z" />
    <glyph glyph-name="ampersand" unicode="&#x26;" horiz-adv-x="1260" 
d="M754 1348q132 0 216 -75t84 -191q0 -65 -22 -122t-54.5 -97.5t-83 -77.5t-94 -60.5t-100.5 -48.5l256 -326q91 132 140 308h132q-63 -237 -196 -404l200 -254h-160l-126 160q-192 -176 -424 -176q-170 0 -274 77.5t-104 208.5q0 139 84 240t282 200q-59 74 -91.5 140
t-32.5 136q0 146 102.5 254t265.5 108zM520 994q0 -59 27.5 -110.5t80.5 -117.5q298 134 298 310q0 71 -48.5 113.5t-131.5 42.5q-72 0 -125 -37t-77 -89.5t-24 -111.5zM278 288q0 -88 64 -137t186 -49q195 0 346 148l-296 374q-300 -132 -300 -336z" />
    <glyph glyph-name="quotesingle" unicode="'" horiz-adv-x="344" 
d="M364 1434h122l-96 -426h-100z" />
    <glyph glyph-name="parenleft" unicode="(" horiz-adv-x="494" 
d="M416 -274h-128q-99 125 -132 336t14 506q49 279 160 498t254 344h128q-156 -132 -256.5 -335.5t-153.5 -506.5q-53 -307 -25 -508.5t139 -333.5z" />
    <glyph glyph-name="parenright" unicode=")" horiz-adv-x="494" 
d="M260 1410h130q98 -125 130.5 -336t-14.5 -506q-49 -279 -160 -498t-254 -344h-128q156 132 256.5 335.5t153.5 506.5q52 307 24 509t-138 333z" />
    <glyph glyph-name="asterisk" unicode="*" horiz-adv-x="1086" 
d="M738 1438l114 -22l-84 -440l436 74l16 -114l-436 -62l198 -388l-102 -48l-192 396l-310 -308l-80 82l318 298l-388 204l52 104l386 -218z" />
    <glyph glyph-name="plus" unicode="+" horiz-adv-x="1126" 
d="M732 632h434l-20 -120h-432l-78 -432h-118l74 432h-432l22 120h432l78 432h118z" />
    <glyph glyph-name="comma" unicode="," 
d="M126 166h154l-28 -166l-118 -266h-100l156 266h-94z" />
    <glyph glyph-name="hyphen" unicode="-" horiz-adv-x="954" 
d="M180 624h814l-20 -118h-816z" />
    <glyph glyph-name="period" unicode="." 
d="M126 166h154l-28 -166h-156z" />
    <glyph glyph-name="slash" unicode="/" horiz-adv-x="824" 
d="M838 1332h150l-766 -1332h-150z" />
    <glyph glyph-name="zero" unicode="0" horiz-adv-x="1134" 
d="M186 478q0 242 76 443t207 316t289 115q197 0 305.5 -133.5t108.5 -376.5q0 -246 -72.5 -442t-201.5 -306t-290 -110q-200 0 -311 129.5t-111 364.5zM1040 856q0 374 -292 374q-120 0 -219.5 -100t-156 -275.5t-56.5 -388.5q0 -177 77 -268.5t225 -91.5q122 0 218.5 95.5
t150 266.5t53.5 388z" />
    <glyph glyph-name="one" unicode="1" horiz-adv-x="626" 
d="M624 1332h126l-234 -1332h-126l176 1004h-320l20 108h158q83 0 128 30.5t58 107.5z" />
    <glyph glyph-name="two" unicode="2" horiz-adv-x="1070" 
d="M260 118h738l-22 -118h-886l6 32q28 191 152 311.5t388 232.5q222 97 301 178t79 216q0 118 -82 188t-222 70q-109 0 -201.5 -70.5t-118.5 -189.5h-132q41 173 164 276.5t298 103.5q190 0 308 -103.5t118 -270.5q0 -169 -100.5 -281t-339.5 -217q-232 -102 -330 -180.5
t-118 -177.5z" />
    <glyph glyph-name="three" unicode="3" horiz-adv-x="1072" 
d="M556 610l20 118h140q128 0 208 82t80 212q0 99 -66 153.5t-188 54.5q-129 0 -218.5 -71t-115.5 -191h-134q42 174 171 277t309 103q173 0 273.5 -85.5t100.5 -232.5q0 -122 -66.5 -217.5t-181.5 -142.5q79 -36 121.5 -104t42.5 -162q0 -179 -141.5 -299.5t-352.5 -120.5
q-192 0 -300 97.5t-108 272.5h132q0 -122 72 -186t210 -64q164 0 260 86.5t96 231.5q0 91 -58.5 139.5t-165.5 48.5h-140z" />
    <glyph glyph-name="four" unicode="4" horiz-adv-x="1102" 
d="M908 346l-62 -346h-126l64 346h-654l26 140l770 846h154l-152 -872h208l-22 -114h-206zM802 460l128 720l-644 -720h516z" />
    <glyph glyph-name="five" unicode="5" horiz-adv-x="1072" 
d="M936 524q0 121 -71.5 187.5t-202.5 66.5q-103 0 -190 -39.5t-148 -112.5h-124l188 708h782l-20 -118h-666l-130 -456q149 136 356 136q165 0 262.5 -100.5t97.5 -271.5q0 -152 -67 -275.5t-185.5 -194t-263.5 -70.5q-189 0 -295.5 95.5t-106.5 264.5h132
q0 -117 68.5 -178.5t199.5 -61.5q174 0 279 115.5t105 304.5z" />
    <glyph glyph-name="six" unicode="6" horiz-adv-x="1112" 
d="M188 466q0 262 79 463.5t223 312t330 110.5q171 0 268.5 -94.5t97.5 -259.5h-134q0 113 -62 174.5t-178 61.5q-375 0 -470 -558q-5 -24 -8 -66q64 121 176 191.5t236 70.5q164 0 263 -102.5t99 -271.5q0 -103 -39 -198t-105 -164.5t-157.5 -110.5t-190.5 -41
q-195 0 -311.5 131t-116.5 351zM338 366q0 -117 76 -189.5t198 -72.5q153 0 257.5 116t104.5 284q0 117 -66 182.5t-182 65.5q-162 0 -275 -112t-113 -274z" />
    <glyph glyph-name="seven" unicode="7" horiz-adv-x="1116" 
d="M530 0h-142q30 136 68 255.5t79.5 213.5t91 179t99 152t107.5 132t112.5 119.5t117.5 115.5q30 28 45 43h-804l20 122h936l-24 -142q-81 -77 -139.5 -136t-126.5 -135.5t-117 -145.5t-101.5 -156.5t-90.5 -178.5t-72.5 -202.5t-58.5 -235.5z" />
    <glyph glyph-name="eight" unicode="8" horiz-adv-x="1072" 
d="M860 670q92 -36 141 -107.5t49 -168.5q0 -176 -141.5 -293t-354.5 -117q-189 0 -298.5 87.5t-109.5 236.5q0 126 82 224t222 142q-152 78 -152 262q0 174 131 293t323 119q170 0 270 -86.5t100 -233.5q0 -120 -70.5 -216.5t-191.5 -141.5zM678 728q139 0 224.5 83.5
t85.5 220.5q0 95 -66.5 146.5t-187.5 51.5q-137 0 -220.5 -85.5t-83.5 -224.5q0 -92 57.5 -142t166.5 -50h24zM656 610h-26q-158 0 -253 -84.5t-95 -223.5q0 -97 75 -148.5t215 -51.5q159 0 252.5 83.5t93.5 224.5q0 97 -68 148.5t-194 51.5z" />
    <glyph glyph-name="nine" unicode="9" horiz-adv-x="1112" 
d="M1158 870q0 -262 -78.5 -463.5t-222 -312t-329.5 -110.5q-171 0 -268.5 94.5t-97.5 259.5h132q0 -113 62.5 -174.5t179.5 -61.5q373 0 468 558q8 37 10 66q-64 -121 -176 -192.5t-236 -71.5q-163 0 -262.5 103t-99.5 273q0 103 39 198t104.5 164.5t157 110.5t191.5 41
q195 0 310.5 -130.5t115.5 -351.5zM1010 970q0 117 -76 189.5t-198 72.5q-153 0 -257.5 -116t-104.5 -284q0 -116 66 -182t180 -66q164 0 277 112t113 274z" />
    <glyph glyph-name="colon" unicode=":" 
d="M270 988h154l-28 -166h-156zM126 166h154l-28 -166h-156z" />
    <glyph glyph-name="semicolon" unicode=";" 
d="M270 988h154l-28 -166h-156zM126 166h154l-28 -166l-118 -266h-100l156 266h-94z" />
    <glyph glyph-name="less" unicode="&#x3c;" horiz-adv-x="1170" 
d="M1284 1038l-24 -138l-940 -346l822 -330l-26 -142l-958 408l24 140z" />
    <glyph glyph-name="equal" unicode="=" horiz-adv-x="1126" 
d="M1212 886l-22 -116h-984l20 116h986zM1118 352l-22 -116h-984l20 116h986z" />
    <glyph glyph-name="greater" unicode="&#x3e;" horiz-adv-x="1170" 
d="M84 82l24 138l940 344l-820 332l24 142l960 -408l-24 -140z" />
    <glyph glyph-name="question" unicode="?" horiz-adv-x="1070" 
d="M528 302q11 57 33.5 108t46 86t62 73.5t65 60t69.5 55.5q15 11 22 17q48 38 76 63.5t59.5 64t46 83t14.5 97.5q0 106 -72 163t-204 57q-134 0 -231 -80t-127 -214h-132q44 185 178 298.5t318 113.5q187 0 295.5 -87t108.5 -235q0 -62 -15.5 -116.5t-36 -91.5t-59.5 -77.5
t-66.5 -63t-76.5 -59.5q-107 -85 -143 -123q-83 -88 -103 -193h-128zM614 0h-156l30 158h154z" />
    <glyph glyph-name="at" unicode="@" horiz-adv-x="1822" 
d="M1432 970l-100 -560q-27 -148 120 -148q123 0 196.5 132.5t73.5 353.5q0 258 -153 402t-427 144q-240 0 -432 -114t-300 -316t-108 -454q0 -255 154 -397.5t430 -142.5q164 0 344 56l-16 -120q-165 -54 -338 -54q-323 0 -511.5 180.5t-188.5 481.5q0 211 73.5 397
t201 318t307 208.5t384.5 76.5q208 0 370.5 -81t253 -231t90.5 -344q0 -271 -114 -440.5t-298 -169.5q-99 0 -162.5 41.5t-75.5 116.5q-56 -78 -132.5 -121t-163.5 -43q-131 0 -211.5 90.5t-80.5 237.5q0 221 121 372.5t299 151.5q86 0 150.5 -39.5t97.5 -112.5l24 128h122z
M750 474q0 -105 49.5 -161.5t142.5 -56.5q132 0 218 114t86 288q0 107 -50 162.5t-146 55.5q-131 0 -215.5 -113.5t-84.5 -288.5z" />
    <glyph glyph-name="A" unicode="A" horiz-adv-x="1270" 
d="M1204 0h-132l-70 372h-584l-198 -372h-152l732 1332h144zM850 1174l-370 -688h500z" />
    <glyph glyph-name="B" unicode="B" horiz-adv-x="1198" 
d="M930 1332q146 0 231 -79t85 -213q0 -69 -25 -135.5t-81.5 -126t-135.5 -92.5q91 -35 140.5 -109.5t49.5 -180.5q0 -73 -28.5 -143t-79.5 -127t-131 -91.5t-175 -34.5h-670l236 1332h584zM916 1214h-466l-82 -474h466q61 0 110 21t79 53t50.5 73t28.5 79t8 74
q0 83 -50 128.5t-144 45.5zM816 622h-470l-88 -506h506q64 0 115.5 18.5t85 48t56 69.5t32 80.5t9.5 83.5q0 99 -64 152.5t-182 53.5z" />
    <glyph glyph-name="C" unicode="C" horiz-adv-x="1310" 
d="M196 546q0 224 87.5 408.5t240 290t336.5 105.5q230 0 370 -126t140 -334h-128q0 159 -104.5 249.5t-287.5 90.5q-144 0 -263.5 -91.5t-188 -251t-68.5 -351.5q0 -207 106 -318.5t304 -111.5q153 0 274 91t156 231h136q-54 -204 -211 -324t-371 -120q-246 0 -387 150.5
t-141 411.5z" />
    <glyph glyph-name="D" unicode="D" horiz-adv-x="1258" 
d="M810 1332q228 0 358 -144.5t130 -393.5q0 -150 -44.5 -292t-124.5 -254t-202.5 -180t-266.5 -68h-550l236 1332h464zM450 1212l-192 -1094h378q110 0 201.5 46.5t150.5 119.5t100.5 166.5t59.5 183.5t18 174q0 194 -97.5 299t-278.5 105h-340z" />
    <glyph glyph-name="E" unicode="E" horiz-adv-x="1090" 
d="M1234 1332l-20 -122h-764l-82 -468h704l-22 -122h-704l-88 -500h762l-20 -120h-890l236 1332h888z" />
    <glyph glyph-name="F" unicode="F" horiz-adv-x="1090" 
d="M1234 1332l-20 -122h-764l-90 -512h704l-20 -120h-704l-102 -578h-128l236 1332h888z" />
    <glyph glyph-name="G" unicode="G" horiz-adv-x="1330" 
d="M196 544q0 172 48.5 322t133.5 256t205.5 167t258.5 61q241 0 385.5 -134t144.5 -358h-132q0 176 -107 274t-299 98q-146 0 -261 -89t-179 -247t-64 -358q0 -199 101.5 -314.5t278.5 -115.5q165 0 289 125t173 343h-416l20 114h568l-122 -688h-106l40 264
q-83 -135 -202.5 -207.5t-263.5 -72.5q-219 0 -356.5 155t-137.5 405z" />
    <glyph glyph-name="H" unicode="H" horiz-adv-x="1256" 
d="M346 1332h126l-104 -582h784l104 582h126l-236 -1332h-126l110 628h-782l-110 -628h-128z" />
    <glyph glyph-name="I" unicode="I" 
d="M346 1332h126l-234 -1332h-128z" />
    <glyph glyph-name="J" unicode="J" horiz-adv-x="652" 
d="M72 118h126q113 0 187 67.5t105 238.5l162 908h126l-164 -922q-20 -113 -60.5 -195.5t-94 -128t-110 -66t-119.5 -20.5h-176z" />
    <glyph glyph-name="K" unicode="K" horiz-adv-x="1090" 
d="M346 1332h126l-122 -690l748 690h182l-710 -642l492 -690h-144l-436 604l-162 -142l-82 -462h-128z" />
    <glyph glyph-name="L" unicode="L" horiz-adv-x="968" 
d="M896 0h-786l236 1332h126l-214 -1212h660z" />
    <glyph glyph-name="M" unicode="M" horiz-adv-x="1510" 
d="M816 0h-122l-254 1156l-202 -1156h-128l236 1332h172l260 -1152l658 1152h200l-236 -1332h-126l202 1156z" />
    <glyph glyph-name="N" unicode="N" horiz-adv-x="1260" 
d="M1260 1332h126l-236 -1332h-132l-574 1170l-206 -1170h-128l236 1332h162l552 -1130z" />
    <glyph glyph-name="O" unicode="O" horiz-adv-x="1366" 
d="M196 542q0 229 87 414.5t240 290.5t341 105q237 0 386.5 -161.5t149.5 -416.5q0 -232 -82.5 -411.5t-232 -279t-343.5 -99.5q-242 0 -394 155.5t-152 402.5zM1270 782q0 212 -110 330t-310 118q-149 0 -268.5 -89.5t-186.5 -247.5t-67 -355q0 -205 112.5 -318.5
t315.5 -113.5q229 0 371.5 187t142.5 489z" />
    <glyph glyph-name="P" unicode="P" horiz-adv-x="1146" 
d="M756 502h-430l-88 -502h-128l236 1332h514q174 0 274 -97.5t100 -260.5q0 -92 -32.5 -176t-91.5 -150.5t-151 -106t-203 -39.5zM838 1212h-388l-104 -592h384q79 0 143.5 22.5t106.5 58.5t71 84t41 98t12 101q0 112 -68 170t-198 58z" />
    <glyph glyph-name="Q" unicode="Q" horiz-adv-x="1366" 
d="M196 542q0 222 88.5 408t242 294t337.5 108q244 0 390 -157.5t146 -420.5q0 -180 -55.5 -334t-156.5 -262l152 -120l-76 -92l-168 132q-158 -114 -354 -114q-249 0 -397.5 151.5t-148.5 406.5zM1270 782q0 212 -110.5 330t-309.5 118q-149 0 -268.5 -89.5t-186.5 -247.5
t-67 -355q0 -204 113 -318t315 -114q137 0 244 70l-272 216l74 92l292 -230q85 89 130.5 224.5t45.5 303.5z" />
    <glyph glyph-name="R" unicode="R" horiz-adv-x="1156" 
d="M664 560h-328l-98 -560h-128l236 1332h534q167 0 263.5 -90t96.5 -246q0 -151 -94.5 -259t-249.5 -137q103 -24 147.5 -91.5t44.5 -194.5v-314h-128v298q0 145 -66 203.5t-230 58.5zM856 1214h-406l-92 -538h406q155 0 247.5 90.5t92.5 237.5q0 102 -64 156t-184 54z" />
    <glyph glyph-name="S" unicode="S" horiz-adv-x="1176" 
d="M766 590l-156 34q-340 78 -340 318q0 187 128 297.5t344 110.5q231 0 356.5 -114.5t125.5 -325.5h-130q0 320 -358 320q-147 0 -240.5 -75.5t-93.5 -194.5q0 -153 246 -206l152 -34q178 -39 265 -120.5t87 -209.5q0 -189 -125.5 -298.5t-340.5 -109.5q-242 0 -381 118.5
t-139 323.5h134q0 -156 101 -239t293 -83q144 0 235 73t91 189q0 164 -254 226z" />
    <glyph glyph-name="T" unicode="T" horiz-adv-x="1074" 
d="M1240 1332l-22 -122h-404l-212 -1210h-126l212 1210h-406l24 122h934z" />
    <glyph glyph-name="U" unicode="U" horiz-adv-x="1194" 
d="M332 1332h130l-140 -792q-36 -201 55.5 -316.5t286.5 -115.5q157 0 258.5 97t133.5 273l148 854h128l-152 -868q-39 -218 -182 -349t-342 -131q-161 0 -276 70.5t-164.5 200t-19.5 295.5z" />
    <glyph glyph-name="V" unicode="V" horiz-adv-x="1270" 
d="M304 1332h130l222 -1170l630 1170h154l-732 -1332h-144z" />
    <glyph glyph-name="W" unicode="W" horiz-adv-x="1970" 
d="M304 1332h134l106 -1162l594 1162h148l172 -1162l532 1162h148l-634 -1332h-140l-174 1168l-596 -1168h-142z" />
    <glyph glyph-name="X" unicode="X" horiz-adv-x="1176" 
d="M304 1332h140l264 -602l466 602h170l-534 -670l298 -662h-138l-264 598l-470 -598h-168l532 666z" />
    <glyph glyph-name="Y" unicode="Y" horiz-adv-x="1176" 
d="M604 458l-300 874h140l240 -720l500 720h160l-614 -874l-82 -458h-126z" />
    <glyph glyph-name="Z" unicode="Z" horiz-adv-x="1138" 
d="M328 1332h950l-22 -142l-998 -1074h808l-20 -116h-948l18 140l996 1074h-806z" />
    <glyph glyph-name="bracketleft" unicode="[" horiz-adv-x="492" 
d="M444 1292l-254 -1438h244l-20 -120h-370l296 1680h370l-22 -122h-244z" />
    <glyph glyph-name="backslash" unicode="\" horiz-adv-x="824" 
d="M436 1332l318 -1332h-130l-318 1332h130z" />
    <glyph glyph-name="bracketright" unicode="]" horiz-adv-x="492" 
d="M250 -146l254 1438h-244l22 122h370l-296 -1680h-370l22 120h242z" />
    <glyph glyph-name="asciicircum" unicode="^" horiz-adv-x="768" 
d="M572 1438h130l176 -414h-98l-146 338l-268 -338h-114z" />
    <glyph glyph-name="underscore" unicode="_" horiz-adv-x="1164" 
d="M70 0h1026l-22 -112h-1024z" />
    <glyph glyph-name="grave" unicode="`" horiz-adv-x="532" 
d="M324 1438h144l188 -336h-106z" />
    <glyph glyph-name="a" unicode="a" horiz-adv-x="1038" 
d="M1048 666l-118 -666h-132l28 148q-68 -80 -160.5 -123t-197.5 -43q-146 0 -237 75.5t-91 198.5q0 136 93.5 224t250.5 94l296 10q68 2 98 16.5t40 51.5l4 22q21 113 -57.5 185.5t-214.5 72.5q-228 0 -290 -196h-138q36 144 153.5 227t284.5 83q192 0 303.5 -109
t84.5 -271zM274 270q0 -78 61 -126t163 -48q131 0 233 80t137 208l16 88l-378 -12q-114 -3 -173 -54t-59 -136z" />
    <glyph glyph-name="b" unicode="b" horiz-adv-x="1140" 
d="M364 1434h130l-100 -574q129 184 340 184q191 0 305.5 -120.5t114.5 -321.5q0 -172 -67.5 -314.5t-185.5 -224t-261 -81.5q-291 0 -356 258l-42 -240h-130zM1024 604q0 152 -83 237t-231 85q-158 0 -269 -141.5t-111 -358.5q0 -154 81.5 -238t230.5 -84q156 0 269 142.5
t113 357.5z" />
    <glyph glyph-name="c" unicode="c" horiz-adv-x="1108" 
d="M170 430q0 173 68.5 314.5t188.5 221.5t267 80q188 0 301 -112t113 -294h-132q0 133 -77.5 209.5t-216.5 76.5q-162 0 -271 -143.5t-109 -356.5q0 -156 82.5 -240t235.5 -84q113 0 199 69t113 181h138q-42 -171 -165.5 -270.5t-294.5 -99.5q-201 0 -320.5 122t-119.5 326
z" />
    <glyph glyph-name="d" unicode="d" horiz-adv-x="1140" 
d="M1284 1434l-252 -1434h-128l30 170q-135 -186 -346 -186q-191 0 -304.5 121t-113.5 323q0 172 67.5 314t186 223t262.5 81q139 0 230 -67t128 -187l112 642h128zM302 428q0 -155 82.5 -239.5t231.5 -84.5q156 0 269 141.5t113 356.5q0 153 -83 238.5t-231 85.5
q-158 0 -270 -141t-112 -357z" />
    <glyph glyph-name="e" unicode="e" horiz-adv-x="1122" 
d="M170 428q0 126 37.5 238.5t104 196t164.5 132.5t214 49q150 0 256.5 -70.5t150 -187t19.5 -254.5l-10 -60h-804q-2 -16 -2 -52q0 -157 84.5 -238.5t245.5 -81.5q113 0 193 55.5t123 158.5h144q-61 -163 -179 -247.5t-283 -84.5q-213 0 -335.5 119t-122.5 327zM698 928
q-143 0 -244.5 -92.5t-137.5 -253.5h676q22 153 -61 249.5t-233 96.5z" />
    <glyph glyph-name="f" unicode="f" horiz-adv-x="650" 
d="M230 908l20 116h164l28 158q15 89 64.5 148t109 81.5t128.5 22.5h90l-20 -116h-82q-137 0 -164 -148l-26 -146h220l-20 -116h-220l-160 -908h-128l160 908h-164z" />
    <glyph glyph-name="g" unicode="g" horiz-adv-x="1140" 
d="M1212 1024l-190 -1086q-27 -157 -148 -252.5t-298 -95.5q-214 0 -343 101t-129 267h128q0 -112 97.5 -182t256.5 -70q129 0 210.5 67.5t101.5 184.5l42 240q-67 -87 -157.5 -134.5t-194.5 -47.5q-185 0 -297.5 118.5t-112.5 313.5q0 165 66.5 302t182 215.5t255.5 78.5
q134 0 228 -63.5t136 -180.5l38 224h128zM308 450q0 -150 84 -233t234 -83q128 0 222 80t132 218l20 116q4 36 4 58q0 150 -84.5 234t-235.5 84q-166 0 -271 -132.5t-105 -341.5z" />
    <glyph glyph-name="h" unicode="h" horiz-adv-x="1060" 
d="M936 594q27 150 -38 239t-200 89t-228 -78t-120 -212l-110 -632h-128l248 1434h128l-98 -564q67 82 157 127t191 45q166 0 262.5 -128.5t63.5 -305.5l-110 -608h-126z" />
    <glyph glyph-name="i" unicode="i" 
d="M334 1326h156l-30 -156h-154zM292 1024h130l-180 -1024h-130z" />
    <glyph glyph-name="j" unicode="j" 
d="M332 1326h158l-28 -156h-156zM-106 -206h64q57 0 93.5 33t50.5 117l192 1080h128l-194 -1092q-12 -69 -40.5 -120.5t-68.5 -80t-83.5 -42t-91.5 -13.5h-72z" />
    <glyph glyph-name="k" unicode="k" horiz-adv-x="982" 
d="M894 1024h184l-538 -506l384 -518h-150l-326 432l-162 -142l-50 -290h-126l252 1434h126l-168 -960z" />
    <glyph glyph-name="l" unicode="l" 
d="M364 1434h130l-252 -1434h-130z" />
    <glyph glyph-name="m" unicode="m" horiz-adv-x="1692" 
d="M292 1024h128l-24 -138q66 76 157 118t181 42q113 0 192.5 -60.5t103.5 -167.5q64 104 167.5 164t206.5 60q157 0 245.5 -110.5t56.5 -289.5l-116 -642h-126l114 626q27 150 -31 221t-175 71q-116 0 -214.5 -79t-125.5 -197v-2l-120 -640h-126l116 624q29 151 -30 226.5
t-188 75.5q-111 0 -202.5 -67.5t-121.5 -176.5l-120 -682h-128z" />
    <glyph glyph-name="n" unicode="n" horiz-adv-x="1060" 
d="M290 1024h128l-26 -152q65 80 155 125t191 45q166 0 262.5 -128.5t63.5 -305.5l-110 -608h-126l108 594q27 150 -38 239t-200 89q-132 0 -224 -74.5t-122 -203.5l-112 -644h-128z" />
    <glyph glyph-name="o" unicode="o" horiz-adv-x="1126" 
d="M170 430q0 173 68.5 314t188.5 221.5t267 80.5q197 0 315.5 -121t118.5 -325q0 -172 -69 -314t-189 -223t-266 -81q-197 0 -315.5 122t-118.5 326zM998 604q0 152 -83 237t-231 85q-158 0 -270 -142t-112 -358q0 -154 82.5 -238t231.5 -84q156 0 269 142.5t113 357.5z
" />
    <glyph glyph-name="p" unicode="p" horiz-adv-x="1140" 
d="M292 1024h130l-28 -164q129 184 340 184q191 0 305.5 -120.5t114.5 -321.5q0 -173 -68 -315.5t-186 -223.5t-260 -81q-291 0 -356 260l-102 -576h-128zM1024 604q0 152 -83 237t-231 85q-158 0 -269 -141.5t-111 -358.5q0 -154 81.5 -238t230.5 -84q156 0 269 142.5
t113 357.5z" />
    <glyph glyph-name="q" unicode="q" horiz-adv-x="1140" 
d="M1210 1024l-240 -1358h-128l88 498q-132 -180 -342 -180q-191 0 -304.5 121t-113.5 323q0 172 67.5 314t186 223t262.5 81q138 0 228.5 -66t127.5 -184l40 228h128zM302 428q0 -155 82.5 -239.5t231.5 -84.5q127 0 229.5 98t136.5 258l10 50q6 45 6 92q0 153 -83 238.5
t-231 85.5q-158 0 -270 -141t-112 -357z" />
    <glyph glyph-name="r" unicode="r" horiz-adv-x="644" 
d="M294 1024h130l-26 -142q62 73 147 111.5t169 38.5h46l-24 -132h-42q-113 0 -207.5 -61t-124.5 -165l-118 -674h-128z" />
    <glyph glyph-name="s" unicode="s" horiz-adv-x="1016" 
d="M656 438l-152 36q-141 32 -207.5 95t-66.5 167q0 141 106.5 226.5t289.5 85.5q180 0 286.5 -92.5t109.5 -261.5h-126q0 118 -72.5 178t-211.5 60q-119 0 -186.5 -50t-67.5 -134q0 -61 42.5 -96t139.5 -56l156 -32q141 -30 209.5 -97.5t68.5 -178.5q0 -143 -103.5 -226.5
t-290.5 -83.5q-201 0 -315.5 94.5t-114.5 259.5h132q0 -116 78.5 -178t221.5 -62q126 0 195 48t69 130q0 65 -45 104.5t-145 63.5z" />
    <glyph glyph-name="t" unicode="t" horiz-adv-x="650" 
d="M602 116l-20 -116h-90q-46 0 -82.5 13t-65.5 42.5t-37.5 78t1.5 118.5l114 656h-192l22 116h190l48 266h130l-48 -266h190l-20 -116h-190l-114 -640q-15 -86 7 -119t75 -33h82z" />
    <glyph glyph-name="u" unicode="u" horiz-adv-x="1044" 
d="M304 430q-26 -152 33 -240t193 -88q140 0 232.5 83.5t115.5 228.5l106 610h126l-178 -1024h-126l26 150q-63 -80 -151.5 -124t-188.5 -44q-111 0 -191.5 58.5t-114 158t-12.5 217.5l110 608h128z" />
    <glyph glyph-name="v" unicode="v" horiz-adv-x="1096" 
d="M252 1024h130l188 -870l488 870h152l-588 -1024h-142z" />
    <glyph glyph-name="w" unicode="w" horiz-adv-x="1560" 
d="M248 1024h130l84 -850l412 850h144l114 -850l386 850h152l-496 -1024h-136l-118 850l-412 -850h-140z" />
    <glyph glyph-name="x" unicode="x" horiz-adv-x="1030" 
d="M250 1024h138l222 -438l372 438h160l-430 -506l250 -518h-136l-214 450l-380 -450h-162l434 522z" />
    <glyph glyph-name="y" unicode="y" horiz-adv-x="1100" 
d="M82 -194h150q73 0 116 30.5t84 107.5l42 80l-226 1000h132l192 -864l486 864h152l-622 -1092q-79 -136 -153.5 -194t-174.5 -58h-194z" />
    <glyph glyph-name="z" unicode="z" horiz-adv-x="956" 
d="M268 1024h770l-20 -136l-766 -774h630l-22 -114h-768l20 136l762 774h-626z" />
    <glyph glyph-name="braceleft" unicode="{" horiz-adv-x="492" 
d="M688 1294h-42q-63 0 -98 -35t-50 -113l-72 -418q-22 -117 -126 -154q89 -36 70 -156l-74 -416q-14 -78 8.5 -114t85.5 -36h44l-20 -118h-60q-108 0 -156 67t-28 187l74 416q9 58 -8 84t-64 26h-52l20 118h52q48 0 75 27t37 85l72 416q21 120 93.5 187t180.5 67h60z" />
    <glyph glyph-name="bar" unicode="|" 
d="M400 1640h126l-362 -2050h-126z" />
    <glyph glyph-name="braceright" unicode="}" horiz-adv-x="492" 
d="M4 -148h44q61 0 95.5 36t48.5 114l74 416q9 57 42 97.5t86 58.5q-93 36 -74 154l74 418q14 78 -7.5 113t-84.5 35h-46l22 120h60q109 0 157 -67t27 -187l-74 -416q-10 -58 7 -85t65 -27h52l-22 -118h-50q-48 0 -74.5 -26t-35.5 -84l-76 -416q-19 -120 -91.5 -187
t-182.5 -67h-58z" />
    <glyph glyph-name="asciitilde" unicode="~" horiz-adv-x="888" 
d="M456 1024q43 0 79.5 -18t54 -36.5t44.5 -51.5q2 -3 7 -9q21 -28 33.5 -41.5t36.5 -26.5t51 -13q47 0 85 51t53 133h98q-24 -134 -92.5 -212t-161.5 -78q-62 0 -101 25t-77 71q-6 7 -28 34t-31.5 36t-28.5 19.5t-40 10.5q-48 0 -85.5 -51.5t-50.5 -136.5h-104
q26 138 94 216t164 78z" />
    <glyph glyph-name="uni00A0" unicode="&#xa0;" horiz-adv-x="408" 
 />
    <glyph glyph-name="exclamdown" unicode="&#xa1;" 
d="M276 1024h156l-28 -158h-154zM248 722h106l-172 -1030h-126z" />
    <glyph glyph-name="cent" unicode="&#xa2;" horiz-adv-x="1108" 
d="M208 584q0 173 68 314.5t186 221.5t260 80l24 132h106l-26 -142q146 -28 232 -137t86 -261h-128q0 111 -55 184.5t-155 95.5l-146 -818q113 1 198 70.5t112 181.5h138q-40 -171 -164.5 -270.5t-297.5 -99.5h-6l-24 -136h-104l26 146q-155 32 -242.5 147.5t-87.5 290.5z
M340 580q0 -129 55.5 -209.5t162.5 -106.5l144 816q-103 -5 -185.5 -71.5t-129.5 -179.5t-47 -249z" />
    <glyph glyph-name="sterling" unicode="&#xa3;" horiz-adv-x="1090" 
d="M196 700h188l44 250q30 179 144 288.5t270 109.5q164 0 255 -89t91 -237h-126q0 100 -54.5 153t-161.5 53q-116 0 -193 -74.5t-99 -207.5l-44 -246h464l-20 -112h-464l-24 -142q-12 -67 -38 -125.5t-78.5 -114.5t-123.5 -88h814l-20 -118h-948l24 130q107 47 167 137
t79 195l22 126h-188z" />
    <glyph glyph-name="currency" unicode="&#xa4;" horiz-adv-x="1000" 
d="M826 830l194 164l68 -84l-194 -166q22 -44 22 -112q0 -132 -88 -240l140 -168l-98 -86l-142 172q-84 -50 -182 -50q-95 0 -164 50l-202 -172l-68 86l200 168q-26 58 -26 122q3 133 84 232l-136 164l100 84l132 -164q84 54 188 54q106 0 172 -54zM396 522q0 -76 44 -118
t124 -42q104 0 172 72.5t68 183.5q1 76 -43.5 120t-124.5 44q-102 0 -170.5 -74t-69.5 -186z" />
    <glyph glyph-name="yen" unicode="&#xa5;" horiz-adv-x="1176" 
d="M224 284h348l22 132h-350l22 110h334l-298 806h142l244 -684l496 684h158l-586 -806h324l-20 -110h-338l-24 -132h340l-20 -110h-340l-30 -174h-126l30 174h-348z" />
    <glyph glyph-name="brokenbar" unicode="&#xa6;" 
d="M400 1640h126l-162 -918h-126zM326 508l-162 -918h-126l162 918h126z" />
    <glyph glyph-name="section" unicode="&#xa7;" horiz-adv-x="1016" 
d="M650 386l-158 20q-144 21 -213 73.5t-69 142.5q0 87 61.5 150t168.5 90q-146 57 -146 194q0 131 113.5 214.5t290.5 83.5q196 0 304 -81t108 -227h-134q0 194 -266 194q-128 0 -207 -49t-79 -127q0 -90 180 -114l156 -20q144 -21 213 -74t69 -144q0 -86 -56.5 -151
t-155.5 -95q128 -60 128 -188q0 -130 -113.5 -213t-292.5 -83q-196 0 -303 79t-107 225h134q0 -190 266 -190q128 0 207 48t79 126q0 93 -178 116zM530 526l148 -20q100 1 165 54.5t65 131.5q0 49 -43.5 76.5t-142.5 41.5l-146 20q-102 -1 -168 -54.5t-66 -131.5
q0 -50 44 -77.5t144 -40.5z" />
    <glyph glyph-name="dieresis" unicode="&#xa8;" horiz-adv-x="708" 
d="M488 1186h150v-162h-150v162zM70 1186h150v-162h-150v162z" />
    <glyph glyph-name="copyright" unicode="&#xa9;" horiz-adv-x="1698" 
d="M1734 666q0 -226 -96.5 -401t-271.5 -272t-400 -97q-166 0 -305 54t-236 151.5t-151 237t-54 305.5q0 172 56 318.5t155.5 250t241 161.5t307.5 58q165 0 305.5 -56.5t239 -156.5t154 -243t55.5 -310zM964 16q289 0 468.5 180.5t179.5 471.5q0 288 -175 465t-461 177
q-285 0 -459.5 -179t-174.5 -473q0 -291 170 -466.5t452 -175.5zM586 664q0 192 105.5 309t280.5 117q154 0 257 -91.5t115 -240.5h-126q-4 100 -71 159t-175 59q-126 0 -194 -81.5t-68 -230.5q0 -150 69 -233t193 -83q108 0 174 53t72 145h126q-13 -142 -115 -227t-257 -85
q-175 0 -280.5 118t-105.5 312z" />
    <glyph glyph-name="ordfeminine" unicode="&#xaa;" horiz-adv-x="884" 
d="M910 764q-24 -136 -14 -224h-122q-3 57 2 114q-55 -63 -130 -98.5t-156 -35.5q-123 0 -196.5 58.5t-73.5 151.5q0 104 72.5 171t187.5 75l248 18q52 5 78.5 17.5t35.5 38.5l4 20q10 69 -40 115.5t-134 46.5q-207 0 -254 -154h-130q30 123 133 194.5t253 71.5
q143 0 227 -80.5t63 -197.5zM346 742q0 -51 44.5 -80.5t119.5 -29.5q112 0 196 66.5t104 169.5l6 28l-318 -24q-74 -5 -113 -38.5t-39 -91.5z" />
    <glyph glyph-name="guillemotleft" unicode="&#xab;" horiz-adv-x="1174" 
d="M1288 1038l-30 -168l-438 -316l324 -320l-26 -152l-422 408l24 140zM748 1038l-30 -168l-438 -316l326 -320l-26 -152l-422 408l24 140z" />
    <glyph glyph-name="logicalnot" unicode="&#xac;" horiz-adv-x="1070" 
d="M964 506h-806l22 118h932l-64 -362h-128z" />
    <glyph glyph-name="uni00AD" unicode="&#xad;" horiz-adv-x="782" 
d="M180 624h642l-20 -118h-644z" />
    <glyph glyph-name="registered" unicode="&#xae;" horiz-adv-x="1698" 
d="M1734 666q0 -226 -96.5 -401t-271.5 -272t-400 -97q-166 0 -305 54t-236 151.5t-151 237t-54 305.5q0 172 56 318.5t155.5 250t241 161.5t307.5 58q165 0 305.5 -56.5t239 -156.5t154 -243t55.5 -310zM964 16q289 0 468.5 180.5t179.5 471.5q0 288 -175 465t-461 177
q-285 0 -459.5 -179t-174.5 -473q0 -291 170 -466.5t452 -175.5zM1024 572h-240v-300h-116v796h416q115 0 185.5 -64t70.5 -168q0 -81 -41 -139.5t-113 -82.5q64 -13 94.5 -54t39.5 -122l22 -166h-118l-18 150q-9 79 -52 114.5t-130 35.5zM1070 958h-286v-278h286
q69 0 107.5 39.5t38.5 110.5q0 61 -38.5 94.5t-107.5 33.5z" />
    <glyph glyph-name="macron" unicode="&#xaf;" horiz-adv-x="762" 
d="M276 1174h626l-20 -112h-624z" />
    <glyph glyph-name="degree" unicode="&#xb0;" horiz-adv-x="682" 
d="M802 1114q0 -131 -84.5 -220.5t-207.5 -89.5q-113 0 -183.5 67.5t-70.5 174.5q0 131 84.5 220.5t207.5 89.5q112 0 183 -67.5t71 -174.5zM366 1052q0 -67 40.5 -104.5t111.5 -37.5q75 0 123.5 56t48.5 142q0 67 -40.5 105.5t-109.5 38.5q-76 0 -125 -56.5t-49 -143.5z
" />
    <glyph glyph-name="plusminus" unicode="&#xb1;" horiz-adv-x="1126" 
d="M734 640h434l-20 -118h-434l-74 -426h-120l74 426h-432l20 118h434l76 424h118zM1058 18l-20 -120h-986l22 120h984z" />
    <glyph glyph-name="uni00B2" unicode="&#xb2;" horiz-adv-x="782" 
d="M348 856h506l-20 -110h-630l6 32q7 44 24.5 81.5t36 65t51.5 53.5t56 41.5t66.5 34.5t65 27t67.5 25q7 3 11 4q101 35 156 71.5t66 98.5q13 73 -26.5 113.5t-125.5 40.5q-93 0 -156.5 -46t-81.5 -124h-126q31 126 138.5 204t245.5 78q137 0 207.5 -74.5t48.5 -197.5
q-9 -49 -36.5 -89.5t-74.5 -72t-90 -52t-105 -44.5q-156 -60 -199 -84q-62 -35 -81 -76z" />
    <glyph glyph-name="uni00B3" unicode="&#xb3;" horiz-adv-x="786" 
d="M528 1082l18 106h120q52 0 86.5 28.5t43.5 79.5q12 66 -28.5 103t-125.5 37q-79 0 -134.5 -37t-69.5 -99h-126q29 110 126 179t224 69q137 0 209 -68t51 -180q-18 -108 -122 -162q105 -54 84 -176q-19 -105 -117 -168.5t-239 -63.5q-137 0 -216 64.5t-70 169.5h126
q-6 -57 42 -89.5t136 -32.5q92 0 147 32t65 92q10 55 -18.5 85.5t-91.5 30.5h-120z" />
    <glyph glyph-name="acute" unicode="&#xb4;" horiz-adv-x="520" 
d="M472 1340l-280 -316h-106l234 316h152z" />
    <glyph glyph-name="mu" unicode="&#xb5;" horiz-adv-x="1044" 
d="M932 0h-126l24 142q-61 -76 -143.5 -119t-174.5 -43q-163 0 -254 120l-76 -434h-128l238 1358h130l-114 -642q-11 -131 50 -205.5t184 -74.5q134 0 223.5 83.5t110.5 226.5h2l106 612h126z" />
    <glyph glyph-name="paragraph" unicode="&#xb6;" horiz-adv-x="1002" 
d="M598 666q-163 0 -259.5 80.5t-96.5 217.5q0 151 118.5 259.5t313.5 108.5h450l-234 -1332h-122l212 1212h-162l-214 -1212h-122z" />
    <glyph glyph-name="periodcentered" unicode="&#xb7;" 
d="M226 738h156l-30 -164h-156z" />
    <glyph glyph-name="cedilla" unicode="&#xb8;" horiz-adv-x="588" 
d="M200 20h100l-22 -132h32q93 0 151.5 -59t58.5 -153q0 -103 -73 -163.5t-195 -60.5h-182v116h166q78 0 119 31t41 89q0 45 -29.5 69.5t-80.5 24.5h-70l-50 64z" />
    <glyph glyph-name="uni00B9" unicode="&#xb9;" horiz-adv-x="468" 
d="M546 1536h120l-140 -790h-120l92 520h-222l18 102h88q69 0 105.5 23.5t48.5 82.5z" />
    <glyph glyph-name="ordmasculine" unicode="&#xba;" horiz-adv-x="884" 
d="M234 868q0 204 117 339t291 135q156 0 249 -94t93 -252q0 -201 -117 -337.5t-291 -136.5q-154 0 -248 95t-94 251zM860 996q0 110 -60 171t-168 61q-121 0 -197.5 -100t-76.5 -256q0 -112 60.5 -174t167.5 -62q120 0 197 100.5t77 259.5z" />
    <glyph glyph-name="guillemotright" unicode="&#xbb;" horiz-adv-x="1174" 
d="M84 82l30 168l440 314l-328 320l26 154l424 -408l-26 -140zM624 82l30 168l438 314l-326 320l26 154l424 -408l-24 -140z" />
    <glyph glyph-name="onequarter" unicode="&#xbc;" horiz-adv-x="1742" 
d="M632 1332h120l-140 -792h-118l92 522h-226l18 102h88q71 0 108.5 23.5t47.5 82.5zM1314 1332h132l-784 -1332h-132zM1554 196l-34 -196h-118l36 196h-412l24 128l468 466h142l-86 -488h148l-18 -106h-150zM1456 302l62 352l-348 -352h286z" />
    <glyph glyph-name="onehalf" unicode="&#xbd;" horiz-adv-x="1742" 
d="M632 1332h120l-140 -792h-118l92 522h-226l18 102h88q71 0 108.5 23.5t47.5 82.5zM1314 1332h132l-784 -1332h-132zM1170 110h506l-20 -110h-630l6 32q9 51 29 93t50 73.5t61 55.5t73.5 44t76 33.5t79.5 29.5l9 3q49 17 81 30.5t65 33.5t52.5 46.5t25.5 59.5
q12 74 -28 114t-126 40q-91 0 -155.5 -46t-82.5 -124h-126q31 126 138.5 204t245.5 78q137 0 207.5 -74.5t48.5 -197.5q-9 -49 -36.5 -89.5t-74.5 -72t-90 -52t-105 -44.5q-156 -60 -199 -84q-62 -35 -81 -76z" />
    <glyph glyph-name="threequarters" unicode="&#xbe;" horiz-adv-x="1742" 
d="M492 876l18 108h120q53 0 87 28t43 80q12 66 -28.5 103t-125.5 37q-79 0 -134.5 -37t-69.5 -99h-126q29 110 126 179t224 69q137 0 209 -68t51 -180q-19 -112 -122 -162q105 -54 84 -176q-20 -105 -117.5 -169.5t-238.5 -64.5q-136 0 -215.5 65.5t-70.5 170.5h126
q-6 -57 42.5 -90.5t135.5 -33.5q90 0 146 33t66 93q10 55 -18.5 84.5t-91.5 29.5h-120zM1314 1332h132l-784 -1332h-132zM1554 196l-34 -196h-118l36 196h-412l24 128l468 466h142l-86 -488h148l-18 -106h-150zM1456 302l62 352l-348 -352h286z" />
    <glyph glyph-name="questiondown" unicode="&#xbf;" horiz-adv-x="1070" 
d="M638 1024h154l-28 -158h-154zM722 722q-11 -57 -34 -109t-45 -85.5t-63.5 -75t-63.5 -59.5t-71 -56q-13 -10 -19 -15q-38 -30 -61 -50t-51.5 -51t-44 -59t-26.5 -66.5t-11 -81.5q0 -106 71 -163t203 -57q134 0 230 80t128 214h132q-44 -186 -177.5 -299t-318.5 -113
q-187 0 -294.5 87t-107.5 235q0 52 9 97t29 83.5t39 67t53 60.5t57 50.5t63 49.5q108 85 145 123q85 88 103 193h126z" />
    <glyph glyph-name="Agrave" unicode="&#xc0;" horiz-adv-x="1270" 
d="M658 1750h144l194 -316h-104zM1204 0h-132l-70 372h-584l-198 -372h-152l732 1332h144zM850 1174l-370 -688h500z" />
    <glyph glyph-name="Aacute" unicode="&#xc1;" horiz-adv-x="1270" 
d="M1202 1750l-306 -316h-118l260 316h164zM1204 0h-132l-70 372h-584l-198 -372h-152l732 1332h144zM850 1174l-370 -688h500z" />
    <glyph glyph-name="Acircumflex" unicode="&#xc2;" horiz-adv-x="1270" 
d="M870 1768h130l268 -334h-136l-200 258l-290 -258h-160zM1204 0h-132l-70 372h-584l-198 -372h-152l732 1332h144zM850 1174l-370 -688h500z" />
    <glyph glyph-name="Atilde" unicode="&#xc3;" horiz-adv-x="1270" 
d="M768 1728q30 0 54.5 -8.5t44.5 -27t31.5 -31.5t29.5 -39q2 -2 9.5 -13t9.5 -14t9 -12.5t10 -12.5t9.5 -10t10.5 -9.5t11 -7.5t13 -6.5t13 -3t15 -1.5q47 0 84 51t50 133h104q-22 -133 -90 -211.5t-160 -78.5q-30 0 -53.5 7t-42.5 24t-28.5 28t-27.5 35q-7 10 -24 35
t-26 35.5t-25.5 21t-34.5 10.5q-48 0 -85.5 -51t-52.5 -137h-110q26 139 91.5 216.5t160.5 77.5zM1204 0h-132l-70 372h-584l-198 -372h-152l732 1332h144zM850 1174l-370 -688h500z" />
    <glyph glyph-name="Adieresis" unicode="&#xc4;" horiz-adv-x="1270" 
d="M1036 1596h152l-28 -162h-154zM618 1596h152l-28 -162h-152zM1204 0h-132l-70 372h-584l-198 -372h-152l732 1332h144zM850 1174l-370 -688h500z" />
    <glyph glyph-name="Aring" unicode="&#xc5;" horiz-adv-x="1270" 
d="M1204 0h-132l-70 372h-584l-198 -372h-152l692 1262q-64 26 -100 82t-36 132q0 133 82 219.5t208 86.5q113 0 181.5 -64t68.5 -172q0 -107 -56 -187t-148 -107zM734 1478q0 -66 39 -103t111 -37q75 0 122.5 57.5t47.5 148.5q0 66 -39 103t-109 37q-77 0 -124.5 -56.5
t-47.5 -149.5zM850 1174l-370 -688h500z" />
    <glyph glyph-name="AE" unicode="&#xc6;" horiz-adv-x="1946" 
d="M2090 1332l-22 -122h-762l-82 -468h706l-22 -122h-706l-88 -500h762l-20 -120h-890l66 372h-572l-250 -372h-142l892 1332h1130zM536 486h516l128 722h-158z" />
    <glyph glyph-name="Ccedilla" unicode="&#xc7;" horiz-adv-x="1310" 
d="M196 546q0 224 87.5 408.5t240 290t336.5 105.5q230 0 370 -126t140 -334h-128q0 159 -104.5 249.5t-287.5 90.5q-144 0 -263.5 -91.5t-188 -251t-68.5 -351.5q0 -207 106 -318.5t304 -111.5q153 0 274 91t156 231h136q-54 -204 -211 -324t-371 -120h-20l-34 -96h32
q79 0 125.5 -53.5t46.5 -132.5q0 -117 -75.5 -183.5t-208.5 -66.5h-204l20 116h166q84 0 133 37.5t49 102.5q0 74 -96 74h-68l-40 64l56 148q-193 35 -301.5 179.5t-108.5 372.5z" />
    <glyph glyph-name="Egrave" unicode="&#xc8;" horiz-adv-x="1090" 
d="M596 1750h144l196 -316h-106zM1234 1332l-20 -122h-764l-82 -468h704l-22 -122h-704l-88 -500h762l-20 -120h-890l236 1332h888z" />
    <glyph glyph-name="Eacute" unicode="&#xc9;" horiz-adv-x="1090" 
d="M1142 1750l-308 -316h-116l260 316h164zM1234 1332l-20 -122h-764l-82 -468h704l-22 -122h-704l-88 -500h762l-20 -120h-890l236 1332h888z" />
    <glyph glyph-name="Ecircumflex" unicode="&#xca;" horiz-adv-x="1090" 
d="M810 1768h130l268 -334h-134l-202 258l-290 -258h-160zM1234 1332l-20 -122h-764l-82 -468h704l-22 -122h-704l-88 -500h762l-20 -120h-890l236 1332h888z" />
    <glyph glyph-name="Edieresis" unicode="&#xcb;" horiz-adv-x="1090" 
d="M976 1596h152l-28 -162h-152zM558 1596h152l-28 -162h-150zM1234 1332l-20 -122h-764l-82 -468h704l-22 -122h-704l-88 -500h762l-20 -120h-890l236 1332h888z" />
    <glyph glyph-name="Igrave" unicode="&#xcc;" 
d="M198 1750h144l194 -316h-104zM346 1332h126l-234 -1332h-128z" />
    <glyph glyph-name="Iacute" unicode="&#xcd;" 
d="M742 1750l-306 -316h-118l260 316h164zM346 1332h126l-234 -1332h-128z" />
    <glyph glyph-name="Icircumflex" unicode="&#xce;" 
d="M410 1768h130l270 -334h-136l-200 258l-292 -258h-158zM346 1332h126l-234 -1332h-128z" />
    <glyph glyph-name="Idieresis" unicode="&#xcf;" 
d="M578 1596h152l-30 -162h-152zM160 1596h152l-30 -162h-150zM346 1332h126l-234 -1332h-128z" />
    <glyph glyph-name="Eth" unicode="&#xd0;" horiz-adv-x="1438" 
d="M186 708h230l110 624h466q229 0 357.5 -144t128.5 -394q0 -150 -44.5 -292t-124 -254t-202 -180t-267.5 -68h-548l104 590h-232zM632 1212l-90 -504h410l-22 -118h-408l-84 -472h378q110 0 201.5 46.5t150.5 119.5t100.5 166.5t59.5 183.5t18 174q0 194 -97 299t-279 105
h-338z" />
    <glyph glyph-name="Ntilde" unicode="&#xd1;" horiz-adv-x="1260" 
d="M784 1728q31 0 55.5 -8.5t45 -27t32 -31.5t29.5 -39q17 -26 23.5 -35t21.5 -26t29.5 -23t33.5 -6q48 0 85 50.5t51 133.5h104q-22 -133 -90 -211.5t-160 -78.5q-25 0 -46.5 6.5t-33.5 12t-30 24t-21.5 23t-22.5 28.5q-5 8 -22.5 34.5t-25.5 36t-25 20.5t-35 11
q-48 0 -86.5 -51.5t-51.5 -136.5h-110q26 139 91 216.5t159 77.5zM1260 1332h126l-236 -1332h-132l-574 1170l-206 -1170h-128l236 1332h162l552 -1130z" />
    <glyph glyph-name="Ograve" unicode="&#xd2;" horiz-adv-x="1366" 
d="M708 1750h144l196 -316h-106zM196 542q0 229 87 414.5t240 290.5t341 105q237 0 386.5 -161.5t149.5 -416.5q0 -232 -82.5 -411.5t-232 -279t-343.5 -99.5q-242 0 -394 155.5t-152 402.5zM1270 782q0 212 -110 330t-310 118q-149 0 -268.5 -89.5t-186.5 -247.5t-67 -355
q0 -205 112.5 -318.5t315.5 -113.5q229 0 371.5 187t142.5 489z" />
    <glyph glyph-name="Oacute" unicode="&#xd3;" horiz-adv-x="1366" 
d="M1252 1750l-306 -316h-116l258 316h164zM196 542q0 229 87 414.5t240 290.5t341 105q237 0 386.5 -161.5t149.5 -416.5q0 -232 -82.5 -411.5t-232 -279t-343.5 -99.5q-242 0 -394 155.5t-152 402.5zM1270 782q0 212 -110 330t-310 118q-149 0 -268.5 -89.5t-186.5 -247.5
t-67 -355q0 -205 112.5 -318.5t315.5 -113.5q229 0 371.5 187t142.5 489z" />
    <glyph glyph-name="Ocircumflex" unicode="&#xd4;" horiz-adv-x="1366" 
d="M922 1768h130l268 -334h-134l-202 258l-290 -258h-160zM196 542q0 229 87 414.5t240 290.5t341 105q237 0 386.5 -161.5t149.5 -416.5q0 -232 -82.5 -411.5t-232 -279t-343.5 -99.5q-242 0 -394 155.5t-152 402.5zM1270 782q0 212 -110 330t-310 118q-149 0 -268.5 -89.5
t-186.5 -247.5t-67 -355q0 -205 112.5 -318.5t315.5 -113.5q229 0 371.5 187t142.5 489z" />
    <glyph glyph-name="Otilde" unicode="&#xd5;" horiz-adv-x="1366" 
d="M820 1728q39 0 72 -18t49.5 -37t38.5 -51q2 -2 9.5 -13t9.5 -14t9 -12.5t10 -12.5t9.5 -10t10.5 -9.5t11 -7.5t13 -6.5t13 -3t15 -1.5q46 0 83.5 50.5t52.5 133.5h104q-24 -133 -92 -211.5t-160 -78.5q-30 0 -53.5 7t-42.5 24t-28.5 28t-27.5 35q-6 8 -19 28t-20 29.5
t-19 22t-24.5 17.5t-27.5 5q-48 0 -85.5 -51t-52.5 -137h-110q26 139 91.5 216.5t160.5 77.5zM196 542q0 229 87 414.5t240 290.5t341 105q237 0 386.5 -161.5t149.5 -416.5q0 -232 -82.5 -411.5t-232 -279t-343.5 -99.5q-242 0 -394 155.5t-152 402.5zM1270 782
q0 212 -110 330t-310 118q-149 0 -268.5 -89.5t-186.5 -247.5t-67 -355q0 -205 112.5 -318.5t315.5 -113.5q229 0 371.5 187t142.5 489z" />
    <glyph glyph-name="Odieresis" unicode="&#xd6;" horiz-adv-x="1366" 
d="M1088 1596h152l-28 -162h-152zM670 1596h152l-28 -162h-152zM196 542q0 229 87 414.5t240 290.5t341 105q237 0 386.5 -161.5t149.5 -416.5q0 -232 -82.5 -411.5t-232 -279t-343.5 -99.5q-242 0 -394 155.5t-152 402.5zM1270 782q0 212 -110 330t-310 118
q-149 0 -268.5 -89.5t-186.5 -247.5t-67 -355q0 -205 112.5 -318.5t315.5 -113.5q229 0 371.5 187t142.5 489z" />
    <glyph glyph-name="multiply" unicode="&#xd7;" horiz-adv-x="1126" 
d="M680 654l404 346l68 -84l-406 -344l284 -342l-100 -84l-282 344l-404 -344l-68 84l406 342l-286 344l100 84z" />
    <glyph glyph-name="Oslash" unicode="&#xd8;" horiz-adv-x="1366" 
d="M196 542q0 222 88.5 408t242 294t337.5 108q235 0 378 -146l192 198l78 -78l-200 -208q88 -140 88 -344q0 -168 -49.5 -314.5t-136.5 -251t-209.5 -164.5t-262.5 -60q-237 0 -384 138l-186 -194l-80 78l194 202q-90 140 -90 334zM328 538q0 -135 50 -232l778 810
q-111 114 -306 114q-149 0 -268.5 -89.5t-186.5 -247.5t-67 -355zM1270 782q0 143 -50 240l-774 -808q114 -108 310 -108q229 0 371.5 187t142.5 489z" />
    <glyph glyph-name="Ugrave" unicode="&#xd9;" horiz-adv-x="1194" 
d="M632 1750h144l194 -316h-104zM332 1332h130l-140 -792q-36 -201 55.5 -316.5t286.5 -115.5q157 0 258.5 97t133.5 273l148 854h128l-152 -868q-39 -218 -182 -349t-342 -131q-161 0 -276 70.5t-164.5 200t-19.5 295.5z" />
    <glyph glyph-name="Uacute" unicode="&#xda;" horiz-adv-x="1194" 
d="M1176 1750l-306 -316h-118l260 316h164zM332 1332h130l-140 -792q-36 -201 55.5 -316.5t286.5 -115.5q157 0 258.5 97t133.5 273l148 854h128l-152 -868q-39 -218 -182 -349t-342 -131q-161 0 -276 70.5t-164.5 200t-19.5 295.5z" />
    <glyph glyph-name="Ucircumflex" unicode="&#xdb;" horiz-adv-x="1194" 
d="M846 1768h128l270 -334h-136l-200 258l-292 -258h-158zM332 1332h130l-140 -792q-36 -201 55.5 -316.5t286.5 -115.5q157 0 258.5 97t133.5 273l148 854h128l-152 -868q-39 -218 -182 -349t-342 -131q-161 0 -276 70.5t-164.5 200t-19.5 295.5z" />
    <glyph glyph-name="Udieresis" unicode="&#xdc;" horiz-adv-x="1194" 
d="M1012 1596h152l-30 -162h-152zM594 1596h152l-30 -162h-150zM332 1332h130l-140 -792q-36 -201 55.5 -316.5t286.5 -115.5q157 0 258.5 97t133.5 273l148 854h128l-152 -868q-39 -218 -182 -349t-342 -131q-161 0 -276 70.5t-164.5 200t-19.5 295.5z" />
    <glyph glyph-name="Yacute" unicode="&#xdd;" horiz-adv-x="1176" 
d="M1174 1750l-308 -316h-116l260 316h164zM604 458l-300 874h140l240 -720l500 720h160l-614 -874l-82 -458h-126z" />
    <glyph glyph-name="Thorn" unicode="&#xde;" horiz-adv-x="1146" 
d="M346 1332h126l-40 -226h390q173 0 274.5 -96.5t101.5 -259.5q0 -93 -33 -178.5t-93 -152t-152.5 -106t-203.5 -39.5h-428l-50 -274h-128zM414 988l-108 -594h388q97 0 171.5 32.5t117.5 87t64 116.5t21 128q0 111 -70 170.5t-200 59.5h-384z" />
    <glyph glyph-name="germandbls" unicode="&#xdf;" horiz-adv-x="1134" 
d="M824 1330q-163 0 -275 -97.5t-141 -264.5l-170 -968h-128l174 982q34 208 183 338t353 130q171 0 283.5 -100.5t112.5 -253.5q0 -127 -71 -230.5t-185 -149.5q76 -39 117 -112.5t41 -173.5q0 -182 -132.5 -306t-327.5 -124h-224l20 120h178q160 0 258 95.5t98 250.5
q0 95 -57.5 146.5t-166.5 51.5h-138l22 118h136q126 0 213 89.5t87 218.5q0 107 -72.5 173.5t-187.5 66.5z" />
    <glyph glyph-name="agrave" unicode="&#xe0;" horiz-adv-x="1038" 
d="M498 1460h144l194 -316h-104zM1048 666l-118 -666h-132l28 148q-68 -80 -160.5 -123t-197.5 -43q-146 0 -237 75.5t-91 198.5q0 136 93.5 224t250.5 94l296 10q68 2 98 16.5t40 51.5l4 22q21 113 -57.5 185.5t-214.5 72.5q-228 0 -290 -196h-138q36 144 153.5 227
t284.5 83q192 0 303.5 -109t84.5 -271zM274 270q0 -78 61 -126t163 -48q131 0 233 80t137 208l16 88l-378 -12q-114 -3 -173 -54t-59 -136z" />
    <glyph glyph-name="aacute" unicode="&#xe1;" horiz-adv-x="1038" 
d="M1042 1460l-306 -316h-118l260 316h164zM1048 666l-118 -666h-132l28 148q-68 -80 -160.5 -123t-197.5 -43q-146 0 -237 75.5t-91 198.5q0 136 93.5 224t250.5 94l296 10q68 2 98 16.5t40 51.5l4 22q21 113 -57.5 185.5t-214.5 72.5q-228 0 -290 -196h-138
q36 144 153.5 227t284.5 83q192 0 303.5 -109t84.5 -271zM274 270q0 -78 61 -126t163 -48q131 0 233 80t137 208l16 88l-378 -12q-114 -3 -173 -54t-59 -136z" />
    <glyph glyph-name="acircumflex" unicode="&#xe2;" horiz-adv-x="1038" 
d="M708 1478h130l270 -334h-136l-200 258l-292 -258h-158zM1048 666l-118 -666h-132l28 148q-68 -80 -160.5 -123t-197.5 -43q-146 0 -237 75.5t-91 198.5q0 136 93.5 224t250.5 94l296 10q68 2 98 16.5t40 51.5l4 22q21 113 -57.5 185.5t-214.5 72.5q-228 0 -290 -196h-138
q36 144 153.5 227t284.5 83q192 0 303.5 -109t84.5 -271zM274 270q0 -78 61 -126t163 -48q131 0 233 80t137 208l16 88l-378 -12q-114 -3 -173 -54t-59 -136z" />
    <glyph glyph-name="atilde" unicode="&#xe3;" horiz-adv-x="1038" 
d="M606 1438q31 0 55.5 -8.5t45 -27t32 -31.5t29.5 -39q17 -26 23.5 -35t21.5 -26t29.5 -23t33.5 -6q48 0 85 50.5t51 133.5h104q-22 -133 -90 -211.5t-160 -78.5q-25 0 -46.5 6.5t-33.5 12t-30 24t-21.5 23t-22.5 28.5q-5 7 -22.5 34t-25.5 36.5t-25 20.5t-35 11
q-48 0 -86.5 -51.5t-51.5 -136.5h-110q26 139 91 216.5t159 77.5zM1048 666l-118 -666h-132l28 148q-68 -80 -160.5 -123t-197.5 -43q-146 0 -237 75.5t-91 198.5q0 136 93.5 224t250.5 94l296 10q68 2 98 16.5t40 51.5l4 22q21 113 -57.5 185.5t-214.5 72.5
q-228 0 -290 -196h-138q36 144 153.5 227t284.5 83q192 0 303.5 -109t84.5 -271zM274 270q0 -78 61 -126t163 -48q131 0 233 80t137 208l16 88l-378 -12q-114 -3 -173 -54t-59 -136z" />
    <glyph glyph-name="adieresis" unicode="&#xe4;" horiz-adv-x="1038" 
d="M876 1306h152l-30 -162h-152zM458 1306h152l-30 -162h-150zM1048 666l-118 -666h-132l28 148q-68 -80 -160.5 -123t-197.5 -43q-146 0 -237 75.5t-91 198.5q0 136 93.5 224t250.5 94l296 10q68 2 98 16.5t40 51.5l4 22q21 113 -57.5 185.5t-214.5 72.5q-228 0 -290 -196
h-138q36 144 153.5 227t284.5 83q192 0 303.5 -109t84.5 -271zM274 270q0 -78 61 -126t163 -48q131 0 233 80t137 208l16 88l-378 -12q-114 -3 -173 -54t-59 -136z" />
    <glyph glyph-name="aring" unicode="&#xe5;" horiz-adv-x="1038" 
d="M994 1436q0 -132 -82.5 -219t-207.5 -87q-114 0 -182 64.5t-68 171.5q0 133 81.5 219.5t206.5 86.5q114 0 183 -64.5t69 -171.5zM564 1368q0 -66 39 -103t109 -37q77 0 124.5 56.5t47.5 149.5q0 66 -39 103t-109 37q-77 0 -124.5 -56.5t-47.5 -149.5zM1048 666l-118 -666
h-132l28 148q-68 -80 -160.5 -123t-197.5 -43q-146 0 -237 75.5t-91 198.5q0 136 93.5 224t250.5 94l296 10q68 2 98 16.5t40 51.5l4 22q21 113 -57.5 185.5t-214.5 72.5q-228 0 -290 -196h-138q36 144 153.5 227t284.5 83q192 0 303.5 -109t84.5 -271zM274 270
q0 -78 61 -126t163 -48q131 0 233 80t137 208l16 88l-378 -12q-114 -3 -173 -54t-59 -136z" />
    <glyph glyph-name="ae" unicode="&#xe6;" horiz-adv-x="1832" 
d="M1354 -18q-164 0 -275 73.5t-153 206.5q-65 -129 -185.5 -204.5t-264.5 -75.5q-149 0 -242.5 76.5t-93.5 197.5q0 137 93.5 224.5t250.5 93.5l296 10q68 2 98 16.5t40 53.5l4 20q19 111 -59 184.5t-213 73.5q-228 0 -290 -196h-138q36 144 153.5 227t282.5 83
q132 0 230.5 -56t137.5 -150q69 97 169.5 150.5t222.5 53.5q148 0 254 -70.5t149 -187t19 -254.5l-12 -60h-802q-2 -16 -2 -52q0 -157 84.5 -238.5t245.5 -81.5q113 0 193 55.5t123 158.5h142q-61 -163 -177.5 -247.5t-280.5 -84.5zM1422 928q-144 0 -245.5 -92.5
t-136.5 -253.5h674q22 153 -60 249.5t-232 96.5zM274 272q0 -79 61.5 -127.5t162.5 -48.5q141 0 247 91t131 235h2l8 52l-380 -12q-113 -3 -172.5 -54.5t-59.5 -135.5z" />
    <glyph glyph-name="ccedilla" unicode="&#xe7;" horiz-adv-x="1108" 
d="M170 430q0 173 68.5 314.5t188.5 221.5t267 80q188 0 301 -112t113 -294h-132q0 133 -77.5 209.5t-216.5 76.5q-162 0 -271 -143.5t-109 -356.5q0 -156 82.5 -240t235.5 -84q113 0 199 69t113 181h138q-42 -171 -165.5 -270.5t-294.5 -99.5h-6l-32 -92h32
q79 0 125.5 -53.5t46.5 -132.5q0 -117 -75.5 -183.5t-208.5 -66.5h-204l20 116h166q84 0 133 37.5t49 102.5q0 74 -96 74h-68l-40 64l54 144q-157 30 -246.5 146t-89.5 292z" />
    <glyph glyph-name="egrave" unicode="&#xe8;" horiz-adv-x="1122" 
d="M526 1460h144l194 -316h-104zM170 428q0 126 37.5 238.5t104 196t164.5 132.5t214 49q150 0 256.5 -70.5t150 -187t19.5 -254.5l-10 -60h-804q-2 -16 -2 -52q0 -157 84.5 -238.5t245.5 -81.5q113 0 193 55.5t123 158.5h144q-61 -163 -179 -247.5t-283 -84.5
q-213 0 -335.5 119t-122.5 327zM698 928q-143 0 -244.5 -92.5t-137.5 -253.5h676q22 153 -61 249.5t-233 96.5z" />
    <glyph glyph-name="eacute" unicode="&#xe9;" horiz-adv-x="1122" 
d="M1070 1460l-306 -316h-118l260 316h164zM170 428q0 126 37.5 238.5t104 196t164.5 132.5t214 49q150 0 256.5 -70.5t150 -187t19.5 -254.5l-10 -60h-804q-2 -16 -2 -52q0 -157 84.5 -238.5t245.5 -81.5q113 0 193 55.5t123 158.5h144q-61 -163 -179 -247.5t-283 -84.5
q-213 0 -335.5 119t-122.5 327zM698 928q-143 0 -244.5 -92.5t-137.5 -253.5h676q22 153 -61 249.5t-233 96.5z" />
    <glyph glyph-name="ecircumflex" unicode="&#xea;" horiz-adv-x="1122" 
d="M740 1478h128l270 -334h-136l-200 258l-292 -258h-158zM170 428q0 126 37.5 238.5t104 196t164.5 132.5t214 49q150 0 256.5 -70.5t150 -187t19.5 -254.5l-10 -60h-804q-2 -16 -2 -52q0 -157 84.5 -238.5t245.5 -81.5q113 0 193 55.5t123 158.5h144q-61 -163 -179 -247.5
t-283 -84.5q-213 0 -335.5 119t-122.5 327zM698 928q-143 0 -244.5 -92.5t-137.5 -253.5h676q22 153 -61 249.5t-233 96.5z" />
    <glyph glyph-name="edieresis" unicode="&#xeb;" horiz-adv-x="1122" 
d="M906 1306h152l-30 -162h-152zM488 1306h152l-30 -162h-150zM170 428q0 126 37.5 238.5t104 196t164.5 132.5t214 49q150 0 256.5 -70.5t150 -187t19.5 -254.5l-10 -60h-804q-2 -16 -2 -52q0 -157 84.5 -238.5t245.5 -81.5q113 0 193 55.5t123 158.5h144
q-61 -163 -179 -247.5t-283 -84.5q-213 0 -335.5 119t-122.5 327zM698 928q-143 0 -244.5 -92.5t-137.5 -253.5h676q22 153 -61 249.5t-233 96.5z" />
    <glyph glyph-name="igrave" unicode="&#xec;" 
d="M146 1462h144l194 -316h-104zM292 1024h126l-180 -1024h-128z" />
    <glyph glyph-name="iacute" unicode="&#xed;" 
d="M690 1462l-306 -316h-118l260 316h164zM292 1024h126l-180 -1024h-128z" />
    <glyph glyph-name="icircumflex" unicode="&#xee;" 
d="M358 1480h130l270 -334h-136l-200 258l-292 -258h-158zM292 1024h126l-180 -1024h-128z" />
    <glyph glyph-name="idieresis" unicode="&#xef;" 
d="M526 1308h152l-30 -162h-152zM108 1308h152l-30 -162h-150zM292 1024h126l-180 -1024h-128z" />
    <glyph glyph-name="eth" unicode="&#xf0;" horiz-adv-x="1158" 
d="M450 1220l288 56q-63 87 -140 158h162q66 -63 114 -132l222 44v-110l-158 -30q128 -223 128 -506q0 -321 -143 -518.5t-375 -197.5q-203 0 -330.5 145.5t-127.5 376.5q0 227 122.5 374.5t311.5 147.5q139 0 248.5 -81.5t159.5 -220.5q2 32 2 64q0 172 -132 388l-352 -68
v110zM890 512q0 174 -95 284t-245 110q-149 0 -238.5 -109.5t-89.5 -292.5q0 -181 88 -289.5t232 -108.5q152 0 250 114.5t98 291.5z" />
    <glyph glyph-name="ntilde" unicode="&#xf1;" horiz-adv-x="1060" 
d="M628 1440q31 0 55.5 -8.5t45 -27t32 -31.5t29.5 -39q17 -26 23.5 -35t21.5 -26t29.5 -23t33.5 -6q48 0 85 50.5t51 133.5h104q-24 -134 -91.5 -212t-158.5 -78q-25 0 -46.5 6.5t-33.5 12t-30 24t-21.5 23t-22.5 28.5q-5 7 -22.5 34t-25.5 36.5t-25 20.5t-35 11
q-48 0 -86.5 -51.5t-51.5 -136.5h-110q26 139 91 216.5t159 77.5zM290 1024h128l-26 -152q65 80 155 125t191 45q166 0 262.5 -128.5t63.5 -305.5l-110 -608h-126l108 594q27 150 -38 239t-200 89q-132 0 -224 -74.5t-122 -203.5l-112 -644h-128z" />
    <glyph glyph-name="ograve" unicode="&#xf2;" horiz-adv-x="1126" 
d="M510 1462h144l194 -316h-104zM170 430q0 173 68.5 314t188.5 221.5t267 80.5q197 0 315.5 -121t118.5 -325q0 -172 -69 -314t-189 -223t-266 -81q-197 0 -315.5 122t-118.5 326zM998 604q0 152 -83 237t-231 85q-158 0 -270 -142t-112 -358q0 -154 82.5 -238t231.5 -84
q156 0 269 142.5t113 357.5z" />
    <glyph glyph-name="oacute" unicode="&#xf3;" horiz-adv-x="1126" 
d="M1054 1462l-306 -316h-118l260 316h164zM170 430q0 173 68.5 314t188.5 221.5t267 80.5q197 0 315.5 -121t118.5 -325q0 -172 -69 -314t-189 -223t-266 -81q-197 0 -315.5 122t-118.5 326zM998 604q0 152 -83 237t-231 85q-158 0 -270 -142t-112 -358q0 -154 82.5 -238
t231.5 -84q156 0 269 142.5t113 357.5z" />
    <glyph glyph-name="ocircumflex" unicode="&#xf4;" horiz-adv-x="1126" 
d="M724 1480h130l268 -334h-136l-200 258l-290 -258h-160zM170 430q0 173 68.5 314t188.5 221.5t267 80.5q197 0 315.5 -121t118.5 -325q0 -172 -69 -314t-189 -223t-266 -81q-197 0 -315.5 122t-118.5 326zM998 604q0 152 -83 237t-231 85q-158 0 -270 -142t-112 -358
q0 -154 82.5 -238t231.5 -84q156 0 269 142.5t113 357.5z" />
    <glyph glyph-name="otilde" unicode="&#xf5;" horiz-adv-x="1126" 
d="M622 1440q30 0 54.5 -8.5t44.5 -27t31.5 -31.5t29.5 -39q2 -2 9.5 -13t9.5 -14t9 -12.5t10 -12.5t9.5 -10t10.5 -9.5t11 -7.5t13 -6.5t13 -3t15 -1.5q47 0 84 50t50 134h104q-22 -133 -90 -211.5t-160 -78.5q-30 0 -53.5 7t-42.5 24t-28.5 28t-27.5 35q-7 10 -24 35
t-26 35.5t-25.5 21t-34.5 10.5q-48 0 -85.5 -51t-52.5 -137h-110q26 139 91.5 216.5t160.5 77.5zM170 430q0 173 68.5 314t188.5 221.5t267 80.5q197 0 315.5 -121t118.5 -325q0 -172 -69 -314t-189 -223t-266 -81q-197 0 -315.5 122t-118.5 326zM998 604q0 152 -83 237
t-231 85q-158 0 -270 -142t-112 -358q0 -154 82.5 -238t231.5 -84q156 0 269 142.5t113 357.5z" />
    <glyph glyph-name="odieresis" unicode="&#xf6;" horiz-adv-x="1126" 
d="M890 1308h152l-28 -162h-154zM472 1308h152l-28 -162h-152zM170 430q0 173 68.5 314t188.5 221.5t267 80.5q197 0 315.5 -121t118.5 -325q0 -172 -69 -314t-189 -223t-266 -81q-197 0 -315.5 122t-118.5 326zM998 604q0 152 -83 237t-231 85q-158 0 -270 -142t-112 -358
q0 -154 82.5 -238t231.5 -84q156 0 269 142.5t113 357.5z" />
    <glyph glyph-name="divide" unicode="&#xf7;" horiz-adv-x="954" 
d="M586 1046h148l-28 -160h-148zM180 622h814l-20 -114h-816zM438 210h150l-30 -160h-146z" />
    <glyph glyph-name="oslash" unicode="&#xf8;" horiz-adv-x="1126" 
d="M170 430q0 173 68.5 314t188.5 221.5t267 80.5q178 0 296 -102l142 148l76 -70l-150 -158q70 -111 70 -264q0 -172 -69 -314t-189 -223t-266 -81q-176 0 -292 100l-144 -150l-78 70l152 160q-72 113 -72 268zM300 426q0 -97 34 -168l570 594q-83 74 -220 74
q-159 0 -271.5 -141.5t-112.5 -358.5zM1000 604q0 93 -34 164l-568 -594q82 -70 218 -70q157 0 270.5 142t113.5 358z" />
    <glyph glyph-name="ugrave" unicode="&#xf9;" horiz-adv-x="1044" 
d="M488 1462h144l194 -316h-104zM304 430q-26 -152 33 -240t193 -88q140 0 232.5 83.5t115.5 228.5l106 610h126l-178 -1024h-126l26 150q-63 -80 -151.5 -124t-188.5 -44q-111 0 -191.5 58.5t-114 158t-12.5 217.5l110 608h128z" />
    <glyph glyph-name="uacute" unicode="&#xfa;" horiz-adv-x="1044" 
d="M1032 1462l-306 -316h-118l260 316h164zM304 430q-26 -152 33 -240t193 -88q140 0 232.5 83.5t115.5 228.5l106 610h126l-178 -1024h-126l26 150q-63 -80 -151.5 -124t-188.5 -44q-111 0 -191.5 58.5t-114 158t-12.5 217.5l110 608h128z" />
    <glyph glyph-name="ucircumflex" unicode="&#xfb;" horiz-adv-x="1044" 
d="M700 1480h130l268 -334h-136l-200 258l-290 -258h-160zM304 430q-26 -152 33 -240t193 -88q140 0 232.5 83.5t115.5 228.5l106 610h126l-178 -1024h-126l26 150q-63 -80 -151.5 -124t-188.5 -44q-111 0 -191.5 58.5t-114 158t-12.5 217.5l110 608h128z" />
    <glyph glyph-name="udieresis" unicode="&#xfc;" horiz-adv-x="1044" 
d="M866 1308h152l-28 -162h-154zM448 1308h152l-28 -162h-152zM304 430q-26 -152 33 -240t193 -88q140 0 232.5 83.5t115.5 228.5l106 610h126l-178 -1024h-126l26 150q-63 -80 -151.5 -124t-188.5 -44q-111 0 -191.5 58.5t-114 158t-12.5 217.5l110 608h128z" />
    <glyph glyph-name="yacute" unicode="&#xfd;" horiz-adv-x="1100" 
d="M1084 1462l-306 -316h-118l260 316h164zM82 -194h150q73 0 116 30.5t84 107.5l42 80l-226 1000h132l192 -864l486 864h152l-622 -1092q-79 -136 -153.5 -194t-174.5 -58h-194z" />
    <glyph glyph-name="thorn" unicode="&#xfe;" horiz-adv-x="1140" 
d="M364 1434h130l-100 -572q130 182 340 182q191 0 305.5 -120.5t114.5 -321.5q0 -172 -67.5 -314.5t-185.5 -224t-261 -81.5q-287 0 -356 256l-100 -572h-128zM1024 604q0 152 -83 237t-231 85q-158 0 -269 -141.5t-111 -358.5q0 -154 81.5 -238t230.5 -84q156 0 269 142.5
t113 357.5z" />
    <glyph glyph-name="ydieresis" unicode="&#xff;" horiz-adv-x="1100" 
d="M918 1308h154l-30 -162h-152zM502 1308h152l-30 -162h-150zM82 -194h150q73 0 116 30.5t84 107.5l42 80l-226 1000h132l192 -864l486 864h152l-622 -1092q-79 -136 -153.5 -194t-174.5 -58h-194z" />
    <glyph glyph-name="Amacron" unicode="&#x100;" horiz-adv-x="1270" 
d="M588 1584h624l-18 -112h-624zM1204 0h-132l-70 372h-584l-198 -372h-152l732 1332h144zM850 1174l-370 -688h500z" />
    <glyph glyph-name="amacron" unicode="&#x101;" horiz-adv-x="1038" 
d="M428 1294h624l-18 -112h-626zM1048 666l-118 -666h-132l28 148q-68 -80 -160.5 -123t-197.5 -43q-146 0 -237 75.5t-91 198.5q0 136 93.5 224t250.5 94l296 10q68 2 98 16.5t40 51.5l4 22q21 113 -57.5 185.5t-214.5 72.5q-228 0 -290 -196h-138q36 144 153.5 227
t284.5 83q192 0 303.5 -109t84.5 -271zM274 270q0 -78 61 -126t163 -48q131 0 233 80t137 208l16 88l-378 -12q-114 -3 -173 -54t-59 -136z" />
    <glyph glyph-name="Abreve" unicode="&#x102;" horiz-adv-x="1270" 
d="M1264 1728q-33 -135 -129.5 -215.5t-232.5 -80.5q-157 0 -238.5 80.5t-67.5 215.5h124q-13 -194 178 -194q188 0 244 194h122zM1204 0h-132l-70 372h-584l-198 -372h-152l732 1332h144zM850 1174l-370 -688h500z" />
    <glyph glyph-name="abreve" unicode="&#x103;" horiz-adv-x="1038" 
d="M1102 1438q-32 -135 -128 -215.5t-232 -80.5q-157 0 -238.5 80.5t-69.5 215.5h124q-9 -194 178 -194q191 0 244 194h122zM1048 666l-118 -666h-132l28 148q-68 -80 -160.5 -123t-197.5 -43q-146 0 -237 75.5t-91 198.5q0 136 93.5 224t250.5 94l296 10q68 2 98 16.5
t40 51.5l4 22q21 113 -57.5 185.5t-214.5 72.5q-228 0 -290 -196h-138q36 144 153.5 227t284.5 83q192 0 303.5 -109t84.5 -271zM274 270q0 -78 61 -126t163 -48q131 0 233 80t137 208l16 88l-378 -12q-114 -3 -173 -54t-59 -136z" />
    <glyph glyph-name="Aogonek" unicode="&#x104;" horiz-adv-x="1270" 
d="M1204 0q-140 -93 -200 -171t-60 -167q0 -106 140 -106h126l-20 -120h-132q-109 0 -175.5 55t-66.5 147q0 110 72 203t206 159h-22l-70 372h-584l-198 -372h-152l732 1332h144zM850 1174l-370 -688h500z" />
    <glyph glyph-name="aogonek" unicode="&#x105;" horiz-adv-x="1038" 
d="M930 0q-140 -93 -200 -171t-60 -167q0 -106 140 -106h128l-22 -120h-132q-109 0 -175.5 55t-66.5 147q0 110 72 203t206 159h-22l28 148q-68 -80 -160.5 -123t-197.5 -43q-146 0 -237 75.5t-91 198.5q0 136 93.5 224t250.5 94l296 10q68 2 98 16.5t40 51.5l4 22
q21 113 -57.5 185.5t-214.5 72.5q-228 0 -290 -196h-138q36 144 153.5 227t284.5 83q192 0 303.5 -109t84.5 -271zM274 270q0 -78 61 -126t163 -48q131 0 233 80t137 208l16 88l-378 -12q-114 -3 -173 -54t-59 -136z" />
    <glyph glyph-name="Cacute" unicode="&#x106;" horiz-adv-x="1310" 
d="M1228 1750l-306 -316h-118l260 316h164zM196 546q0 224 87.5 408.5t240 290t336.5 105.5q230 0 370 -126t140 -334h-128q0 159 -104.5 249.5t-287.5 90.5q-144 0 -263.5 -91.5t-188 -251t-68.5 -351.5q0 -207 106 -318.5t304 -111.5q153 0 274 91t156 231h136
q-54 -204 -211 -324t-371 -120q-246 0 -387 150.5t-141 411.5z" />
    <glyph glyph-name="cacute" unicode="&#x107;" horiz-adv-x="1108" 
d="M1074 1458l-306 -316h-118l260 316h164zM170 430q0 173 68.5 314.5t188.5 221.5t267 80q188 0 301 -112t113 -294h-132q0 133 -77.5 209.5t-216.5 76.5q-162 0 -271 -143.5t-109 -356.5q0 -156 82.5 -240t235.5 -84q113 0 199 69t113 181h138q-42 -171 -165.5 -270.5
t-294.5 -99.5q-201 0 -320.5 122t-119.5 326z" />
    <glyph glyph-name="Ccircumflex" unicode="&#x108;" horiz-adv-x="1310" 
d="M898 1768h130l268 -334h-136l-200 258l-290 -258h-160zM196 546q0 224 87.5 408.5t240 290t336.5 105.5q230 0 370 -126t140 -334h-128q0 159 -104.5 249.5t-287.5 90.5q-144 0 -263.5 -91.5t-188 -251t-68.5 -351.5q0 -207 106 -318.5t304 -111.5q153 0 274 91t156 231
h136q-54 -204 -211 -324t-371 -120q-246 0 -387 150.5t-141 411.5z" />
    <glyph glyph-name="ccircumflex" unicode="&#x109;" horiz-adv-x="1108" 
d="M742 1478h130l270 -336h-136l-200 258l-292 -258h-158zM170 430q0 173 68.5 314.5t188.5 221.5t267 80q188 0 301 -112t113 -294h-132q0 133 -77.5 209.5t-216.5 76.5q-162 0 -271 -143.5t-109 -356.5q0 -156 82.5 -240t235.5 -84q113 0 199 69t113 181h138
q-42 -171 -165.5 -270.5t-294.5 -99.5q-201 0 -320.5 122t-119.5 326z" />
    <glyph glyph-name="Cdotaccent" unicode="&#x10a;" horiz-adv-x="1310" 
d="M864 1600h154l-28 -166h-156zM196 546q0 224 87.5 408.5t240 290t336.5 105.5q230 0 370 -126t140 -334h-128q0 159 -104.5 249.5t-287.5 90.5q-144 0 -263.5 -91.5t-188 -251t-68.5 -351.5q0 -207 106 -318.5t304 -111.5q153 0 274 91t156 231h136q-54 -204 -211 -324
t-371 -120q-246 0 -387 150.5t-141 411.5z" />
    <glyph glyph-name="cdotaccent" unicode="&#x10b;" horiz-adv-x="1108" 
d="M710 1308h154l-28 -166h-156zM170 430q0 173 68.5 314.5t188.5 221.5t267 80q188 0 301 -112t113 -294h-132q0 133 -77.5 209.5t-216.5 76.5q-162 0 -271 -143.5t-109 -356.5q0 -156 82.5 -240t235.5 -84q113 0 199 69t113 181h138q-42 -171 -165.5 -270.5t-294.5 -99.5
q-201 0 -320.5 122t-119.5 326z" />
    <glyph glyph-name="Ccaron" unicode="&#x10c;" horiz-adv-x="1310" 
d="M970 1434h-132l-268 334h138l200 -258l292 258h156zM196 546q0 224 87.5 408.5t240 290t336.5 105.5q230 0 370 -126t140 -334h-128q0 159 -104.5 249.5t-287.5 90.5q-144 0 -263.5 -91.5t-188 -251t-68.5 -351.5q0 -207 106 -318.5t304 -111.5q153 0 274 91t156 231h136
q-54 -204 -211 -324t-371 -120q-246 0 -387 150.5t-141 411.5z" />
    <glyph glyph-name="ccaron" unicode="&#x10d;" horiz-adv-x="1108" 
d="M816 1142h-132l-270 336h140l200 -260l292 260h154zM170 430q0 173 68.5 314.5t188.5 221.5t267 80q188 0 301 -112t113 -294h-132q0 133 -77.5 209.5t-216.5 76.5q-162 0 -271 -143.5t-109 -356.5q0 -156 82.5 -240t235.5 -84q113 0 199 69t113 181h138
q-42 -171 -165.5 -270.5t-294.5 -99.5q-201 0 -320.5 122t-119.5 326z" />
    <glyph glyph-name="Dcaron" unicode="&#x10e;" horiz-adv-x="1258" 
d="M890 1434h-132l-268 334h138l202 -258l290 258h156zM810 1332q228 0 358 -144.5t130 -393.5q0 -150 -44.5 -292t-124.5 -254t-202.5 -180t-266.5 -68h-550l236 1332h464zM450 1212l-192 -1094h378q110 0 201.5 46.5t150.5 119.5t100.5 166.5t59.5 183.5t18 174
q0 194 -97.5 299t-278.5 105h-340z" />
    <glyph glyph-name="dcaron" unicode="&#x10f;" horiz-adv-x="1186" 
d="M1284 1434l-252 -1434h-128l30 170q-135 -186 -346 -186q-191 0 -304.5 121t-113.5 323q0 172 67.5 314t186 223t262.5 81q139 0 230 -67t128 -187l112 642h128zM1448 1416h126l-140 -392h-114zM302 428q0 -155 82.5 -239.5t231.5 -84.5q156 0 269 141.5t113 356.5
q0 153 -83 238.5t-231 85.5q-158 0 -270 -141t-112 -357z" />
    <glyph glyph-name="Dcroat" unicode="&#x110;" horiz-adv-x="1438" 
d="M186 708h230l110 624h466q229 0 357.5 -144t128.5 -394q0 -150 -44.5 -292t-124 -254t-202 -180t-267.5 -68h-548l104 590h-232zM632 1212l-90 -504h410l-22 -118h-408l-84 -472h378q110 0 201.5 46.5t150.5 119.5t100.5 166.5t59.5 183.5t18 174q0 194 -97 299t-279 105
h-338z" />
    <glyph glyph-name="dcroat" unicode="&#x111;" horiz-adv-x="1240" 
d="M740 1294h392l24 140h128l-24 -140h170l-20 -106h-170l-208 -1188h-128l30 168q-136 -184 -346 -184q-191 0 -304.5 120t-113.5 322q0 172 67.5 314t186 223t262.5 81q139 0 230 -67t126 -187l70 398h-392zM302 426q0 -154 82.5 -238t231.5 -84q156 0 269 141t113 355
q0 153 -82.5 237.5t-231.5 84.5q-158 0 -270 -140.5t-112 -355.5z" />
    <glyph glyph-name="Emacron" unicode="&#x112;" horiz-adv-x="1090" 
d="M528 1584h626l-20 -112h-624zM1234 1332l-20 -122h-764l-82 -468h704l-22 -122h-704l-88 -500h762l-20 -120h-890l236 1332h888z" />
    <glyph glyph-name="emacron" unicode="&#x113;" horiz-adv-x="1122" 
d="M458 1294h624l-18 -112h-624zM170 428q0 126 37.5 238.5t104 196t164.5 132.5t214 49q150 0 256.5 -70.5t150 -187t19.5 -254.5l-10 -60h-804q-2 -16 -2 -52q0 -157 84.5 -238.5t245.5 -81.5q113 0 193 55.5t123 158.5h144q-61 -163 -179 -247.5t-283 -84.5
q-213 0 -335.5 119t-122.5 327zM698 928q-143 0 -244.5 -92.5t-137.5 -253.5h676q22 153 -61 249.5t-233 96.5z" />
    <glyph glyph-name="Ebreve" unicode="&#x114;" horiz-adv-x="1090" 
d="M1204 1728q-32 -135 -128 -215.5t-234 -80.5q-156 0 -238 80.5t-68 215.5h124q-13 -194 178 -194q188 0 244 194h122zM1234 1332l-20 -122h-764l-82 -468h704l-22 -122h-704l-88 -500h762l-20 -120h-890l236 1332h888z" />
    <glyph glyph-name="ebreve" unicode="&#x115;" horiz-adv-x="1122" 
d="M1134 1438q-33 -135 -129.5 -215.5t-232.5 -80.5q-157 0 -238.5 80.5t-69.5 215.5h124q-9 -194 180 -194q188 0 244 194h122zM170 428q0 126 37.5 238.5t104 196t164.5 132.5t214 49q150 0 256.5 -70.5t150 -187t19.5 -254.5l-10 -60h-804q-2 -16 -2 -52
q0 -157 84.5 -238.5t245.5 -81.5q113 0 193 55.5t123 158.5h144q-61 -163 -179 -247.5t-283 -84.5q-213 0 -335.5 119t-122.5 327zM698 928q-143 0 -244.5 -92.5t-137.5 -253.5h676q22 153 -61 249.5t-233 96.5z" />
    <glyph glyph-name="Edotaccent" unicode="&#x116;" horiz-adv-x="1090" 
d="M776 1600h154l-28 -166h-154zM1234 1332l-20 -122h-764l-82 -468h704l-22 -122h-704l-88 -500h762l-20 -120h-890l236 1332h888z" />
    <glyph glyph-name="edotaccent" unicode="&#x117;" horiz-adv-x="1122" 
d="M706 1310h154l-28 -166h-156zM170 428q0 126 37.5 238.5t104 196t164.5 132.5t214 49q150 0 256.5 -70.5t150 -187t19.5 -254.5l-10 -60h-804q-2 -16 -2 -52q0 -157 84.5 -238.5t245.5 -81.5q113 0 193 55.5t123 158.5h144q-61 -163 -179 -247.5t-283 -84.5
q-213 0 -335.5 119t-122.5 327zM698 928q-143 0 -244.5 -92.5t-137.5 -253.5h676q22 153 -61 249.5t-233 96.5z" />
    <glyph glyph-name="Eogonek" unicode="&#x118;" horiz-adv-x="1090" 
d="M960 0q-140 -93 -200 -171t-60 -167q0 -106 140 -106h128l-22 -120h-132q-109 0 -175.5 55t-66.5 147q0 110 72 203t206 159h-740l236 1332h888l-20 -122h-764l-82 -468h704l-22 -122h-704l-88 -500h762l-20 -120h-40z" />
    <glyph glyph-name="eogonek" unicode="&#x119;" horiz-adv-x="1122" 
d="M170 428q0 126 37.5 238.5t104 196t164.5 132.5t214 49q150 0 256.5 -70.5t150 -187t19.5 -254.5l-10 -60h-804q-2 -16 -2 -52q0 -157 84.5 -238.5t245.5 -81.5q113 0 193 55.5t123 158.5h144q-72 -193 -222 -274q-130 -90 -186 -165t-56 -161q0 -106 140 -106h128
l-20 -120h-134q-107 0 -173.5 55t-66.5 147q0 169 164 294q-12 -2 -36 -2q-213 0 -335.5 119t-122.5 327zM698 928q-143 0 -244.5 -92.5t-137.5 -253.5h676q22 153 -61 249.5t-233 96.5z" />
    <glyph glyph-name="Ecaron" unicode="&#x11a;" horiz-adv-x="1090" 
d="M882 1434h-132l-268 334h138l202 -258l290 258h156zM1234 1332l-20 -122h-764l-82 -468h704l-22 -122h-704l-88 -500h762l-20 -120h-890l236 1332h888z" />
    <glyph glyph-name="ecaron" unicode="&#x11b;" horiz-adv-x="1122" 
d="M812 1144h-132l-270 334h140l200 -258l292 258h156zM170 428q0 126 37.5 238.5t104 196t164.5 132.5t214 49q150 0 256.5 -70.5t150 -187t19.5 -254.5l-10 -60h-804q-2 -16 -2 -52q0 -157 84.5 -238.5t245.5 -81.5q113 0 193 55.5t123 158.5h144q-61 -163 -179 -247.5
t-283 -84.5q-213 0 -335.5 119t-122.5 327zM698 928q-143 0 -244.5 -92.5t-137.5 -253.5h676q22 153 -61 249.5t-233 96.5z" />
    <glyph glyph-name="Gcircumflex" unicode="&#x11c;" horiz-adv-x="1330" 
d="M898 1768h130l268 -334h-134l-202 258l-290 -258h-160zM196 544q0 172 48.5 322t133.5 256t205.5 167t258.5 61q241 0 385.5 -134t144.5 -358h-132q0 176 -107 274t-299 98q-146 0 -261 -89t-179 -247t-64 -358q0 -199 101.5 -314.5t278.5 -115.5q165 0 289 125t173 343
h-416l20 114h568l-122 -688h-106l40 264q-83 -135 -202.5 -207.5t-263.5 -72.5q-219 0 -356.5 155t-137.5 405z" />
    <glyph glyph-name="gcircumflex" unicode="&#x11d;" horiz-adv-x="1140" 
d="M738 1478h130l268 -334h-134l-202 258l-290 -258h-160zM1212 1024l-190 -1086q-27 -157 -148 -252.5t-298 -95.5q-214 0 -343 101t-129 267h128q0 -112 97.5 -182t256.5 -70q129 0 210.5 67.5t101.5 184.5l42 240q-67 -87 -157.5 -134.5t-194.5 -47.5
q-185 0 -297.5 118.5t-112.5 313.5q0 165 66.5 302t182 215.5t255.5 78.5q134 0 228 -63.5t136 -180.5l38 224h128zM308 450q0 -150 84 -233t234 -83q128 0 222 80t132 218l20 116q4 36 4 58q0 150 -84.5 234t-235.5 84q-166 0 -271 -132.5t-105 -341.5z" />
    <glyph glyph-name="Gbreve" unicode="&#x11e;" horiz-adv-x="1330" 
d="M1292 1728q-32 -135 -128.5 -215.5t-233.5 -80.5q-156 0 -238 80.5t-68 215.5h124q-13 -194 178 -194q188 0 244 194h122zM196 544q0 172 48.5 322t133.5 256t205.5 167t258.5 61q241 0 385.5 -134t144.5 -358h-132q0 176 -107 274t-299 98q-146 0 -261 -89t-179 -247
t-64 -358q0 -199 101.5 -314.5t278.5 -115.5q165 0 289 125t173 343h-416l20 114h568l-122 -688h-106l40 264q-83 -135 -202.5 -207.5t-263.5 -72.5q-219 0 -356.5 155t-137.5 405z" />
    <glyph glyph-name="gbreve" unicode="&#x11f;" horiz-adv-x="1140" 
d="M1132 1438q-32 -135 -128 -215.5t-234 -80.5q-156 0 -238 80.5t-68 215.5h124q-13 -194 178 -194q188 0 244 194h122zM1212 1024l-190 -1086q-27 -157 -148 -252.5t-298 -95.5q-214 0 -343 101t-129 267h128q0 -112 97.5 -182t256.5 -70q129 0 210.5 67.5t101.5 184.5
l42 240q-67 -87 -157.5 -134.5t-194.5 -47.5q-185 0 -297.5 118.5t-112.5 313.5q0 165 66.5 302t182 215.5t255.5 78.5q134 0 228 -63.5t136 -180.5l38 224h128zM308 450q0 -150 84 -233t234 -83q128 0 222 80t132 218l20 116q4 36 4 58q0 150 -84.5 234t-235.5 84
q-166 0 -271 -132.5t-105 -341.5z" />
    <glyph glyph-name="Gdotaccent" unicode="&#x120;" horiz-adv-x="1330" 
d="M864 1600h154l-28 -166h-154zM196 544q0 172 48.5 322t133.5 256t205.5 167t258.5 61q241 0 385.5 -134t144.5 -358h-132q0 176 -107 274t-299 98q-146 0 -261 -89t-179 -247t-64 -358q0 -199 101.5 -314.5t278.5 -115.5q165 0 289 125t173 343h-416l20 114h568
l-122 -688h-106l40 264q-83 -135 -202.5 -207.5t-263.5 -72.5q-219 0 -356.5 155t-137.5 405z" />
    <glyph glyph-name="gdotaccent" unicode="&#x121;" horiz-adv-x="1140" 
d="M704 1310h154l-28 -166h-154zM1212 1024l-190 -1086q-27 -157 -148 -252.5t-298 -95.5q-214 0 -343 101t-129 267h128q0 -112 97.5 -182t256.5 -70q129 0 210.5 67.5t101.5 184.5l42 240q-67 -87 -157.5 -134.5t-194.5 -47.5q-185 0 -297.5 118.5t-112.5 313.5
q0 165 66.5 302t182 215.5t255.5 78.5q134 0 228 -63.5t136 -180.5l38 224h128zM308 450q0 -150 84 -233t234 -83q128 0 222 80t132 218l20 116q4 36 4 58q0 150 -84.5 234t-235.5 84q-166 0 -271 -132.5t-105 -341.5z" />
    <glyph glyph-name="uni0122" unicode="&#x122;" horiz-adv-x="1330" 
d="M196 544q0 172 48.5 322t133.5 256t205.5 167t258.5 61q241 0 385.5 -134t144.5 -358h-132q0 176 -107 274t-299 98q-146 0 -261 -89t-179 -247t-64 -358q0 -199 101.5 -314.5t278.5 -115.5q165 0 289 125t173 343h-416l20 114h568l-122 -688h-106l40 264
q-83 -135 -202.5 -207.5t-263.5 -72.5q-219 0 -356.5 155t-137.5 405zM574 -76h156l-38 -198q-18 -107 -72 -156.5t-120 -49.5h-30l14 80h22q50 0 82 29.5t46 108.5l4 20h-92z" />
    <glyph glyph-name="uni0123" unicode="&#x123;" horiz-adv-x="1140" 
d="M998 1144h-156l36 198q18 107 72 156.5t120 49.5h32l-14 -78h-24q-50 0 -81.5 -30t-44.5 -110l-6 -20h94zM1212 1024l-190 -1086q-27 -157 -148 -252.5t-298 -95.5q-214 0 -343 101t-129 267h128q0 -112 97.5 -182t256.5 -70q129 0 210.5 67.5t101.5 184.5l42 240
q-67 -87 -157.5 -134.5t-194.5 -47.5q-185 0 -297.5 118.5t-112.5 313.5q0 165 66.5 302t182 215.5t255.5 78.5q134 0 228 -63.5t136 -180.5l38 224h128zM308 450q0 -150 84 -233t234 -83q128 0 222 80t132 218l20 116q4 36 4 58q0 150 -84.5 234t-235.5 84
q-166 0 -271 -132.5t-105 -341.5z" />
    <glyph glyph-name="Hcircumflex" unicode="&#x124;" horiz-adv-x="1256" 
d="M876 1768h130l268 -334h-134l-202 258l-290 -258h-160zM346 1332h126l-104 -582h784l104 582h126l-236 -1332h-126l110 628h-782l-110 -628h-128z" />
    <glyph glyph-name="hcircumflex" unicode="&#x125;" horiz-adv-x="1060" 
d="M422 1880h130l268 -334h-134l-200 258l-292 -258h-160zM936 594q27 150 -38 239t-200 89t-228 -78t-120 -212l-110 -632h-128l248 1434h128l-98 -564q67 82 157 127t191 45q166 0 262.5 -128.5t63.5 -305.5l-110 -608h-126z" />
    <glyph glyph-name="Hbar" unicode="&#x126;" horiz-adv-x="1336" 
d="M232 1092h110l42 240h126l-42 -240h784l42 240h126l-42 -240h110l-18 -110h-110l-174 -982h-126l110 628h-784l-110 -628h-126l174 982h-112zM408 746h784l42 236h-784z" />
    <glyph glyph-name="hbar" unicode="&#x127;" horiz-adv-x="1122" 
d="M998 594q28 148 -36.5 237t-199.5 89t-229 -77.5t-121 -210.5l-110 -632h-126l206 1188h-172l20 106h170l24 140h126l-24 -140h394l-20 -106h-392l-56 -322q65 83 156 129.5t192 46.5q110 0 193.5 -59.5t120 -160t14.5 -216.5l-110 -606h-128z" />
    <glyph glyph-name="Itilde" unicode="&#x128;" 
d="M308 1728q31 0 55.5 -8.5t45 -27t32 -31.5t29.5 -39q17 -26 23.5 -35t21.5 -26t29.5 -23t33.5 -6q48 0 85 50.5t51 133.5h104q-22 -133 -90 -211.5t-160 -78.5q-25 0 -46.5 6.5t-33.5 12t-30 24t-21.5 23t-22.5 28.5q-5 8 -22.5 34.5t-25.5 36t-25 20.5t-35 11
q-48 0 -86.5 -51.5t-51.5 -136.5h-110q26 139 91 216.5t159 77.5zM346 1332h126l-234 -1332h-128z" />
    <glyph glyph-name="itilde" unicode="&#x129;" 
d="M256 1440q31 0 55.5 -8.5t45 -27t32 -31.5t29.5 -39q20 -31 31 -45.5t32.5 -29.5t44.5 -15q48 0 85 50.5t51 133.5h104q-22 -133 -90 -211.5t-160 -78.5q-24 0 -45.5 6.5t-34 12.5t-29.5 23t-22.5 24t-22.5 28q-5 7 -22.5 34t-25.5 36.5t-25 20.5t-35 11q-48 0 -85.5 -51
t-52.5 -137h-110q26 139 91 216.5t159 77.5zM292 1024h126l-180 -1024h-128z" />
    <glyph glyph-name="Imacron" unicode="&#x12a;" 
d="M130 1584h624l-18 -112h-626zM346 1332h126l-234 -1332h-128z" />
    <glyph glyph-name="imacron" unicode="&#x12b;" 
d="M78 1296h624l-18 -112h-626zM292 1024h126l-180 -1024h-128z" />
    <glyph glyph-name="Ibreve" unicode="&#x12c;" 
d="M804 1728q-32 -135 -128 -215.5t-232 -80.5q-157 0 -238.5 80.5t-69.5 215.5h124q-9 -194 178 -194q191 0 244 194h122zM346 1332h126l-234 -1332h-128z" />
    <glyph glyph-name="ibreve" unicode="&#x12d;" 
d="M754 1440q-33 -135 -129.5 -215.5t-232.5 -80.5q-157 0 -238.5 80.5t-69.5 215.5h124q-9 -194 180 -194t242 194h124zM292 1024h126l-180 -1024h-128z" />
    <glyph glyph-name="Iogonek" unicode="&#x12e;" 
d="M238 0q-140 -93 -200 -171t-60 -167q0 -106 140 -106h126l-20 -120h-132q-109 0 -175.5 55t-66.5 147q0 110 72 203t206 159h-18l236 1332h126z" />
    <glyph glyph-name="iogonek" unicode="&#x12f;" 
d="M334 1326h156l-30 -156h-154zM242 0q-141 -93 -201.5 -171t-60.5 -167q0 -106 140 -106h128l-20 -120h-132q-109 0 -175.5 55t-66.5 147q0 111 71.5 203.5t206.5 158.5h-20l180 1024h130z" />
    <glyph glyph-name="Idotaccent" unicode="&#x130;" 
d="M378 1600h154l-28 -166h-156zM346 1332h126l-234 -1332h-128z" />
    <glyph glyph-name="dotlessi" unicode="&#x131;" 
d="M292 1024h126l-180 -1024h-128z" />
    <glyph glyph-name="IJ" unicode="&#x132;" horiz-adv-x="1000" 
d="M420 118h126q113 0 187 67.5t105 238.5l162 908h126l-164 -922q-20 -113 -60.5 -195.5t-94 -128t-110 -66t-119.5 -20.5h-176zM346 1332h126l-234 -1332h-128z" />
    <glyph glyph-name="ij" unicode="&#x133;" horiz-adv-x="694" 
d="M680 1326h158l-30 -156h-154zM334 1326h156l-30 -156h-154zM242 -206h64q57 0 93.5 33t50.5 117l192 1080h128l-194 -1092q-24 -134 -103 -195t-183 -61h-70zM292 1024h130l-180 -1024h-130z" />
    <glyph glyph-name="Jcircumflex" unicode="&#x134;" horiz-adv-x="652" 
d="M716 1768h130l268 -334h-134l-202 258l-290 -258h-160zM72 118h126q113 0 187 67.5t105 238.5l162 908h126l-164 -922q-20 -113 -60.5 -195.5t-94 -128t-110 -66t-119.5 -20.5h-176z" />
    <glyph glyph-name="jcircumflex" unicode="&#x135;" 
d="M358 1480h130l270 -334h-136l-200 258l-292 -258h-158zM-108 -206h64q57 0 94 33t52 117l190 1080h126l-194 -1092q-22 -133 -100 -194.5t-178 -61.5h-76z" />
    <glyph glyph-name="uni0136" unicode="&#x136;" horiz-adv-x="1090" 
d="M346 1332h126l-122 -690l748 690h182l-710 -642l492 -690h-144l-436 604l-162 -142l-82 -462h-128zM466 -76h156l-36 -198q-18 -107 -72 -156.5t-120 -49.5h-32l14 80h24q51 0 82 29.5t44 108.5l6 20h-94z" />
    <glyph glyph-name="uni0137" unicode="&#x137;" horiz-adv-x="982" 
d="M894 1024h184l-538 -506l384 -518h-150l-326 432l-162 -142l-50 -290h-126l252 1434h126l-168 -960zM416 -76h156l-36 -198q-18 -107 -72 -156.5t-120 -49.5h-32l14 80h24q51 0 82 29.5t44 108.5l4 20h-92z" />
    <glyph glyph-name="kgreenlandic" unicode="&#x138;" horiz-adv-x="984" 
d="M288 1024h126l-96 -552l576 552h184l-538 -506l384 -518h-150l-326 432l-162 -144l-50 -288h-126z" />
    <glyph glyph-name="Lacute" unicode="&#x139;" horiz-adv-x="968" 
d="M744 1750l-306 -316h-118l260 316h164zM896 0h-786l236 1332h126l-214 -1212h660z" />
    <glyph glyph-name="lacute" unicode="&#x13a;" 
d="M758 1862l-306 -316h-118l260 316h164zM364 1434h130l-252 -1434h-130z" />
    <glyph glyph-name="uni013B" unicode="&#x13b;" horiz-adv-x="968" 
d="M896 0h-786l236 1332h126l-214 -1212h660zM418 -76h156l-36 -198q-18 -107 -72 -156.5t-120 -49.5h-30l12 80h24q50 0 82 29.5t46 108.5l4 20h-94z" />
    <glyph glyph-name="uni013C" unicode="&#x13c;" 
d="M364 1434h130l-252 -1434h-130zM82 -76h156l-36 -198q-18 -107 -72 -156.5t-120 -49.5h-30l12 80h24q50 0 82 29.5t46 108.5l4 20h-94z" />
    <glyph glyph-name="Lcaron" unicode="&#x13d;" horiz-adv-x="968" 
d="M724 1344h126l-140 -390h-114zM896 0h-786l236 1332h126l-214 -1212h660z" />
    <glyph glyph-name="lcaron" unicode="&#x13e;" horiz-adv-x="392" 
d="M364 1434h130l-252 -1434h-130zM656 1416h128l-142 -392h-114z" />
    <glyph glyph-name="Ldot" unicode="&#x13f;" horiz-adv-x="968" 
d="M896 0h-786l236 1332h126l-214 -1212h660zM688 756h154l-28 -162h-156z" />
    <glyph glyph-name="ldot" unicode="&#x140;" horiz-adv-x="694" 
d="M364 1434h130l-252 -1434h-130zM574 738h156l-30 -164h-156z" />
    <glyph glyph-name="Lslash" unicode="&#x141;" horiz-adv-x="1030" 
d="M122 690l178 36l106 606h128l-102 -580l356 70l-20 -116l-356 -70l-92 -516h660l-22 -120h-786l108 610l-178 -36z" />
    <glyph glyph-name="lslash" unicode="&#x142;" horiz-adv-x="486" 
d="M128 728l194 36l120 670h126l-116 -646l180 32l-20 -116l-180 -32l-118 -672h-126l114 648l-194 -34z" />
    <glyph glyph-name="Nacute" unicode="&#x143;" horiz-adv-x="1260" 
d="M1218 1750l-306 -316h-118l260 316h164zM1260 1332h126l-236 -1332h-132l-574 1170l-206 -1170h-128l236 1332h162l552 -1130z" />
    <glyph glyph-name="nacute" unicode="&#x144;" horiz-adv-x="1060" 
d="M1062 1462l-306 -316h-118l260 316h164zM290 1024h128l-26 -152q65 80 155 125t191 45q166 0 262.5 -128.5t63.5 -305.5l-110 -608h-126l108 594q27 150 -38 239t-200 89q-132 0 -224 -74.5t-122 -203.5l-112 -644h-128z" />
    <glyph glyph-name="uni0145" unicode="&#x145;" horiz-adv-x="1260" 
d="M1260 1332h126l-236 -1332h-132l-574 1170l-206 -1170h-128l236 1332h162l552 -1130zM566 -76h156l-36 -198q-18 -107 -72 -156.5t-120 -49.5h-32l14 80h24q51 0 82 29.5t44 108.5l4 20h-92z" />
    <glyph glyph-name="uni0146" unicode="&#x146;" horiz-adv-x="1060" 
d="M290 1024h128l-26 -152q65 80 155 125t191 45q166 0 262.5 -128.5t63.5 -305.5l-110 -608h-126l108 594q27 150 -38 239t-200 89q-132 0 -224 -74.5t-122 -203.5l-112 -644h-128zM458 -76h156l-36 -198q-18 -107 -72 -156.5t-120 -49.5h-30l12 80h24q50 0 82 29.5
t46 108.5l4 20h-92z" />
    <glyph glyph-name="Ncaron" unicode="&#x147;" horiz-adv-x="1260" 
d="M960 1434h-132l-270 334h140l200 -258l292 258h154zM1260 1332h126l-236 -1332h-132l-574 1170l-206 -1170h-128l236 1332h162l552 -1130z" />
    <glyph glyph-name="ncaron" unicode="&#x148;" horiz-adv-x="1060" 
d="M804 1146h-132l-270 334h140l200 -258l292 258h154zM290 1024h128l-26 -152q65 80 155 125t191 45q166 0 262.5 -128.5t63.5 -305.5l-110 -608h-126l108 594q27 150 -38 239t-200 89q-132 0 -224 -74.5t-122 -203.5l-112 -644h-128z" />
    <glyph glyph-name="napostrophe" unicode="&#x149;" horiz-adv-x="1334" 
d="M368 1402h154l-36 -200q-18 -106 -72 -155t-120 -49h-32l14 78h24q50 0 81 29t45 109l4 24h-92zM564 1024h128l-26 -152q65 80 155.5 125t190.5 45q166 0 262.5 -128.5t63.5 -305.5l-108 -608h-126l106 594q27 150 -38 239t-200 89q-132 0 -224 -74.5t-122 -203.5
l-112 -644h-128z" />
    <glyph glyph-name="Eng" unicode="&#x14a;" horiz-adv-x="1260" 
d="M1258 1332h128l-246 -1398q-24 -139 -107.5 -216.5t-206.5 -77.5h-126l20 118h100q84 0 131 44.5t65 143.5l8 60l-580 1164l-206 -1170h-128l236 1332h158l560 -1112z" />
    <glyph glyph-name="eng" unicode="&#x14b;" horiz-adv-x="1060" 
d="M292 1024h126l-28 -156q67 82 159 130t189 48q185 0 273 -105.5t55 -286.5l-128 -720q-22 -139 -102 -216.5t-200 -77.5h-136l20 118h102q84 0 130 44.5t62 143.5l122 682q23 146 -31.5 221t-184.5 75q-136 0 -241 -80t-129 -202l-112 -642h-128z" />
    <glyph glyph-name="Omacron" unicode="&#x14c;" horiz-adv-x="1366" 
d="M638 1584h626l-20 -112h-624zM196 542q0 229 87 414.5t240 290.5t341 105q237 0 386.5 -161.5t149.5 -416.5q0 -232 -82.5 -411.5t-232 -279t-343.5 -99.5q-242 0 -394 155.5t-152 402.5zM1270 782q0 212 -110 330t-310 118q-149 0 -268.5 -89.5t-186.5 -247.5t-67 -355
q0 -205 112.5 -318.5t315.5 -113.5q229 0 371.5 187t142.5 489z" />
    <glyph glyph-name="omacron" unicode="&#x14d;" horiz-adv-x="1126" 
d="M442 1296h624l-18 -112h-624zM170 430q0 173 68.5 314t188.5 221.5t267 80.5q197 0 315.5 -121t118.5 -325q0 -172 -69 -314t-189 -223t-266 -81q-197 0 -315.5 122t-118.5 326zM998 604q0 152 -83 237t-231 85q-158 0 -270 -142t-112 -358q0 -154 82.5 -238t231.5 -84
q156 0 269 142.5t113 357.5z" />
    <glyph glyph-name="Obreve" unicode="&#x14e;" horiz-adv-x="1366" 
d="M1314 1728q-32 -135 -128 -215.5t-234 -80.5q-156 0 -238 80.5t-68 215.5h124q-6 -94 38.5 -144t139.5 -50q188 0 244 194h122zM196 542q0 229 87 414.5t240 290.5t341 105q237 0 386.5 -161.5t149.5 -416.5q0 -232 -82.5 -411.5t-232 -279t-343.5 -99.5
q-242 0 -394 155.5t-152 402.5zM1270 782q0 212 -110 330t-310 118q-149 0 -268.5 -89.5t-186.5 -247.5t-67 -355q0 -205 112.5 -318.5t315.5 -113.5q229 0 371.5 187t142.5 489z" />
    <glyph glyph-name="obreve" unicode="&#x14f;" horiz-adv-x="1126" 
d="M1118 1440q-33 -135 -129.5 -215.5t-232.5 -80.5q-157 0 -238.5 80.5t-67.5 215.5h124q-13 -194 178 -194q188 0 244 194h122zM170 430q0 173 68.5 314t188.5 221.5t267 80.5q197 0 315.5 -121t118.5 -325q0 -172 -69 -314t-189 -223t-266 -81q-197 0 -315.5 122
t-118.5 326zM998 604q0 152 -83 237t-231 85q-158 0 -270 -142t-112 -358q0 -154 82.5 -238t231.5 -84q156 0 269 142.5t113 357.5z" />
    <glyph glyph-name="Ohungarumlaut" unicode="&#x150;" horiz-adv-x="1366" 
d="M1436 1750l-330 -316h-106l284 316h152zM1132 1750l-332 -316h-106l284 316h154zM196 542q0 229 87 414.5t240 290.5t341 105q237 0 386.5 -161.5t149.5 -416.5q0 -232 -82.5 -411.5t-232 -279t-343.5 -99.5q-242 0 -394 155.5t-152 402.5zM1270 782q0 212 -110 330
t-310 118q-149 0 -268.5 -89.5t-186.5 -247.5t-67 -355q0 -205 112.5 -318.5t315.5 -113.5q229 0 371.5 187t142.5 489z" />
    <glyph glyph-name="ohungarumlaut" unicode="&#x151;" horiz-adv-x="1126" 
d="M1240 1462l-330 -316h-106l284 316h152zM936 1462l-332 -316h-106l282 316h156zM170 430q0 173 68.5 314t188.5 221.5t267 80.5q197 0 315.5 -121t118.5 -325q0 -172 -69 -314t-189 -223t-266 -81q-197 0 -315.5 122t-118.5 326zM998 604q0 152 -83 237t-231 85
q-158 0 -270 -142t-112 -358q0 -154 82.5 -238t231.5 -84q156 0 269 142.5t113 357.5z" />
    <glyph glyph-name="OE" unicode="&#x152;" horiz-adv-x="2126" 
d="M196 542q0 229 85 414.5t235 290.5t334 105q174 0 301 -98.5t175 -267.5l60 346h890l-20 -122h-766l-82 -468h706l-22 -122h-706l-88 -500h764l-20 -120h-890l40 228q-84 -117 -203 -180.5t-263 -63.5q-234 0 -382 155.5t-148 402.5zM1270 782q0 212 -110 330t-310 118
q-149 0 -268.5 -89.5t-186.5 -247.5t-67 -355q0 -205 112.5 -318.5t315.5 -113.5q229 0 371.5 187t142.5 489z" />
    <glyph glyph-name="oe" unicode="&#x153;" horiz-adv-x="1938" 
d="M170 430q0 172 68 313.5t187.5 222t264.5 80.5q144 0 247.5 -67.5t150.5 -188.5q68 119 177.5 186.5t248.5 67.5q148 0 254 -70.5t149 -187t19 -254.5l-10 -60h-804q-2 -16 -2 -52q0 -157 84.5 -238.5t245.5 -81.5q113 0 193 55.5t123 158.5h142q-60 -163 -176.5 -247.5
t-279.5 -84.5q-158 0 -267.5 68t-156.5 192q-70 -121 -182.5 -190.5t-245.5 -69.5q-195 0 -312.5 122t-117.5 326zM1518 928q-143 0 -244.5 -92.5t-137.5 -253.5h674q22 153 -60 249.5t-232 96.5zM998 604q0 152 -83 237t-231 85q-158 0 -270 -142t-112 -358
q0 -154 82.5 -238t231.5 -84q156 0 269 142.5t113 357.5z" />
    <glyph glyph-name="Racute" unicode="&#x154;" horiz-adv-x="1156" 
d="M1148 1750l-306 -316h-118l260 316h164zM664 560h-328l-98 -560h-128l236 1332h534q167 0 263.5 -90t96.5 -246q0 -151 -94.5 -259t-249.5 -137q103 -24 147.5 -91.5t44.5 -194.5v-314h-128v298q0 145 -66 203.5t-230 58.5zM856 1214h-406l-92 -538h406q155 0 247.5 90.5
t92.5 237.5q0 102 -64 156t-184 54z" />
    <glyph glyph-name="racute" unicode="&#x155;" horiz-adv-x="644" 
d="M866 1460l-308 -316h-116l260 316h164zM294 1024h130l-26 -142q62 73 147 111.5t169 38.5h46l-24 -132h-42q-113 0 -207.5 -61t-124.5 -165l-118 -674h-128z" />
    <glyph glyph-name="uni0156" unicode="&#x156;" horiz-adv-x="1156" 
d="M664 560h-328l-98 -560h-128l236 1332h534q167 0 263.5 -90t96.5 -246q0 -151 -94.5 -259t-249.5 -137q103 -24 147.5 -91.5t44.5 -194.5v-314h-128v298q0 145 -66 203.5t-230 58.5zM856 1214h-406l-92 -538h406q155 0 247.5 90.5t92.5 237.5q0 102 -64 156t-184 54z
M514 -76h156l-36 -198q-18 -107 -72 -156.5t-120 -49.5h-30l12 80h24q50 0 82 29.5t46 108.5l4 20h-94z" />
    <glyph glyph-name="uni0157" unicode="&#x157;" horiz-adv-x="644" 
d="M294 1024h130l-26 -142q62 73 147 111.5t169 38.5h46l-24 -132h-42q-113 0 -207.5 -61t-124.5 -165l-118 -674h-128zM88 -76h156l-36 -198q-18 -107 -72 -156.5t-120 -49.5h-32l14 80h24q51 0 82 29.5t44 108.5l4 20h-92z" />
    <glyph glyph-name="Rcaron" unicode="&#x158;" horiz-adv-x="1156" 
d="M890 1434h-132l-268 334h138l200 -258l292 258h156zM664 560h-328l-98 -560h-128l236 1332h534q167 0 263.5 -90t96.5 -246q0 -151 -94.5 -259t-249.5 -137q103 -24 147.5 -91.5t44.5 -194.5v-314h-128v298q0 145 -66 203.5t-230 58.5zM856 1214h-406l-92 -538h406
q155 0 247.5 90.5t92.5 237.5q0 102 -64 156t-184 54z" />
    <glyph glyph-name="rcaron" unicode="&#x159;" horiz-adv-x="644" 
d="M604 1144h-132l-268 336h138l202 -260l290 260h156zM294 1024h130l-26 -142q62 73 147 111.5t169 38.5h46l-24 -132h-42q-113 0 -207.5 -61t-124.5 -165l-118 -674h-128z" />
    <glyph glyph-name="Sacute" unicode="&#x15a;" horiz-adv-x="1176" 
d="M1128 1750l-306 -316h-116l258 316h164zM766 590l-156 34q-340 78 -340 318q0 187 128 297.5t344 110.5q231 0 356.5 -114.5t125.5 -325.5h-130q0 320 -358 320q-147 0 -240.5 -75.5t-93.5 -194.5q0 -153 246 -206l152 -34q178 -39 265 -120.5t87 -209.5
q0 -189 -125.5 -298.5t-340.5 -109.5q-242 0 -381 118.5t-139 323.5h134q0 -156 101 -239t293 -83q144 0 235 73t91 189q0 164 -254 226z" />
    <glyph glyph-name="sacute" unicode="&#x15b;" horiz-adv-x="1016" 
d="M1004 1462l-306 -316h-118l260 316h164zM656 438l-152 36q-141 32 -207.5 95t-66.5 167q0 141 106.5 226.5t289.5 85.5q180 0 286.5 -92.5t109.5 -261.5h-126q0 118 -72.5 178t-211.5 60q-119 0 -186.5 -50t-67.5 -134q0 -61 42.5 -96t139.5 -56l156 -32
q141 -30 209.5 -97.5t68.5 -178.5q0 -143 -103.5 -226.5t-290.5 -83.5q-201 0 -315.5 94.5t-114.5 259.5h132q0 -116 78.5 -178t221.5 -62q126 0 195 48t69 130q0 65 -45 104.5t-145 63.5z" />
    <glyph glyph-name="Scircumflex" unicode="&#x15c;" horiz-adv-x="1176" 
d="M796 1768h130l268 -334h-134l-202 258l-290 -258h-160zM766 590l-156 34q-340 78 -340 318q0 187 128 297.5t344 110.5q231 0 356.5 -114.5t125.5 -325.5h-130q0 320 -358 320q-147 0 -240.5 -75.5t-93.5 -194.5q0 -153 246 -206l152 -34q178 -39 265 -120.5t87 -209.5
q0 -189 -125.5 -298.5t-340.5 -109.5q-242 0 -381 118.5t-139 323.5h134q0 -156 101 -239t293 -83q144 0 235 73t91 189q0 164 -254 226z" />
    <glyph glyph-name="scircumflex" unicode="&#x15d;" horiz-adv-x="1016" 
d="M674 1480h128l270 -334h-136l-200 258l-292 -258h-158zM656 438l-152 36q-141 32 -207.5 95t-66.5 167q0 141 106.5 226.5t289.5 85.5q180 0 286.5 -92.5t109.5 -261.5h-126q0 118 -72.5 178t-211.5 60q-119 0 -186.5 -50t-67.5 -134q0 -61 42.5 -96t139.5 -56l156 -32
q141 -30 209.5 -97.5t68.5 -178.5q0 -143 -103.5 -226.5t-290.5 -83.5q-201 0 -315.5 94.5t-114.5 259.5h132q0 -116 78.5 -178t221.5 -62q126 0 195 48t69 130q0 65 -45 104.5t-145 63.5z" />
    <glyph glyph-name="Scedilla" unicode="&#x15e;" horiz-adv-x="1176" 
d="M766 590l-156 34q-340 78 -340 318q0 187 128 297.5t344 110.5q231 0 356.5 -114.5t125.5 -325.5h-130q0 320 -358 320q-147 0 -240.5 -75.5t-93.5 -194.5q0 -153 246 -206l152 -34q178 -39 265 -120.5t87 -209.5q0 -189 -125.5 -298.5t-340.5 -109.5h-32l-34 -94h32
q80 0 126 -53t46 -133q0 -117 -75 -183.5t-209 -66.5h-204l22 116h166q84 0 133 37.5t49 102.5q0 74 -96 74h-68l-40 64l54 146q-184 30 -287 143.5t-103 288.5h134q0 -156 101 -239t293 -83q144 0 235 73t91 189q0 164 -254 226z" />
    <glyph glyph-name="scedilla" unicode="&#x15f;" horiz-adv-x="1016" 
d="M656 438l-152 36q-141 32 -207.5 95t-66.5 167q0 141 106.5 226.5t289.5 85.5q180 0 286.5 -92.5t109.5 -261.5h-126q0 118 -72.5 178t-211.5 60q-119 0 -186.5 -50t-67.5 -134q0 -61 42.5 -96t139.5 -56l156 -32q141 -30 209.5 -97.5t68.5 -178.5q0 -143 -103.5 -226.5
t-288.5 -83.5l-32 -90h32q79 0 125.5 -53.5t46.5 -132.5q0 -117 -75.5 -183.5t-208.5 -66.5h-204l20 116h166q84 0 133 37.5t49 102.5q0 74 -96 74h-68l-38 64l52 140q-158 21 -246 111.5t-88 234.5h132q0 -116 78.5 -178t221.5 -62q126 0 195 48t69 130q0 65 -45 104.5
t-145 63.5z" />
    <glyph glyph-name="Scaron" unicode="&#x160;" horiz-adv-x="1176" 
d="M868 1434h-132l-268 334h138l202 -258l290 258h156zM766 590l-156 34q-340 78 -340 318q0 187 128 297.5t344 110.5q231 0 356.5 -114.5t125.5 -325.5h-130q0 320 -358 320q-147 0 -240.5 -75.5t-93.5 -194.5q0 -153 246 -206l152 -34q178 -39 265 -120.5t87 -209.5
q0 -189 -125.5 -298.5t-340.5 -109.5q-242 0 -381 118.5t-139 323.5h134q0 -156 101 -239t293 -83q144 0 235 73t91 189q0 164 -254 226z" />
    <glyph glyph-name="scaron" unicode="&#x161;" horiz-adv-x="1016" 
d="M746 1146h-132l-270 334h140l200 -258l292 258h156zM656 438l-152 36q-141 32 -207.5 95t-66.5 167q0 141 106.5 226.5t289.5 85.5q180 0 286.5 -92.5t109.5 -261.5h-126q0 118 -72.5 178t-211.5 60q-119 0 -186.5 -50t-67.5 -134q0 -61 42.5 -96t139.5 -56l156 -32
q141 -30 209.5 -97.5t68.5 -178.5q0 -143 -103.5 -226.5t-290.5 -83.5q-201 0 -315.5 94.5t-114.5 259.5h132q0 -116 78.5 -178t221.5 -62q126 0 195 48t69 130q0 65 -45 104.5t-145 63.5z" />
    <glyph glyph-name="uni0162" unicode="&#x162;" horiz-adv-x="1074" 
d="M1240 1332l-22 -122h-404l-212 -1210h-14l-40 -112h32q79 0 125.5 -53.5t46.5 -132.5q0 -117 -75.5 -183.5t-208.5 -66.5h-204l20 116h166q84 0 133 37.5t49 102.5q0 74 -96 74h-68l-38 64l56 154h-10l212 1210h-406l24 122h934z" />
    <glyph glyph-name="uni0163" unicode="&#x163;" horiz-adv-x="650" 
d="M602 116l-20 -116h-44l-40 -112h32q80 0 126 -53t46 -133q0 -117 -75 -183.5t-209 -66.5h-204l22 116h166q84 0 133 37.5t49 102.5q0 36 -25.5 55t-70.5 19h-68l-40 64l60 158q-76 17 -114 77t-18 171l114 656h-192l22 116h190l48 266h130l-48 -266h190l-20 -116h-190
l-114 -640q-15 -86 7 -119t75 -33h82z" />
    <glyph glyph-name="Tcaron" unicode="&#x164;" horiz-adv-x="1074" 
d="M840 1434h-132l-268 334h138l202 -258l290 258h156zM1240 1332l-22 -122h-404l-212 -1210h-126l212 1210h-406l24 122h934z" />
    <glyph glyph-name="tcaron" unicode="&#x165;" horiz-adv-x="660" 
d="M816 1512h128l-142 -392h-114zM602 116l-20 -116h-90q-46 0 -82.5 13t-65.5 42.5t-37.5 78t1.5 118.5l114 656h-192l22 116h190l48 266h130l-48 -266h190l-20 -116h-190l-114 -640q-15 -86 7 -119t75 -33h82z" />
    <glyph glyph-name="Tbar" unicode="&#x166;" horiz-adv-x="1074" 
d="M278 700h320l90 510h-404l20 122h936l-22 -122h-402l-92 -510h324l-20 -118h-324l-102 -582h-126l102 582h-320z" />
    <glyph glyph-name="tbar" unicode="&#x167;" horiz-adv-x="650" 
d="M600 116l-18 -116h-90q-45 0 -82 13t-66.5 42.5t-38.5 78t1 118.5l46 258h-194l20 106h192l52 294h-192l20 114h192l48 266h126l-48 -266h194l-22 -114h-192l-50 -294h192l-20 -106h-192l-42 -244q-15 -84 7 -117t75 -33h82z" />
    <glyph glyph-name="Utilde" unicode="&#x168;" horiz-adv-x="1194" 
d="M744 1728q30 0 54.5 -8.5t44.5 -27t31.5 -31.5t29.5 -39q20 -31 31 -45.5t32.5 -29.5t44.5 -15q48 0 85 50.5t51 133.5h104q-22 -133 -90 -211.5t-160 -78.5q-30 0 -53.5 7t-42.5 24t-28.5 28t-27.5 35q-7 10 -24 35t-26 35.5t-25.5 21t-34.5 10.5q-48 0 -85.5 -51
t-52.5 -137h-110q26 139 91.5 216.5t160.5 77.5zM332 1332h130l-140 -792q-36 -201 55.5 -316.5t286.5 -115.5q157 0 258.5 97t133.5 273l148 854h128l-152 -868q-39 -218 -182 -349t-342 -131q-161 0 -276 70.5t-164.5 200t-19.5 295.5z" />
    <glyph glyph-name="utilde" unicode="&#x169;" horiz-adv-x="1044" 
d="M598 1440q39 0 72 -18t49.5 -37t38.5 -51q2 -2 9.5 -13t9.5 -14t9 -12.5t10 -12.5t9.5 -10t10.5 -9.5t11 -7.5t13 -6.5t13 -3t15 -1.5q46 0 83.5 50.5t52.5 133.5h102q-22 -133 -90 -211.5t-160 -78.5q-30 0 -53.5 7t-42.5 24t-28.5 28t-27.5 35q-6 8 -19 28t-20 29.5
t-19 22t-24.5 17.5t-27.5 5q-48 0 -85.5 -51t-52.5 -137h-110q26 139 91.5 216.5t160.5 77.5zM304 430q-26 -152 33 -240t193 -88q140 0 232.5 83.5t115.5 228.5l106 610h126l-178 -1024h-126l26 150q-63 -80 -151.5 -124t-188.5 -44q-111 0 -191.5 58.5t-114 158
t-12.5 217.5l110 608h128z" />
    <glyph glyph-name="Umacron" unicode="&#x16a;" horiz-adv-x="1194" 
d="M564 1584h624l-18 -112h-624zM332 1332h130l-140 -792q-36 -201 55.5 -316.5t286.5 -115.5q157 0 258.5 97t133.5 273l148 854h128l-152 -868q-39 -218 -182 -349t-342 -131q-161 0 -276 70.5t-164.5 200t-19.5 295.5z" />
    <glyph glyph-name="umacron" unicode="&#x16b;" horiz-adv-x="1044" 
d="M418 1296h624l-18 -112h-624zM304 430q-26 -152 33 -240t193 -88q140 0 232.5 83.5t115.5 228.5l106 610h126l-178 -1024h-126l26 150q-63 -80 -151.5 -124t-188.5 -44q-111 0 -191.5 58.5t-114 158t-12.5 217.5l110 608h128z" />
    <glyph glyph-name="Ubreve" unicode="&#x16c;" horiz-adv-x="1194" 
d="M1240 1728q-33 -135 -129.5 -215.5t-232.5 -80.5q-157 0 -238.5 80.5t-69.5 215.5h124q-9 -194 180 -194q188 0 244 194h122zM332 1332h130l-140 -792q-36 -201 55.5 -316.5t286.5 -115.5q157 0 258.5 97t133.5 273l148 854h128l-152 -868q-39 -218 -182 -349t-342 -131
q-161 0 -276 70.5t-164.5 200t-19.5 295.5z" />
    <glyph glyph-name="ubreve" unicode="&#x16d;" horiz-adv-x="1044" 
d="M1094 1440q-32 -135 -128.5 -215.5t-233.5 -80.5q-156 0 -238 80.5t-68 215.5h124q-13 -194 178 -194q188 0 244 194h122zM304 430q-26 -152 33 -240t193 -88q140 0 232.5 83.5t115.5 228.5l106 610h126l-178 -1024h-126l26 150q-63 -80 -151.5 -124t-188.5 -44
q-111 0 -191.5 58.5t-114 158t-12.5 217.5l110 608h128z" />
    <glyph glyph-name="Uring" unicode="&#x16e;" horiz-adv-x="1194" 
d="M1128 1726q0 -132 -82.5 -219t-207.5 -87q-114 0 -182 64.5t-68 171.5q0 133 82 219.5t208 86.5q113 0 181.5 -65t68.5 -171zM698 1658q0 -66 39 -103t111 -37q75 0 122.5 57t47.5 149q0 66 -39 103t-109 37q-77 0 -124.5 -56.5t-47.5 -149.5zM332 1332h130l-140 -792
q-36 -201 55.5 -316.5t286.5 -115.5q157 0 258.5 97t133.5 273l148 854h128l-152 -868q-39 -218 -182 -349t-342 -131q-161 0 -276 70.5t-164.5 200t-19.5 295.5z" />
    <glyph glyph-name="uring" unicode="&#x16f;" horiz-adv-x="1044" 
d="M984 1438q0 -132 -82.5 -219t-207.5 -87q-114 0 -182 64.5t-68 171.5q0 133 82 219.5t208 86.5q113 0 181.5 -65t68.5 -171zM554 1370q0 -66 39 -103t111 -37q75 0 122.5 57t47.5 149q0 66 -39 103t-109 37q-77 0 -124.5 -56.5t-47.5 -149.5zM304 430q-26 -152 33 -240
t193 -88q140 0 232.5 83.5t115.5 228.5l106 610h126l-178 -1024h-126l26 150q-63 -80 -151.5 -124t-188.5 -44q-111 0 -191.5 58.5t-114 158t-12.5 217.5l110 608h128z" />
    <glyph glyph-name="Uhungarumlaut" unicode="&#x170;" horiz-adv-x="1194" 
d="M1362 1750l-330 -316h-106l282 316h154zM1058 1750l-332 -316h-108l284 316h156zM332 1332h130l-140 -792q-36 -201 55.5 -316.5t286.5 -115.5q157 0 258.5 97t133.5 273l148 854h128l-152 -868q-39 -218 -182 -349t-342 -131q-161 0 -276 70.5t-164.5 200t-19.5 295.5z
" />
    <glyph glyph-name="uhungarumlaut" unicode="&#x171;" horiz-adv-x="1044" 
d="M1216 1462l-330 -316h-106l284 316h152zM912 1462l-332 -316h-106l282 316h156zM304 430q-26 -152 33 -240t193 -88q140 0 232.5 83.5t115.5 228.5l106 610h126l-178 -1024h-126l26 150q-63 -80 -151.5 -124t-188.5 -44q-111 0 -191.5 58.5t-114 158t-12.5 217.5l110 608
h128z" />
    <glyph glyph-name="Uogonek" unicode="&#x172;" horiz-adv-x="1194" 
d="M332 1332h130l-140 -792q-36 -201 55.5 -316.5t286.5 -115.5q157 0 258.5 97t133.5 273l148 854h128l-152 -868q-39 -218 -182 -349t-342 -131h-2q-128 -89 -182 -163t-54 -159q0 -106 140 -106h126l-20 -120h-132q-109 0 -175.5 55t-66.5 147q0 107 68 197.5t196 156.5
q-199 33 -298 184t-60 374z" />
    <glyph glyph-name="uogonek" unicode="&#x173;" horiz-adv-x="1044" 
d="M304 430q-26 -152 33 -240t193 -88q140 0 232.5 83.5t115.5 228.5l106 610h126l-178 -1024q-140 -93 -200 -171t-60 -167q0 -106 140 -106h128l-20 -120h-134q-107 0 -173.5 55t-66.5 147q0 111 71.5 203.5t206.5 158.5h-18l26 150q-63 -80 -151.5 -124t-188.5 -44
q-111 0 -191.5 58.5t-114 158t-12.5 217.5l110 608h128z" />
    <glyph glyph-name="Wcircumflex" unicode="&#x174;" horiz-adv-x="1970" 
d="M1218 1768h128l270 -334h-136l-200 258l-292 -258h-158zM304 1332h134l106 -1162l594 1162h148l172 -1162l532 1162h148l-634 -1332h-140l-174 1168l-596 -1168h-142z" />
    <glyph glyph-name="wcircumflex" unicode="&#x175;" horiz-adv-x="1560" 
d="M954 1480h130l268 -334h-134l-200 258l-292 -258h-160zM248 1024h130l84 -850l412 850h144l114 -850l386 850h152l-496 -1024h-136l-118 850l-412 -850h-140z" />
    <glyph glyph-name="Ycircumflex" unicode="&#x176;" horiz-adv-x="1176" 
d="M842 1768h130l268 -334h-134l-200 258l-292 -258h-160zM604 458l-300 874h140l240 -720l500 720h160l-614 -874l-82 -458h-126z" />
    <glyph glyph-name="ycircumflex" unicode="&#x177;" horiz-adv-x="1100" 
d="M752 1480h130l270 -334h-136l-200 258l-292 -258h-158zM82 -194h150q73 0 116 30.5t84 107.5l42 80l-226 1000h132l192 -864l486 864h152l-622 -1092q-79 -136 -153.5 -194t-174.5 -58h-194z" />
    <glyph glyph-name="Ydieresis" unicode="&#x178;" horiz-adv-x="1176" 
d="M1008 1596h154l-30 -162h-152zM590 1596h154l-30 -162h-150zM604 458l-300 874h140l240 -720l500 720h160l-614 -874l-82 -458h-126z" />
    <glyph glyph-name="Zacute" unicode="&#x179;" horiz-adv-x="1138" 
d="M1146 1750l-308 -316h-116l260 316h164zM328 1332h950l-22 -142l-998 -1074h808l-20 -116h-948l18 140l996 1074h-806z" />
    <glyph glyph-name="zacute" unicode="&#x17a;" horiz-adv-x="956" 
d="M988 1462l-306 -316h-118l260 316h164zM268 1024h770l-20 -136l-766 -774h630l-22 -114h-768l20 136l762 774h-626z" />
    <glyph glyph-name="Zdotaccent" unicode="&#x17b;" horiz-adv-x="1138" 
d="M782 1600h154l-28 -166h-156zM328 1332h950l-22 -142l-998 -1074h808l-20 -116h-948l18 140l996 1074h-806z" />
    <glyph glyph-name="zdotaccent" unicode="&#x17c;" horiz-adv-x="956" 
d="M622 1312h154l-28 -166h-156zM268 1024h770l-20 -136l-766 -774h630l-22 -114h-768l20 136l762 774h-626z" />
    <glyph glyph-name="Zcaron" unicode="&#x17d;" horiz-adv-x="1138" 
d="M886 1434h-130l-270 334h140l200 -258l290 258h156zM328 1332h950l-22 -142l-998 -1074h808l-20 -116h-948l18 140l996 1074h-806z" />
    <glyph glyph-name="zcaron" unicode="&#x17e;" horiz-adv-x="956" 
d="M728 1146h-132l-268 334h138l202 -258l290 258h156zM268 1024h770l-20 -136l-766 -774h630l-22 -114h-768l20 136l762 774h-626z" />
    <glyph glyph-name="longs" unicode="&#x17f;" horiz-adv-x="528" 
d="M690 1318h-82q-135 0 -162 -148l-206 -1170h-128l208 1182q12 68 43 118.5t73.5 78.5t88.5 41.5t97 13.5h90z" />
    <glyph glyph-name="Ohorn" unicode="&#x1a0;" horiz-adv-x="1366" 
d="M196 542q0 222 88.5 408t242 294t337.5 108q89 0 158 -20h242q67 0 109 32.5t57 117.5l12 62h116l-12 -74q-12 -67 -41.5 -117t-69.5 -77t-82 -39.5t-87 -12.5h-42q85 -77 130.5 -192t45.5 -258q0 -168 -49.5 -314.5t-136.5 -251t-209.5 -164.5t-262.5 -60
q-249 0 -397.5 151.5t-148.5 406.5zM1270 782q0 212 -110.5 330t-309.5 118q-149 0 -268.5 -89.5t-186.5 -247.5t-67 -355q0 -204 113 -318t315 -114q229 0 371.5 187t142.5 489z" />
    <glyph glyph-name="ohorn" unicode="&#x1a1;" horiz-adv-x="1126" 
d="M170 430q0 173 68.5 314t188.5 221.5t267 80.5q79 0 154 -22h158q67 0 109.5 33t56.5 119l12 58h118l-14 -70q-9 -53 -30 -95.5t-48 -70t-60.5 -46t-66 -27t-67.5 -9.5q112 -118 112 -316q0 -172 -69 -314t-189 -223t-266 -81q-197 0 -315.5 122t-118.5 326zM998 604
q0 152 -83 237t-231 85q-158 0 -270 -142t-112 -358q0 -154 82.5 -238t231.5 -84q156 0 269 142.5t113 357.5z" />
    <glyph glyph-name="Uhorn" unicode="&#x1af;" horiz-adv-x="1202" 
d="M332 1332h130l-140 -792q-36 -201 55.5 -316.5t286.5 -115.5q157 0 258.5 97t133.5 273l148 854h128v-2h4q67 0 110 33.5t58 118.5l10 62h118l-14 -74q-11 -67 -40.5 -117t-69 -77t-81.5 -39.5t-87 -12.5h-26l-134 -760q-39 -218 -182 -349t-342 -131q-161 0 -276 70.5
t-164.5 200t-19.5 295.5z" />
    <glyph glyph-name="uhorn" unicode="&#x1b0;" horiz-adv-x="1052" 
d="M304 430q-26 -152 33 -240t193 -88q140 0 232.5 83.5t115.5 228.5l104 600l2 10h132q67 0 109 33.5t57 118.5l10 62h118l-12 -74q-12 -67 -41.5 -117t-69.5 -77t-82 -39.5t-87 -12.5h-26l-160 -918h-126l26 150q-63 -80 -151.5 -124t-188.5 -44q-111 0 -191.5 58.5
t-114 158t-12.5 217.5l110 608h128z" />
    <glyph glyph-name="uni01CD" unicode="&#x1cd;" horiz-adv-x="1270" 
d="M942 1434h-132l-268 334h138l200 -258l292 258h156zM1204 0h-132l-70 372h-584l-198 -372h-152l732 1332h144zM850 1174l-370 -688h500z" />
    <glyph glyph-name="uni01CE" unicode="&#x1ce;" horiz-adv-x="1038" 
d="M782 1144h-132l-270 334h140l200 -258l292 258h154zM1048 666l-118 -666h-132l28 148q-68 -80 -160.5 -123t-197.5 -43q-146 0 -237 75.5t-91 198.5q0 136 93.5 224t250.5 94l296 10q68 2 98 16.5t40 51.5l4 22q21 113 -57.5 185.5t-214.5 72.5q-228 0 -290 -196h-138
q36 144 153.5 227t284.5 83q192 0 303.5 -109t84.5 -271zM274 270q0 -78 61 -126t163 -48q131 0 233 80t137 208l16 88l-378 -12q-114 -3 -173 -54t-59 -136z" />
    <glyph glyph-name="uni01CF" unicode="&#x1cf;" 
d="M484 1434h-132l-270 334h140l200 -258l292 258h154zM346 1332h126l-234 -1332h-128z" />
    <glyph glyph-name="uni01D0" unicode="&#x1d0;" 
d="M432 1146h-132l-270 334h140l200 -258l292 258h156zM292 1024h126l-180 -1024h-128z" />
    <glyph glyph-name="uni01D1" unicode="&#x1d1;" horiz-adv-x="1366" 
d="M992 1434h-132l-268 334h138l202 -258l290 258h156zM196 542q0 229 87 414.5t240 290.5t341 105q237 0 386.5 -161.5t149.5 -416.5q0 -232 -82.5 -411.5t-232 -279t-343.5 -99.5q-242 0 -394 155.5t-152 402.5zM1270 782q0 212 -110 330t-310 118q-149 0 -268.5 -89.5
t-186.5 -247.5t-67 -355q0 -205 112.5 -318.5t315.5 -113.5q229 0 371.5 187t142.5 489z" />
    <glyph glyph-name="uni01D2" unicode="&#x1d2;" horiz-adv-x="1126" 
d="M796 1146h-132l-268 334h138l200 -258l292 258h156zM170 430q0 173 68.5 314t188.5 221.5t267 80.5q197 0 315.5 -121t118.5 -325q0 -172 -69 -314t-189 -223t-266 -81q-197 0 -315.5 122t-118.5 326zM998 604q0 152 -83 237t-231 85q-158 0 -270 -142t-112 -358
q0 -154 82.5 -238t231.5 -84q156 0 269 142.5t113 357.5z" />
    <glyph glyph-name="uni01D3" unicode="&#x1d3;" horiz-adv-x="1194" 
d="M918 1434h-132l-270 334h140l200 -258l292 258h156zM332 1332h130l-140 -792q-36 -201 55.5 -316.5t286.5 -115.5q157 0 258.5 97t133.5 273l148 854h128l-152 -868q-39 -218 -182 -349t-342 -131q-161 0 -276 70.5t-164.5 200t-19.5 295.5z" />
    <glyph glyph-name="uni01D4" unicode="&#x1d4;" horiz-adv-x="1044" 
d="M772 1146h-132l-268 334h138l202 -258l290 258h156zM304 430q-26 -152 33 -240t193 -88q140 0 232.5 83.5t115.5 228.5l106 610h126l-178 -1024h-126l26 150q-63 -80 -151.5 -124t-188.5 -44q-111 0 -191.5 58.5t-114 158t-12.5 217.5l110 608h128z" />
    <glyph glyph-name="uni01DD" unicode="&#x1dd;" horiz-adv-x="1122" 
d="M1126 598q0 -126 -37.5 -238.5t-104 -196t-164.5 -132.5t-214 -49q-113 0 -203 41.5t-144.5 111t-76 163t-4.5 196.5l10 60h806q0 9 1 26t1 26q0 157 -85 238.5t-247 81.5q-113 0 -193 -55t-121 -159h-144q60 163 178 247.5t284 84.5q212 0 335 -119t123 -327zM598 98
q144 0 244.5 93t135.5 255h-674q-24 -153 60 -250.5t234 -97.5z" />
    <glyph glyph-name="uni01E2" unicode="&#x1e2;" horiz-adv-x="1946" 
d="M1112 1584h624l-18 -112h-624zM2090 1332l-22 -122h-762l-82 -468h706l-22 -122h-706l-88 -500h762l-20 -120h-890l66 372h-572l-250 -372h-142l892 1332h1130zM536 486h516l128 722h-158z" />
    <glyph glyph-name="uni01E3" unicode="&#x1e3;" horiz-adv-x="1832" 
d="M804 1296h624l-20 -112h-624zM1354 -18q-164 0 -275 73.5t-153 206.5q-65 -129 -185.5 -204.5t-264.5 -75.5q-149 0 -242.5 76.5t-93.5 197.5q0 137 93.5 224.5t250.5 93.5l296 10q68 2 98 16.5t40 53.5l4 20q19 111 -59 184.5t-213 73.5q-228 0 -290 -196h-138
q36 144 153.5 227t282.5 83q132 0 230.5 -56t137.5 -150q69 97 169.5 150.5t222.5 53.5q148 0 254 -70.5t149 -187t19 -254.5l-12 -60h-802q-2 -16 -2 -52q0 -157 84.5 -238.5t245.5 -81.5q113 0 193 55.5t123 158.5h142q-61 -163 -177.5 -247.5t-280.5 -84.5zM1422 928
q-144 0 -245.5 -92.5t-136.5 -253.5h674q22 153 -60 249.5t-232 96.5zM274 272q0 -79 61.5 -127.5t162.5 -48.5q141 0 247 91t131 235h2l8 52l-380 -12q-113 -3 -172.5 -54.5t-59.5 -135.5z" />
    <glyph glyph-name="uni01F0" unicode="&#x1f0;" 
d="M432 1146h-132l-270 334h140l200 -258l292 258h156zM-108 -206h64q57 0 94 33t52 117l190 1080h126l-194 -1092q-22 -133 -100 -194.5t-178 -61.5h-76z" />
    <glyph glyph-name="AEacute" unicode="&#x1fc;" horiz-adv-x="1946" 
d="M1520 1750l-306 -316h-118l260 316h164zM2090 1332l-22 -122h-762l-82 -468h706l-22 -122h-706l-88 -500h762l-20 -120h-890l66 372h-572l-250 -372h-142l892 1332h1130zM536 486h516l128 722h-158z" />
    <glyph glyph-name="aeacute" unicode="&#x1fd;" horiz-adv-x="1832" 
d="M1416 1462l-308 -316h-116l260 316h164zM1354 -18q-164 0 -275 73.5t-153 206.5q-65 -129 -185.5 -204.5t-264.5 -75.5q-149 0 -242.5 76.5t-93.5 197.5q0 137 93.5 224.5t250.5 93.5l296 10q68 2 98 16.5t40 53.5l4 20q19 111 -59 184.5t-213 73.5q-228 0 -290 -196
h-138q36 144 153.5 227t282.5 83q132 0 230.5 -56t137.5 -150q69 97 169.5 150.5t222.5 53.5q148 0 254 -70.5t149 -187t19 -254.5l-12 -60h-802q-2 -16 -2 -52q0 -157 84.5 -238.5t245.5 -81.5q113 0 193 55.5t123 158.5h142q-61 -163 -177.5 -247.5t-280.5 -84.5z
M1422 928q-144 0 -245.5 -92.5t-136.5 -253.5h674q22 153 -60 249.5t-232 96.5zM274 272q0 -79 61.5 -127.5t162.5 -48.5q141 0 247 91t131 235h2l8 52l-380 -12q-113 -3 -172.5 -54.5t-59.5 -135.5z" />
    <glyph glyph-name="uni0237" unicode="&#x237;" 
d="M-108 -206h64q57 0 94 33t52 117l190 1080h126l-194 -1092q-22 -133 -100 -194.5t-178 -61.5h-76z" />
    <glyph glyph-name="uni0250" unicode="&#x250;" horiz-adv-x="1038" 
d="M252 770q23 132 -4 254h126q22 -76 16 -160q68 84 164 131t204 47q146 0 237 -75.5t91 -198.5q0 -136 -94 -224t-250 -94l-296 -10q-68 -2 -98 -16.5t-40 -53.5l-4 -20q-18 -111 59.5 -183.5t212.5 -72.5q228 0 290 194h138q-36 -143 -154 -226.5t-284 -83.5
q-192 0 -304 109t-84 271zM350 602h-2l-8 -52l380 12q113 3 172.5 54.5t59.5 135.5q0 80 -61 128t-163 48q-141 0 -247 -91t-131 -235z" />
    <glyph glyph-name="uni0251" unicode="&#x251;" horiz-adv-x="1158" 
d="M1210 116l-22 -116h-28q-91 0 -152.5 44t-65.5 138q-65 -94 -155.5 -146t-198.5 -52q-191 0 -304.5 121t-113.5 323q0 172 67.5 314t186 223t262.5 81q139 0 230 -67.5t128 -188.5l40 234h126l-134 -756q-15 -85 15.5 -118.5t96.5 -33.5h22zM302 428q0 -155 82.5 -239.5
t231.5 -84.5q156 0 269 141.5t113 356.5q0 153 -83 238.5t-231 85.5q-158 0 -270 -141t-112 -357z" />
    <glyph glyph-name="uni0252" unicode="&#x252;" horiz-adv-x="1158" 
d="M132 908l22 116h28q91 0 152.5 -44t65.5 -138q65 94 155.5 146t198.5 52q191 0 304.5 -120t113.5 -324q0 -172 -67.5 -314t-186 -223t-262.5 -81q-139 0 -230 67.5t-128 188.5l-40 -234h-126l134 756q15 85 -15.5 118.5t-96.5 33.5h-22zM1040 596q0 155 -82 240.5
t-230 85.5q-157 0 -270.5 -142t-113.5 -358q0 -153 82.5 -237.5t231.5 -84.5q158 0 270 140.5t112 355.5z" />
    <glyph glyph-name="uni0253" unicode="&#x253;" horiz-adv-x="1140" 
d="M112 0l190 1084q29 168 153 270t307 102q209 0 335.5 -102t126.5 -266h-130q0 111 -93.5 181.5t-246.5 70.5q-135 0 -221 -74t-107 -202l-42 -238q67 87 158 135.5t194 48.5q184 0 297 -119.5t113 -314.5q0 -165 -66.5 -302t-182 -215.5t-255.5 -78.5q-134 0 -228 63.5
t-136 180.5l-38 -224h-128zM1016 574q0 150 -84 234t-234 84q-129 0 -223.5 -81.5t-132.5 -220.5l-18 -112q-4 -40 -4 -60q0 -149 84.5 -232.5t235.5 -83.5q166 0 271 131.5t105 340.5z" />
    <glyph glyph-name="uni0254" unicode="&#x254;" horiz-adv-x="1108" 
d="M1116 598q0 -173 -68.5 -314.5t-188.5 -221.5t-267 -80q-188 0 -301 112t-113 294h132q0 -133 77.5 -209.5t216.5 -76.5q162 0 271 143.5t109 356.5q0 156 -82.5 240t-235.5 84q-113 0 -199 -69t-113 -181h-138q42 171 165.5 270.5t294.5 99.5q201 0 320.5 -122
t119.5 -326z" />
    <glyph glyph-name="uni0255" unicode="&#x255;" horiz-adv-x="1108" 
d="M212 -150q20 147 74 280q-116 129 -116 336q0 163 69 296t189.5 208.5t267.5 75.5q187 0 299.5 -109t112.5 -289h-130q-2 132 -79 206t-215 74q-162 0 -272 -133.5t-110 -332.5q0 -124 48 -208q79 132 190 204t240 72q128 0 208 -71.5t80 -198.5q0 -116 -121.5 -196
t-298.5 -80q-151 0 -264 66q-34 -103 -50 -200h-122zM658 98q118 0 198 46.5t80 115.5q0 79 -43 117.5t-117 36.5q-109 0 -197.5 -64.5t-148.5 -187.5q88 -64 228 -64z" />
    <glyph glyph-name="uni0256" unicode="&#x256;" horiz-adv-x="1158" 
d="M1148 -218l-22 -116h-30q-51 0 -92 13.5t-73.5 41.5t-44.5 78.5t0 118.5l44 246q-135 -180 -342 -180q-191 0 -304.5 121t-113.5 323q0 172 67.5 314t186 223t262.5 81q139 0 229 -66t127 -186l114 640h126l-268 -1500q-14 -85 16 -118.5t94 -33.5h24zM302 428
q0 -155 82.5 -239.5t231.5 -86.5q127 0 229.5 98.5t136.5 259.5l8 46q8 40 8 96q0 153 -83 238.5t-231 85.5q-158 0 -270 -141t-112 -357z" />
    <glyph glyph-name="uni0257" unicode="&#x257;" horiz-adv-x="1158" 
d="M1416 1318h-28q-60 0 -99 -33.5t-53 -118.5l-206 -1166h-126l30 170q-135 -186 -346 -186q-191 0 -304.5 121t-113.5 323q0 172 67.5 314t186 223t262.5 81q139 0 230 -67t128 -187l68 390q42 252 274 252h50zM302 428q0 -155 82.5 -239.5t231.5 -84.5q156 0 269 141.5
t113 356.5q0 153 -83 238.5t-231 85.5q-158 0 -270 -141t-112 -357z" />
    <glyph glyph-name="uni0258" unicode="&#x258;" horiz-adv-x="1122" 
d="M1136 622q0 -137 -42 -255.5t-115 -202.5t-175.5 -132t-219.5 -48q-202 0 -314.5 87.5t-115.5 250.5h134q1 -106 79.5 -163t216.5 -57q153 0 260.5 101t143.5 275h-812l14 92q36 210 186.5 342t349.5 132q194 0 302 -111.5t108 -310.5zM328 588h674q2 18 2 54
q0 141 -72.5 213.5t-213.5 72.5q-144 0 -252 -93.5t-138 -246.5z" />
    <glyph glyph-name="uni0259" unicode="&#x259;" horiz-adv-x="1122" 
d="M1126 598q0 -126 -37.5 -238.5t-104 -196t-164.5 -132.5t-214 -49q-113 0 -203 41.5t-144.5 111t-76 163t-4.5 196.5l10 60h806q0 9 1 26t1 26q0 157 -85 238.5t-247 81.5q-113 0 -193 -55t-121 -159h-144q60 163 178 247.5t284 84.5q212 0 335 -119t123 -327zM598 98
q144 0 244.5 93t135.5 255h-674q-24 -153 60 -250.5t234 -97.5z" />
    <glyph glyph-name="uni025A" unicode="&#x25a;" horiz-adv-x="1418" 
d="M1472 458l-20 -110h-30q-92 0 -140.5 56t-35.5 146l2 26l-118 -24q-21 -250 -175.5 -409t-378.5 -159q-203 0 -307.5 111.5t-104.5 328.5v48l838 152v12q0 143 -74 216.5t-218 73.5q-133 0 -228.5 -62t-139.5 -176h-134q130 356 502 356q191 0 302 -103t120 -287l178 34
h66l-18 -106q-12 -69 7.5 -96.5t80.5 -27.5h26zM300 384q3 -284 276 -284q165 0 277 113t139 303z" />
    <glyph glyph-name="uni025B" unicode="&#x25b;" horiz-adv-x="990" 
d="M952 298q-35 -141 -153 -227.5t-277 -86.5q-177 0 -282.5 72.5t-105.5 193.5q0 89 53 159t143 107q-96 56 -96 188q0 147 115.5 244.5t290.5 97.5q178 0 279 -86.5t101 -239.5h-132q0 101 -62.5 155.5t-177.5 54.5q-129 0 -204.5 -64.5t-75.5 -175.5q0 -59 32.5 -89.5
t93.5 -30.5h234l-20 -116h-234q-89 0 -147.5 -51.5t-58.5 -132.5q0 -82 63 -126t179 -44q122 0 205.5 53.5t104.5 144.5h132z" />
    <glyph glyph-name="uni025C" unicode="&#x25c;" horiz-adv-x="990" 
d="M444 454l20 116h234q80 0 131 57t51 145q0 77 -57.5 117.5t-166.5 40.5q-116 0 -187.5 -50.5t-110.5 -161.5h-132q36 159 153.5 243.5t278.5 84.5q164 0 260 -73.5t96 -200.5q0 -87 -46.5 -155t-127.5 -105q114 -60 114 -202q0 -143 -122 -234.5t-314 -91.5
q-172 0 -274 85t-102 229h132q0 -93 65.5 -145.5t178.5 -52.5q144 0 224 59.5t80 166.5q0 62 -37 95t-107 33h-234z" />
    <glyph glyph-name="uni025D" unicode="&#x25d;" horiz-adv-x="1220" 
d="M1258 458l-18 -110h-32q-92 0 -140.5 56t-35.5 146l4 26l-132 -26q-30 -24 -64 -38q114 -60 114 -202q0 -143 -122 -234.5t-314 -91.5q-172 0 -274 85t-102 229h132q0 -93 65.5 -145.5t178.5 -52.5q144 0 224 59.5t80 166.5q0 62 -37 95t-107 33h-234l20 116h234
q80 0 131 57t51 145q0 77 -57.5 117.5t-166.5 40.5q-116 0 -187.5 -50.5t-110.5 -161.5h-132q36 159 153.5 243.5t278.5 84.5q164 0 260 -73.5t96 -200.5q0 -57 -18 -102l100 18h66l-18 -106q-11 -69 8.5 -96.5t79.5 -27.5h26z" />
    <glyph glyph-name="uni025E" unicode="&#x25e;" horiz-adv-x="1032" 
d="M886 514q54 -28 83 -81.5t29 -124.5q0 -139 -113 -231.5t-283 -92.5q-197 0 -314.5 119.5t-117.5 320.5q0 170 75 313t205.5 226t285.5 83q147 0 234.5 -73t87.5 -197q0 -86 -46.5 -157t-125.5 -105zM302 406q0 -145 77.5 -224.5t218.5 -79.5q124 0 196 60t72 164
q0 63 -37.5 95.5t-108.5 32.5h-176l20 116h176q81 0 131.5 58.5t50.5 151.5q0 72 -48 110t-138 38q-189 0 -311.5 -147t-122.5 -375z" />
    <glyph glyph-name="uni025F" unicode="&#x25f;" horiz-adv-x="650" 
d="M18 -294h82q67 0 109 32t57 116l24 146h-220l20 116h222l160 908h126l-160 -908h164l-20 -116h-166l-26 -158q-24 -130 -109 -191t-193 -61h-90z" />
    <glyph glyph-name="uni0260" unicode="&#x260;" horiz-adv-x="1140" 
d="M1416 1318h-28q-60 0 -99 -33.5t-53 -118.5l-214 -1224q-27 -159 -150 -255.5t-302 -96.5q-212 0 -340 102t-128 266h130q0 -112 96 -182t254 -70q130 0 212.5 67t103.5 185l42 240q-67 -87 -157.5 -134.5t-194.5 -47.5q-185 0 -297.5 118.5t-112.5 313.5q0 165 66.5 302
t182 215.5t255.5 78.5q134 0 228.5 -64t135.5 -180l66 382q11 68 38 118.5t65 78.5t79 41.5t86 13.5h56zM308 450q0 -150 84 -233t234 -83q129 0 223 80t133 220l18 112q4 40 4 60q0 150 -84.5 234t-235.5 84q-166 0 -271 -132.5t-105 -341.5z" />
    <glyph glyph-name="uni0261" unicode="&#x261;" horiz-adv-x="1140" 
d="M1212 1024l-190 -1086q-27 -157 -148 -252.5t-298 -95.5q-214 0 -343 101t-129 267h128q0 -112 97.5 -182t256.5 -70q129 0 210.5 67.5t101.5 184.5l42 240q-67 -87 -157.5 -134.5t-194.5 -47.5q-185 0 -297.5 118.5t-112.5 313.5q0 165 66.5 302t182 215.5t255.5 78.5
q134 0 228 -63.5t136 -180.5l38 224h128zM308 450q0 -150 84 -233t234 -83q128 0 222 80t132 218l20 116q4 36 4 58q0 150 -84.5 234t-235.5 84q-166 0 -271 -132.5t-105 -341.5z" />
    <glyph glyph-name="uni0262" unicode="&#x262;" horiz-adv-x="1108" 
d="M190 424q0 271 151 446.5t387 175.5q189 0 302.5 -102t113.5 -272h-130q0 121 -78 188.5t-218 67.5q-172 0 -283 -144.5t-111 -369.5q0 -144 77.5 -228t210.5 -84q121 0 211 82.5t131 229.5h-296l18 108h454l-104 -522h-94l28 202q-65 -106 -159 -163t-207 -57
q-180 0 -292 122t-112 320z" />
    <glyph glyph-name="uni0263" unicode="&#x263;" horiz-adv-x="1096" 
d="M324 -88l160 242l-234 870h134l202 -786l472 786h150l-540 -872l74 -240q10 -47 10 -80q0 -100 -74 -168t-184 -68q-96 0 -157 51t-61 131q0 68 48 134zM618 -118l-56 190l-122 -190q-30 -48 -30 -88q0 -35 24.5 -54.5t67.5 -19.5q52 0 88 34t36 84q0 23 -8 44z" />
    <glyph glyph-name="uni0264" unicode="&#x264;" horiz-adv-x="892" 
d="M316 294l110 142l-176 588h132l146 -504l324 504h148l-390 -588l62 -142q22 -53 22 -100q0 -84 -71 -148t-165 -64q-91 0 -147.5 44.5t-56.5 115.5q0 63 62 152zM548 266l-46 92l-72 -92q-42 -51 -42 -100q0 -62 72 -62q45 0 71.5 27.5t26.5 74.5q0 30 -10 60z" />
    <glyph glyph-name="uni0265" unicode="&#x265;" horiz-adv-x="1058" 
d="M310 430q-27 -150 37.5 -239t198.5 -89q141 0 235.5 84t118.5 228l104 610h128l-234 -1358h-128l84 488q-65 -82 -155 -127t-191 -45q-109 0 -191.5 59t-119 159t-15.5 216l110 608h126z" />
    <glyph glyph-name="uni0266" unicode="&#x266;" horiz-adv-x="1060" 
d="M112 0l190 1084q29 168 155 270t311 102q190 0 305 -101t115 -265h-130q0 111 -82.5 180.5t-219.5 69.5q-136 0 -222.5 -74t-107.5 -202l-34 -194q65 80 154.5 125t189.5 45q110 0 193.5 -59t120 -159t14.5 -216l-110 -606h-126l106 592q28 150 -36.5 239t-199.5 89
q-131 0 -222.5 -73.5t-123.5 -200.5l-112 -646h-128z" />
    <glyph glyph-name="uni0267" unicode="&#x267;" horiz-adv-x="1060" 
d="M112 0l190 1084q29 168 155 270t311 102q190 0 305 -101t115 -265h-130q0 111 -82.5 180.5t-219.5 69.5q-136 0 -222.5 -74t-107.5 -202l-36 -198q66 81 158.5 128.5t189.5 47.5q183 0 272 -105.5t56 -286.5l-128 -716q-24 -140 -103 -217t-199 -77h-136l20 118h102
q84 0 130 44.5t62 143.5l122 678q23 146 -32 221t-184 75q-132 0 -234.5 -75t-131.5 -191l-114 -654h-128z" />
    <glyph glyph-name="uni0268" unicode="&#x268;" horiz-adv-x="428" 
d="M372 1326h154l-28 -156h-154zM332 1024h126l-70 -402h152l-20 -114h-152l-90 -508h-126l90 508h-152l20 114h152z" />
    <glyph glyph-name="uni0269" unicode="&#x269;" horiz-adv-x="480" 
d="M450 116l-20 -116h-90q-97 0 -152.5 60.5t-33.5 191.5l136 772h128l-132 -756q-15 -86 7 -119t75 -33h82z" />
    <glyph glyph-name="uni026A" unicode="&#x26a;" horiz-adv-x="706" 
d="M816 1024l-20 -118h-220l-138 -788h218l-20 -118h-566l22 118h218l138 788h-218l20 118h566z" />
    <glyph glyph-name="uni026B" unicode="&#x26b;" horiz-adv-x="596" 
d="M340 870q29 0 50 -12l102 576h126l-124 -698q19 -26 46 -26q39 0 69.5 40.5t42.5 107.5h98q-21 -116 -82 -185t-144 -69q-31 0 -50 8l-108 -612h-126l128 730q-23 34 -46 34q-39 0 -69.5 -42t-42.5 -110h-102q21 121 82.5 189.5t149.5 68.5z" />
    <glyph glyph-name="uni026C" unicode="&#x26c;" horiz-adv-x="600" 
d="M508 1434h126l-136 -768h222l-18 -108h-222l-98 -558h-126l98 558h-2q-105 0 -162.5 50t-57.5 140q0 111 71.5 180.5t186.5 69.5h40zM362 666h10l40 222h-10q-156 0 -156 -140q0 -82 116 -82z" />
    <glyph glyph-name="uni026D" unicode="&#x26d;" horiz-adv-x="470" 
d="M362 -218l-20 -116h-32q-51 0 -93 13.5t-74.5 41.5t-45.5 78.5t-1 118.5l268 1516h128l-266 -1500q-14 -86 15.5 -119t94.5 -33h26z" />
    <glyph glyph-name="uni026E" unicode="&#x26e;" horiz-adv-x="1118" 
d="M736 442q159 -11 241.5 -107t82.5 -271q0 -207 -144 -340.5t-370 -133.5q-195 0 -308.5 83t-113.5 225h132q0 -90 76.5 -140t211.5 -50q173 0 277.5 102t104.5 270q0 123 -69 188.5t-199 65.5h-90l18 116l396 456h-584l-160 -906h-128l252 1434h128l-72 -410h744
l-16 -118z" />
    <glyph glyph-name="uni026F" unicode="&#x26f;" horiz-adv-x="1692" 
d="M296 398q-27 -150 30.5 -221t175.5 -71q116 0 214.5 79t123.5 197l2 2l118 640h126l-116 -624q-28 -150 31.5 -225t188.5 -77q111 0 202 67t122 177l120 682h126l-178 -1024h-128l24 138q-67 -76 -158.5 -118t-179.5 -42q-114 0 -194 60.5t-104 167.5
q-64 -104 -167.5 -164t-206.5 -60q-157 0 -245.5 110.5t-56.5 289.5l118 642h126z" />
    <glyph glyph-name="uni0270" unicode="&#x270;" horiz-adv-x="1692" 
d="M296 398q-29 -150 29 -221t177 -71q116 0 214.5 79t123.5 197l2 2l118 640h126l-116 -624q-28 -150 31.5 -225t188.5 -77q109 0 199 65.5t123 172.5l122 688h126l-238 -1358h-128l82 470q-66 -75 -157 -116.5t-179 -41.5q-113 0 -193.5 60t-104.5 166
q-65 -103 -168 -162.5t-206 -59.5q-157 0 -245.5 110.5t-56.5 289.5l118 642h126z" />
    <glyph glyph-name="uni0271" unicode="&#x271;" horiz-adv-x="1692" 
d="M292 1024h128l-24 -138q66 76 157 118t181 42q115 0 196 -63t102 -173q63 101 160.5 161.5t203.5 60.5q173 0 255.5 -104.5t52.5 -285.5l-128 -708q-24 -140 -102 -217t-198 -77h-136l22 118h100q83 0 128.5 44.5t61.5 143.5l122 668q24 145 -26.5 220.5t-169.5 75.5
q-126 0 -223 -75.5t-123 -192.5v-2l-120 -640h-126l116 624q29 150 -30 226t-188 76q-111 0 -202.5 -67.5t-121.5 -176.5l-120 -682h-128z" />
    <glyph glyph-name="uni0272" unicode="&#x272;" horiz-adv-x="1060" 
d="M-112 -224h64q57 0 93.5 32t50.5 116l194 1100h128l-26 -150q65 80 154.5 125t189.5 45q168 0 264.5 -127t63.5 -307l-110 -610h-126l108 594q27 150 -38 239t-200 89q-134 0 -226.5 -77.5t-121.5 -210.5l-128 -722q-21 -131 -95 -191.5t-169 -60.5h-90z" />
    <glyph glyph-name="uni0273" unicode="&#x273;" horiz-adv-x="1060" 
d="M290 1024h128l-24 -138q65 78 154.5 119t179.5 41q185 0 279 -103t59 -289l-126 -720q-15 -85 11.5 -118.5t86.5 -33.5h24l-20 -116h-30q-98 0 -160 69t-42 183l126 710q26 150 -37 223t-199 73q-128 0 -227.5 -80t-120.5 -202l-114 -642h-128z" />
    <glyph glyph-name="uni0274" unicode="&#x274;" horiz-adv-x="1068" 
d="M1012 1024h126l-180 -1024h-140l-426 870l-154 -870h-128l180 1024h168l408 -832z" />
    <glyph glyph-name="uni0275" unicode="&#x275;" horiz-adv-x="1126" 
d="M170 430q0 173 68.5 314t188.5 221.5t267 80.5q197 0 315.5 -121t118.5 -325q0 -172 -69 -314t-189 -223t-266 -81q-197 0 -315.5 122t-118.5 326zM1002 604q0 153 -84 238.5t-234 85.5q-130 0 -233 -98t-137 -260h686q0 6 1 17t1 17zM298 426q0 -155 83.5 -240.5
t234.5 -85.5q128 0 231 99.5t139 260.5h-686q0 -5 -1 -16.5t-1 -17.5z" />
    <glyph glyph-name="uni0276" unicode="&#x276;" horiz-adv-x="1718" 
d="M170 430q0 173 67 314t185.5 221.5t263.5 80.5q127 0 221 -62t139 -172l38 212h742l-20 -116h-610l-60 -336h554l-20 -114h-554l-60 -342h610l-20 -116h-742l24 142q-138 -160 -336 -160q-192 0 -307 122t-115 326zM998 604q0 152 -83 237t-231 85q-158 0 -270 -142
t-112 -358q0 -154 82.5 -238t231.5 -84q156 0 269 142.5t113 357.5z" />
    <glyph glyph-name="uni0277" unicode="&#x277;" horiz-adv-x="1436" 
d="M758 180q-57 -99 -137 -151.5t-173 -52.5q-137 0 -215.5 94.5t-78.5 259.5q0 150 56 282.5t153 227t233 149.5t290 55q252 0 401 -137t149 -369q0 -152 -57.5 -281.5t-155.5 -205t-213 -75.5q-97 0 -162.5 53t-89.5 151zM886 920q-131 0 -243 -44t-190.5 -122.5
t-122.5 -190.5t-44 -243q0 -105 43.5 -160.5t126.5 -55.5q96 0 165 62t99 176l50 284h114l-48 -264q-17 -117 28.5 -186.5t139.5 -69.5q128 0 213 126t85 318q0 177 -108.5 273.5t-307.5 96.5z" />
    <glyph glyph-name="uni0278" unicode="&#x278;" horiz-adv-x="1126" 
d="M170 430q0 172 68.5 313.5t188 222t265.5 80.5l70 388h106l-70 -398q153 -30 241.5 -146t88.5 -290q0 -172 -68.5 -314t-187 -223t-260.5 -81l-56 -316h-106l56 324q-156 30 -246 146.5t-90 293.5zM298 426q0 -130 60 -211.5t170 -104.5l144 816q-156 -6 -265 -146.5
t-109 -353.5zM1002 604q0 127 -58.5 207.5t-167.5 104.5l-144 -814q153 9 261.5 150t108.5 352z" />
    <glyph glyph-name="uni0279" unicode="&#x279;" horiz-adv-x="644" 
d="M92 114h42q125 0 223 78t119 198l112 634h126l-180 -1024h-126l26 154q-63 -82 -150 -128t-172 -46h-44z" />
    <glyph glyph-name="uni027A" unicode="&#x27a;" horiz-adv-x="644" 
d="M92 114h42q125 0 223 78t119 198l184 1044h126l-252 -1434h-126l26 154q-63 -82 -150 -128t-172 -46h-44z" />
    <glyph glyph-name="uni027B" unicode="&#x27b;" horiz-adv-x="644" 
d="M92 114h42q125 0 223 78t119 198l112 634h126l-192 -1090q-15 -85 15.5 -118.5t96.5 -33.5h26l-22 -116h-32q-51 0 -92.5 13.5t-74 41.5t-45 78.5t-0.5 118.5l40 236q-63 -82 -150 -128t-172 -46h-44z" />
    <glyph glyph-name="uni027C" unicode="&#x27c;" horiz-adv-x="644" 
d="M290 1024h128l-26 -150q65 80 151.5 125t168.5 45h44l-24 -134h-42q-124 0 -221.5 -78t-118.5 -198l-172 -968h-126z" />
    <glyph glyph-name="uni027D" unicode="&#x27d;" horiz-adv-x="644" 
d="M362 -218l-20 -116h-34q-50 0 -91.5 13.5t-74 41.5t-45.5 78.5t-1 118.5l194 1106h128l-26 -150q65 80 151.5 125t168.5 45h44l-24 -134h-42q-124 0 -221.5 -78t-118.5 -198l-124 -700q-15 -85 15 -118.5t95 -33.5h26z" />
    <glyph glyph-name="uni027E" unicode="&#x27e;" horiz-adv-x="490" 
d="M582 908h-26q-76 0 -123.5 -38t-64.5 -136l-130 -734h-128l132 748q13 74 46.5 129.5t80 86.5t96.5 45.5t105 14.5h34z" />
    <glyph glyph-name="uni027F" unicode="&#x27f;" horiz-adv-x="454" 
d="M192 908l20 116h70q47 0 86 -13.5t70 -43.5t40.5 -79.5t-0.5 -121.5l-194 -1100h-126l192 1088q15 85 -11.5 119.5t-84.5 34.5h-62z" />
    <glyph glyph-name="uni0280" unicode="&#x280;" horiz-adv-x="1036" 
d="M594 394h-286l-70 -394h-128l180 1024h484q140 0 222 -70t82 -190q0 -123 -72 -212t-192 -116q77 -19 112.5 -73t35.5 -151v-212h-128v190q0 110 -55.5 157t-184.5 47zM762 908h-364l-70 -398h364q116 0 184 65.5t68 176.5q0 75 -47 115.5t-135 40.5z" />
    <glyph glyph-name="uni0281" unicode="&#x281;" horiz-adv-x="1036" 
d="M636 630q137 0 211.5 54.5t110.5 183.5l46 156h124l-48 -172q-36 -123 -94.5 -187t-153.5 -83q83 -27 128.5 -92t45.5 -158q0 -140 -107 -236t-263 -96h-526l180 1024h128l-68 -394h286zM622 116q112 0 183 66t71 170q0 78 -47.5 120t-136.5 42h-364l-70 -398h364z" />
    <glyph glyph-name="uni0282" unicode="&#x282;" horiz-adv-x="1016" 
d="M340 -226l-20 -114h-28q-121 0 -178 64.5t-40 183.5l76 426h130q0 -117 78 -179.5t222 -62.5q125 0 195.5 47t70.5 131q0 65 -45 104.5t-145 63.5l-152 36q-142 33 -208 96.5t-66 165.5q0 143 107 227.5t287 84.5q183 0 289 -94.5t109 -259.5h-126q0 117 -72 177.5
t-212 60.5q-117 0 -185.5 -50t-68.5 -134q0 -60 42 -94.5t140 -55.5l156 -32q141 -30 209.5 -98.5t68.5 -179.5q0 -144 -102 -227t-282 -83q-125 0 -213.5 47t-130.5 135l-46 -236q-14 -77 13.5 -113.5t100.5 -36.5h26z" />
    <glyph glyph-name="uni0283" unicode="&#x283;" horiz-adv-x="600" 
d="M304 -48q-14 -79 -47 -138t-77 -91.5t-92 -47.5t-100 -15h-82l22 118h62q74 0 122 41t68 147l214 1216q12 68 43 118.5t73.5 78.5t88.5 41.5t97 13.5h90l-20 -116h-84q-67 0 -108.5 -32t-55.5 -116z" />
    <glyph glyph-name="uni0284" unicode="&#x284;" horiz-adv-x="648" 
d="M68 0l20 116h166l188 1066q15 89 64.5 148t109 81.5t128.5 22.5h88l-20 -116h-82q-67 0 -108.5 -32t-55.5 -116l-186 -1054h220l-20 -116h-222l-14 -88q-24 -130 -109 -191t-193 -61h-72l20 116h64q66 0 108.5 32.5t57.5 115.5l14 76h-166z" />
    <glyph glyph-name="uni0285" unicode="&#x285;" horiz-adv-x="684" 
d="M228 908l22 116h88q51 0 92.5 -13.5t74 -41.5t46 -78.5t1.5 -118.5l-150 -844q-14 -84 16 -117t96 -33h64l-22 -118h-70q-108 0 -171 62t-41 194l150 844q14 84 -16 116t-96 32h-84z" />
    <glyph glyph-name="uni0286" unicode="&#x286;" horiz-adv-x="886" 
d="M94 -96q0 -60 40 -92t114 -32q96 0 149 56t75 182l8 48q-74 40 -174 40q-91 0 -151.5 -57.5t-60.5 -144.5zM780 -410h-126q0 240 -68 364q-36 -141 -124.5 -217.5t-215.5 -76.5q-132 0 -207 64t-75 176q0 136 101 230t247 94q106 0 190 -36l176 994q20 119 94 185.5
t188 66.5h108l-18 -116h-82q-72 0 -111.5 -35t-52.5 -113l-188 -1058q164 -158 164 -522z" />
    <glyph glyph-name="uni0287" unicode="&#x287;" horiz-adv-x="650" 
d="M582 0h-194l-48 -266h-126l48 266h-192l20 116h192l114 640q14 86 -8.5 119t-75.5 33h-82l20 116h90q97 0 151.5 -60.5t32.5 -191.5l-116 -656h194z" />
    <glyph glyph-name="uni0288" unicode="&#x288;" horiz-adv-x="650" 
d="M544 -218l-22 -116h-90q-45 0 -81.5 13t-66 42.5t-38 78t1.5 118.5l174 990h-192l20 116h192l48 266h126l-48 -266h194l-20 -116h-194l-172 -974q-15 -85 8.5 -118.5t75.5 -33.5h84z" />
    <glyph glyph-name="uni0289" unicode="&#x289;" horiz-adv-x="1044" 
d="M106 606h102l76 418h128l-76 -418h576l72 418h126l-72 -418h112l-18 -112h-114l-86 -494h-126l26 150q-63 -80 -151.5 -124t-188.5 -44q-111 0 -191.5 58.5t-114 158t-12.5 217.5l14 78h-100zM304 430q-26 -152 33 -240t193 -88q140 0 232.5 83.5t115.5 228.5l14 80h-576
z" />
    <glyph glyph-name="uni028A" unicode="&#x28a;" horiz-adv-x="1134" 
d="M588 -18q-195 0 -309.5 108t-114.5 294q0 161 86 302.5t230 221.5h-228l18 116h398l-20 -116q-149 -51 -248.5 -201.5t-99.5 -326.5q0 -133 75.5 -204.5t212.5 -71.5q184 0 300 132t116 342q0 120 -51.5 208t-142.5 122l18 116h396l-18 -116h-236q80 -59 124 -152
t44 -206q0 -117 -43 -222t-116 -181t-175.5 -120.5t-215.5 -44.5z" />
    <glyph glyph-name="uni028B" unicode="&#x28b;" horiz-adv-x="1062" 
d="M290 1024h128l-110 -630q-24 -135 36.5 -210.5t193.5 -75.5q183 0 299.5 162t116.5 414q0 114 -49.5 169t-152.5 55h-42l20 116h56q141 0 218.5 -94t77.5 -266q0 -189 -71.5 -345t-196.5 -245.5t-276 -89.5q-195 0 -294 113.5t-64 296.5z" />
    <glyph glyph-name="uni028C" unicode="&#x28c;" horiz-adv-x="1096" 
d="M1028 0h-130l-188 872l-488 -872h-152l588 1024h142z" />
    <glyph glyph-name="uni028D" unicode="&#x28d;" horiz-adv-x="1560" 
d="M1492 0h-134l-76 860l-420 -860h-144l-106 860l-394 -860h-148l496 1024h136l108 -866l422 866h140z" />
    <glyph glyph-name="uni028E" unicode="&#x28e;" horiz-adv-x="1100" 
d="M1206 1310h-88q-93 0 -152.5 -51t-129.5 -179l-32 -62l228 -1018h-130l-192 864l-488 -864h-152l622 1092q106 186 195 264t205 78h136z" />
    <glyph glyph-name="uni028F" unicode="&#x28f;" horiz-adv-x="1022" 
d="M506 334l-256 690h138l194 -546l390 546h162l-502 -690l-60 -334h-126z" />
    <glyph glyph-name="uni0290" unicode="&#x290;" horiz-adv-x="956" 
d="M990 -226l-20 -114h-32q-51 0 -92.5 13t-74 40.5t-46 77.5t-1.5 117l16 92h-648l24 136l764 774h-628l20 114h774l-26 -136l-766 -774h630l-20 -114l-12 -76q-15 -84 15.5 -117t96.5 -33h26z" />
    <glyph glyph-name="uni0291" unicode="&#x291;" horiz-adv-x="1120" 
d="M432 -200q19 111 50 200h-390l24 136l760 774h-624l20 114h772l-22 -136l-760 -774h266q73 151 177 234.5t225 83.5q103 0 167.5 -57t64.5 -147q0 -99 -73.5 -163.5t-186.5 -64.5h-294q-34 -103 -50 -200h-126zM924 320q-162 0 -270 -206h250q59 0 96.5 33t37.5 85
q0 40 -31.5 64t-82.5 24z" />
    <glyph glyph-name="uni0292" unicode="&#x292;" horiz-adv-x="1072" 
d="M684 442q160 -10 243 -106t83 -272q0 -208 -143 -341t-369 -133q-195 0 -309.5 99.5t-114.5 268.5h130q0 -117 78 -182.5t216 -65.5q171 0 274.5 101.5t103.5 268.5q0 123 -69 188.5t-201 65.5h-88l18 116l444 456l-730 2l20 116h896l-16 -118z" />
    <glyph glyph-name="uni0293" unicode="&#x293;" horiz-adv-x="1072" 
d="M412 30q-83 0 -145.5 -44t-62.5 -112q0 -79 75.5 -122.5t210.5 -43.5q190 0 296 118q-66 106 -156.5 155t-217.5 49zM684 448q160 -10 243 -107.5t83 -276.5q0 -149 -78 -264q46 -101 68 -210h-116q-20 69 -38 116q-141 -116 -352 -116q-194 0 -308 77t-114 207
q0 115 100 193.5t230 78.5q285 0 448 -212q26 64 26 146q0 126 -70 194t-200 68h-90l18 116l446 448l-730 2l20 116h896l-16 -118z" />
    <glyph glyph-name="uni0294" unicode="&#x294;" horiz-adv-x="1070" 
d="M682 454l-80 -454h-126l94 532q219 81 341.5 229t122.5 331q0 116 -70 178t-200 62q-135 0 -232.5 -84.5t-129.5 -227.5h-132q45 200 177.5 316t314.5 116q180 0 293 -102.5t113 -265.5q0 -190 -131 -359.5t-355 -270.5z" />
    <glyph glyph-name="uni0295" unicode="&#x295;" horiz-adv-x="1070" 
d="M552 454q-292 171 -292 482q0 222 141 369t357 147q204 0 313 -117t89 -315h-132q15 141 -56.5 226.5t-215.5 85.5q-165 0 -264.5 -111.5t-99.5 -296.5q0 -267 298 -392l-94 -532h-126z" />
    <glyph glyph-name="uni0296" unicode="&#x296;" horiz-adv-x="1070" 
d="M764 980q290 -172 290 -482q0 -222 -141 -369t-357 -147q-204 0 -313 117t-89 315h132q-15 -141 56.5 -226.5t215.5 -85.5q165 0 264.5 111.5t99.5 296.5q0 267 -298 392l94 532h126z" />
    <glyph glyph-name="uni0297" unicode="&#x297;" horiz-adv-x="1112" 
d="M146 226q0 173 44.5 325t121.5 260.5t184.5 171.5t229.5 63q176 0 280 -115.5t104 -304.5h-130q0 140 -70.5 220t-195.5 80q-122 0 -222 -92t-157 -253t-57 -357q0 -247 85 -380.5t243 -133.5q118 0 206.5 78t117.5 206h138q-44 -186 -170.5 -295t-301.5 -109
q-206 0 -328 173t-122 463z" />
    <glyph glyph-name="uni0298" unicode="&#x298;" horiz-adv-x="1258" 
d="M186 478q0 245 86 445.5t237.5 314.5t336.5 114q220 0 338 -132t118 -378q0 -248 -83 -444t-231.5 -305t-337.5 -109q-223 0 -343.5 128.5t-120.5 365.5zM1174 862q0 370 -326 370q-154 0 -275 -98t-188 -274t-67 -400q0 -356 332 -356q237 0 380.5 207.5t143.5 550.5z
M690 730h144l-28 -154h-144z" />
    <glyph glyph-name="uni0299" unicode="&#x299;" horiz-adv-x="1036" 
d="M866 516q65 -30 100.5 -85t35.5 -127q0 -128 -97.5 -216t-238.5 -88h-556l180 1024h504q123 0 196.5 -67t73.5 -179q0 -90 -52 -159t-146 -103zM728 570q90 0 145 56.5t55 149.5q0 66 -39 100t-111 34h-372l-60 -340h382zM644 114q103 0 163.5 56t60.5 152q0 66 -41 101
t-119 35h-382l-62 -344h380z" />
    <glyph glyph-name="uni029A" unicode="&#x29a;" horiz-adv-x="1032" 
d="M332 516q-53 29 -81.5 82.5t-28.5 123.5q0 139 112 231.5t282 92.5q197 0 314.5 -125t117.5 -333q0 -165 -75 -304t-204.5 -219.5t-284.5 -80.5q-148 0 -235 72.5t-87 197.5q0 86 45.5 157t124.5 105zM916 606q0 154 -76.5 238t-217.5 84q-124 0 -196 -60t-72 -164
q0 -62 38 -95t108 -33h176l-20 -116h-176q-82 0 -133 -58t-51 -150q0 -73 48.5 -111.5t139.5 -38.5q189 0 310.5 142t121.5 362z" />
    <glyph glyph-name="uni029B" unicode="&#x29b;" horiz-adv-x="1108" 
d="M190 424q0 178 67.5 320t188 222t272.5 80q113 0 198 -46.5t130 -131.5l36 206q24 133 105.5 195.5t184.5 62.5h32l-22 -118h-24q-63 0 -102.5 -33.5t-53.5 -120.5l-70 -386h-126q0 120 -76.5 187t-211.5 67q-172 0 -283 -144.5t-111 -369.5q0 -144 77.5 -228t210.5 -84
q121 0 211 82.5t131 229.5h-296l18 108h454l-104 -522h-94l28 202q-65 -106 -159 -163t-207 -57q-180 0 -292 122t-112 320z" />
    <glyph glyph-name="uni029C" unicode="&#x29c;" horiz-adv-x="1068" 
d="M290 1024h128l-78 -450h592l80 450h126l-180 -1024h-126l78 452h-592l-80 -452h-128z" />
    <glyph glyph-name="uni029D" unicode="&#x29d;" horiz-adv-x="504" 
d="M488 1326h154l-26 -156h-154zM380 -86q-20 -119 -92 -186.5t-178 -67.5q-114 0 -176 57t-62 159q0 127 96.5 212.5t237.5 85.5h94l148 850h126l-148 -850h124l-20 -116h-124zM106 -224q64 0 99.5 36t50.5 114l24 132h-68q-95 0 -155.5 -50.5t-60.5 -129.5q0 -48 29 -75
t81 -27z" />
    <glyph glyph-name="uni029E" unicode="&#x29e;" horiz-adv-x="982" 
d="M270 0h-184l538 506l-384 518h150l326 -432l160 142l52 290h126l-240 -1358h-126l156 884z" />
    <glyph glyph-name="uni029F" unicode="&#x29f;" horiz-adv-x="786" 
d="M716 0h-606l180 1024h128l-158 -904h478z" />
    <glyph glyph-name="uni02A0" unicode="&#x2a0;" horiz-adv-x="1158" 
d="M1416 1318h-28q-60 0 -99 -33.5t-53 -118.5l-262 -1500h-126l88 506q-65 -89 -153.5 -138.5t-194.5 -49.5q-191 0 -304.5 121t-113.5 323q0 172 67.5 314t186 223t262.5 81q141 0 232 -67.5t126 -188.5l68 392q24 135 94.5 193.5t179.5 58.5h50zM302 428
q0 -155 82.5 -239.5t231.5 -84.5q156 0 269 141.5t113 356.5q0 153 -83 238.5t-231 85.5q-158 0 -270 -141t-112 -357z" />
    <glyph glyph-name="uni02A1" unicode="&#x2a1;" horiz-adv-x="1070" 
d="M236 364h304l30 168q219 81 341.5 229t122.5 331q0 116 -70 178t-200 62q-135 0 -232.5 -84.5t-129.5 -227.5h-132q45 200 177.5 316t314.5 116q180 0 293 -102.5t113 -265.5q0 -189 -131.5 -358t-354.5 -266l-16 -96h304l-20 -112h-304l-44 -252h-126l44 252h-304z" />
    <glyph glyph-name="uni02A2" unicode="&#x2a2;" horiz-adv-x="1070" 
d="M236 364h298l18 98q-292 168 -292 478q0 221 141 366.5t357 145.5q204 0 313 -117t89 -315h-132q15 141 -56.5 226.5t-215.5 85.5q-165 0 -264.5 -111.5t-99.5 -296.5q0 -267 298 -392l-30 -168h310l-20 -112h-310l-44 -252h-126l44 252h-298z" />
    <glyph glyph-name="uni02A3" unicode="&#x2a3;" horiz-adv-x="1986" 
d="M1284 1434l-72 -410h864l-24 -136l-766 -774h630l-20 -114h-774l24 136l764 774h-718l-160 -910h-128l30 170q-135 -186 -346 -186q-191 0 -304.5 121t-113.5 323q0 172 67.5 314t186 223t262.5 81q139 0 230 -67t128 -187l112 642h128zM302 428q0 -155 82.5 -239.5
t231.5 -84.5q156 0 269 141.5t113 356.5q0 153 -83 238.5t-231 85.5q-158 0 -270 -141t-112 -357z" />
    <glyph glyph-name="uni02A4" unicode="&#x2a4;" horiz-adv-x="1930" 
d="M1156 1434h128l-72 -410h742l-14 -118l-410 -464q159 -11 241.5 -107t82.5 -271q0 -208 -144.5 -341t-371.5 -133q-194 0 -307 83t-113 225h132q0 -90 76.5 -140t211.5 -50q173 0 277.5 102t104.5 270q0 123 -69 188.5t-199 65.5h-90l18 116l394 456h-582l-160 -906h-128
l30 170q-135 -186 -346 -186q-191 0 -304.5 121t-113.5 323q0 172 67.5 314t186 223t262.5 81q139 0 230 -67t128 -187zM302 428q0 -155 82.5 -239.5t231.5 -84.5q156 0 269 141.5t113 356.5q0 153 -83 238.5t-231 85.5q-158 0 -270 -141t-112 -357z" />
    <glyph glyph-name="uni02A5" unicode="&#x2a5;" horiz-adv-x="2030" 
d="M1462 -200q19 111 50 200h-390l24 136l760 774h-714l-160 -910h-128l30 170q-135 -186 -346 -186q-191 0 -304.5 121t-113.5 323q0 172 67.5 314t186 223t262.5 81q139 0 230 -67t128 -187l112 642h128l-72 -410h862l-22 -136l-760 -774h266q73 151 177 234.5t225 83.5
q103 0 167.5 -57t64.5 -147q0 -99 -73.5 -163.5t-186.5 -64.5h-294q-34 -103 -50 -200h-126zM302 428q0 -155 82.5 -239.5t231.5 -84.5q156 0 269 141.5t113 356.5q0 153 -83 238.5t-231 85.5q-158 0 -270 -141t-112 -357zM1954 320q-162 0 -270 -206h250q59 0 96.5 33
t37.5 85q0 40 -31.5 64t-82.5 24z" />
    <glyph glyph-name="uni02A6" unicode="&#x2a6;" horiz-adv-x="1536" 
d="M1180 446l-156 22q-141 21 -208.5 82t-67.5 166q0 146 116 237t304 91q187 0 286.5 -84.5t99.5 -243.5h-130q0 111 -63 162.5t-201 51.5q-126 0 -205 -57t-79 -147q0 -56 43.5 -87.5t140.5 -44.5l160 -20q282 -41 282 -266q0 -138 -104 -223t-272 -85h-554
q-60 0 -108.5 13.5t-90 44.5t-58 92t-1.5 146l108 612h-192l20 116h192l48 266h126l-48 -266h194l-20 -116h-194l-106 -596q-15 -93 14 -141.5t126 -48.5h528q120 0 191 49t71 131q0 60 -47 94.5t-145 49.5z" />
    <glyph glyph-name="uni02A7" unicode="&#x2a7;" horiz-adv-x="1132" 
d="M836 -50q-13 -78 -43.5 -136.5t-72 -91t-86 -47.5t-92.5 -15h-104l20 118h62q75 0 123.5 40.5t66.5 145.5l8 36h-218q-47 0 -85.5 13t-69 42.5t-40 78t0.5 118.5l116 656h-192l20 116h192l48 266h126l-48 -266h330l28 158q11 68 39 118.5t67.5 78.5t82 41.5t89.5 13.5
h114l-22 -116h-82q-67 0 -107.5 -32t-54.5 -116zM520 116h218l140 792h-330l-114 -640q-14 -85 9.5 -118.5t76.5 -33.5z" />
    <glyph glyph-name="uni02A8" unicode="&#x2a8;" horiz-adv-x="1616" 
d="M518 0q-123 0 -178 67t-34 187l116 654h-192l20 116h192l48 266h126l-48 -266h194l-20 -116h-194l-114 -638q-14 -81 7.5 -118.5t82.5 -37.5q99 0 216 80q-56 103 -56 230q0 168 74 310.5t201 225t277 82.5q187 0 300.5 -100.5t113.5 -267.5h-134q-2 116 -76.5 182
t-203.5 66q-182 0 -301 -144t-119 -366q0 -80 26 -138q2 2 7 6t7 6q49 46 78.5 72t78.5 62.5t88.5 55.5t92 33.5t106.5 14.5q129 0 203.5 -68t74.5 -184q0 -118 -122 -206t-284 -88q-233 0 -364 128q-147 -106 -290 -106zM1190 94q113 0 183.5 49.5t70.5 128.5q0 66 -41 101
t-119 35q-29 0 -58.5 -7.5t-51.5 -14.5t-55 -29l-48 -32t-52.5 -43.5t-47.5 -42.5t-53 -49q-6 -6 -10 -8q97 -88 282 -88z" />
    <glyph glyph-name="uni02A9" unicode="&#x2a9;" horiz-adv-x="1530" 
d="M230 908l20 116h164l28 158q12 68 40.5 118.5t68 78.5t83 41.5t90.5 13.5h110l-20 -116h-82q-67 0 -109 -32t-57 -116l-26 -146h222l-2 -14l2 14h126l-26 -144q62 77 149.5 121.5t188.5 44.5q189 0 279.5 -105.5t56.5 -286.5l-128 -720q-22 -139 -103.5 -216.5
t-204.5 -77.5h-130l20 118h102q83 0 128.5 44.5t63.5 143.5l120 682q25 145 -33.5 220.5t-198.5 75.5q-131 0 -231 -80.5t-121 -201.5l-112 -642h-126l160 908h-222l-160 -908h-126l160 908h-164z" />
    <glyph glyph-name="uni02AA" unicode="&#x2aa;" horiz-adv-x="1324" 
d="M966 446l-154 22q-141 21 -208.5 80.5t-67.5 163.5q0 149 115.5 240.5t302.5 91.5q193 0 297.5 -89t104.5 -253h-128q0 111 -70.5 169.5t-203.5 58.5q-127 0 -207.5 -58t-80.5 -150q0 -56 41.5 -85.5t138.5 -42.5l160 -20q143 -21 212.5 -85t69.5 -175
q0 -144 -112.5 -229t-301.5 -85h-470q-138 0 -202 78.5t-40 217.5l200 1138h128l-196 -1122q-17 -101 15.5 -145.5t122.5 -44.5h426q140 0 221 48t81 130q0 60 -47.5 95.5t-146.5 50.5z" />
    <glyph glyph-name="uni02AB" unicode="&#x2ab;" horiz-adv-x="1194" 
d="M492 1434l-74 -410h866l-24 -136l-766 -774h630l-20 -114h-774l24 136l764 774h-720l-160 -910h-128l254 1434h128z" />
    <glyph glyph-name="uni02AC" unicode="&#x2ac;" horiz-adv-x="1056" 
d="M306 1332h128l34 -442l224 442h134l58 -442l204 442h132l-298 -594h-120l-66 446l-232 -446h-124zM176 594h128l34 -440l224 440h134l58 -440l204 440h132l-298 -594h-120l-66 446l-232 -446h-124z" />
    <glyph glyph-name="uni02AD" unicode="&#x2ad;" horiz-adv-x="1056" 
d="M1076 738h-118l84 478h-596l-84 -478h-120l106 594h832zM946 0h-118l84 480h-596l-84 -480h-120l104 594h834z" />
    <glyph glyph-name="uni02AE" unicode="&#x2ae;" horiz-adv-x="1044" 
d="M310 414q-28 -160 31.5 -237t190.5 -77q125 0 224.5 85.5t121.5 216.5l110 622h126l-238 -1358h-126l84 480q-61 -81 -149 -124.5t-187 -43.5q-177 0 -265.5 109t-54.5 301l64 366q16 86 -9.5 120t-84.5 34h-62l20 116h70q102 0 161 -62.5t37 -195.5z" />
    <glyph glyph-name="uni02AF" unicode="&#x2af;" horiz-adv-x="1044" 
d="M310 414q-28 -160 31.5 -237t190.5 -77q125 0 224.5 85.5t121.5 216.5l110 622h126l-192 -1090q-15 -87 12.5 -120.5t87.5 -33.5h28l-22 -114h-34q-48 0 -87.5 13t-71 42.5t-41.5 78t0 118.5l42 236q-66 -84 -155 -130t-183 -46q-178 0 -266 107.5t-54 302.5l64 366
q16 86 -9.5 120t-84.5 34h-62l20 116h70q102 0 161 -62.5t37 -195.5z" />
    <glyph glyph-name="uni02BC" unicode="&#x2bc;" horiz-adv-x="274" 
d="M368 1402h154l-36 -200q-18 -106 -72 -155t-120 -49h-32l14 78h24q50 0 81 29t45 109l4 24h-92z" />
    <glyph glyph-name="uni02C8" unicode="&#x2c8;" horiz-adv-x="344" 
d="M364 1434h124l-114 -648h-124z" />
    <glyph glyph-name="uni02CC" unicode="&#x2cc;" horiz-adv-x="344" 
d="M166 316h126l-116 -650h-124z" />
    <glyph glyph-name="uni02D0" unicode="&#x2d0;" horiz-adv-x="432" 
d="M276 1024h242l-160 -224zM256 224l82 -224h-242z" />
    <glyph glyph-name="gravecomb" unicode="&#x300;" horiz-adv-x="614" 
d="M104 1340h144l194 -316h-104z" />
    <glyph glyph-name="acutecomb" unicode="&#x301;" horiz-adv-x="614" 
d="M648 1340l-306 -316h-116l258 316h164z" />
    <glyph glyph-name="uni0302" unicode="&#x302;" horiz-adv-x="614" 
d="M482 1358h130l270 -334h-136l-200 258l-292 -258h-158z" />
    <glyph glyph-name="tildecomb" unicode="&#x303;" horiz-adv-x="614" 
d="M380 1318q39 0 72 -18t49.5 -36.5t40.5 -51.5q17 -26 23.5 -35t21.5 -26t29.5 -23t33.5 -6q48 0 84.5 50.5t51.5 133.5h104q-24 -134 -91.5 -212t-158.5 -78q-25 0 -46.5 6.5t-33.5 12t-30 24t-21.5 23t-22.5 28.5q-5 7 -22.5 34t-25.5 36.5t-25 20.5t-35 11
q-48 0 -86.5 -51.5t-51.5 -136.5h-110q24 139 89.5 216.5t160.5 77.5z" />
    <glyph glyph-name="uni0304" unicode="&#x304;" horiz-adv-x="614" 
d="M202 1174h624l-20 -112h-624z" />
    <glyph glyph-name="uni0306" unicode="&#x306;" horiz-adv-x="614" 
d="M876 1318q-32 -135 -128 -215.5t-232 -80.5q-157 0 -239.5 80.5t-68.5 215.5h124q-6 -94 38.5 -144t139.5 -50q191 0 244 194h122z" />
    <glyph glyph-name="uni0307" unicode="&#x307;" horiz-adv-x="614" 
d="M450 1190h154l-28 -166h-156z" />
    <glyph glyph-name="uni0308" unicode="&#x308;" horiz-adv-x="614" 
d="M648 1186h154l-30 -162h-152zM232 1186h152l-30 -162h-150z" />
    <glyph glyph-name="hookabovecomb" unicode="&#x309;" horiz-adv-x="614" 
d="M434 1024q7 40 35 72t97 80q41 31 59.5 51.5t22.5 44.5q6 33 -14.5 52.5t-61.5 19.5q-44 0 -78 -23t-50 -63h-112q31 84 96.5 130t149.5 46q95 0 143 -45t35 -121q-9 -47 -32 -77t-80 -69q-46 -28 -65 -48.5t-25 -49.5h-120z" />
    <glyph glyph-name="uni030A" unicode="&#x30a;" horiz-adv-x="614" 
d="M600 1316q0 -132 -82.5 -219t-207.5 -87q-114 0 -182 64.5t-68 171.5q0 133 82 219.5t208 86.5q113 0 181.5 -65t68.5 -171zM170 1248q0 -66 39 -103t111 -37q75 0 122.5 57t47.5 149q0 66 -39 103t-109 37q-77 0 -124.5 -56.5t-47.5 -149.5z" />
    <glyph glyph-name="uni030B" unicode="&#x30b;" horiz-adv-x="614" 
d="M1000 1340l-330 -316h-108l284 316h154zM694 1340l-332 -316h-106l284 316h154z" />
    <glyph glyph-name="uni030C" unicode="&#x30c;" horiz-adv-x="614" 
d="M554 1024h-130l-270 334h140l200 -258l292 258h154z" />
    <glyph glyph-name="uni0312" unicode="&#x312;" horiz-adv-x="614" 
d="M578 1024h-156l36 198q18 107 72 156.5t120 49.5h30l-12 -78h-24q-50 0 -82 -30t-46 -110l-4 -20h94z" />
    <glyph glyph-name="uni0313" unicode="&#x313;" horiz-adv-x="614" 
d="M528 1428h154l-36 -198q-18 -107 -72 -156.5t-120 -49.5h-32l14 80h26q50 0 80 29t44 109l4 22h-92z" />
    <glyph glyph-name="uni0315" unicode="&#x315;" horiz-adv-x="614" 
d="M398 1416h126l-140 -392h-114z" />
    <glyph glyph-name="uni031B" unicode="&#x31b;" horiz-adv-x="614" 
d="M354 1122h132q67 0 109.5 33.5t56.5 118.5l12 62h118l-14 -74q-11 -67 -40.5 -117t-69 -77t-81.5 -39.5t-87 -12.5h-138z" />
    <glyph glyph-name="dotbelowcomb" unicode="&#x323;" horiz-adv-x="610" 
d="M204 -146h154l-26 -156h-156z" />
    <glyph glyph-name="uni0326" unicode="&#x326;" horiz-adv-x="614" 
d="M236 -76h156l-36 -198q-18 -107 -72 -156.5t-122 -49.5h-30l14 80h24q50 0 81 29t45 109l4 20h-92z" />
    <glyph glyph-name="uni0327" unicode="&#x327;" horiz-adv-x="614" 
d="M284 20h102l-48 -132h32q79 0 125.5 -53.5t46.5 -132.5q0 -117 -75.5 -183.5t-208.5 -66.5h-204l20 116h166q84 0 133 37.5t49 102.5q0 36 -24.5 55t-69.5 19h-68l-40 64z" />
    <glyph glyph-name="uni0328" unicode="&#x328;" horiz-adv-x="614" 
d="M402 0q-140 -93 -200 -171t-60 -167q0 -106 140 -106h128l-22 -120h-132q-109 0 -175.5 55t-66.5 147q0 110 72 203t206 159h110z" />
    <glyph glyph-name="uni1E9E" unicode="&#x1e9e;" horiz-adv-x="1252" 
d="M898 716q155 -8 244.5 -87t89.5 -219q0 -177 -140 -293.5t-354 -116.5h-174l22 120h130q85 0 153 18.5t111 48.5t72 70t40.5 80t11.5 81q0 93 -73.5 142.5t-208.5 49.5h-88l20 116l410 478q-138 36 -282 36q-224 0 -342.5 -98t-155.5 -314l-146 -828h-128l152 870
q42 241 196.5 363.5t413.5 122.5q220 0 430 -80l-20 -112z" />
    <glyph glyph-name="uni1EA0" unicode="&#x1ea0;" horiz-adv-x="1270" 
d="M1204 0h-132l-70 372h-584l-198 -372h-152l732 1332h144zM850 1174l-370 -688h500zM532 -146h154l-26 -156h-156z" />
    <glyph glyph-name="uni1EA1" unicode="&#x1ea1;" horiz-adv-x="1038" 
d="M1048 666l-118 -666h-132l28 148q-68 -80 -160.5 -123t-197.5 -43q-146 0 -237 75.5t-91 198.5q0 136 93.5 224t250.5 94l296 10q68 2 98 16.5t40 51.5l4 22q21 113 -57.5 185.5t-214.5 72.5q-228 0 -290 -196h-138q36 144 153.5 227t284.5 83q192 0 303.5 -109
t84.5 -271zM274 270q0 -78 61 -126t163 -48q131 0 233 80t137 208l16 88l-378 -12q-114 -3 -173 -54t-59 -136zM472 -148h154l-28 -156h-154z" />
    <glyph glyph-name="uni1EA2" unicode="&#x1ea2;" horiz-adv-x="1270" 
d="M756 1434q7 40 35 72t97 80q42 30 59.5 51t22.5 45q6 33 -14.5 52.5t-61.5 19.5q-90 0 -128 -86h-112q33 84 98 130t150 46q95 0 142 -45t34 -121q-7 -46 -30.5 -76t-79.5 -70q-47 -27 -66.5 -47.5t-25.5 -50.5h-120zM1204 0h-132l-70 372h-584l-198 -372h-152l732 1332
h144zM850 1174l-370 -688h500z" />
    <glyph glyph-name="uni1EA3" unicode="&#x1ea3;" horiz-adv-x="1038" 
d="M640 1146q7 40 35 72t97 80q41 31 59.5 51.5t22.5 44.5q6 33 -14.5 52.5t-61.5 19.5q-44 0 -78 -23t-50 -63h-112q31 84 96.5 130t151.5 46q93 0 141 -45.5t35 -120.5q-7 -46 -30.5 -76.5t-81.5 -69.5q-46 -28 -65 -48.5t-25 -49.5h-120zM1048 666l-118 -666h-132l28 148
q-68 -80 -160.5 -123t-197.5 -43q-146 0 -237 75.5t-91 198.5q0 136 93.5 224t250.5 94l296 10q68 2 98 16.5t40 51.5l4 22q21 113 -57.5 185.5t-214.5 72.5q-228 0 -290 -196h-138q36 144 153.5 227t284.5 83q192 0 303.5 -109t84.5 -271zM274 270q0 -78 61 -126t163 -48
q131 0 233 80t137 208l16 88l-378 -12q-114 -3 -173 -54t-59 -136z" />
    <glyph glyph-name="uni1EA4" unicode="&#x1ea4;" horiz-adv-x="1270" 
d="M1622 1954l-306 -316h-118l260 316h164zM870 1768h130l268 -334h-136l-200 258l-290 -258h-160zM1204 0h-132l-70 372h-584l-198 -372h-152l732 1332h144zM850 1174l-370 -688h500z" />
    <glyph glyph-name="uni1EA5" unicode="&#x1ea5;" horiz-adv-x="1038" 
d="M1416 1708l-306 -316h-118l260 316h164zM708 1478h130l270 -334h-136l-200 258l-292 -258h-158zM1048 666l-118 -666h-132l28 148q-68 -80 -160.5 -123t-197.5 -43q-146 0 -237 75.5t-91 198.5q0 136 93.5 224t250.5 94l296 10q68 2 98 16.5t40 51.5l4 22
q21 113 -57.5 185.5t-214.5 72.5q-228 0 -290 -196h-138q36 144 153.5 227t284.5 83q192 0 303.5 -109t84.5 -271zM274 270q0 -78 61 -126t163 -48q131 0 233 80t137 208l16 88l-378 -12q-114 -3 -173 -54t-59 -136z" />
    <glyph glyph-name="uni1EA6" unicode="&#x1ea6;" horiz-adv-x="1270" 
d="M1100 1954h144l194 -316h-104zM870 1768h130l268 -334h-136l-200 258l-290 -258h-160zM1204 0h-132l-70 372h-584l-198 -372h-152l732 1332h144zM850 1174l-370 -688h500z" />
    <glyph glyph-name="uni1EA7" unicode="&#x1ea7;" horiz-adv-x="1038" 
d="M898 1708h144l194 -316h-104zM708 1478h130l270 -334h-136l-200 258l-292 -258h-158zM1048 666l-118 -666h-132l28 148q-68 -80 -160.5 -123t-197.5 -43q-146 0 -237 75.5t-91 198.5q0 136 93.5 224t250.5 94l296 10q68 2 98 16.5t40 51.5l4 22q21 113 -57.5 185.5
t-214.5 72.5q-228 0 -290 -196h-138q36 144 153.5 227t284.5 83q192 0 303.5 -109t84.5 -271zM274 270q0 -78 61 -126t163 -48q131 0 233 80t137 208l16 88l-378 -12q-114 -3 -173 -54t-59 -136z" />
    <glyph glyph-name="uni1EA8" unicode="&#x1ea8;" horiz-adv-x="1270" 
d="M1228 1638q7 40 35 71.5t97 80.5q42 30 59.5 51t22.5 45q6 33 -14 52.5t-60 19.5q-92 0 -130 -86h-110q31 84 95.5 130t150.5 46q95 0 143 -45t33 -121q-7 -46 -30.5 -76t-79.5 -70q-47 -28 -66.5 -48.5t-25.5 -49.5h-120zM870 1768h130l268 -334h-136l-200 258
l-290 -258h-160zM1204 0h-132l-70 372h-584l-198 -372h-152l732 1332h144zM850 1174l-370 -688h500z" />
    <glyph glyph-name="uni1EA9" unicode="&#x1ea9;" horiz-adv-x="1038" 
d="M1024 1392q7 40 35 72t97 80q41 31 59.5 51.5t22.5 44.5q6 33 -14.5 52.5t-61.5 19.5q-44 0 -78 -23t-50 -63h-112q31 84 96.5 130t151.5 46q93 0 141 -45t35 -121q-7 -46 -30.5 -76.5t-81.5 -69.5q-46 -27 -65 -48t-25 -50h-120zM708 1478h130l270 -334h-136l-200 258
l-292 -258h-158zM1048 666l-118 -666h-132l28 148q-68 -80 -160.5 -123t-197.5 -43q-146 0 -237 75.5t-91 198.5q0 136 93.5 224t250.5 94l296 10q68 2 98 16.5t40 51.5l4 22q21 113 -57.5 185.5t-214.5 72.5q-228 0 -290 -196h-138q36 144 153.5 227t284.5 83
q192 0 303.5 -109t84.5 -271zM274 270q0 -78 61 -126t163 -48q131 0 233 80t137 208l16 88l-378 -12q-114 -3 -173 -54t-59 -136z" />
    <glyph glyph-name="uni1EAA" unicode="&#x1eaa;" horiz-adv-x="1270" 
d="M862 2154q39 0 72 -18t50 -37t40 -53q38 -55 56 -70q24 -18 52 -18q47 0 84 50t52 134h104q-24 -134 -92.5 -213t-159.5 -79q-30 0 -53 7t-43 25t-28.5 28.5t-27.5 35.5q-6 8 -19 28t-20 29.5t-19 22t-24.5 17.5t-27.5 5q-47 0 -85 -52.5t-53 -137.5h-108
q24 140 89.5 218t160.5 78zM870 1768h130l268 -334h-136l-200 258l-290 -258h-160zM1204 0h-132l-70 372h-584l-198 -372h-152l732 1332h144zM850 1174l-370 -688h500z" />
    <glyph glyph-name="uni1EAB" unicode="&#x1eab;" horiz-adv-x="1038" 
d="M690 1886q31 0 55.5 -8.5t45 -27t32 -32.5t29.5 -40q38 -55 56 -70q24 -18 52 -18q48 0 85.5 50t50.5 134h104q-22 -133 -90 -211.5t-160 -78.5q-25 0 -46.5 6.5t-33.5 12t-30 24t-21.5 23t-22.5 28.5q-5 8 -22.5 34.5t-25.5 36t-25 20.5t-35 11q-48 0 -86.5 -52
t-51.5 -136h-110q26 139 91 216.5t159 77.5zM708 1478h130l270 -334h-136l-200 258l-292 -258h-158zM1048 666l-118 -666h-132l28 148q-68 -80 -160.5 -123t-197.5 -43q-146 0 -237 75.5t-91 198.5q0 136 93.5 224t250.5 94l296 10q68 2 98 16.5t40 51.5l4 22
q21 113 -57.5 185.5t-214.5 72.5q-228 0 -290 -196h-138q36 144 153.5 227t284.5 83q192 0 303.5 -109t84.5 -271zM274 270q0 -78 61 -126t163 -48q131 0 233 80t137 208l16 88l-378 -12q-114 -3 -173 -54t-59 -136z" />
    <glyph glyph-name="uni1EAC" unicode="&#x1eac;" horiz-adv-x="1270" 
d="M864 1768h130l268 -334h-134l-202 258l-290 -258h-160zM1204 0h-132l-70 372h-584l-198 -372h-152l732 1332h144zM850 1174l-370 -688h500zM532 -146h154l-26 -156h-156z" />
    <glyph glyph-name="uni1EAD" unicode="&#x1ead;" horiz-adv-x="1038" 
d="M708 1478h130l270 -334h-136l-200 258l-292 -258h-158zM1048 666l-118 -666h-132l28 148q-68 -80 -160.5 -123t-197.5 -43q-146 0 -237 75.5t-91 198.5q0 136 93.5 224t250.5 94l296 10q68 2 98 16.5t40 51.5l4 22q21 113 -57.5 185.5t-214.5 72.5q-228 0 -290 -196h-138
q36 144 153.5 227t284.5 83q192 0 303.5 -109t84.5 -271zM274 270q0 -78 61 -126t163 -48q131 0 233 80t137 208l16 88l-378 -12q-114 -3 -173 -54t-59 -136zM472 -148h154l-28 -156h-154z" />
    <glyph glyph-name="uni1EAE" unicode="&#x1eae;" horiz-adv-x="1270" 
d="M1238 2032l-306 -316h-118l260 316h164zM1264 1728q-33 -135 -129.5 -215.5t-232.5 -80.5q-157 0 -238.5 80.5t-67.5 215.5h124q-13 -194 178 -194q188 0 244 194h122zM1204 0h-132l-70 372h-584l-198 -372h-152l732 1332h144zM850 1174l-370 -688h500z" />
    <glyph glyph-name="uni1EAF" unicode="&#x1eaf;" horiz-adv-x="1038" 
d="M1068 1762l-308 -316h-116l260 316h164zM1102 1438q-32 -135 -128 -215.5t-232 -80.5q-157 0 -238.5 80.5t-69.5 215.5h124q-9 -194 178 -194q191 0 244 194h122zM1048 666l-118 -666h-132l28 148q-68 -80 -160.5 -123t-197.5 -43q-146 0 -237 75.5t-91 198.5
q0 136 93.5 224t250.5 94l296 10q68 2 98 16.5t40 51.5l4 22q21 113 -57.5 185.5t-214.5 72.5q-228 0 -290 -196h-138q36 144 153.5 227t284.5 83q192 0 303.5 -109t84.5 -271zM274 270q0 -78 61 -126t163 -48q131 0 233 80t137 208l16 88l-378 -12q-114 -3 -173 -54
t-59 -136z" />
    <glyph glyph-name="uni1EB0" unicode="&#x1eb0;" horiz-adv-x="1270" 
d="M694 2032h144l194 -316h-104zM1264 1728q-33 -135 -129.5 -215.5t-232.5 -80.5q-157 0 -238.5 80.5t-67.5 215.5h124q-13 -194 178 -194q188 0 244 194h122zM1204 0h-132l-70 372h-584l-198 -372h-152l732 1332h144zM850 1174l-370 -688h500z" />
    <glyph glyph-name="uni1EB1" unicode="&#x1eb1;" horiz-adv-x="1038" 
d="M522 1762h144l196 -316h-106zM1102 1438q-32 -135 -128 -215.5t-232 -80.5q-157 0 -238.5 80.5t-69.5 215.5h124q-9 -194 178 -194q191 0 244 194h122zM1048 666l-118 -666h-132l28 148q-68 -80 -160.5 -123t-197.5 -43q-146 0 -237 75.5t-91 198.5q0 136 93.5 224
t250.5 94l296 10q68 2 98 16.5t40 51.5l4 22q21 113 -57.5 185.5t-214.5 72.5q-228 0 -290 -196h-138q36 144 153.5 227t284.5 83q192 0 303.5 -109t84.5 -271zM274 270q0 -78 61 -126t163 -48q131 0 233 80t137 208l16 88l-378 -12q-114 -3 -173 -54t-59 -136z" />
    <glyph glyph-name="uni1EB2" unicode="&#x1eb2;" horiz-adv-x="1270" 
d="M858 1716q7 40 34.5 71t97.5 81q42 30 59.5 51t22.5 45q6 33 -14.5 52.5t-61.5 19.5q-90 0 -128 -88h-112q33 85 97.5 131.5t150.5 46.5q94 0 142 -45.5t34 -120.5q-7 -46 -30.5 -76t-79.5 -70q-47 -27 -66.5 -47.5t-25.5 -50.5h-120zM1264 1728q-33 -135 -129.5 -215.5
t-232.5 -80.5q-157 0 -238.5 80.5t-67.5 215.5h124q-13 -194 178 -194q188 0 244 194h122zM1204 0h-132l-70 372h-584l-198 -372h-152l732 1332h144zM850 1174l-370 -688h500z" />
    <glyph glyph-name="uni1EB3" unicode="&#x1eb3;" horiz-adv-x="1038" 
d="M686 1446q7 40 35 71.5t97 80.5q42 30 59.5 51t22.5 45q6 33 -14 52.5t-60 19.5q-93 0 -128 -86h-112q31 84 95.5 130t150.5 46q95 0 143 -45.5t33 -120.5q-7 -46 -30.5 -76t-79.5 -70q-47 -28 -66.5 -48.5t-25.5 -49.5h-120zM1102 1438q-32 -135 -128 -215.5t-232 -80.5
q-157 0 -238.5 80.5t-69.5 215.5h124q-9 -194 178 -194q191 0 244 194h122zM1048 666l-118 -666h-132l28 148q-68 -80 -160.5 -123t-197.5 -43q-146 0 -237 75.5t-91 198.5q0 136 93.5 224t250.5 94l296 10q68 2 98 16.5t40 51.5l4 22q21 113 -57.5 185.5t-214.5 72.5
q-228 0 -290 -196h-138q36 144 153.5 227t284.5 83q192 0 303.5 -109t84.5 -271zM274 270q0 -78 61 -126t163 -48q131 0 233 80t137 208l16 88l-378 -12q-114 -3 -173 -54t-59 -136z" />
    <glyph glyph-name="uni1EB4" unicode="&#x1eb4;" horiz-adv-x="1270" 
d="M840 2106q31 0 55.5 -8.5t45.5 -28t31.5 -32t29.5 -39.5q19 -30 31 -45t33 -29t44 -14q48 0 85.5 50t50.5 134h104q-22 -133 -90 -212.5t-160 -79.5q-37 0 -67 14.5t-44.5 30t-36.5 43.5q-4 5 -6 8q-6 9 -18.5 28t-19.5 28.5t-18.5 21.5t-24 17t-27.5 5q-48 0 -85.5 -51
t-52.5 -137h-110q26 140 91 218t159 78zM1264 1728q-33 -135 -129.5 -215.5t-232.5 -80.5q-157 0 -238.5 80.5t-67.5 215.5h124q-13 -194 178 -194q188 0 244 194h122zM1204 0h-132l-70 372h-584l-198 -372h-152l732 1332h144zM850 1174l-370 -688h500z" />
    <glyph glyph-name="uni1EB5" unicode="&#x1eb5;" horiz-adv-x="1038" 
d="M688 1836q39 0 72 -18t49.5 -36.5t40.5 -51.5q17 -26 23.5 -35t21.5 -26t29.5 -23t33.5 -6q48 0 84.5 50t51.5 134h104q-24 -134 -91.5 -212t-160.5 -78q-30 0 -53.5 7t-42.5 24t-28.5 28t-27.5 35q-5 8 -22.5 34.5t-25.5 36t-25 20.5t-35 11q-48 0 -86.5 -52t-51.5 -136
h-110q24 139 89.5 216.5t160.5 77.5zM1102 1438q-32 -135 -128 -215.5t-232 -80.5q-157 0 -238.5 80.5t-69.5 215.5h124q-9 -194 178 -194q191 0 244 194h122zM1048 666l-118 -666h-132l28 148q-68 -80 -160.5 -123t-197.5 -43q-146 0 -237 75.5t-91 198.5q0 136 93.5 224
t250.5 94l296 10q68 2 98 16.5t40 51.5l4 22q21 113 -57.5 185.5t-214.5 72.5q-228 0 -290 -196h-138q36 144 153.5 227t284.5 83q192 0 303.5 -109t84.5 -271zM274 270q0 -78 61 -126t163 -48q131 0 233 80t137 208l16 88l-378 -12q-114 -3 -173 -54t-59 -136z" />
    <glyph glyph-name="uni1EB6" unicode="&#x1eb6;" horiz-adv-x="1270" 
d="M1258 1728q-32 -135 -128 -215.5t-234 -80.5q-156 0 -238 80.5t-68 215.5h124q-13 -194 178 -194q188 0 244 194h122zM1204 0h-132l-70 372h-584l-198 -372h-152l732 1332h144zM850 1174l-370 -688h500zM532 -146h154l-26 -156h-156z" />
    <glyph glyph-name="uni1EB7" unicode="&#x1eb7;" horiz-adv-x="1038" 
d="M1104 1440q-32 -135 -128 -215.5t-232 -80.5q-157 0 -239.5 80.5t-68.5 215.5h124q-9 -194 178 -194q191 0 244 194h122zM1048 666l-118 -666h-132l28 148q-68 -80 -160.5 -123t-197.5 -43q-146 0 -237 75.5t-91 198.5q0 136 93.5 224t250.5 94l296 10q68 2 98 16.5
t40 51.5l4 22q21 113 -57.5 185.5t-214.5 72.5q-228 0 -290 -196h-138q36 144 153.5 227t284.5 83q192 0 303.5 -109t84.5 -271zM274 270q0 -78 61 -126t163 -48q131 0 233 80t137 208l16 88l-378 -12q-114 -3 -173 -54t-59 -136zM472 -148h154l-28 -156h-154z" />
    <glyph glyph-name="uni1EB8" unicode="&#x1eb8;" horiz-adv-x="1090" 
d="M1234 1332l-20 -122h-764l-82 -468h704l-22 -122h-704l-88 -500h762l-20 -120h-890l236 1332h888zM472 -146h154l-26 -156h-156z" />
    <glyph glyph-name="uni1EB9" unicode="&#x1eb9;" horiz-adv-x="1122" 
d="M170 428q0 126 37.5 238.5t104 196t164.5 132.5t214 49q150 0 256.5 -70.5t150 -187t19.5 -254.5l-10 -60h-804q-2 -16 -2 -52q0 -157 84.5 -238.5t245.5 -81.5q113 0 193 55.5t123 158.5h144q-61 -163 -179 -247.5t-283 -84.5q-213 0 -335.5 119t-122.5 327zM698 928
q-143 0 -244.5 -92.5t-137.5 -253.5h676q22 153 -61 249.5t-233 96.5zM478 -146h154l-26 -156h-156z" />
    <glyph glyph-name="uni1EBA" unicode="&#x1eba;" horiz-adv-x="1090" 
d="M760 1434q7 40 35 71.5t97 80.5q42 30 59.5 51t22.5 45q6 33 -14 52.5t-60 19.5q-93 0 -128 -86h-112q31 84 95.5 130t150.5 46q95 0 143 -45t33 -121q-7 -46 -30.5 -76t-79.5 -70q-47 -28 -66.5 -48.5t-25.5 -49.5h-120zM1234 1332l-20 -122h-764l-82 -468h704l-22 -122
h-704l-88 -500h762l-20 -120h-890l236 1332h888z" />
    <glyph glyph-name="uni1EBB" unicode="&#x1ebb;" horiz-adv-x="1122" 
d="M690 1144q7 40 35 72t97 80q42 30 59.5 51t22.5 45q6 33 -14.5 52.5t-61.5 19.5q-90 0 -128 -86h-112q33 84 98 130t150 46q95 0 142 -45t34 -121q-7 -46 -30.5 -76t-79.5 -70q-47 -27 -66.5 -47.5t-25.5 -50.5h-120zM170 428q0 126 37.5 238.5t104 196t164.5 132.5
t214 49q150 0 256.5 -70.5t150 -187t19.5 -254.5l-10 -60h-804q-2 -16 -2 -52q0 -157 84.5 -238.5t245.5 -81.5q113 0 193 55.5t123 158.5h144q-61 -163 -179 -247.5t-283 -84.5q-213 0 -335.5 119t-122.5 327zM698 928q-143 0 -244.5 -92.5t-137.5 -253.5h676
q22 153 -61 249.5t-233 96.5z" />
    <glyph glyph-name="uni1EBC" unicode="&#x1ebc;" horiz-adv-x="1090" 
d="M702 1728q39 0 72 -18t49.5 -37t38.5 -51q2 -2 9.5 -13t9.5 -14t9 -12.5t10 -12.5t9.5 -10t10.5 -9.5t11 -7.5t13 -6.5t13 -3t15 -1.5q46 0 83.5 50.5t52.5 133.5h104q-24 -133 -92 -211.5t-160 -78.5q-30 0 -53.5 7t-42.5 24t-28.5 28t-27.5 35q-6 8 -19 28t-20 29.5
t-19 22t-24.5 17.5t-27.5 5q-48 0 -85.5 -51t-52.5 -137h-110q26 139 91.5 216.5t160.5 77.5zM1234 1332l-20 -122h-764l-82 -468h704l-22 -122h-704l-88 -500h762l-20 -120h-890l236 1332h888z" />
    <glyph glyph-name="uni1EBD" unicode="&#x1ebd;" horiz-adv-x="1122" 
d="M636 1438q39 0 72 -18t49.5 -37t38.5 -51q2 -2 9.5 -13t9.5 -14t9 -12.5t10 -12.5t9.5 -10t10.5 -9.5t11 -7.5t13 -6.5t13 -3t15 -1.5q46 0 83.5 50.5t52.5 133.5h104q-24 -133 -92 -211.5t-160 -78.5q-39 0 -70 16t-45 32t-37 48q-5 7 -18.5 27.5t-20.5 29t-19 21
t-24.5 17.5t-27.5 5q-48 0 -85.5 -51t-52.5 -137h-110q26 139 91.5 216.5t160.5 77.5zM170 428q0 126 37.5 238.5t104 196t164.5 132.5t214 49q150 0 256.5 -70.5t150 -187t19.5 -254.5l-10 -60h-804q-2 -16 -2 -52q0 -157 84.5 -238.5t245.5 -81.5q113 0 193 55.5
t123 158.5h144q-61 -163 -179 -247.5t-283 -84.5q-213 0 -335.5 119t-122.5 327zM698 928q-143 0 -244.5 -92.5t-137.5 -253.5h676q22 153 -61 249.5t-233 96.5z" />
    <glyph glyph-name="uni1EBE" unicode="&#x1ebe;" horiz-adv-x="1090" 
d="M1578 1954l-306 -316h-118l260 316h164zM810 1768h130l268 -334h-134l-202 258l-290 -258h-160zM1234 1332l-20 -122h-764l-82 -468h704l-22 -122h-704l-88 -500h762l-20 -120h-890l236 1332h888z" />
    <glyph glyph-name="uni1EBF" unicode="&#x1ebf;" horiz-adv-x="1122" 
d="M1454 1708l-306 -316h-118l260 316h164zM740 1478h128l270 -334h-136l-200 258l-292 -258h-158zM170 428q0 126 37.5 238.5t104 196t164.5 132.5t214 49q150 0 256.5 -70.5t150 -187t19.5 -254.5l-10 -60h-804q-2 -16 -2 -52q0 -157 84.5 -238.5t245.5 -81.5
q113 0 193 55.5t123 158.5h144q-61 -163 -179 -247.5t-283 -84.5q-213 0 -335.5 119t-122.5 327zM698 928q-143 0 -244.5 -92.5t-137.5 -253.5h676q22 153 -61 249.5t-233 96.5z" />
    <glyph glyph-name="uni1EC0" unicode="&#x1ec0;" horiz-adv-x="1090" 
d="M1004 1954h144l194 -316h-104zM810 1768h130l268 -334h-134l-202 258l-290 -258h-160zM1234 1332l-20 -122h-764l-82 -468h704l-22 -122h-704l-88 -500h762l-20 -120h-890l236 1332h888z" />
    <glyph glyph-name="uni1EC1" unicode="&#x1ec1;" horiz-adv-x="1122" 
d="M932 1708h144l194 -316h-104zM740 1478h128l270 -334h-136l-200 258l-292 -258h-158zM170 428q0 126 37.5 238.5t104 196t164.5 132.5t214 49q150 0 256.5 -70.5t150 -187t19.5 -254.5l-10 -60h-804q-2 -16 -2 -52q0 -157 84.5 -238.5t245.5 -81.5q113 0 193 55.5
t123 158.5h144q-61 -163 -179 -247.5t-283 -84.5q-213 0 -335.5 119t-122.5 327zM698 928q-143 0 -244.5 -92.5t-137.5 -253.5h676q22 153 -61 249.5t-233 96.5z" />
    <glyph glyph-name="uni1EC2" unicode="&#x1ec2;" horiz-adv-x="1090" 
d="M1134 1642q7 40 35 72t97 80q42 30 59.5 51t22.5 45q6 33 -14 52.5t-62 19.5q-90 0 -128 -86h-112q33 84 98 130t150 46q95 0 143 -45t33 -121q-7 -46 -30.5 -76t-79.5 -70q-47 -28 -66.5 -48.5t-25.5 -49.5h-120zM810 1768h130l268 -334h-134l-202 258l-290 -258h-160z
M1234 1332l-20 -122h-764l-82 -468h704l-22 -122h-704l-88 -500h762l-20 -120h-890l236 1332h888z" />
    <glyph glyph-name="uni1EC3" unicode="&#x1ec3;" horiz-adv-x="1122" 
d="M1064 1394q7 40 35 72t97 80q42 30 59.5 51t22.5 45q6 33 -14 52.5t-62 19.5q-90 0 -128 -86h-112q33 84 98 130t150 46q95 0 143 -45t33 -121q-7 -46 -30.5 -76t-79.5 -70q-47 -28 -66.5 -48.5t-25.5 -49.5h-120zM740 1478h128l270 -334h-136l-200 258l-292 -258h-158z
M170 428q0 126 37.5 238.5t104 196t164.5 132.5t214 49q150 0 256.5 -70.5t150 -187t19.5 -254.5l-10 -60h-804q-2 -16 -2 -52q0 -157 84.5 -238.5t245.5 -81.5q113 0 193 55.5t123 158.5h144q-61 -163 -179 -247.5t-283 -84.5q-213 0 -335.5 119t-122.5 327zM698 928
q-143 0 -244.5 -92.5t-137.5 -253.5h676q22 153 -61 249.5t-233 96.5z" />
    <glyph glyph-name="uni1EC4" unicode="&#x1ec4;" horiz-adv-x="1090" 
d="M784 2172q39 0 72 -18t49.5 -36.5t40.5 -51.5q17 -26 23.5 -35t21.5 -26t29.5 -23t33.5 -6q47 0 84 50t52 134h104q-24 -133 -92 -211.5t-160 -78.5q-30 0 -53.5 7t-42.5 24t-28.5 28t-27.5 35q-6 8 -19 28t-20 29.5t-19 22t-24.5 17.5t-27.5 5q-47 0 -85 -52t-53 -136
h-108q24 139 89.5 216.5t160.5 77.5zM810 1768h130l268 -334h-134l-202 258l-290 -258h-160zM1234 1332l-20 -122h-764l-82 -468h704l-22 -122h-704l-88 -500h762l-20 -120h-890l236 1332h888z" />
    <glyph glyph-name="uni1EC5" unicode="&#x1ec5;" horiz-adv-x="1122" 
d="M708 1886q30 0 54.5 -8.5t44.5 -27t31.5 -32.5t29.5 -40q21 -31 31.5 -44.5t32 -28.5t44.5 -15q48 0 85.5 50t50.5 134h104q-22 -133 -90 -211.5t-160 -78.5q-30 0 -53.5 7t-42.5 24t-28.5 28t-27.5 35q-7 10 -24 35t-26 35.5t-25.5 21t-34.5 10.5q-48 0 -85.5 -51.5
t-52.5 -136.5h-110q26 139 91.5 216.5t160.5 77.5zM740 1478h128l270 -334h-136l-200 258l-292 -258h-158zM170 428q0 126 37.5 238.5t104 196t164.5 132.5t214 49q150 0 256.5 -70.5t150 -187t19.5 -254.5l-10 -60h-804q-2 -16 -2 -52q0 -157 84.5 -238.5t245.5 -81.5
q113 0 193 55.5t123 158.5h144q-61 -163 -179 -247.5t-283 -84.5q-213 0 -335.5 119t-122.5 327zM698 928q-143 0 -244.5 -92.5t-137.5 -253.5h676q22 153 -61 249.5t-233 96.5z" />
    <glyph glyph-name="uni1EC6" unicode="&#x1ec6;" horiz-adv-x="1090" 
d="M810 1768h130l268 -334h-134l-202 258l-290 -258h-160zM1234 1332l-20 -122h-764l-82 -468h704l-22 -122h-704l-88 -500h762l-20 -120h-890l236 1332h888zM472 -146h154l-26 -156h-156z" />
    <glyph glyph-name="uni1EC7" unicode="&#x1ec7;" horiz-adv-x="1122" 
d="M740 1478h128l270 -334h-136l-200 258l-292 -258h-158zM170 428q0 126 37.5 238.5t104 196t164.5 132.5t214 49q150 0 256.5 -70.5t150 -187t19.5 -254.5l-10 -60h-804q-2 -16 -2 -52q0 -157 84.5 -238.5t245.5 -81.5q113 0 193 55.5t123 158.5h144q-61 -163 -179 -247.5
t-283 -84.5q-213 0 -335.5 119t-122.5 327zM698 928q-143 0 -244.5 -92.5t-137.5 -253.5h676q22 153 -61 249.5t-233 96.5zM478 -146h154l-26 -156h-156z" />
    <glyph glyph-name="uni1EC8" unicode="&#x1ec8;" 
d="M362 1434q7 40 35 72t97 80q42 30 59.5 51t22.5 45q6 33 -14.5 52.5t-61.5 19.5q-44 0 -78 -23t-50 -63h-112q31 84 96.5 130t151.5 46q95 0 142 -45t34 -121q-7 -46 -30.5 -76.5t-81.5 -69.5q-46 -27 -65 -47.5t-25 -50.5h-120zM346 1332h126l-234 -1332h-128z" />
    <glyph glyph-name="uni1EC9" unicode="&#x1ec9;" 
d="M310 1146q7 40 35 72t97 80q42 30 59.5 51t22.5 45q6 33 -14.5 52.5t-61.5 19.5q-90 0 -128 -86h-112q31 84 96.5 130t151.5 46q95 0 142 -45t34 -121q-7 -46 -30.5 -76.5t-81.5 -69.5q-46 -28 -65 -48.5t-25 -49.5h-120zM292 1024h126l-180 -1024h-128z" />
    <glyph glyph-name="uni1ECA" unicode="&#x1eca;" 
d="M346 1332h126l-234 -1332h-128zM72 -146h154l-26 -156h-156z" />
    <glyph glyph-name="uni1ECB" unicode="&#x1ecb;" 
d="M334 1326h156l-30 -156h-154zM292 1024h130l-180 -1024h-130zM78 -146h154l-26 -156h-156z" />
    <glyph glyph-name="uni1ECC" unicode="&#x1ecc;" horiz-adv-x="1366" 
d="M196 542q0 229 87 414.5t240 290.5t341 105q237 0 386.5 -161.5t149.5 -416.5q0 -232 -82.5 -411.5t-232 -279t-343.5 -99.5q-242 0 -394 155.5t-152 402.5zM1270 782q0 212 -110 330t-310 118q-149 0 -268.5 -89.5t-186.5 -247.5t-67 -355q0 -205 112.5 -318.5
t315.5 -113.5q229 0 371.5 187t142.5 489zM580 -146h154l-26 -156h-156z" />
    <glyph glyph-name="uni1ECD" unicode="&#x1ecd;" horiz-adv-x="1126" 
d="M170 430q0 173 68.5 314t188.5 221.5t267 80.5q197 0 315.5 -121t118.5 -325q0 -172 -69 -314t-189 -223t-266 -81q-197 0 -315.5 122t-118.5 326zM998 604q0 152 -83 237t-231 85q-158 0 -270 -142t-112 -358q0 -154 82.5 -238t231.5 -84q156 0 269 142.5t113 357.5z
M462 -146h154l-26 -156h-156z" />
    <glyph glyph-name="uni1ECE" unicode="&#x1ece;" horiz-adv-x="1366" 
d="M870 1434q7 40 35 71.5t97 80.5q42 30 59.5 51t22.5 45q6 33 -14 52.5t-60 19.5q-93 0 -128 -86h-112q31 84 95.5 130t150.5 46q95 0 143 -45t33 -121q-7 -46 -30.5 -76t-79.5 -70q-47 -28 -66.5 -48.5t-25.5 -49.5h-120zM196 542q0 229 87 414.5t240 290.5t341 105
q237 0 386.5 -161.5t149.5 -416.5q0 -232 -82.5 -411.5t-232 -279t-343.5 -99.5q-242 0 -394 155.5t-152 402.5zM1270 782q0 212 -110 330t-310 118q-149 0 -268.5 -89.5t-186.5 -247.5t-67 -355q0 -205 112.5 -318.5t315.5 -113.5q229 0 371.5 187t142.5 489z" />
    <glyph glyph-name="uni1ECF" unicode="&#x1ecf;" horiz-adv-x="1126" 
d="M674 1146q7 40 35 72t97 80q42 30 59.5 51t22.5 45q6 33 -14 52.5t-62 19.5q-90 0 -128 -86h-112q33 84 98 130t150 46q95 0 143 -45.5t33 -120.5q-7 -46 -30.5 -76t-79.5 -70q-47 -28 -66.5 -48.5t-25.5 -49.5h-120zM170 430q0 173 68.5 314t188.5 221.5t267 80.5
q197 0 315.5 -121t118.5 -325q0 -172 -69 -314t-189 -223t-266 -81q-197 0 -315.5 122t-118.5 326zM998 604q0 152 -83 237t-231 85q-158 0 -270 -142t-112 -358q0 -154 82.5 -238t231.5 -84q156 0 269 142.5t113 357.5z" />
    <glyph glyph-name="uni1ED0" unicode="&#x1ed0;" horiz-adv-x="1366" 
d="M1672 1954l-306 -316h-116l258 316h164zM922 1768h130l268 -334h-134l-202 258l-290 -258h-160zM196 542q0 229 87 414.5t240 290.5t341 105q237 0 386.5 -161.5t149.5 -416.5q0 -232 -82.5 -411.5t-232 -279t-343.5 -99.5q-242 0 -394 155.5t-152 402.5zM1270 782
q0 212 -110 330t-310 118q-149 0 -268.5 -89.5t-186.5 -247.5t-67 -355q0 -205 112.5 -318.5t315.5 -113.5q229 0 371.5 187t142.5 489z" />
    <glyph glyph-name="uni1ED1" unicode="&#x1ed1;" horiz-adv-x="1126" 
d="M1434 1708l-308 -316h-116l260 316h164zM724 1480h130l268 -334h-136l-200 258l-290 -258h-160zM170 430q0 173 68.5 314t188.5 221.5t267 80.5q197 0 315.5 -121t118.5 -325q0 -172 -69 -314t-189 -223t-266 -81q-197 0 -315.5 122t-118.5 326zM998 604q0 152 -83 237
t-231 85q-158 0 -270 -142t-112 -358q0 -154 82.5 -238t231.5 -84q156 0 269 142.5t113 357.5z" />
    <glyph glyph-name="uni1ED2" unicode="&#x1ed2;" horiz-adv-x="1366" 
d="M1116 1954h144l194 -316h-104zM922 1768h130l268 -334h-134l-202 258l-290 -258h-160zM196 542q0 229 87 414.5t240 290.5t341 105q237 0 386.5 -161.5t149.5 -416.5q0 -232 -82.5 -411.5t-232 -279t-343.5 -99.5q-242 0 -394 155.5t-152 402.5zM1270 782q0 212 -110 330
t-310 118q-149 0 -268.5 -89.5t-186.5 -247.5t-67 -355q0 -205 112.5 -318.5t315.5 -113.5q229 0 371.5 187t142.5 489z" />
    <glyph glyph-name="uni1ED3" unicode="&#x1ed3;" horiz-adv-x="1126" 
d="M884 1708h144l194 -316h-104zM724 1480h130l268 -334h-136l-200 258l-290 -258h-160zM170 430q0 173 68.5 314t188.5 221.5t267 80.5q197 0 315.5 -121t118.5 -325q0 -172 -69 -314t-189 -223t-266 -81q-197 0 -315.5 122t-118.5 326zM998 604q0 152 -83 237t-231 85
q-158 0 -270 -142t-112 -358q0 -154 82.5 -238t231.5 -84q156 0 269 142.5t113 357.5z" />
    <glyph glyph-name="uni1ED4" unicode="&#x1ed4;" horiz-adv-x="1366" 
d="M1260 1638q7 40 35 71.5t97 80.5q42 30 59.5 51t22.5 45q6 33 -14 52.5t-60 19.5q-93 0 -128 -86h-112q31 84 95.5 130t150.5 46q95 0 143 -45t33 -121q-7 -46 -30.5 -76t-79.5 -70q-47 -28 -66.5 -48.5t-25.5 -49.5h-120zM922 1768h130l268 -334h-134l-202 258
l-290 -258h-160zM196 542q0 229 87 414.5t240 290.5t341 105q237 0 386.5 -161.5t149.5 -416.5q0 -232 -82.5 -411.5t-232 -279t-343.5 -99.5q-242 0 -394 155.5t-152 402.5zM1270 782q0 212 -110 330t-310 118q-149 0 -268.5 -89.5t-186.5 -247.5t-67 -355
q0 -205 112.5 -318.5t315.5 -113.5q229 0 371.5 187t142.5 489z" />
    <glyph glyph-name="uni1ED5" unicode="&#x1ed5;" horiz-adv-x="1126" 
d="M1038 1394q7 40 35 72t97 80q41 31 59.5 51.5t22.5 44.5q6 33 -14.5 52.5t-61.5 19.5q-44 0 -78 -23t-50 -63h-112q31 84 96.5 130t151.5 46q93 0 141 -45t35 -121q-7 -46 -30.5 -76.5t-81.5 -69.5q-46 -27 -65 -47.5t-25 -50.5h-120zM724 1480h130l268 -334h-136
l-200 258l-290 -258h-160zM170 430q0 173 68.5 314t188.5 221.5t267 80.5q197 0 315.5 -121t118.5 -325q0 -172 -69 -314t-189 -223t-266 -81q-197 0 -315.5 122t-118.5 326zM998 604q0 152 -83 237t-231 85q-158 0 -270 -142t-112 -358q0 -154 82.5 -238t231.5 -84
q156 0 269 142.5t113 357.5z" />
    <glyph glyph-name="uni1ED6" unicode="&#x1ed6;" horiz-adv-x="1366" 
d="M894 2172q39 0 72 -18t49.5 -36.5t40.5 -51.5q17 -26 23.5 -35t21.5 -26t29.5 -23t33.5 -6q47 0 84 50t52 134h104q-24 -134 -91.5 -212t-160.5 -78q-30 0 -53.5 7t-42.5 24t-28.5 28t-27.5 35l-19 28.5t-20 29t-18.5 21.5t-24 17.5t-26.5 5.5q-48 0 -86.5 -52
t-51.5 -136h-110q24 139 89.5 216.5t160.5 77.5zM922 1768h130l268 -334h-134l-202 258l-290 -258h-160zM196 542q0 229 87 414.5t240 290.5t341 105q237 0 386.5 -161.5t149.5 -416.5q0 -232 -82.5 -411.5t-232 -279t-343.5 -99.5q-242 0 -394 155.5t-152 402.5zM1270 782
q0 212 -110 330t-310 118q-149 0 -268.5 -89.5t-186.5 -247.5t-67 -355q0 -205 112.5 -318.5t315.5 -113.5q229 0 371.5 187t142.5 489z" />
    <glyph glyph-name="uni1ED7" unicode="&#x1ed7;" horiz-adv-x="1126" 
d="M712 1886q30 0 54.5 -8.5t44.5 -27t31.5 -32.5t29.5 -40q21 -31 31.5 -44.5t32 -28.5t44.5 -15q48 0 85.5 50t50.5 134h104q-22 -133 -90 -211.5t-160 -78.5q-30 0 -53.5 7t-42.5 24t-28.5 28t-27.5 35q-7 10 -24 35t-26 35.5t-25.5 21t-34.5 10.5q-48 0 -85.5 -51.5
t-52.5 -136.5h-110q26 139 91.5 216.5t160.5 77.5zM724 1480h130l268 -334h-136l-200 258l-290 -258h-160zM170 430q0 173 68.5 314t188.5 221.5t267 80.5q197 0 315.5 -121t118.5 -325q0 -172 -69 -314t-189 -223t-266 -81q-197 0 -315.5 122t-118.5 326zM998 604
q0 152 -83 237t-231 85q-158 0 -270 -142t-112 -358q0 -154 82.5 -238t231.5 -84q156 0 269 142.5t113 357.5z" />
    <glyph glyph-name="uni1ED8" unicode="&#x1ed8;" horiz-adv-x="1366" 
d="M920 1768h130l268 -334h-134l-202 258l-290 -258h-160zM196 542q0 229 87 414.5t240 290.5t341 105q237 0 386.5 -161.5t149.5 -416.5q0 -232 -82.5 -411.5t-232 -279t-343.5 -99.5q-242 0 -394 155.5t-152 402.5zM1270 782q0 212 -110 330t-310 118q-149 0 -268.5 -89.5
t-186.5 -247.5t-67 -355q0 -205 112.5 -318.5t315.5 -113.5q229 0 371.5 187t142.5 489zM580 -146h154l-26 -156h-156z" />
    <glyph glyph-name="uni1ED9" unicode="&#x1ed9;" horiz-adv-x="1126" 
d="M724 1480h130l268 -334h-136l-200 258l-290 -258h-160zM170 430q0 173 68.5 314t188.5 221.5t267 80.5q197 0 315.5 -121t118.5 -325q0 -172 -69 -314t-189 -223t-266 -81q-197 0 -315.5 122t-118.5 326zM998 604q0 152 -83 237t-231 85q-158 0 -270 -142t-112 -358
q0 -154 82.5 -238t231.5 -84q156 0 269 142.5t113 357.5zM462 -146h154l-26 -156h-156z" />
    <glyph glyph-name="uni1EDA" unicode="&#x1eda;" horiz-adv-x="1366" 
d="M1182 1750l-306 -316h-118l260 316h164zM196 542q0 222 88.5 408t242 294t337.5 108q89 0 158 -20h242q67 0 109 32.5t57 117.5l12 62h116l-12 -74q-12 -67 -41.5 -117t-69.5 -77t-82 -39.5t-87 -12.5h-42q85 -77 130.5 -192t45.5 -258q0 -168 -49.5 -314.5t-136.5 -251
t-209.5 -164.5t-262.5 -60q-249 0 -397.5 151.5t-148.5 406.5zM1270 782q0 212 -110.5 330t-309.5 118q-149 0 -268.5 -89.5t-186.5 -247.5t-67 -355q0 -204 113 -318t315 -114q229 0 371.5 187t142.5 489z" />
    <glyph glyph-name="uni1EDB" unicode="&#x1edb;" horiz-adv-x="1126" 
d="M1012 1462l-308 -316h-116l260 316h164zM170 430q0 173 68.5 314t188.5 221.5t267 80.5q79 0 154 -22h158q67 0 109.5 33t56.5 119l12 58h118l-14 -70q-9 -53 -30 -95.5t-48 -70t-60.5 -46t-66 -27t-67.5 -9.5q112 -118 112 -316q0 -172 -69 -314t-189 -223t-266 -81
q-197 0 -315.5 122t-118.5 326zM998 604q0 152 -83 237t-231 85q-158 0 -270 -142t-112 -358q0 -154 82.5 -238t231.5 -84q156 0 269 142.5t113 357.5z" />
    <glyph glyph-name="uni1EDC" unicode="&#x1edc;" horiz-adv-x="1366" 
d="M638 1750h144l194 -316h-104zM196 542q0 222 88.5 408t242 294t337.5 108q89 0 158 -20h242q67 0 109 32.5t57 117.5l12 62h116l-12 -74q-12 -67 -41.5 -117t-69.5 -77t-82 -39.5t-87 -12.5h-42q85 -77 130.5 -192t45.5 -258q0 -168 -49.5 -314.5t-136.5 -251
t-209.5 -164.5t-262.5 -60q-249 0 -397.5 151.5t-148.5 406.5zM1270 782q0 212 -110.5 330t-309.5 118q-149 0 -268.5 -89.5t-186.5 -247.5t-67 -355q0 -204 113 -318t315 -114q229 0 371.5 187t142.5 489z" />
    <glyph glyph-name="uni1EDD" unicode="&#x1edd;" horiz-adv-x="1126" 
d="M466 1462h144l196 -316h-106zM170 430q0 173 68.5 314t188.5 221.5t267 80.5q79 0 154 -22h158q67 0 109.5 33t56.5 119l12 58h118l-14 -70q-9 -53 -30 -95.5t-48 -70t-60.5 -46t-66 -27t-67.5 -9.5q112 -118 112 -316q0 -172 -69 -314t-189 -223t-266 -81
q-197 0 -315.5 122t-118.5 326zM998 604q0 152 -83 237t-231 85q-158 0 -270 -142t-112 -358q0 -154 82.5 -238t231.5 -84q156 0 269 142.5t113 357.5z" />
    <glyph glyph-name="uni1EDE" unicode="&#x1ede;" horiz-adv-x="1366" 
d="M802 1434q7 40 35 72t97 80q41 31 59.5 51.5t22.5 44.5q6 33 -14.5 52.5t-61.5 19.5q-44 0 -78 -23t-50 -63h-112q31 84 96.5 130t151.5 46q93 0 141 -45t35 -121q-7 -46 -30.5 -76.5t-81.5 -69.5q-46 -27 -65 -47.5t-25 -50.5h-120zM196 542q0 222 88.5 408t242 294
t337.5 108q89 0 158 -20h242q67 0 109 32.5t57 117.5l12 62h116l-12 -74q-12 -67 -41.5 -117t-69.5 -77t-82 -39.5t-87 -12.5h-42q85 -77 130.5 -192t45.5 -258q0 -168 -49.5 -314.5t-136.5 -251t-209.5 -164.5t-262.5 -60q-249 0 -397.5 151.5t-148.5 406.5zM1270 782
q0 212 -110.5 330t-309.5 118q-149 0 -268.5 -89.5t-186.5 -247.5t-67 -355q0 -204 113 -318t315 -114q229 0 371.5 187t142.5 489z" />
    <glyph glyph-name="uni1EDF" unicode="&#x1edf;" horiz-adv-x="1126" 
d="M628 1146q7 40 35 71.5t97 80.5q42 30 59.5 51t22.5 45q6 33 -14 52.5t-60 19.5q-93 0 -128 -86h-112q31 84 95.5 130t150.5 46q95 0 143 -45.5t33 -120.5q-7 -46 -30.5 -76t-79.5 -70q-47 -28 -66.5 -48.5t-25.5 -49.5h-120zM170 430q0 173 68.5 314t188.5 221.5
t267 80.5q79 0 154 -22h158q67 0 109.5 33t56.5 119l12 58h118l-14 -70q-9 -53 -30 -95.5t-48 -70t-60.5 -46t-66 -27t-67.5 -9.5q112 -118 112 -316q0 -172 -69 -314t-189 -223t-266 -81q-197 0 -315.5 122t-118.5 326zM998 604q0 152 -83 237t-231 85q-158 0 -270 -142
t-112 -358q0 -154 82.5 -238t231.5 -84q156 0 269 142.5t113 357.5z" />
    <glyph glyph-name="uni1EE0" unicode="&#x1ee0;" horiz-adv-x="1366" 
d="M748 1728q31 0 55.5 -8.5t45 -27t32 -31.5t29.5 -39q17 -26 23.5 -35t21.5 -26t29.5 -23t33.5 -6q48 0 85 50.5t51 133.5h104q-24 -134 -91.5 -212t-158.5 -78q-25 0 -46.5 6.5t-33.5 12t-30 24t-21.5 23t-22.5 28.5q-5 8 -22.5 34.5t-25.5 36t-25 20.5t-35 11
q-48 0 -86.5 -51.5t-51.5 -136.5h-110q26 139 91 216.5t159 77.5zM196 542q0 222 88.5 408t242 294t337.5 108q89 0 158 -20h242q67 0 109 32.5t57 117.5l12 62h116l-12 -74q-12 -67 -41.5 -117t-69.5 -77t-82 -39.5t-87 -12.5h-42q85 -77 130.5 -192t45.5 -258
q0 -168 -49.5 -314.5t-136.5 -251t-209.5 -164.5t-262.5 -60q-249 0 -397.5 151.5t-148.5 406.5zM1270 782q0 212 -110.5 330t-309.5 118q-149 0 -268.5 -89.5t-186.5 -247.5t-67 -355q0 -204 113 -318t315 -114q229 0 371.5 187t142.5 489z" />
    <glyph glyph-name="uni1EE1" unicode="&#x1ee1;" horiz-adv-x="1126" 
d="M576 1440q39 0 72 -18t49.5 -36.5t40.5 -51.5q17 -26 23.5 -35t21.5 -26t29.5 -23t33.5 -6q47 0 84 50t52 134h104q-24 -133 -92 -211.5t-160 -78.5q-30 0 -53.5 7t-42.5 24t-28.5 28t-27.5 35q-6 8 -19 28t-20 29.5t-19 22t-24.5 17.5t-27.5 5q-47 0 -85 -51.5
t-53 -136.5h-108q24 139 89.5 216.5t160.5 77.5zM170 430q0 173 68.5 314t188.5 221.5t267 80.5q79 0 154 -22h158q67 0 109.5 33t56.5 119l12 58h118l-14 -70q-9 -53 -30 -95.5t-48 -70t-60.5 -46t-66 -27t-67.5 -9.5q112 -118 112 -316q0 -172 -69 -314t-189 -223
t-266 -81q-197 0 -315.5 122t-118.5 326zM998 604q0 152 -83 237t-231 85q-158 0 -270 -142t-112 -358q0 -154 82.5 -238t231.5 -84q156 0 269 142.5t113 357.5z" />
    <glyph glyph-name="uni1EE2" unicode="&#x1ee2;" horiz-adv-x="1366" 
d="M196 542q0 222 88.5 408t242 294t337.5 108q89 0 158 -20h242q67 0 109 32.5t57 117.5l12 62h116l-12 -74q-12 -67 -41.5 -117t-69.5 -77t-82 -39.5t-87 -12.5h-42q85 -77 130.5 -192t45.5 -258q0 -168 -49.5 -314.5t-136.5 -251t-209.5 -164.5t-262.5 -60
q-249 0 -397.5 151.5t-148.5 406.5zM1270 782q0 212 -110.5 330t-309.5 118q-149 0 -268.5 -89.5t-186.5 -247.5t-67 -355q0 -204 113 -318t315 -114q229 0 371.5 187t142.5 489zM572 -146h154l-26 -156h-156z" />
    <glyph glyph-name="uni1EE3" unicode="&#x1ee3;" horiz-adv-x="1126" 
d="M170 430q0 173 68.5 314t188.5 221.5t267 80.5q79 0 154 -22h158q67 0 109.5 33t56.5 119l12 58h118l-14 -70q-9 -53 -30 -95.5t-48 -70t-60.5 -46t-66 -27t-67.5 -9.5q112 -118 112 -316q0 -172 -69 -314t-189 -223t-266 -81q-197 0 -315.5 122t-118.5 326zM998 604
q0 152 -83 237t-231 85q-158 0 -270 -142t-112 -358q0 -154 82.5 -238t231.5 -84q156 0 269 142.5t113 357.5zM458 -146h154l-26 -156h-156z" />
    <glyph glyph-name="uni1EE4" unicode="&#x1ee4;" horiz-adv-x="1194" 
d="M332 1332h130l-140 -792q-36 -201 55.5 -316.5t286.5 -115.5q157 0 258.5 97t133.5 273l148 854h128l-152 -868q-39 -218 -182 -349t-342 -131q-161 0 -276 70.5t-164.5 200t-19.5 295.5zM500 -146h154l-26 -156h-156z" />
    <glyph glyph-name="uni1EE5" unicode="&#x1ee5;" horiz-adv-x="1044" 
d="M304 430q-26 -152 33 -240t193 -88q140 0 232.5 83.5t115.5 228.5l106 610h126l-178 -1024h-126l26 150q-63 -80 -151.5 -124t-188.5 -44q-111 0 -191.5 58.5t-114 158t-12.5 217.5l110 608h128zM446 -146h154l-26 -156h-156z" />
    <glyph glyph-name="uni1EE6" unicode="&#x1ee6;" horiz-adv-x="1194" 
d="M796 1434q7 40 35 72t97 80q42 30 59.5 51t22.5 45q6 33 -14.5 52.5t-61.5 19.5q-90 0 -128 -86h-112q33 84 98 130t150 46q95 0 142 -45t34 -121q-7 -46 -30.5 -76t-79.5 -70q-47 -27 -66.5 -47.5t-25.5 -50.5h-120zM332 1332h130l-140 -792q-36 -201 55.5 -316.5
t286.5 -115.5q157 0 258.5 97t133.5 273l148 854h128l-152 -868q-39 -218 -182 -349t-342 -131q-161 0 -276 70.5t-164.5 200t-19.5 295.5z" />
    <glyph glyph-name="uni1EE7" unicode="&#x1ee7;" horiz-adv-x="1044" 
d="M650 1146q7 40 35 71.5t97 80.5q42 30 59.5 51t22.5 45q6 33 -14 52.5t-62 19.5q-90 0 -128 -86h-110q31 84 95.5 130t150.5 46q95 0 143 -45t33 -121q-7 -46 -30.5 -76t-79.5 -70q-47 -28 -66.5 -48.5t-25.5 -49.5h-120zM304 430q-26 -152 33 -240t193 -88
q140 0 232.5 83.5t115.5 228.5l106 610h126l-178 -1024h-126l26 150q-63 -80 -151.5 -124t-188.5 -44q-111 0 -191.5 58.5t-114 158t-12.5 217.5l110 608h128z" />
    <glyph glyph-name="uni1EE8" unicode="&#x1ee8;" horiz-adv-x="1202" 
d="M1166 1750l-308 -316h-116l260 316h164zM332 1332h130l-140 -792q-36 -201 55.5 -316.5t286.5 -115.5q157 0 258.5 97t133.5 273l148 854h128v-2h4q67 0 110 33.5t58 118.5l10 62h118l-14 -74q-11 -67 -40.5 -117t-69 -77t-81.5 -39.5t-87 -12.5h-26l-134 -760
q-39 -218 -182 -349t-342 -131q-161 0 -276 70.5t-164.5 200t-19.5 295.5z" />
    <glyph glyph-name="uni1EE9" unicode="&#x1ee9;" horiz-adv-x="1052" 
d="M1028 1462l-306 -316h-116l258 316h164zM304 430q-26 -152 33 -240t193 -88q140 0 232.5 83.5t115.5 228.5l104 600l2 10h132q67 0 109 33.5t57 118.5l10 62h118l-12 -74q-12 -67 -41.5 -117t-69.5 -77t-82 -39.5t-87 -12.5h-26l-160 -918h-126l26 150
q-63 -80 -151.5 -124t-188.5 -44q-111 0 -191.5 58.5t-114 158t-12.5 217.5l110 608h128z" />
    <glyph glyph-name="uni1EEA" unicode="&#x1eea;" horiz-adv-x="1202" 
d="M622 1750h144l194 -316h-106zM332 1332h130l-140 -792q-36 -201 55.5 -316.5t286.5 -115.5q157 0 258.5 97t133.5 273l148 854h128v-2h4q67 0 110 33.5t58 118.5l10 62h118l-14 -74q-11 -67 -40.5 -117t-69 -77t-81.5 -39.5t-87 -12.5h-26l-134 -760q-39 -218 -182 -349
t-342 -131q-161 0 -276 70.5t-164.5 200t-19.5 295.5z" />
    <glyph glyph-name="uni1EEB" unicode="&#x1eeb;" horiz-adv-x="1052" 
d="M484 1462h144l196 -316h-106zM304 430q-26 -152 33 -240t193 -88q140 0 232.5 83.5t115.5 228.5l104 600l2 10h132q67 0 109 33.5t57 118.5l10 62h118l-12 -74q-12 -67 -41.5 -117t-69.5 -77t-82 -39.5t-87 -12.5h-26l-160 -918h-126l26 150q-63 -80 -151.5 -124
t-188.5 -44q-111 0 -191.5 58.5t-114 158t-12.5 217.5l110 608h128z" />
    <glyph glyph-name="uni1EEC" unicode="&#x1eec;" horiz-adv-x="1202" 
d="M784 1434q9 40 36.5 72t95.5 80q43 30 61.5 51t22.5 45q6 33 -14.5 52.5t-61.5 19.5q-93 0 -128 -86h-112q31 84 95.5 130t150.5 46q95 0 143 -45t35 -121q-9 -47 -32 -77t-80 -69q-47 -28 -66.5 -48.5t-25.5 -49.5h-120zM332 1332h130l-140 -792q-36 -201 55.5 -316.5
t286.5 -115.5q157 0 258.5 97t133.5 273l148 854h128v-2h4q67 0 110 33.5t58 118.5l10 62h118l-14 -74q-11 -67 -40.5 -117t-69 -77t-81.5 -39.5t-87 -12.5h-26l-134 -760q-39 -218 -182 -349t-342 -131q-161 0 -276 70.5t-164.5 200t-19.5 295.5z" />
    <glyph glyph-name="uni1EED" unicode="&#x1eed;" horiz-adv-x="1052" 
d="M648 1146q7 40 35 71.5t97 80.5q42 30 59.5 51t22.5 45q6 33 -14 52.5t-60 19.5q-92 0 -130 -86h-110q31 84 95.5 130t150.5 46q95 0 143 -45t33 -121q-7 -46 -30.5 -76t-79.5 -70q-47 -28 -66.5 -48.5t-25.5 -49.5h-120zM304 430q-26 -152 33 -240t193 -88
q140 0 232.5 83.5t115.5 228.5l104 600l2 10h132q67 0 109 33.5t57 118.5l10 62h118l-12 -74q-12 -67 -41.5 -117t-69.5 -77t-82 -39.5t-87 -12.5h-26l-160 -918h-126l26 150q-63 -80 -151.5 -124t-188.5 -44q-111 0 -191.5 58.5t-114 158t-12.5 217.5l110 608h128z" />
    <glyph glyph-name="uni1EEE" unicode="&#x1eee;" horiz-adv-x="1202" 
d="M732 1728q39 0 72 -18t49.5 -36.5t40.5 -51.5q17 -26 23.5 -35t21.5 -26t29.5 -23t33.5 -6q46 0 83.5 50.5t52.5 133.5h104q-24 -134 -91.5 -212t-160.5 -78q-30 0 -53.5 7t-42.5 24t-28.5 28t-27.5 35l-19 28.5t-20 29t-18.5 21.5t-24 17.5t-26.5 5.5q-48 0 -86.5 -51.5
t-51.5 -136.5h-110q24 139 89.5 216.5t160.5 77.5zM332 1332h130l-140 -792q-36 -201 55.5 -316.5t286.5 -115.5q157 0 258.5 97t133.5 273l148 854h128v-2h4q67 0 110 33.5t58 118.5l10 62h118l-14 -74q-11 -67 -40.5 -117t-69 -77t-81.5 -39.5t-87 -12.5h-26l-134 -760
q-39 -218 -182 -349t-342 -131q-161 0 -276 70.5t-164.5 200t-19.5 295.5z" />
    <glyph glyph-name="uni1EEF" unicode="&#x1eef;" horiz-adv-x="1052" 
d="M596 1440q39 0 72 -18t49.5 -37t38.5 -51q2 -2 9.5 -13t9.5 -14t9 -12.5t10 -12.5t9.5 -10t10.5 -9.5t11 -7.5t13 -6.5t13 -3t15 -1.5q46 0 83.5 50.5t52.5 133.5h104q-24 -133 -92 -211.5t-160 -78.5q-30 0 -53.5 7t-42.5 24t-28.5 28t-27.5 35q-6 8 -19 28t-20 29.5
t-19 22t-24.5 17.5t-27.5 5q-48 0 -85.5 -51t-52.5 -137h-110q26 139 91.5 216.5t160.5 77.5zM304 430q-26 -152 33 -240t193 -88q140 0 232.5 83.5t115.5 228.5l104 600l2 10h132q67 0 109 33.5t57 118.5l10 62h118l-12 -74q-12 -67 -41.5 -117t-69.5 -77t-82 -39.5
t-87 -12.5h-26l-160 -918h-126l26 150q-63 -80 -151.5 -124t-188.5 -44q-111 0 -191.5 58.5t-114 158t-12.5 217.5l110 608h128z" />
    <glyph glyph-name="uni1EF0" unicode="&#x1ef0;" horiz-adv-x="1202" 
d="M332 1332h130l-140 -792q-36 -201 55.5 -316.5t286.5 -115.5q157 0 258.5 97t133.5 273l148 854h128v-2h4q67 0 110 33.5t58 118.5l10 62h118l-14 -74q-11 -67 -40.5 -117t-69 -77t-81.5 -39.5t-87 -12.5h-26l-134 -760q-39 -218 -182 -349t-342 -131q-161 0 -276 70.5
t-164.5 200t-19.5 295.5zM490 -146h154l-26 -156h-156z" />
    <glyph glyph-name="uni1EF1" unicode="&#x1ef1;" horiz-adv-x="1052" 
d="M304 430q-26 -152 33 -240t193 -88q140 0 232.5 83.5t115.5 228.5l104 600l2 10h132q67 0 109 33.5t57 118.5l10 62h118l-12 -74q-12 -67 -41.5 -117t-69.5 -77t-82 -39.5t-87 -12.5h-26l-160 -918h-126l26 150q-63 -80 -151.5 -124t-188.5 -44q-111 0 -191.5 58.5
t-114 158t-12.5 217.5l110 608h128zM384 -146h154l-26 -156h-156z" />
    <glyph glyph-name="Ygrave" unicode="&#x1ef2;" horiz-adv-x="1176" 
d="M630 1750h144l194 -316h-106zM604 458l-300 874h140l240 -720l500 720h160l-614 -874l-82 -458h-126z" />
    <glyph glyph-name="ygrave" unicode="&#x1ef3;" horiz-adv-x="1100" 
d="M540 1462h144l194 -316h-104zM82 -194h150q73 0 116 30.5t84 107.5l42 80l-226 1000h132l192 -864l486 864h152l-622 -1092q-79 -136 -153.5 -194t-174.5 -58h-194z" />
    <glyph glyph-name="uni1EF4" unicode="&#x1ef4;" horiz-adv-x="1176" 
d="M604 458l-300 874h140l240 -720l500 720h160l-614 -874l-82 -458h-126zM486 -146h154l-26 -156h-156z" />
    <glyph glyph-name="uni1EF5" unicode="&#x1ef5;" horiz-adv-x="1100" 
d="M82 -194h150q73 0 116 30.5t84 107.5l42 80l-226 1000h132l192 -864l486 864h152l-622 -1092q-79 -136 -153.5 -194t-174.5 -58h-194zM670 -146h154l-26 -156h-156z" />
    <glyph glyph-name="uni1EF6" unicode="&#x1ef6;" horiz-adv-x="1176" 
d="M792 1434q9 40 36.5 72t95.5 80q43 30 61.5 51t22.5 45q6 33 -14.5 52.5t-61.5 19.5q-93 0 -128 -86h-112q31 84 95.5 130t150.5 46q95 0 143 -45t35 -121q-9 -47 -32 -77t-80 -69q-47 -28 -66.5 -48.5t-25.5 -49.5h-120zM604 458l-300 874h140l240 -720l500 720h160
l-614 -874l-82 -458h-126z" />
    <glyph glyph-name="uni1EF7" unicode="&#x1ef7;" horiz-adv-x="1100" 
d="M704 1146q7 40 35 72t97 80q41 31 59.5 51.5t22.5 44.5q6 33 -14.5 52.5t-61.5 19.5q-44 0 -78 -23t-50 -63h-112q31 84 96.5 130t149.5 46q95 0 143 -45t35 -121q-9 -47 -32 -77t-80 -69q-46 -28 -65 -48.5t-25 -49.5h-120zM82 -194h150q73 0 116 30.5t84 107.5l42 80
l-226 1000h132l192 -864l486 864h152l-622 -1092q-79 -136 -153.5 -194t-174.5 -58h-194z" />
    <glyph glyph-name="uni1EF8" unicode="&#x1ef8;" horiz-adv-x="1176" 
d="M740 1728q39 0 72 -18t49.5 -36.5t40.5 -51.5q17 -26 23.5 -35t21.5 -26t29.5 -23t33.5 -6q46 0 83.5 50.5t52.5 133.5h104q-24 -134 -91.5 -212t-160.5 -78q-30 0 -53.5 7t-42.5 24t-28.5 28t-27.5 35l-19 28.5t-20 29t-18.5 21.5t-24 17.5t-26.5 5.5q-48 0 -86.5 -51.5
t-51.5 -136.5h-110q24 139 89.5 216.5t160.5 77.5zM604 458l-300 874h140l240 -720l500 720h160l-614 -874l-82 -458h-126z" />
    <glyph glyph-name="uni1EF9" unicode="&#x1ef9;" horiz-adv-x="1100" 
d="M650 1440q39 0 72 -18t49.5 -36.5t40.5 -51.5q17 -26 23.5 -35t21.5 -26t29.5 -23t33.5 -6q48 0 84.5 50.5t51.5 133.5h104q-24 -134 -91.5 -212t-158.5 -78q-25 0 -46.5 6.5t-33.5 12t-30 24t-21.5 23t-22.5 28.5q-5 7 -22.5 34t-25.5 36.5t-25 20.5t-35 11
q-48 0 -86.5 -51.5t-51.5 -136.5h-110q24 139 89.5 216.5t160.5 77.5zM82 -194h150q73 0 116 30.5t84 107.5l42 80l-226 1000h132l192 -864l486 864h152l-622 -1092q-79 -136 -153.5 -194t-174.5 -58h-194z" />
    <glyph glyph-name="endash" unicode="&#x2013;" horiz-adv-x="1346" 
d="M180 624h1208l-22 -118h-1208z" />
    <glyph glyph-name="emdash" unicode="&#x2014;" horiz-adv-x="2014" 
d="M180 624h1874l-20 -118h-1876z" />
    <glyph glyph-name="quoteleft" unicode="&#x2018;" 
d="M412 994h-156l30 164l118 276h100l-156 -276h92z" />
    <glyph glyph-name="quoteright" unicode="&#x2019;" 
d="M350 1434h154l-30 -166l-118 -274h-100l158 274h-94z" />
    <glyph glyph-name="quotesinglbase" unicode="&#x201a;" 
d="M126 166h154l-28 -166l-120 -276h-98l156 276h-94z" />
    <glyph glyph-name="quotereversed" unicode="&#x201b;" 
d="M490 1434l-30 -166h-94l60 -274h-98l-22 274l28 166h156z" />
    <glyph glyph-name="quotedblleft" unicode="&#x201c;" horiz-adv-x="600" 
d="M666 994h-154l28 164l118 276h100l-156 -276h92zM412 994h-156l30 164l118 276h100l-156 -276h92z" />
    <glyph glyph-name="quotedblright" unicode="&#x201d;" horiz-adv-x="600" 
d="M350 1434h154l-30 -166l-118 -274h-100l158 274h-94zM602 1434h156l-30 -166l-118 -274h-98l154 274h-92z" />
    <glyph glyph-name="quotedblbase" unicode="&#x201e;" horiz-adv-x="600" 
d="M126 166h154l-28 -166l-120 -276h-98l156 276h-94zM378 166h156l-30 -166l-118 -276h-98l156 276h-94z" />
    <glyph glyph-name="uni201F" unicode="&#x201f;" horiz-adv-x="600" 
d="M744 1434l-30 -166h-94l60 -274h-98l-24 274l30 166h156zM490 1434l-30 -166h-94l60 -274h-98l-22 274l28 166h156z" />
    <glyph glyph-name="dagger" unicode="&#x2020;" horiz-adv-x="656" 
d="M426 908h-196l20 116h196l48 266h126l-46 -266h194l-20 -116h-196l-160 -908h-126z" />
    <glyph glyph-name="daggerdbl" unicode="&#x2021;" horiz-adv-x="656" 
d="M574 1024h194l-20 -116h-196l-94 -526h198l-22 -116h-194l-48 -266h-126l48 266h-198l22 116h194l94 526h-196l20 116h196l48 266h126z" />
    <glyph glyph-name="bullet" unicode="&#x2022;" horiz-adv-x="432" 
d="M212 758q0 57 40 97.5t98 40.5t99 -40.5t41 -97.5q0 -59 -41 -100.5t-99 -41.5t-98 41.5t-40 100.5z" />
    <glyph glyph-name="uni2023" unicode="&#x2023;" horiz-adv-x="432" 
d="M178 574l64 364l248 -202z" />
    <glyph glyph-name="ellipsis" unicode="&#x2026;" horiz-adv-x="1038" 
d="M816 166h156l-30 -166h-154zM472 166h154l-28 -166h-156zM126 166h154l-28 -166h-156z" />
    <glyph glyph-name="perthousand" unicode="&#x2030;" horiz-adv-x="2514" 
d="M224 866q0 206 108.5 346t267.5 140q133 0 213.5 -91t80.5 -241q0 -204 -109.5 -346t-266.5 -142q-133 0 -213.5 91t-80.5 243zM1314 1332h134l-784 -1332h-132zM772 1022q0 103 -47.5 159.5t-132.5 56.5q-105 0 -174.5 -106t-69.5 -268q0 -104 47.5 -161t132.5 -57
q105 0 174.5 107.5t69.5 268.5zM1852 316q0 205 109.5 344.5t268.5 139.5q134 0 214 -90t80 -240q0 -204 -109.5 -346t-266.5 -142q-134 0 -215 91.5t-81 242.5zM1078 316q0 205 109.5 344.5t268.5 139.5q134 0 214 -90t80 -240q0 -204 -109.5 -346t-266.5 -142
q-134 0 -215 91.5t-81 242.5zM2402 472q0 102 -47 158t-133 56q-105 0 -174.5 -106t-69.5 -266q0 -104 47.5 -161t132.5 -57q105 0 174.5 107t69.5 269zM1628 472q0 102 -47 158t-133 56q-105 0 -174.5 -106t-69.5 -266q0 -104 47.5 -161t132.5 -57q105 0 174.5 107
t69.5 269z" />
    <glyph glyph-name="minute" unicode="&#x2032;" horiz-adv-x="488" 
d="M672 1332l-336 -316h-106l290 316h152z" />
    <glyph glyph-name="second" unicode="&#x2033;" horiz-adv-x="772" 
d="M956 1332l-336 -316h-106l288 316h154zM672 1332l-336 -316h-106l290 316h152z" />
    <glyph glyph-name="uni2034" unicode="&#x2034;" horiz-adv-x="1056" 
d="M672 1332l-336 -316h-106l290 316h152zM1240 1332l-336 -316h-106l288 316h154zM956 1332l-336 -316h-106l288 316h154z" />
    <glyph glyph-name="uni2035" unicode="&#x2035;" horiz-adv-x="488" 
d="M286 1332h154l176 -316h-106z" />
    <glyph glyph-name="uni2036" unicode="&#x2036;" horiz-adv-x="772" 
d="M286 1332h154l176 -316h-106zM570 1332h154l176 -316h-106z" />
    <glyph glyph-name="uni2037" unicode="&#x2037;" horiz-adv-x="1056" 
d="M854 1332h154l176 -316h-106zM286 1332h154l176 -316h-106zM570 1332h154l176 -316h-106z" />
    <glyph glyph-name="guilsinglleft" unicode="&#x2039;" horiz-adv-x="618" 
d="M748 1038l-28 -180l-440 -314l326 -324l-26 -138l-424 408l26 140z" />
    <glyph glyph-name="guilsinglright" unicode="&#x203a;" horiz-adv-x="618" 
d="M84 82l30 180l440 314l-328 324l28 138l424 -408l-26 -140z" />
    <glyph glyph-name="uni2070" unicode="&#x2070;" horiz-adv-x="802" 
d="M272 1138q33 183 143.5 295.5t258.5 112.5t218.5 -112.5t37.5 -295.5q-33 -186 -142.5 -298t-257.5 -112q-149 0 -220 112t-38 298zM806 1138q26 140 -13.5 217t-138.5 77q-98 0 -166 -77.5t-92 -216.5q-25 -141 15.5 -218.5t138.5 -77.5q99 0 165.5 77.5t90.5 218.5z
" />
    <glyph glyph-name="uni2074" unicode="&#x2074;" horiz-adv-x="814" 
d="M764 942l-34 -196h-118l36 196h-412l22 126l468 468h144l-86 -488h148l-20 -106h-148zM666 1048l62 352l-350 -352h288z" />
    <glyph glyph-name="uni2075" unicode="&#x2075;" horiz-adv-x="756" 
d="M740 1010q14 78 -22.5 123t-117.5 45q-141 0 -222 -104h-116l134 462h520l-18 -110h-420l-66 -236q93 96 232 96q121 0 181 -77t39 -197q-22 -130 -119.5 -207t-234.5 -77q-130 0 -203.5 64t-64.5 168h124q-6 -56 38 -88t126 -32q85 0 140 43.5t70 126.5z" />
    <glyph glyph-name="uni2076" unicode="&#x2076;" horiz-adv-x="786" 
d="M272 1130q35 197 144 306.5t272 109.5q111 0 176 -59t68 -163h-126q-3 110 -138 110q-219 0 -270 -292q-4 -36 -4 -50q40 74 112.5 117t151.5 43q122 0 186.5 -73t43.5 -187q-19 -115 -112 -188.5t-218 -73.5q-164 0 -241.5 108t-44.5 292zM416 992q-12 -64 31.5 -107
t120.5 -43q76 0 130 41t66 107q11 68 -28.5 108t-115.5 40q-79 0 -135.5 -40.5t-68.5 -105.5z" />
    <glyph glyph-name="uni2077" unicode="&#x2077;" horiz-adv-x="802" 
d="M514 746h-132q35 118 85.5 218.5t114.5 182.5t127 144.5t145 130.5h-532l20 114h658l-24 -134q-363 -285 -462 -656z" />
    <glyph glyph-name="uni2078" unicode="&#x2078;" horiz-adv-x="784" 
d="M546 842q90 0 144.5 30t65.5 86q11 60 -31 93t-129 33h-14q-92 0 -149 -33t-67 -93q-10 -55 37.5 -85.5t142.5 -30.5zM446 1304q-10 -54 31.5 -83t124.5 -29h14q78 0 125.5 29t56.5 83q11 62 -27.5 96t-120.5 34q-87 0 -140 -34t-64 -96zM670 1546q133 0 202.5 -63
t51.5 -167q-10 -58 -50 -104t-102 -72q62 -27 90 -77.5t18 -114.5q-18 -99 -114.5 -158.5t-239.5 -59.5q-147 0 -225.5 59.5t-60.5 158.5q10 64 57.5 113.5t122.5 78.5q-56 26 -81 72t-15 104q18 104 113 167t233 63z" />
    <glyph glyph-name="uni2079" unicode="&#x2079;" horiz-adv-x="786" 
d="M908 1108q-32 -179 -139.5 -278.5t-270.5 -99.5q-117 0 -186 56.5t-72 155.5h124q9 -100 152 -100q225 0 272 272q0 2 6 52q-42 -73 -113.5 -115.5t-150.5 -42.5q-123 0 -188.5 74.5t-45.5 191.5q21 119 118.5 195.5t227.5 76.5q158 0 230 -118.5t36 -319.5zM774 1274
q12 66 -31 112t-119 46t-130 -43.5t-66 -114.5q-13 -70 25 -113t115 -43q80 0 137 43t69 113z" />
    <glyph glyph-name="uni207A" unicode="&#x207a;" horiz-adv-x="752" 
d="M646 1210h250l-18 -112h-252l-44 -250h-112l44 250h-250l20 112h250l44 250h112z" />
    <glyph glyph-name="uni207B" unicode="&#x207b;" horiz-adv-x="752" 
d="M284 1210h612l-18 -112h-614z" />
    <glyph glyph-name="uni207C" unicode="&#x207c;" horiz-adv-x="752" 
d="M314 1386h614l-20 -112h-614zM252 1034h614l-20 -112h-612z" />
    <glyph glyph-name="uni207D" unicode="&#x207d;" horiz-adv-x="384" 
d="M460 594h-122q-59 84 -77 224t13 336q30 174 100 313t158 219h120q-194 -194 -254 -532q-62 -357 62 -560z" />
    <glyph glyph-name="uni207E" unicode="&#x207e;" horiz-adv-x="384" 
d="M328 1686h122q59 -82 77 -223.5t-13 -336.5q-32 -176 -100.5 -314.5t-155.5 -217.5h-124q194 191 254 532q63 359 -60 560z" />
    <glyph glyph-name="uni207F" unicode="&#x207f;" horiz-adv-x="874" 
d="M862 1224q19 110 -23.5 164t-134.5 54q-94 0 -166.5 -58.5t-87.5 -147.5l-88 -490h-120l140 790h120l-18 -102q54 59 126.5 91.5t143.5 32.5q128 0 192.5 -81t39.5 -227l-90 -504h-118z" />
    <glyph glyph-name="uni2080" unicode="&#x2080;" horiz-adv-x="802" 
d="M104 188q33 183 144.5 295.5t259.5 112.5q147 0 217 -112.5t37 -295.5q-33 -186 -142 -299t-256 -113q-150 0 -221 113t-39 299zM640 188q24 140 -15.5 217t-136.5 77q-99 0 -167.5 -77.5t-92.5 -216.5q-24 -141 16.5 -218.5t139.5 -77.5q97 0 163.5 77.5t92.5 218.5z
" />
    <glyph glyph-name="uni2081" unicode="&#x2081;" horiz-adv-x="468" 
d="M378 586h120l-140 -790h-118l90 520h-222l18 102h88q71 0 107.5 23.5t46.5 82.5z" />
    <glyph glyph-name="uni2082" unicode="&#x2082;" horiz-adv-x="782" 
d="M180 -94h506l-20 -110h-630l6 32q9 51 29 93t50 73.5t61 55.5t73.5 44t76 33.5t79.5 29.5l9 3q49 17 81 30.5t65.5 33.5t52.5 46.5t25 59.5q12 74 -28 114t-126 40q-91 0 -155.5 -46t-82.5 -124h-124q31 126 137.5 204t244.5 78q137 0 208 -74.5t50 -197.5
q-9 -49 -37 -89.5t-75.5 -72t-90 -52t-105.5 -44.5q-156 -60 -199 -84q-62 -35 -81 -76z" />
    <glyph glyph-name="uni2083" unicode="&#x2083;" horiz-adv-x="786" 
d="M360 132l20 106h118q53 0 88 28.5t44 79.5q11 66 -30 103t-126 37q-79 0 -134.5 -37t-69.5 -99h-126q29 110 126 179t224 69q137 0 209 -68t53 -180q-21 -108 -122 -162q103 -55 82 -176q-18 -105 -116.5 -169.5t-239.5 -64.5q-136 0 -215.5 65.5t-70.5 170.5h126
q-6 -57 42 -89.5t136 -32.5q92 0 148 32t66 92q9 56 -20 86t-92 30h-120z" />
    <glyph glyph-name="uni2084" unicode="&#x2084;" horiz-adv-x="814" 
d="M598 -8l-36 -196h-116l34 196h-412l24 126l468 468h142l-86 -488h148l-18 -106h-148zM498 98l62 350l-350 -350h288z" />
    <glyph glyph-name="uni2085" unicode="&#x2085;" horiz-adv-x="756" 
d="M572 60q14 78 -22.5 122t-117.5 44q-141 0 -222 -104h-116l134 464h520l-18 -110h-420l-66 -236q93 96 232 96q123 0 183 -77t39 -197q-24 -131 -121.5 -208.5t-234.5 -77.5q-130 0 -203.5 65t-64.5 169h124q-6 -56 38 -88t126 -32q86 0 140.5 43.5t69.5 126.5z" />
    <glyph glyph-name="uni2086" unicode="&#x2086;" horiz-adv-x="786" 
d="M104 180q34 196 144 306t272 110q111 0 177 -60.5t67 -163.5h-126q-2 54 -37 83t-101 29q-217 0 -268 -292q-1 -4 -6 -50q42 74 114 117t152 43q120 0 184.5 -74t43.5 -188q-19 -115 -112 -188.5t-218 -73.5q-164 0 -241.5 109t-44.5 293zM248 40q-11 -65 32.5 -106.5
t121.5 -41.5q76 0 129 40t65 108q12 66 -27 107t-117 41q-79 0 -135.5 -41.5t-68.5 -106.5z" />
    <glyph glyph-name="uni2087" unicode="&#x2087;" horiz-adv-x="802" 
d="M346 -204h-132q35 118 85.5 218.5t115.5 182.5t127 144t144 131h-530l20 114h656l-22 -136q-366 -285 -464 -654z" />
    <glyph glyph-name="uni2088" unicode="&#x2088;" horiz-adv-x="784" 
d="M378 -108q91 0 146 30t64 86q11 60 -31 93t-129 33h-12q-93 0 -150.5 -33t-67.5 -93q-9 -55 38 -85.5t142 -30.5zM278 354q-9 -54 32 -83t124 -29h14q78 0 126 29t58 83q11 62 -28 96t-122 34q-86 0 -140 -34.5t-64 -95.5zM502 596q133 0 202.5 -63t51.5 -167
q-10 -58 -50 -104t-102 -72q62 -27 90 -77.5t18 -114.5q-18 -99 -115 -159.5t-239 -60.5q-146 0 -225 60.5t-61 159.5q10 64 57.5 113.5t122.5 78.5q-56 26 -81 72t-15 104q18 103 113.5 166.5t232.5 63.5z" />
    <glyph glyph-name="uni2089" unicode="&#x2089;" horiz-adv-x="786" 
d="M742 158q-32 -179 -140.5 -279.5t-271.5 -100.5q-117 0 -186 57.5t-72 156.5h126q6 -100 152 -100q223 0 270 272q6 24 6 52q-40 -73 -112 -115.5t-152 -42.5q-122 0 -187.5 74.5t-44.5 191.5q20 119 117 195.5t227 76.5q157 0 230 -118.5t38 -319.5zM606 324
q12 66 -31 112t-119 46t-130 -43.5t-66 -114.5t26 -113.5t116 -42.5q80 0 136 43t68 113z" />
    <glyph glyph-name="uni208A" unicode="&#x208a;" horiz-adv-x="752" 
d="M478 260h252l-20 -112h-252l-44 -250h-112l46 250h-252l20 112h250l44 250h112z" />
    <glyph glyph-name="uni208B" unicode="&#x208b;" horiz-adv-x="752" 
d="M116 260h614l-20 -112h-614z" />
    <glyph glyph-name="uni208C" unicode="&#x208c;" horiz-adv-x="752" 
d="M148 436h612l-20 -112h-612zM86 84h612l-20 -112h-612z" />
    <glyph glyph-name="uni208D" unicode="&#x208d;" horiz-adv-x="384" 
d="M292 -356h-120q-60 84 -79 223t13 335q30 175 100 314.5t158 219.5h120q-190 -190 -254 -534q-62 -355 62 -558z" />
    <glyph glyph-name="uni208E" unicode="&#x208e;" horiz-adv-x="384" 
d="M160 736h122q59 -82 77 -223.5t-13 -336.5q-32 -176 -100.5 -314.5t-155.5 -217.5h-122q192 192 252 532q65 356 -60 560z" />
    <glyph glyph-name="uni2099" unicode="&#x2099;" horiz-adv-x="874" 
d="M214 586h120l-18 -102q54 59 126.5 91.5t143.5 32.5q128 0 192.5 -81t39.5 -227l-88 -504h-120l84 478q20 110 -22.5 164t-135.5 54q-94 0 -166.5 -58.5t-87.5 -147.5l-86 -490h-122z" />
    <glyph glyph-name="uni20A0" unicode="&#x20a0;" horiz-adv-x="1506" 
d="M234 814q0 148 66 275t179 201t245 74q155 0 247.5 -84t92.5 -212h-128q-1 84 -56.5 131t-153.5 47q-155 0 -258.5 -126.5t-103.5 -315.5q0 -144 88 -218t260 -74h92l70 392h700l-20 -112h-572l-50 -282h516l-18 -110h-518l-50 -286h574l-20 -114h-702l70 396h-74
q-224 0 -350 111t-126 307z" />
    <glyph glyph-name="colonmonetary" unicode="&#x20a1;" horiz-adv-x="1310" 
d="M196 546q0 224 85 408.5t233.5 290t327.5 105.5h38l98 204h122l-106 -220q95 -23 176 -76l140 296h122l-178 -370q116 -128 116 -330h-126q0 122 -50 204l-458 -954h4q153 0 276.5 91.5t157.5 232.5h132q-54 -204 -211 -324t-371 -120q-30 0 -46 2l-70 -146h-118l78 162
q-97 24 -174 82l-116 -244h-120l154 322q-116 150 -116 384zM326 536q0 -140 50 -240l448 936q-138 -2 -252.5 -94.5t-180 -251.5t-65.5 -350zM450 200q68 -62 172 -86l494 1034q-71 56 -174 74z" />
    <glyph glyph-name="uni20A2" unicode="&#x20a2;" horiz-adv-x="1310" 
d="M196 546q0 168 51.5 317t140 256t212.5 169t264 62q229 0 368.5 -124t141.5 -328h-128q0 157 -104 246.5t-286 89.5q-147 0 -268.5 -92t-191.5 -253t-70 -355q0 -195 95.5 -305.5t274.5 -124.5l110 628h122l-24 -138q59 75 139.5 116.5t160.5 41.5h62l-22 -128h-44
q-125 0 -222 -76t-118 -194l-42 -246q128 20 225 96t127 182h132q-54 -184 -210 -293t-366 -109q-246 0 -388 150.5t-142 411.5z" />
    <glyph glyph-name="franc" unicode="&#x20a3;" horiz-adv-x="1200" 
d="M1346 1332l-20 -120h-764l-76 -434h706l-22 -118h-704l-48 -272h446l-20 -114h-446l-48 -274h-128l48 274h-192l20 114h192l166 944h890z" />
    <glyph glyph-name="lira" unicode="&#x20a4;" horiz-adv-x="1090" 
d="M164 518h224l30 174h-224l20 106h224l38 214q25 151 131.5 243.5t252.5 92.5q157 0 242.5 -89t85.5 -235h-126q0 99 -50 151.5t-148 52.5q-104 0 -174.5 -58t-89.5 -162l-36 -210h426l-18 -106h-426l-32 -174h428l-20 -104h-428q-23 -93 -90 -172.5t-178 -123.5h814
l-20 -118h-948l24 130q110 41 177 117t93 167h-220z" />
    <glyph glyph-name="uni20A5" unicode="&#x20a5;" horiz-adv-x="1692" 
d="M292 1024h128l-24 -138q66 76 157 118t181 42q101 0 176 -48.5t108 -135.5l270 470h142l-188 -326q81 36 162 36q157 0 245.5 -110.5t56.5 -289.5l-116 -642h-126l114 626q27 150 -31 221t-175 71q-131 0 -236 -98l-104 -180l-120 -640h-126l60 320l-318 -550h-140
l522 904q12 126 -48.5 189t-177.5 63q-111 0 -202.5 -67.5t-121.5 -176.5l-120 -682h-128z" />
    <glyph glyph-name="uni20A6" unicode="&#x20a6;" horiz-adv-x="1364" 
d="M1448 526l-20 -112h-152l-74 -414h-136l-200 414h-504l-72 -414h-128l74 414h-154l20 112h154l50 288h-152l20 112h152l72 406h168l194 -406h482l70 406h126l-72 -406h152l-20 -112h-152l-52 -288h154zM496 1174l-44 -248h164zM382 526h428l-138 288h-240zM952 526h218
l52 288h-408zM1112 194l38 220h-142z" />
    <glyph glyph-name="peseta" unicode="&#x20a7;" horiz-adv-x="2482" 
d="M756 502h-430l-88 -502h-128l236 1332h514q159 0 258 -83t114 -225h156l48 266h126l-48 -266h194l-20 -116h-194l-104 -596q-17 -92 12 -141t126 -49h528q120 0 191 49t71 131q0 60 -47 94.5t-145 49.5l-154 22q-142 21 -210 82t-68 166q0 146 116.5 237t303.5 91
t286.5 -84.5t99.5 -243.5h-128q0 111 -64 162.5t-202 51.5q-124 0 -203 -57t-79 -147q0 -56 42.5 -87.5t139.5 -44.5l160 -20q282 -41 282 -266q0 -138 -103.5 -223t-270.5 -85h-556q-60 0 -108.5 13.5t-90 44.5t-58 92t-1.5 146l108 612h-138q-11 -82 -47.5 -154.5
t-95 -129t-144.5 -89.5t-187 -33zM838 1212h-388l-104 -592h384q79 0 143.5 22.5t106.5 58.5t71 84t41 98t12 101q0 112 -68 170t-198 58z" />
    <glyph glyph-name="uni20A8" unicode="&#x20a8;" horiz-adv-x="2052" 
d="M664 560h-328l-98 -560h-128l236 1332h534q167 0 263.5 -90t96.5 -246q0 -151 -94.5 -259t-249.5 -137q103 -24 147.5 -91.5t44.5 -194.5v-314h-128v298q0 145 -66 203.5t-230 58.5zM856 1214h-406l-92 -538h406q155 0 247.5 90.5t92.5 237.5q0 102 -64 156t-184 54z
M1694 438l-154 36q-139 32 -205.5 95t-66.5 167q0 141 105.5 226.5t288.5 85.5q180 0 287 -92.5t111 -261.5h-126q0 118 -72.5 178t-211.5 60q-119 0 -187.5 -50.5t-68.5 -133.5q0 -61 43 -96t139 -56l158 -32q141 -30 208.5 -97.5t67.5 -178.5q0 -143 -103.5 -226.5
t-290.5 -83.5q-201 0 -315.5 94.5t-114.5 259.5h132q0 -116 79 -178t221 -62q126 0 196 48t70 130q0 65 -45 104.5t-145 63.5z" />
    <glyph glyph-name="uni20A9" unicode="&#x20a9;" horiz-adv-x="1970" 
d="M304 1332h130l38 -406h458l206 406h146l62 -406h460l184 406h150l-194 -406h178l-20 -112h-210l-138 -288h298l-20 -112h-332l-196 -414h-140l-62 414h-498l-210 -414h-142l-46 414h-324l20 112h290l-32 288h-206l20 112h174zM1190 1170l-124 -244h160zM508 526h216
l148 288h-390zM862 526h424l-44 288h-234zM1404 526h216l132 288h-392zM542 168l124 246h-146zM1456 168l112 246h-148z" />
    <glyph glyph-name="uni20AA" unicode="&#x20aa;" horiz-adv-x="1314" 
d="M578 114h288q123 0 190 59t90 187l118 664h120l-120 -676q-27 -166 -121.5 -257t-248.5 -91h-460l130 736h122zM394 910l-162 -910h-122l180 1024h416q177 0 250.5 -90.5t41.5 -255.5l-68 -390h-120l66 378q23 126 -24 185t-170 59h-288z" />
    <glyph glyph-name="dong" unicode="&#x20ab;" horiz-adv-x="1094" 
d="M738 1294h240l24 140h126l-24 -140h174l-20 -106h-174l-184 -1046h-126l24 132q-124 -150 -290 -150q-150 0 -238 97.5t-88 266.5q0 151 59.5 278.5t162.5 201.5t226 74q97 0 167 -46t105 -132l56 324h-240zM314 482q0 -115 56 -176.5t160 -61.5q108 0 190.5 73.5
t119.5 196.5l22 122q0 8 1 24t1 24q0 116 -55.5 177t-160.5 61q-144 0 -239 -125.5t-95 -314.5zM124 4h878l-20 -114h-878z" />
    <glyph glyph-name="Euro" unicode="&#x20ac;" horiz-adv-x="1390" 
d="M276 546q0 133 34 260h-158l18 104h176q81 201 239.5 320.5t354.5 119.5q230 0 370 -126t140 -334h-128q0 159 -104.5 249.5t-287.5 90.5q-139 0 -255 -86t-185 -234h512l-18 -104h-534q-40 -126 -40 -270v-4h526l-18 -106h-500q27 -155 129.5 -237.5t272.5 -82.5
q153 0 274 91t156 231h136q-54 -204 -211 -324t-371 -120q-215 0 -351.5 117t-168.5 325h-198l18 106h172v14z" />
    <glyph glyph-name="uni20AD" unicode="&#x20ad;" horiz-adv-x="1086" 
d="M128 728h152l106 604h128l-104 -596l660 596h184l-676 -604h420l-20 -112h-432l450 -616h-158l-450 610l-108 -610h-128l108 616h-152z" />
    <glyph glyph-name="uni20AE" unicode="&#x20ae;" horiz-adv-x="1074" 
d="M1020 632l-22 -122l-324 -92l-72 -418h-126l66 380l-306 -88l22 122l306 88l34 190l-308 -88l22 122l306 88l70 396h-404l22 122h934l-20 -122h-406l-62 -358l322 92l-22 -122l-322 -92l-34 -190z" />
    </font>
</defs>
</svg>
