<?xml version="1.0" standalone="no"?>
<!DOCTYPE svg PUBLIC "-//W3C//DTD SVG 1.1//EN" "http://www.w3.org/Graphics/SVG/1.1/DTD/svg11.dtd" >
<svg xmlns="http://www.w3.org/2000/svg" xmlns:xlink="http://www.w3.org/1999/xlink" version="1.1">
<metadata>
Created by FontForge 20201107 at Mon Jul 14 14:24:50 2025
 By 
Copyright (c) 2023, Bao Nguyen (RandomMaerks) (rmforbusiness@gmail.com)
</metadata>
<defs>
<font id="OverusedGrotesk-MediumItalic" horiz-adv-x="406" >
  <font-face 
    font-family="Overused Grotesk Medium"
    font-weight="500"
    font-style="italic"
    font-stretch="normal"
    units-per-em="2048"
    panose-1="0 0 0 0 0 0 0 0 0 0"
    ascent="1638"
    descent="-410"
    x-height="1024"
    cap-height="1332"
    bbox="-130 -576 2660 2214"
    underline-thickness="102"
    underline-position="-254"
    slope="-10"
    unicode-range="U+0020-277E"
  />
<missing-glyph horiz-adv-x="1024" 
d="M102 -410v2048h820v-2048h-820zM204 -308h616v1844h-616v-1844z" />
    <glyph glyph-name=".notdef" horiz-adv-x="1024" 
d="M102 -410v2048h820v-2048h-820zM204 -308h616v1844h-616v-1844z" />
    <glyph glyph-name=".null" horiz-adv-x="0" 
 />
    <glyph glyph-name="nonmarkingreturn" horiz-adv-x="682" 
 />
    <glyph glyph-name="space" unicode=" " horiz-adv-x="408" 
 />
    <glyph glyph-name="exclam" unicode="!" 
d="M342 332h-160l158 1000h198zM318 0h-228l34 196h226z" />
    <glyph glyph-name="quotedbl" unicode="&#x22;" horiz-adv-x="704" 
d="M666 1434h186l-112 -478h-158zM358 1434h186l-112 -478h-158z" />
    <glyph glyph-name="numbersign" unicode="#" horiz-adv-x="1444" 
d="M1362 484v-154h-280l-120 -330h-200l120 330h-338l-120 -330h-198l120 330h-168v154h222l134 366h-226v154h282l120 328h198l-120 -328h340l118 328h202l-120 -328h164v-154h-220l-134 -366h224zM600 484h338l134 366h-340z" />
    <glyph glyph-name="dollar" unicode="$" horiz-adv-x="1208" 
d="M822 1542h110l-36 -204q172 -33 264 -143.5t92 -288.5h-202q0 214 -184 262l-72 -410l30 -6q360 -73 360 -346q0 -197 -131 -310.5t-355 -113.5h-42l-42 -234h-108l44 246q-187 33 -290.5 147t-103.5 289h204q0 -106 56.5 -174t163.5 -92l72 416l-60 12q-338 76 -338 336
q0 195 132.5 308.5t359.5 113.5h42zM656 786l32 -6l70 402h-16q-125 0 -203.5 -62.5t-78.5 -161.5q0 -130 196 -172zM768 556l-10 2l-72 -406h16q122 0 200 61.5t78 158.5q0 136 -212 184z" />
    <glyph glyph-name="percent" unicode="%" horiz-adv-x="1842" 
d="M218 870q0 207 113 347.5t281 140.5q144 0 230 -92.5t86 -247.5q0 -207 -114 -348.5t-280 -141.5q-144 0 -230 93t-86 249zM1336 1332h186l-780 -1332h-186zM760 1016q0 91 -41.5 141.5t-116.5 50.5q-93 0 -153.5 -96t-60.5 -242q0 -91 41 -141.5t115 -50.5
q93 0 154.5 97t61.5 241zM1146 318q0 207 114 346.5t282 139.5q144 0 230 -92.5t86 -247.5q0 -206 -114 -347t-280 -141q-144 0 -231 93t-87 249zM1690 464q0 91 -41 140.5t-115 49.5q-93 0 -154.5 -95.5t-61.5 -240.5q0 -91 41 -141.5t115 -50.5q93 0 154.5 97t61.5 241z
" />
    <glyph glyph-name="ampersand" unicode="&#x26;" horiz-adv-x="1314" 
d="M780 1348q148 0 243 -80t95 -202q0 -76 -27.5 -140t-78.5 -111.5t-108.5 -81.5t-131.5 -63l216 -280q77 119 114 266h192q-55 -232 -196 -408l192 -248h-226l-98 122q-178 -138 -398 -138q-190 0 -309 82t-119 220q0 137 82 234.5t274 187.5q-116 151 -116 268
q0 155 111 263.5t289 108.5zM580 988q0 -50 25 -97t73 -105q254 110 254 268q0 60 -42.5 97t-113.5 37q-90 0 -143 -61t-53 -139zM348 318q0 -80 59.5 -124t172.5 -44q152 0 282 102l-278 346q-236 -109 -236 -280z" />
    <glyph glyph-name="quotesingle" unicode="'" horiz-adv-x="394" 
d="M358 1434h186l-112 -478h-158z" />
    <glyph glyph-name="parenleft" unicode="(" horiz-adv-x="560" 
d="M482 -274h-200q-97 125 -129.5 340t13.5 502q48 273 160 495t252 347h200q-308 -263 -410 -842q-103 -584 114 -842z" />
    <glyph glyph-name="parenright" unicode=")" horiz-adv-x="560" 
d="M266 1410h200q98 -124 130 -340t-14 -502q-48 -273 -160 -495t-254 -347h-200q308 260 410 842q103 583 -112 842z" />
    <glyph glyph-name="asterisk" unicode="*" horiz-adv-x="1106" 
d="M728 1440l154 -28l-86 -418l416 76l22 -156l-420 -50l196 -368l-140 -68l-174 384l-294 -302l-108 112l312 282l-378 188l72 140l366 -216z" />
    <glyph glyph-name="plus" unicode="+" horiz-adv-x="1146" 
d="M784 682h418l-32 -180h-418l-74 -418h-180l74 418h-420l34 180h418l74 418h180z" />
    <glyph glyph-name="comma" unicode="," 
d="M130 230h226l-38 -230l-148 -296h-146l202 296h-136z" />
    <glyph glyph-name="hyphen" unicode="-" horiz-adv-x="980" 
d="M180 656h850l-30 -180h-852z" />
    <glyph glyph-name="period" unicode="." 
d="M130 230h226l-38 -230h-228z" />
    <glyph glyph-name="slash" unicode="/" horiz-adv-x="878" 
d="M810 1332h234l-740 -1332h-234z" />
    <glyph glyph-name="zero" unicode="0" horiz-adv-x="1184" 
d="M184 490q0 240 78 438t214 311t302 113q213 0 330.5 -137.5t117.5 -386.5q0 -243 -74.5 -435.5t-208.5 -300.5t-303 -108q-216 0 -336 133t-120 373zM1024 836q0 332 -256 332q-106 0 -194 -90t-138 -246.5t-50 -345.5q0 -157 67.5 -237.5t198.5 -80.5q163 0 267.5 187.5
t104.5 480.5z" />
    <glyph glyph-name="one" unicode="1" horiz-adv-x="688" 
d="M620 1332h196l-234 -1332h-198l166 942h-320l32 170h156q83 0 128 30.5t58 107.5z" />
    <glyph glyph-name="two" unicode="2" horiz-adv-x="1106" 
d="M358 180h692l-32 -180h-932l8 42q15 97 49 175t79.5 136t114 108.5t139.5 87.5t170 77q191 80 264.5 149.5t73.5 182.5q0 99 -68.5 156.5t-185.5 57.5q-96 0 -174 -58.5t-100 -159.5h-206q44 179 175 286.5t311 107.5q202 0 327 -106.5t125 -277.5q0 -170 -99 -277.5
t-317 -200.5q-211 -93 -303 -158t-111 -148z" />
    <glyph glyph-name="three" unicode="3" horiz-adv-x="1112" 
d="M568 590l28 160h140q110 0 175 72t65 180q0 84 -55.5 130t-158.5 46q-108 0 -185 -60.5t-99 -163.5h-204q45 185 181 289.5t329 104.5q181 0 288.5 -89t107.5 -239q0 -115 -62 -208t-172 -142q73 -39 112.5 -106.5t39.5 -155.5q0 -179 -145 -301.5t-365 -122.5
q-206 0 -322 104t-116 288h202q0 -108 62.5 -165t179.5 -57q141 0 221.5 77.5t80.5 198.5q0 78 -49 119t-139 41h-140z" />
    <glyph glyph-name="four" unicode="4" horiz-adv-x="1142" 
d="M960 324l-58 -324h-192l60 324h-648l38 212l736 796h242l-148 -836h196l-30 -172h-196zM798 496l110 612l-556 -612h446z" />
    <glyph glyph-name="five" unicode="5" horiz-adv-x="1112" 
d="M910 518q0 105 -61.5 161.5t-172.5 56.5q-181 0 -288 -132h-196l194 730h830l-30 -174h-648l-114 -400q138 138 342 138q162 0 256 -100.5t94 -273.5q0 -232 -152 -386t-380 -154q-204 0 -319 102t-115 282h204q0 -102 58.5 -154t171.5 -52q147 0 236.5 97.5t89.5 258.5z
" />
    <glyph glyph-name="six" unicode="6" horiz-adv-x="1152" 
d="M186 476q0 260 81.5 459.5t228.5 308t336 108.5q186 0 292 -97t106 -267h-206q0 96 -52.5 148t-149.5 52q-159 0 -263.5 -125t-146.5 -367q-6 -25 -8 -56q61 107 167 169.5t225 62.5q162 0 260 -101.5t98 -268.5q0 -141 -67 -260t-185.5 -188.5t-261.5 -69.5
q-210 0 -332 132.5t-122 359.5zM406 376q0 -102 64 -164t168 -62q130 0 219 99t89 245q0 99 -56 155.5t-154 56.5q-139 0 -234.5 -96t-95.5 -234z" />
    <glyph glyph-name="seven" unicode="7" horiz-adv-x="1136" 
d="M586 0h-232q39 185 98.5 341.5t114.5 258.5t149 213.5t152 168.5t172 162h-752l32 188h966l-36 -208q-135 -118 -231.5 -224t-184 -240t-148.5 -296.5t-100 -363.5z" />
    <glyph glyph-name="eight" unicode="8" horiz-adv-x="1112" 
d="M910 666q186 -78 186 -274q0 -115 -67 -208.5t-185 -146.5t-264 -53q-201 0 -319.5 90.5t-118.5 243.5q0 124 80.5 220.5t219.5 141.5q-150 77 -150 258q0 175 136.5 292.5t337.5 117.5q184 0 292 -89t108 -239q0 -119 -69 -214t-187 -140zM702 752q118 0 191 71t73 187
q0 82 -56.5 126t-161.5 44q-116 0 -187 -72t-71 -190q0 -80 49.5 -123t142.5 -43h20zM668 588h-22q-135 0 -215.5 -71.5t-80.5 -190.5q0 -85 64.5 -130.5t183.5 -45.5q136 0 216 71.5t80 190.5q0 85 -58 130.5t-168 45.5z" />
    <glyph glyph-name="nine" unicode="9" horiz-adv-x="1152" 
d="M1202 860q0 -260 -81.5 -459.5t-228.5 -308t-336 -108.5q-186 0 -292 96.5t-106 267.5h204q0 -96 53.5 -148t152.5 -52q159 0 261.5 124.5t146.5 367.5q1 7 4 24t4 30q-60 -106 -166.5 -169t-225.5 -63q-160 0 -259 102.5t-99 269.5q0 141 67.5 260t186 188.5t260.5 69.5
q210 0 332 -132.5t122 -359.5zM982 960q0 102 -64 164t-168 62q-130 0 -219 -99t-89 -245q0 -99 56.5 -155.5t155.5 -56.5q138 0 233 96t95 234z" />
    <glyph glyph-name="colon" unicode=":" 
d="M266 996h226l-40 -230h-228zM130 230h226l-38 -230h-228z" />
    <glyph glyph-name="semicolon" unicode=";" 
d="M266 996h226l-40 -230h-228zM130 230h226l-38 -230l-148 -296h-146l202 296h-136z" />
    <glyph glyph-name="less" unicode="&#x3c;" horiz-adv-x="1180" 
d="M1306 1078l-36 -210l-900 -292l800 -280l-38 -214l-984 386l40 224z" />
    <glyph glyph-name="equal" unicode="=" horiz-adv-x="1146" 
d="M1246 934l-30 -172h-1016l30 172h1016zM1152 396l-32 -174h-1016l32 174h1016z" />
    <glyph glyph-name="greater" unicode="&#x3e;" horiz-adv-x="1180" 
d="M80 82l36 210l900 292l-798 280l38 214l984 -386l-40 -224z" />
    <glyph glyph-name="question" unicode="?" horiz-adv-x="1106" 
d="M518 332q15 70 43.5 128t69 102.5t75 74.5t83.5 67q13 9 19 14q45 34 71 57t54.5 57t41.5 74t13 88q0 89 -59.5 136.5t-170.5 47.5q-114 0 -197.5 -69.5t-108.5 -186.5h-204q47 191 189 308.5t335 117.5q196 0 309 -89t113 -241q0 -73 -18 -133t-55.5 -107.5t-71 -78.5
t-87.5 -71q-10 -8 -39 -30.5t-40.5 -32t-36.5 -31t-36.5 -34t-30 -34.5t-28 -41t-20 -43t-15.5 -50h-198zM670 0h-226l34 196h228z" />
    <glyph glyph-name="at" unicode="@" horiz-adv-x="1854" 
d="M1462 952l-94 -524q-21 -128 104 -128q104 0 166 117t62 313q0 243 -144 377.5t-402 134.5q-229 0 -412 -107t-285.5 -297.5t-102.5 -429.5q0 -240 148 -373t416 -133q185 0 368 58l-16 -170q-174 -60 -362 -60q-339 0 -539.5 185t-200.5 491q0 213 75 400t205.5 320.5
t314 210.5t393.5 77q214 0 381 -82t260 -234t93 -350q0 -275 -118.5 -442.5t-313.5 -167.5q-117 0 -187 42t-87 120q-54 -77 -126 -119.5t-154 -42.5q-128 0 -206 89.5t-78 236.5q0 142 53 260.5t146 187t205 68.5q83 0 145 -37.5t93 -106.5l22 116h178zM808 480
q0 -90 41.5 -137t120.5 -47q108 0 179 97t71 245q0 90 -42 137t-122 47q-108 0 -178 -96.5t-70 -245.5z" />
    <glyph glyph-name="A" unicode="A" horiz-adv-x="1302" 
d="M1246 0h-202l-54 326h-538l-168 -326h-226l716 1332h226zM856 1108l-318 -614h422z" />
    <glyph glyph-name="B" unicode="B" horiz-adv-x="1232" 
d="M938 1332q158 0 250 -81.5t92 -218.5q0 -107 -62.5 -203.5t-177.5 -142.5q90 -35 140 -110t50 -178q0 -102 -50 -192t-148 -148t-222 -58h-704l234 1332h598zM912 1158h-404l-70 -392h404q61 0 107.5 24.5t71.5 63t37 79t12 79.5q0 68 -41.5 107t-116.5 39zM828 592h-420
l-74 -418h444q65 0 114.5 22t78.5 58.5t43 79t14 88.5q0 80 -53 125t-147 45z" />
    <glyph glyph-name="C" unicode="C" horiz-adv-x="1332" 
d="M192 550q0 167 51.5 315.5t140.5 254.5t213.5 168t264.5 62q240 0 385 -130.5t145 -355.5h-202q0 144 -89 224t-249 80q-127 0 -231.5 -81.5t-164.5 -224.5t-60 -316q0 -182 92 -280t264 -98q132 0 236 78.5t136 201.5h208q-53 -215 -211 -339.5t-387 -124.5
q-251 0 -396.5 152t-145.5 414z" />
    <glyph glyph-name="D" unicode="D" horiz-adv-x="1294" 
d="M830 1332q237 0 372.5 -147.5t135.5 -400.5q0 -123 -28.5 -239.5t-84.5 -215t-133.5 -172t-181 -115.5t-220.5 -42h-584l234 1332h490zM506 1150l-170 -970h338q92 0 170 39t130 102t88.5 144t53 164t16.5 163q0 173 -84.5 265.5t-243.5 92.5h-298z" />
    <glyph glyph-name="E" unicode="E" horiz-adv-x="1104" 
d="M1256 1332l-34 -188h-716l-66 -372h658l-32 -188h-660l-70 -398h718l-32 -186h-916l234 1332h916z" />
    <glyph glyph-name="F" unicode="F" horiz-adv-x="1104" 
d="M1256 1332l-34 -188h-716l-74 -420h658l-32 -186h-660l-94 -538h-198l234 1332h916z" />
    <glyph glyph-name="G" unicode="G" horiz-adv-x="1352" 
d="M192 544q0 172 49.5 322t136.5 256t209.5 167t262.5 61q250 0 398 -133.5t148 -358.5h-204q0 145 -92 227.5t-254 82.5q-129 0 -232 -79.5t-160.5 -222t-57.5 -322.5q0 -174 88 -275t242 -101q142 0 252 102t150 278h-376l28 166h598l-132 -714h-158l30 216
q-161 -230 -436 -230q-218 0 -354 154.5t-136 403.5z" />
    <glyph glyph-name="H" unicode="H" horiz-adv-x="1282" 
d="M340 1332h198l-98 -550h678l98 550h196l-234 -1332h-198l104 594h-676l-104 -594h-198z" />
    <glyph glyph-name="I" unicode="I" 
d="M340 1332h198l-234 -1332h-200z" />
    <glyph glyph-name="J" unicode="J" horiz-adv-x="692" 
d="M78 180h130q103 0 169 59t91 207l158 886h198l-162 -912q-38 -216 -148 -318t-258 -102h-202z" />
    <glyph glyph-name="K" unicode="K" horiz-adv-x="1172" 
d="M340 1332h198l-114 -648l670 648h270l-680 -644l464 -688h-222l-384 570l-164 -150l-74 -420h-198z" />
    <glyph glyph-name="L" unicode="L" horiz-adv-x="982" 
d="M918 0h-812l234 1332h200l-202 -1146h614z" />
    <glyph glyph-name="M" unicode="M" horiz-adv-x="1582" 
d="M882 0h-184l-210 1054l-184 -1054h-198l234 1332h278l210 -1054l574 1054h310l-236 -1332h-198l186 1054z" />
    <glyph glyph-name="N" unicode="N" horiz-adv-x="1296" 
d="M1228 1332h198l-236 -1332h-200l-500 1054l-186 -1054h-198l234 1332h242l468 -1008z" />
    <glyph glyph-name="O" unicode="O" horiz-adv-x="1388" 
d="M192 544q0 170 51 320t140.5 257t216.5 169t272 62q247 0 400.5 -161t153.5 -421q0 -229 -83.5 -407.5t-237 -278.5t-351.5 -100q-251 0 -406.5 155t-155.5 405zM1224 772q0 188 -96 292t-270 104q-131 0 -237 -81t-165.5 -223t-59.5 -318q0 -180 98 -279t276 -99
q202 0 328 167.5t126 436.5z" />
    <glyph glyph-name="P" unicode="P" horiz-adv-x="1184" 
d="M778 474h-390l-84 -474h-198l236 1332h530q185 0 292.5 -103t107.5 -275q0 -90 -33.5 -175.5t-94.5 -153.5t-156.5 -109.5t-209.5 -41.5zM840 1156h-332l-90 -502h332q84 0 148 28t100 74.5t54 98.5t18 107q0 95 -59 144.5t-171 49.5z" />
    <glyph glyph-name="Q" unicode="Q" horiz-adv-x="1388" 
d="M192 544q0 223 88.5 408.5t244.5 292.5t347 107q252 0 403 -159t151 -423q0 -168 -50 -313.5t-142 -252.5l136 -116l-108 -122l-152 126q-154 -108 -356 -108q-256 0 -409 152.5t-153 407.5zM1224 772q0 187 -96.5 291.5t-269.5 104.5q-131 0 -237 -81t-165.5 -223
t-59.5 -318q0 -179 98 -278.5t276 -99.5q108 0 192 48l-246 208l108 122l264 -222q136 168 136 448z" />
    <glyph glyph-name="R" unicode="R" horiz-adv-x="1190" 
d="M684 524h-288l-92 -524h-198l236 1332h554q178 0 281 -95t103 -257q0 -137 -88.5 -241.5t-237.5 -138.5q95 -27 137.5 -95t42.5 -191v-314h-198v292q0 129 -56 180.5t-196 51.5zM858 1158h-350l-80 -460h352q136 0 214 80t78 200q0 87 -56 133.5t-158 46.5z" />
    <glyph glyph-name="S" unicode="S" horiz-adv-x="1208" 
d="M774 556l-174 36q-338 75 -338 336q0 195 132 308.5t358 113.5q243 0 374.5 -115.5t131.5 -328.5h-200q0 276 -308 276q-125 0 -203.5 -62.5t-78.5 -161.5q0 -130 196 -172l168 -34q360 -74 360 -346q0 -197 -131.5 -310.5t-356.5 -113.5q-252 0 -397 120t-145 328h204
q0 -135 88.5 -206.5t253.5 -71.5q122 0 200 61.5t78 158.5q0 136 -212 184z" />
    <glyph glyph-name="T" unicode="T" horiz-adv-x="1104" 
d="M1276 1332l-34 -188h-390l-200 -1144h-198l202 1144h-390l34 188h976z" />
    <glyph glyph-name="U" unicode="U" horiz-adv-x="1226" 
d="M328 1332h200l-138 -792q-32 -170 47.5 -269t248.5 -99q133 0 221.5 82.5t114.5 231.5l146 846h200l-152 -864q-39 -220 -185.5 -352t-352.5 -132q-168 0 -289.5 72t-174 203.5t-22.5 298.5z" />
    <glyph glyph-name="V" unicode="V" horiz-adv-x="1302" 
d="M294 1332h198l190 -1094l570 1094h228l-716 -1332h-226z" />
    <glyph glyph-name="W" unicode="W" horiz-adv-x="2016" 
d="M294 1332h200l86 -1090l530 1090h240l140 -1090l480 1090h224l-622 -1332h-234l-140 1092l-526 -1092h-242z" />
    <glyph glyph-name="X" unicode="X" horiz-adv-x="1222" 
d="M294 1332h216l230 -558l410 558h250l-514 -668l278 -664h-216l-228 554l-414 -554h-248l512 666z" />
    <glyph glyph-name="Y" unicode="Y" horiz-adv-x="1222" 
d="M590 454l-296 878h212l210 -658l446 658h238l-612 -878l-82 -454h-196z" />
    <glyph glyph-name="Z" unicode="Z" horiz-adv-x="1164" 
d="M328 1332h970l-28 -208l-914 -950h746l-30 -174h-970l26 208l914 950h-746z" />
    <glyph glyph-name="bracketleft" unicode="[" horiz-adv-x="558" 
d="M500 1226l-232 -1306h240l-32 -186h-438l296 1680h438l-34 -188h-238z" />
    <glyph glyph-name="backslash" unicode="\" horiz-adv-x="878" 
d="M510 1332l300 -1332h-208l-298 1332h206z" />
    <glyph glyph-name="bracketright" unicode="]" horiz-adv-x="558" 
d="M262 -80l230 1306h-238l32 188h438l-296 -1680h-438l34 186h238z" />
    <glyph glyph-name="asciicircum" unicode="^" horiz-adv-x="820" 
d="M568 1448h196l166 -424h-150l-120 322l-236 -322h-172z" />
    <glyph glyph-name="underscore" unicode="_" horiz-adv-x="1204" 
d="M66 0h1074l-28 -156h-1076z" />
    <glyph glyph-name="grave" unicode="`" horiz-adv-x="626" 
d="M326 1448h228l196 -356h-162z" />
    <glyph glyph-name="a" unicode="a" horiz-adv-x="1076" 
d="M1090 648l-112 -648h-204l24 136q-63 -75 -149 -115.5t-185 -40.5q-146 0 -237 79.5t-91 206.5q0 144 94.5 231t261.5 93l280 8q58 3 85 16.5t37 47.5l2 18q18 92 -47 152t-177 60q-193 0 -246 -164h-208q37 147 161 233.5t297 86.5q207 0 325.5 -114t88.5 -286zM342 286
q0 -68 52 -109t138 -41q110 0 195 65.5t115 172.5l14 80l-318 -10q-96 -1 -146 -44t-50 -114z" />
    <glyph glyph-name="b" unicode="b" horiz-adv-x="1168" 
d="M358 1434h202l-100 -564q131 176 328 176q180 0 290 -121.5t110 -322.5q0 -174 -66 -317.5t-181.5 -225t-256.5 -81.5q-266 0 -338 238l-38 -216h-202zM986 596q0 132 -69.5 205t-194.5 73q-137 0 -231.5 -124.5t-94.5 -315.5q0 -133 68.5 -206.5t193.5 -73.5
q135 0 231.5 126t96.5 316z" />
    <glyph glyph-name="c" unicode="c" horiz-adv-x="1136" 
d="M166 432q0 177 70.5 318.5t194 220.5t275.5 79q205 0 322.5 -114t117.5 -308h-204q0 116 -65 181t-183 65q-139 0 -232.5 -126t-93.5 -314q0 -136 69.5 -209t200.5 -73q101 0 173.5 59.5t96.5 160.5h204q-40 -184 -169.5 -290t-314.5 -106q-211 0 -336.5 124.5
t-125.5 331.5z" />
    <glyph glyph-name="d" unicode="d" horiz-adv-x="1168" 
d="M1320 1434l-252 -1434h-200l28 164q-137 -182 -340 -182q-179 0 -285.5 120t-106.5 324q0 175 66.5 319.5t182.5 227.5t257 83q131 0 217 -64.5t123 -181.5l110 624h200zM368 438q0 -136 68.5 -210t193.5 -74q136 0 233 124.5t97 313.5q0 133 -68.5 207.5t-191.5 74.5
q-139 0 -235.5 -123.5t-96.5 -312.5z" />
    <glyph glyph-name="e" unicode="e" horiz-adv-x="1150" 
d="M166 438q0 169 65 306.5t187 218.5t278 81q158 0 271.5 -70t160.5 -189t22 -263l-12 -64h-770q-2 -10 -2 -30q0 -138 70.5 -209t207.5 -71q195 0 266 176h216q-60 -168 -181.5 -255t-296.5 -87q-227 0 -354.5 121t-127.5 335zM704 888q-118 0 -201.5 -75.5t-116.5 -210.5
h568q16 127 -54.5 206.5t-195.5 79.5z" />
    <glyph glyph-name="f" unicode="f" horiz-adv-x="684" 
d="M216 858l28 166h158l24 128q16 95 69.5 160t124 93.5t154.5 28.5h100l-28 -166h-78q-124 0 -146 -130l-20 -114h200l-30 -166h-198l-152 -858h-200l152 858h-158z" />
    <glyph glyph-name="g" unicode="g" horiz-adv-x="1168" 
d="M1248 1024l-192 -1088q-27 -157 -152 -251.5t-310 -94.5q-227 0 -363.5 100.5t-136.5 269.5h202q0 -94 81.5 -151t218.5 -57q110 0 179.5 56t86.5 154l40 230q-64 -82 -151.5 -128t-186.5 -46q-177 0 -284.5 117.5t-107.5 310.5q0 167 64.5 304.5t177.5 216.5t250 79
q125 0 215.5 -60.5t132.5 -169.5l36 208h200zM374 460q0 -127 72 -198.5t198 -71.5q112 0 193 72t111 194l14 80q4 40 4 60q0 128 -71 199t-199 71q-143 0 -232.5 -113t-89.5 -293z" />
    <glyph glyph-name="h" unicode="h" horiz-adv-x="1110" 
d="M916 582q22 132 -33 208t-171 76q-114 0 -194 -66t-106 -180l-106 -620h-200l248 1434h200l-98 -562q67 82 157.5 127t186.5 45q108 0 189.5 -61t116.5 -161.5t14 -215.5l-110 -606h-198z" />
    <glyph glyph-name="i" unicode="i" 
d="M332 1356h226l-34 -196h-228zM286 1024h200l-180 -1024h-202z" />
    <glyph glyph-name="j" unicode="j" 
d="M330 1356h228l-34 -196h-228zM-96 -168h64q54 0 86.5 29t45.5 101l186 1062h200l-190 -1074q-52 -298 -338 -298h-86z" />
    <glyph glyph-name="k" unicode="k" horiz-adv-x="1058" 
d="M894 1024h276l-508 -494l350 -530h-226l-276 410l-162 -146l-46 -264h-198l252 1434h198l-160 -910z" />
    <glyph glyph-name="l" unicode="l" 
d="M356 1434h202l-252 -1434h-202z" />
    <glyph glyph-name="m" unicode="m" horiz-adv-x="1730" 
d="M286 1024h200l-26 -138q66 77 154 118.5t178 41.5q109 0 186.5 -61.5t103.5 -168.5q65 105 166 166.5t206 61.5q154 0 241 -116.5t55 -297.5l-114 -630h-200l110 606q23 132 -25.5 194t-150.5 62q-97 0 -179 -65t-107 -167l-116 -630h-198l110 604q25 132 -25.5 198
t-160.5 66q-95 0 -171 -57.5t-103 -154.5l-114 -656h-200z" />
    <glyph glyph-name="n" unicode="n" horiz-adv-x="1110" 
d="M284 1024h200l-26 -150q66 81 156 125.5t186 44.5q108 0 189.5 -61t116.5 -161.5t14 -215.5l-110 -606h-198l104 582q22 132 -33 208t-171 76q-111 0 -190 -62.5t-106 -171.5l-110 -632h-200z" />
    <glyph glyph-name="o" unicode="o" horiz-adv-x="1154" 
d="M166 434q0 174 70.5 315t194 221t275.5 80q207 0 331.5 -122.5t124.5 -329.5q0 -131 -41.5 -246t-113.5 -197t-172 -129.5t-213 -47.5q-207 0 -331.5 124t-124.5 332zM960 596q0 132 -69 205t-195 73q-136 0 -232 -125t-96 -315q0 -133 70 -206.5t196 -73.5
q133 0 229.5 126t96.5 316z" />
    <glyph glyph-name="p" unicode="p" horiz-adv-x="1168" 
d="M286 1024h202l-26 -150q130 172 326 172q181 0 290.5 -122t109.5 -322q0 -175 -67 -318.5t-182.5 -224.5t-254.5 -81q-268 0 -340 240l-98 -552h-200zM986 596q0 132 -69.5 205t-194.5 73q-137 0 -231.5 -124.5t-94.5 -315.5q0 -133 68.5 -206.5t193.5 -73.5
q135 0 231.5 126t96.5 316z" />
    <glyph glyph-name="q" unicode="q" horiz-adv-x="1168" 
d="M1246 1024l-240 -1358h-200l88 496q-135 -180 -338 -180q-179 0 -285.5 120t-106.5 324q0 175 66.5 319.5t182.5 227.5t257 83q130 0 216.5 -64t123.5 -180l36 212h200zM368 438q0 -136 68.5 -210t193.5 -74q136 0 233 124.5t97 313.5q0 133 -68.5 207.5t-191.5 74.5
q-139 0 -235.5 -123.5t-96.5 -312.5z" />
    <glyph glyph-name="r" unicode="r" horiz-adv-x="708" 
d="M288 1024h200l-26 -152q63 78 145.5 120t162.5 42h56l-38 -204h-52q-110 0 -200 -54.5t-118 -147.5l-110 -628h-200z" />
    <glyph glyph-name="s" unicode="s" horiz-adv-x="1054" 
d="M670 416l-168 36q-142 30 -211 97.5t-69 176.5q0 150 111.5 238t306.5 88q198 0 310.5 -92.5t115.5 -263.5h-192q0 97 -62 146.5t-180 49.5q-98 0 -154 -41t-56 -111q0 -49 35 -77t111 -45l176 -36q141 -28 208.5 -96.5t67.5 -181.5q0 -156 -108.5 -242t-311.5 -86
q-215 0 -336.5 93.5t-121.5 258.5h204q0 -95 67.5 -146.5t188.5 -51.5q105 0 163.5 40t58.5 108q0 52 -37 85t-117 53z" />
    <glyph glyph-name="t" unicode="t" horiz-adv-x="684" 
d="M652 174l-32 -174h-100q-122 0 -187 70.5t-39 211.5l100 576h-178l30 166h178l46 266h200l-46 -266h178l-30 -166h-178l-98 -550q-13 -75 7.5 -104.5t70.5 -29.5h78z" />
    <glyph glyph-name="u" unicode="u" horiz-adv-x="1092" 
d="M374 442q-23 -133 27.5 -208.5t166.5 -75.5q118 0 197 72t99 196l104 598h198l-178 -1024h-198l24 146q-64 -79 -152 -122.5t-184 -43.5q-108 0 -186.5 61t-110.5 161.5t-11 215.5l108 606h200z" />
    <glyph glyph-name="v" unicode="v" horiz-adv-x="1128" 
d="M248 1024h198l146 -814l426 814h228l-566 -1024h-226z" />
    <glyph glyph-name="w" unicode="w" horiz-adv-x="1642" 
d="M244 1024h200l60 -796l368 796h228l90 -796l342 796h224l-492 -1024h-222l-92 792l-362 -792h-228z" />
    <glyph glyph-name="x" unicode="x" horiz-adv-x="1074" 
d="M246 1024h204l186 -406l322 406h234l-408 -508l226 -516h-202l-180 414l-328 -414h-234l408 518z" />
    <glyph glyph-name="y" unicode="y" horiz-adv-x="1140" 
d="M92 -154h142q68 0 106.5 26.5t75.5 93.5l36 68l-208 990h204l158 -792l428 792h224l-596 -1078q-57 -105 -111 -164t-124.5 -88.5t-168.5 -29.5h-194z" />
    <glyph glyph-name="z" unicode="z" horiz-adv-x="986" 
d="M266 1024h804l-32 -194l-698 -670h580l-28 -160h-802l30 194l696 670h-576z" />
    <glyph glyph-name="braceleft" unicode="{" horiz-adv-x="558" 
d="M740 1232h-48q-58 0 -90 -30t-44 -96l-64 -362q-21 -130 -148 -170q110 -40 88 -172l-62 -360q-13 -66 8 -97t78 -31h48l-30 -180h-78q-129 0 -186.5 76.5t-33.5 213.5l62 360q9 53 -7.5 76.5t-62.5 23.5h-50l32 178h48q46 0 71.5 24.5t36.5 77.5l62 360
q24 137 109.5 213.5t214.5 76.5h78z" />
    <glyph glyph-name="bar" unicode="|" 
d="M394 1640h198l-362 -2050h-198z" />
    <glyph glyph-name="braceright" unicode="}" horiz-adv-x="558" 
d="M20 -86h48q58 0 89 30.5t43 97.5l64 360q10 64 49 108t101 64q-111 40 -90 170l64 362q12 66 -8.5 96t-77.5 30h-50l32 182h78q129 0 186.5 -76.5t33.5 -213.5l-64 -360q-9 -53 8.5 -77.5t63.5 -24.5h48l-30 -178h-50q-46 0 -70.5 -23.5t-35.5 -76.5l-64 -360
q-24 -137 -109.5 -213.5t-214.5 -76.5h-76z" />
    <glyph glyph-name="asciitilde" unicode="~" horiz-adv-x="928" 
d="M464 1028q45 0 84.5 -17t57 -33t48.5 -48q2 -3 11.5 -12.5l12.5 -12.5t11 -11.5t12.5 -11.5t12.5 -9t14 -8t14.5 -5.5t17.5 -4.5t18 -1q50 0 87 44.5t49 117.5h130q-25 -148 -101.5 -233t-182.5 -85q-44 0 -80.5 14t-55 29.5t-44.5 42.5q-6 6 -22 24.5t-24 25.5t-22 18
t-28 15.5t-30 4.5q-47 0 -82.5 -45t-49.5 -119h-132q27 153 98.5 236.5t175.5 83.5z" />
    <glyph glyph-name="uni00A0" unicode="&#xa0;" horiz-adv-x="408" 
 />
    <glyph glyph-name="exclamdown" unicode="&#xa1;" 
d="M270 1024h228l-36 -196h-226zM246 692h160l-158 -1000h-198z" />
    <glyph glyph-name="cent" unicode="&#xa2;" horiz-adv-x="1136" 
d="M200 588q0 268 153.5 443t382.5 175l22 126h110l-24 -136q158 -28 247 -139.5t89 -274.5h-194q0 96 -44.5 158.5t-127.5 85.5l-128 -726q99 4 169 65.5t93 160.5h200q-40 -184 -170.5 -290t-315.5 -106h-6l-24 -130h-108l24 142q-163 30 -255.5 148.5t-92.5 297.5z
M398 588q0 -230 180 -276l128 722q-134 -11 -221 -137t-87 -309z" />
    <glyph glyph-name="sterling" unicode="&#xa3;" horiz-adv-x="1148" 
d="M204 726h180l38 222q32 179 153.5 289.5t288.5 110.5q177 0 276.5 -94.5t99.5 -253.5h-198q0 86 -46 132t-134 46q-96 0 -160 -64t-84 -178l-36 -210h424l-20 -152h-432l-18 -110q-16 -92 -67.5 -168.5t-140.5 -115.5h780l-32 -180h-1004l34 192q101 39 159 117t75 171
l16 94h-180z" />
    <glyph glyph-name="currency" unicode="&#xa4;" horiz-adv-x="1056" 
d="M842 856l190 162l104 -128l-188 -158q20 -53 14 -116q-3 -115 -76 -210l136 -160l-150 -128l-136 168q-78 -42 -164 -42q-85 0 -150 42l-196 -168l-104 128l192 160q-21 57 -18 124q3 110 72 204l-132 156l150 128l128 -160q78 42 172 42t156 -44zM446 538
q-3 -73 36.5 -114.5t113.5 -41.5q90 0 150.5 63.5t63.5 160.5q4 73 -35.5 114.5t-112.5 41.5q-90 0 -150.5 -63t-65.5 -161z" />
    <glyph glyph-name="yen" unicode="&#xa5;" horiz-adv-x="1222" 
d="M234 300h328l20 120h-328l26 146h292l-280 766h214l214 -632l442 632h238l-554 -766h286l-28 -146h-322l-22 -120h324l-26 -146h-324l-28 -154h-196l26 154h-328z" />
    <glyph glyph-name="brokenbar" unicode="&#xa6;" 
d="M396 1640h194l-162 -918h-194zM390 508l-162 -918h-194l162 918h194z" />
    <glyph glyph-name="section" unicode="&#xa7;" horiz-adv-x="1054" 
d="M666 370l-172 20q-150 18 -221 70t-71 144q0 83 62 144t172 90q-156 60 -156 202q0 139 121.5 227.5t310.5 88.5q211 0 327.5 -81.5t116.5 -230.5h-206q-3 162 -228 162q-107 0 -174.5 -41.5t-67.5 -106.5q0 -39 35 -61t111 -33l172 -20q151 -20 221.5 -71.5t70.5 -144.5
q0 -83 -57 -145.5t-159 -94.5q136 -63 136 -202q0 -136 -121 -222t-311 -86q-210 0 -326 81t-116 229h206q0 -160 226 -160q108 0 176 40.5t68 105.5q0 75 -146 96zM560 548l136 -16q82 4 133 47.5t51 108.5q0 40 -35 62.5t-115 33.5l-136 18q-81 -5 -132.5 -48.5
t-51.5 -107.5q0 -40 35 -63t115 -35z" />
    <glyph glyph-name="dieresis" unicode="&#xa8;" horiz-adv-x="788" 
d="M514 1240h212v-216h-212v216zM66 1240h212v-216h-212v216z" />
    <glyph glyph-name="copyright" unicode="&#xa9;" horiz-adv-x="1730" 
d="M1764 666q0 -170 -57.5 -314.5t-159.5 -245.5t-247.5 -157.5t-317.5 -56.5q-170 0 -312.5 54.5t-241.5 152t-154.5 237.5t-55.5 308q0 173 57.5 320t159.5 251t246.5 162.5t314.5 58.5q224 0 399.5 -97.5t272 -273t96.5 -399.5zM980 46q276 0 448 172.5t172 449.5
q0 275 -168 443.5t-442 168.5q-273 0 -440.5 -171t-167.5 -451q0 -278 163.5 -445t434.5 -167zM588 664q0 192 109 309t289 117q161 0 267.5 -92t118.5 -244h-178q-4 88 -60 137t-148 49q-106 0 -164 -72t-58 -204q0 -133 58.5 -206.5t163.5 -73.5q92 0 147 44t61 124h178
q-15 -147 -120 -232.5t-266 -85.5q-180 0 -289 118t-109 312z" />
    <glyph glyph-name="ordfeminine" unicode="&#xaa;" horiz-adv-x="922" 
d="M956 764q-26 -138 -16 -230h-174q-3 58 2 112q-119 -132 -276 -132q-126 0 -202 60.5t-76 157.5q0 104 77.5 172.5t204.5 77.5l230 18q51 5 76 16t34 36l2 18q11 57 -33 96.5t-119 39.5q-183 0 -224 -132h-180q32 126 138.5 199t267.5 73q162 0 251.5 -82.5t68.5 -203.5z
M394 750q0 -42 38 -67t104 -25q100 0 174.5 57.5t91.5 146.5l4 24l-280 -22q-64 -4 -98 -33.5t-34 -80.5z" />
    <glyph glyph-name="guillemotleft" unicode="&#xab;" horiz-adv-x="1194" 
d="M1320 1078l-40 -230l-402 -272l306 -274l-40 -220l-436 386l40 224zM762 1078l-42 -230l-402 -272l306 -274l-38 -220l-438 386l40 224z" />
    <glyph glyph-name="logicalnot" unicode="&#xac;" horiz-adv-x="1136" 
d="M958 476h-810l32 180h1008l-76 -432h-198z" />
    <glyph glyph-name="uni00AD" unicode="&#xad;" horiz-adv-x="804" 
d="M180 656h674l-30 -180h-676z" />
    <glyph glyph-name="registered" unicode="&#xae;" horiz-adv-x="1730" 
d="M1764 666q0 -170 -57.5 -314.5t-159.5 -245.5t-247.5 -157.5t-317.5 -56.5q-170 0 -312.5 54.5t-241.5 152t-154.5 237.5t-55.5 308q0 173 57.5 320t159.5 251t246.5 162.5t314.5 58.5q224 0 399.5 -97.5t272 -273t96.5 -399.5zM980 46q276 0 448 172.5t172 449.5
q0 275 -168 443.5t-442 168.5q-273 0 -440.5 -171t-167.5 -451q0 -278 163.5 -445t434.5 -167zM1020 550h-196v-278h-164v790h432q119 0 191.5 -62.5t72.5 -165.5q0 -75 -39.5 -130.5t-110.5 -81.5q63 -18 93 -60t39 -122l22 -168h-162l-18 148q-9 68 -46.5 99t-113.5 31z
M1060 924h-236v-238h236q62 0 95 33t33 95q0 53 -33.5 81.5t-94.5 28.5z" />
    <glyph glyph-name="macron" unicode="&#xaf;" horiz-adv-x="784" 
d="M278 1214h656l-28 -156h-654z" />
    <glyph glyph-name="degree" unicode="&#xb0;" horiz-adv-x="732" 
d="M856 1094q0 -142 -93.5 -239t-230.5 -97q-127 0 -205.5 74t-78.5 192q0 143 93 239.5t231 96.5q126 0 205 -74t79 -192zM404 1034q0 -61 36.5 -95.5t99.5 -34.5q69 0 113.5 51.5t44.5 130.5q0 60 -36.5 95t-99.5 35q-69 0 -113.5 -51.5t-44.5 -130.5z" />
    <glyph glyph-name="plusminus" unicode="&#xb1;" horiz-adv-x="1146" 
d="M790 716h418l-32 -180h-418l-68 -384h-180l68 384h-418l32 180h418l68 384h180zM1094 68l-32 -180h-1018l34 180h1016z" />
    <glyph glyph-name="uni00B2" unicode="&#xb2;" horiz-adv-x="818" 
d="M414 892h482l-26 -146h-666l6 42q9 49 27 90.5t39 72t53 57.5t58.5 44t66.5 34.5t66 26.5t68 23q40 14 61.5 22t52 22.5t46.5 27.5t30 32t18 42q10 60 -23 93t-103 33q-76 0 -129.5 -38.5t-68.5 -103.5h-176q31 126 142.5 205t255.5 79q147 0 223 -74.5t55 -197.5
q-9 -49 -37 -89.5t-73.5 -70.5t-88 -49.5t-101.5 -40.5q-11 -4 -39.5 -14t-39 -14t-34.5 -13t-34.5 -14t-29 -13.5t-28 -15.5t-21.5 -15.5t-19.5 -17.5t-12.5 -19z" />
    <glyph glyph-name="uni00B3" unicode="&#xb3;" horiz-adv-x="826" 
d="M542 1076l22 122h112q91 0 110 90q9 57 -25 88.5t-105 31.5q-67 0 -113.5 -32t-58.5 -86h-176q30 117 133 188.5t241 71.5q144 0 223 -67.5t61 -176.5q-21 -114 -132 -166q111 -56 90 -182q-18 -103 -119.5 -165.5t-250.5 -62.5q-147 0 -232.5 70t-75.5 184h176
q-4 -52 36 -81t116 -29q75 0 121 27t55 77q9 48 -15.5 73t-80.5 25h-112z" />
    <glyph glyph-name="acute" unicode="&#xb4;" horiz-adv-x="578" 
d="M600 1366l-314 -342h-160l244 342h230z" />
    <glyph glyph-name="mu" unicode="&#xb5;" horiz-adv-x="1092" 
d="M986 0h-196l22 126q-60 -71 -137.5 -111.5t-160.5 -40.5q-120 0 -202 60l-66 -368h-198l238 1358h200l-110 -628q-11 -112 41 -175t159 -63q113 0 189.5 70.5t96.5 191.5l106 604h198z" />
    <glyph glyph-name="paragraph" unicode="&#xb6;" horiz-adv-x="1132" 
d="M602 626q-168 0 -266 85t-98 231q0 76 31 146t86.5 124.5t141 87t187.5 32.5h570l-234 -1332h-184l204 1154h-158l-202 -1154h-188z" />
    <glyph glyph-name="periodcentered" unicode="&#xb7;" 
d="M228 780h228l-42 -228h-228z" />
    <glyph glyph-name="cedilla" unicode="&#xb8;" horiz-adv-x="598" 
d="M200 20h128l-40 -132h32q96 0 155 -61t59 -159q0 -105 -77.5 -165.5t-208.5 -60.5h-182v156h166q64 0 98 26t34 74q0 38 -24.5 59t-69.5 21h-68l-52 68z" />
    <glyph glyph-name="uni00B9" unicode="&#xb9;" horiz-adv-x="522" 
d="M544 1536h170l-140 -790h-170l86 484h-222l26 142h90q68 0 103 23.5t47 84.5z" />
    <glyph glyph-name="ordmasculine" unicode="&#xba;" horiz-adv-x="922" 
d="M232 872q0 204 120.5 339t303.5 135q165 0 265.5 -97t100.5 -257q0 -203 -122.5 -339.5t-303.5 -136.5q-165 0 -264.5 97t-99.5 259zM852 988q0 99 -54 153.5t-150 54.5q-109 0 -177.5 -89.5t-68.5 -230.5q0 -99 53.5 -154.5t150.5 -55.5q108 0 177 90.5t69 231.5z" />
    <glyph glyph-name="guillemotright" unicode="&#xbb;" horiz-adv-x="1194" 
d="M80 82l40 232l402 270l-304 272l38 222l436 -386l-40 -224zM640 82l40 232l402 270l-306 272l40 222l438 -386l-40 -224z" />
    <glyph glyph-name="onequarter" unicode="&#xbc;" horiz-adv-x="1842" 
d="M626 1332h170l-138 -792h-172l86 486h-222l26 142h90q68 0 104 24t46 84zM1338 1332h184l-780 -1332h-186zM1660 182l-32 -182h-162l32 182h-414l28 160l458 448h198l-84 -470h138l-24 -138h-138zM1522 320l52 300l-296 -300h244z" />
    <glyph glyph-name="onehalf" unicode="&#xbd;" horiz-adv-x="1842" 
d="M626 1332h170l-138 -792h-172l86 486h-222l26 142h90q68 0 104 24t46 84zM1338 1332h184l-780 -1332h-186zM1302 146h482l-26 -146h-666l6 42q9 49 27 90.5t38.5 72t53 57.5t58.5 44t66 34.5t65.5 26.5t67.5 23q40 14 62 22t52.5 22t47 27.5t30.5 32.5t18 42
q10 60 -23.5 93t-102.5 33q-77 0 -130 -38.5t-68 -103.5h-176q31 126 142.5 205t255.5 79q147 0 223 -74.5t55 -197.5q-9 -49 -36.5 -89t-74 -70t-87.5 -49t-102 -42q-11 -4 -39.5 -14t-39 -14t-34.5 -13t-34.5 -14t-29 -13.5t-28 -15.5t-21.5 -15.5t-19.5 -17.5t-12.5 -19z
" />
    <glyph glyph-name="threequarters" unicode="&#xbe;" horiz-adv-x="1842" 
d="M506 872l22 120h112q43 0 72 24t38 68q9 57 -25 88.5t-105 31.5q-67 0 -113.5 -32t-58.5 -86h-176q30 116 133 188t241 72q144 0 222.5 -67.5t59.5 -176.5q-18 -115 -130 -168q111 -53 90 -180q-18 -104 -120 -167t-250 -63q-147 0 -232.5 71t-75.5 185h176
q-4 -52 36.5 -82t115.5 -30t121 27.5t55 78.5q9 46 -16.5 72t-79.5 26h-112zM1338 1332h184l-780 -1332h-186zM1660 182l-32 -182h-162l32 182h-414l28 160l458 448h198l-84 -470h138l-24 -138h-138zM1522 320l52 300l-296 -300h244z" />
    <glyph glyph-name="questiondown" unicode="&#xbf;" horiz-adv-x="1106" 
d="M620 1024h226l-36 -196h-226zM772 692q-16 -71 -45 -129.5t-70.5 -103.5t-77 -75t-85.5 -68q-9 -7 -14 -10q-45 -34 -70 -57t-53.5 -57.5t-41.5 -74t-13 -87.5q0 -88 59 -136t169 -48q115 0 197.5 69.5t108.5 186.5h206q-47 -191 -189 -308.5t-335 -117.5q-196 0 -310 89
t-114 241q0 73 18 133t55.5 107.5t71 78.5t87.5 71q9 8 44 35t47 37t40.5 34.5t41 41.5t30.5 42t28.5 51t16.5 55h198z" />
    <glyph glyph-name="Agrave" unicode="&#xc0;" horiz-adv-x="1302" 
d="M640 1776h216l184 -342h-154zM1246 0h-202l-54 326h-538l-168 -326h-226l716 1332h226zM856 1108l-318 -614h422z" />
    <glyph glyph-name="Aacute" unicode="&#xc1;" horiz-adv-x="1302" 
d="M1270 1776l-326 -342h-176l260 342h242zM1246 0h-202l-54 326h-538l-168 -326h-226l716 1332h226zM856 1108l-318 -614h422z" />
    <glyph glyph-name="Acircumflex" unicode="&#xc2;" horiz-adv-x="1302" 
d="M856 1790h194l254 -356h-188l-172 248l-252 -248h-216zM1246 0h-202l-54 326h-538l-168 -326h-226l716 1332h226zM856 1108l-318 -614h422z" />
    <glyph glyph-name="Atilde" unicode="&#xc3;" horiz-adv-x="1302" 
d="M770 1754q43 0 79.5 -17t53.5 -32.5t45 -46.5q21 -27 32.5 -39t33 -24.5t44.5 -12.5q49 0 85.5 43t50.5 117h132q-25 -147 -101 -231.5t-181 -84.5q-31 0 -55 6.5t-45 22t-31.5 25.5t-30.5 32q-4 5 -16 20.5t-17 21t-16 16.5t-19 15.5t-19.5 8.5t-24.5 4q-47 0 -83 -44.5
t-49 -119.5h-138q27 154 97 237t173 83zM1246 0h-202l-54 326h-538l-168 -326h-226l716 1332h226zM856 1108l-318 -614h422z" />
    <glyph glyph-name="Adieresis" unicode="&#xc4;" horiz-adv-x="1302" 
d="M1048 1650h212l-38 -216h-214zM600 1650h212l-38 -216h-212zM1246 0h-202l-54 326h-538l-168 -326h-226l716 1332h226zM856 1108l-318 -614h422z" />
    <glyph glyph-name="Aring" unicode="&#xc5;" horiz-adv-x="1302" 
d="M1246 0h-202l-54 326h-538l-168 -326h-226l670 1246q-108 67 -108 208q0 139 89.5 231.5t224.5 92.5q123 0 195.5 -67.5t72.5 -180.5q0 -102 -49.5 -181t-134.5 -117zM766 1462q0 -58 34.5 -90t97.5 -32q71 0 114.5 50t43.5 132q0 58 -34.5 90t-97.5 32
q-69 0 -113.5 -50.5t-44.5 -131.5zM856 1108l-318 -614h422z" />
    <glyph glyph-name="AE" unicode="&#xc6;" horiz-adv-x="1952" 
d="M2096 1332l-34 -188h-716l-66 -372h662l-34 -188h-660l-70 -398h716l-32 -186h-916l58 326h-514l-212 -326h-220l858 1332h1180zM590 494h444l116 652h-138z" />
    <glyph glyph-name="Ccedilla" unicode="&#xc7;" horiz-adv-x="1332" 
d="M192 550q0 167 51.5 315.5t140.5 254.5t213.5 168t264.5 62q240 0 385 -130.5t145 -355.5h-202q0 144 -89 224t-249 80q-127 0 -231.5 -81.5t-164.5 -224.5t-60 -316q0 -182 92 -280t264 -98q132 0 236 78.5t136 201.5h208q-53 -215 -211 -339.5t-387 -124.5h-14l-46 -96
h32q81 0 128.5 -54.5t47.5 -139.5q0 -118 -79.5 -185t-220.5 -67h-210l28 156h166q70 0 111 31.5t41 84.5q0 30 -21.5 47t-60.5 17h-68l-40 68l70 150q-191 39 -298.5 184.5t-107.5 369.5z" />
    <glyph glyph-name="Egrave" unicode="&#xc8;" horiz-adv-x="1104" 
d="M574 1776h218l182 -342h-154zM1256 1332l-34 -188h-716l-66 -372h658l-32 -188h-660l-70 -398h718l-32 -186h-916l234 1332h916z" />
    <glyph glyph-name="Eacute" unicode="&#xc9;" horiz-adv-x="1104" 
d="M1204 1776l-326 -342h-174l258 342h242zM1256 1332l-34 -188h-716l-66 -372h658l-32 -188h-660l-70 -398h718l-32 -186h-916l234 1332h916z" />
    <glyph glyph-name="Ecircumflex" unicode="&#xca;" horiz-adv-x="1104" 
d="M792 1790h194l254 -356h-188l-172 248l-252 -248h-216zM1256 1332l-34 -188h-716l-66 -372h658l-32 -188h-660l-70 -398h718l-32 -186h-916l234 1332h916z" />
    <glyph glyph-name="Edieresis" unicode="&#xcb;" horiz-adv-x="1104" 
d="M984 1650h212l-38 -216h-214zM536 1650h212l-38 -216h-212zM1256 1332l-34 -188h-716l-66 -372h658l-32 -188h-660l-70 -398h718l-32 -186h-916l234 1332h916z" />
    <glyph glyph-name="Igrave" unicode="&#xcc;" 
d="M196 1776h218l182 -342h-154zM340 1332h198l-234 -1332h-200z" />
    <glyph glyph-name="Iacute" unicode="&#xcd;" 
d="M826 1776l-326 -342h-174l258 342h242zM340 1332h198l-234 -1332h-200z" />
    <glyph glyph-name="Icircumflex" unicode="&#xce;" 
d="M414 1790h194l254 -356h-188l-172 248l-252 -248h-216zM340 1332h198l-234 -1332h-200z" />
    <glyph glyph-name="Idieresis" unicode="&#xcf;" 
d="M606 1650h212l-38 -216h-214zM158 1650h212l-38 -216h-212zM340 1332h198l-234 -1332h-200z" />
    <glyph glyph-name="Eth" unicode="&#xd0;" horiz-adv-x="1462" 
d="M192 740h214l106 592h490q237 0 371.5 -147t134.5 -401q0 -155 -45.5 -296.5t-127 -250t-204.5 -173t-269 -64.5h-586l100 566h-216zM676 1150l-72 -410h364l-32 -174h-362l-68 -386h338q92 0 170 39t130.5 102t89.5 144t53.5 164t16.5 163q0 173 -85 265.5t-245 92.5
h-298z" />
    <glyph glyph-name="Ntilde" unicode="&#xd1;" horiz-adv-x="1296" 
d="M786 1754q43 0 79.5 -17t53.5 -32.5t45 -46.5q21 -27 32.5 -39t33 -24.5t44.5 -12.5q49 0 85.5 43t50.5 117h132q-25 -147 -101 -231.5t-181 -84.5q-31 0 -55 6.5t-45 22t-31.5 25.5t-30.5 32q-4 5 -16 20.5t-17 21t-16 16.5t-19 15.5t-19.5 8.5t-24.5 4q-47 0 -83 -44.5
t-49 -119.5h-138q27 154 97 237t173 83zM1228 1332h198l-236 -1332h-200l-500 1054l-186 -1054h-198l234 1332h242l468 -1008z" />
    <glyph glyph-name="Ograve" unicode="&#xd2;" horiz-adv-x="1388" 
d="M686 1776h216l184 -342h-154zM192 544q0 170 51 320t140.5 257t216.5 169t272 62q247 0 400.5 -161t153.5 -421q0 -229 -83.5 -407.5t-237 -278.5t-351.5 -100q-251 0 -406.5 155t-155.5 405zM1224 772q0 188 -96 292t-270 104q-131 0 -237 -81t-165.5 -223t-59.5 -318
q0 -180 98 -279t276 -99q202 0 328 167.5t126 436.5z" />
    <glyph glyph-name="Oacute" unicode="&#xd3;" horiz-adv-x="1388" 
d="M1316 1776l-326 -342h-176l260 342h242zM192 544q0 170 51 320t140.5 257t216.5 169t272 62q247 0 400.5 -161t153.5 -421q0 -229 -83.5 -407.5t-237 -278.5t-351.5 -100q-251 0 -406.5 155t-155.5 405zM1224 772q0 188 -96 292t-270 104q-131 0 -237 -81t-165.5 -223
t-59.5 -318q0 -180 98 -279t276 -99q202 0 328 167.5t126 436.5z" />
    <glyph glyph-name="Ocircumflex" unicode="&#xd4;" horiz-adv-x="1388" 
d="M902 1790h196l254 -356h-188l-172 248l-252 -248h-218zM192 544q0 170 51 320t140.5 257t216.5 169t272 62q247 0 400.5 -161t153.5 -421q0 -229 -83.5 -407.5t-237 -278.5t-351.5 -100q-251 0 -406.5 155t-155.5 405zM1224 772q0 188 -96 292t-270 104q-131 0 -237 -81
t-165.5 -223t-59.5 -318q0 -180 98 -279t276 -99q202 0 328 167.5t126 436.5z" />
    <glyph glyph-name="Otilde" unicode="&#xd5;" horiz-adv-x="1388" 
d="M818 1754q26 0 50.5 -7t38.5 -13t35.5 -24.5t26.5 -23.5t27 -28q23 -29 32.5 -39.5t31.5 -23.5t46 -13q50 0 86 43.5t48 116.5h134q-25 -147 -101 -231.5t-183 -84.5q-40 0 -72.5 14.5t-48 29t-39.5 42.5q-6 7 -20 24.5t-21 25t-19 18t-24.5 14.5t-27.5 4
q-47 0 -83.5 -45t-48.5 -119h-138q27 154 97 237t173 83zM192 544q0 170 51 320t140.5 257t216.5 169t272 62q247 0 400.5 -161t153.5 -421q0 -229 -83.5 -407.5t-237 -278.5t-351.5 -100q-251 0 -406.5 155t-155.5 405zM1224 772q0 188 -96 292t-270 104q-131 0 -237 -81
t-165.5 -223t-59.5 -318q0 -180 98 -279t276 -99q202 0 328 167.5t126 436.5z" />
    <glyph glyph-name="Odieresis" unicode="&#xd6;" horiz-adv-x="1388" 
d="M1094 1650h214l-38 -216h-214zM646 1650h214l-38 -216h-212zM192 544q0 170 51 320t140.5 257t216.5 169t272 62q247 0 400.5 -161t153.5 -421q0 -229 -83.5 -407.5t-237 -278.5t-351.5 -100q-251 0 -406.5 155t-155.5 405zM1224 772q0 188 -96 292t-270 104
q-131 0 -237 -81t-165.5 -223t-59.5 -318q0 -180 98 -279t276 -99q202 0 328 167.5t126 436.5z" />
    <glyph glyph-name="multiply" unicode="&#xd7;" horiz-adv-x="1146" 
d="M700 712l380 332l106 -128l-388 -322l272 -324l-150 -128l-264 330l-380 -330l-106 128l388 324l-274 322l150 128z" />
    <glyph glyph-name="Oslash" unicode="&#xd8;" horiz-adv-x="1388" 
d="M192 544q0 223 88.5 408.5t244.5 292.5t347 107q226 0 374 -132l186 192l102 -100l-194 -204q86 -147 86 -338q0 -224 -85 -403t-239 -281t-348 -102q-232 0 -378 124l-184 -188l-104 100l190 198q-86 135 -86 326zM396 546q0 -101 30 -176l686 710q-94 88 -254 88
q-131 0 -237 -81t-165.5 -223t-59.5 -318zM1224 772q0 105 -30 186l-682 -708q94 -82 258 -82q202 0 328 167.5t126 436.5z" />
    <glyph glyph-name="Ugrave" unicode="&#xd9;" horiz-adv-x="1226" 
d="M608 1776h216l184 -342h-154zM328 1332h200l-138 -792q-32 -170 47.5 -269t248.5 -99q133 0 221.5 82.5t114.5 231.5l146 846h200l-152 -864q-39 -220 -185.5 -352t-352.5 -132q-168 0 -289.5 72t-174 203.5t-22.5 298.5z" />
    <glyph glyph-name="Uacute" unicode="&#xda;" horiz-adv-x="1226" 
d="M1238 1776l-326 -342h-176l260 342h242zM328 1332h200l-138 -792q-32 -170 47.5 -269t248.5 -99q133 0 221.5 82.5t114.5 231.5l146 846h200l-152 -864q-39 -220 -185.5 -352t-352.5 -132q-168 0 -289.5 72t-174 203.5t-22.5 298.5z" />
    <glyph glyph-name="Ucircumflex" unicode="&#xdb;" horiz-adv-x="1226" 
d="M824 1790h196l254 -356h-188l-172 248l-252 -248h-218zM328 1332h200l-138 -792q-32 -170 47.5 -269t248.5 -99q133 0 221.5 82.5t114.5 231.5l146 846h200l-152 -864q-39 -220 -185.5 -352t-352.5 -132q-168 0 -289.5 72t-174 203.5t-22.5 298.5z" />
    <glyph glyph-name="Udieresis" unicode="&#xdc;" horiz-adv-x="1226" 
d="M1016 1650h214l-38 -216h-214zM568 1650h214l-38 -216h-212zM328 1332h200l-138 -792q-32 -170 47.5 -269t248.5 -99q133 0 221.5 82.5t114.5 231.5l146 846h200l-152 -864q-39 -220 -185.5 -352t-352.5 -132q-168 0 -289.5 72t-174 203.5t-22.5 298.5z" />
    <glyph glyph-name="Yacute" unicode="&#xdd;" horiz-adv-x="1222" 
d="M1244 1776l-326 -342h-176l260 342h242zM590 454l-296 878h212l210 -658l446 658h238l-612 -878l-82 -454h-196z" />
    <glyph glyph-name="Thorn" unicode="&#xde;" horiz-adv-x="1184" 
d="M340 1332h198l-38 -216h340q183 0 289.5 -101.5t106.5 -274.5q0 -128 -58.5 -236.5t-173.5 -176t-264 -67.5h-390l-46 -260h-200zM472 942l-90 -502h332q81 0 144.5 27t100.5 72t56 98t19 111q0 93 -60 143.5t-172 50.5h-330z" />
    <glyph glyph-name="germandbls" unicode="&#xdf;" horiz-adv-x="1184" 
d="M842 1274q-145 0 -245 -88t-127 -240l-166 -946h-198l168 960q37 219 195.5 354.5t374.5 135.5q184 0 305 -104.5t121 -263.5q0 -122 -69.5 -220.5t-184.5 -147.5q76 -42 117 -117t41 -173q0 -180 -134.5 -302t-335.5 -122h-224l30 178h164q137 0 221.5 79t84.5 209
q0 82 -52.5 126t-151.5 44h-124l30 170h124q112 0 188 76.5t76 187.5q0 91 -63.5 147.5t-164.5 56.5z" />
    <glyph glyph-name="agrave" unicode="&#xe0;" horiz-adv-x="1076" 
d="M484 1486h216l184 -342h-154zM1090 648l-112 -648h-204l24 136q-63 -75 -149 -115.5t-185 -40.5q-146 0 -237 79.5t-91 206.5q0 144 94.5 231t261.5 93l280 8q58 3 85 16.5t37 47.5l2 18q18 92 -47 152t-177 60q-193 0 -246 -164h-208q37 147 161 233.5t297 86.5
q207 0 325.5 -114t88.5 -286zM342 286q0 -68 52 -109t138 -41q110 0 195 65.5t115 172.5l14 80l-318 -10q-96 -1 -146 -44t-50 -114z" />
    <glyph glyph-name="aacute" unicode="&#xe1;" horiz-adv-x="1076" 
d="M1114 1486l-326 -342h-176l260 342h242zM1090 648l-112 -648h-204l24 136q-63 -75 -149 -115.5t-185 -40.5q-146 0 -237 79.5t-91 206.5q0 144 94.5 231t261.5 93l280 8q58 3 85 16.5t37 47.5l2 18q18 92 -47 152t-177 60q-193 0 -246 -164h-208q37 147 161 233.5
t297 86.5q207 0 325.5 -114t88.5 -286zM342 286q0 -68 52 -109t138 -41q110 0 195 65.5t115 172.5l14 80l-318 -10q-96 -1 -146 -44t-50 -114z" />
    <glyph glyph-name="acircumflex" unicode="&#xe2;" horiz-adv-x="1076" 
d="M700 1500h194l254 -356h-188l-172 248l-252 -248h-216zM1090 648l-112 -648h-204l24 136q-63 -75 -149 -115.5t-185 -40.5q-146 0 -237 79.5t-91 206.5q0 144 94.5 231t261.5 93l280 8q58 3 85 16.5t37 47.5l2 18q18 92 -47 152t-177 60q-193 0 -246 -164h-208
q37 147 161 233.5t297 86.5q207 0 325.5 -114t88.5 -286zM342 286q0 -68 52 -109t138 -41q110 0 195 65.5t115 172.5l14 80l-318 -10q-96 -1 -146 -44t-50 -114z" />
    <glyph glyph-name="atilde" unicode="&#xe3;" horiz-adv-x="1076" 
d="M614 1464q43 0 79.5 -17t53.5 -32.5t45 -46.5q21 -27 32.5 -39t33 -24.5t44.5 -12.5q49 0 85.5 43t50.5 117h132q-25 -147 -101 -231.5t-181 -84.5q-31 0 -55 6.5t-45 22t-31.5 25.5t-30.5 32q-4 5 -16 20.5t-17 21t-16 16.5t-19 15.5t-19.5 8.5t-24.5 4q-47 0 -83 -44.5
t-49 -119.5h-138q27 154 97 237t173 83zM1090 648l-112 -648h-204l24 136q-63 -75 -149 -115.5t-185 -40.5q-146 0 -237 79.5t-91 206.5q0 144 94.5 231t261.5 93l280 8q58 3 85 16.5t37 47.5l2 18q18 92 -47 152t-177 60q-193 0 -246 -164h-208q37 147 161 233.5t297 86.5
q207 0 325.5 -114t88.5 -286zM342 286q0 -68 52 -109t138 -41q110 0 195 65.5t115 172.5l14 80l-318 -10q-96 -1 -146 -44t-50 -114z" />
    <glyph glyph-name="adieresis" unicode="&#xe4;" horiz-adv-x="1076" 
d="M892 1360h212l-38 -216h-214zM444 1360h212l-38 -216h-212zM1090 648l-112 -648h-204l24 136q-63 -75 -149 -115.5t-185 -40.5q-146 0 -237 79.5t-91 206.5q0 144 94.5 231t261.5 93l280 8q58 3 85 16.5t37 47.5l2 18q18 92 -47 152t-177 60q-193 0 -246 -164h-208
q37 147 161 233.5t297 86.5q207 0 325.5 -114t88.5 -286zM342 286q0 -68 52 -109t138 -41q110 0 195 65.5t115 172.5l14 80l-318 -10q-96 -1 -146 -44t-50 -114z" />
    <glyph glyph-name="aring" unicode="&#xe5;" horiz-adv-x="1076" 
d="M1048 1454q0 -139 -90.5 -231.5t-225.5 -92.5q-123 0 -195.5 67.5t-72.5 180.5q0 140 90 233t226 93q122 0 195 -68t73 -182zM612 1386q0 -58 34.5 -90t97.5 -32q69 0 112.5 50.5t43.5 131.5q0 59 -33.5 91.5t-96.5 32.5q-71 0 -114.5 -51t-43.5 -133zM1090 648
l-112 -648h-204l24 136q-63 -75 -149 -115.5t-185 -40.5q-146 0 -237 79.5t-91 206.5q0 144 94.5 231t261.5 93l280 8q58 3 85 16.5t37 47.5l2 18q18 92 -47 152t-177 60q-193 0 -246 -164h-208q37 147 161 233.5t297 86.5q207 0 325.5 -114t88.5 -286zM342 286
q0 -68 52 -109t138 -41q110 0 195 65.5t115 172.5l14 80l-318 -10q-96 -1 -146 -44t-50 -114z" />
    <glyph glyph-name="ae" unicode="&#xe6;" horiz-adv-x="1840" 
d="M1358 -18q-161 0 -271 70t-155 200q-61 -127 -179.5 -199.5t-262.5 -72.5q-156 0 -255 79.5t-99 206.5q0 144 95.5 231t260.5 93l280 8q60 3 86.5 17t35.5 47l2 18q16 91 -50 151.5t-180 60.5q-190 0 -240 -166h-208q37 148 158.5 235t291.5 87q130 0 227.5 -49.5
t144.5 -136.5q69 86 166.5 134t213.5 48q152 0 260 -70t153 -188.5t21 -263.5l-12 -64h-770q-2 -10 -2 -30q0 -138 70.5 -209t207.5 -71q193 0 264 176h216q-59 -168 -178.5 -255t-291.5 -87zM1408 888q-118 0 -201.5 -75.5t-116.5 -210.5h566q18 127 -52.5 206.5
t-195.5 79.5zM342 290q0 -67 52.5 -107.5t139.5 -40.5q116 0 205 74.5t111 193.5l8 48l-318 -8q-97 -3 -147.5 -45.5t-50.5 -114.5z" />
    <glyph glyph-name="ccedilla" unicode="&#xe7;" horiz-adv-x="1136" 
d="M166 432q0 177 70.5 318.5t194 220.5t275.5 79q205 0 322.5 -114t117.5 -308h-204q0 116 -65 181t-183 65q-139 0 -232.5 -126t-93.5 -314q0 -136 69.5 -209t200.5 -73q101 0 173.5 59.5t96.5 160.5h204q-40 -184 -168.5 -289t-313.5 -107l-42 -86h32q82 0 129 -54.5
t47 -139.5q0 -119 -79.5 -186.5t-220.5 -67.5h-210l28 158h166q71 0 112.5 31t41.5 85q0 62 -84 62h-68l-38 70l64 140q-160 33 -251 150.5t-91 293.5z" />
    <glyph glyph-name="egrave" unicode="&#xe8;" horiz-adv-x="1150" 
d="M508 1486h216l184 -342h-154zM166 438q0 169 65 306.5t187 218.5t278 81q158 0 271.5 -70t160.5 -189t22 -263l-12 -64h-770q-2 -10 -2 -30q0 -138 70.5 -209t207.5 -71q195 0 266 176h216q-60 -168 -181.5 -255t-296.5 -87q-227 0 -354.5 121t-127.5 335zM704 888
q-118 0 -201.5 -75.5t-116.5 -210.5h568q16 127 -54.5 206.5t-195.5 79.5z" />
    <glyph glyph-name="eacute" unicode="&#xe9;" horiz-adv-x="1150" 
d="M1138 1486l-326 -342h-176l260 342h242zM166 438q0 169 65 306.5t187 218.5t278 81q158 0 271.5 -70t160.5 -189t22 -263l-12 -64h-770q-2 -10 -2 -30q0 -138 70.5 -209t207.5 -71q195 0 266 176h216q-60 -168 -181.5 -255t-296.5 -87q-227 0 -354.5 121t-127.5 335z
M704 888q-118 0 -201.5 -75.5t-116.5 -210.5h568q16 127 -54.5 206.5t-195.5 79.5z" />
    <glyph glyph-name="ecircumflex" unicode="&#xea;" horiz-adv-x="1150" 
d="M724 1500h196l254 -356h-188l-172 248l-252 -248h-218zM166 438q0 169 65 306.5t187 218.5t278 81q158 0 271.5 -70t160.5 -189t22 -263l-12 -64h-770q-2 -10 -2 -30q0 -138 70.5 -209t207.5 -71q195 0 266 176h216q-60 -168 -181.5 -255t-296.5 -87q-227 0 -354.5 121
t-127.5 335zM704 888q-118 0 -201.5 -75.5t-116.5 -210.5h568q16 127 -54.5 206.5t-195.5 79.5z" />
    <glyph glyph-name="edieresis" unicode="&#xeb;" horiz-adv-x="1150" 
d="M916 1360h214l-38 -216h-214zM468 1360h214l-38 -216h-212zM166 438q0 169 65 306.5t187 218.5t278 81q158 0 271.5 -70t160.5 -189t22 -263l-12 -64h-770q-2 -10 -2 -30q0 -138 70.5 -209t207.5 -71q195 0 266 176h216q-60 -168 -181.5 -255t-296.5 -87
q-227 0 -354.5 121t-127.5 335zM704 888q-118 0 -201.5 -75.5t-116.5 -210.5h568q16 127 -54.5 206.5t-195.5 79.5z" />
    <glyph glyph-name="igrave" unicode="&#xec;" 
d="M146 1488h216l184 -342h-156zM286 1024h198l-180 -1024h-200z" />
    <glyph glyph-name="iacute" unicode="&#xed;" 
d="M774 1488l-326 -342h-174l258 342h242zM286 1024h198l-180 -1024h-200z" />
    <glyph glyph-name="icircumflex" unicode="&#xee;" 
d="M362 1502h194l254 -356h-186l-172 248l-254 -248h-216zM286 1024h198l-180 -1024h-200z" />
    <glyph glyph-name="idieresis" unicode="&#xef;" 
d="M554 1362h214l-40 -216h-212zM106 1362h214l-40 -216h-212zM286 1024h198l-180 -1024h-200z" />
    <glyph glyph-name="eth" unicode="&#xf0;" horiz-adv-x="1208" 
d="M462 1246l262 40q-60 81 -130 148h234q62 -66 100 -116l220 32v-146l-136 -20q112 -209 112 -470q0 -218 -68 -383.5t-192.5 -256t-287.5 -90.5q-217 0 -353.5 146.5t-136.5 379.5q0 225 123 371.5t313 146.5q133 0 239.5 -76.5t154.5 -207.5q4 26 4 54q0 160 -108 356
l-350 -54v146zM874 512q0 151 -83 246.5t-215 95.5q-130 0 -209 -95t-79 -253q0 -159 77 -254.5t205 -95.5q132 0 218 100.5t86 255.5z" />
    <glyph glyph-name="ntilde" unicode="&#xf1;" horiz-adv-x="1110" 
d="M642 1466q26 0 50.5 -7t38.5 -13t35.5 -24.5t26.5 -23.5t27 -28q23 -29 32.5 -39.5t31.5 -23.5t46 -13q50 0 86 43.5t48 116.5h134q-25 -147 -101 -231.5t-183 -84.5q-40 0 -72.5 14.5t-48 29t-39.5 42.5q-6 7 -20 24.5t-21 25t-19 18t-24.5 14.5t-27.5 4
q-47 0 -83.5 -45t-48.5 -119h-138q27 154 97 237t173 83zM284 1024h200l-26 -150q66 81 156 125.5t186 44.5q108 0 189.5 -61t116.5 -161.5t14 -215.5l-110 -606h-198l104 582q22 132 -33 208t-171 76q-111 0 -190 -62.5t-106 -171.5l-110 -632h-200z" />
    <glyph glyph-name="ograve" unicode="&#xf2;" horiz-adv-x="1154" 
d="M498 1488h218l182 -342h-154zM166 434q0 174 70.5 315t194 221t275.5 80q207 0 331.5 -122.5t124.5 -329.5q0 -131 -41.5 -246t-113.5 -197t-172 -129.5t-213 -47.5q-207 0 -331.5 124t-124.5 332zM960 596q0 132 -69 205t-195 73q-136 0 -232 -125t-96 -315
q0 -133 70 -206.5t196 -73.5q133 0 229.5 126t96.5 316z" />
    <glyph glyph-name="oacute" unicode="&#xf3;" horiz-adv-x="1154" 
d="M1128 1488l-326 -342h-174l258 342h242zM166 434q0 174 70.5 315t194 221t275.5 80q207 0 331.5 -122.5t124.5 -329.5q0 -131 -41.5 -246t-113.5 -197t-172 -129.5t-213 -47.5q-207 0 -331.5 124t-124.5 332zM960 596q0 132 -69 205t-195 73q-136 0 -232 -125t-96 -315
q0 -133 70 -206.5t196 -73.5q133 0 229.5 126t96.5 316z" />
    <glyph glyph-name="ocircumflex" unicode="&#xf4;" horiz-adv-x="1154" 
d="M716 1500h194l254 -354h-188l-172 246l-252 -246h-216zM166 434q0 174 70.5 315t194 221t275.5 80q207 0 331.5 -122.5t124.5 -329.5q0 -131 -41.5 -246t-113.5 -197t-172 -129.5t-213 -47.5q-207 0 -331.5 124t-124.5 332zM960 596q0 132 -69 205t-195 73
q-136 0 -232 -125t-96 -315q0 -133 70 -206.5t196 -73.5q133 0 229.5 126t96.5 316z" />
    <glyph glyph-name="otilde" unicode="&#xf5;" horiz-adv-x="1154" 
d="M630 1466q43 0 79.5 -17t54 -33.5t44.5 -47.5q41 -48 60 -61q23 -15 50 -15q49 0 85.5 44t50.5 118h132q-25 -148 -101 -232t-181 -84q-40 0 -73.5 15t-47 27.5t-41.5 41.5q-4 5 -19 24.5t-21 25.5t-19 18t-25.5 16t-27.5 4q-46 0 -82 -45t-50 -119h-138q27 154 97 237
t173 83zM166 434q0 174 70.5 315t194 221t275.5 80q207 0 331.5 -122.5t124.5 -329.5q0 -131 -41.5 -246t-113.5 -197t-172 -129.5t-213 -47.5q-207 0 -331.5 124t-124.5 332zM960 596q0 132 -69 205t-195 73q-136 0 -232 -125t-96 -315q0 -133 70 -206.5t196 -73.5
q133 0 229.5 126t96.5 316z" />
    <glyph glyph-name="odieresis" unicode="&#xf6;" horiz-adv-x="1154" 
d="M908 1362h212l-38 -216h-214zM460 1362h212l-38 -216h-212zM166 434q0 174 70.5 315t194 221t275.5 80q207 0 331.5 -122.5t124.5 -329.5q0 -131 -41.5 -246t-113.5 -197t-172 -129.5t-213 -47.5q-207 0 -331.5 124t-124.5 332zM960 596q0 132 -69 205t-195 73
q-136 0 -232 -125t-96 -315q0 -133 70 -206.5t196 -73.5q133 0 229.5 126t96.5 316z" />
    <glyph glyph-name="divide" unicode="&#xf7;" horiz-adv-x="980" 
d="M578 1070h200l-36 -210h-200zM180 648h850l-30 -166h-850zM434 244h200l-38 -210h-198z" />
    <glyph glyph-name="oslash" unicode="&#xf8;" horiz-adv-x="1154" 
d="M166 434q0 174 70.5 315t194 221t275.5 80q188 0 306 -100l146 150l86 -86l-152 -154q70 -107 70 -262q0 -131 -41.5 -246t-113.5 -197t-172 -129.5t-213 -47.5q-181 0 -302 96l-146 -148l-86 84l150 154q-72 116 -72 270zM362 434q0 -73 20 -124l498 506q-70 58 -184 58
q-139 0 -236.5 -125t-97.5 -315zM968 596q0 61 -20 118l-496 -504q72 -56 182 -56q136 0 235 126t99 316z" />
    <glyph glyph-name="ugrave" unicode="&#xf9;" horiz-adv-x="1092" 
d="M476 1488h218l182 -342h-154zM374 442q-23 -133 27.5 -208.5t166.5 -75.5q118 0 197 72t99 196l104 598h198l-178 -1024h-198l24 146q-64 -79 -152 -122.5t-184 -43.5q-108 0 -186.5 61t-110.5 161.5t-11 215.5l108 606h200z" />
    <glyph glyph-name="uacute" unicode="&#xfa;" horiz-adv-x="1092" 
d="M1106 1488l-326 -342h-174l258 342h242zM374 442q-23 -133 27.5 -208.5t166.5 -75.5q118 0 197 72t99 196l104 598h198l-178 -1024h-198l24 146q-64 -79 -152 -122.5t-184 -43.5q-108 0 -186.5 61t-110.5 161.5t-11 215.5l108 606h200z" />
    <glyph glyph-name="ucircumflex" unicode="&#xfb;" horiz-adv-x="1092" 
d="M692 1502h194l254 -356h-186l-172 248l-254 -248h-216zM374 442q-23 -133 27.5 -208.5t166.5 -75.5q118 0 197 72t99 196l104 598h198l-178 -1024h-198l24 146q-64 -79 -152 -122.5t-184 -43.5q-108 0 -186.5 61t-110.5 161.5t-11 215.5l108 606h200z" />
    <glyph glyph-name="udieresis" unicode="&#xfc;" horiz-adv-x="1092" 
d="M884 1362h214l-40 -216h-212zM436 1362h214l-40 -216h-212zM374 442q-23 -133 27.5 -208.5t166.5 -75.5q118 0 197 72t99 196l104 598h198l-178 -1024h-198l24 146q-64 -79 -152 -122.5t-184 -43.5q-108 0 -186.5 61t-110.5 161.5t-11 215.5l108 606h200z" />
    <glyph glyph-name="yacute" unicode="&#xfd;" horiz-adv-x="1140" 
d="M1154 1488l-326 -342h-174l258 342h242zM92 -154h142q68 0 106.5 26.5t75.5 93.5l36 68l-208 990h204l158 -792l428 792h224l-596 -1078q-57 -105 -111 -164t-124.5 -88.5t-168.5 -29.5h-194z" />
    <glyph glyph-name="thorn" unicode="&#xfe;" horiz-adv-x="1168" 
d="M358 1434h202l-100 -562q132 174 328 174q180 0 290 -121.5t110 -322.5q0 -174 -66 -317.5t-181.5 -225t-256.5 -81.5q-266 0 -338 238l-96 -550h-200zM986 596q0 132 -69.5 205t-194.5 73q-137 0 -231.5 -124.5t-94.5 -315.5q0 -133 68.5 -206.5t193.5 -73.5
q135 0 231.5 126t96.5 316z" />
    <glyph glyph-name="ydieresis" unicode="&#xff;" horiz-adv-x="1140" 
d="M934 1362h214l-40 -216h-212zM486 1362h214l-40 -216h-212zM92 -154h142q68 0 106.5 26.5t75.5 93.5l36 68l-208 990h204l158 -792l428 792h224l-596 -1078q-57 -105 -111 -164t-124.5 -88.5t-168.5 -29.5h-194z" />
    <glyph glyph-name="Amacron" unicode="&#x100;" horiz-adv-x="1302" 
d="M594 1624h656l-28 -156h-654zM1246 0h-202l-54 326h-538l-168 -326h-226l716 1332h226zM856 1108l-318 -614h422z" />
    <glyph glyph-name="amacron" unicode="&#x101;" horiz-adv-x="1076" 
d="M438 1334h656l-28 -156h-654zM1090 648l-112 -648h-204l24 136q-63 -75 -149 -115.5t-185 -40.5q-146 0 -237 79.5t-91 206.5q0 144 94.5 231t261.5 93l280 8q58 3 85 16.5t37 47.5l2 18q18 92 -47 152t-177 60q-193 0 -246 -164h-208q37 147 161 233.5t297 86.5
q207 0 325.5 -114t88.5 -286zM342 286q0 -68 52 -109t138 -41q110 0 195 65.5t115 172.5l14 80l-318 -10q-96 -1 -146 -44t-50 -114z" />
    <glyph glyph-name="Abreve" unicode="&#x102;" horiz-adv-x="1302" 
d="M1316 1750q-33 -148 -138.5 -234t-257.5 -86q-169 0 -260.5 87t-79.5 233h178q-5 -85 36 -129.5t126 -44.5q168 0 218 174h178zM1246 0h-202l-54 326h-538l-168 -326h-226l716 1332h226zM856 1108l-318 -614h422z" />
    <glyph glyph-name="abreve" unicode="&#x103;" horiz-adv-x="1076" 
d="M1160 1460q-33 -148 -138.5 -234t-257.5 -86q-169 0 -260.5 87t-79.5 233h178q-5 -85 36 -129.5t126 -44.5q168 0 218 174h178zM1090 648l-112 -648h-204l24 136q-63 -75 -149 -115.5t-185 -40.5q-146 0 -237 79.5t-91 206.5q0 144 94.5 231t261.5 93l280 8q58 3 85 16.5
t37 47.5l2 18q18 92 -47 152t-177 60q-193 0 -246 -164h-208q37 147 161 233.5t297 86.5q207 0 325.5 -114t88.5 -286zM342 286q0 -68 52 -109t138 -41q110 0 195 65.5t115 172.5l14 80l-318 -10q-96 -1 -146 -44t-50 -114z" />
    <glyph glyph-name="Aogonek" unicode="&#x104;" horiz-adv-x="1302" 
d="M1246 0q-133 -82 -188.5 -150.5t-55.5 -149.5q0 -94 126 -94h134l-30 -164h-140q-119 0 -190.5 57t-71.5 153q0 107 69.5 196t200.5 152h-56l-54 326h-538l-168 -326h-226l716 1332h226zM856 1108l-318 -614h422z" />
    <glyph glyph-name="aogonek" unicode="&#x105;" horiz-adv-x="1076" 
d="M978 0q-133 -83 -188.5 -151t-55.5 -149q0 -94 128 -94h132l-28 -164h-142q-119 0 -190.5 57t-71.5 153q0 107 69.5 196t200.5 152h-58l24 136q-63 -75 -149 -115.5t-185 -40.5q-146 0 -237 79.5t-91 206.5q0 144 94.5 231t261.5 93l280 8q58 3 85 16.5t37 47.5l2 18
q18 92 -47 152t-177 60q-193 0 -246 -164h-208q37 147 161 233.5t297 86.5q207 0 325.5 -114t88.5 -286zM342 286q0 -68 52 -109t138 -41q110 0 195 65.5t115 172.5l14 80l-318 -10q-96 -1 -146 -44t-50 -114z" />
    <glyph glyph-name="Cacute" unicode="&#x106;" horiz-adv-x="1332" 
d="M1290 1776l-326 -342h-174l258 342h242zM192 550q0 167 51.5 315.5t140.5 254.5t213.5 168t264.5 62q240 0 385 -130.5t145 -355.5h-202q0 144 -89 224t-249 80q-127 0 -231.5 -81.5t-164.5 -224.5t-60 -316q0 -182 92 -280t264 -98q132 0 236 78.5t136 201.5h208
q-53 -215 -211 -339.5t-387 -124.5q-251 0 -396.5 152t-145.5 414z" />
    <glyph glyph-name="cacute" unicode="&#x107;" horiz-adv-x="1136" 
d="M1140 1484l-326 -342h-174l258 342h242zM166 432q0 177 70.5 318.5t194 220.5t275.5 79q205 0 322.5 -114t117.5 -308h-204q0 116 -65 181t-183 65q-139 0 -232.5 -126t-93.5 -314q0 -136 69.5 -209t200.5 -73q101 0 173.5 59.5t96.5 160.5h204q-40 -184 -169.5 -290
t-314.5 -106q-211 0 -336.5 124.5t-125.5 331.5z" />
    <glyph glyph-name="Ccircumflex" unicode="&#x108;" horiz-adv-x="1332" 
d="M878 1790h194l254 -356h-188l-172 248l-252 -248h-216zM192 550q0 167 51.5 315.5t140.5 254.5t213.5 168t264.5 62q240 0 385 -130.5t145 -355.5h-202q0 144 -89 224t-249 80q-127 0 -231.5 -81.5t-164.5 -224.5t-60 -316q0 -182 92 -280t264 -98q132 0 236 78.5
t136 201.5h208q-53 -215 -211 -339.5t-387 -124.5q-251 0 -396.5 152t-145.5 414z" />
    <glyph glyph-name="ccircumflex" unicode="&#x109;" horiz-adv-x="1136" 
d="M728 1498h194l254 -356h-188l-172 248l-252 -248h-216zM166 432q0 177 70.5 318.5t194 220.5t275.5 79q205 0 322.5 -114t117.5 -308h-204q0 116 -65 181t-183 65q-139 0 -232.5 -126t-93.5 -314q0 -136 69.5 -209t200.5 -73q101 0 173.5 59.5t96.5 160.5h204
q-40 -184 -169.5 -290t-314.5 -106q-211 0 -336.5 124.5t-125.5 331.5z" />
    <glyph glyph-name="Cdotaccent" unicode="&#x10a;" horiz-adv-x="1332" 
d="M848 1664h226l-40 -230h-228zM192 550q0 167 51.5 315.5t140.5 254.5t213.5 168t264.5 62q240 0 385 -130.5t145 -355.5h-202q0 144 -89 224t-249 80q-127 0 -231.5 -81.5t-164.5 -224.5t-60 -316q0 -182 92 -280t264 -98q132 0 236 78.5t136 201.5h208
q-53 -215 -211 -339.5t-387 -124.5q-251 0 -396.5 152t-145.5 414z" />
    <glyph glyph-name="cdotaccent" unicode="&#x10b;" horiz-adv-x="1136" 
d="M698 1374h226l-40 -232h-228zM166 432q0 177 70.5 318.5t194 220.5t275.5 79q205 0 322.5 -114t117.5 -308h-204q0 116 -65 181t-183 65q-139 0 -232.5 -126t-93.5 -314q0 -136 69.5 -209t200.5 -73q101 0 173.5 59.5t96.5 160.5h204q-40 -184 -169.5 -290t-314.5 -106
q-211 0 -336.5 124.5t-125.5 331.5z" />
    <glyph glyph-name="Ccaron" unicode="&#x10c;" horiz-adv-x="1332" 
d="M1010 1434h-196l-254 356h190l174 -248l252 248h214zM192 550q0 167 51.5 315.5t140.5 254.5t213.5 168t264.5 62q240 0 385 -130.5t145 -355.5h-202q0 144 -89 224t-249 80q-127 0 -231.5 -81.5t-164.5 -224.5t-60 -316q0 -182 92 -280t264 -98q132 0 236 78.5
t136 201.5h208q-53 -215 -211 -339.5t-387 -124.5q-251 0 -396.5 152t-145.5 414z" />
    <glyph glyph-name="ccaron" unicode="&#x10d;" horiz-adv-x="1136" 
d="M860 1142h-196l-254 356h190l174 -248l252 248h214zM166 432q0 177 70.5 318.5t194 220.5t275.5 79q205 0 322.5 -114t117.5 -308h-204q0 116 -65 181t-183 65q-139 0 -232.5 -126t-93.5 -314q0 -136 69.5 -209t200.5 -73q101 0 173.5 59.5t96.5 160.5h204
q-40 -184 -169.5 -290t-314.5 -106q-211 0 -336.5 124.5t-125.5 331.5z" />
    <glyph glyph-name="Dcaron" unicode="&#x10e;" horiz-adv-x="1294" 
d="M938 1434h-196l-256 356h192l172 -248l252 248h214zM830 1332q237 0 372.5 -147.5t135.5 -400.5q0 -123 -28.5 -239.5t-84.5 -215t-133.5 -172t-181 -115.5t-220.5 -42h-584l234 1332h490zM506 1150l-170 -970h338q92 0 170 39t130 102t88.5 144t53 164t16.5 163
q0 173 -84.5 265.5t-243.5 92.5h-298z" />
    <glyph glyph-name="dcaron" unicode="&#x10f;" horiz-adv-x="1230" 
d="M1490 1466h184l-154 -442h-172zM1320 1434l-252 -1434h-200l28 164q-137 -182 -340 -182q-179 0 -285.5 120t-106.5 324q0 175 66.5 319.5t182.5 227.5t257 83q131 0 217 -64.5t123 -181.5l110 624h200zM368 438q0 -136 68.5 -210t193.5 -74q136 0 233 124.5t97 313.5
q0 133 -68.5 207.5t-191.5 74.5q-139 0 -235.5 -123.5t-96.5 -312.5z" />
    <glyph glyph-name="Dcroat" unicode="&#x110;" horiz-adv-x="1462" 
d="M192 740h214l106 592h490q237 0 371.5 -147t134.5 -401q0 -155 -45.5 -296.5t-127 -250t-204.5 -173t-269 -64.5h-586l100 566h-216zM676 1150l-72 -410h364l-32 -174h-362l-68 -386h338q92 0 170 39t130.5 102t89.5 144t53.5 164t16.5 163q0 173 -85 265.5t-245 92.5
h-298z" />
    <glyph glyph-name="dcroat" unicode="&#x111;" horiz-adv-x="1264" 
d="M742 1304h354l24 130h200l-24 -130h168l-26 -142h-166l-204 -1162h-200l28 162q-64 -86 -151 -133t-189 -47q-179 0 -285.5 118.5t-106.5 319.5q0 173 66.5 315.5t182.5 224.5t257 82q129 0 215 -63t123 -177l64 360h-356zM368 432q0 -133 68.5 -205.5t193.5 -72.5
q136 0 232 122t96 308q0 132 -68 204t-192 72q-138 0 -234 -121t-96 -307z" />
    <glyph glyph-name="Emacron" unicode="&#x112;" horiz-adv-x="1104" 
d="M530 1624h656l-28 -156h-654zM1256 1332l-34 -188h-716l-66 -372h658l-32 -188h-660l-70 -398h718l-32 -186h-916l234 1332h916z" />
    <glyph glyph-name="emacron" unicode="&#x113;" horiz-adv-x="1150" 
d="M464 1334h656l-28 -156h-656zM166 438q0 169 65 306.5t187 218.5t278 81q158 0 271.5 -70t160.5 -189t22 -263l-12 -64h-770q-2 -10 -2 -30q0 -138 70.5 -209t207.5 -71q195 0 266 176h216q-60 -168 -181.5 -255t-296.5 -87q-227 0 -354.5 121t-127.5 335zM704 888
q-118 0 -201.5 -75.5t-116.5 -210.5h568q16 127 -54.5 206.5t-195.5 79.5z" />
    <glyph glyph-name="Ebreve" unicode="&#x114;" horiz-adv-x="1104" 
d="M1252 1750q-33 -148 -138.5 -234t-257.5 -86q-169 0 -260.5 87t-79.5 233h178q-5 -85 36 -129.5t126 -44.5q168 0 218 174h178zM1256 1332l-34 -188h-716l-66 -372h658l-32 -188h-660l-70 -398h718l-32 -186h-916l234 1332h916z" />
    <glyph glyph-name="ebreve" unicode="&#x115;" horiz-adv-x="1150" 
d="M1184 1460q-33 -148 -137.5 -234t-256.5 -86q-170 0 -261 87t-79 233h178q-9 -174 160 -174q170 0 220 174h176zM166 438q0 169 65 306.5t187 218.5t278 81q158 0 271.5 -70t160.5 -189t22 -263l-12 -64h-770q-2 -10 -2 -30q0 -138 70.5 -209t207.5 -71q195 0 266 176
h216q-60 -168 -181.5 -255t-296.5 -87q-227 0 -354.5 121t-127.5 335zM704 888q-118 0 -201.5 -75.5t-116.5 -210.5h568q16 127 -54.5 206.5t-195.5 79.5z" />
    <glyph glyph-name="Edotaccent" unicode="&#x116;" horiz-adv-x="1104" 
d="M762 1664h226l-40 -230h-228zM1256 1332l-34 -188h-716l-66 -372h658l-32 -188h-660l-70 -398h718l-32 -186h-916l234 1332h916z" />
    <glyph glyph-name="edotaccent" unicode="&#x117;" horiz-adv-x="1150" 
d="M694 1374h226l-40 -230h-226zM166 438q0 169 65 306.5t187 218.5t278 81q158 0 271.5 -70t160.5 -189t22 -263l-12 -64h-770q-2 -10 -2 -30q0 -138 70.5 -209t207.5 -71q195 0 266 176h216q-60 -168 -181.5 -255t-296.5 -87q-227 0 -354.5 121t-127.5 335zM704 888
q-118 0 -201.5 -75.5t-116.5 -210.5h568q16 127 -54.5 206.5t-195.5 79.5z" />
    <glyph glyph-name="Eogonek" unicode="&#x118;" horiz-adv-x="1104" 
d="M984 0q-133 -83 -188.5 -151t-55.5 -149q0 -94 128 -94h132l-28 -164h-142q-119 0 -190.5 57t-71.5 153q0 107 69.5 196t200.5 152h-732l234 1332h916l-34 -188h-716l-66 -372h658l-32 -188h-660l-70 -398h718l-32 -186h-38z" />
    <glyph glyph-name="eogonek" unicode="&#x119;" horiz-adv-x="1150" 
d="M166 438q0 169 65 306.5t187 218.5t278 81q158 0 271.5 -70t160.5 -189t22 -263l-12 -64h-770q-2 -10 -2 -30q0 -138 70.5 -209t207.5 -71q195 0 266 176h216q-71 -205 -238 -290q-112 -73 -160 -137t-48 -139q0 -94 128 -94h132l-28 -164h-140q-119 0 -191.5 57
t-72.5 153q0 155 148 272h-8q-227 0 -354.5 121t-127.5 335zM704 888q-118 0 -201.5 -75.5t-116.5 -210.5h568q16 127 -54.5 206.5t-195.5 79.5z" />
    <glyph glyph-name="Ecaron" unicode="&#x11a;" horiz-adv-x="1104" 
d="M924 1434h-196l-254 356h190l174 -248l252 248h214zM1256 1332l-34 -188h-716l-66 -372h658l-32 -188h-660l-70 -398h718l-32 -186h-916l234 1332h916z" />
    <glyph glyph-name="ecaron" unicode="&#x11b;" horiz-adv-x="1150" 
d="M858 1144h-196l-254 356h190l172 -248l252 248h214zM166 438q0 169 65 306.5t187 218.5t278 81q158 0 271.5 -70t160.5 -189t22 -263l-12 -64h-770q-2 -10 -2 -30q0 -138 70.5 -209t207.5 -71q195 0 266 176h216q-60 -168 -181.5 -255t-296.5 -87q-227 0 -354.5 121
t-127.5 335zM704 888q-118 0 -201.5 -75.5t-116.5 -210.5h568q16 127 -54.5 206.5t-195.5 79.5z" />
    <glyph glyph-name="Gcircumflex" unicode="&#x11c;" horiz-adv-x="1352" 
d="M872 1790h196l254 -356h-188l-172 248l-252 -248h-218zM192 544q0 172 49.5 322t136.5 256t209.5 167t262.5 61q250 0 398 -133.5t148 -358.5h-204q0 145 -92 227.5t-254 82.5q-129 0 -232 -79.5t-160.5 -222t-57.5 -322.5q0 -174 88 -275t242 -101q142 0 252 102
t150 278h-376l28 166h598l-132 -714h-158l30 216q-161 -230 -436 -230q-218 0 -354 154.5t-136 403.5z" />
    <glyph glyph-name="gcircumflex" unicode="&#x11d;" horiz-adv-x="1168" 
d="M726 1500h194l254 -356h-188l-172 248l-252 -248h-216zM1248 1024l-192 -1088q-27 -157 -152 -251.5t-310 -94.5q-227 0 -363.5 100.5t-136.5 269.5h202q0 -94 81.5 -151t218.5 -57q110 0 179.5 56t86.5 154l40 230q-64 -82 -151.5 -128t-186.5 -46q-177 0 -284.5 117.5
t-107.5 310.5q0 167 64.5 304.5t177.5 216.5t250 79q125 0 215.5 -60.5t132.5 -169.5l36 208h200zM374 460q0 -127 72 -198.5t198 -71.5q112 0 193 72t111 194l14 80q4 40 4 60q0 128 -71 199t-199 71q-143 0 -232.5 -113t-89.5 -293z" />
    <glyph glyph-name="Gbreve" unicode="&#x11e;" horiz-adv-x="1352" 
d="M1332 1750q-33 -148 -137.5 -234t-256.5 -86q-170 0 -261 87t-79 233h178q-9 -174 160 -174q170 0 220 174h176zM192 544q0 172 49.5 322t136.5 256t209.5 167t262.5 61q250 0 398 -133.5t148 -358.5h-204q0 145 -92 227.5t-254 82.5q-129 0 -232 -79.5t-160.5 -222
t-57.5 -322.5q0 -174 88 -275t242 -101q142 0 252 102t150 278h-376l28 166h598l-132 -714h-158l30 216q-161 -230 -436 -230q-218 0 -354 154.5t-136 403.5z" />
    <glyph glyph-name="gbreve" unicode="&#x11f;" horiz-adv-x="1168" 
d="M1186 1460q-33 -148 -138.5 -234t-257.5 -86q-169 0 -260.5 87t-79.5 233h178q-5 -85 36 -129.5t126 -44.5q168 0 218 174h178zM1248 1024l-192 -1088q-27 -157 -152 -251.5t-310 -94.5q-227 0 -363.5 100.5t-136.5 269.5h202q0 -94 81.5 -151t218.5 -57q110 0 179.5 56
t86.5 154l40 230q-64 -82 -151.5 -128t-186.5 -46q-177 0 -284.5 117.5t-107.5 310.5q0 167 64.5 304.5t177.5 216.5t250 79q125 0 215.5 -60.5t132.5 -169.5l36 208h200zM374 460q0 -127 72 -198.5t198 -71.5q112 0 193 72t111 194l14 80q4 40 4 60q0 128 -71 199t-199 71
q-143 0 -232.5 -113t-89.5 -293z" />
    <glyph glyph-name="Gdotaccent" unicode="&#x120;" horiz-adv-x="1352" 
d="M842 1664h226l-40 -230h-226zM192 544q0 172 49.5 322t136.5 256t209.5 167t262.5 61q250 0 398 -133.5t148 -358.5h-204q0 145 -92 227.5t-254 82.5q-129 0 -232 -79.5t-160.5 -222t-57.5 -322.5q0 -174 88 -275t242 -101q142 0 252 102t150 278h-376l28 166h598
l-132 -714h-158l30 216q-161 -230 -436 -230q-218 0 -354 154.5t-136 403.5z" />
    <glyph glyph-name="gdotaccent" unicode="&#x121;" horiz-adv-x="1168" 
d="M696 1374h226l-40 -230h-228zM1248 1024l-192 -1088q-27 -157 -152 -251.5t-310 -94.5q-227 0 -363.5 100.5t-136.5 269.5h202q0 -94 81.5 -151t218.5 -57q110 0 179.5 56t86.5 154l40 230q-64 -82 -151.5 -128t-186.5 -46q-177 0 -284.5 117.5t-107.5 310.5
q0 167 64.5 304.5t177.5 216.5t250 79q125 0 215.5 -60.5t132.5 -169.5l36 208h200zM374 460q0 -127 72 -198.5t198 -71.5q112 0 193 72t111 194l14 80q4 40 4 60q0 128 -71 199t-199 71q-143 0 -232.5 -113t-89.5 -293z" />
    <glyph glyph-name="uni0122" unicode="&#x122;" horiz-adv-x="1352" 
d="M192 544q0 172 49.5 322t136.5 256t209.5 167t262.5 61q250 0 398 -133.5t148 -358.5h-204q0 145 -92 227.5t-254 82.5q-129 0 -232 -79.5t-160.5 -222t-57.5 -322.5q0 -174 88 -275t242 -101q142 0 252 102t150 278h-376l28 166h598l-132 -714h-158l30 216
q-161 -230 -436 -230q-218 0 -354 154.5t-136 403.5zM552 -72h228l-48 -272q-20 -111 -84.5 -165.5t-151.5 -54.5h-52l18 106h30q63 0 99 27.5t47 98.5l6 30h-130z" />
    <glyph glyph-name="uni0123" unicode="&#x123;" horiz-adv-x="1168" 
d="M1002 1144h-228l50 272q19 111 83 166.5t151 55.5h52l-18 -106h-30q-62 0 -97.5 -28t-48.5 -100l-6 -30h132zM1248 1024l-192 -1088q-27 -157 -152 -251.5t-310 -94.5q-227 0 -363.5 100.5t-136.5 269.5h202q0 -94 81.5 -151t218.5 -57q110 0 179.5 56t86.5 154l40 230
q-64 -82 -151.5 -128t-186.5 -46q-177 0 -284.5 117.5t-107.5 310.5q0 167 64.5 304.5t177.5 216.5t250 79q125 0 215.5 -60.5t132.5 -169.5l36 208h200zM374 460q0 -127 72 -198.5t198 -71.5q112 0 193 72t111 194l14 80q4 40 4 60q0 128 -71 199t-199 71
q-143 0 -232.5 -113t-89.5 -293z" />
    <glyph glyph-name="Hcircumflex" unicode="&#x124;" horiz-adv-x="1282" 
d="M858 1790h194l254 -356h-188l-172 248l-252 -248h-216zM340 1332h198l-98 -550h678l98 550h196l-234 -1332h-198l104 594h-676l-104 -594h-198z" />
    <glyph glyph-name="hcircumflex" unicode="&#x125;" horiz-adv-x="1110" 
d="M422 1900h196l254 -356h-188l-172 248l-252 -248h-218zM916 582q22 132 -33 208t-171 76q-114 0 -194 -66t-106 -180l-106 -620h-200l248 1434h200l-98 -562q67 82 157.5 127t186.5 45q108 0 189.5 -61t116.5 -161.5t14 -215.5l-110 -606h-198z" />
    <glyph glyph-name="Hbar" unicode="&#x126;" horiz-adv-x="1350" 
d="M232 1124h106l36 208h198l-36 -208h676l36 208h198l-36 -208h106l-26 -146h-106l-172 -978h-198l104 594h-676l-104 -594h-198l172 978h-106zM474 768h676l36 210h-676z" />
    <glyph glyph-name="hbar" unicode="&#x127;" horiz-adv-x="1176" 
d="M984 578q22 131 -33.5 206.5t-172.5 75.5q-112 0 -191.5 -63.5t-106.5 -174.5l-108 -622h-198l202 1162h-164l26 142h162l22 130h200l-24 -130h360l-26 -142h-358l-52 -296q68 83 158.5 128.5t187.5 45.5q108 0 189.5 -61.5t116.5 -162.5t14 -216l-108 -600h-200z" />
    <glyph glyph-name="Itilde" unicode="&#x128;" 
d="M328 1754q43 0 79.5 -17t53.5 -32.5t45 -46.5q21 -27 32.5 -39t33 -24.5t44.5 -12.5q49 0 85.5 43t50.5 117h132q-25 -147 -101 -231.5t-181 -84.5q-31 0 -55 6.5t-45 22t-31.5 25.5t-30.5 32q-4 5 -16 20.5t-17 21t-16 16.5t-19 15.5t-19.5 8.5t-24.5 4q-47 0 -83 -44.5
t-49 -119.5h-138q27 154 97 237t173 83zM340 1332h198l-234 -1332h-200z" />
    <glyph glyph-name="itilde" unicode="&#x129;" 
d="M278 1466q33 0 59.5 -7.5t49.5 -25.5t34 -28t33 -35q21 -27 32.5 -39t33 -24.5t44.5 -12.5q50 0 87 43.5t49 116.5h134q-27 -147 -102.5 -231.5t-181.5 -84.5q-40 0 -72.5 14.5t-48 29t-39.5 42.5q-5 6 -20 24.5t-21.5 25t-19 17.5t-25 15t-26.5 4q-48 0 -84 -44.5
t-48 -119.5h-140q29 154 99 237t173 83zM286 1024h198l-180 -1024h-200z" />
    <glyph glyph-name="Imacron" unicode="&#x12a;" 
d="M152 1624h656l-28 -156h-654zM340 1332h198l-234 -1332h-200z" />
    <glyph glyph-name="imacron" unicode="&#x12b;" 
d="M102 1336h654l-26 -156h-656zM286 1024h198l-180 -1024h-200z" />
    <glyph glyph-name="Ibreve" unicode="&#x12c;" 
d="M874 1750q-33 -148 -138.5 -234t-257.5 -86q-169 0 -260.5 87t-79.5 233h178q-5 -85 36 -129.5t126 -44.5q168 0 218 174h178zM340 1332h198l-234 -1332h-200z" />
    <glyph glyph-name="ibreve" unicode="&#x12d;" 
d="M822 1462q-33 -148 -138 -234t-256 -86q-170 0 -262 87t-80 233h178q-6 -174 162 -174q167 0 220 174h176zM286 1024h198l-180 -1024h-200z" />
    <glyph glyph-name="Iogonek" unicode="&#x12e;" 
d="M304 0q-133 -82 -188.5 -150.5t-55.5 -149.5q0 -94 126 -94h134l-30 -164h-140q-119 0 -190.5 57t-71.5 153q0 107 69.5 196t200.5 152h-54l236 1332h198z" />
    <glyph glyph-name="iogonek" unicode="&#x12f;" 
d="M332 1356h226l-34 -196h-228zM306 0q-133 -82 -188.5 -150.5t-55.5 -149.5q0 -94 126 -94h134l-30 -164h-140q-119 0 -190.5 57t-71.5 153q0 107 69.5 196t200.5 152h-56l182 1024h200z" />
    <glyph glyph-name="Idotaccent" unicode="&#x130;" 
d="M384 1664h226l-40 -230h-228zM340 1332h198l-234 -1332h-200z" />
    <glyph glyph-name="dotlessi" unicode="&#x131;" 
d="M286 1024h198l-180 -1024h-200z" />
    <glyph glyph-name="IJ" unicode="&#x132;" horiz-adv-x="1100" 
d="M486 180h130q103 0 168 59t92 207l156 886h198l-160 -912q-38 -216 -148 -318t-258 -102h-202zM340 1332h198l-234 -1332h-200z" />
    <glyph glyph-name="ij" unicode="&#x133;" horiz-adv-x="812" 
d="M738 1356h228l-34 -196h-228zM332 1356h226l-34 -196h-228zM310 -168h64q54 0 87.5 29t44.5 101l188 1062h200l-190 -1074q-52 -298 -338 -298h-88zM286 1024h200l-180 -1024h-202z" />
    <glyph glyph-name="Jcircumflex" unicode="&#x134;" horiz-adv-x="692" 
d="M698 1790h194l254 -356h-188l-172 248l-252 -248h-216zM78 180h130q103 0 169 59t91 207l158 886h198l-162 -912q-38 -216 -148 -318t-258 -102h-202z" />
    <glyph glyph-name="jcircumflex" unicode="&#x135;" 
d="M362 1502h194l254 -356h-186l-172 248l-254 -248h-216zM-98 -168h64q54 0 86.5 29t45.5 101l188 1062h198l-190 -1074q-27 -154 -111.5 -226t-206.5 -72h-106z" />
    <glyph glyph-name="uni0136" unicode="&#x136;" horiz-adv-x="1172" 
d="M340 1332h198l-114 -648l670 648h270l-680 -644l464 -688h-222l-384 570l-164 -150l-74 -420h-198zM468 -72h226l-48 -272q-20 -111 -84 -165.5t-152 -54.5h-52l20 106h28q63 0 99 27.5t49 98.5l4 30h-130z" />
    <glyph glyph-name="uni0137" unicode="&#x137;" horiz-adv-x="1058" 
d="M894 1024h276l-508 -494l350 -530h-226l-276 410l-162 -146l-46 -264h-198l252 1434h198l-160 -910zM416 -72h228l-50 -272q-19 -111 -83 -165.5t-153 -54.5h-50l18 106h28q63 0 99 27.5t49 98.5l6 30h-132z" />
    <glyph glyph-name="kgreenlandic" unicode="&#x138;" horiz-adv-x="1068" 
d="M284 1024h198l-88 -500l500 500h276l-508 -494l350 -530h-226l-276 410l-162 -146l-46 -264h-198z" />
    <glyph glyph-name="Lacute" unicode="&#x139;" horiz-adv-x="982" 
d="M828 1776l-326 -342h-174l258 342h242zM918 0h-812l234 1332h200l-202 -1146h614z" />
    <glyph glyph-name="lacute" unicode="&#x13a;" 
d="M842 1886l-326 -342h-176l260 342h242zM356 1434h202l-252 -1434h-202z" />
    <glyph glyph-name="uni013B" unicode="&#x13b;" horiz-adv-x="982" 
d="M918 0h-812l234 1332h200l-202 -1146h614zM396 -72h228l-48 -272q-20 -111 -84.5 -165.5t-151.5 -54.5h-52l18 106h30q63 0 99 27.5t47 98.5l6 30h-130z" />
    <glyph glyph-name="uni013C" unicode="&#x13c;" 
d="M356 1434h202l-252 -1434h-202zM78 -72h228l-48 -272q-20 -111 -84.5 -165.5t-151.5 -54.5h-52l18 106h30q63 0 99 27.5t47 98.5l6 30h-130z" />
    <glyph glyph-name="Lcaron" unicode="&#x13d;" horiz-adv-x="982" 
d="M778 1388h182l-154 -444h-172zM918 0h-812l234 1332h200l-202 -1146h614z" />
    <glyph glyph-name="lcaron" unicode="&#x13e;" horiz-adv-x="468" 
d="M730 1466h182l-154 -442h-170zM356 1434h202l-252 -1434h-202z" />
    <glyph glyph-name="Ldot" unicode="&#x13f;" horiz-adv-x="982" 
d="M918 0h-812l234 1332h200l-202 -1146h614zM702 790h228l-42 -230h-228z" />
    <glyph glyph-name="ldot" unicode="&#x140;" horiz-adv-x="812" 
d="M356 1434h202l-252 -1434h-202zM636 780h226l-40 -228h-228z" />
    <glyph glyph-name="Lslash" unicode="&#x141;" horiz-adv-x="1044" 
d="M128 726l172 34l102 572h198l-94 -532l326 62l-30 -166l-324 -62l-80 -448h614l-32 -186h-812l104 594l-174 -34z" />
    <glyph glyph-name="lslash" unicode="&#x142;" horiz-adv-x="548" 
d="M134 758l186 32l114 644h198l-108 -608l176 30l-30 -166l-176 -30l-116 -660h-198l110 624l-186 -32z" />
    <glyph glyph-name="Nacute" unicode="&#x143;" horiz-adv-x="1296" 
d="M1284 1776l-326 -342h-174l258 342h242zM1228 1332h198l-236 -1332h-200l-500 1054l-186 -1054h-198l234 1332h242l468 -1008z" />
    <glyph glyph-name="nacute" unicode="&#x144;" horiz-adv-x="1110" 
d="M1140 1488l-326 -342h-176l260 342h242zM284 1024h200l-26 -150q66 81 156 125.5t186 44.5q108 0 189.5 -61t116.5 -161.5t14 -215.5l-110 -606h-198l104 582q22 132 -33 208t-171 76q-111 0 -190 -62.5t-106 -171.5l-110 -632h-200z" />
    <glyph glyph-name="uni0145" unicode="&#x145;" horiz-adv-x="1296" 
d="M1228 1332h198l-236 -1332h-200l-500 1054l-186 -1054h-198l234 1332h242l468 -1008zM542 -72h228l-50 -272q-19 -111 -83 -165.5t-153 -54.5h-50l18 106h28q63 0 99 27.5t49 98.5l6 30h-132z" />
    <glyph glyph-name="uni0146" unicode="&#x146;" horiz-adv-x="1110" 
d="M284 1024h200l-26 -150q66 81 156 125.5t186 44.5q108 0 189.5 -61t116.5 -161.5t14 -215.5l-110 -606h-198l104 582q22 132 -33 208t-171 76q-111 0 -190 -62.5t-106 -171.5l-110 -632h-200zM444 -72h226l-48 -272q-20 -111 -84 -165.5t-152 -54.5h-52l20 106h28
q63 0 99 27.5t49 98.5l4 30h-130z" />
    <glyph glyph-name="Ncaron" unicode="&#x147;" horiz-adv-x="1296" 
d="M1004 1434h-196l-254 356h190l174 -248l252 248h214zM1228 1332h198l-236 -1332h-200l-500 1054l-186 -1054h-198l234 1332h242l468 -1008z" />
    <glyph glyph-name="ncaron" unicode="&#x148;" horiz-adv-x="1110" 
d="M860 1146h-196l-254 356h190l172 -248l252 248h214zM284 1024h200l-26 -150q66 81 156 125.5t186 44.5q108 0 189.5 -61t116.5 -161.5t14 -215.5l-110 -606h-198l104 582q22 132 -33 208t-171 76q-111 0 -190 -62.5t-106 -171.5l-110 -632h-200z" />
    <glyph glyph-name="napostrophe" unicode="&#x149;" horiz-adv-x="1440" 
d="M352 1410h226l-48 -272q-18 -112 -82.5 -167t-153.5 -55h-52l18 108h30q64 0 99.5 27t46.5 99l6 30h-130zM614 1024h200l-26 -150q66 81 156 125.5t186 44.5q108 0 189.5 -61t116.5 -161.5t14 -215.5l-110 -606h-198l104 582q22 132 -33 208t-171 76q-111 0 -190 -62.5
t-106 -171.5l-110 -632h-200z" />
    <glyph glyph-name="Eng" unicode="&#x14a;" horiz-adv-x="1296" 
d="M1228 1332h198l-242 -1376q-27 -156 -125 -243t-245 -87h-128l32 180h90q79 0 122 38.5t58 123.5l8 52l-506 1034l-186 -1054h-198l234 1332h240l474 -990z" />
    <glyph glyph-name="eng" unicode="&#x14b;" horiz-adv-x="1110" 
d="M286 1024h198l-26 -154q67 84 157 132t185 48q182 0 268.5 -108t53.5 -294l-124 -692q-25 -156 -115 -243t-225 -87h-156l32 180h98q75 0 116 38.5t56 123.5l112 638q21 128 -26.5 194t-161.5 66q-116 0 -205 -68.5t-109 -171.5l-110 -626h-198z" />
    <glyph glyph-name="Omacron" unicode="&#x14c;" horiz-adv-x="1388" 
d="M636 1624h654l-26 -156h-656zM192 544q0 170 51 320t140.5 257t216.5 169t272 62q247 0 400.5 -161t153.5 -421q0 -229 -83.5 -407.5t-237 -278.5t-351.5 -100q-251 0 -406.5 155t-155.5 405zM1224 772q0 188 -96 292t-270 104q-131 0 -237 -81t-165.5 -223t-59.5 -318
q0 -180 98 -279t276 -99q202 0 328 167.5t126 436.5z" />
    <glyph glyph-name="omacron" unicode="&#x14d;" horiz-adv-x="1154" 
d="M454 1336h656l-28 -158h-654zM166 434q0 174 70.5 315t194 221t275.5 80q207 0 331.5 -122.5t124.5 -329.5q0 -131 -41.5 -246t-113.5 -197t-172 -129.5t-213 -47.5q-207 0 -331.5 124t-124.5 332zM960 596q0 132 -69 205t-195 73q-136 0 -232 -125t-96 -315
q0 -133 70 -206.5t196 -73.5q133 0 229.5 126t96.5 316z" />
    <glyph glyph-name="Obreve" unicode="&#x14e;" horiz-adv-x="1388" 
d="M1356 1750q-33 -148 -138 -234t-256 -86q-170 0 -262 87t-80 233h178q-6 -174 162 -174q167 0 220 174h176zM192 544q0 170 51 320t140.5 257t216.5 169t272 62q247 0 400.5 -161t153.5 -421q0 -229 -83.5 -407.5t-237 -278.5t-351.5 -100q-251 0 -406.5 155t-155.5 405z
M1224 772q0 188 -96 292t-270 104q-131 0 -237 -81t-165.5 -223t-59.5 -318q0 -180 98 -279t276 -99q202 0 328 167.5t126 436.5z" />
    <glyph glyph-name="obreve" unicode="&#x14f;" horiz-adv-x="1154" 
d="M1176 1460q-33 -148 -138.5 -234t-257.5 -86q-168 0 -260 87.5t-80 232.5h178q-5 -84 36.5 -129t125.5 -45q167 0 218 174h178zM166 434q0 174 70.5 315t194 221t275.5 80q207 0 331.5 -122.5t124.5 -329.5q0 -131 -41.5 -246t-113.5 -197t-172 -129.5t-213 -47.5
q-207 0 -331.5 124t-124.5 332zM960 596q0 132 -69 205t-195 73q-136 0 -232 -125t-96 -315q0 -133 70 -206.5t196 -73.5q133 0 229.5 126t96.5 316z" />
    <glyph glyph-name="Ohungarumlaut" unicode="&#x150;" horiz-adv-x="1388" 
d="M1518 1776l-350 -342h-160l280 342h230zM1156 1776l-350 -342h-162l282 342h230zM192 544q0 170 51 320t140.5 257t216.5 169t272 62q247 0 400.5 -161t153.5 -421q0 -229 -83.5 -407.5t-237 -278.5t-351.5 -100q-251 0 -406.5 155t-155.5 405zM1224 772q0 188 -96 292
t-270 104q-131 0 -237 -81t-165.5 -223t-59.5 -318q0 -180 98 -279t276 -99q202 0 328 167.5t126 436.5z" />
    <glyph glyph-name="ohungarumlaut" unicode="&#x151;" horiz-adv-x="1154" 
d="M1336 1488l-348 -342h-162l282 342h228zM976 1488l-352 -342h-160l282 342h230zM166 434q0 174 70.5 315t194 221t275.5 80q207 0 331.5 -122.5t124.5 -329.5q0 -131 -41.5 -246t-113.5 -197t-172 -129.5t-213 -47.5q-207 0 -331.5 124t-124.5 332zM960 596
q0 132 -69 205t-195 73q-136 0 -232 -125t-96 -315q0 -133 70 -206.5t196 -73.5q133 0 229.5 126t96.5 316z" />
    <glyph glyph-name="OE" unicode="&#x152;" horiz-adv-x="2100" 
d="M192 544q0 227 84 412t234 290.5t336 105.5q155 0 271.5 -84t170.5 -232l52 296h916l-34 -188h-718l-66 -372h662l-34 -188h-660l-70 -398h716l-32 -186h-914l30 180q-79 -94 -185.5 -145t-230.5 -51q-236 0 -382 155t-146 405zM1224 772q0 188 -96 292t-270 104
q-131 0 -237 -81t-165.5 -223t-59.5 -318q0 -180 98 -279t276 -99q202 0 328 167.5t126 436.5z" />
    <glyph glyph-name="oe" unicode="&#x153;" horiz-adv-x="1936" 
d="M166 434q0 173 68.5 314.5t189 221.5t268.5 80q139 0 242 -60t154 -170q69 106 175 165t237 59q153 0 263 -70t155.5 -188.5t21.5 -263.5l-12 -64h-770q-2 -10 -2 -30q0 -138 70.5 -209t207.5 -71q193 0 264 176h216q-57 -168 -175 -255t-289 -87q-152 0 -260.5 60
t-161.5 172q-73 -111 -182 -173.5t-238 -62.5q-201 0 -321.5 124t-120.5 332zM1494 888q-118 0 -201.5 -75.5t-116.5 -210.5h566q16 127 -53.5 206.5t-194.5 79.5zM960 596q0 132 -69 205t-195 73q-136 0 -232 -125t-96 -315q0 -133 70 -206.5t196 -73.5q133 0 229.5 126
t96.5 316z" />
    <glyph glyph-name="Racute" unicode="&#x154;" horiz-adv-x="1190" 
d="M1216 1776l-326 -342h-174l258 342h242zM684 524h-288l-92 -524h-198l236 1332h554q178 0 281 -95t103 -257q0 -137 -88.5 -241.5t-237.5 -138.5q95 -27 137.5 -95t42.5 -191v-314h-198v292q0 129 -56 180.5t-196 51.5zM858 1158h-350l-80 -460h352q136 0 214 80t78 200
q0 87 -56 133.5t-158 46.5z" />
    <glyph glyph-name="racute" unicode="&#x155;" horiz-adv-x="708" 
d="M964 1486l-326 -342h-174l258 342h242zM288 1024h200l-26 -152q63 78 145.5 120t162.5 42h56l-38 -204h-52q-110 0 -200 -54.5t-118 -147.5l-110 -628h-200z" />
    <glyph glyph-name="uni0156" unicode="&#x156;" horiz-adv-x="1190" 
d="M684 524h-288l-92 -524h-198l236 1332h554q178 0 281 -95t103 -257q0 -137 -88.5 -241.5t-237.5 -138.5q95 -27 137.5 -95t42.5 -191v-314h-198v292q0 129 -56 180.5t-196 51.5zM858 1158h-350l-80 -460h352q136 0 214 80t78 200q0 87 -56 133.5t-158 46.5zM492 -72h228
l-48 -272q-20 -111 -84.5 -165.5t-151.5 -54.5h-52l18 106h30q63 0 99 27.5t47 98.5l6 30h-130z" />
    <glyph glyph-name="uni0157" unicode="&#x157;" horiz-adv-x="708" 
d="M288 1024h200l-26 -152q63 78 145.5 120t162.5 42h56l-38 -204h-52q-110 0 -200 -54.5t-118 -147.5l-110 -628h-200zM82 -72h228l-50 -272q-19 -111 -83 -165.5t-153 -54.5h-50l18 106h28q63 0 99 27.5t49 98.5l6 30h-132z" />
    <glyph glyph-name="Rcaron" unicode="&#x158;" horiz-adv-x="1190" 
d="M936 1434h-196l-254 356h190l174 -248l252 248h214zM684 524h-288l-92 -524h-198l236 1332h554q178 0 281 -95t103 -257q0 -137 -88.5 -241.5t-237.5 -138.5q95 -27 137.5 -95t42.5 -191v-314h-198v292q0 129 -56 180.5t-196 51.5zM858 1158h-350l-80 -460h352
q136 0 214 80t78 200q0 87 -56 133.5t-158 46.5z" />
    <glyph glyph-name="rcaron" unicode="&#x159;" horiz-adv-x="708" 
d="M684 1144h-196l-256 356h192l172 -248l252 248h214zM288 1024h200l-26 -152q63 78 145.5 120t162.5 42h56l-38 -204h-52q-110 0 -200 -54.5t-118 -147.5l-110 -628h-200z" />
    <glyph glyph-name="Sacute" unicode="&#x15a;" horiz-adv-x="1208" 
d="M1196 1776l-326 -342h-174l258 342h242zM774 556l-174 36q-338 75 -338 336q0 195 132 308.5t358 113.5q243 0 374.5 -115.5t131.5 -328.5h-200q0 276 -308 276q-125 0 -203.5 -62.5t-78.5 -161.5q0 -130 196 -172l168 -34q360 -74 360 -346q0 -197 -131.5 -310.5
t-356.5 -113.5q-252 0 -397 120t-145 328h204q0 -135 88.5 -206.5t253.5 -71.5q122 0 200 61.5t78 158.5q0 136 -212 184z" />
    <glyph glyph-name="sacute" unicode="&#x15b;" horiz-adv-x="1054" 
d="M1076 1488l-326 -342h-174l258 342h242zM670 416l-168 36q-142 30 -211 97.5t-69 176.5q0 150 111.5 238t306.5 88q198 0 310.5 -92.5t115.5 -263.5h-192q0 97 -62 146.5t-180 49.5q-98 0 -154 -41t-56 -111q0 -49 35 -77t111 -45l176 -36q141 -28 208.5 -96.5
t67.5 -181.5q0 -156 -108.5 -242t-311.5 -86q-215 0 -336.5 93.5t-121.5 258.5h204q0 -95 67.5 -146.5t188.5 -51.5q105 0 163.5 40t58.5 108q0 52 -37 85t-117 53z" />
    <glyph glyph-name="Scircumflex" unicode="&#x15c;" horiz-adv-x="1208" 
d="M782 1790h196l254 -356h-188l-172 248l-252 -248h-218zM774 556l-174 36q-338 75 -338 336q0 195 132 308.5t358 113.5q243 0 374.5 -115.5t131.5 -328.5h-200q0 276 -308 276q-125 0 -203.5 -62.5t-78.5 -161.5q0 -130 196 -172l168 -34q360 -74 360 -346
q0 -197 -131.5 -310.5t-356.5 -113.5q-252 0 -397 120t-145 328h204q0 -135 88.5 -206.5t253.5 -71.5q122 0 200 61.5t78 158.5q0 136 -212 184z" />
    <glyph glyph-name="scircumflex" unicode="&#x15d;" horiz-adv-x="1054" 
d="M664 1500h194l254 -354h-186l-172 246l-254 -246h-216zM670 416l-168 36q-142 30 -211 97.5t-69 176.5q0 150 111.5 238t306.5 88q198 0 310.5 -92.5t115.5 -263.5h-192q0 97 -62 146.5t-180 49.5q-98 0 -154 -41t-56 -111q0 -49 35 -77t111 -45l176 -36
q141 -28 208.5 -96.5t67.5 -181.5q0 -156 -108.5 -242t-311.5 -86q-215 0 -336.5 93.5t-121.5 258.5h204q0 -95 67.5 -146.5t188.5 -51.5q105 0 163.5 40t58.5 108q0 52 -37 85t-117 53z" />
    <glyph glyph-name="Scedilla" unicode="&#x15e;" horiz-adv-x="1208" 
d="M774 556l-174 36q-338 75 -338 336q0 195 132 308.5t358 113.5q243 0 374.5 -115.5t131.5 -328.5h-200q0 276 -308 276q-125 0 -203.5 -62.5t-78.5 -161.5q0 -130 196 -172l168 -34q360 -74 360 -346q0 -197 -131.5 -310.5t-356.5 -113.5h-24l-44 -94h30q82 0 130 -54.5
t48 -139.5q0 -118 -80.5 -185t-221.5 -67h-208l28 156h166q70 0 111 31.5t41 84.5q0 30 -21.5 47t-60.5 17h-68l-40 68l68 148q-187 32 -291.5 146t-104.5 290h204q0 -135 88.5 -206.5t253.5 -71.5q122 0 200 61.5t78 158.5q0 136 -212 184z" />
    <glyph glyph-name="scedilla" unicode="&#x15f;" horiz-adv-x="1054" 
d="M670 416l-168 36q-142 30 -211 97.5t-69 176.5q0 150 111.5 238t306.5 88q198 0 310.5 -92.5t115.5 -263.5h-192q0 97 -62 146.5t-180 49.5q-98 0 -154 -41t-56 -111q0 -49 35 -77t111 -45l176 -36q141 -28 208.5 -96.5t67.5 -181.5q0 -155 -107.5 -241.5t-304.5 -86.5
l-40 -88h30q82 0 130 -54.5t48 -139.5q0 -118 -80.5 -185t-221.5 -67h-208l28 156h166q70 0 111 31.5t41 84.5q0 30 -21.5 47t-60.5 17h-68l-40 68l64 138q-162 23 -253 113t-91 231h204q0 -95 67.5 -146.5t188.5 -51.5q105 0 163.5 40t58.5 108q0 52 -37 85t-117 53z" />
    <glyph glyph-name="Scaron" unicode="&#x160;" horiz-adv-x="1208" 
d="M916 1434h-196l-254 356h190l172 -248l252 248h214zM774 556l-174 36q-338 75 -338 336q0 195 132 308.5t358 113.5q243 0 374.5 -115.5t131.5 -328.5h-200q0 276 -308 276q-125 0 -203.5 -62.5t-78.5 -161.5q0 -130 196 -172l168 -34q360 -74 360 -346
q0 -197 -131.5 -310.5t-356.5 -113.5q-252 0 -397 120t-145 328h204q0 -135 88.5 -206.5t253.5 -71.5q122 0 200 61.5t78 158.5q0 136 -212 184z" />
    <glyph glyph-name="scaron" unicode="&#x161;" horiz-adv-x="1054" 
d="M798 1146h-196l-256 354h192l172 -246l252 246h214zM670 416l-168 36q-142 30 -211 97.5t-69 176.5q0 150 111.5 238t306.5 88q198 0 310.5 -92.5t115.5 -263.5h-192q0 97 -62 146.5t-180 49.5q-98 0 -154 -41t-56 -111q0 -49 35 -77t111 -45l176 -36
q141 -28 208.5 -96.5t67.5 -181.5q0 -156 -108.5 -242t-311.5 -86q-215 0 -336.5 93.5t-121.5 258.5h204q0 -95 67.5 -146.5t188.5 -51.5q105 0 163.5 40t58.5 108q0 52 -37 85t-117 53z" />
    <glyph glyph-name="uni0162" unicode="&#x162;" horiz-adv-x="1104" 
d="M1276 1332l-34 -188h-390l-200 -1144h-34l-52 -112h30q82 0 130 -54.5t48 -139.5q0 -118 -80.5 -185t-221.5 -67h-208l28 156h166q70 0 111 31.5t41 84.5q0 30 -21.5 47t-60.5 17h-68l-40 68l72 154h-38l202 1144h-390l34 188h976z" />
    <glyph glyph-name="uni0163" unicode="&#x163;" horiz-adv-x="684" 
d="M652 174l-32 -174h-36l-54 -112h32q82 0 129 -54.5t47 -139.5q0 -118 -79.5 -185t-220.5 -67h-210l28 156h166q70 0 112 31.5t42 84.5q0 30 -22 47t-62 17h-68l-38 68l74 160q-95 16 -141.5 85t-24.5 191l100 576h-178l30 166h178l46 266h200l-46 -266h178l-30 -166h-178
l-98 -550q-13 -75 7.5 -104.5t70.5 -29.5h78z" />
    <glyph glyph-name="Tcaron" unicode="&#x164;" horiz-adv-x="1104" 
d="M888 1434h-196l-256 356h192l172 -248l252 248h214zM1276 1332l-34 -188h-390l-200 -1144h-198l202 1144h-390l34 188h976z" />
    <glyph glyph-name="tcaron" unicode="&#x165;" horiz-adv-x="726" 
d="M872 1552h184l-154 -442h-172zM652 174l-32 -174h-100q-122 0 -187 70.5t-39 211.5l100 576h-178l30 166h178l46 266h200l-46 -266h178l-30 -166h-178l-98 -550q-13 -75 7.5 -104.5t70.5 -29.5h78z" />
    <glyph glyph-name="Tbar" unicode="&#x166;" horiz-adv-x="1104" 
d="M286 710h294l76 434h-388l32 188h976l-34 -188h-388l-76 -434h304l-32 -180h-304l-94 -530h-198l94 530h-294z" />
    <glyph glyph-name="tbar" unicode="&#x167;" horiz-adv-x="684" 
d="M174 624h178l44 240h-180l28 160h180l46 266h198l-46 -266h180l-30 -160h-178l-42 -240h178l-24 -134h-178l-34 -188q-13 -72 8 -100t72 -28h76l-28 -174h-100q-123 0 -188.5 70.5t-41.5 211.5l36 208h-178z" />
    <glyph glyph-name="Utilde" unicode="&#x168;" horiz-adv-x="1226" 
d="M740 1754q26 0 50.5 -7t38.5 -13t35.5 -24.5t26.5 -23.5t27 -28q23 -29 32.5 -39.5t31.5 -23.5t46 -13q50 0 86 43.5t48 116.5h134q-25 -147 -101 -231.5t-183 -84.5q-40 0 -72.5 14.5t-48 29t-39.5 42.5q-6 7 -20 24.5t-21 25t-19 18t-24.5 14.5t-27.5 4
q-47 0 -83.5 -45t-48.5 -119h-138q27 154 97 237t173 83zM328 1332h200l-138 -792q-32 -170 47.5 -269t248.5 -99q133 0 221.5 82.5t114.5 231.5l146 846h200l-152 -864q-39 -220 -185.5 -352t-352.5 -132q-168 0 -289.5 72t-174 203.5t-22.5 298.5z" />
    <glyph glyph-name="utilde" unicode="&#x169;" horiz-adv-x="1092" 
d="M608 1466q33 0 59.5 -7.5t49.5 -25.5t34 -28t33 -35q21 -27 32.5 -39t33 -24.5t44.5 -12.5q50 0 87 43.5t49 116.5h134q-27 -147 -102.5 -231.5t-181.5 -84.5q-40 0 -72.5 14.5t-48 29t-39.5 42.5q-5 6 -20 24.5t-21.5 25t-19 17.5t-25 15t-26.5 4q-48 0 -84 -44.5
t-48 -119.5h-140q29 154 99 237t173 83zM374 442q-23 -133 27.5 -208.5t166.5 -75.5q118 0 197 72t99 196l104 598h198l-178 -1024h-198l24 146q-64 -79 -152 -122.5t-184 -43.5q-108 0 -186.5 61t-110.5 161.5t-11 215.5l108 606h200z" />
    <glyph glyph-name="Umacron" unicode="&#x16a;" horiz-adv-x="1226" 
d="M564 1624h656l-28 -156h-656zM328 1332h200l-138 -792q-32 -170 47.5 -269t248.5 -99q133 0 221.5 82.5t114.5 231.5l146 846h200l-152 -864q-39 -220 -185.5 -352t-352.5 -132q-168 0 -289.5 72t-174 203.5t-22.5 298.5z" />
    <glyph glyph-name="umacron" unicode="&#x16b;" horiz-adv-x="1092" 
d="M432 1336h654l-26 -156h-656zM374 442q-23 -133 27.5 -208.5t166.5 -75.5q118 0 197 72t99 196l104 598h198l-178 -1024h-198l24 146q-64 -79 -152 -122.5t-184 -43.5q-108 0 -186.5 61t-110.5 161.5t-11 215.5l108 606h200z" />
    <glyph glyph-name="Ubreve" unicode="&#x16c;" horiz-adv-x="1226" 
d="M1284 1750q-33 -148 -137.5 -234t-256.5 -86q-170 0 -261 87t-79 233h178q-9 -174 160 -174q170 0 220 174h176zM328 1332h200l-138 -792q-32 -170 47.5 -269t248.5 -99q133 0 221.5 82.5t114.5 231.5l146 846h200l-152 -864q-39 -220 -185.5 -352t-352.5 -132
q-168 0 -289.5 72t-174 203.5t-22.5 298.5z" />
    <glyph glyph-name="ubreve" unicode="&#x16d;" horiz-adv-x="1092" 
d="M1152 1462q-33 -148 -138 -234t-256 -86q-170 0 -262 87t-80 233h178q-6 -174 162 -174q167 0 220 174h176zM374 442q-23 -133 27.5 -208.5t166.5 -75.5q118 0 197 72t99 196l104 598h198l-178 -1024h-198l24 146q-64 -79 -152 -122.5t-184 -43.5q-108 0 -186.5 61
t-110.5 161.5t-11 215.5l108 606h200z" />
    <glyph glyph-name="Uring" unicode="&#x16e;" horiz-adv-x="1226" 
d="M1172 1744q0 -139 -90.5 -231.5t-225.5 -92.5q-122 0 -195 68t-73 180q0 139 90.5 232.5t225.5 93.5q122 0 195 -68t73 -182zM736 1676q0 -58 34.5 -90t97.5 -32q70 0 114 50.5t44 131.5q0 59 -34.5 91.5t-97.5 32.5q-71 0 -114.5 -51t-43.5 -133zM328 1332h200
l-138 -792q-32 -170 47.5 -269t248.5 -99q133 0 221.5 82.5t114.5 231.5l146 846h200l-152 -864q-39 -220 -185.5 -352t-352.5 -132q-168 0 -289.5 72t-174 203.5t-22.5 298.5z" />
    <glyph glyph-name="uring" unicode="&#x16f;" horiz-adv-x="1092" 
d="M1040 1456q0 -139 -90.5 -231.5t-225.5 -92.5q-122 0 -195 68t-73 180q0 139 90.5 232.5t225.5 93.5q122 0 195 -68t73 -182zM604 1388q0 -58 34.5 -90t97.5 -32q70 0 114 50.5t44 131.5q0 59 -34.5 91.5t-97.5 32.5q-71 0 -114.5 -51t-43.5 -133zM374 442
q-23 -133 27.5 -208.5t166.5 -75.5q118 0 197 72t99 196l104 598h198l-178 -1024h-198l24 146q-64 -79 -152 -122.5t-184 -43.5q-108 0 -186.5 61t-110.5 161.5t-11 215.5l108 606h200z" />
    <glyph glyph-name="Uhungarumlaut" unicode="&#x170;" horiz-adv-x="1226" 
d="M1446 1776l-350 -342h-160l282 342h228zM1084 1776l-350 -342h-160l280 342h230zM328 1332h200l-138 -792q-32 -170 47.5 -269t248.5 -99q133 0 221.5 82.5t114.5 231.5l146 846h200l-152 -864q-39 -220 -185.5 -352t-352.5 -132q-168 0 -289.5 72t-174 203.5
t-22.5 298.5z" />
    <glyph glyph-name="uhungarumlaut" unicode="&#x171;" horiz-adv-x="1092" 
d="M1314 1488l-350 -342h-160l280 342h230zM952 1488l-350 -342h-162l282 342h230zM374 442q-23 -133 27.5 -208.5t166.5 -75.5q118 0 197 72t99 196l104 598h198l-178 -1024h-198l24 146q-64 -79 -152 -122.5t-184 -43.5q-108 0 -186.5 61t-110.5 161.5t-11 215.5l108 606
h200z" />
    <glyph glyph-name="Uogonek" unicode="&#x172;" horiz-adv-x="1226" 
d="M328 1332h200l-138 -792q-32 -170 47.5 -269t248.5 -99q133 0 221.5 82.5t114.5 231.5l146 846h200l-152 -864q-39 -217 -182 -348t-346 -136q-118 -76 -168 -141.5t-50 -142.5q0 -94 126 -94h134l-30 -164h-140q-119 0 -190.5 57t-71.5 153q0 104 66.5 191.5
t193.5 150.5q-203 38 -304 190.5t-62 373.5z" />
    <glyph glyph-name="uogonek" unicode="&#x173;" horiz-adv-x="1092" 
d="M374 442q-23 -133 27.5 -208.5t166.5 -75.5q118 0 197 72t99 196l104 598h198l-178 -1024h2q-133 -82 -188.5 -150.5t-55.5 -149.5q0 -94 126 -94h134l-30 -164h-140q-119 0 -190.5 57t-71.5 153q0 107 69.5 196t200.5 152h-54l24 146q-64 -79 -152 -122.5t-184 -43.5
q-108 0 -186.5 61t-110.5 161.5t-11 215.5l108 606h200z" />
    <glyph glyph-name="Wcircumflex" unicode="&#x174;" horiz-adv-x="2016" 
d="M1208 1790h196l254 -356h-188l-172 248l-252 -248h-218zM294 1332h200l86 -1090l530 1090h240l140 -1090l480 1090h224l-622 -1332h-234l-140 1092l-526 -1092h-242z" />
    <glyph glyph-name="wcircumflex" unicode="&#x175;" horiz-adv-x="1642" 
d="M966 1502h196l254 -356h-188l-172 248l-252 -248h-218zM244 1024h200l60 -796l368 796h228l90 -796l342 796h224l-492 -1024h-222l-92 792l-362 -792h-228z" />
    <glyph glyph-name="Ycircumflex" unicode="&#x176;" horiz-adv-x="1222" 
d="M830 1790h196l254 -356h-188l-172 248l-252 -248h-218zM590 454l-296 878h212l210 -658l446 658h238l-612 -878l-82 -454h-196z" />
    <glyph glyph-name="ycircumflex" unicode="&#x177;" horiz-adv-x="1140" 
d="M742 1502h194l254 -356h-186l-172 248l-254 -248h-216zM92 -154h142q68 0 106.5 26.5t75.5 93.5l36 68l-208 990h204l158 -792l428 792h224l-596 -1078q-57 -105 -111 -164t-124.5 -88.5t-168.5 -29.5h-194z" />
    <glyph glyph-name="Ydieresis" unicode="&#x178;" horiz-adv-x="1222" 
d="M1022 1650h214l-38 -216h-214zM574 1650h214l-38 -216h-212zM590 454l-296 878h212l210 -658l446 658h238l-612 -878l-82 -454h-196z" />
    <glyph glyph-name="Zacute" unicode="&#x179;" horiz-adv-x="1164" 
d="M1210 1776l-326 -342h-176l260 342h242zM328 1332h970l-28 -208l-914 -950h746l-30 -174h-970l26 208l914 950h-746z" />
    <glyph glyph-name="zacute" unicode="&#x17a;" horiz-adv-x="986" 
d="M1062 1488l-326 -342h-174l258 342h242zM266 1024h804l-32 -194l-698 -670h580l-28 -160h-802l30 194l696 670h-576z" />
    <glyph glyph-name="Zdotaccent" unicode="&#x17b;" horiz-adv-x="1164" 
d="M766 1664h226l-40 -230h-226zM328 1332h970l-28 -208l-914 -950h746l-30 -174h-970l26 208l914 950h-746z" />
    <glyph glyph-name="zdotaccent" unicode="&#x17c;" horiz-adv-x="986" 
d="M618 1376h226l-40 -230h-226zM266 1024h804l-32 -194l-698 -670h580l-28 -160h-802l30 194l696 670h-576z" />
    <glyph glyph-name="Zcaron" unicode="&#x17d;" horiz-adv-x="1164" 
d="M930 1434h-196l-254 356h190l172 -248l252 248h214zM328 1332h970l-28 -208l-914 -950h746l-30 -174h-970l26 208l914 950h-746z" />
    <glyph glyph-name="zcaron" unicode="&#x17e;" horiz-adv-x="986" 
d="M782 1146h-196l-256 356h192l172 -248l252 248h214zM266 1024h804l-32 -194l-698 -670h580l-28 -160h-802l30 194l696 670h-576z" />
    <glyph glyph-name="longs" unicode="&#x17f;" horiz-adv-x="566" 
d="M728 1268h-78q-119 0 -144 -130l-200 -1138h-200l204 1152q24 141 120 211.5t228 70.5h100z" />
    <glyph glyph-name="Ohorn" unicode="&#x1a0;" horiz-adv-x="1388" 
d="M192 544q0 223 88.5 408.5t244.5 292.5t347 107q90 0 164 -20h234q62 0 101 30t53 110l14 82h164l-16 -94q-10 -58 -34.5 -104t-56 -75t-70.5 -48t-77 -27t-78 -8q156 -159 156 -428q0 -224 -85 -403t-239 -281t-348 -102q-256 0 -409 152.5t-153 407.5zM1224 772
q0 187 -96.5 291.5t-269.5 104.5q-131 0 -237 -81t-165.5 -223t-59.5 -318q0 -179 98 -278.5t276 -99.5q202 0 328 167.5t126 436.5z" />
    <glyph glyph-name="ohorn" unicode="&#x1a1;" horiz-adv-x="1154" 
d="M166 434q0 174 70.5 315t194 221t275.5 80q103 0 184 -30h136q62 0 101 30.5t53 111.5l16 80h162l-16 -92q-21 -122 -96.5 -185t-175.5 -75q92 -113 92 -292q0 -131 -41.5 -246t-113.5 -197t-172 -129.5t-213 -47.5q-207 0 -331.5 124t-124.5 332zM960 596q0 132 -69 205
t-195 73q-136 0 -232 -125t-96 -315q0 -133 70 -206.5t196 -73.5q133 0 229.5 126t96.5 316z" />
    <glyph glyph-name="Uhorn" unicode="&#x1af;" horiz-adv-x="1252" 
d="M328 1332h200l-138 -792q-32 -170 47.5 -269t248.5 -99q133 0 221.5 82.5t114.5 231.5l146 846h186q47 7 78 39t44 101l14 82h164l-16 -94q-24 -130 -105.5 -192.5t-188.5 -69.5l-128 -730q-39 -220 -185.5 -352t-352.5 -132q-168 0 -289.5 72t-174 203.5t-22.5 298.5z
" />
    <glyph glyph-name="uhorn" unicode="&#x1b0;" horiz-adv-x="1122" 
d="M374 442q-23 -133 27.5 -208.5t166.5 -75.5q118 0 197 72t99 196l104 598h152q63 0 102.5 30.5t53.5 111.5l14 82h164l-18 -94q-12 -68 -41.5 -119t-71.5 -80t-86.5 -44.5t-94.5 -18.5l-154 -892h-198l24 146q-64 -79 -152 -122.5t-184 -43.5q-108 0 -186.5 61
t-110.5 161.5t-11 215.5l108 606h200z" />
    <glyph glyph-name="uni01CD" unicode="&#x1cd;" horiz-adv-x="1302" 
d="M988 1434h-196l-254 356h190l174 -248l252 248h214zM1246 0h-202l-54 326h-538l-168 -326h-226l716 1332h226zM856 1108l-318 -614h422z" />
    <glyph glyph-name="uni01CE" unicode="&#x1ce;" horiz-adv-x="1076" 
d="M832 1144h-196l-254 356h190l174 -248l252 248h214zM1090 648l-112 -648h-204l24 136q-63 -75 -149 -115.5t-185 -40.5q-146 0 -237 79.5t-91 206.5q0 144 94.5 231t261.5 93l280 8q58 3 85 16.5t37 47.5l2 18q18 92 -47 152t-177 60q-193 0 -246 -164h-208
q37 147 161 233.5t297 86.5q207 0 325.5 -114t88.5 -286zM342 286q0 -68 52 -109t138 -41q110 0 195 65.5t115 172.5l14 80l-318 -10q-96 -1 -146 -44t-50 -114z" />
    <glyph glyph-name="uni01CF" unicode="&#x1cf;" 
d="M546 1434h-196l-254 356h190l174 -248l252 248h214zM340 1332h198l-234 -1332h-200z" />
    <glyph glyph-name="uni01D0" unicode="&#x1d0;" 
d="M496 1146h-196l-256 356h192l172 -248l252 248h214zM286 1024h198l-180 -1024h-200z" />
    <glyph glyph-name="uni01D1" unicode="&#x1d1;" horiz-adv-x="1388" 
d="M1030 1434h-196l-256 356h192l172 -248l252 248h214zM192 544q0 170 51 320t140.5 257t216.5 169t272 62q247 0 400.5 -161t153.5 -421q0 -229 -83.5 -407.5t-237 -278.5t-351.5 -100q-251 0 -406.5 155t-155.5 405zM1224 772q0 188 -96 292t-270 104q-131 0 -237 -81
t-165.5 -223t-59.5 -318q0 -180 98 -279t276 -99q202 0 328 167.5t126 436.5z" />
    <glyph glyph-name="uni01D2" unicode="&#x1d2;" horiz-adv-x="1154" 
d="M848 1146h-196l-254 354h190l174 -246l252 246h214zM166 434q0 174 70.5 315t194 221t275.5 80q207 0 331.5 -122.5t124.5 -329.5q0 -131 -41.5 -246t-113.5 -197t-172 -129.5t-213 -47.5q-207 0 -331.5 124t-124.5 332zM960 596q0 132 -69 205t-195 73q-136 0 -232 -125
t-96 -315q0 -133 70 -206.5t196 -73.5q133 0 229.5 126t96.5 316z" />
    <glyph glyph-name="uni01D3" unicode="&#x1d3;" horiz-adv-x="1226" 
d="M958 1434h-196l-254 356h190l172 -248l252 248h214zM328 1332h200l-138 -792q-32 -170 47.5 -269t248.5 -99q133 0 221.5 82.5t114.5 231.5l146 846h200l-152 -864q-39 -220 -185.5 -352t-352.5 -132q-168 0 -289.5 72t-174 203.5t-22.5 298.5z" />
    <glyph glyph-name="uni01D4" unicode="&#x1d4;" horiz-adv-x="1092" 
d="M826 1146h-196l-256 356h192l172 -248l252 248h214zM374 442q-23 -133 27.5 -208.5t166.5 -75.5q118 0 197 72t99 196l104 598h198l-178 -1024h-198l24 146q-64 -79 -152 -122.5t-184 -43.5q-108 0 -186.5 61t-110.5 161.5t-11 215.5l108 606h200z" />
    <glyph glyph-name="uni01DD" unicode="&#x1dd;" horiz-adv-x="1150" 
d="M1158 590q0 -170 -65 -308t-187 -219t-278 -81q-120 0 -215 41t-153 111.5t-81.5 166.5t-4.5 205l10 62h772v32q0 138 -70.5 208t-207.5 70q-193 0 -264 -174h-216q58 167 180 253.5t298 86.5q226 0 354 -120.5t128 -333.5zM620 140q118 0 200.5 75t115.5 209h-566
q-18 -126 53 -205t197 -79z" />
    <glyph glyph-name="uni01E2" unicode="&#x1e2;" horiz-adv-x="1952" 
d="M1060 1624h654l-26 -156h-656zM2096 1332l-34 -188h-716l-66 -372h662l-34 -188h-660l-70 -398h716l-32 -186h-916l58 326h-514l-212 -326h-220l858 1332h1180zM590 494h444l116 652h-138z" />
    <glyph glyph-name="uni01E3" unicode="&#x1e3;" horiz-adv-x="1840" 
d="M800 1336h656l-28 -156h-656zM1358 -18q-161 0 -271 70t-155 200q-61 -127 -179.5 -199.5t-262.5 -72.5q-156 0 -255 79.5t-99 206.5q0 144 95.5 231t260.5 93l280 8q60 3 86.5 17t35.5 47l2 18q16 91 -50 151.5t-180 60.5q-190 0 -240 -166h-208q37 148 158.5 235
t291.5 87q130 0 227.5 -49.5t144.5 -136.5q69 86 166.5 134t213.5 48q152 0 260 -70t153 -188.5t21 -263.5l-12 -64h-770q-2 -10 -2 -30q0 -138 70.5 -209t207.5 -71q193 0 264 176h216q-59 -168 -178.5 -255t-291.5 -87zM1408 888q-118 0 -201.5 -75.5t-116.5 -210.5h566
q18 127 -52.5 206.5t-195.5 79.5zM342 290q0 -67 52.5 -107.5t139.5 -40.5q116 0 205 74.5t111 193.5l8 48l-318 -8q-97 -3 -147.5 -45.5t-50.5 -114.5z" />
    <glyph glyph-name="uni01F0" unicode="&#x1f0;" 
d="M496 1146h-196l-256 356h192l172 -248l252 248h214zM-98 -168h64q54 0 86.5 29t45.5 101l188 1062h198l-190 -1074q-27 -154 -111.5 -226t-206.5 -72h-106z" />
    <glyph glyph-name="AEacute" unicode="&#x1fc;" horiz-adv-x="1952" 
d="M1556 1776l-326 -342h-174l258 342h242zM2096 1332l-34 -188h-716l-66 -372h662l-34 -188h-660l-70 -398h716l-32 -186h-916l58 326h-514l-212 -326h-220l858 1332h1180zM590 494h444l116 652h-138z" />
    <glyph glyph-name="aeacute" unicode="&#x1fd;" horiz-adv-x="1840" 
d="M1474 1488l-326 -342h-176l260 342h242zM1358 -18q-161 0 -271 70t-155 200q-61 -127 -179.5 -199.5t-262.5 -72.5q-156 0 -255 79.5t-99 206.5q0 144 95.5 231t260.5 93l280 8q60 3 86.5 17t35.5 47l2 18q16 91 -50 151.5t-180 60.5q-190 0 -240 -166h-208
q37 148 158.5 235t291.5 87q130 0 227.5 -49.5t144.5 -136.5q69 86 166.5 134t213.5 48q152 0 260 -70t153 -188.5t21 -263.5l-12 -64h-770q-2 -10 -2 -30q0 -138 70.5 -209t207.5 -71q193 0 264 176h216q-59 -168 -178.5 -255t-291.5 -87zM1408 888q-118 0 -201.5 -75.5
t-116.5 -210.5h566q18 127 -52.5 206.5t-195.5 79.5zM342 290q0 -67 52.5 -107.5t139.5 -40.5q116 0 205 74.5t111 193.5l8 48l-318 -8q-97 -3 -147.5 -45.5t-50.5 -114.5z" />
    <glyph glyph-name="uni0237" unicode="&#x237;" 
d="M-98 -168h64q54 0 86.5 29t45.5 101l188 1062h198l-190 -1074q-27 -154 -111.5 -226t-206.5 -72h-106z" />
    <glyph glyph-name="uni0250" unicode="&#x250;" horiz-adv-x="1076" 
d="M238 756q26 145 0 268h200q17 -63 14 -150q63 81 153 125.5t193 44.5q146 0 237 -79.5t91 -206.5q0 -144 -95.5 -231t-260.5 -93l-280 -8q-60 -3 -86.5 -17t-35.5 -47l-2 -18q-15 -91 49 -151.5t175 -60.5q193 0 246 166h208q-37 -148 -161 -235t-297 -87
q-207 0 -325.5 114t-88.5 286zM412 614l-8 -48l318 8q97 3 147.5 45.5t50.5 114.5q0 67 -52.5 107.5t-139.5 40.5q-116 0 -205 -74.5t-111 -193.5z" />
    <glyph glyph-name="uni0251" unicode="&#x251;" horiz-adv-x="1182" 
d="M1240 174l-32 -174h-44q-105 0 -173.5 46.5t-78.5 139.5q-64 -97 -155.5 -150.5t-200.5 -53.5q-179 0 -285.5 120t-106.5 324q0 175 66.5 319.5t182.5 227.5t257 83q131 0 217 -64.5t123 -181.5l38 214h198l-128 -716q-13 -75 14 -104.5t86 -29.5h22zM368 438
q0 -136 68.5 -210t193.5 -74q136 0 233 124.5t97 313.5q0 133 -68.5 207.5t-191.5 74.5q-139 0 -235.5 -123.5t-96.5 -312.5z" />
    <glyph glyph-name="uni0252" unicode="&#x252;" horiz-adv-x="1182" 
d="M126 852l32 174h44q105 0 173.5 -46.5t78.5 -139.5q65 96 156.5 150t199.5 54q179 0 285.5 -121t106.5 -323q0 -175 -66.5 -320t-182.5 -227.5t-257 -82.5q-131 0 -217 64.5t-123 181.5l-38 -214h-198l128 714q13 75 -14 105.5t-86 30.5h-22zM998 588q0 136 -68.5 210
t-193.5 74q-136 0 -233 -124.5t-97 -313.5q0 -135 68.5 -208.5t191.5 -73.5q139 0 235.5 123.5t96.5 312.5z" />
    <glyph glyph-name="uni0253" unicode="&#x253;" horiz-adv-x="1168" 
d="M106 0l188 1080q30 171 158.5 273.5t317.5 102.5q224 0 358 -102.5t134 -275.5h-200q0 98 -80 157t-212 59q-116 0 -189 -63.5t-93 -176.5l-38 -224q138 176 340 176q177 0 284.5 -117.5t107.5 -310.5q0 -167 -64.5 -304.5t-177.5 -216.5t-250 -79q-127 0 -217 61
t-131 171l-36 -210h-200zM980 564q0 127 -72 198.5t-198 71.5q-113 0 -195 -74.5t-111 -199.5l-12 -64q-4 -44 -4 -68q0 -128 71 -199t199 -71q143 0 232.5 113t89.5 293z" />
    <glyph glyph-name="uni0254" unicode="&#x254;" horiz-adv-x="1136" 
d="M1150 594q0 -177 -70.5 -318.5t-194 -220.5t-275.5 -79q-205 0 -322.5 115t-117.5 307h202q0 -114 66 -179t184 -65q138 0 232 126.5t94 313.5q0 135 -70.5 207.5t-201.5 72.5q-100 0 -172 -59t-96 -159h-204q40 184 169 289t315 105q211 0 336.5 -123.5t125.5 -332.5z
" />
    <glyph glyph-name="uni0255" unicode="&#x255;" horiz-adv-x="1138" 
d="M198 -150q24 155 80 286q-114 126 -114 326q0 164 72.5 299t198.5 212t279 77q204 0 321 -105t117 -285h-202q-8 111 -71 169.5t-177 58.5q-143 0 -237.5 -122t-94.5 -306q0 -73 18 -130q169 222 410 222q139 0 222.5 -73t83.5 -205q0 -124 -126.5 -207t-317.5 -83
q-140 0 -250 52q-25 -77 -44 -186h-168zM674 138q98 0 163 39t65 97q0 126 -132 126q-181 0 -292 -204q73 -58 196 -58z" />
    <glyph glyph-name="uni0256" unicode="&#x256;" horiz-adv-x="1182" 
d="M1178 -160l-32 -174h-50q-130 0 -198 70.5t-42 211.5l38 212q-136 -178 -338 -178q-179 0 -285.5 120t-106.5 324q0 175 66.5 319.5t182.5 227.5t257 83q131 0 217 -64.5t123 -181.5l112 624h198l-260 -1460q-13 -75 11.5 -104.5t80.5 -29.5h26zM368 438
q0 -136 68.5 -210t193.5 -74q136 0 233 124.5t97 313.5q0 133 -68.5 207.5t-191.5 74.5q-139 0 -235.5 -123.5t-96.5 -312.5z" />
    <glyph glyph-name="uni0257" unicode="&#x257;" horiz-adv-x="1182" 
d="M1438 1260h-36q-56 0 -91.5 -29.5t-48.5 -104.5l-198 -1126h-198l30 162q-64 -86 -151 -133t-189 -47q-179 0 -285.5 120t-106.5 324q0 175 66.5 319.5t182.5 227.5t257 83q131 0 217 -64.5t123 -181.5l60 342q49 282 310 282h88zM368 438q0 -136 68.5 -210t193.5 -74
q136 0 233 124.5t97 313.5q0 133 -68.5 207.5t-191.5 74.5q-139 0 -235.5 -123.5t-96.5 -312.5z" />
    <glyph glyph-name="uni0258" unicode="&#x258;" horiz-adv-x="1150" 
d="M1170 608q0 -137 -43 -254t-118 -198t-179.5 -126.5t-225.5 -45.5q-207 0 -324.5 89t-127.5 259h210q3 -88 67.5 -135t176.5 -47q127 0 217 83.5t125 230.5h-782l18 98q37 221 188.5 351.5t361.5 130.5q206 0 321 -115t115 -321zM404 610h562v24q0 254 -238 254
q-120 0 -209 -76.5t-115 -201.5z" />
    <glyph glyph-name="uni0259" unicode="&#x259;" horiz-adv-x="1150" 
d="M1158 590q0 -170 -65 -308t-187 -219t-278 -81q-120 0 -215 41t-153 111.5t-81.5 166.5t-4.5 205l10 62h772v32q0 138 -70.5 208t-207.5 70q-193 0 -264 -174h-216q58 167 180 253.5t298 86.5q226 0 354 -120.5t128 -333.5zM620 140q118 0 200.5 75t115.5 209h-566
q-18 -126 53 -205t197 -79z" />
    <glyph glyph-name="uni025A" unicode="&#x25a;" horiz-adv-x="1466" 
d="M1536 498l-26 -150h-52q-99 0 -151.5 54.5t-40.5 145.5l4 28l-104 -22q-17 -253 -173 -411.5t-391 -158.5q-216 0 -328 113t-112 331v58l802 148q-6 244 -244 244q-112 0 -190.5 -50.5t-113.5 -143.5h-212q124 360 520 360q190 0 305 -95.5t135 -266.5l172 32h102
l-18 -106q-11 -60 7 -85t73 -25h36zM370 378q3 -232 230 -232q133 0 227.5 94t124.5 252z" />
    <glyph glyph-name="uni025B" unicode="&#x25b;" horiz-adv-x="1030" 
d="M1002 312q-38 -153 -162.5 -242.5t-301.5 -89.5q-186 0 -297 74.5t-111 199.5q0 87 51.5 155.5t142.5 106.5q-100 58 -100 188q0 149 123 247.5t311 98.5q191 0 299.5 -90.5t108.5 -249.5h-204q0 87 -51 132.5t-149 45.5q-106 0 -169 -54t-63 -146q0 -48 28 -74t80 -26
h200l-22 -150h-200q-78 0 -128 -43.5t-50 -112.5q0 -67 51.5 -103.5t146.5 -36.5q103 0 173.5 45.5t88.5 124.5h204z" />
    <glyph glyph-name="uni025C" unicode="&#x25c;" horiz-adv-x="1030" 
d="M472 438l26 150h198q69 0 112.5 47.5t43.5 122.5q0 62 -48 96t-136 34q-96 0 -156 -43.5t-90 -134.5h-204q36 167 160.5 253.5t299.5 86.5q174 0 278 -78t104 -210q0 -83 -46.5 -148.5t-129.5 -101.5q116 -61 116 -200q0 -146 -125.5 -239t-328.5 -93q-187 0 -296.5 89.5
t-109.5 242.5h202q0 -79 55 -124.5t151 -45.5q117 0 183.5 50t66.5 138q0 108 -128 108h-198z" />
    <glyph glyph-name="uni025D" unicode="&#x25d;" horiz-adv-x="1284" 
d="M1342 498l-26 -150h-52q-99 0 -151 54t-41 146l4 28l-126 -26q-24 -19 -66 -38q116 -61 116 -200q0 -146 -125.5 -239t-328.5 -93q-187 0 -296.5 89.5t-109.5 242.5h202q0 -79 55 -124.5t151 -45.5q117 0 183.5 50t66.5 138q0 108 -128 108h-198l26 150h198
q69 0 112.5 47.5t43.5 122.5q0 62 -48 96t-136 34q-96 0 -156 -43.5t-90 -134.5h-204q36 167 160.5 253.5t299.5 86.5q174 0 278 -78t104 -210q0 -22 -8 -66l90 18h102l-18 -106q-11 -60 7 -85t73 -25h36z" />
    <glyph glyph-name="uni025E" unicode="&#x25e;" horiz-adv-x="1078" 
d="M938 514q110 -66 110 -210q0 -140 -118.5 -232t-299.5 -92q-210 0 -337 124.5t-127 329.5q0 126 45 240t122 196.5t185.5 131t229.5 48.5q162 0 259 -77.5t97 -206.5q0 -82 -44.5 -149.5t-121.5 -102.5zM370 416q0 -129 65.5 -198.5t186.5 -69.5q103 0 163.5 49.5
t60.5 132.5q0 52 -33 80t-95 28h-152l26 150h152q69 0 111.5 47.5t42.5 122.5q0 60 -41 92t-117 32q-162 0 -266 -131t-104 -335z" />
    <glyph glyph-name="uni025F" unicode="&#x25f;" horiz-adv-x="684" 
d="M22 -244h76q60 0 96.5 29t49.5 101l20 114h-200l30 166h200l150 858h198l-150 -858h158l-28 -166h-160l-22 -128q-26 -141 -122 -211.5t-226 -70.5h-100z" />
    <glyph glyph-name="uni0260" unicode="&#x260;" horiz-adv-x="1168" 
d="M1438 1260h-38q-55 0 -89 -29.5t-47 -104.5l-206 -1174q-29 -163 -162.5 -263.5t-327.5 -100.5q-218 0 -347 102t-129 270h202q0 -93 79.5 -150.5t212.5 -57.5q115 0 186.5 56.5t89.5 157.5l40 224q-140 -172 -338 -172q-177 0 -284.5 117.5t-107.5 310.5
q0 167 64.5 304.5t177.5 216.5t250 79q126 0 215.5 -60t130.5 -170l60 336q23 141 111.5 211.5t210.5 70.5h76zM374 460q0 -127 72 -198.5t198 -71.5q110 0 190 69t112 189l18 96q0 8 1 25.5t1 26.5q0 128 -71 199t-199 71q-143 0 -232.5 -113t-89.5 -293z" />
    <glyph glyph-name="uni0261" unicode="&#x261;" horiz-adv-x="1168" 
d="M1248 1024l-192 -1088q-27 -157 -152 -251.5t-310 -94.5q-227 0 -363.5 100.5t-136.5 269.5h202q0 -94 81.5 -151t218.5 -57q110 0 179.5 56t86.5 154l40 230q-64 -82 -151.5 -128t-186.5 -46q-177 0 -284.5 117.5t-107.5 310.5q0 167 64.5 304.5t177.5 216.5t250 79
q125 0 215.5 -60.5t132.5 -169.5l36 208h200zM374 460q0 -127 72 -198.5t198 -71.5q112 0 193 72t111 194l14 80q4 40 4 60q0 128 -71 199t-199 71q-143 0 -232.5 -113t-89.5 -293z" />
    <glyph glyph-name="uni0262" unicode="&#x262;" horiz-adv-x="1136" 
d="M178 424q0 180 69 322t196.5 223t292.5 81q205 0 323.5 -102t118.5 -278h-204q0 100 -65 156t-181 56q-150 0 -247 -131t-97 -333q0 -126 64 -198t178 -72q103 0 177.5 66t112.5 188h-254l24 142h476l-102 -544h-136l18 180q-65 -97 -157 -149.5t-199 -52.5
q-185 0 -296.5 122t-111.5 324z" />
    <glyph glyph-name="uni0263" unicode="&#x263;" horiz-adv-x="1128" 
d="M310 -36l150 218l-214 842h200l162 -724l412 724h224l-512 -842l72 -218q18 -54 18 -104q0 -113 -90 -189.5t-222 -76.5q-118 0 -192 55.5t-74 144.5q0 80 66 170zM632 -90l-56 166l-110 -166q-28 -47 -28 -78t23.5 -48.5t64.5 -17.5q48 0 81 29.5t33 72.5q0 10 -8 42z
" />
    <glyph glyph-name="uni0264" unicode="&#x264;" horiz-adv-x="978" 
d="M328 342l98 116l-180 566h206l132 -456l290 456h220l-386 -566l58 -116q34 -59 34 -126q0 -99 -87 -169.5t-209 -70.5q-115 0 -184.5 53.5t-69.5 142.5q0 80 78 170zM592 288l-42 86l-68 -86q-36 -45 -36 -86q0 -58 66 -58q40 0 65 25.5t25 66.5q0 25 -10 52z" />
    <glyph glyph-name="uni0265" unicode="&#x265;" horiz-adv-x="1102" 
d="M378 442q-22 -132 32 -208t170 -76q114 0 194 69t102 187l106 610h200l-234 -1358h-200l82 484q-66 -81 -155 -125.5t-185 -44.5q-106 0 -186.5 61t-115 161.5t-14.5 215.5l110 606h198z" />
    <glyph glyph-name="uni0266" unicode="&#x266;" horiz-adv-x="1110" 
d="M106 0l188 1080q30 171 163.5 273.5t330.5 102.5q204 0 326 -100.5t122 -269.5h-202q0 93 -69.5 150.5t-184.5 57.5q-120 0 -196 -64t-96 -176l-32 -188q68 81 157 125.5t185 44.5q108 0 189.5 -61t116.5 -161.5t14 -215.5l-108 -598h-198l102 574q24 132 -31.5 208
t-172.5 76q-111 0 -189 -62t-107 -170l-108 -626h-200z" />
    <glyph glyph-name="uni0267" unicode="&#x267;" horiz-adv-x="1110" 
d="M106 0l188 1080q30 171 163.5 273.5t330.5 102.5q204 0 326 -100.5t122 -269.5h-202q0 93 -69.5 150.5t-184.5 57.5q-120 0 -196 -64t-96 -176l-34 -198q67 84 157.5 133t186.5 49q181 0 268 -108.5t54 -293.5l-122 -680q-25 -156 -115 -243t-225 -87h-156l32 180h98
q75 0 116 38.5t56 123.5l110 626q21 128 -26.5 194t-161.5 66t-202 -67t-112 -171l-106 -616h-200z" />
    <glyph glyph-name="uni0268" unicode="&#x268;" horiz-adv-x="488" 
d="M370 1356h226l-34 -196h-226zM326 1024h198l-66 -376h146l-30 -166h-146l-84 -482h-198l84 482h-146l30 166h146z" />
    <glyph glyph-name="uni0269" unicode="&#x269;" horiz-adv-x="532" 
d="M514 174l-30 -174h-100q-124 0 -189 70.5t-39 211.5l130 742h200l-126 -716q-14 -75 6.5 -104.5t71.5 -29.5h76z" />
    <glyph glyph-name="uni026A" unicode="&#x26a;" horiz-adv-x="736" 
d="M852 1024l-32 -180h-204l-116 -664h204l-32 -180h-606l32 180h204l116 664h-204l32 180h606z" />
    <glyph glyph-name="uni026B" unicode="&#x26b;" horiz-adv-x="688" 
d="M362 898q26 0 44 -6l96 542h198l-120 -680q6 -2 20 -2q43 0 74.5 36t43.5 98h128q-23 -135 -93.5 -212.5t-170.5 -77.5q-20 0 -30 2l-106 -598h-198l130 736q-12 6 -26 6q-41 0 -71.5 -37.5t-40.5 -100.5h-134q26 140 92.5 217t163.5 77z" />
    <glyph glyph-name="uni026C" unicode="&#x26c;" horiz-adv-x="682" 
d="M524 1434h196l-134 -758h216l-24 -132h-214l-96 -544h-198l96 544h-2q-111 0 -171.5 52t-60.5 148q0 120 76 194t198 74h42zM380 676h10l36 202h-12q-66 0 -101 -32.5t-35 -95.5q0 -74 102 -74z" />
    <glyph glyph-name="uni026D" unicode="&#x26d;" horiz-adv-x="526" 
d="M434 -160l-30 -174h-58q-132 0 -203 70.5t-47 211.5l262 1486h200l-258 -1460q-13 -75 13 -104.5t85 -29.5h36z" />
    <glyph glyph-name="uni026E" unicode="&#x26e;" horiz-adv-x="1194" 
d="M834 442q151 -18 228.5 -114t77.5 -264q0 -209 -149 -341.5t-395 -132.5q-203 0 -323.5 88t-120.5 238h204q0 -75 63.5 -115.5t180.5 -40.5q149 0 240.5 88.5t91.5 233.5q0 105 -60.5 160.5t-175.5 55.5h-104l26 156l366 396h-532l-148 -850h-200l252 1434h200l-72 -410
h764l-26 -176z" />
    <glyph glyph-name="uni026F" unicode="&#x26f;" horiz-adv-x="1730" 
d="M366 418q-24 -131 25 -193.5t151 -62.5q97 0 179 65t107 167l114 630h198l-110 -604q-23 -132 27 -198t159 -66q95 0 171 57.5t103 154.5l116 656h200l-180 -1024h-200l24 138q-65 -76 -153 -118t-177 -42q-110 0 -188.5 62t-103.5 168q-64 -106 -165 -167t-207 -61
q-153 0 -239.5 116.5t-54.5 297.5l114 630h198z" />
    <glyph glyph-name="uni0270" unicode="&#x270;" horiz-adv-x="1730" 
d="M366 418q-24 -131 25 -193.5t151 -62.5q97 0 179 65t107 167l114 630h198l-110 -604q-23 -132 27 -198t159 -66q94 0 170 55.5t104 150.5l116 662h200l-240 -1358h-200l84 472q-66 -77 -153.5 -118.5t-176.5 -41.5q-110 0 -188.5 62t-103.5 168q-64 -106 -165 -167
t-207 -61q-153 0 -239.5 116.5t-54.5 297.5l114 630h198z" />
    <glyph glyph-name="uni0271" unicode="&#x271;" horiz-adv-x="1730" 
d="M286 1024h200l-26 -138q66 77 154 118.5t178 41.5q111 0 189.5 -63.5t102.5 -174.5q62 105 160.5 168.5t203.5 63.5q170 0 250.5 -108t49.5 -294l-122 -682q-27 -155 -115 -242.5t-219 -87.5h-150l32 180h90q72 0 111.5 38.5t54.5 123.5l114 628q19 127 -24.5 193.5
t-145.5 66.5q-103 0 -184.5 -63.5t-105.5 -162.5l-116 -630h-198l110 604q25 132 -25.5 198t-160.5 66q-95 0 -171 -57.5t-103 -154.5l-114 -656h-200z" />
    <glyph glyph-name="uni0272" unicode="&#x272;" horiz-adv-x="1110" 
d="M-102 -192h64q53 0 86 28.5t46 99.5l192 1088h200l-26 -140q66 79 154.5 122.5t181.5 43.5q170 0 264 -124.5t60 -309.5l-110 -616h-198l104 582q24 132 -31.5 208t-172.5 76q-115 0 -194.5 -67.5t-103.5 -182.5l-122 -692q-24 -145 -110 -213.5t-206 -68.5h-106z" />
    <glyph glyph-name="uni0273" unicode="&#x273;" horiz-adv-x="1110" 
d="M286 1024h200l-24 -134q65 77 153.5 118.5t174.5 41.5q183 0 276 -106t56 -296l-120 -674q-13 -75 11 -104.5t81 -29.5h22l-32 -174h-38q-127 0 -198 76t-48 206l116 658q23 132 -31.5 196t-172.5 64q-109 0 -194 -69.5t-104 -176.5l-110 -620h-198z" />
    <glyph glyph-name="uni0274" unicode="&#x274;" horiz-adv-x="1126" 
d="M1004 1024h198l-182 -1024h-212l-370 766l-134 -766h-198l180 1024h240l348 -736z" />
    <glyph glyph-name="uni0275" unicode="&#x275;" horiz-adv-x="1154" 
d="M166 434q0 174 70.5 315t194 221t275.5 80q207 0 331.5 -122.5t124.5 -329.5q0 -131 -41.5 -246t-113.5 -197t-172 -129.5t-213 -47.5q-207 0 -331.5 124t-124.5 332zM974 596q0 138 -73 215t-205 77q-111 0 -199.5 -83t-122.5 -219h600v10zM356 434q0 -141 73 -217.5
t205 -76.5q110 0 199 84t123 222h-600v-12z" />
    <glyph glyph-name="uni0276" unicode="&#x276;" horiz-adv-x="1696" 
d="M166 434q0 174 66 315t182.5 221t259.5 80q118 0 205.5 -58t132.5 -164l36 196h758l-30 -166h-554l-46 -266h498l-28 -154h-498l-46 -264h554l-32 -174h-758l22 120q-133 -142 -312 -142q-186 0 -298 124t-112 332zM960 596q0 132 -69 205t-195 73q-136 0 -232 -125
t-96 -315q0 -133 70 -206.5t196 -73.5q133 0 229.5 126t96.5 316z" />
    <glyph glyph-name="uni0277" unicode="&#x277;" horiz-adv-x="1450" 
d="M770 172q-58 -96 -138.5 -146t-175.5 -50q-141 0 -223.5 99t-82.5 269q0 147 55.5 277t152 223.5t235 147.5t297.5 54q259 0 412.5 -139t153.5 -375q0 -149 -59 -277.5t-160 -203.5t-219 -75q-96 0 -160 50.5t-88 145.5zM888 868q-234 0 -383 -146t-149 -376
q0 -184 140 -184q78 0 134.5 50.5t81.5 143.5l46 258h150l-42 -238q-14 -95 23 -150.5t115 -55.5q108 0 178 104.5t70 265.5q0 157 -95 242.5t-269 85.5z" />
    <glyph glyph-name="uni0278" unicode="&#x278;" horiz-adv-x="1154" 
d="M166 434q0 262 153 438t383 178l66 384h120l-68 -394q159 -32 250.5 -149t91.5 -293q0 -262 -151.5 -438.5t-378.5 -181.5l-54 -312h-120l56 322q-161 30 -254.5 148.5t-93.5 297.5zM356 434q0 -112 48.5 -182.5t139.5 -93.5l128 722q-134 -12 -225 -137t-91 -309z
M974 596q0 109 -47.5 179.5t-136.5 94.5l-128 -722q131 15 221.5 140.5t90.5 307.5z" />
    <glyph glyph-name="uni0279" unicode="&#x279;" horiz-adv-x="708" 
d="M104 186h52q120 0 214 69t112 175l106 594h196l-180 -1024h-198l30 160q-65 -85 -149.5 -132.5t-164.5 -47.5h-54z" />
    <glyph glyph-name="uni027A" unicode="&#x27a;" horiz-adv-x="708" 
d="M104 186h52q120 0 214 69t112 175l178 1004h196l-252 -1434h-198l30 160q-65 -85 -149.5 -132.5t-164.5 -47.5h-54z" />
    <glyph glyph-name="uni027B" unicode="&#x27b;" horiz-adv-x="708" 
d="M104 186h52q120 0 214 69t112 175l106 594h196l-184 -1050q-14 -75 12.5 -104.5t87.5 -29.5h36l-32 -174h-58q-62 0 -112 16.5t-86 50t-49.5 88.5t-0.5 127l38 212q-65 -85 -149.5 -132.5t-164.5 -47.5h-54z" />
    <glyph glyph-name="uni027C" unicode="&#x27c;" horiz-adv-x="708" 
d="M284 1024h200l-28 -158q65 84 149 131t163 47h54l-36 -206h-52q-120 0 -213.5 -68.5t-112.5 -175.5l-164 -928h-198z" />
    <glyph glyph-name="uni027D" unicode="&#x27d;" horiz-adv-x="708" 
d="M432 -160l-30 -174h-58q-131 0 -202.5 70.5t-47.5 211.5l190 1076h200l-28 -158q65 84 149 131t163 47h54l-36 -206h-52q-120 0 -213.5 -68.5t-112.5 -175.5l-110 -620q-13 -75 13.5 -104.5t86.5 -29.5h34z" />
    <glyph glyph-name="uni027E" unicode="&#x27e;" horiz-adv-x="546" 
d="M634 850h-30q-75 0 -118.5 -35.5t-59.5 -126.5l-122 -688h-198l124 708q19 107 77.5 180t135 104.5t169.5 31.5h52z" />
    <glyph glyph-name="uni027F" unicode="&#x27f;" horiz-adv-x="520" 
d="M186 850l30 174h80q131 0 201.5 -76.5t44.5 -227.5l-186 -1054h-198l182 1036q14 82 -11.5 115t-86.5 33h-56z" />
    <glyph glyph-name="uni0280" unicode="&#x280;" horiz-adv-x="1080" 
d="M614 354h-246l-64 -354h-198l180 1024h508q153 0 243.5 -74.5t90.5 -201.5q0 -117 -73.5 -203.5t-194.5 -116.5q81 -19 116.5 -72t35.5 -150v-206h-198v182q0 92 -47 132t-153 40zM764 858h-308l-60 -338h310q98 0 157 55.5t59 148.5q0 65 -41 99.5t-117 34.5z" />
    <glyph glyph-name="uni0281" unicode="&#x281;" horiz-adv-x="1080" 
d="M670 670q114 0 176 45.5t94 152.5l46 156h196l-52 -176q-36 -118 -95.5 -178.5t-160.5 -79.5q87 -30 135.5 -96.5t48.5 -159.5q0 -141 -115 -237.5t-283 -96.5h-554l180 1024h200l-62 -354h246zM642 166q96 0 157 56.5t61 145.5q0 66 -40.5 101t-117.5 35h-308l-60 -338
h308z" />
    <glyph glyph-name="uni0282" unicode="&#x282;" horiz-adv-x="1054" 
d="M406 -192l-28 -168h-46q-146 0 -215.5 71.5t-48.5 198.5l74 420h196q0 -97 69 -149.5t195 -52.5q104 0 163 39t59 109q0 51 -36.5 84t-117.5 52l-168 36q-142 33 -211 101.5t-69 176.5q0 152 110 239t302 87q202 0 315.5 -93t116.5 -261h-192q0 96 -62 147t-180 51
q-97 0 -153.5 -40.5t-56.5 -111.5q0 -50 34 -79t112 -45l176 -34q276 -56 276 -282q0 -157 -99 -242.5t-281 -85.5q-121 0 -206.5 44.5t-129.5 127.5l-40 -212q-13 -66 11 -97t89 -31h42z" />
    <glyph glyph-name="uni0283" unicode="&#x283;" horiz-adv-x="620" 
d="M352 -36q-19 -110 -74.5 -184.5t-127.5 -107t-158 -32.5h-94l32 180h62q65 0 106.5 35t57.5 123l208 1174q24 141 120 211.5t228 70.5h98l-28 -166h-78q-60 0 -96.5 -29t-49.5 -101z" />
    <glyph glyph-name="uni0284" unicode="&#x284;" horiz-adv-x="680" 
d="M58 0l30 166h160l174 986q24 141 120 211.5t228 70.5h98l-28 -166h-78q-60 0 -96.5 -29t-49.5 -101l-170 -972h198l-28 -166h-200l-14 -74q-24 -142 -120.5 -214t-227.5 -72h-86l30 174h64q60 0 96.5 27.5t49.5 96.5l10 62h-160z" />
    <glyph glyph-name="uni0285" unicode="&#x285;" horiz-adv-x="698" 
d="M210 858l28 166h100q132 0 203 -70.5t47 -211.5l-140 -792q-13 -72 13.5 -101t86.5 -29h62l-32 -180h-86q-130 0 -200 75t-44 223l140 792q13 71 -14.5 99.5t-87.5 28.5h-76z" />
    <glyph glyph-name="uni0286" unicode="&#x286;" horiz-adv-x="972" 
d="M160 -70q0 -54 37.5 -84t106.5 -30q91 0 140.5 51t69.5 165l10 56q-59 28 -150 28q-93 0 -153.5 -52.5t-60.5 -133.5zM920 -410h-184q0 204 -54 330q-102 -280 -384 -280q-155 0 -243.5 75t-88.5 207q0 153 119 258.5t291 105.5q100 0 178 -26l158 892
q22 133 110.5 207.5t223.5 74.5h114l-28 -166h-78q-63 0 -97.5 -31t-46.5 -99l-174 -986q184 -178 184 -562z" />
    <glyph glyph-name="uni0287" unicode="&#x287;" horiz-adv-x="684" 
d="M622 0h-182l-46 -266h-198l46 266h-178l30 166h178l96 550q14 75 -6.5 104.5t-71.5 29.5h-76l30 174h100q123 0 187.5 -70.5t40.5 -211.5l-102 -576h180z" />
    <glyph glyph-name="uni0288" unicode="&#x288;" horiz-adv-x="684" 
d="M594 -160l-32 -174h-100q-122 0 -188 70.5t-40 211.5l160 910h-178l28 166h180l46 266h198l-46 -266h180l-30 -166h-180l-156 -884q-13 -75 8.5 -104.5t71.5 -29.5h78z" />
    <glyph glyph-name="uni0289" unicode="&#x289;" horiz-adv-x="1092" 
d="M114 642h96l68 382h200l-68 -382h492l66 382h198l-68 -382h108l-28 -152h-106l-84 -490h-198l24 146q-64 -79 -152 -122.5t-184 -43.5q-108 0 -186.5 61t-110.5 161.5t-11 215.5l12 72h-96zM374 442q-23 -133 27.5 -208.5t166.5 -75.5q118 0 197 72t99 196l10 64h-492z
" />
    <glyph glyph-name="uni028A" unicode="&#x28a;" horiz-adv-x="1184" 
d="M618 -22q-212 0 -337 106.5t-125 289.5q0 146 82 274t218 202h-220l30 174h432l-28 -174q-130 -42 -216 -170t-86 -278q0 -116 67 -178t189 -62q162 0 263 113t101 293q0 104 -44.5 179t-123.5 103l28 174h434l-30 -174h-228q79 -55 122.5 -141t43.5 -191
q0 -111 -44.5 -211.5t-121 -172.5t-182.5 -114t-224 -42z" />
    <glyph glyph-name="uni028B" unicode="&#x28b;" horiz-adv-x="1106" 
d="M284 1024h200l-106 -598q-21 -119 31 -185.5t167 -66.5q153 0 250.5 136.5t97.5 351.5q0 96 -41 142t-127 46h-38l30 174h64q149 0 230.5 -96.5t81.5 -271.5q0 -141 -42.5 -266t-116.5 -214t-177 -140.5t-220 -51.5q-210 0 -318 122.5t-72 319.5z" />
    <glyph glyph-name="uni028C" unicode="&#x28c;" horiz-adv-x="1128" 
d="M1064 0h-200l-146 820l-428 -820h-224l566 1024h226z" />
    <glyph glyph-name="uni028D" unicode="&#x28d;" horiz-adv-x="1642" 
d="M1578 0h-202l-54 804l-374 -804h-228l-84 804l-348 -804h-222l492 1024h220l86 -804l368 804h230z" />
    <glyph glyph-name="uni028E" unicode="&#x28e;" horiz-adv-x="1140" 
d="M1236 1252h-98q-79 0 -130.5 -43.5t-109.5 -150.5l-30 -54l210 -1004h-200l-158 792l-430 -792h-224l594 1078q106 195 206.5 275.5t249.5 80.5h152z" />
    <glyph glyph-name="uni028F" unicode="&#x28f;" horiz-adv-x="1096" 
d="M504 318l-258 706h210l168 -508l350 508h240l-512 -706l-56 -318h-198z" />
    <glyph glyph-name="uni0290" unicode="&#x290;" horiz-adv-x="986" 
d="M1028 -192l-30 -168h-58q-131 0 -202.5 67.5t-47.5 202.5l16 90h-616l34 194l698 670h-578l28 160h804l-34 -194l-698 -670h580l-28 -160l-12 -64q-13 -72 14 -100t88 -28h42z" />
    <glyph glyph-name="uni0291" unicode="&#x291;" horiz-adv-x="1248" 
d="M486 -208q19 118 50 208h-446l34 194l694 670h-574l26 160h806l-34 -194l-694 -670h252q80 156 193.5 242t242.5 86q116 0 189 -63t73 -165q0 -111 -87 -185.5t-219 -74.5h-290q-33 -102 -52 -208h-164zM1024 340q-150 0 -252 -180h224q58 0 93 28.5t35 75.5
q0 35 -27 55.5t-73 20.5z" />
    <glyph glyph-name="uni0292" unicode="&#x292;" horiz-adv-x="1116" 
d="M754 442q150 -18 227 -114t77 -264q0 -209 -145.5 -341.5t-384.5 -132.5q-207 0 -330.5 106t-123.5 286h202q0 -103 67 -159.5t189 -56.5q144 0 231 86.5t87 229.5q0 105 -60 160.5t-174 55.5h-106l26 156l402 396h-696l28 174h936l-26 -176z" />
    <glyph glyph-name="uni0293" unicode="&#x293;" horiz-adv-x="1116" 
d="M442 14q-70 0 -121 -35t-51 -91q0 -65 62 -100.5t174 -35.5q171 0 266 108q-59 81 -139 117.5t-191 36.5zM754 468q150 -21 227 -124t77 -280q0 -137 -70 -252q45 -99 72 -222h-162q-33 94 -34 96q-142 -96 -348 -96t-328 81t-122 217q0 122 102 201t248 79
q265 0 428 -154q6 30 6 68q0 121 -62 185.5t-180 64.5h-104l26 156l402 362h-690l28 174h936l-26 -176z" />
    <glyph glyph-name="uni0294" unicode="&#x294;" horiz-adv-x="1106" 
d="M738 468l-84 -468h-196l102 578q218 82 330 210.5t112 291.5q0 99 -58 151.5t-166 52.5q-115 0 -199 -73.5t-111 -196.5h-204q46 209 183.5 325.5t326.5 116.5q196 0 315 -104.5t119 -275.5q0 -183 -123 -342t-347 -266z" />
    <glyph glyph-name="uni0295" unicode="&#x295;" horiz-adv-x="1106" 
d="M536 468q-142 92 -211 206t-69 268q0 225 146.5 369.5t377.5 144.5q212 0 326.5 -120.5t93.5 -321.5h-204q15 120 -46 195t-182 75q-139 0 -223.5 -95t-84.5 -253q0 -118 70.5 -205t221.5 -153l-102 -578h-198z" />
    <glyph glyph-name="uni0296" unicode="&#x296;" horiz-adv-x="1106" 
d="M814 966q142 -92 212 -206.5t70 -267.5q0 -224 -147 -369t-377 -145q-213 0 -327 120.5t-93 321.5h202q-14 -121 47 -195.5t183 -74.5q138 0 222 95.5t84 252.5q0 118 -70.5 205t-221.5 153l102 578h198z" />
    <glyph glyph-name="uni0297" unicode="&#x297;" horiz-adv-x="1150" 
d="M140 220q0 178 45.5 333t124.5 264t189 171t235 62q199 0 312.5 -119.5t113.5 -322.5h-204q0 125 -61.5 195.5t-172.5 70.5q-106 0 -193 -86t-136 -235.5t-49 -332.5q0 -219 70.5 -336.5t201.5 -117.5q106 0 182 69t102 185h202q-41 -200 -173.5 -315t-322.5 -115
q-213 0 -339.5 171t-126.5 459z" />
    <glyph glyph-name="uni0298" unicode="&#x298;" horiz-adv-x="1320" 
d="M182 492q0 244 89.5 441t247.5 308t353 111q239 0 367.5 -136.5t128.5 -389.5q0 -244 -86 -436t-241.5 -299t-354.5 -107q-242 0 -373 132t-131 376zM1172 842q0 340 -302 340q-142 0 -254 -89t-174 -249t-62 -364q0 -326 310 -326q219 0 350.5 187.5t131.5 500.5z
M702 748h186l-34 -188h-184z" />
    <glyph glyph-name="uni0299" unicode="&#x299;" horiz-adv-x="1098" 
d="M928 516q140 -68 140 -218q0 -126 -99 -212t-243 -86h-620l180 1024h552q132 0 212 -68t80 -182q0 -89 -52.5 -156.5t-149.5 -101.5zM758 588q74 0 118 46t44 122q0 52 -32.5 80t-91.5 28h-332l-50 -276h344zM680 160q85 0 135.5 46t50.5 124q0 53 -35 81.5t-99 28.5
h-344l-48 -280h340z" />
    <glyph glyph-name="uni029A" unicode="&#x29a;" horiz-adv-x="1078" 
d="M326 516q-110 66 -110 210q0 140 117 232t295 92q213 0 341.5 -127.5t128.5 -338.5q0 -166 -76 -304.5t-210 -219t-296 -80.5t-259 77.5t-97 206.5q0 82 44.5 149.5t121.5 102.5zM894 602q0 134 -65.5 207t-186.5 73q-103 0 -163.5 -49.5t-60.5 -132.5q0 -52 33 -80
t95 -28h152l-26 -150h-152q-69 0 -111.5 -47.5t-42.5 -122.5q0 -60 41 -92t117 -32q162 0 266 128t104 326z" />
    <glyph glyph-name="uni029B" unicode="&#x29b;" horiz-adv-x="1136" 
d="M178 424q0 180 64.5 322t183 223t270.5 81q116 0 201 -48t129 -136l28 162q27 151 119.5 227.5t216.5 76.5h52l-30 -174h-30q-63 0 -102 -33.5t-52 -114.5l-60 -340h-198q0 100 -64.5 156t-177.5 56q-150 0 -247 -131t-97 -333q0 -126 64 -198t178 -72q103 0 177.5 66
t112.5 188h-254l24 142h476l-102 -544h-136l18 180q-65 -97 -157 -149.5t-199 -52.5q-185 0 -296.5 122t-111.5 324z" />
    <glyph glyph-name="uni029C" unicode="&#x29c;" horiz-adv-x="1126" 
d="M286 1024h200l-74 -418h518l74 418h198l-182 -1024h-198l76 424h-518l-76 -424h-198z" />
    <glyph glyph-name="uni029D" unicode="&#x29d;" horiz-adv-x="620" 
d="M544 1356h226l-34 -196h-226zM506 -58q-23 -141 -112 -221.5t-222 -80.5q-138 0 -214 65.5t-76 184.5q0 139 104 231.5t262 92.5h108l142 810h198l-142 -810h122l-30 -162h-120zM174 -186q59 0 91.5 33.5t44.5 106.5l18 98h-80q-78 0 -127 -41.5t-49 -108.5
q0 -42 26.5 -65t75.5 -23z" />
    <glyph glyph-name="uni029E" unicode="&#x29e;" horiz-adv-x="1058" 
d="M348 0h-276l508 494l-352 530h226l278 -410l160 146l48 264h198l-240 -1358h-198l146 832z" />
    <glyph glyph-name="uni029F" unicode="&#x29f;" horiz-adv-x="812" 
d="M748 0h-642l180 1024h200l-148 -838h442z" />
    <glyph glyph-name="uni02A0" unicode="&#x2a0;" horiz-adv-x="1182" 
d="M1438 1260h-36q-56 0 -91.5 -29.5t-48.5 -104.5l-254 -1460h-198l88 500q-136 -184 -342 -184q-179 0 -285.5 120t-106.5 324q0 175 66.5 319.5t182.5 227.5t257 83q131 0 217 -64.5t123 -181.5l60 342q49 282 310 282h88zM368 438q0 -136 68.5 -210t193.5 -74
q136 0 233 124.5t97 313.5q0 133 -68.5 207.5t-191.5 74.5q-139 0 -235.5 -123.5t-96.5 -312.5z" />
    <glyph glyph-name="uni02A1" unicode="&#x2a1;" horiz-adv-x="1106" 
d="M240 410h290l30 168q218 82 330 210.5t112 291.5q0 99 -58 151.5t-166 52.5q-115 0 -199 -73.5t-111 -196.5h-204q46 209 183.5 325.5t326.5 116.5q196 0 315 -104.5t119 -275.5q0 -177 -123.5 -331.5t-346.5 -256.5l-14 -78h290l-26 -154h-290l-44 -256h-196l44 256
h-290z" />
    <glyph glyph-name="uni02A2" unicode="&#x2a2;" horiz-adv-x="1106" 
d="M240 410h284l14 86q-142 87 -212 198.5t-70 259.5q0 219 146.5 360.5t377.5 141.5q212 0 326.5 -120.5t93.5 -321.5h-204q15 120 -46 195t-182 75q-139 0 -223.5 -95t-84.5 -253q0 -118 70.5 -205t221.5 -153l-30 -168h292l-26 -154h-292l-46 -256h-198l44 256h-284z" />
    <glyph glyph-name="uni02A3" unicode="&#x2a3;" horiz-adv-x="2048" 
d="M1320 1434l-72 -410h892l-34 -194l-700 -670h580l-28 -160h-806l34 194l698 670h-664l-152 -864h-200l28 164q-137 -182 -340 -182q-179 0 -285.5 120t-106.5 324q0 175 66.5 319.5t182.5 227.5t257 83q131 0 217 -64.5t123 -181.5l110 624h200zM368 438
q0 -136 68.5 -210t193.5 -74q136 0 233 124.5t97 313.5q0 133 -68.5 207.5t-191.5 74.5q-139 0 -235.5 -123.5t-96.5 -312.5z" />
    <glyph glyph-name="uni02A4" unicode="&#x2a4;" horiz-adv-x="1970" 
d="M1120 1434h198l-72 -410h766l-28 -176l-386 -406q150 -18 227 -114t77 -264q0 -209 -148.5 -341.5t-393.5 -132.5q-204 0 -324 88t-120 238h204q0 -75 63 -115.5t179 -40.5q150 0 242 88.5t92 233.5q0 105 -61 160.5t-175 55.5h-104l26 156l362 396h-528l-150 -850h-198
l28 164q-137 -182 -340 -182q-179 0 -285.5 120t-106.5 324q0 175 66.5 319.5t182.5 227.5t257 83q131 0 217 -64.5t123 -181.5zM368 438q0 -136 68.5 -210t193.5 -74q136 0 233 124.5t97 313.5q0 133 -68.5 207.5t-191.5 74.5q-139 0 -235.5 -123.5t-96.5 -312.5z" />
    <glyph glyph-name="uni02A5" unicode="&#x2a5;" horiz-adv-x="2224" 
d="M1546 -208q19 118 50 208h-446l34 194l694 670h-658l-152 -864h-200l28 164q-137 -182 -340 -182q-179 0 -285.5 120t-106.5 324q0 175 66.5 319.5t182.5 227.5t257 83q131 0 217 -64.5t123 -181.5l110 624h200l-72 -410h888l-34 -194l-694 -670h252q80 156 193.5 242
t242.5 86q116 0 189 -63t73 -165q0 -111 -87 -185.5t-219 -74.5h-290q-33 -102 -52 -208h-164zM368 438q0 -136 68.5 -210t193.5 -74q136 0 233 124.5t97 313.5q0 133 -68.5 207.5t-191.5 74.5q-139 0 -235.5 -123.5t-96.5 -312.5zM2084 340q-150 0 -252 -180h224
q58 0 93 28.5t35 75.5q0 35 -27 55.5t-73 20.5z" />
    <glyph glyph-name="uni02A6" unicode="&#x2a6;" horiz-adv-x="1626" 
d="M1246 426l-170 22q-145 19 -214.5 83t-69.5 177q0 153 121.5 246.5t322.5 93.5q197 0 304.5 -85.5t107.5 -244.5h-196q0 91 -54 133.5t-170 42.5q-104 0 -169 -46.5t-65 -119.5q0 -45 34 -70.5t112 -35.5l180 -20q143 -18 211.5 -84.5t68.5 -185.5q0 -151 -106.5 -241.5
t-285.5 -90.5h-606q-74 0 -133.5 18t-104 56.5t-61.5 105t-1 156.5l92 522h-178l28 166h178l48 266h198l-48 -266h182l-30 -166h-180l-88 -496q-15 -92 14.5 -138t123.5 -46h542q101 0 157.5 36.5t56.5 99.5q0 46 -37 73t-115 39z" />
    <glyph glyph-name="uni02A7" unicode="&#x2a7;" horiz-adv-x="1194" 
d="M930 -42q-26 -160 -117.5 -239t-214.5 -79h-122l32 180h62q67 0 107.5 33t56.5 117l4 30h-212q-60 0 -107.5 16t-81.5 50.5t-45.5 88t0.5 127.5l102 576h-178l28 166h180l46 266h198l-46 -266h298l22 128q23 141 111 211.5t209 70.5h128l-30 -166h-76q-60 0 -96.5 -29
t-49.5 -101zM574 174h196l120 684h-298l-96 -550q-14 -75 6.5 -104.5t71.5 -29.5z" />
    <glyph glyph-name="uni02A8" unicode="&#x2a8;" horiz-adv-x="1694" 
d="M558 0q-150 0 -219.5 76t-44.5 214l100 568h-178l28 166h178l48 266h198l-48 -266h182l-30 -166h-180l-96 -542q-14 -81 7.5 -118.5t82.5 -37.5q90 0 184 64q-44 94 -44 206q0 168 76 310t206.5 224t285.5 82q200 0 320 -100.5t120 -269.5h-206q-8 98 -68.5 152
t-167.5 54q-158 0 -260 -129.5t-102 -330.5q0 -43 8 -72q118 97 216 146.5t216 49.5q137 0 214.5 -71.5t77.5 -198.5q0 -123 -127 -210.5t-307 -87.5q-233 0 -372 126q-158 -104 -298 -104zM1246 132q95 0 153.5 40t58.5 104q0 56 -34 85t-98 29q-76 0 -143 -40t-179 -134
q84 -84 242 -84z" />
    <glyph glyph-name="uni02A9" unicode="&#x2a9;" horiz-adv-x="1626" 
d="M216 858l28 166h160l22 128q23 141 112 211.5t210 70.5h126l-30 -166h-76q-60 0 -96.5 -29t-49.5 -101l-20 -114h200l-14 -78l14 78h198l-26 -142q63 79 148.5 123.5t183.5 44.5q187 0 276 -108t54 -294l-122 -692q-25 -156 -117.5 -243t-232.5 -87h-148l32 180h98
q75 0 116 38.5t56 123.5l112 638q23 128 -28 194t-174 66q-111 0 -195.5 -69.5t-104.5 -176.5l-110 -620h-196l150 858h-200l-152 -858h-198l152 858h-158z" />
    <glyph glyph-name="uni02AA" unicode="&#x2aa;" horiz-adv-x="1428" 
d="M1046 426l-172 22q-143 20 -212.5 83.5t-69.5 174.5q0 154 121 248t321 94q203 0 314.5 -89t111.5 -251h-196q-3 186 -230 186q-107 0 -173.5 -47t-66.5 -123q0 -43 34 -66.5t112 -35.5l178 -20q144 -18 213 -83.5t69 -182.5q0 -156 -113.5 -246t-308.5 -90h-524
q-164 0 -240 89.5t-48 246.5l192 1098h200l-188 -1072q-17 -98 15.5 -141t122.5 -43h446q117 0 181.5 35.5t64.5 98.5q0 48 -37 75t-117 39z" />
    <glyph glyph-name="uni02AB" unicode="&#x2ab;" horiz-adv-x="1288" 
d="M558 1434l-72 -410h894l-34 -194l-700 -670h580l-28 -160h-804l34 194l694 670h-664l-154 -864h-198l252 1434h200z" />
    <glyph glyph-name="uni02AC" unicode="&#x2ac;" horiz-adv-x="1096" 
d="M300 1332h168l28 -416l188 416h180l36 -416l186 416h180l-300 -594h-162l-52 416l-198 -416h-178zM170 594h168l28 -414l188 414h180l38 -414l184 414h180l-300 -594h-162l-52 416l-198 -416h-178z" />
    <glyph glyph-name="uni02AD" unicode="&#x2ad;" horiz-adv-x="1096" 
d="M1122 738h-166l78 442h-554l-78 -442h-166l106 594h884zM992 0h-166l78 444h-554l-78 -444h-166l106 594h884z" />
    <glyph glyph-name="uni02AE" unicode="&#x2ae;" horiz-adv-x="1092" 
d="M378 424q-45 -266 192 -266q106 0 190.5 72t103.5 182l108 612h196l-238 -1358h-198l84 478q-64 -82 -151.5 -126t-182.5 -44q-172 0 -258 107.5t-52 300.5l56 320q14 83 -10.5 115.5t-85.5 32.5h-58l32 174h78q133 0 203 -76.5t43 -227.5z" />
    <glyph glyph-name="uni02AF" unicode="&#x2af;" horiz-adv-x="1092" 
d="M378 424q-45 -266 192 -266q106 0 190.5 72t103.5 182l108 612h196l-184 -1050q-14 -76 10 -107t80 -31h38l-32 -170h-60q-127 0 -195.5 70.5t-42.5 211.5l36 202q-67 -84 -156 -130t-180 -46q-173 0 -259 107.5t-51 300.5l56 320q14 83 -10.5 115.5t-85.5 32.5h-58
l32 174h78q133 0 203 -76.5t43 -227.5z" />
    <glyph glyph-name="uni02BC" unicode="&#x2bc;" horiz-adv-x="330" 
d="M352 1410h226l-48 -272q-18 -112 -82.5 -167t-153.5 -55h-52l18 108h30q64 0 99.5 27t46.5 99l6 30h-130z" />
    <glyph glyph-name="uni02C8" unicode="&#x2c8;" horiz-adv-x="398" 
d="M358 1434h190l-116 -664h-192z" />
    <glyph glyph-name="uni02CC" unicode="&#x2cc;" horiz-adv-x="398" 
d="M164 330h190l-118 -664h-190z" />
    <glyph glyph-name="uni02D0" unicode="&#x2d0;" horiz-adv-x="504" 
d="M272 1024h322l-210 -286zM302 286l112 -286h-322z" />
    <glyph glyph-name="gravecomb" unicode="&#x300;" horiz-adv-x="614" 
d="M118 1366h216l184 -342h-156z" />
    <glyph glyph-name="acutecomb" unicode="&#x301;" horiz-adv-x="614" 
d="M746 1366l-326 -342h-174l258 342h242z" />
    <glyph glyph-name="uni0302" unicode="&#x302;" horiz-adv-x="614" 
d="M454 1380h194l254 -356h-186l-172 248l-254 -248h-216z" />
    <glyph glyph-name="tildecomb" unicode="&#x303;" horiz-adv-x="614" 
d="M370 1344q33 0 59.5 -7.5t49.5 -25.5t34 -28t33 -35q21 -27 32.5 -39t33 -24.5t44.5 -12.5q50 0 87 43.5t49 116.5h134q-27 -147 -102.5 -231.5t-181.5 -84.5q-40 0 -72.5 14.5t-48 29t-39.5 42.5q-5 6 -20 24.5t-21.5 25t-19 17.5t-25 15t-26.5 4q-48 0 -84 -44.5
t-48 -119.5h-140q29 154 99 237t173 83z" />
    <glyph glyph-name="uni0304" unicode="&#x304;" horiz-adv-x="614" 
d="M194 1214h654l-26 -156h-656z" />
    <glyph glyph-name="uni0306" unicode="&#x306;" horiz-adv-x="614" 
d="M914 1340q-33 -148 -138 -234t-256 -86q-170 0 -262 87t-80 233h178q-6 -174 162 -174q167 0 220 174h176z" />
    <glyph glyph-name="uni0307" unicode="&#x307;" horiz-adv-x="614" 
d="M424 1254h226l-40 -230h-226z" />
    <glyph glyph-name="uni0308" unicode="&#x308;" horiz-adv-x="614" 
d="M646 1240h214l-40 -216h-212zM198 1240h214l-40 -216h-212z" />
    <glyph glyph-name="hookabovecomb" unicode="&#x309;" horiz-adv-x="614" 
d="M418 1024q9 43 38.5 76.5t93.5 77.5q44 31 65 52t25 44q6 31 -13 50.5t-55 19.5q-86 0 -118 -82h-152q67 202 286 202q107 0 162 -51.5t40 -138.5q-9 -49 -36 -81.5t-84 -68.5q-52 -30 -74 -50.5t-28 -49.5h-150z" />
    <glyph glyph-name="uni030A" unicode="&#x30a;" horiz-adv-x="614" 
d="M680 1334q0 -140 -90 -232t-226 -92q-121 0 -193.5 67.5t-72.5 180.5q0 140 89.5 233t224.5 93q123 0 195.5 -68t72.5 -182zM244 1266q0 -58 34.5 -90t97.5 -32q70 0 114 50.5t44 131.5q0 59 -34.5 91.5t-97.5 32.5q-69 0 -113.5 -51t-44.5 -133z" />
    <glyph glyph-name="uni030B" unicode="&#x30b;" horiz-adv-x="614" 
d="M1076 1366l-350 -342h-160l280 342h230zM714 1366l-350 -342h-162l282 342h230z" />
    <glyph glyph-name="uni030C" unicode="&#x30c;" horiz-adv-x="614" 
d="M588 1024h-196l-256 356h192l172 -248l252 248h214z" />
    <glyph glyph-name="uni0312" unicode="&#x312;" horiz-adv-x="614" 
d="M610 1024h-228l50 272q20 112 84 167t152 55h52l-20 -106h-28q-63 0 -99 -28.5t-49 -99.5l-6 -30h132z" />
    <glyph glyph-name="uni0313" unicode="&#x313;" horiz-adv-x="614" 
d="M496 1518h226l-48 -274q-20 -111 -84 -165.5t-152 -54.5h-52l18 106h30q63 0 98 27.5t48 98.5l6 32h-132z" />
    <glyph glyph-name="uni0315" unicode="&#x315;" horiz-adv-x="614" 
d="M456 1466h184l-154 -442h-172z" />
    <glyph glyph-name="uni031B" unicode="&#x31b;" horiz-adv-x="614" 
d="M354 1122h152q63 0 102.5 30.5t53.5 111.5l14 82h164l-18 -94q-12 -72 -45 -125t-78.5 -81.5t-93.5 -42t-99 -13.5h-164z" />
    <glyph glyph-name="dotbelowcomb" unicode="&#x323;" horiz-adv-x="598" 
d="M160 -136h226l-32 -196h-228z" />
    <glyph glyph-name="uni0326" unicode="&#x326;" horiz-adv-x="614" 
d="M198 -72h228l-48 -272q-20 -111 -84.5 -165.5t-151.5 -54.5h-52l18 106h30q63 0 99 27.5t47 98.5l6 30h-130z" />
    <glyph glyph-name="uni0327" unicode="&#x327;" horiz-adv-x="614" 
d="M274 20h126l-62 -132h32q81 0 128.5 -54.5t47.5 -139.5q0 -118 -79.5 -185t-220.5 -67h-210l28 156h166q70 0 111 31.5t41 84.5q0 30 -21.5 47t-60.5 17h-68l-40 68z" />
    <glyph glyph-name="uni0328" unicode="&#x328;" horiz-adv-x="614" 
d="M402 0q-133 -83 -188.5 -151t-55.5 -149q0 -94 128 -94h132l-28 -164h-142q-119 0 -190.5 57t-71.5 153q0 107 69.5 196t200.5 152h146z" />
    <glyph glyph-name="uni1E9E" unicode="&#x1e9e;" horiz-adv-x="1292" 
d="M986 724q140 -14 220 -95t80 -219q0 -177 -138 -293.5t-348 -116.5h-210l30 170h142q87 0 153 22.5t102.5 60.5t54.5 80.5t18 88.5q0 78 -63.5 120t-180.5 42h-104l30 164l394 410q-126 36 -258 36q-206 0 -316 -89.5t-144 -286.5l-144 -818h-198l148 864q86 496 650 496
q238 0 458 -94l-30 -174z" />
    <glyph glyph-name="uni1EA0" unicode="&#x1ea0;" horiz-adv-x="1302" 
d="M1246 0h-202l-54 326h-538l-168 -326h-226l716 1332h226zM856 1108l-318 -614h422zM512 -136h226l-34 -196h-226z" />
    <glyph glyph-name="uni1EA1" unicode="&#x1ea1;" horiz-adv-x="1076" 
d="M1090 648l-112 -648h-204l24 136q-63 -75 -149 -115.5t-185 -40.5q-146 0 -237 79.5t-91 206.5q0 144 94.5 231t261.5 93l280 8q58 3 85 16.5t37 47.5l2 18q18 92 -47 152t-177 60q-193 0 -246 -164h-208q37 147 161 233.5t297 86.5q207 0 325.5 -114t88.5 -286zM342 286
q0 -68 52 -109t138 -41q110 0 195 65.5t115 172.5l14 80l-318 -10q-96 -1 -146 -44t-50 -114zM450 -138h226l-32 -194h-228z" />
    <glyph glyph-name="uni1EA2" unicode="&#x1ea2;" horiz-adv-x="1302" 
d="M772 1434q9 43 38.5 76.5t93.5 77.5q44 30 65 51.5t25 44.5q6 32 -12.5 51t-55.5 19q-41 0 -72 -21.5t-44 -60.5h-154q33 99 106 150.5t180 51.5q108 0 163 -51.5t39 -138.5q-9 -49 -36 -81.5t-84 -68.5q-52 -31 -74 -51t-28 -49h-150zM1246 0h-202l-54 326h-538
l-168 -326h-226l716 1332h226zM856 1108l-318 -614h422z" />
    <glyph glyph-name="uni1EA3" unicode="&#x1ea3;" horiz-adv-x="1076" 
d="M648 1146q9 43 38 75.5t94 78.5q45 31 65.5 51.5t24.5 44.5q6 32 -12.5 51t-55.5 19q-41 0 -72 -22t-44 -62h-154q33 100 106 152t180 52q108 0 163 -51.5t39 -138.5q-9 -49 -36 -81.5t-84 -70.5q-51 -29 -73.5 -49t-28.5 -49h-150zM1090 648l-112 -648h-204l24 136
q-63 -75 -149 -115.5t-185 -40.5q-146 0 -237 79.5t-91 206.5q0 144 94.5 231t261.5 93l280 8q58 3 85 16.5t37 47.5l2 18q18 92 -47 152t-177 60q-193 0 -246 -164h-208q37 147 161 233.5t297 86.5q207 0 325.5 -114t88.5 -286zM342 286q0 -68 52 -109t138 -41
q110 0 195 65.5t115 172.5l14 80l-318 -10q-96 -1 -146 -44t-50 -114z" />
    <glyph glyph-name="uni1EA4" unicode="&#x1ea4;" horiz-adv-x="1302" 
d="M1736 1980l-326 -342h-176l260 342h242zM856 1790h194l254 -356h-188l-172 248l-252 -248h-216zM1246 0h-202l-54 326h-538l-168 -326h-226l716 1332h226zM856 1108l-318 -614h422z" />
    <glyph glyph-name="uni1EA5" unicode="&#x1ea5;" horiz-adv-x="1076" 
d="M1544 1734l-326 -342h-176l260 342h242zM700 1500h194l254 -356h-188l-172 248l-252 -248h-216zM1090 648l-112 -648h-204l24 136q-63 -75 -149 -115.5t-185 -40.5q-146 0 -237 79.5t-91 206.5q0 144 94.5 231t261.5 93l280 8q58 3 85 16.5t37 47.5l2 18q18 92 -47 152
t-177 60q-193 0 -246 -164h-208q37 147 161 233.5t297 86.5q207 0 325.5 -114t88.5 -286zM342 286q0 -68 52 -109t138 -41q110 0 195 65.5t115 172.5l14 80l-318 -10q-96 -1 -146 -44t-50 -114z" />
    <glyph glyph-name="uni1EA6" unicode="&#x1ea6;" horiz-adv-x="1302" 
d="M1114 1980h216l184 -342h-156zM856 1790h194l254 -356h-188l-172 248l-252 -248h-216zM1246 0h-202l-54 326h-538l-168 -326h-226l716 1332h226zM856 1108l-318 -614h422z" />
    <glyph glyph-name="uni1EA7" unicode="&#x1ea7;" horiz-adv-x="1076" 
d="M916 1734h218l182 -342h-154zM700 1500h194l254 -356h-188l-172 248l-252 -248h-216zM1090 648l-112 -648h-204l24 136q-63 -75 -149 -115.5t-185 -40.5q-146 0 -237 79.5t-91 206.5q0 144 94.5 231t261.5 93l280 8q58 3 85 16.5t37 47.5l2 18q18 92 -47 152t-177 60
q-193 0 -246 -164h-208q37 147 161 233.5t297 86.5q207 0 325.5 -114t88.5 -286zM342 286q0 -68 52 -109t138 -41q110 0 195 65.5t115 172.5l14 80l-318 -10q-96 -1 -146 -44t-50 -114z" />
    <glyph glyph-name="uni1EA8" unicode="&#x1ea8;" horiz-adv-x="1302" 
d="M1264 1638q9 43 38.5 76.5t93.5 77.5q44 30 65 51.5t25 44.5q6 32 -12.5 51t-55.5 19q-41 0 -72 -21.5t-44 -60.5h-154q33 99 106 150.5t180 51.5q108 0 163 -51.5t39 -138.5q-9 -49 -36 -81.5t-84 -68.5q-52 -31 -74 -51t-28 -49h-150zM856 1790h194l254 -356h-188
l-172 248l-252 -248h-216zM1246 0h-202l-54 326h-538l-168 -326h-226l716 1332h226zM856 1108l-318 -614h422z" />
    <glyph glyph-name="uni1EA9" unicode="&#x1ea9;" horiz-adv-x="1076" 
d="M1074 1392q9 43 38.5 76.5t93.5 77.5q44 30 65 51.5t25 44.5q6 32 -12.5 51t-55.5 19q-41 0 -72 -21.5t-44 -60.5h-154q33 99 106 150.5t180 51.5q108 0 163 -51.5t39 -138.5q-9 -49 -36 -81.5t-84 -68.5q-52 -31 -74 -51t-28 -49h-150zM700 1500h194l254 -356h-188
l-172 248l-252 -248h-216zM1090 648l-112 -648h-204l24 136q-63 -75 -149 -115.5t-185 -40.5q-146 0 -237 79.5t-91 206.5q0 144 94.5 231t261.5 93l280 8q58 3 85 16.5t37 47.5l2 18q18 92 -47 152t-177 60q-193 0 -246 -164h-208q37 147 161 233.5t297 86.5
q207 0 325.5 -114t88.5 -286zM342 286q0 -68 52 -109t138 -41q110 0 195 65.5t115 172.5l14 80l-318 -10q-96 -1 -146 -44t-50 -114z" />
    <glyph glyph-name="uni1EAA" unicode="&#x1eaa;" horiz-adv-x="1302" 
d="M854 2200q43 0 79.5 -17t54 -33.5t44.5 -47.5q41 -48 60 -61q23 -15 50 -15q49 0 85.5 44t50.5 118h132q-25 -148 -101 -232t-181 -84q-40 0 -73.5 15t-47 27.5t-41.5 41.5q-4 5 -19 24.5t-21 25.5t-19 18t-25.5 16t-27.5 4q-46 0 -82 -45t-50 -119h-138q27 154 97 237
t173 83zM856 1790h194l254 -356h-188l-172 248l-252 -248h-216zM1246 0h-202l-54 326h-538l-168 -326h-226l716 1332h226zM856 1108l-318 -614h422z" />
    <glyph glyph-name="uni1EAB" unicode="&#x1eab;" horiz-adv-x="1076" 
d="M692 1926q43 0 79.5 -17t53.5 -32.5t45 -46.5q21 -27 32.5 -39t33 -24.5t44.5 -12.5q49 0 85.5 43t50.5 117h132q-25 -147 -101 -231.5t-181 -84.5q-31 0 -55 6.5t-45 22t-31.5 25.5t-30.5 32q-4 5 -16 20.5t-17 21t-16 16.5t-19 15.5t-19.5 8.5t-24.5 4q-47 0 -83 -44.5
t-49 -119.5h-138q27 154 97 237t173 83zM700 1500h194l254 -356h-188l-172 248l-252 -248h-216zM1090 648l-112 -648h-204l24 136q-63 -75 -149 -115.5t-185 -40.5q-146 0 -237 79.5t-91 206.5q0 144 94.5 231t261.5 93l280 8q58 3 85 16.5t37 47.5l2 18q18 92 -47 152
t-177 60q-193 0 -246 -164h-208q37 147 161 233.5t297 86.5q207 0 325.5 -114t88.5 -286zM342 286q0 -68 52 -109t138 -41q110 0 195 65.5t115 172.5l14 80l-318 -10q-96 -1 -146 -44t-50 -114z" />
    <glyph glyph-name="uni1EAC" unicode="&#x1eac;" horiz-adv-x="1302" 
d="M852 1790h194l254 -356h-188l-172 248l-252 -248h-216zM1246 0h-202l-54 326h-538l-168 -326h-226l716 1332h226zM856 1108l-318 -614h422zM512 -136h226l-34 -196h-226z" />
    <glyph glyph-name="uni1EAD" unicode="&#x1ead;" horiz-adv-x="1076" 
d="M700 1500h194l254 -356h-188l-172 248l-252 -248h-216zM1090 648l-112 -648h-204l24 136q-63 -75 -149 -115.5t-185 -40.5q-146 0 -237 79.5t-91 206.5q0 144 94.5 231t261.5 93l280 8q58 3 85 16.5t37 47.5l2 18q18 92 -47 152t-177 60q-193 0 -246 -164h-208
q37 147 161 233.5t297 86.5q207 0 325.5 -114t88.5 -286zM342 286q0 -68 52 -109t138 -41q110 0 195 65.5t115 172.5l14 80l-318 -10q-96 -1 -146 -44t-50 -114zM450 -138h226l-32 -194h-228z" />
    <glyph glyph-name="uni1EAE" unicode="&#x1eae;" horiz-adv-x="1302" 
d="M1312 2098l-326 -342h-176l260 342h242zM1316 1750q-33 -148 -138.5 -234t-257.5 -86q-169 0 -260.5 87t-79.5 233h178q-5 -85 36 -129.5t126 -44.5q168 0 218 174h178zM1246 0h-202l-54 326h-538l-168 -326h-226l716 1332h226zM856 1108l-318 -614h422z" />
    <glyph glyph-name="uni1EAF" unicode="&#x1eaf;" horiz-adv-x="1076" 
d="M1148 1824l-326 -342h-174l258 342h242zM1160 1460q-33 -148 -138.5 -234t-257.5 -86q-169 0 -260.5 87t-79.5 233h178q-5 -85 36 -129.5t126 -44.5q168 0 218 174h178zM1090 648l-112 -648h-204l24 136q-63 -75 -149 -115.5t-185 -40.5q-146 0 -237 79.5t-91 206.5
q0 144 94.5 231t261.5 93l280 8q58 3 85 16.5t37 47.5l2 18q18 92 -47 152t-177 60q-193 0 -246 -164h-208q37 147 161 233.5t297 86.5q207 0 325.5 -114t88.5 -286zM342 286q0 -68 52 -109t138 -41q110 0 195 65.5t115 172.5l14 80l-318 -10q-96 -1 -146 -44t-50 -114z" />
    <glyph glyph-name="uni1EB0" unicode="&#x1eb0;" horiz-adv-x="1302" 
d="M682 2098h216l184 -342h-154zM1316 1750q-33 -148 -138.5 -234t-257.5 -86q-169 0 -260.5 87t-79.5 233h178q-5 -85 36 -129.5t126 -44.5q168 0 218 174h178zM1246 0h-202l-54 326h-538l-168 -326h-226l716 1332h226zM856 1108l-318 -614h422z" />
    <glyph glyph-name="uni1EB1" unicode="&#x1eb1;" horiz-adv-x="1076" 
d="M518 1824h218l182 -342h-154zM1160 1460q-33 -148 -138.5 -234t-257.5 -86q-169 0 -260.5 87t-79.5 233h178q-5 -85 36 -129.5t126 -44.5q168 0 218 174h178zM1090 648l-112 -648h-204l24 136q-63 -75 -149 -115.5t-185 -40.5q-146 0 -237 79.5t-91 206.5q0 144 94.5 231
t261.5 93l280 8q58 3 85 16.5t37 47.5l2 18q18 92 -47 152t-177 60q-193 0 -246 -164h-208q37 147 161 233.5t297 86.5q207 0 325.5 -114t88.5 -286zM342 286q0 -68 52 -109t138 -41q110 0 195 65.5t115 172.5l14 80l-318 -10q-96 -1 -146 -44t-50 -114z" />
    <glyph glyph-name="uni1EB2" unicode="&#x1eb2;" horiz-adv-x="1302" 
d="M862 1756q9 43 38.5 76.5t93.5 77.5q44 30 65 51.5t25 44.5q6 32 -12.5 51t-55.5 19q-41 0 -72 -21.5t-44 -60.5h-154q33 99 106 150.5t180 51.5q108 0 163 -51.5t39 -138.5q-9 -49 -36 -81.5t-84 -68.5q-52 -31 -74 -51t-28 -49h-150zM1316 1750q-33 -148 -138.5 -234
t-257.5 -86q-169 0 -260.5 87t-79.5 233h178q-5 -85 36 -129.5t126 -44.5q168 0 218 174h178zM1246 0h-202l-54 326h-538l-168 -326h-226l716 1332h226zM856 1108l-318 -614h422z" />
    <glyph glyph-name="uni1EB3" unicode="&#x1eb3;" horiz-adv-x="1076" 
d="M700 1482q7 42 36 74.5t96 79.5q44 31 64 51.5t24 44.5q6 32 -12.5 51t-55.5 19q-85 0 -116 -84h-152q31 100 104 152t180 52q108 0 163 -51.5t39 -138.5q-9 -49 -36 -81.5t-84 -70.5q-50 -28 -72 -48.5t-28 -49.5h-150zM1160 1460q-33 -148 -138.5 -234t-257.5 -86
q-169 0 -260.5 87t-79.5 233h178q-5 -85 36 -129.5t126 -44.5q168 0 218 174h178zM1090 648l-112 -648h-204l24 136q-63 -75 -149 -115.5t-185 -40.5q-146 0 -237 79.5t-91 206.5q0 144 94.5 231t261.5 93l280 8q58 3 85 16.5t37 47.5l2 18q18 92 -47 152t-177 60
q-193 0 -246 -164h-208q37 147 161 233.5t297 86.5q207 0 325.5 -114t88.5 -286zM342 286q0 -68 52 -109t138 -41q110 0 195 65.5t115 172.5l14 80l-318 -10q-96 -1 -146 -44t-50 -114z" />
    <glyph glyph-name="uni1EB4" unicode="&#x1eb4;" horiz-adv-x="1302" 
d="M850 2152q43 0 79 -17t52.5 -33t44.5 -48q41 -48 60 -61q23 -15 50 -15q50 0 87 43.5t49 116.5h134q-27 -147 -102.5 -231.5t-181.5 -84.5q-40 0 -72.5 14.5t-48 29t-39.5 42.5q-6 7 -20 24.5t-21.5 25.5t-19.5 18.5t-24.5 15t-26.5 4.5q-48 0 -84 -45.5t-48 -120.5h-140
q29 154 99 238t173 84zM1316 1750q-33 -148 -138.5 -234t-257.5 -86q-169 0 -260.5 87t-79.5 233h178q-5 -85 36 -129.5t126 -44.5q168 0 218 174h178zM1246 0h-202l-54 326h-538l-168 -326h-226l716 1332h226zM856 1108l-318 -614h422z" />
    <glyph glyph-name="uni1EB5" unicode="&#x1eb5;" horiz-adv-x="1076" 
d="M694 1878q43 0 79.5 -17t54 -33.5t44.5 -47.5q41 -48 60 -61q23 -15 50 -15q49 0 85.5 43t50.5 117h132q-25 -147 -101 -231.5t-181 -84.5q-31 0 -55 6.5t-45 22t-31.5 25.5t-30.5 32q-4 5 -19 24.5t-21 25.5t-19 18t-25.5 16t-27.5 4q-46 0 -82 -45.5t-50 -120.5h-138
q27 154 97 238t173 84zM1160 1460q-33 -148 -138.5 -234t-257.5 -86q-169 0 -260.5 87t-79.5 233h178q-5 -85 36 -129.5t126 -44.5q168 0 218 174h178zM1090 648l-112 -648h-204l24 136q-63 -75 -149 -115.5t-185 -40.5q-146 0 -237 79.5t-91 206.5q0 144 94.5 231t261.5 93
l280 8q58 3 85 16.5t37 47.5l2 18q18 92 -47 152t-177 60q-193 0 -246 -164h-208q37 147 161 233.5t297 86.5q207 0 325.5 -114t88.5 -286zM342 286q0 -68 52 -109t138 -41q110 0 195 65.5t115 172.5l14 80l-318 -10q-96 -1 -146 -44t-50 -114z" />
    <glyph glyph-name="uni1EB6" unicode="&#x1eb6;" horiz-adv-x="1302" 
d="M1312 1750q-33 -148 -138.5 -234t-257.5 -86q-169 0 -260.5 87t-79.5 233h178q-5 -85 36 -129.5t126 -44.5q168 0 218 174h178zM1246 0h-202l-54 326h-538l-168 -326h-226l716 1332h226zM856 1108l-318 -614h422zM512 -136h226l-34 -196h-226z" />
    <glyph glyph-name="uni1EB7" unicode="&#x1eb7;" horiz-adv-x="1076" 
d="M1160 1460q-33 -148 -137.5 -234t-256.5 -86q-170 0 -261 87.5t-79 232.5h178q-5 -84 35.5 -129t124.5 -45q169 0 220 174h176zM1090 648l-112 -648h-204l24 136q-63 -75 -149 -115.5t-185 -40.5q-146 0 -237 79.5t-91 206.5q0 144 94.5 231t261.5 93l280 8q58 3 85 16.5
t37 47.5l2 18q18 92 -47 152t-177 60q-193 0 -246 -164h-208q37 147 161 233.5t297 86.5q207 0 325.5 -114t88.5 -286zM342 286q0 -68 52 -109t138 -41q110 0 195 65.5t115 172.5l14 80l-318 -10q-96 -1 -146 -44t-50 -114zM450 -138h226l-32 -194h-228z" />
    <glyph glyph-name="uni1EB8" unicode="&#x1eb8;" horiz-adv-x="1104" 
d="M1256 1332l-34 -188h-716l-66 -372h658l-32 -188h-660l-70 -398h718l-32 -186h-916l234 1332h916zM444 -136h226l-32 -196h-228z" />
    <glyph glyph-name="uni1EB9" unicode="&#x1eb9;" horiz-adv-x="1150" 
d="M166 438q0 169 65 306.5t187 218.5t278 81q158 0 271.5 -70t160.5 -189t22 -263l-12 -64h-770q-2 -10 -2 -30q0 -138 70.5 -209t207.5 -71q195 0 266 176h216q-60 -168 -181.5 -255t-296.5 -87q-227 0 -354.5 121t-127.5 335zM704 888q-118 0 -201.5 -75.5t-116.5 -210.5
h568q16 127 -54.5 206.5t-195.5 79.5zM454 -136h226l-34 -196h-226z" />
    <glyph glyph-name="uni1EBA" unicode="&#x1eba;" horiz-adv-x="1104" 
d="M756 1434q7 43 37 76t95 78q43 30 63.5 51.5t24.5 44.5q6 32 -12.5 51t-55.5 19q-84 0 -116 -82h-152q31 99 104 150.5t180 51.5q108 0 163 -51.5t39 -138.5q-9 -49 -36 -81.5t-84 -68.5q-51 -31 -72.5 -51t-27.5 -49h-150zM1256 1332l-34 -188h-716l-66 -372h658
l-32 -188h-660l-70 -398h718l-32 -186h-916l234 1332h916z" />
    <glyph glyph-name="uni1EBB" unicode="&#x1ebb;" horiz-adv-x="1150" 
d="M688 1144q9 43 38.5 76.5t93.5 77.5q44 30 65 51.5t25 44.5q6 32 -12.5 51t-55.5 19q-41 0 -72 -21.5t-44 -60.5h-154q33 99 106 150.5t180 51.5q108 0 163 -51.5t39 -138.5q-9 -49 -36 -81.5t-84 -68.5q-52 -31 -74 -51t-28 -49h-150zM166 438q0 169 65 306.5t187 218.5
t278 81q158 0 271.5 -70t160.5 -189t22 -263l-12 -64h-770q-2 -10 -2 -30q0 -138 70.5 -209t207.5 -71q195 0 266 176h216q-60 -168 -181.5 -255t-296.5 -87q-227 0 -354.5 121t-127.5 335zM704 888q-118 0 -201.5 -75.5t-116.5 -210.5h568q16 127 -54.5 206.5t-195.5 79.5z
" />
    <glyph glyph-name="uni1EBC" unicode="&#x1ebc;" horiz-adv-x="1104" 
d="M682 1754q26 0 50.5 -7t38.5 -13t35.5 -24.5t26.5 -23.5t27 -28q23 -29 32.5 -39.5t31.5 -23.5t46 -13q50 0 86 43.5t48 116.5h134q-25 -147 -101 -231.5t-183 -84.5q-40 0 -72.5 14.5t-48 29t-39.5 42.5q-6 7 -20 24.5t-21 25t-19 18t-24.5 14.5t-27.5 4
q-47 0 -83.5 -45t-48.5 -119h-138q27 154 97 237t173 83zM1256 1332l-34 -188h-716l-66 -372h658l-32 -188h-660l-70 -398h718l-32 -186h-916l234 1332h916z" />
    <glyph glyph-name="uni1EBD" unicode="&#x1ebd;" horiz-adv-x="1150" 
d="M634 1466q33 0 59.5 -7.5t50 -25.5t34.5 -28.5t34 -36.5q2 -2 11.5 -13.5t12 -14.5t11 -12.5t13 -12.5t13 -9t15 -8t15.5 -4t19 -2q50 0 86 43.5t48 116.5h134q-25 -147 -101 -231.5t-183 -84.5q-40 0 -72.5 14.5t-48 29t-39.5 42.5q-5 6 -24 30t-27 31.5t-25.5 17
t-35.5 9.5q-47 0 -83.5 -45.5t-48.5 -120.5h-138q27 154 97 238t173 84zM166 438q0 169 65 306.5t187 218.5t278 81q158 0 271.5 -70t160.5 -189t22 -263l-12 -64h-770q-2 -10 -2 -30q0 -138 70.5 -209t207.5 -71q195 0 266 176h216q-60 -168 -181.5 -255t-296.5 -87
q-227 0 -354.5 121t-127.5 335zM704 888q-118 0 -201.5 -75.5t-116.5 -210.5h568q16 127 -54.5 206.5t-195.5 79.5z" />
    <glyph glyph-name="uni1EBE" unicode="&#x1ebe;" horiz-adv-x="1104" 
d="M1686 1980l-326 -342h-174l258 342h242zM792 1790h194l254 -356h-188l-172 248l-252 -248h-216zM1256 1332l-34 -188h-716l-66 -372h658l-32 -188h-660l-70 -398h718l-32 -186h-916l234 1332h916z" />
    <glyph glyph-name="uni1EBF" unicode="&#x1ebf;" horiz-adv-x="1150" 
d="M1572 1734l-326 -342h-174l258 342h242zM724 1500h196l254 -356h-188l-172 248l-252 -248h-218zM166 438q0 169 65 306.5t187 218.5t278 81q158 0 271.5 -70t160.5 -189t22 -263l-12 -64h-770q-2 -10 -2 -30q0 -138 70.5 -209t207.5 -71q195 0 266 176h216
q-60 -168 -181.5 -255t-296.5 -87q-227 0 -354.5 121t-127.5 335zM704 888q-118 0 -201.5 -75.5t-116.5 -210.5h568q16 127 -54.5 206.5t-195.5 79.5z" />
    <glyph glyph-name="uni1EC0" unicode="&#x1ec0;" horiz-adv-x="1104" 
d="M1018 1980h216l184 -342h-156zM792 1790h194l254 -356h-188l-172 248l-252 -248h-216zM1256 1332l-34 -188h-716l-66 -372h658l-32 -188h-660l-70 -398h718l-32 -186h-916l234 1332h916z" />
    <glyph glyph-name="uni1EC1" unicode="&#x1ec1;" horiz-adv-x="1150" 
d="M950 1734h216l184 -342h-154zM724 1500h196l254 -356h-188l-172 248l-252 -248h-218zM166 438q0 169 65 306.5t187 218.5t278 81q158 0 271.5 -70t160.5 -189t22 -263l-12 -64h-770q-2 -10 -2 -30q0 -138 70.5 -209t207.5 -71q195 0 266 176h216q-60 -168 -181.5 -255
t-296.5 -87q-227 0 -354.5 121t-127.5 335zM704 888q-118 0 -201.5 -75.5t-116.5 -210.5h568q16 127 -54.5 206.5t-195.5 79.5z" />
    <glyph glyph-name="uni1EC2" unicode="&#x1ec2;" horiz-adv-x="1104" 
d="M1176 1642q7 43 37 76t95 78q43 30 63.5 51.5t24.5 44.5q6 32 -12.5 51t-55.5 19q-84 0 -116 -82h-152q31 99 104 150.5t180 51.5q108 0 163 -51.5t39 -138.5q-9 -49 -36 -81.5t-84 -68.5q-51 -31 -72.5 -51t-27.5 -49h-150zM792 1790h194l254 -356h-188l-172 248
l-252 -248h-216zM1256 1332l-34 -188h-716l-66 -372h658l-32 -188h-660l-70 -398h718l-32 -186h-916l234 1332h916z" />
    <glyph glyph-name="uni1EC3" unicode="&#x1ec3;" horiz-adv-x="1150" 
d="M1106 1394q7 43 37 76t95 78q43 30 63.5 51.5t24.5 44.5q6 32 -12.5 51t-55.5 19q-84 0 -116 -82h-152q31 99 104 150.5t180 51.5q108 0 163 -51.5t39 -138.5q-9 -49 -36 -81.5t-84 -68.5q-51 -31 -72.5 -51t-27.5 -49h-150zM724 1500h196l254 -356h-188l-172 248
l-252 -248h-218zM166 438q0 169 65 306.5t187 218.5t278 81q158 0 271.5 -70t160.5 -189t22 -263l-12 -64h-770q-2 -10 -2 -30q0 -138 70.5 -209t207.5 -71q195 0 266 176h216q-60 -168 -181.5 -255t-296.5 -87q-227 0 -354.5 121t-127.5 335zM704 888q-118 0 -201.5 -75.5
t-116.5 -210.5h568q16 127 -54.5 206.5t-195.5 79.5z" />
    <glyph glyph-name="uni1EC4" unicode="&#x1ec4;" horiz-adv-x="1104" 
d="M782 2214q43 0 79.5 -17t54 -33.5t44.5 -47.5q41 -48 60 -61q23 -15 50 -15q49 0 85.5 43t50.5 117h132q-25 -147 -101 -231.5t-181 -84.5q-31 0 -55 6.5t-45 22t-31.5 25.5t-30.5 32q-4 5 -19 24.5t-21 25.5t-19 18t-25.5 16t-27.5 4q-46 0 -82 -45.5t-50 -120.5h-138
q27 154 97 238t173 84zM792 1790h194l254 -356h-188l-172 248l-252 -248h-216zM1256 1332l-34 -188h-716l-66 -372h658l-32 -188h-660l-70 -398h718l-32 -186h-916l234 1332h916z" />
    <glyph glyph-name="uni1EC5" unicode="&#x1ec5;" horiz-adv-x="1150" 
d="M710 1926q26 0 50.5 -7t38.5 -13t35.5 -24.5t26.5 -23.5t27 -28q23 -29 32.5 -39.5t31.5 -23.5t46 -13q50 0 86 43.5t48 116.5h134q-25 -147 -101 -231.5t-183 -84.5q-40 0 -72.5 14.5t-48 29t-39.5 42.5q-6 7 -20 24.5t-21 25t-19 18t-24.5 14.5t-27.5 4
q-47 0 -83.5 -45t-48.5 -119h-138q27 154 97 237t173 83zM724 1500h196l254 -356h-188l-172 248l-252 -248h-218zM166 438q0 169 65 306.5t187 218.5t278 81q158 0 271.5 -70t160.5 -189t22 -263l-12 -64h-770q-2 -10 -2 -30q0 -138 70.5 -209t207.5 -71q195 0 266 176h216
q-60 -168 -181.5 -255t-296.5 -87q-227 0 -354.5 121t-127.5 335zM704 888q-118 0 -201.5 -75.5t-116.5 -210.5h568q16 127 -54.5 206.5t-195.5 79.5z" />
    <glyph glyph-name="uni1EC6" unicode="&#x1ec6;" horiz-adv-x="1104" 
d="M792 1790h194l254 -356h-188l-172 248l-252 -248h-216zM1256 1332l-34 -188h-716l-66 -372h658l-32 -188h-660l-70 -398h718l-32 -186h-916l234 1332h916zM444 -136h226l-32 -196h-228z" />
    <glyph glyph-name="uni1EC7" unicode="&#x1ec7;" horiz-adv-x="1150" 
d="M724 1500h196l254 -356h-188l-172 248l-252 -248h-218zM166 438q0 169 65 306.5t187 218.5t278 81q158 0 271.5 -70t160.5 -189t22 -263l-12 -64h-770q-2 -10 -2 -30q0 -138 70.5 -209t207.5 -71q195 0 266 176h216q-60 -168 -181.5 -255t-296.5 -87q-227 0 -354.5 121
t-127.5 335zM704 888q-118 0 -201.5 -75.5t-116.5 -210.5h568q16 127 -54.5 206.5t-195.5 79.5zM454 -136h226l-34 -196h-226z" />
    <glyph glyph-name="uni1EC8" unicode="&#x1ec8;" 
d="M378 1434q7 43 37 76t95 78q43 30 63.5 51.5t24.5 44.5q6 32 -12.5 51t-55.5 19q-84 0 -116 -82h-152q31 99 104 150.5t180 51.5q108 0 163 -51.5t39 -138.5q-9 -49 -36 -81.5t-84 -68.5q-51 -31 -72.5 -51t-27.5 -49h-150zM340 1332h198l-234 -1332h-200z" />
    <glyph glyph-name="uni1EC9" unicode="&#x1ec9;" 
d="M326 1146q9 43 38.5 76.5t93.5 77.5q44 31 65 52t25 44q6 31 -13 50.5t-55 19.5q-86 0 -118 -82h-152q67 202 286 202q107 0 162 -51.5t40 -138.5q-9 -49 -36 -81.5t-84 -68.5q-52 -30 -74 -50.5t-28 -49.5h-150zM286 1024h198l-180 -1024h-200z" />
    <glyph glyph-name="uni1ECA" unicode="&#x1eca;" 
d="M340 1332h198l-234 -1332h-200zM66 -136h226l-34 -196h-226z" />
    <glyph glyph-name="uni1ECB" unicode="&#x1ecb;" 
d="M332 1356h226l-34 -196h-228zM286 1024h200l-180 -1024h-202zM72 -136h226l-34 -196h-226z" />
    <glyph glyph-name="uni1ECC" unicode="&#x1ecc;" horiz-adv-x="1388" 
d="M192 544q0 170 51 320t140.5 257t216.5 169t272 62q247 0 400.5 -161t153.5 -421q0 -229 -83.5 -407.5t-237 -278.5t-351.5 -100q-251 0 -406.5 155t-155.5 405zM1224 772q0 188 -96 292t-270 104q-131 0 -237 -81t-165.5 -223t-59.5 -318q0 -180 98 -279t276 -99
q202 0 328 167.5t126 436.5zM548 -136h226l-34 -196h-228z" />
    <glyph glyph-name="uni1ECD" unicode="&#x1ecd;" horiz-adv-x="1154" 
d="M166 434q0 174 70.5 315t194 221t275.5 80q207 0 331.5 -122.5t124.5 -329.5q0 -131 -41.5 -246t-113.5 -197t-172 -129.5t-213 -47.5q-207 0 -331.5 124t-124.5 332zM960 596q0 132 -69 205t-195 73q-136 0 -232 -125t-96 -315q0 -133 70 -206.5t196 -73.5
q133 0 229.5 126t96.5 316zM440 -136h226l-34 -194h-228z" />
    <glyph glyph-name="uni1ECE" unicode="&#x1ece;" horiz-adv-x="1388" 
d="M860 1434q9 43 38.5 76.5t93.5 77.5q44 31 65 52t25 44q6 31 -13 50.5t-55 19.5q-86 0 -118 -82h-152q67 202 286 202q107 0 162 -51.5t40 -138.5q-9 -49 -36 -81.5t-84 -68.5q-52 -30 -74 -50.5t-28 -49.5h-150zM192 544q0 170 51 320t140.5 257t216.5 169t272 62
q247 0 400.5 -161t153.5 -421q0 -229 -83.5 -407.5t-237 -278.5t-351.5 -100q-251 0 -406.5 155t-155.5 405zM1224 772q0 188 -96 292t-270 104q-131 0 -237 -81t-165.5 -223t-59.5 -318q0 -180 98 -279t276 -99q202 0 328 167.5t126 436.5z" />
    <glyph glyph-name="uni1ECF" unicode="&#x1ecf;" horiz-adv-x="1154" 
d="M680 1146q7 42 36 74.5t96 79.5q44 31 64 51.5t24 44.5q6 32 -12.5 51t-55.5 19q-85 0 -116 -84h-152q31 100 104 152t180 52q108 0 163 -51.5t39 -138.5q-9 -49 -36 -81.5t-84 -70.5q-50 -28 -72 -48.5t-28 -49.5h-150zM166 434q0 174 70.5 315t194 221t275.5 80
q207 0 331.5 -122.5t124.5 -329.5q0 -131 -41.5 -246t-113.5 -197t-172 -129.5t-213 -47.5q-207 0 -331.5 124t-124.5 332zM960 596q0 132 -69 205t-195 73q-136 0 -232 -125t-96 -315q0 -133 70 -206.5t196 -73.5q133 0 229.5 126t96.5 316z" />
    <glyph glyph-name="uni1ED0" unicode="&#x1ed0;" horiz-adv-x="1388" 
d="M1778 1980l-326 -342h-176l260 342h242zM902 1790h196l254 -356h-188l-172 248l-252 -248h-218zM192 544q0 170 51 320t140.5 257t216.5 169t272 62q247 0 400.5 -161t153.5 -421q0 -229 -83.5 -407.5t-237 -278.5t-351.5 -100q-251 0 -406.5 155t-155.5 405zM1224 772
q0 188 -96 292t-270 104q-131 0 -237 -81t-165.5 -223t-59.5 -318q0 -180 98 -279t276 -99q202 0 328 167.5t126 436.5z" />
    <glyph glyph-name="uni1ED1" unicode="&#x1ed1;" horiz-adv-x="1154" 
d="M1556 1734l-326 -342h-174l258 342h242zM716 1500h194l254 -354h-188l-172 246l-252 -246h-216zM166 434q0 174 70.5 315t194 221t275.5 80q207 0 331.5 -122.5t124.5 -329.5q0 -131 -41.5 -246t-113.5 -197t-172 -129.5t-213 -47.5q-207 0 -331.5 124t-124.5 332z
M960 596q0 132 -69 205t-195 73q-136 0 -232 -125t-96 -315q0 -133 70 -206.5t196 -73.5q133 0 229.5 126t96.5 316z" />
    <glyph glyph-name="uni1ED2" unicode="&#x1ed2;" horiz-adv-x="1388" 
d="M1130 1980h216l184 -342h-156zM902 1790h196l254 -356h-188l-172 248l-252 -248h-218zM192 544q0 170 51 320t140.5 257t216.5 169t272 62q247 0 400.5 -161t153.5 -421q0 -229 -83.5 -407.5t-237 -278.5t-351.5 -100q-251 0 -406.5 155t-155.5 405zM1224 772
q0 188 -96 292t-270 104q-131 0 -237 -81t-165.5 -223t-59.5 -318q0 -180 98 -279t276 -99q202 0 328 167.5t126 436.5z" />
    <glyph glyph-name="uni1ED3" unicode="&#x1ed3;" horiz-adv-x="1154" 
d="M912 1734h216l184 -342h-154zM716 1500h194l254 -354h-188l-172 246l-252 -246h-216zM166 434q0 174 70.5 315t194 221t275.5 80q207 0 331.5 -122.5t124.5 -329.5q0 -131 -41.5 -246t-113.5 -197t-172 -129.5t-213 -47.5q-207 0 -331.5 124t-124.5 332zM960 596
q0 132 -69 205t-195 73q-136 0 -232 -125t-96 -315q0 -133 70 -206.5t196 -73.5q133 0 229.5 126t96.5 316z" />
    <glyph glyph-name="uni1ED4" unicode="&#x1ed4;" horiz-adv-x="1388" 
d="M1292 1638q7 43 37 76t95 78q43 30 63.5 51.5t24.5 44.5q6 32 -12.5 51t-55.5 19q-84 0 -116 -82h-152q31 99 104 150.5t180 51.5q108 0 163 -51.5t39 -138.5q-9 -49 -36 -81.5t-84 -68.5q-51 -31 -72.5 -51t-27.5 -49h-150zM902 1790h196l254 -356h-188l-172 248
l-252 -248h-218zM192 544q0 170 51 320t140.5 257t216.5 169t272 62q247 0 400.5 -161t153.5 -421q0 -229 -83.5 -407.5t-237 -278.5t-351.5 -100q-251 0 -406.5 155t-155.5 405zM1224 772q0 188 -96 292t-270 104q-131 0 -237 -81t-165.5 -223t-59.5 -318q0 -180 98 -279
t276 -99q202 0 328 167.5t126 436.5z" />
    <glyph glyph-name="uni1ED5" unicode="&#x1ed5;" horiz-adv-x="1154" 
d="M1088 1394q9 43 38.5 76.5t93.5 77.5q44 30 65 51.5t25 44.5q6 32 -12.5 51t-55.5 19q-41 0 -72 -21.5t-44 -60.5h-154q33 99 106 150.5t180 51.5q108 0 163 -51.5t39 -138.5q-9 -49 -36 -81.5t-84 -68.5q-52 -31 -74 -51t-28 -49h-150zM716 1500h194l254 -354h-188
l-172 246l-252 -246h-216zM166 434q0 174 70.5 315t194 221t275.5 80q207 0 331.5 -122.5t124.5 -329.5q0 -131 -41.5 -246t-113.5 -197t-172 -129.5t-213 -47.5q-207 0 -331.5 124t-124.5 332zM960 596q0 132 -69 205t-195 73q-136 0 -232 -125t-96 -315q0 -133 70 -206.5
t196 -73.5q133 0 229.5 126t96.5 316z" />
    <glyph glyph-name="uni1ED6" unicode="&#x1ed6;" horiz-adv-x="1388" 
d="M888 2214q33 0 59.5 -7.5t50 -25.5t34.5 -28.5t34 -36.5q2 -2 11.5 -13.5t12 -14.5t11 -12.5t13 -12.5t13 -9t15 -8t15.5 -4t19 -2q50 0 86 43.5t48 116.5h134q-25 -147 -101 -231.5t-183 -84.5q-40 0 -72.5 14.5t-48 29t-39.5 42.5q-5 6 -24 30t-27 31.5t-25.5 17
t-35.5 9.5q-47 0 -83.5 -45.5t-48.5 -120.5h-138q27 154 97 238t173 84zM902 1790h196l254 -356h-188l-172 248l-252 -248h-218zM192 544q0 170 51 320t140.5 257t216.5 169t272 62q247 0 400.5 -161t153.5 -421q0 -229 -83.5 -407.5t-237 -278.5t-351.5 -100
q-251 0 -406.5 155t-155.5 405zM1224 772q0 188 -96 292t-270 104q-131 0 -237 -81t-165.5 -223t-59.5 -318q0 -180 98 -279t276 -99q202 0 328 167.5t126 436.5z" />
    <glyph glyph-name="uni1ED7" unicode="&#x1ed7;" horiz-adv-x="1154" 
d="M720 1926q26 0 50.5 -7t38.5 -13t35.5 -24.5t26.5 -23.5t27 -28q23 -29 32.5 -39.5t31.5 -23.5t46 -13q50 0 86 43.5t48 116.5h134q-25 -147 -101 -231.5t-183 -84.5q-40 0 -72.5 14.5t-48 29t-39.5 42.5q-6 7 -20 24.5t-21 25t-19 18t-24.5 14.5t-27.5 4
q-47 0 -83.5 -45t-48.5 -119h-138q27 154 97 237t173 83zM716 1500h194l254 -354h-188l-172 246l-252 -246h-216zM166 434q0 174 70.5 315t194 221t275.5 80q207 0 331.5 -122.5t124.5 -329.5q0 -131 -41.5 -246t-113.5 -197t-172 -129.5t-213 -47.5q-207 0 -331.5 124
t-124.5 332zM960 596q0 132 -69 205t-195 73q-136 0 -232 -125t-96 -315q0 -133 70 -206.5t196 -73.5q133 0 229.5 126t96.5 316z" />
    <glyph glyph-name="uni1ED8" unicode="&#x1ed8;" horiz-adv-x="1388" 
d="M896 1790h194l254 -356h-186l-172 248l-254 -248h-216zM192 544q0 170 51 320t140.5 257t216.5 169t272 62q247 0 400.5 -161t153.5 -421q0 -229 -83.5 -407.5t-237 -278.5t-351.5 -100q-251 0 -406.5 155t-155.5 405zM1224 772q0 188 -96 292t-270 104q-131 0 -237 -81
t-165.5 -223t-59.5 -318q0 -180 98 -279t276 -99q202 0 328 167.5t126 436.5zM548 -136h226l-34 -196h-228z" />
    <glyph glyph-name="uni1ED9" unicode="&#x1ed9;" horiz-adv-x="1154" 
d="M716 1500h194l254 -354h-188l-172 246l-252 -246h-216zM166 434q0 174 70.5 315t194 221t275.5 80q207 0 331.5 -122.5t124.5 -329.5q0 -131 -41.5 -246t-113.5 -197t-172 -129.5t-213 -47.5q-207 0 -331.5 124t-124.5 332zM960 596q0 132 -69 205t-195 73
q-136 0 -232 -125t-96 -315q0 -133 70 -206.5t196 -73.5q133 0 229.5 126t96.5 316zM440 -136h226l-34 -194h-228z" />
    <glyph glyph-name="uni1EDA" unicode="&#x1eda;" horiz-adv-x="1388" 
d="M1242 1776l-326 -342h-176l260 342h242zM192 544q0 223 88.5 408.5t244.5 292.5t347 107q90 0 164 -20h234q62 0 101 30t53 110l14 82h164l-16 -94q-10 -58 -34.5 -104t-56 -75t-70.5 -48t-77 -27t-78 -8q156 -159 156 -428q0 -224 -85 -403t-239 -281t-348 -102
q-256 0 -409 152.5t-153 407.5zM1224 772q0 187 -96.5 291.5t-269.5 104.5q-131 0 -237 -81t-165.5 -223t-59.5 -318q0 -179 98 -278.5t276 -99.5q202 0 328 167.5t126 436.5z" />
    <glyph glyph-name="uni1EDB" unicode="&#x1edb;" horiz-adv-x="1154" 
d="M1074 1488l-326 -342h-174l258 342h242zM166 434q0 174 70.5 315t194 221t275.5 80q103 0 184 -30h136q62 0 101 30.5t53 111.5l16 80h162l-16 -92q-21 -122 -96.5 -185t-175.5 -75q92 -113 92 -292q0 -131 -41.5 -246t-113.5 -197t-172 -129.5t-213 -47.5
q-207 0 -331.5 124t-124.5 332zM960 596q0 132 -69 205t-195 73q-136 0 -232 -125t-96 -315q0 -133 70 -206.5t196 -73.5q133 0 229.5 126t96.5 316z" />
    <glyph glyph-name="uni1EDC" unicode="&#x1edc;" horiz-adv-x="1388" 
d="M612 1776h216l184 -342h-154zM192 544q0 223 88.5 408.5t244.5 292.5t347 107q90 0 164 -20h234q62 0 101 30t53 110l14 82h164l-16 -94q-10 -58 -34.5 -104t-56 -75t-70.5 -48t-77 -27t-78 -8q156 -159 156 -428q0 -224 -85 -403t-239 -281t-348 -102q-256 0 -409 152.5
t-153 407.5zM1224 772q0 187 -96.5 291.5t-269.5 104.5q-131 0 -237 -81t-165.5 -223t-59.5 -318q0 -179 98 -278.5t276 -99.5q202 0 328 167.5t126 436.5z" />
    <glyph glyph-name="uni1EDD" unicode="&#x1edd;" horiz-adv-x="1154" 
d="M444 1488h218l182 -342h-154zM166 434q0 174 70.5 315t194 221t275.5 80q103 0 184 -30h136q62 0 101 30.5t53 111.5l16 80h162l-16 -92q-21 -122 -96.5 -185t-175.5 -75q92 -113 92 -292q0 -131 -41.5 -246t-113.5 -197t-172 -129.5t-213 -47.5q-207 0 -331.5 124
t-124.5 332zM960 596q0 132 -69 205t-195 73q-136 0 -232 -125t-96 -315q0 -133 70 -206.5t196 -73.5q133 0 229.5 126t96.5 316z" />
    <glyph glyph-name="uni1EDE" unicode="&#x1ede;" horiz-adv-x="1388" 
d="M792 1434q9 43 38.5 76.5t93.5 77.5q44 30 65 51.5t25 44.5q6 32 -12.5 51t-55.5 19q-41 0 -72 -21.5t-44 -60.5h-154q33 99 106 150.5t180 51.5q108 0 163 -51.5t39 -138.5q-9 -49 -36 -81.5t-84 -68.5q-52 -31 -74 -51t-28 -49h-150zM192 544q0 223 88.5 408.5
t244.5 292.5t347 107q90 0 164 -20h234q62 0 101 30t53 110l14 82h164l-16 -94q-10 -58 -34.5 -104t-56 -75t-70.5 -48t-77 -27t-78 -8q156 -159 156 -428q0 -224 -85 -403t-239 -281t-348 -102q-256 0 -409 152.5t-153 407.5zM1224 772q0 187 -96.5 291.5t-269.5 104.5
q-131 0 -237 -81t-165.5 -223t-59.5 -318q0 -179 98 -278.5t276 -99.5q202 0 328 167.5t126 436.5z" />
    <glyph glyph-name="uni1EDF" unicode="&#x1edf;" horiz-adv-x="1154" 
d="M624 1146q9 43 38 75.5t94 78.5q46 32 66 52t24 44q6 31 -13 50.5t-55 19.5q-87 0 -118 -84h-152q67 204 286 204q107 0 162 -51.5t40 -138.5q-9 -49 -36 -81.5t-84 -70.5q-51 -28 -73.5 -48.5t-28.5 -49.5h-150zM166 434q0 174 70.5 315t194 221t275.5 80q103 0 184 -30
h136q62 0 101 30.5t53 111.5l16 80h162l-16 -92q-21 -122 -96.5 -185t-175.5 -75q92 -113 92 -292q0 -131 -41.5 -246t-113.5 -197t-172 -129.5t-213 -47.5q-207 0 -331.5 124t-124.5 332zM960 596q0 132 -69 205t-195 73q-136 0 -232 -125t-96 -315q0 -133 70 -206.5
t196 -73.5q133 0 229.5 126t96.5 316z" />
    <glyph glyph-name="uni1EE0" unicode="&#x1ee0;" horiz-adv-x="1388" 
d="M744 1754q26 0 50.5 -7t38.5 -13t35.5 -24.5t26.5 -23.5t27 -28q23 -29 32.5 -39.5t31.5 -23.5t46 -13q50 0 86 43.5t48 116.5h134q-25 -147 -101 -231.5t-183 -84.5q-40 0 -72.5 14.5t-48 29t-39.5 42.5q-6 7 -20 24.5t-21 25t-19 18t-24.5 14.5t-27.5 4
q-47 0 -83.5 -45t-48.5 -119h-138q27 154 97 237t173 83zM192 544q0 223 88.5 408.5t244.5 292.5t347 107q90 0 164 -20h234q62 0 101 30t53 110l14 82h164l-16 -94q-10 -58 -34.5 -104t-56 -75t-70.5 -48t-77 -27t-78 -8q156 -159 156 -428q0 -224 -85 -403t-239 -281
t-348 -102q-256 0 -409 152.5t-153 407.5zM1224 772q0 187 -96.5 291.5t-269.5 104.5q-131 0 -237 -81t-165.5 -223t-59.5 -318q0 -179 98 -278.5t276 -99.5q202 0 328 167.5t126 436.5z" />
    <glyph glyph-name="uni1EE1" unicode="&#x1ee1;" horiz-adv-x="1154" 
d="M576 1466q43 0 79 -17t52.5 -33t44.5 -48q41 -48 60 -61q23 -15 50 -15q50 0 87 44.5t49 117.5h134q-27 -149 -102.5 -232.5t-181.5 -83.5q-40 0 -73 14.5t-47.5 28t-39.5 41.5q-6 7 -20 24.5t-21.5 25.5t-19.5 18.5t-24.5 15t-26.5 4.5q-48 0 -84 -45t-48 -119h-140
q29 154 99 237t173 83zM166 434q0 174 70.5 315t194 221t275.5 80q103 0 184 -30h136q62 0 101 30.5t53 111.5l16 80h162l-16 -92q-21 -122 -96.5 -185t-175.5 -75q92 -113 92 -292q0 -131 -41.5 -246t-113.5 -197t-172 -129.5t-213 -47.5q-207 0 -331.5 124t-124.5 332z
M960 596q0 132 -69 205t-195 73q-136 0 -232 -125t-96 -315q0 -133 70 -206.5t196 -73.5q133 0 229.5 126t96.5 316z" />
    <glyph glyph-name="uni1EE2" unicode="&#x1ee2;" horiz-adv-x="1388" 
d="M192 544q0 223 88.5 408.5t244.5 292.5t347 107q90 0 164 -20h234q62 0 101 30t53 110l14 82h164l-16 -94q-10 -58 -34.5 -104t-56 -75t-70.5 -48t-77 -27t-78 -8q156 -159 156 -428q0 -224 -85 -403t-239 -281t-348 -102q-256 0 -409 152.5t-153 407.5zM1224 772
q0 187 -96.5 291.5t-269.5 104.5q-131 0 -237 -81t-165.5 -223t-59.5 -318q0 -179 98 -278.5t276 -99.5q202 0 328 167.5t126 436.5zM542 -136h226l-34 -196h-226z" />
    <glyph glyph-name="uni1EE3" unicode="&#x1ee3;" horiz-adv-x="1154" 
d="M166 434q0 174 70.5 315t194 221t275.5 80q103 0 184 -30h136q62 0 101 30.5t53 111.5l16 80h162l-16 -92q-21 -122 -96.5 -185t-175.5 -75q92 -113 92 -292q0 -131 -41.5 -246t-113.5 -197t-172 -129.5t-213 -47.5q-207 0 -331.5 124t-124.5 332zM960 596q0 132 -69 205
t-195 73q-136 0 -232 -125t-96 -315q0 -133 70 -206.5t196 -73.5q133 0 229.5 126t96.5 316zM436 -136h226l-32 -194h-228z" />
    <glyph glyph-name="uni1EE4" unicode="&#x1ee4;" horiz-adv-x="1226" 
d="M328 1332h200l-138 -792q-32 -170 47.5 -269t248.5 -99q133 0 221.5 82.5t114.5 231.5l146 846h200l-152 -864q-39 -220 -185.5 -352t-352.5 -132q-168 0 -289.5 72t-174 203.5t-22.5 298.5zM480 -136h226l-34 -196h-228z" />
    <glyph glyph-name="uni1EE5" unicode="&#x1ee5;" horiz-adv-x="1092" 
d="M374 442q-23 -133 27.5 -208.5t166.5 -75.5q118 0 197 72t99 196l104 598h198l-178 -1024h-198l24 146q-64 -79 -152 -122.5t-184 -43.5q-108 0 -186.5 61t-110.5 161.5t-11 215.5l108 606h200zM432 -136h226l-34 -196h-228z" />
    <glyph glyph-name="uni1EE6" unicode="&#x1ee6;" horiz-adv-x="1226" 
d="M788 1434q9 43 38.5 76.5t93.5 77.5q44 30 65 51.5t25 44.5q6 32 -12.5 51t-55.5 19q-41 0 -72 -21.5t-44 -60.5h-154q33 99 106 150.5t180 51.5q108 0 163 -51.5t39 -138.5q-9 -49 -36 -81.5t-84 -68.5q-52 -31 -74 -51t-28 -49h-150zM328 1332h200l-138 -792
q-32 -170 47.5 -269t248.5 -99q133 0 221.5 82.5t114.5 231.5l146 846h200l-152 -864q-39 -220 -185.5 -352t-352.5 -132q-168 0 -289.5 72t-174 203.5t-22.5 298.5z" />
    <glyph glyph-name="uni1EE7" unicode="&#x1ee7;" horiz-adv-x="1092" 
d="M656 1146q9 43 38.5 76.5t93.5 77.5q44 31 65 52t25 44q6 31 -13 50.5t-55 19.5q-86 0 -118 -82h-152q67 202 286 202q107 0 162 -51.5t40 -138.5q-9 -49 -36 -81.5t-84 -68.5q-52 -30 -74 -50.5t-28 -49.5h-150zM374 442q-23 -133 27.5 -208.5t166.5 -75.5q118 0 197 72
t99 196l104 598h198l-178 -1024h-198l24 146q-64 -79 -152 -122.5t-184 -43.5q-108 0 -186.5 61t-110.5 161.5t-11 215.5l108 606h200z" />
    <glyph glyph-name="uni1EE8" unicode="&#x1ee8;" horiz-adv-x="1252" 
d="M1230 1776l-326 -342h-176l260 342h242zM328 1332h200l-138 -792q-32 -170 47.5 -269t248.5 -99q133 0 221.5 82.5t114.5 231.5l146 846h186q47 7 78 39t44 101l14 82h164l-16 -94q-24 -130 -105.5 -192.5t-188.5 -69.5l-128 -730q-39 -220 -185.5 -352t-352.5 -132
q-168 0 -289.5 72t-174 203.5t-22.5 298.5z" />
    <glyph glyph-name="uni1EE9" unicode="&#x1ee9;" horiz-adv-x="1122" 
d="M1104 1488l-326 -342h-176l260 342h242zM374 442q-23 -133 27.5 -208.5t166.5 -75.5q118 0 197 72t99 196l104 598h152q63 0 102.5 30.5t53.5 111.5l14 82h164l-18 -94q-12 -68 -41.5 -119t-71.5 -80t-86.5 -44.5t-94.5 -18.5l-154 -892h-198l24 146q-64 -79 -152 -122.5
t-184 -43.5q-108 0 -186.5 61t-110.5 161.5t-11 215.5l108 606h200z" />
    <glyph glyph-name="uni1EEA" unicode="&#x1eea;" horiz-adv-x="1252" 
d="M600 1776h216l184 -342h-154zM328 1332h200l-138 -792q-32 -170 47.5 -269t248.5 -99q133 0 221.5 82.5t114.5 231.5l146 846h186q47 7 78 39t44 101l14 82h164l-16 -94q-24 -130 -105.5 -192.5t-188.5 -69.5l-128 -730q-39 -220 -185.5 -352t-352.5 -132
q-168 0 -289.5 72t-174 203.5t-22.5 298.5z" />
    <glyph glyph-name="uni1EEB" unicode="&#x1eeb;" horiz-adv-x="1122" 
d="M474 1488h216l184 -342h-154zM374 442q-23 -133 27.5 -208.5t166.5 -75.5q118 0 197 72t99 196l104 598h152q63 0 102.5 30.5t53.5 111.5l14 82h164l-18 -94q-12 -68 -41.5 -119t-71.5 -80t-86.5 -44.5t-94.5 -18.5l-154 -892h-198l24 146q-64 -79 -152 -122.5
t-184 -43.5q-108 0 -186.5 61t-110.5 161.5t-11 215.5l108 606h200z" />
    <glyph glyph-name="uni1EEC" unicode="&#x1eec;" horiz-adv-x="1252" 
d="M780 1434q9 43 38.5 76.5t93.5 77.5q44 30 65 51.5t25 44.5q6 32 -12.5 51t-55.5 19q-41 0 -72 -21.5t-44 -60.5h-154q33 99 106 150.5t180 51.5q108 0 163 -51.5t39 -138.5q-9 -49 -36 -81.5t-84 -68.5q-52 -31 -74 -51t-28 -49h-150zM328 1332h200l-138 -792
q-32 -170 47.5 -269t248.5 -99q133 0 221.5 82.5t114.5 231.5l146 846h186q47 7 78 39t44 101l14 82h164l-16 -94q-24 -130 -105.5 -192.5t-188.5 -69.5l-128 -730q-39 -220 -185.5 -352t-352.5 -132q-168 0 -289.5 72t-174 203.5t-22.5 298.5z" />
    <glyph glyph-name="uni1EED" unicode="&#x1eed;" horiz-adv-x="1122" 
d="M654 1146q9 43 38.5 76.5t93.5 77.5q44 30 65 51.5t25 44.5q6 32 -12.5 51t-55.5 19q-41 0 -72 -21.5t-44 -60.5h-154q33 99 106 150.5t180 51.5q108 0 163 -51.5t39 -138.5q-9 -49 -36 -81.5t-84 -68.5q-52 -31 -74 -51t-28 -49h-150zM374 442q-23 -133 27.5 -208.5
t166.5 -75.5q118 0 197 72t99 196l104 598h152q63 0 102.5 30.5t53.5 111.5l14 82h164l-18 -94q-12 -68 -41.5 -119t-71.5 -80t-86.5 -44.5t-94.5 -18.5l-154 -892h-198l24 146q-64 -79 -152 -122.5t-184 -43.5q-108 0 -186.5 61t-110.5 161.5t-11 215.5l108 606h200z" />
    <glyph glyph-name="uni1EEE" unicode="&#x1eee;" horiz-adv-x="1252" 
d="M732 1754q26 0 50.5 -7t38.5 -13t35.5 -24.5t26.5 -23.5t27 -28q23 -29 32.5 -39.5t31.5 -23.5t46 -13q50 0 86 43.5t48 116.5h134q-25 -147 -101 -231.5t-183 -84.5q-40 0 -72.5 14.5t-48 29t-39.5 42.5q-6 7 -20 24.5t-21 25t-19 18t-24.5 14.5t-27.5 4
q-47 0 -83.5 -45t-48.5 -119h-138q27 154 97 237t173 83zM328 1332h200l-138 -792q-32 -170 47.5 -269t248.5 -99q133 0 221.5 82.5t114.5 231.5l146 846h186q47 7 78 39t44 101l14 82h164l-16 -94q-24 -130 -105.5 -192.5t-188.5 -69.5l-128 -730q-39 -220 -185.5 -352
t-352.5 -132q-168 0 -289.5 72t-174 203.5t-22.5 298.5z" />
    <glyph glyph-name="uni1EEF" unicode="&#x1eef;" horiz-adv-x="1122" 
d="M606 1466q26 0 50.5 -7t38.5 -13t35.5 -24.5t26.5 -23.5t27 -28q23 -29 32.5 -39.5t31.5 -23.5t46 -13q50 0 86 43.5t48 116.5h134q-25 -147 -101 -231.5t-183 -84.5q-40 0 -72.5 14.5t-48 29t-39.5 42.5q-6 7 -20 24.5t-21 25t-19 18t-24.5 14.5t-27.5 4
q-47 0 -83.5 -45t-48.5 -119h-138q27 154 97 237t173 83zM374 442q-23 -133 27.5 -208.5t166.5 -75.5q118 0 197 72t99 196l104 598h152q63 0 102.5 30.5t53.5 111.5l14 82h164l-18 -94q-12 -68 -41.5 -119t-71.5 -80t-86.5 -44.5t-94.5 -18.5l-154 -892h-198l24 146
q-64 -79 -152 -122.5t-184 -43.5q-108 0 -186.5 61t-110.5 161.5t-11 215.5l108 606h200z" />
    <glyph glyph-name="uni1EF0" unicode="&#x1ef0;" horiz-adv-x="1252" 
d="M328 1332h200l-138 -792q-32 -170 47.5 -269t248.5 -99q133 0 221.5 82.5t114.5 231.5l146 846h186q47 7 78 39t44 101l14 82h164l-16 -94q-24 -130 -105.5 -192.5t-188.5 -69.5l-128 -730q-39 -220 -185.5 -352t-352.5 -132q-168 0 -289.5 72t-174 203.5t-22.5 298.5z
M472 -136h226l-32 -196h-228z" />
    <glyph glyph-name="uni1EF1" unicode="&#x1ef1;" horiz-adv-x="1122" 
d="M374 442q-23 -133 27.5 -208.5t166.5 -75.5q118 0 197 72t99 196l104 598h152q63 0 102.5 30.5t53.5 111.5l14 82h164l-18 -94q-12 -68 -41.5 -119t-71.5 -80t-86.5 -44.5t-94.5 -18.5l-154 -892h-198l24 146q-64 -79 -152 -122.5t-184 -43.5q-108 0 -186.5 61
t-110.5 161.5t-11 215.5l108 606h200zM388 -136h226l-34 -196h-228z" />
    <glyph glyph-name="Ygrave" unicode="&#x1ef2;" horiz-adv-x="1222" 
d="M614 1776h216l184 -342h-154zM590 454l-296 878h212l210 -658l446 658h238l-612 -878l-82 -454h-196z" />
    <glyph glyph-name="ygrave" unicode="&#x1ef3;" horiz-adv-x="1140" 
d="M526 1488h216l184 -342h-156zM92 -154h142q68 0 106.5 26.5t75.5 93.5l36 68l-208 990h204l158 -792l428 792h224l-596 -1078q-57 -105 -111 -164t-124.5 -88.5t-168.5 -29.5h-194z" />
    <glyph glyph-name="uni1EF4" unicode="&#x1ef4;" horiz-adv-x="1222" 
d="M590 454l-296 878h212l210 -658l446 658h238l-612 -878l-82 -454h-196zM474 -136h226l-34 -196h-226z" />
    <glyph glyph-name="uni1EF5" unicode="&#x1ef5;" horiz-adv-x="1140" 
d="M92 -154h142q68 0 106.5 26.5t75.5 93.5l36 68l-208 990h204l158 -792l428 792h224l-596 -1078q-57 -105 -111 -164t-124.5 -88.5t-168.5 -29.5h-194zM724 -136h226l-34 -196h-228z" />
    <glyph glyph-name="uni1EF6" unicode="&#x1ef6;" horiz-adv-x="1222" 
d="M794 1434q9 43 38.5 76.5t93.5 77.5q44 30 65 51.5t25 44.5q6 32 -12.5 51t-55.5 19q-41 0 -72 -21.5t-44 -60.5h-154q33 99 106 150.5t180 51.5q108 0 163 -51.5t39 -138.5q-9 -49 -36 -81.5t-84 -68.5q-52 -31 -74 -51t-28 -49h-150zM590 454l-296 878h212l210 -658
l446 658h238l-612 -878l-82 -454h-196z" />
    <glyph glyph-name="uni1EF7" unicode="&#x1ef7;" horiz-adv-x="1140" 
d="M706 1146q9 43 38.5 76.5t93.5 77.5q44 31 65 52t25 44q6 31 -13 50.5t-55 19.5q-86 0 -118 -82h-152q67 202 286 202q107 0 162 -51.5t40 -138.5q-9 -49 -36 -81.5t-84 -68.5q-52 -30 -74 -50.5t-28 -49.5h-150zM92 -154h142q68 0 106.5 26.5t75.5 93.5l36 68l-208 990
h204l158 -792l428 792h224l-596 -1078q-57 -105 -111 -164t-124.5 -88.5t-168.5 -29.5h-194z" />
    <glyph glyph-name="uni1EF8" unicode="&#x1ef8;" horiz-adv-x="1222" 
d="M746 1754q26 0 50.5 -7t38.5 -13t35.5 -24.5t26.5 -23.5t27 -28q23 -29 32.5 -39.5t31.5 -23.5t46 -13q50 0 86 43.5t48 116.5h134q-25 -147 -101 -231.5t-183 -84.5q-40 0 -72.5 14.5t-48 29t-39.5 42.5q-6 7 -20 24.5t-21 25t-19 18t-24.5 14.5t-27.5 4
q-47 0 -83.5 -45t-48.5 -119h-138q27 154 97 237t173 83zM590 454l-296 878h212l210 -658l446 658h238l-612 -878l-82 -454h-196z" />
    <glyph glyph-name="uni1EF9" unicode="&#x1ef9;" horiz-adv-x="1140" 
d="M658 1466q33 0 59.5 -7.5t49.5 -25.5t34 -28t33 -35q21 -27 32.5 -39t33 -24.5t44.5 -12.5q50 0 87 43.5t49 116.5h134q-27 -147 -102.5 -231.5t-181.5 -84.5q-40 0 -72.5 14.5t-48 29t-39.5 42.5q-5 6 -20 24.5t-21.5 25t-19 17.5t-25 15t-26.5 4q-48 0 -84 -44.5
t-48 -119.5h-140q29 154 99 237t173 83zM92 -154h142q68 0 106.5 26.5t75.5 93.5l36 68l-208 990h204l158 -792l428 792h224l-596 -1078q-57 -105 -111 -164t-124.5 -88.5t-168.5 -29.5h-194z" />
    <glyph glyph-name="endash" unicode="&#x2013;" horiz-adv-x="1370" 
d="M180 656h1242l-32 -180h-1242z" />
    <glyph glyph-name="emdash" unicode="&#x2014;" horiz-adv-x="2022" 
d="M180 656h1894l-32 -180h-1894z" />
    <glyph glyph-name="quoteleft" unicode="&#x2018;" 
d="M462 900h-226l40 230l148 304h146l-202 -304h134z" />
    <glyph glyph-name="quoteright" unicode="&#x2019;" 
d="M344 1434h226l-42 -230l-148 -304h-144l202 304h-136z" />
    <glyph glyph-name="quotesinglbase" unicode="&#x201a;" 
d="M130 230h226l-38 -230l-150 -304h-144l202 304h-136z" />
    <glyph glyph-name="quotereversed" unicode="&#x201b;" 
d="M556 1434l-40 -230h-136l96 -304h-146l-40 304l40 230h226z" />
    <glyph glyph-name="quotedblleft" unicode="&#x201c;" horiz-adv-x="744" 
d="M800 900h-226l42 230l148 304h144l-202 -304h136zM462 900h-226l40 230l148 304h146l-202 -304h134z" />
    <glyph glyph-name="quotedblright" unicode="&#x201d;" horiz-adv-x="744" 
d="M344 1434h226l-42 -230l-148 -304h-144l202 304h-136zM682 1434h226l-40 -230l-148 -304h-146l202 304h-134z" />
    <glyph glyph-name="quotedblbase" unicode="&#x201e;" horiz-adv-x="744" 
d="M130 230h226l-38 -230l-150 -304h-144l202 304h-136zM468 230h228l-42 -230l-146 -304h-146l202 304h-136z" />
    <glyph glyph-name="uni201F" unicode="&#x201f;" horiz-adv-x="744" 
d="M896 1434l-42 -230h-134l94 -304h-144l-42 304l40 230h228zM556 1434l-40 -230h-136l96 -304h-146l-40 304l40 230h226z" />
    <glyph glyph-name="dagger" unicode="&#x2020;" horiz-adv-x="710" 
d="M408 858h-194l30 166h192l48 266h198l-46 -266h192l-30 -166h-192l-152 -858h-198z" />
    <glyph glyph-name="daggerdbl" unicode="&#x2021;" horiz-adv-x="710" 
d="M636 1024h192l-30 -166h-192l-76 -426h194l-30 -166h-192l-48 -266h-198l48 266h-194l30 166h192l76 426h-194l30 166h192l48 266h198z" />
    <glyph glyph-name="bullet" unicode="&#x2022;" horiz-adv-x="502" 
d="M202 732q0 75 51.5 126.5t126.5 51.5t127.5 -51.5t52.5 -126.5t-52.5 -127.5t-127.5 -52.5t-126.5 52.5t-51.5 127.5z" />
    <glyph glyph-name="uni2023" unicode="&#x2023;" horiz-adv-x="502" 
d="M162 506l80 450l314 -250z" />
    <glyph glyph-name="ellipsis" unicode="&#x2026;" horiz-adv-x="1204" 
d="M928 230h226l-40 -230h-226zM530 230h226l-40 -230h-228zM130 230h226l-38 -230h-228z" />
    <glyph glyph-name="perthousand" unicode="&#x2030;" horiz-adv-x="2644" 
d="M218 870q0 207 113 347.5t281 140.5q144 0 230 -92.5t86 -247.5q0 -207 -114 -348.5t-280 -141.5q-144 0 -230 93t-86 249zM1336 1332h186l-780 -1332h-186zM760 1016q0 91 -41.5 141.5t-116.5 50.5q-93 0 -153.5 -96t-60.5 -242q0 -91 41 -141.5t115 -50.5
q93 0 154.5 97t61.5 241zM1950 318q0 207 113.5 346.5t280.5 139.5q144 0 230 -92.5t86 -247.5q0 -206 -114 -347t-280 -141q-144 0 -230 93t-86 249zM1146 318q0 207 114 346.5t282 139.5q144 0 230 -92.5t86 -247.5q0 -206 -114 -347t-280 -141q-144 0 -231 93t-87 249z
M2492 464q0 91 -41 140.5t-115 49.5q-93 0 -154.5 -95.5t-61.5 -240.5q0 -91 41 -141.5t115 -50.5q93 0 154.5 97t61.5 241zM1690 464q0 91 -41 140.5t-115 49.5q-93 0 -154.5 -95.5t-61.5 -240.5q0 -91 41 -141.5t115 -50.5q93 0 154.5 97t61.5 241z" />
    <glyph glyph-name="minute" unicode="&#x2032;" horiz-adv-x="572" 
d="M756 1332l-370 -342h-160l302 342h228z" />
    <glyph glyph-name="second" unicode="&#x2033;" horiz-adv-x="922" 
d="M1106 1332l-370 -342h-160l302 342h228zM756 1332l-370 -342h-160l302 342h228z" />
    <glyph glyph-name="uni2034" unicode="&#x2034;" horiz-adv-x="1270" 
d="M756 1332l-370 -342h-160l302 342h228zM1456 1332l-370 -342h-162l302 342h230zM1106 1332l-370 -342h-160l302 342h228z" />
    <glyph glyph-name="uni2035" unicode="&#x2035;" horiz-adv-x="572" 
d="M286 1332h228l182 -342h-160z" />
    <glyph glyph-name="uni2036" unicode="&#x2036;" horiz-adv-x="922" 
d="M286 1332h228l182 -342h-160zM636 1332h230l180 -342h-160z" />
    <glyph glyph-name="uni2037" unicode="&#x2037;" horiz-adv-x="1270" 
d="M984 1332h230l182 -342h-162zM286 1332h228l182 -342h-160zM636 1332h230l180 -342h-160z" />
    <glyph glyph-name="guilsinglleft" unicode="&#x2039;" horiz-adv-x="624" 
d="M762 1078l-42 -250l-402 -266l306 -280l-38 -200l-438 386l40 224z" />
    <glyph glyph-name="guilsinglright" unicode="&#x203a;" horiz-adv-x="624" 
d="M80 82l42 252l402 264l-306 280l38 200l438 -386l-40 -224z" />
    <glyph glyph-name="uni2070" unicode="&#x2070;" horiz-adv-x="840" 
d="M272 1136q32 186 148.5 300t275.5 114q156 0 231.5 -114t42.5 -300q-33 -187 -148.5 -300.5t-271.5 -113.5q-159 0 -235 113t-43 301zM800 1136q23 125 -12 194.5t-120 69.5t-145 -69.5t-83 -194.5q-22 -126 13.5 -195t122.5 -69q85 0 143 69t81 195z" />
    <glyph glyph-name="uni2074" unicode="&#x2074;" horiz-adv-x="836" 
d="M806 928l-32 -182h-164l32 182h-414l28 158l458 450h198l-82 -470h136l-24 -138h-136zM666 1066l54 300l-298 -300h244z" />
    <glyph glyph-name="uni2075" unicode="&#x2075;" horiz-adv-x="800" 
d="M730 1006q12 67 -19 105.5t-101 38.5q-113 0 -182 -86h-168l144 472h554l-26 -142h-408l-60 -202q89 86 224 86q121 0 181 -74t39 -192q-24 -133 -126 -211.5t-248 -78.5q-141 0 -221 68t-71 178h178q-6 -48 29.5 -76t104.5 -28q73 0 118.5 36t57.5 106z" />
    <glyph glyph-name="uni2076" unicode="&#x2076;" horiz-adv-x="826" 
d="M272 1132q35 197 149 307.5t283 110.5q123 0 194 -61t74 -169h-178q-3 92 -114 92q-90 0 -147.5 -66t-80.5 -192q-2 -16 -6 -44q42 67 112 106.5t148 39.5q119 0 182 -73t42 -185q-21 -118 -118.5 -193t-231.5 -75q-174 0 -257.5 109t-50.5 293zM462 994q-9 -54 27.5 -90
t102.5 -36q63 0 107 34.5t55 91.5q9 56 -23.5 89t-96.5 33q-68 0 -115 -33.5t-57 -88.5z" />
    <glyph glyph-name="uni2077" unicode="&#x2077;" horiz-adv-x="836" 
d="M570 746h-200q30 112 76.5 206.5t107.5 171t121 133.5t139 119h-500l28 160h694l-32 -180q-343 -242 -434 -610z" />
    <glyph glyph-name="uni2078" unicode="&#x2078;" horiz-adv-x="820" 
d="M566 870q77 0 123 26.5t53 75.5q9 51 -25.5 79.5t-106.5 28.5h-10q-76 0 -123.5 -28.5t-56.5 -79.5q-9 -49 29.5 -75.5t116.5 -26.5zM492 1300q-9 -46 25 -72t103 -26h12q66 0 106.5 25.5t49.5 72.5q9 53 -23.5 81.5t-102.5 28.5q-72 0 -116.5 -29t-53.5 -81zM686 1550
q142 0 217 -64t57 -168q-21 -119 -156 -176q65 -27 94.5 -75.5t17.5 -112.5q-18 -101 -120.5 -162.5t-253.5 -61.5q-154 0 -237 61t-65 163q12 64 59.5 112.5t124.5 75.5q-121 56 -100 178q18 102 118 166t244 64z" />
    <glyph glyph-name="uni2079" unicode="&#x2079;" horiz-adv-x="826" 
d="M952 1118q-33 -183 -146 -285.5t-284 -102.5q-129 0 -204 59.5t-78 164.5h176q6 -86 126 -86q94 0 153.5 61.5t80.5 180.5q2 9 4 26.5t2 19.5q-40 -67 -111 -106.5t-149 -39.5q-118 0 -182 75t-44 189q21 120 123.5 198t238.5 78q169 0 249 -117t45 -315zM768 1276
q11 57 -25.5 95.5t-100.5 38.5t-108.5 -36t-55.5 -96q-11 -59 21.5 -94.5t96.5 -35.5q67 0 114 35.5t58 92.5z" />
    <glyph glyph-name="uni207A" unicode="&#x207a;" horiz-adv-x="764" 
d="M674 1226h242l-26 -152h-242l-42 -242h-154l44 242h-242l28 152h240l42 242h154z" />
    <glyph glyph-name="uni207B" unicode="&#x207b;" horiz-adv-x="764" 
d="M282 1226h634l-26 -152h-636z" />
    <glyph glyph-name="uni207C" unicode="&#x207c;" horiz-adv-x="764" 
d="M314 1408h634l-26 -152h-636zM250 1048h634l-26 -154h-634z" />
    <glyph glyph-name="uni207D" unicode="&#x207d;" horiz-adv-x="442" 
d="M512 572h-172q-63 84 -83.5 232t11.5 342q31 179 105 326.5t167 229.5h172q-203 -191 -268 -556q-67 -375 68 -574z" />
    <glyph glyph-name="uni207E" unicode="&#x207e;" horiz-adv-x="442" 
d="M330 1702h174q62 -84 82.5 -232.5t-10.5 -343.5q-32 -180 -105.5 -326t-166.5 -228h-174q206 193 270 554q65 379 -70 576z" />
    <glyph glyph-name="uni207F" unicode="&#x207f;" horiz-adv-x="918" 
d="M860 1208q17 100 -21.5 149t-122.5 49q-82 0 -145.5 -52t-78.5 -132l-84 -476h-172l140 790h172l-18 -100q56 60 128.5 93t143.5 33q130 0 195 -82t39 -230l-88 -504h-170z" />
    <glyph glyph-name="uni2080" unicode="&#x2080;" horiz-adv-x="840" 
d="M104 186q33 186 150 300t274 114q156 0 231.5 -114t42.5 -300q-33 -187 -148.5 -301.5t-271.5 -114.5q-159 0 -235 114t-43 302zM632 186q23 125 -11 194.5t-119 69.5q-87 0 -147 -69.5t-83 -194.5q-21 -126 14.5 -195t121.5 -69t144.5 69t79.5 195z" />
    <glyph glyph-name="uni2081" unicode="&#x2081;" horiz-adv-x="522" 
d="M376 586h170l-138 -790h-172l86 484h-220l24 142h90q69 0 104.5 23.5t45.5 84.5z" />
    <glyph glyph-name="uni2082" unicode="&#x2082;" horiz-adv-x="818" 
d="M246 -58h482l-26 -146h-666l8 42q8 49 26 90.5t38.5 72t53 57.5t58.5 43.5t66.5 34.5t66 27t67.5 23q50 17 77 28t59.5 28.5t49.5 39.5t22 50q10 60 -23 93t-103 33q-76 0 -129.5 -38.5t-68.5 -103.5h-176q31 126 142.5 205t257.5 79t222 -74.5t54 -197.5
q-9 -49 -36.5 -89.5t-73 -70t-88.5 -49.5t-102 -41q-11 -4 -39.5 -14t-39 -14t-34.5 -13t-34.5 -14t-29 -13.5t-28 -15.5t-21.5 -15.5t-19.5 -17.5t-12.5 -19z" />
    <glyph glyph-name="uni2083" unicode="&#x2083;" horiz-adv-x="826" 
d="M376 126l20 122h112q44 0 73.5 23.5t36.5 66.5q9 57 -25 88.5t-105 31.5q-67 0 -113.5 -32t-58.5 -86h-176q30 117 134 188.5t242 71.5q144 0 222.5 -67.5t59.5 -176.5q-21 -113 -130 -166q109 -56 88 -182q-18 -104 -120 -167t-250 -63q-147 0 -232.5 71t-75.5 185h176
q-4 -52 37 -81t115 -29q76 0 122.5 27t55.5 77q7 48 -17.5 73t-78.5 25h-112z" />
    <glyph glyph-name="uni2084" unicode="&#x2084;" horiz-adv-x="836" 
d="M638 -22l-32 -182h-164l32 182h-412l28 158l456 450h200l-84 -470h138l-26 -138h-136zM500 116l52 298l-298 -298h246z" />
    <glyph glyph-name="uni2085" unicode="&#x2085;" horiz-adv-x="800" 
d="M562 56q12 67 -19 105.5t-99 38.5q-117 0 -182 -88h-168l142 474h554l-26 -142h-408l-58 -202q86 86 224 86q119 0 179 -74t39 -192q-24 -133 -125.5 -211.5t-246.5 -78.5q-142 0 -222.5 67.5t-71.5 176.5h178q-6 -48 29.5 -75t104.5 -27q73 0 118.5 36t57.5 106z" />
    <glyph glyph-name="uni2086" unicode="&#x2086;" horiz-adv-x="826" 
d="M104 182q35 197 149 307.5t283 110.5q123 0 194 -62t74 -170h-178q-3 94 -112 94q-91 0 -149 -65.5t-81 -192.5q-4 -32 -4 -46q40 68 110.5 108t149.5 40q117 0 180 -73t42 -187q-20 -117 -118.5 -192.5t-231.5 -75.5q-174 0 -257.5 109.5t-50.5 294.5zM294 44
q-9 -55 27.5 -90.5t102.5 -35.5q63 0 107.5 33.5t54.5 90.5q9 57 -23.5 90.5t-96.5 33.5q-67 0 -114 -34t-58 -88z" />
    <glyph glyph-name="uni2087" unicode="&#x2087;" horiz-adv-x="836" 
d="M404 -204h-202q30 112 76.5 206.5t107.5 171t121.5 133.5t140.5 119h-500l28 160h692l-32 -182q-172 -121 -279 -269.5t-153 -338.5z" />
    <glyph glyph-name="uni2088" unicode="&#x2088;" horiz-adv-x="820" 
d="M400 -80q75 0 121 26.5t55 75.5q9 51 -26.5 79.5t-107.5 28.5h-10q-76 0 -123.5 -28.5t-56.5 -79.5q-9 -49 29.5 -75.5t118.5 -26.5zM324 350q-9 -46 26 -72t104 -26h10q66 0 106.5 25.5t49.5 72.5q9 53 -23.5 81.5t-102.5 28.5q-72 0 -116.5 -29t-53.5 -81zM520 600
q141 0 216.5 -64t57.5 -168q-24 -120 -158 -176q65 -27 94.5 -75.5t17.5 -112.5q-18 -101 -120.5 -163.5t-253.5 -62.5q-153 0 -236.5 62t-65.5 164q12 64 59.5 112.5t124.5 75.5q-122 58 -98 178q18 103 117.5 166.5t244.5 63.5z" />
    <glyph glyph-name="uni2089" unicode="&#x2089;" horiz-adv-x="826" 
d="M784 168q-32 -183 -145.5 -286.5t-284.5 -103.5q-129 0 -203 59.5t-79 164.5h176q6 -84 126 -84q94 0 153.5 61.5t80.5 180.5q6 24 6 46q-40 -67 -111 -106.5t-149 -39.5q-118 0 -181.5 75t-42.5 189q21 120 122.5 198t239.5 78q168 0 247 -117t45 -315zM600 326
q11 57 -25.5 95.5t-100.5 38.5t-108.5 -36t-55.5 -96q-11 -59 21.5 -94.5t96.5 -35.5q68 0 115.5 35.5t56.5 92.5z" />
    <glyph glyph-name="uni208A" unicode="&#x208a;" horiz-adv-x="764" 
d="M508 276h240l-26 -152h-242l-42 -242h-152l42 242h-240l26 152h240l44 242h152z" />
    <glyph glyph-name="uni208B" unicode="&#x208b;" horiz-adv-x="764" 
d="M114 276h634l-26 -152h-634z" />
    <glyph glyph-name="uni208C" unicode="&#x208c;" horiz-adv-x="764" 
d="M146 458h634l-26 -152h-634zM82 98h636l-28 -154h-634z" />
    <glyph glyph-name="uni208D" unicode="&#x208d;" horiz-adv-x="442" 
d="M346 -378h-174q-63 85 -83.5 231.5t11.5 342.5q32 179 106 326t166 230h172q-203 -191 -268 -556q-67 -374 70 -574z" />
    <glyph glyph-name="uni208E" unicode="&#x208e;" horiz-adv-x="442" 
d="M162 752h174q63 -83 83 -232.5t-11 -343.5q-32 -179 -105 -325.5t-165 -228.5h-174q203 191 268 554q67 375 -70 576z" />
    <glyph glyph-name="uni2099" unicode="&#x2099;" horiz-adv-x="918" 
d="M208 586h172l-16 -100q56 60 128 93t142 33q130 0 195 -82t39 -230l-88 -504h-170l82 462q17 100 -21 149t-121 49t-147 -52.5t-79 -133.5l-82 -474h-172z" />
    <glyph glyph-name="uni20A0" unicode="&#x20a0;" horiz-adv-x="1510" 
d="M228 804q0 153 68.5 281.5t186 203.5t257.5 75q171 0 275 -89t109 -229h-190q-4 73 -54 113.5t-136 40.5q-140 0 -233 -115t-93 -289q0 -129 78 -196.5t228 -67.5h76l66 372h718l-28 -154h-526l-40 -224h472l-26 -140h-470l-40 -226h526l-28 -160h-718l66 370h-56
q-229 0 -358.5 115.5t-129.5 318.5z" />
    <glyph glyph-name="colonmonetary" unicode="&#x20a1;" horiz-adv-x="1332" 
d="M192 550q0 223 86 406.5t237 288.5t335 105h26l92 204h130l-98 -220q87 -19 152 -56l124 276h128l-156 -346q144 -138 144 -370h-188q0 105 -42 180l-390 -862q132 6 233.5 87t132.5 205h194q-53 -215 -211 -339.5t-387 -124.5h-38l-66 -144h-126l72 162q-85 21 -152 62
l-100 -224h-126l134 300q-140 152 -140 410zM382 546q0 -120 40 -206l378 838q-180 -20 -299 -199t-119 -433zM502 234q62 -53 148 -70l428 950q-63 45 -152 60z" />
    <glyph glyph-name="uni20A2" unicode="&#x20a2;" horiz-adv-x="1332" 
d="M190 554q0 167 51.5 314t141 253t217 167.5t274.5 61.5q242 0 381.5 -121t144.5 -329h-188q0 132 -91 208t-249 76q-137 0 -249 -84t-175.5 -232t-63.5 -328q0 -163 74 -261t214 -119l106 598h172l-22 -130q58 70 135 108t157 38h74l-30 -178h-60q-124 0 -212 -63.5
t-112 -170.5l-34 -198q107 21 185.5 84.5t102.5 151.5h192q-49 -192 -207 -304t-379 -112q-255 0 -402.5 153t-147.5 417z" />
    <glyph glyph-name="franc" unicode="&#x20a3;" horiz-adv-x="1212" 
d="M1364 1332l-32 -182h-716l-62 -344h660l-32 -180h-660l-38 -224h392l-28 -158h-392l-44 -244h-198l42 244h-182l26 158h184l164 930h916z" />
    <glyph glyph-name="lira" unicode="&#x20a4;" horiz-adv-x="1148" 
d="M172 550h206l24 142h-204l22 126h204l32 188q27 153 143 247.5t275 94.5q174 0 270 -92.5t96 -247.5h-196q0 82 -43.5 126t-126.5 44q-88 0 -146.5 -50.5t-73.5 -139.5l-30 -170h400l-24 -126h-398l-26 -142h400l-22 -126h-402q-23 -79 -78.5 -144t-145.5 -100h780
l-32 -180h-1004l34 192q98 34 159 95.5t87 136.5h-202z" />
    <glyph glyph-name="uni20A5" unicode="&#x20a5;" horiz-adv-x="1730" 
d="M286 1024h200l-26 -138q66 77 154 118.5t178 41.5q81 0 145 -33t103 -95l230 414h220l-176 -316q72 28 140 28q154 0 241 -116.5t55 -297.5l-114 -630h-200l110 606q23 132 -25.5 194t-150.5 62q-95 0 -176 -62l-118 -212l-108 -588h-198l12 60l-166 -298h-220l490 880
q12 114 -39 170t-153 56q-95 0 -171 -57.5t-103 -154.5l-114 -656h-200z" />
    <glyph glyph-name="uni20A6" unicode="&#x20a6;" horiz-adv-x="1414" 
d="M1500 538l-28 -158h-154l-68 -380h-198l-180 380h-446l-68 -380h-192l66 380h-154l26 158h156l48 268h-156l28 158h156l64 368h240l168 -368h422l64 368h192l-66 -368h154l-28 -158h-154l-46 -268h154zM546 1068l-18 -104h68zM452 538h346l-128 268h-170zM1002 538h152
l48 268h-322zM1112 298l16 82h-54z" />
    <glyph glyph-name="peseta" unicode="&#x20a7;" horiz-adv-x="2610" 
d="M778 474h-390l-84 -474h-198l236 1332h530q165 0 269 -82.5t125 -225.5h140l48 266h198l-48 -266h180l-28 -166h-180l-88 -496q-16 -91 14 -137.5t124 -46.5h540q103 0 159.5 36t56.5 100q0 46 -37 73t-115 39l-172 22q-144 19 -213 83t-69 177q0 153 121.5 246.5
t320.5 93.5q198 0 306 -85.5t108 -244.5h-196q-2 92 -55.5 134t-168.5 42q-105 0 -169.5 -46t-64.5 -120q0 -45 34 -70.5t112 -35.5l178 -20q145 -18 213.5 -84.5t68.5 -185.5q0 -152 -107 -242t-287 -90h-604q-75 0 -134.5 18t-103.5 56.5t-61 105t-1 156.5l92 522h-116
q-34 -164 -161.5 -274t-322.5 -110zM840 1156h-332l-90 -502h332q84 0 148 28t100 74.5t54 98.5t18 107q0 95 -59 144.5t-171 49.5z" />
    <glyph glyph-name="uni20A8" unicode="&#x20a8;" horiz-adv-x="2130" 
d="M684 524h-288l-92 -524h-198l236 1332h554q178 0 281 -95t103 -257q0 -137 -88.5 -241.5t-237.5 -138.5q95 -27 137.5 -95t42.5 -191v-314h-198v292q0 129 -56 180.5t-196 51.5zM858 1158h-350l-80 -460h352q136 0 214 80t78 200q0 87 -56 133.5t-158 46.5zM1748 416
l-168 36q-143 30 -212.5 97.5t-69.5 176.5q0 150 112 238t308 88q197 0 310 -92.5t116 -263.5h-194q0 97 -62 146.5t-180 49.5q-98 0 -154 -41t-56 -111q0 -49 35 -77t111 -45l176 -36q141 -28 208.5 -96.5t67.5 -181.5q0 -156 -108.5 -242t-311.5 -86q-213 0 -335.5 93.5
t-122.5 258.5h204q0 -95 68 -146.5t190 -51.5q105 0 162.5 39.5t57.5 108.5q0 52 -37 85t-115 53z" />
    <glyph glyph-name="uni20A9" unicode="&#x20a9;" horiz-adv-x="2016" 
d="M292 1332h200l30 -368h410l178 368h238l48 -368h412l162 368h224l-172 -368h154l-28 -158h-200l-124 -268h276l-26 -158h-324l-178 -380h-234l-50 380h-434l-182 -380h-242l-40 380h-312l26 158h270l-26 268h-196l28 158h150zM1198 1098l-66 -134h82zM554 538h172
l130 268h-322zM930 538h338l-34 268h-176zM1450 538h172l118 268h-324zM578 234l70 146h-82zM1488 234l64 146h-82z" />
    <glyph glyph-name="uni20AA" unicode="&#x20aa;" horiz-adv-x="1434" 
d="M662 164h312q108 0 167.5 50.5t78.5 159.5l114 650h176l-118 -662q-27 -172 -128 -267t-266 -95h-544l126 710h178zM434 860l-152 -860h-176l180 1024h490q192 0 273 -95t47 -267l-62 -348h-174l58 336q19 109 -21.5 159.5t-148.5 50.5h-314z" />
    <glyph glyph-name="dong" unicode="&#x20ab;" horiz-adv-x="1158" 
d="M736 1304h226l24 130h198l-24 -130h170l-26 -142h-168l-180 -1016h-198l22 118q-121 -140 -280 -140q-150 0 -237 97.5t-87 268.5q0 150 59 276t161 199t224 73q94 0 162 -44t104 -126l52 294h-228zM382 498q0 -96 47.5 -147t134.5 -51q92 0 162 61.5t100 164.5l16 96
q2 14 2 42q0 94 -47.5 145t-134.5 51q-122 0 -201 -102.5t-79 -259.5zM106 14h968l-28 -158h-968z" />
    <glyph glyph-name="Euro" unicode="&#x20ac;" horiz-adv-x="1408" 
d="M952 560l-22 -126h-444q26 -129 114 -197.5t232 -68.5q132 0 236 78.5t136 201.5h208q-53 -215 -211 -339.5t-387 -124.5q-221 0 -361.5 119t-172.5 331h-194l22 126h164q0 112 24 214h-150l22 126h168q81 205 243 327.5t363 122.5q240 0 385 -130.5t145 -355.5h-202
q0 144 -89 224t-249 80q-118 0 -216.5 -71.5t-161.5 -196.5h458l-22 -126h-484q-27 -99 -30 -214h476z" />
    <glyph glyph-name="uni20AD" unicode="&#x20ad;" horiz-adv-x="1156" 
d="M132 748h152l102 584h198l-102 -582l580 582h262l-596 -584h360l-28 -158h-376l382 -590h-228l-380 590h-4l-104 -590h-198l104 590h-152z" />
    <glyph glyph-name="uni20AE" unicode="&#x20ae;" horiz-adv-x="1106" 
d="M1046 612l-28 -152l-298 -80l-68 -380h-198l58 326l-284 -74l28 152l284 74l28 160l-284 -74l26 152l284 74l62 354h-390l34 188h976l-34 -188h-388l-54 -300l300 80l-26 -152l-300 -80l-28 -160z" />
    <glyph glyph-name="uni20AF" unicode="&#x20af;" horiz-adv-x="2422" 
d="M98 178h146l336 928q-126 -31 -230 -72l32 186q110 54 272 86l46 128h198l-38 -102h38q249 0 391.5 -131.5t142.5 -362.5q0 -169 -66.5 -324.5t-178 -267.5t-265 -179t-320.5 -67h-536zM892 1146q-48 0 -102 -6l-350 -962h120q140 0 264 50.5t212 138.5t139 212t51 265
q0 146 -86 224t-248 78zM2454 684q0 -129 -51.5 -257.5t-133.5 -225t-191.5 -157t-219.5 -60.5q-132 0 -213.5 50.5t-104.5 145.5l-180 -514h-196l302 872q82 237 243 371.5t359 134.5q183 0 284.5 -94.5t101.5 -265.5zM1812 160q107 0 209.5 76t165.5 198.5t63 249.5
q0 87 -50 135.5t-140 48.5q-106 0 -207 -76t-164 -198.5t-63 -249.5q0 -85 50 -134.5t136 -49.5z" />
    <glyph glyph-name="uni20B0" unicode="&#x20b0;" horiz-adv-x="1128" 
d="M1220 1082q0 -84 -31 -170t-105 -192l-118 -176q68 -107 98 -193.5t30 -174.5q0 -240 -133.5 -374t-382.5 -134v168q159 0 251.5 84.5t92.5 227.5q0 118 -68 228l-266 -396h-142l-72 344l-158 -324h-168l286 524h130l76 -350l222 338q-83 132 -116.5 229t-33.5 205
q0 176 96.5 292t241.5 116q132 0 201 -69.5t69 -202.5zM928 760q118 180 118 316q0 114 -106 114q-68 0 -111 -71.5t-43 -186.5q0 -128 88 -254z" />
    <glyph glyph-name="uni20B1" unicode="&#x20b1;" horiz-adv-x="1302" 
d="M148 784h134l24 134h-134l22 122h134l50 292h522q166 0 274 -77.5t138 -214.5h162l-20 -122h-132q0 -58 -18 -134h126l-22 -122h-150q-67 -129 -187.5 -205.5t-264.5 -76.5h-408l-68 -380h-186l116 662h-134zM880 1168h-344l-22 -128h598q-52 128 -232 128zM468 784h638
q21 60 24 134h-638zM426 548h346q163 0 264 114h-590z" />
    <glyph glyph-name="uni20B2" unicode="&#x20b2;" horiz-adv-x="1352" 
d="M192 544q0 172 49.5 322t136.5 256t209.5 167t262.5 61q97 0 182 -22l106 226h120l-122 -264q125 -59 192.5 -170t67.5 -262h-204q0 180 -136 260l-186 -404h508l-132 -714h-138l32 288q-162 -302 -458 -302q-79 0 -142 20l-76 -166h-120l96 208q-117 67 -182.5 196
t-65.5 300zM396 544q0 -215 130 -314l428 926q-51 12 -108 12q-129 0 -232 -79.5t-160.5 -222t-57.5 -322.5zM726 168q142 0 252 102t150 278h-336l-170 -366q45 -14 104 -14z" />
    <glyph glyph-name="uni20B3" unicode="&#x20b3;" horiz-adv-x="1302" 
d="M158 474h154l104 190h-224l24 140h274l284 528h226l98 -528h264l-24 -140h-214l34 -190h146l-24 -140h-96l62 -334h-200l-54 334h-536l-170 -334h-228l180 334h-106zM860 1120l-162 -316h214zM528 474h440l-32 190h-310z" />
    </font>
</defs>
</svg>
