<?xml version="1.0" standalone="no"?>
<!DOCTYPE svg PUBLIC "-//W3C//DTD SVG 1.1//EN" "http://www.w3.org/Graphics/SVG/1.1/DTD/svg11.dtd" >
<svg xmlns="http://www.w3.org/2000/svg" xmlns:xlink="http://www.w3.org/1999/xlink" version="1.1">
<metadata>
Created by FontForge 20201107 at Mon Jul 14 14:24:39 2025
 By 
Copyright (c) 2023, Bao Nguyen (RandomMaerks) (rmforbusiness@gmail.com)
</metadata>
<defs>
<font id="OverusedGrotesk-ExtraBold" horiz-adv-x="524" >
  <font-face 
    font-family="Overused Grotesk ExtraBold"
    font-weight="800"
    font-stretch="normal"
    units-per-em="2048"
    panose-1="0 0 0 0 0 0 0 0 0 0"
    ascent="1638"
    descent="-410"
    x-height="1024"
    cap-height="1332"
    bbox="-222 -770 2836 2338"
    underline-thickness="102"
    underline-position="-254"
    unicode-range="U+0020-277E"
  />
<missing-glyph horiz-adv-x="1024" 
d="M102 -410v2048h820v-2048h-820zM204 -308h616v1844h-616v-1844z" />
    <glyph glyph-name=".notdef" horiz-adv-x="1024" 
d="M102 -410v2048h820v-2048h-820zM204 -308h616v1844h-616v-1844z" />
    <glyph glyph-name=".null" horiz-adv-x="0" 
 />
    <glyph glyph-name="nonmarkingreturn" horiz-adv-x="682" 
 />
    <glyph glyph-name="space" unicode=" " horiz-adv-x="408" 
 />
    <glyph glyph-name="exclam" unicode="!" 
d="M398 390h-270l-36 942h342zM448 0h-370v276h370v-276z" />
    <glyph glyph-name="quotedbl" unicode="&#x22;" horiz-adv-x="930" 
d="M530 1434h306l-38 -580h-268v580zM96 1434h306l-36 -580h-270v580z" />
    <glyph glyph-name="numbersign" unicode="#" horiz-adv-x="1496" 
d="M498 1332h326l-88 -302h238l88 302h326l-88 -302h144v-236h-212l-78 -264h180v-234h-248l-86 -296h-326l86 296h-238l-86 -296h-328l86 296h-138v234h208l76 264h-176v236h244zM590 530h238l78 264h-238z" />
    <glyph glyph-name="dollar" unicode="$" horiz-adv-x="1270" 
d="M580 1552h118v-206q204 -18 329 -128.5t143 -289.5l-328 -2q-20 123 -144 150v-256l52 -6q225 -22 334.5 -125t109.5 -291q0 -181 -134.5 -293t-361.5 -121v-246h-118v250q-217 19 -350 132t-154 296h332q24 -129 172 -156v260l-94 10q-193 18 -296.5 122.5t-103.5 281.5
q0 184 132 295.5t362 120.5v202zM550 834l30 -2v250q-69 -8 -109.5 -42t-40.5 -86q0 -105 120 -120zM706 510h-8v-256q71 8 111.5 43.5t40.5 90.5q0 107 -144 122z" />
    <glyph glyph-name="percent" unicode="%" horiz-adv-x="2044" 
d="M68 946q0 190 108.5 306t285.5 116q174 0 281 -116t107 -306q0 -192 -107 -309t-281 -117q-177 0 -285.5 117t-108.5 309zM1150 1332h292l-542 -1332h-292zM588 946q0 95 -33 147.5t-93 52.5q-63 0 -97.5 -52.5t-34.5 -147.5q0 -97 34.5 -150.5t97.5 -53.5q60 0 93 53.5
t33 150.5zM1194 390q0 191 107.5 307.5t284.5 116.5q175 0 282.5 -116.5t107.5 -307.5q0 -192 -107 -309t-283 -117q-177 0 -284.5 117t-107.5 309zM1714 390q0 96 -34 149t-94 53q-62 0 -96 -53t-34 -149t34.5 -151t95.5 -55q60 0 94 55t34 151z" />
    <glyph glyph-name="ampersand" unicode="&#x26;" horiz-adv-x="1420" 
d="M616 1348q200 0 325 -98.5t125 -255.5q0 -116 -63.5 -197t-194.5 -137l154 -168q30 79 38 162h312q-15 -224 -138 -398l234 -256h-382l-66 68q-152 -84 -336 -84q-246 0 -397 108.5t-151 285.5q0 119 62 198t192 138q-70 76 -102 142t-32 146q0 153 117 249.5t303 96.5z
M530 988q0 -37 29 -74t81 -82q130 63 130 156q0 53 -32.5 83.5t-87.5 30.5t-87.5 -30.5t-32.5 -83.5zM422 406q0 -75 56.5 -116.5t157.5 -41.5q66 0 126 24l-268 272q-72 -51 -72 -138z" />
    <glyph glyph-name="quotesingle" unicode="'" horiz-adv-x="498" 
d="M96 1434h306l-36 -580h-270v580z" />
    <glyph glyph-name="parenleft" unicode="(" horiz-adv-x="692" 
d="M662 -274h-342q-116 123 -190 352.5t-74 489.5t74 489.5t190 352.5h342q-260 -260 -260 -842t260 -842z" />
    <glyph glyph-name="parenright" unicode=")" horiz-adv-x="692" 
d="M26 1410h344q118 -122 192 -351.5t74 -490.5t-74 -490.5t-192 -351.5h-344q262 259 262 842t-262 842z" />
    <glyph glyph-name="asterisk" unicode="*" horiz-adv-x="1146" 
d="M454 1434h238l-28 -390l360 150l74 -228l-376 -94l250 -294l-196 -140l-202 328l-204 -328l-196 140l252 294l-376 94l74 228l358 -148z" />
    <glyph glyph-name="plus" unicode="+" horiz-adv-x="1190" 
d="M746 786h390v-304h-390v-388h-302v388h-388v304h388v388h302v-388z" />
    <glyph glyph-name="comma" unicode="," 
d="M78 360h370v-360l-144 -358h-236l228 358h-218v360z" />
    <glyph glyph-name="hyphen" unicode="-" horiz-adv-x="1032" 
d="M56 718h922v-304h-922v304z" />
    <glyph glyph-name="period" unicode="." 
d="M78 360h370v-360h-370v360z" />
    <glyph glyph-name="slash" unicode="/" horiz-adv-x="988" 
d="M542 1332h378l-474 -1332h-378z" />
    <glyph glyph-name="zero" unicode="0" horiz-adv-x="1286" 
d="M76 650q0 331 150.5 516.5t419.5 185.5q267 0 416.5 -185.5t149.5 -516.5q0 -315 -149.5 -490.5t-416.5 -175.5q-270 0 -420 175.5t-150 490.5zM864 650q0 396 -218 396q-224 0 -224 -396q0 -358 224 -358q111 0 164.5 88.5t53.5 269.5z" />
    <glyph glyph-name="one" unicode="1" horiz-adv-x="810" 
d="M374 1332h342v-1332h-342v820h-318v292h156q83 0 122.5 30.5t39.5 107.5v82z" />
    <glyph glyph-name="two" unicode="2" horiz-adv-x="1178" 
d="M496 304h598v-304h-1018v64q0 116 26 213t64 160.5t97.5 118t109.5 85t117 63.5q18 9 58.5 27.5t57.5 27t47 25t44 28.5t30 29t22.5 35.5t6.5 39.5q0 70 -43 108t-119 38t-122.5 -48.5t-49.5 -131.5h-346q13 207 152 336.5t346 129.5q240 0 384 -118.5t144 -313.5
q0 -79 -26.5 -144t-77 -113.5t-99.5 -80.5t-119 -66q-26 -13 -70 -34t-68.5 -32.5t-56.5 -30t-48.5 -34t-28.5 -35.5t-12 -42z" />
    <glyph glyph-name="three" unicode="3" horiz-adv-x="1194" 
d="M494 546v250h142q57 0 87.5 33t30.5 95q0 72 -42 112t-114 40q-70 0 -111 -41t-43 -113h-348q13 192 154.5 309t357.5 117q215 0 353.5 -111t138.5 -285q0 -186 -160 -280q86 -50 133 -128t47 -176q0 -172 -135.5 -278t-356.5 -106q-231 0 -384 120.5t-168 315.5h346
q8 -77 56.5 -119.5t127.5 -42.5t123.5 40.5t44.5 113.5q0 66 -36 100t-102 34h-142z" />
    <glyph glyph-name="four" unicode="4" horiz-adv-x="1224" 
d="M1014 284v-284h-324v284h-634v356l530 692h428v-764h176v-284h-176zM690 568v394l-290 -394h290z" />
    <glyph glyph-name="five" unicode="5" horiz-adv-x="1194" 
d="M774 456q0 93 -49.5 145.5t-136.5 52.5q-122 0 -174 -92h-338l78 772h920v-286h-614l-34 -288q108 146 298 146q176 0 286 -124.5t110 -321.5q0 -217 -138.5 -346.5t-371.5 -129.5q-226 0 -373 120t-161 314h346q3 -67 50.5 -105.5t125.5 -38.5q84 0 130 47t46 135z" />
    <glyph glyph-name="six" unicode="6" horiz-adv-x="1234" 
d="M76 680q0 315 151.5 493.5t418.5 178.5q201 0 333.5 -101t166.5 -281h-348q-25 126 -150 126q-104 0 -165 -97t-61 -263v-34q40 78 128 124t196 46q180 0 298 -122.5t118 -309.5q0 -201 -140 -328.5t-362 -127.5q-268 0 -426 188t-158 508zM468 432q0 -82 51 -136
t129 -54q75 0 120.5 51t45.5 135t-46 135t-124 51t-127 -50.5t-49 -131.5z" />
    <glyph glyph-name="seven" unicode="7" horiz-adv-x="1176" 
d="M694 0h-408q3 158 28 292.5t62.5 233t97 190.5t116.5 156t136 138h-650v322h1028v-342q-217 -177 -312.5 -409t-97.5 -581z" />
    <glyph glyph-name="eight" unicode="8" horiz-adv-x="1194" 
d="M890 674q114 -41 172 -122t58 -192q0 -169 -144.5 -272.5t-379.5 -103.5q-233 0 -376.5 103t-143.5 271q0 112 57.5 193.5t172.5 122.5q-94 43 -142 120.5t-48 179.5q0 166 133.5 270t346.5 104q216 0 350 -103.5t134 -270.5q0 -214 -190 -300zM604 798q69 0 107.5 37.5
t38.5 104.5q0 69 -40 105.5t-114 36.5q-71 0 -109.5 -36.5t-38.5 -105.5q0 -68 37 -105t107 -37h12zM604 542h-12q-82 0 -126 -37.5t-44 -108.5q0 -70 45.5 -109t128.5 -39q84 0 131 39t47 109q0 69 -45 107.5t-125 38.5z" />
    <glyph glyph-name="nine" unicode="9" horiz-adv-x="1234" 
d="M1162 656q0 -315 -152 -493.5t-420 -178.5q-199 0 -331 100.5t-167 279.5h348q21 -124 148 -124q105 0 165.5 97t60.5 265q0 5 -1 15t-1 15q-41 -78 -127 -124t-195 -46q-180 0 -297 123t-117 309q0 202 139.5 330t362.5 128q268 0 426 -188t158 -508zM770 904
q0 82 -52 136t-130 54q-74 0 -120 -51t-46 -135t46.5 -135t123.5 -51q79 0 128.5 50.5t49.5 131.5z" />
    <glyph glyph-name="colon" unicode=":" 
d="M78 1016h370v-360h-370v360zM78 360h370v-360h-370v360z" />
    <glyph glyph-name="semicolon" unicode=";" 
d="M78 1016h370v-360h-370v360zM78 360h370v-360l-144 -358h-236l228 358h-218v360z" />
    <glyph glyph-name="less" unicode="&#x3c;" horiz-adv-x="1202" 
d="M1150 1160v-354l-788 -190l788 -176v-358l-1092 346v388z" />
    <glyph glyph-name="equal" unicode="=" horiz-adv-x="1190" 
d="M1136 1032v-284h-1080v284h1080zM1136 484v-288h-1080v288h1080z" />
    <glyph glyph-name="greater" unicode="&#x3e;" horiz-adv-x="1202" 
d="M58 82v354l786 188l-786 178v358l1092 -344v-388z" />
    <glyph glyph-name="question" unicode="?" horiz-adv-x="1178" 
d="M428 390q6 62 22 112t44 89t50.5 63t59.5 56q4 4 25 20.5t26 21t22.5 20t22.5 22.5t17.5 21.5t17 25.5t11 26.5t8.5 31t2 33.5q0 69 -43.5 107.5t-118.5 38.5q-76 0 -122.5 -49t-49.5 -133h-346q13 201 152 326.5t346 125.5q240 0 384 -114t144 -302q0 -67 -14 -119.5
t-42.5 -92.5t-53.5 -64.5t-66 -55.5q-78 -60 -102 -89q-47 -53 -56 -121h-340zM782 0h-370v276h370v-276z" />
    <glyph glyph-name="at" unicode="@" horiz-adv-x="1916" 
d="M1360 918v-456q0 -92 84 -92q53 0 76.5 41.5t23.5 136.5q0 278 -150 435t-418 157q-284 0 -444 -160t-160 -444q0 -271 163.5 -421.5t456.5 -150.5q238 0 400 66v-272q-171 -68 -386 -68q-208 0 -381.5 61t-294 170.5t-187.5 267t-67 345.5q0 261 112 461t316.5 309.5
t471.5 109.5q257 0 454 -105.5t304.5 -296.5t107.5 -440q0 -216 -104 -334t-294 -118q-283 0 -354 172q-39 -76 -101 -117t-141 -41q-140 0 -226 113t-86 299q0 184 86 296t226 112q141 0 222 -124v88h290zM832 546q0 -83 30.5 -128.5t87.5 -45.5t88.5 45.5t31.5 128.5
q0 80 -31.5 125t-88.5 45t-87.5 -45t-30.5 -125z" />
    <glyph glyph-name="A" unicode="A" horiz-adv-x="1366" 
d="M1328 0h-356l-72 238h-436l-68 -238h-358l452 1332h388zM680 974l-136 -466h276z" />
    <glyph glyph-name="B" unicode="B" horiz-adv-x="1302" 
d="M760 1332q183 0 296.5 -93.5t113.5 -242.5q0 -96 -49 -174.5t-133 -119.5q113 -42 178.5 -136.5t65.5 -215.5q0 -156 -105.5 -253t-274.5 -97h-756v1332h664zM716 1046h-278v-228h278q45 0 75.5 32.5t30.5 83.5q0 48 -30.5 80t-75.5 32zM758 530h-320v-244h320
q55 0 90.5 34.5t35.5 87.5q0 54 -35 88t-91 34z" />
    <glyph glyph-name="C" unicode="C" horiz-adv-x="1372" 
d="M76 670q0 308 169.5 495t448.5 187q259 0 422 -134t182 -386h-348q-3 97 -72 155.5t-180 58.5q-131 0 -203.5 -99t-72.5 -277q0 -181 72.5 -279.5t203.5 -98.5q110 0 179 58.5t73 155.5h348q-4 -128 -52.5 -228.5t-130 -164t-188.5 -96.5t-233 -33q-278 0 -448 188.5
t-170 497.5z" />
    <glyph glyph-name="D" unicode="D" horiz-adv-x="1366" 
d="M674 1332q278 0 448 -190t170 -500q0 -289 -159 -465.5t-419 -176.5h-618v1332h578zM438 1028v-724h256q119 0 184.5 89t65.5 249q0 184 -76 285t-214 101h-216z" />
    <glyph glyph-name="E" unicode="E" horiz-adv-x="1136" 
d="M1062 1332v-322h-624v-176h566v-320h-566v-194h624v-320h-966v1332h966z" />
    <glyph glyph-name="F" unicode="F" horiz-adv-x="1136" 
d="M1062 1332v-322h-624v-234h566v-320h-566v-456h-342v1332h966z" />
    <glyph glyph-name="G" unicode="G" horiz-adv-x="1392" 
d="M76 670q0 308 170 495t450 187q254 0 419 -130t183 -356h-348q-12 84 -74.5 132t-167.5 48q-135 0 -210.5 -99t-75.5 -277q0 -181 71.5 -279.5t200.5 -100.5q105 2 171.5 55.5t76.5 146.5h-286v274h642v-766h-256l-12 162q-67 -85 -163 -131.5t-211 -46.5
q-261 0 -420.5 188.5t-159.5 497.5z" />
    <glyph glyph-name="H" unicode="H" horiz-adv-x="1334" 
d="M96 1332h342v-484h460v484h342v-1332h-342v528h-460v-528h-342v1332z" />
    <glyph glyph-name="I" unicode="I" 
d="M92 1332h342v-1332h-342v1332z" />
    <glyph glyph-name="J" unicode="J" horiz-adv-x="774" 
d="M36 304h158q73 0 109.5 43t36.5 139v846h340v-892q0 -211 -106.5 -325.5t-289.5 -114.5h-248v304z" />
    <glyph glyph-name="K" unicode="K" horiz-adv-x="1336" 
d="M96 1332h342v-578l436 578h426l-508 -646l530 -686h-396l-370 502l-118 -164v-338h-342v1332z" />
    <glyph glyph-name="L" unicode="L" horiz-adv-x="1014" 
d="M958 0h-862v1332h342v-1012h520v-320z" />
    <glyph glyph-name="M" unicode="M" horiz-adv-x="1724" 
d="M1016 0h-308l-270 848v-848h-342v1332h504l262 -860l256 860h512v-1332h-342v848z" />
    <glyph glyph-name="N" unicode="N" horiz-adv-x="1368" 
d="M932 1332h340v-1332h-354l-480 818v-818h-342v1332h416l420 -762v762z" />
    <glyph glyph-name="O" unicode="O" horiz-adv-x="1428" 
d="M76 650q0 317 175.5 509.5t464.5 192.5q288 0 464 -193t176 -509q0 -300 -176 -483t-464 -183q-289 0 -464.5 183t-175.5 483zM1008 650q0 187 -77 291.5t-215 104.5q-139 0 -216.5 -104t-77.5 -292q0 -170 77.5 -264t216.5 -94q138 0 215 94.5t77 263.5z" />
    <glyph glyph-name="P" unicode="P" horiz-adv-x="1258" 
d="M726 420h-288v-420h-342v1332h598q225 0 361.5 -123.5t136.5 -326.5q0 -206 -128.5 -334t-337.5 -128zM664 1040h-226v-316h226q84 0 131 41.5t47 116.5t-47 116.5t-131 41.5z" />
    <glyph glyph-name="Q" unicode="Q" horiz-adv-x="1428" 
d="M76 650q0 317 175.5 509.5t464.5 192.5q288 0 463.5 -193t174.5 -509q3 -199 -82 -356l138 -110l-176 -218l-150 122q-156 -104 -368 -104q-289 0 -464.5 183t-175.5 483zM1008 650q0 187 -77 291.5t-215 104.5q-139 0 -216.5 -104t-77.5 -292q0 -170 77.5 -264
t216.5 -94q49 -3 96 14l-200 162l172 220l208 -168q16 61 16 130z" />
    <glyph glyph-name="R" unicode="R" horiz-adv-x="1260" 
d="M644 452h-206v-452h-342v1332h634q204 0 329 -106.5t125 -281.5q0 -119 -61.5 -206t-170.5 -130q96 -25 144.5 -94t63.5 -200l36 -314h-336l-36 282q-11 89 -52 129.5t-128 40.5zM676 1046h-238v-308h238q81 0 125.5 40.5t44.5 113.5t-44.5 113.5t-125.5 40.5z" />
    <glyph glyph-name="S" unicode="S" horiz-adv-x="1270" 
d="M706 492l-220 20q-193 19 -296.5 128t-103.5 294q0 192 143 304t389 112q237 0 384 -112.5t168 -309.5h-346q-14 80 -65 118t-145 38q-83 0 -133.5 -36t-50.5 -94q0 -90 120 -102l200 -20q225 -24 334.5 -131.5t109.5 -302.5q0 -188 -144 -301t-384 -113q-253 0 -410 116
t-180 316h348q27 -162 244 -162q83 0 132.5 36.5t49.5 97.5q0 89 -144 104z" />
    <glyph glyph-name="T" unicode="T" horiz-adv-x="1166" 
d="M1112 1332v-322h-358v-1010h-340v1010h-358v322h1056z" />
    <glyph glyph-name="U" unicode="U" horiz-adv-x="1288" 
d="M86 1332h342v-810q0 -102 60 -158t168 -56q98 0 152 56t54 158v810h340v-810q0 -243 -150.5 -390.5t-395.5 -147.5q-257 0 -413.5 147.5t-156.5 390.5v810z" />
    <glyph glyph-name="V" unicode="V" horiz-adv-x="1366" 
d="M38 1332h356l292 -974l284 974h358l-450 -1332h-390z" />
    <glyph glyph-name="W" unicode="W" horiz-adv-x="2110" 
d="M38 1332h356l210 -964l238 964h422l242 -964l210 964h356l-364 -1332h-426l-238 956l-214 -956h-442z" />
    <glyph glyph-name="X" unicode="X" horiz-adv-x="1314" 
d="M38 1332h384l238 -476l232 476h384l-338 -666l338 -666h-382l-238 474l-234 -474h-384l340 666z" />
    <glyph glyph-name="Y" unicode="Y" horiz-adv-x="1314" 
d="M484 446l-446 886h374l248 -532l242 532h374l-452 -886v-446h-340v446z" />
    <glyph glyph-name="Z" unicode="Z" horiz-adv-x="1216" 
d="M92 1332h1032v-342l-660 -704h660v-286h-1032v342l656 704h-656v286z" />
    <glyph glyph-name="bracketleft" unicode="[" horiz-adv-x="692" 
d="M416 1092v-1038h230v-320h-570v1680h570v-322h-230z" />
    <glyph glyph-name="backslash" unicode="\" horiz-adv-x="988" 
d="M446 1332l474 -1332h-378l-474 1332h378z" />
    <glyph glyph-name="bracketright" unicode="]" horiz-adv-x="692" 
d="M276 54v1038h-228v322h570v-1680h-570v320h228z" />
    <glyph glyph-name="asciicircum" unicode="^" horiz-adv-x="926" 
d="M300 1468h326l230 -444h-270l-122 290l-122 -290h-270z" />
    <glyph glyph-name="underscore" unicode="_" horiz-adv-x="1284" 
d="M56 0h1174v-244h-1174v244z" />
    <glyph glyph-name="grave" unicode="`" horiz-adv-x="816" 
d="M72 1468h414l260 -396h-270z" />
    <glyph glyph-name="a" unicode="a" horiz-adv-x="1156" 
d="M1062 652v-652h-342v138q-45 -79 -124 -121.5t-182 -42.5q-149 0 -245.5 93t-96.5 237q0 297 322 318l246 16q43 1 61.5 16.5t18.5 47.5v4q0 46 -40 79t-96 33q-139 0 -154 -116h-350q12 161 148.5 257.5t353.5 96.5q216 0 348 -111t132 -293zM416 324q0 -43 36.5 -70.5
t95.5 -27.5q72 0 122 46.5t50 113.5v40l-198 -8q-106 -6 -106 -94z" />
    <glyph glyph-name="b" unicode="b" horiz-adv-x="1226" 
d="M92 1434h342v-558q51 89 130 136.5t178 47.5q186 0 299 -149t113 -395q0 -247 -113 -397.5t-299 -150.5q-98 0 -177 48t-131 136v-152h-342v1434zM806 516q0 121 -49.5 188.5t-136.5 67.5q-88 0 -137 -67t-49 -189q0 -124 48.5 -192t137.5 -68q88 0 137 68t49 192z" />
    <glyph glyph-name="c" unicode="c" horiz-adv-x="1194" 
d="M72 516q0 246 146 395t386 149q221 0 363 -122t157 -336h-348q-3 170 -172 170q-89 0 -137.5 -66.5t-48.5 -189.5q0 -124 49 -192t137 -68q166 0 172 152h348q-21 -209 -161 -324.5t-359 -115.5q-239 0 -385.5 150.5t-146.5 397.5z" />
    <glyph glyph-name="d" unicode="d" horiz-adv-x="1226" 
d="M1134 1434v-1434h-342v154q-52 -90 -130 -138t-176 -48q-186 0 -300 150.5t-114 397.5q0 246 114 395t300 149q200 0 306 -184v558h342zM418 516q0 -124 49 -192t137 -68q89 0 138.5 68t49.5 192q0 121 -49.5 188.5t-138.5 67.5q-87 0 -136.5 -67.5t-49.5 -188.5z" />
    <glyph glyph-name="e" unicode="e" horiz-adv-x="1208" 
d="M72 516q0 244 139.5 386t378.5 142t392.5 -153t153.5 -391v-68h-712q27 -188 182 -188q135 0 154 108h364q-28 -185 -161.5 -276.5t-360.5 -91.5q-245 0 -387.5 143t-142.5 389zM594 806q-130 0 -164 -156h340q-7 72 -54.5 114t-121.5 42z" />
    <glyph glyph-name="f" unicode="f" horiz-adv-x="752" 
d="M52 754v270h148v66q0 164 102 254t278 90h122v-270h-68q-48 0 -70 -20t-22 -68v-52h160v-270h-160v-754h-342v754h-148z" />
    <glyph glyph-name="g" unicode="g" horiz-adv-x="1226" 
d="M1134 1024v-1046q0 -176 -139.5 -283t-368.5 -107q-228 0 -376 101.5t-174 272.5h346q6 -56 56 -87t132 -31q87 0 134.5 37.5t47.5 106.5v220q-53 -85 -133.5 -131.5t-180.5 -46.5q-183 0 -294.5 141.5t-111.5 374.5q0 231 111.5 371.5t294.5 140.5q202 0 314 -176v142
h342zM418 546q0 -106 50 -165t140 -59q87 0 135.5 59t48.5 165q0 107 -48.5 166.5t-135.5 59.5q-90 0 -140 -59.5t-50 -166.5z" />
    <glyph glyph-name="h" unicode="h" horiz-adv-x="1208" 
d="M776 566q0 95 -46 141.5t-128 46.5q-72 0 -120 -49t-48 -125v-580h-342v1434h342v-560q56 88 139.5 137t170.5 49q167 0 270.5 -111.5t103.5 -310.5v-638h-342v566z" />
    <glyph glyph-name="i" unicode="i" 
d="M78 1414h370v-274h-370v274zM92 1024h342v-1024h-342v1024z" />
    <glyph glyph-name="j" unicode="j" 
d="M78 1414h370v-274h-370v274zM-60 -92h64q46 0 67 20.5t21 67.5v1028h342v-1040q0 -180 -101 -279t-275 -99h-118v302z" />
    <glyph glyph-name="k" unicode="k" horiz-adv-x="1212" 
d="M736 1024h422l-366 -470l400 -554h-398l-256 368l-100 -126v-242h-342v1434h342v-832z" />
    <glyph glyph-name="l" unicode="l" 
d="M92 1434h342v-1434h-342v1434z" />
    <glyph glyph-name="m" unicode="m" horiz-adv-x="1808" 
d="M734 566q0 95 -39.5 141.5t-112.5 46.5q-63 0 -105.5 -49t-42.5 -125v-580h-342v1024h342v-144q53 85 131 132.5t159 47.5q112 0 197 -60.5t125 -173.5q50 110 137 172t181 62q157 0 254.5 -111.5t97.5 -310.5v-638h-340v566q0 95 -40.5 141.5t-113.5 46.5
q-63 0 -104.5 -49t-41.5 -125v-580h-342v566z" />
    <glyph glyph-name="n" unicode="n" horiz-adv-x="1208" 
d="M778 566q0 95 -45.5 141.5t-126.5 46.5q-74 0 -121 -49t-47 -125v-580h-342v1024h342v-150q54 88 137.5 137t170.5 49q168 0 271 -111.5t103 -310.5v-638h-342v566z" />
    <glyph glyph-name="o" unicode="o" horiz-adv-x="1212" 
d="M72 516q0 246 147 395t387 149t387 -149t147 -395q0 -247 -147 -397.5t-387 -150.5t-387 150.5t-147 397.5zM792 516q0 121 -49.5 188.5t-136.5 67.5q-89 0 -138.5 -67.5t-49.5 -188.5q0 -124 49.5 -192t138.5 -68q88 0 137 68t49 192z" />
    <glyph glyph-name="p" unicode="p" horiz-adv-x="1226" 
d="M92 1024h342v-148q51 89 130 136.5t178 47.5q186 0 299 -149t113 -395q0 -247 -113 -397.5t-299 -150.5q-98 0 -177 48t-131 136v-486h-342v1358zM806 516q0 121 -49.5 188.5t-136.5 67.5q-88 0 -137 -67t-49 -189q0 -124 48.5 -192t137.5 -68q88 0 137 68t49 192z" />
    <glyph glyph-name="q" unicode="q" horiz-adv-x="1226" 
d="M1134 1024v-1358h-342v488q-52 -90 -130 -138t-176 -48q-186 0 -300 150.5t-114 397.5q0 246 114 395t300 149q200 0 306 -184v148h342zM418 516q0 -124 49 -192t137 -68q89 0 138.5 68t49.5 192q0 121 -49.5 188.5t-138.5 67.5q-87 0 -136.5 -67.5t-49.5 -188.5z" />
    <glyph glyph-name="r" unicode="r" horiz-adv-x="838" 
d="M92 1024h342v-170q49 90 119 140t143 50h74v-348h-72q-112 0 -188 -52t-76 -132v-512h-342v1024z" />
    <glyph glyph-name="s" unicode="s" horiz-adv-x="1132" 
d="M640 372l-206 20q-352 35 -352 322q0 159 126 250.5t344 91.5q208 0 337 -91t149 -249h-332q-17 102 -152 102q-58 0 -92 -23t-34 -61q0 -34 19.5 -52t62.5 -24l222 -20q173 -16 251.5 -96.5t78.5 -237.5q0 -150 -127.5 -241t-336.5 -91q-226 0 -365.5 89.5t-160.5 246.5
h348q20 -102 172 -102q63 0 101.5 22.5t38.5 59.5q0 72 -92 84z" />
    <glyph glyph-name="t" unicode="t" horiz-adv-x="752" 
d="M702 286v-286h-122q-175 0 -275.5 90t-100.5 254v410h-152v270h152v266h342v-266h156v-270h-156v-364q0 -56 21.5 -80t66.5 -24h68z" />
    <glyph glyph-name="u" unicode="u" horiz-adv-x="1188" 
d="M434 444q0 -174 162 -174q68 0 114 46t46 116v592h340v-1024h-340v144q-54 -85 -136 -132.5t-166 -47.5q-162 0 -262 107.5t-100 300.5v652h342v-580z" />
    <glyph glyph-name="v" unicode="v" horiz-adv-x="1190" 
d="M56 1024h354l188 -718l180 718h358l-346 -1024h-390z" />
    <glyph glyph-name="w" unicode="w" horiz-adv-x="1806" 
d="M56 1024h354l136 -692l160 692h390l166 -692l134 692h356l-306 -1024h-392l-160 682l-140 -682h-406z" />
    <glyph glyph-name="x" unicode="x" horiz-adv-x="1160" 
d="M56 1024h356l170 -338l166 338h358l-268 -510l268 -514h-356l-170 342l-166 -342h-358l268 514z" />
    <glyph glyph-name="y" unicode="y" horiz-adv-x="1222" 
d="M124 -72h126q59 0 93.5 18t52.5 60l16 46l-356 972h354l204 -666l198 666h358l-356 -1046q-65 -192 -173 -268t-321 -76h-196v294z" />
    <glyph glyph-name="z" unicode="z" horiz-adv-x="1048" 
d="M88 1024h872v-306l-482 -466h482v-252h-872v306l480 466h-480v252z" />
    <glyph glyph-name="braceleft" unicode="{" horiz-adv-x="692" 
d="M646 1110h-60q-46 0 -67 -20.5t-21 -65.5v-252q0 -74 -42.5 -125.5t-119.5 -72.5q77 -21 119.5 -73t42.5 -127v-250q0 -45 21 -65.5t67 -20.5h60v-304h-112q-170 0 -265 95t-95 265v252q0 42 -19.5 61t-64.5 19h-42v296h42q45 0 64.5 19t19.5 63v248q0 171 95 266.5
t265 95.5h112v-304z" />
    <glyph glyph-name="bar" unicode="|" 
d="M92 1638h342v-2048h-342v2048z" />
    <glyph glyph-name="braceright" unicode="}" horiz-adv-x="692" 
d="M48 38h58q46 0 67 20.5t21 65.5v250q0 75 42 127t120 73q-78 21 -120 72t-42 126v252q0 45 -21 65.5t-67 20.5h-58v304h112q170 0 265 -95.5t95 -266.5v-248q0 -44 19.5 -63t64.5 -19h42v-296h-42q-45 0 -64.5 -19t-19.5 -61v-252q0 -170 -95 -265t-265 -95h-112v304z
" />
    <glyph glyph-name="asciitilde" unicode="~" horiz-adv-x="1010" 
d="M300 1032q18 0 34 -1t32.5 -5t27.5 -6t27 -9t22.5 -9t23.5 -12t19.5 -11.5t21.5 -12.5l18 -12q1 0 11.5 -7t12 -7.5t11.5 -6t12.5 -7t11.5 -5.5t13 -5t12 -4t14 -3.5t13.5 -1.5t14.5 -1q54 0 84 30.5t30 83.5h192q0 -175 -74.5 -271.5t-209.5 -96.5q-42 0 -80.5 11
t-59.5 22.5t-52 32.5q-7 5 -25.5 17.5t-27.5 18t-24 13t-28.5 10.5t-28.5 3q-45 0 -71.5 -32.5t-26.5 -85.5h-194q0 181 62.5 275.5t181.5 94.5z" />
    <glyph glyph-name="uni00A0" unicode="&#xa0;" horiz-adv-x="408" 
 />
    <glyph glyph-name="exclamdown" unicode="&#xa1;" 
d="M78 1024h370v-276h-370v276zM128 634h270l36 -942h-342z" />
    <glyph glyph-name="cent" unicode="&#xa2;" horiz-adv-x="1194" 
d="M72 670q0 231 129 377.5t347 164.5v118h118v-118q195 -17 319 -137t139 -319h-330q-6 152 -128 180v-536q122 26 128 162h328q-18 -193 -140 -308t-316 -132v-122h-118v122q-216 18 -346 167t-130 381zM402 670q0 -111 37.5 -180.5t108.5 -89.5v536q-71 -20 -108.5 -88.5
t-37.5 -177.5z" />
    <glyph glyph-name="sterling" unicode="&#xa3;" horiz-adv-x="1228" 
d="M80 778h166v138q0 194 124 313t326 119q197 0 328.5 -107t147.5 -281h-340q-6 54 -40 84t-88 30q-57 0 -87.5 -41.5t-30.5 -116.5v-138h350v-236h-350v-40q0 -63 -25 -116.5t-81 -81.5h676v-304h-1084v316q91 28 132.5 83.5t41.5 118.5v24h-166v236z" />
    <glyph glyph-name="currency" unicode="&#xa4;" horiz-adv-x="1168" 
d="M716 910l150 158l214 -216l-150 -142q26 -62 26 -134q0 -69 -30 -142l154 -144l-214 -216l-156 164q-57 -22 -124 -22q-71 0 -128 22l-156 -164l-214 216l154 144q-28 68 -28 142q0 68 26 132l-152 144l214 216l150 -158q72 24 132 24t132 -24zM448 576q0 -71 36 -110.5
t102 -39.5q63 0 99.5 40.5t36.5 109.5q0 68 -37.5 108t-100.5 40t-99.5 -40t-36.5 -108z" />
    <glyph glyph-name="yen" unicode="&#xa5;" horiz-adv-x="1314" 
d="M196 332h288v96h-288v218h206l-364 686h374l248 -526l242 526h374l-366 -686h208v-218h-294v-96h294v-218h-294v-114h-340v114h-288v218z" />
    <glyph glyph-name="brokenbar" unicode="&#xa6;" 
d="M96 1640h336v-918h-336v918zM432 508v-918h-336v918h336z" />
    <glyph glyph-name="section" unicode="&#xa7;" horiz-adv-x="1132" 
d="M640 336l-206 20q-180 15 -266 72t-86 158q0 70 52.5 121.5t149.5 80.5q-208 65 -208 252q0 146 126 235t334 89q225 0 365 -87.5t161 -240.5h-350q-11 51 -51.5 75.5t-116.5 24.5q-63 0 -101.5 -22.5t-38.5 -59.5q0 -49 92 -58l204 -20q352 -29 352 -230
q0 -143 -178 -212q184 -69 184 -246q0 -145 -126 -232.5t-336 -87.5q-224 0 -362.5 86t-161.5 238h348q20 -96 170 -96q63 0 100.5 21.5t37.5 58.5q0 49 -88 60zM514 594l104 -10q42 4 65 25t23 53q0 33 -20.5 50.5t-67.5 21.5l-106 14q-40 -6 -62 -27t-22 -53t20 -50
t66 -24z" />
    <glyph glyph-name="dieresis" unicode="&#xa8;" horiz-adv-x="952" 
d="M564 1350h334v-326h-334v326zM56 1350h334v-326h-334v326z" />
    <glyph glyph-name="copyright" unicode="&#xa9;" horiz-adv-x="1792" 
d="M1700 666q0 -230 -102 -408.5t-287.5 -277t-424.5 -98.5q-357 0 -575.5 209.5t-218.5 552.5q0 175 59.5 324t165.5 254t256.5 164.5t326.5 59.5q233 0 415.5 -98t283.5 -276t101 -406zM886 106q252 0 409 156t157 406q0 247 -153.5 399.5t-402.5 152.5t-402.5 -154.5
t-153.5 -407.5q0 -249 150 -400.5t396 -151.5zM472 664q0 192 115 309t307 117q172 0 283 -92.5t123 -253.5h-278q-3 124 -128 124q-69 0 -106.5 -52.5t-37.5 -151.5t37.5 -153.5t106.5 -54.5q122 0 128 106h278q-16 -156 -125 -242t-281 -86q-190 0 -306 118t-116 312z" />
    <glyph glyph-name="ordfeminine" unicode="&#xaa;" horiz-adv-x="1000" 
d="M908 764q0 -153 24 -240h-276q-11 63 -16 112q-44 -61 -110.5 -96.5t-141.5 -35.5q-138 0 -225 71t-87 185q0 101 73.5 161.5t204.5 72.5l192 18q47 5 68.5 16.5t21.5 35.5v6q0 37 -35 61.5t-87 24.5q-136 0 -148 -92h-282q11 132 126.5 211t301.5 79q169 0 282.5 -82
t113.5 -204v-304zM352 780q0 -33 31 -51.5t83 -18.5q74 0 122 40.5t48 101.5v12l-200 -20q-84 -8 -84 -64z" />
    <glyph glyph-name="guillemotleft" unicode="&#xab;" horiz-adv-x="1236" 
d="M1182 1160v-358l-294 -186l294 -174v-360l-524 346v388zM582 1160v-358l-294 -186l294 -174v-360l-524 346v388z" />
    <glyph glyph-name="logicalnot" unicode="&#xac;" horiz-adv-x="1270" 
d="M874 414h-818v304h1160v-570h-342v266z" />
    <glyph glyph-name="uni00AD" unicode="&#xad;" horiz-adv-x="850" 
d="M56 718h740v-304h-740v304z" />
    <glyph glyph-name="registered" unicode="&#xae;" horiz-adv-x="1792" 
d="M1700 666q0 -230 -102 -408.5t-287.5 -277t-424.5 -98.5q-357 0 -575.5 209.5t-218.5 552.5q0 175 59.5 324t165.5 254t256.5 164.5t326.5 59.5q233 0 415.5 -98t283.5 -276t101 -406zM886 106q252 0 409 156t157 406q0 247 -153.5 399.5t-402.5 152.5t-402.5 -154.5
t-153.5 -407.5q0 -249 150 -400.5t396 -151.5zM892 506h-116v-234h-256v780h466q124 0 200 -60.5t76 -159.5q0 -66 -37 -117.5t-103 -80.5q59 -21 90 -66t42 -124l20 -172h-252l-18 140q-6 49 -32.5 71.5t-79.5 22.5zM920 856h-144v-160h144q42 0 65 22.5t23 63.5
q0 35 -23 54.5t-65 19.5z" />
    <glyph glyph-name="macron" unicode="&#xaf;" horiz-adv-x="824" 
d="M56 1296h716v-248h-716v248z" />
    <glyph glyph-name="degree" unicode="&#xb0;" horiz-adv-x="836" 
d="M782 1020q0 -155 -101.5 -253.5t-260.5 -98.5q-161 0 -262.5 98t-101.5 254q0 154 101.5 252t260.5 98q161 0 262.5 -98t101.5 -252zM304 1020q0 -59 31 -92.5t85 -33.5q52 0 82 34t30 92q0 57 -31 90.5t-83 33.5t-83 -33.5t-31 -90.5z" />
    <glyph glyph-name="plusminus" unicode="&#xb1;" horiz-adv-x="1190" 
d="M746 870h390v-302h-390v-304h-302v304h-388v302h388v304h302v-304zM1136 170v-302h-1080v302h1080z" />
    <glyph glyph-name="uni00B2" unicode="&#xb2;" horiz-adv-x="890" 
d="M374 964h438v-218h-740v64q0 79 19.5 141t47.5 100t72.5 68t80 44t84.5 29q10 3 29 8.5t28.5 8t25 7.5t23.5 8.5t19 8.5t16.5 10.5t11.5 12t8.5 14t2.5 16.5q0 34 -23 53t-63 19q-46 0 -73 -23.5t-29 -62.5h-280q12 128 117 207t265 79q165 0 265.5 -74.5t100.5 -197.5
q0 -51 -20.5 -90.5t-60 -66.5t-76 -43.5t-89.5 -33.5q-10 -3 -50 -15.5t-52.5 -17t-38 -14.5t-38.5 -19.5t-21 -21.5z" />
    <glyph glyph-name="uni00B3" unicode="&#xb3;" horiz-adv-x="908" 
d="M384 1066v148h96q27 0 42.5 16t15.5 44q0 39 -25 60.5t-67 21.5t-66 -22t-26 -60h-280q12 128 115.5 206t260.5 78q161 0 263.5 -66.5t102.5 -171.5q0 -124 -114 -178q134 -54 134 -190q0 -100 -98 -161t-258 -61q-171 0 -283.5 80.5t-124.5 211.5h280q4 -42 34 -64
t80 -22q43 0 67.5 18t24.5 50q0 62 -78 62h-96z" />
    <glyph glyph-name="acute" unicode="&#xb4;" horiz-adv-x="696" 
d="M644 1418l-318 -394h-270l208 394h380z" />
    <glyph glyph-name="mu" unicode="&#xb5;" horiz-adv-x="1188" 
d="M434 444q0 -174 162 -174q68 0 114 46t46 116v592h340v-1024h-340v144q-54 -85 -136 -132.5t-166 -47.5h-20v-298h-342v1358h342v-580z" />
    <glyph glyph-name="paragraph" unicode="&#xb6;" horiz-adv-x="1394" 
d="M512 544q-198 0 -319 109t-121 287q0 176 120.5 283.5t319.5 108.5h770v-1332h-306v1036h-148v-1036h-316v544z" />
    <glyph glyph-name="periodcentered" unicode="&#xb7;" 
d="M78 866h370v-358h-370v358z" />
    <glyph glyph-name="cedilla" unicode="&#xb8;" horiz-adv-x="620" 
d="M198 20h182l-70 -132h30q100 0 163 -66.5t63 -173.5q0 -105 -89 -166.5t-239 -61.5h-182v238h166q80 0 80 62q0 48 -62 48h-70l-52 78z" />
    <glyph glyph-name="uni00B9" unicode="&#xb9;" horiz-adv-x="628" 
d="M268 1536h274v-790h-274v414h-216v222h94q63 0 92.5 24t29.5 86v44z" />
    <glyph glyph-name="ordmasculine" unicode="&#xba;" horiz-adv-x="1000" 
d="M68 930q0 191 119.5 307.5t314.5 116.5q193 0 311.5 -116.5t118.5 -307.5q0 -192 -118 -309t-312 -117q-195 0 -314.5 117t-119.5 309zM670 930q0 96 -44 149t-124 53q-82 0 -127 -53t-45 -149t45 -150t127 -54q79 0 123.5 54t44.5 150z" />
    <glyph glyph-name="guillemotright" unicode="&#xbb;" horiz-adv-x="1236" 
d="M58 82v360l292 182l-292 176v360l524 -344v-388zM658 82v360l294 182l-294 176v360l524 -344v-388z" />
    <glyph glyph-name="onequarter" unicode="&#xbc;" horiz-adv-x="2044" 
d="M378 1332h274v-792h-274v416h-216v222h94q64 0 93 23.5t29 84.5v46zM1150 1332h292l-542 -1332h-292zM1846 156v-156h-256v156h-418v220l364 414h310v-436h116v-198h-116zM1590 354v200l-156 -200h156z" />
    <glyph glyph-name="onehalf" unicode="&#xbd;" horiz-adv-x="2044" 
d="M378 1332h274v-792h-274v416h-216v222h94q64 0 93 23.5t29 84.5v46zM1150 1332h292l-542 -1332h-292zM1524 218h438v-218h-740v64q0 79 19.5 141t47.5 100t72.5 68t80 44t84.5 29q10 3 29 8.5t28.5 8t25 7.5t23.5 8.5t19 8.5t16.5 10.5t11.5 12t8.5 14t2.5 16.5
q0 34 -22.5 53t-63.5 19q-46 0 -73 -23.5t-29 -62.5h-280q12 128 117 208t265 80q166 0 266 -75.5t100 -198.5q0 -41 -15 -75t-36.5 -57t-57 -43t-65.5 -32t-72 -25q-15 -5 -50 -16.5t-51 -17t-39.5 -15.5t-37 -19.5t-22.5 -21.5z" />
    <glyph glyph-name="threequarters" unicode="&#xbe;" horiz-adv-x="2044" 
d="M384 862v148h96q58 0 58 60q0 37 -25 58.5t-67 21.5t-66.5 -21.5t-25.5 -60.5h-280q12 128 115.5 207t260.5 79q160 0 263 -67.5t103 -172.5q0 -125 -114 -176q134 -55 134 -190q0 -100 -98.5 -162t-257.5 -62q-171 0 -283.5 81.5t-124.5 212.5h280q4 -42 34 -64t80 -22
q44 0 68 17.5t24 48.5q0 30 -20.5 47t-57.5 17h-96zM1150 1332h292l-542 -1332h-292zM1846 156v-156h-256v156h-418v220l364 414h310v-436h116v-198h-116zM1590 354v200l-156 -200h156z" />
    <glyph glyph-name="questiondown" unicode="&#xbf;" horiz-adv-x="1178" 
d="M396 1024h370v-276h-370v276zM752 634q-8 -81 -38.5 -146t-60.5 -97.5t-79 -74.5q-8 -7 -28.5 -24t-28.5 -24t-25 -22.5t-24 -25t-18 -26t-15.5 -30.5t-8.5 -33t-4 -39q0 -69 43.5 -107.5t118.5 -38.5q76 0 122.5 49t49.5 133h346q-13 -201 -152 -326.5t-346 -125.5
q-238 0 -383 114t-145 302q0 67 14 119.5t42.5 92.5t53.5 64.5t66 55.5q78 60 103 89q47 53 57 121h340z" />
    <glyph glyph-name="Agrave" unicode="&#xc0;" horiz-adv-x="1366" 
d="M286 1828h380l208 -394h-270zM1328 0h-356l-72 238h-436l-68 -238h-358l452 1332h388zM680 974l-136 -466h276z" />
    <glyph glyph-name="Aacute" unicode="&#xc1;" horiz-adv-x="1366" 
d="M1084 1828l-318 -394h-270l208 394h380zM1328 0h-356l-72 238h-436l-68 -238h-358l452 1332h388zM680 974l-136 -466h276z" />
    <glyph glyph-name="Acircumflex" unicode="&#xc2;" horiz-adv-x="1366" 
d="M504 1830h326l294 -396h-310l-146 226l-146 -226h-312zM1328 0h-356l-72 238h-436l-68 -238h-358l452 1332h388zM680 974l-136 -466h276z" />
    <glyph glyph-name="Atilde" unicode="&#xc3;" horiz-adv-x="1366" 
d="M460 1806q50 0 96.5 -14t66 -25.5t61.5 -38.5q59 -37 88 -44q16 -4 34 -4q54 0 84 30t30 84h190q0 -176 -73.5 -272t-208.5 -96q-41 0 -79.5 11.5t-59 23t-51.5 31.5q-6 4 -21 14.5t-21.5 15t-19 11.5t-21.5 10.5t-21 6t-24 2.5q-45 0 -72.5 -32t-27.5 -86h-194
q0 182 62.5 277t181.5 95zM1328 0h-356l-72 238h-436l-68 -238h-358l452 1332h388zM680 974l-136 -466h276z" />
    <glyph glyph-name="Adieresis" unicode="&#xc4;" horiz-adv-x="1366" 
d="M762 1760h334v-326h-334v326zM252 1760h336v-326h-336v326zM1328 0h-356l-72 238h-436l-68 -238h-358l452 1332h388zM680 974l-136 -466h276z" />
    <glyph glyph-name="Aring" unicode="&#xc5;" horiz-adv-x="1366" 
d="M1328 0h-356l-72 238h-436l-68 -238h-358l410 1208q-108 89 -108 246q0 142 90.5 229t237.5 87q149 0 240 -87t90 -229q3 -136 -84 -226zM556 1454q0 -54 30 -83t84 -29t83 29t29 83q0 53 -29.5 81.5t-84.5 28.5q-53 0 -82.5 -29t-29.5 -81zM680 974l-136 -466h276z" />
    <glyph glyph-name="AE" unicode="&#xc6;" horiz-adv-x="1966" 
d="M1874 1332v-322h-624v-176h566v-320h-566v-194h624v-320h-966v238h-418l-96 -238h-356l552 1332h1284zM590 508h318v516h-114z" />
    <glyph glyph-name="Ccedilla" unicode="&#xc7;" horiz-adv-x="1372" 
d="M76 670q0 308 169.5 495t448.5 187q259 0 422 -134t182 -386h-348q-3 97 -72 155.5t-180 58.5q-131 0 -203.5 -99t-72.5 -277q0 -181 72.5 -279.5t203.5 -98.5q110 0 179 58.5t73 155.5h346q-4 -120 -45.5 -216t-114 -159.5t-168 -100t-210.5 -44.5l-52 -98h30
q100 0 163 -66.5t63 -173.5q0 -105 -89.5 -166.5t-238.5 -61.5h-182v238h166q82 0 82 62q0 22 -17 35t-47 13h-70l-50 78l68 146q-233 38 -370.5 220t-137.5 458z" />
    <glyph glyph-name="Egrave" unicode="&#xc8;" horiz-adv-x="1136" 
d="M210 1828h380l208 -394h-270zM1062 1332v-322h-624v-176h566v-320h-566v-194h624v-320h-966v1332h966z" />
    <glyph glyph-name="Eacute" unicode="&#xc9;" horiz-adv-x="1136" 
d="M1010 1828l-318 -394h-272l210 394h380zM1062 1332v-322h-624v-176h566v-320h-566v-194h624v-320h-966v1332h966z" />
    <glyph glyph-name="Ecircumflex" unicode="&#xca;" horiz-adv-x="1136" 
d="M430 1830h326l294 -396h-312l-144 226l-146 -226h-312zM1062 1332v-322h-624v-176h566v-320h-566v-194h624v-320h-966v1332h966z" />
    <glyph glyph-name="Edieresis" unicode="&#xcb;" horiz-adv-x="1136" 
d="M686 1760h336v-326h-336v326zM176 1760h338v-326h-338v326zM1062 1332v-322h-624v-176h566v-320h-566v-194h624v-320h-966v1332h966z" />
    <glyph glyph-name="Igrave" unicode="&#xcc;" 
d="M-124 1828h380l208 -394h-270zM92 1332h342v-1332h-342v1332z" />
    <glyph glyph-name="Iacute" unicode="&#xcd;" 
d="M676 1828l-318 -394h-272l210 394h380zM92 1332h342v-1332h-342v1332z" />
    <glyph glyph-name="Icircumflex" unicode="&#xce;" 
d="M96 1830h326l294 -396h-312l-144 226l-146 -226h-312zM92 1332h342v-1332h-342v1332z" />
    <glyph glyph-name="Idieresis" unicode="&#xcf;" 
d="M352 1760h336v-326h-336v326zM-158 1760h338v-326h-338v326zM92 1332h342v-1332h-342v1332z" />
    <glyph glyph-name="Eth" unicode="&#xd0;" horiz-adv-x="1508" 
d="M62 806h178v526h578q278 0 448 -190t170 -500q0 -289 -159 -465.5t-419 -176.5h-618v520h-178v286zM580 1028v-222h278v-286h-278v-216h258q118 0 183 88.5t65 249.5q0 184 -76 285t-214 101h-216z" />
    <glyph glyph-name="Ntilde" unicode="&#xd1;" horiz-adv-x="1368" 
d="M472 1806q49 0 95.5 -14.5t65 -25t63.5 -38.5q59 -37 87 -44q16 -4 33 -4q54 0 85 30t31 84h190q0 -175 -74 -271.5t-208 -96.5q-42 0 -81.5 12t-57.5 22t-53 32q-6 4 -24 17t-26 17.5t-22.5 12.5t-27.5 10.5t-28 2.5q-45 0 -71.5 -32t-26.5 -86h-196q0 183 63 277.5
t183 94.5zM932 1332h340v-1332h-354l-480 818v-818h-342v1332h416l420 -762v762z" />
    <glyph glyph-name="Ograve" unicode="&#xd2;" horiz-adv-x="1428" 
d="M324 1828h380l208 -394h-270zM76 650q0 317 175.5 509.5t464.5 192.5q288 0 464 -193t176 -509q0 -300 -176 -483t-464 -183q-289 0 -464.5 183t-175.5 483zM1008 650q0 187 -77 291.5t-215 104.5q-139 0 -216.5 -104t-77.5 -292q0 -170 77.5 -264t216.5 -94
q138 0 215 94.5t77 263.5z" />
    <glyph glyph-name="Oacute" unicode="&#xd3;" horiz-adv-x="1428" 
d="M1124 1828l-318 -394h-272l210 394h380zM76 650q0 317 175.5 509.5t464.5 192.5q288 0 464 -193t176 -509q0 -300 -176 -483t-464 -183q-289 0 -464.5 183t-175.5 483zM1008 650q0 187 -77 291.5t-215 104.5q-139 0 -216.5 -104t-77.5 -292q0 -170 77.5 -264t216.5 -94
q138 0 215 94.5t77 263.5z" />
    <glyph glyph-name="Ocircumflex" unicode="&#xd4;" horiz-adv-x="1428" 
d="M544 1830h326l294 -396h-312l-144 226l-146 -226h-312zM76 650q0 317 175.5 509.5t464.5 192.5q288 0 464 -193t176 -509q0 -300 -176 -483t-464 -183q-289 0 -464.5 183t-175.5 483zM1008 650q0 187 -77 291.5t-215 104.5q-139 0 -216.5 -104t-77.5 -292
q0 -170 77.5 -264t216.5 -94q138 0 215 94.5t77 263.5z" />
    <glyph glyph-name="Otilde" unicode="&#xd5;" horiz-adv-x="1428" 
d="M500 1806q49 0 95.5 -14.5t65 -25t63.5 -38.5q59 -37 87 -44q16 -4 33 -4q54 0 85 30t31 84h190q0 -175 -74 -271.5t-208 -96.5q-42 0 -81.5 12t-57.5 22t-53 32q-6 4 -21 14.5t-21.5 15t-19 11.5t-21.5 10.5t-21 6t-24 2.5q-45 0 -71.5 -32t-26.5 -86h-196
q0 183 63 277.5t183 94.5zM76 650q0 317 175.5 509.5t464.5 192.5q288 0 464 -193t176 -509q0 -300 -176 -483t-464 -183q-289 0 -464.5 183t-175.5 483zM1008 650q0 187 -77 291.5t-215 104.5q-139 0 -216.5 -104t-77.5 -292q0 -170 77.5 -264t216.5 -94q138 0 215 94.5
t77 263.5z" />
    <glyph glyph-name="Odieresis" unicode="&#xd6;" horiz-adv-x="1428" 
d="M800 1760h336v-326h-336v326zM290 1760h338v-326h-338v326zM76 650q0 317 175.5 509.5t464.5 192.5q288 0 464 -193t176 -509q0 -300 -176 -483t-464 -183q-289 0 -464.5 183t-175.5 483zM1008 650q0 187 -77 291.5t-215 104.5q-139 0 -216.5 -104t-77.5 -292
q0 -170 77.5 -264t216.5 -94q138 0 215 94.5t77 263.5z" />
    <glyph glyph-name="multiply" unicode="&#xd7;" horiz-adv-x="1190" 
d="M596 830l280 302l216 -216l-298 -282l298 -282l-216 -214l-280 298l-282 -298l-216 214l298 282l-298 282l216 216z" />
    <glyph glyph-name="Oslash" unicode="&#xd8;" horiz-adv-x="1428" 
d="M76 650q0 317 175.5 509.5t464.5 192.5q190 0 334 -86l130 162l176 -148l-138 -170q138 -185 138 -460q0 -300 -176 -483t-464 -183q-188 0 -336 82l-128 -162l-176 148l132 164q-132 175 -132 434zM422 650q0 -81 18 -144l408 508q-61 32 -132 32q-139 0 -216.5 -104
t-77.5 -292zM1008 650q0 95 -22 170l-402 -502q55 -26 132 -26q138 0 215 94.5t77 263.5z" />
    <glyph glyph-name="Ugrave" unicode="&#xd9;" horiz-adv-x="1288" 
d="M244 1828h380l208 -394h-270zM86 1332h342v-810q0 -102 60 -158t168 -56q98 0 152 56t54 158v810h340v-810q0 -243 -150.5 -390.5t-395.5 -147.5q-257 0 -413.5 147.5t-156.5 390.5v810z" />
    <glyph glyph-name="Uacute" unicode="&#xda;" horiz-adv-x="1288" 
d="M1044 1828l-318 -394h-272l210 394h380zM86 1332h342v-810q0 -102 60 -158t168 -56q98 0 152 56t54 158v810h340v-810q0 -243 -150.5 -390.5t-395.5 -147.5q-257 0 -413.5 147.5t-156.5 390.5v810z" />
    <glyph glyph-name="Ucircumflex" unicode="&#xdb;" horiz-adv-x="1288" 
d="M464 1830h326l294 -396h-312l-144 226l-146 -226h-312zM86 1332h342v-810q0 -102 60 -158t168 -56q98 0 152 56t54 158v810h340v-810q0 -243 -150.5 -390.5t-395.5 -147.5q-257 0 -413.5 147.5t-156.5 390.5v810z" />
    <glyph glyph-name="Udieresis" unicode="&#xdc;" horiz-adv-x="1288" 
d="M720 1760h336v-326h-336v326zM210 1760h338v-326h-338v326zM86 1332h342v-810q0 -102 60 -158t168 -56q98 0 152 56t54 158v810h340v-810q0 -243 -150.5 -390.5t-395.5 -147.5q-257 0 -413.5 147.5t-156.5 390.5v810z" />
    <glyph glyph-name="Yacute" unicode="&#xdd;" horiz-adv-x="1314" 
d="M1064 1828l-318 -394h-270l208 394h380zM484 446l-446 886h374l248 -532l242 532h374l-452 -886v-446h-340v446z" />
    <glyph glyph-name="Thorn" unicode="&#xde;" horiz-adv-x="1258" 
d="M92 1332h342v-194h260q225 0 361.5 -123t136.5 -325q0 -205 -128.5 -333.5t-337.5 -128.5h-288v-228h-346v1332zM438 850v-318h226q84 0 131 41.5t47 116.5q0 76 -47 118t-131 42h-226z" />
    <glyph glyph-name="germandbls" unicode="&#xdf;" horiz-adv-x="1286" 
d="M676 1164q-111 0 -174.5 -69t-63.5 -189v-906h-342v920q0 235 159 382.5t421 147.5q214 0 364 -122t150 -296q0 -102 -51 -182t-145 -130q103 -52 160.5 -139.5t57.5 -198.5q0 -172 -130 -277t-342 -105h-168v290h134q84 0 130 38.5t46 107.5q0 70 -49.5 109t-136.5 39
h-94v272h94q78 0 121 40t43 112q0 67 -52 111.5t-132 44.5z" />
    <glyph glyph-name="agrave" unicode="&#xe0;" horiz-adv-x="1156" 
d="M184 1540h380l208 -394h-268zM1062 652v-652h-342v138q-45 -79 -124 -121.5t-182 -42.5q-149 0 -245.5 93t-96.5 237q0 297 322 318l246 16q43 1 61.5 16.5t18.5 47.5v4q0 46 -40 79t-96 33q-139 0 -154 -116h-350q12 161 148.5 257.5t353.5 96.5q216 0 348 -111
t132 -293zM416 324q0 -43 36.5 -70.5t95.5 -27.5q72 0 122 46.5t50 113.5v40l-198 -8q-106 -6 -106 -94z" />
    <glyph glyph-name="aacute" unicode="&#xe1;" horiz-adv-x="1156" 
d="M984 1540l-318 -394h-272l210 394h380zM1062 652v-652h-342v138q-45 -79 -124 -121.5t-182 -42.5q-149 0 -245.5 93t-96.5 237q0 297 322 318l246 16q43 1 61.5 16.5t18.5 47.5v4q0 46 -40 79t-96 33q-139 0 -154 -116h-350q12 161 148.5 257.5t353.5 96.5
q216 0 348 -111t132 -293zM416 324q0 -43 36.5 -70.5t95.5 -27.5q72 0 122 46.5t50 113.5v40l-198 -8q-106 -6 -106 -94z" />
    <glyph glyph-name="acircumflex" unicode="&#xe2;" horiz-adv-x="1156" 
d="M404 1542h326l294 -396h-312l-144 226l-146 -226h-312zM1062 652v-652h-342v138q-45 -79 -124 -121.5t-182 -42.5q-149 0 -245.5 93t-96.5 237q0 297 322 318l246 16q43 1 61.5 16.5t18.5 47.5v4q0 46 -40 79t-96 33q-139 0 -154 -116h-350q12 161 148.5 257.5
t353.5 96.5q216 0 348 -111t132 -293zM416 324q0 -43 36.5 -70.5t95.5 -27.5q72 0 122 46.5t50 113.5v40l-198 -8q-106 -6 -106 -94z" />
    <glyph glyph-name="atilde" unicode="&#xe3;" horiz-adv-x="1156" 
d="M360 1518q49 0 95.5 -14.5t65 -25t63.5 -38.5q59 -37 87 -44q16 -4 33 -4q54 0 85 30t31 84h190q0 -176 -73.5 -272t-208.5 -96q-42 0 -81.5 12t-57.5 22t-53 32q-7 4 -24.5 17t-25.5 17.5t-22 12t-27 10.5t-27 3q-46 0 -73 -32t-27 -86h-196q0 183 63 277.5t183 94.5z
M1062 652v-652h-342v138q-45 -79 -124 -121.5t-182 -42.5q-149 0 -245.5 93t-96.5 237q0 297 322 318l246 16q43 1 61.5 16.5t18.5 47.5v4q0 46 -40 79t-96 33q-139 0 -154 -116h-350q12 161 148.5 257.5t353.5 96.5q216 0 348 -111t132 -293zM416 324q0 -43 36.5 -70.5
t95.5 -27.5q72 0 122 46.5t50 113.5v40l-198 -8q-106 -6 -106 -94z" />
    <glyph glyph-name="adieresis" unicode="&#xe4;" horiz-adv-x="1156" 
d="M660 1472h336v-326h-336v326zM150 1472h338v-326h-338v326zM1062 652v-652h-342v138q-45 -79 -124 -121.5t-182 -42.5q-149 0 -245.5 93t-96.5 237q0 297 322 318l246 16q43 1 61.5 16.5t18.5 47.5v4q0 46 -40 79t-96 33q-139 0 -154 -116h-350q12 161 148.5 257.5
t353.5 96.5q216 0 348 -111t132 -293zM416 324q0 -43 36.5 -70.5t95.5 -27.5q72 0 122 46.5t50 113.5v40l-198 -8q-106 -6 -106 -94z" />
    <glyph glyph-name="aring" unicode="&#xe5;" horiz-adv-x="1156" 
d="M898 1450q0 -143 -90.5 -230.5t-237.5 -87.5q-148 0 -239 87.5t-91 230.5t90.5 230.5t237.5 87.5q148 0 239 -87.5t91 -230.5zM456 1450q0 -53 30 -82.5t84 -29.5q52 0 81 29.5t29 82.5t-29 82.5t-83 29.5q-52 0 -82 -30t-30 -82zM1062 652v-652h-342v138
q-45 -79 -124 -121.5t-182 -42.5q-149 0 -245.5 93t-96.5 237q0 297 322 318l246 16q43 1 61.5 16.5t18.5 47.5v4q0 46 -40 79t-96 33q-139 0 -154 -116h-350q12 161 148.5 257.5t353.5 96.5q216 0 348 -111t132 -293zM416 324q0 -43 36.5 -70.5t95.5 -27.5q72 0 122 46.5
t50 113.5v40l-198 -8q-106 -6 -106 -94z" />
    <glyph glyph-name="ae" unicode="&#xe6;" horiz-adv-x="1858" 
d="M1294 -16q-160 0 -275 74t-169 210q-33 -138 -143.5 -216t-276.5 -78q-155 0 -256.5 93t-101.5 237q0 145 81.5 224t240.5 88l246 14q43 3 61.5 18.5t18.5 47.5v4q0 46 -41.5 79t-100.5 33q-133 0 -148 -116h-350q10 163 130.5 261.5t309.5 98.5q282 0 396 -174
q128 162 366 162q219 0 360.5 -153t141.5 -391v-68h-710q27 -188 180 -188q132 0 154 108h364q-27 -185 -149 -276.5t-329 -91.5zM1242 806q-131 0 -162 -156h338q-7 72 -54.5 114t-121.5 42zM416 338q0 -45 37 -72.5t95 -27.5q72 0 122 47t50 115v40l-198 -10
q-51 -1 -78.5 -25.5t-27.5 -66.5z" />
    <glyph glyph-name="ccedilla" unicode="&#xe7;" horiz-adv-x="1194" 
d="M72 516q0 246 146 395t386 149q221 0 363 -122t157 -336h-348q-3 170 -172 170q-89 0 -137.5 -66.5t-48.5 -189.5q0 -124 49 -192t137 -68q166 0 172 152h348q-19 -187 -134 -300t-298 -136l-46 -84h32q100 0 162 -66.5t62 -173.5q0 -105 -89 -166.5t-239 -61.5h-182v238
h166q82 0 82 62q0 22 -17 35t-47 13h-70l-50 78l58 128q-202 27 -322 173t-120 369z" />
    <glyph glyph-name="egrave" unicode="&#xe8;" horiz-adv-x="1208" 
d="M208 1540h380l208 -394h-270zM72 516q0 244 139.5 386t378.5 142t392.5 -153t153.5 -391v-68h-712q27 -188 182 -188q135 0 154 108h364q-28 -185 -161.5 -276.5t-360.5 -91.5q-245 0 -387.5 143t-142.5 389zM594 806q-130 0 -164 -156h340q-7 72 -54.5 114t-121.5 42z
" />
    <glyph glyph-name="eacute" unicode="&#xe9;" horiz-adv-x="1208" 
d="M1008 1540l-320 -394h-270l210 394h380zM72 516q0 244 139.5 386t378.5 142t392.5 -153t153.5 -391v-68h-712q27 -188 182 -188q135 0 154 108h364q-28 -185 -161.5 -276.5t-360.5 -91.5q-245 0 -387.5 143t-142.5 389zM594 806q-130 0 -164 -156h340q-7 72 -54.5 114
t-121.5 42z" />
    <glyph glyph-name="ecircumflex" unicode="&#xea;" horiz-adv-x="1208" 
d="M426 1542h328l292 -396h-310l-144 226l-148 -226h-310zM72 516q0 244 139.5 386t378.5 142t392.5 -153t153.5 -391v-68h-712q27 -188 182 -188q135 0 154 108h364q-28 -185 -161.5 -276.5t-360.5 -91.5q-245 0 -387.5 143t-142.5 389zM594 806q-130 0 -164 -156h340
q-7 72 -54.5 114t-121.5 42z" />
    <glyph glyph-name="edieresis" unicode="&#xeb;" horiz-adv-x="1208" 
d="M684 1472h334v-326h-334v326zM174 1472h336v-326h-336v326zM72 516q0 244 139.5 386t378.5 142t392.5 -153t153.5 -391v-68h-712q27 -188 182 -188q135 0 154 108h364q-28 -185 -161.5 -276.5t-360.5 -91.5q-245 0 -387.5 143t-142.5 389zM594 806q-130 0 -164 -156h340
q-7 72 -54.5 114t-121.5 42z" />
    <glyph glyph-name="igrave" unicode="&#xec;" 
d="M-122 1540h380l208 -394h-270zM92 1024h342v-1024h-342v1024z" />
    <glyph glyph-name="iacute" unicode="&#xed;" 
d="M676 1540l-318 -394h-272l210 394h380zM92 1024h342v-1024h-342v1024z" />
    <glyph glyph-name="icircumflex" unicode="&#xee;" 
d="M96 1542h326l294 -396h-310l-146 226l-146 -226h-312zM92 1024h342v-1024h-342v1024z" />
    <glyph glyph-name="idieresis" unicode="&#xef;" 
d="M354 1472h334v-326h-334v326zM-156 1472h336v-326h-336v326zM92 1024h342v-1024h-342v1024z" />
    <glyph glyph-name="eth" unicode="&#xf0;" horiz-adv-x="1310" 
d="M484 1298l210 16q-42 52 -110 120h378q28 -28 76 -92l214 18v-218l-94 -6q78 -184 78 -392q0 -348 -163 -554t-439 -206q-247 0 -402.5 149.5t-155.5 386.5q0 219 124 362.5t314 143.5q126 0 226.5 -65.5t147.5 -178.5v32q0 149 -66 294l-338 -28v218zM844 512
q0 106 -58.5 172t-153.5 66t-152.5 -66.5t-57.5 -175.5q0 -113 56.5 -181.5t149.5 -68.5q94 0 155 71.5t61 182.5z" />
    <glyph glyph-name="ntilde" unicode="&#xf1;" horiz-adv-x="1208" 
d="M404 1518q49 0 95.5 -14.5t65 -25t63.5 -38.5q59 -37 87 -44q16 -4 33 -4q54 0 85 30t31 84h190q0 -176 -73.5 -272t-208.5 -96q-42 0 -81.5 12t-57.5 22t-53 32q-7 4 -24.5 17t-25.5 17.5t-22 12t-27 10.5t-27 3q-46 0 -73 -32t-27 -86h-196q0 183 63 277.5t183 94.5z
M778 566q0 95 -45.5 141.5t-126.5 46.5q-74 0 -121 -49t-47 -125v-580h-342v1024h342v-150q54 88 137.5 137t170.5 49q168 0 271 -111.5t103 -310.5v-638h-342v566z" />
    <glyph glyph-name="ograve" unicode="&#xf2;" horiz-adv-x="1212" 
d="M212 1540h380l210 -394h-270zM72 516q0 246 147 395t387 149t387 -149t147 -395q0 -247 -147 -397.5t-387 -150.5t-387 150.5t-147 397.5zM792 516q0 121 -49.5 188.5t-136.5 67.5q-89 0 -138.5 -67.5t-49.5 -188.5q0 -124 49.5 -192t138.5 -68q88 0 137 68t49 192z" />
    <glyph glyph-name="oacute" unicode="&#xf3;" horiz-adv-x="1212" 
d="M1012 1540l-318 -394h-272l210 394h380zM72 516q0 246 147 395t387 149t387 -149t147 -395q0 -247 -147 -397.5t-387 -150.5t-387 150.5t-147 397.5zM792 516q0 121 -49.5 188.5t-136.5 67.5q-89 0 -138.5 -67.5t-49.5 -188.5q0 -124 49.5 -192t138.5 -68q88 0 137 68
t49 192z" />
    <glyph glyph-name="ocircumflex" unicode="&#xf4;" horiz-adv-x="1212" 
d="M432 1542h326l294 -396h-312l-144 226l-146 -226h-312zM72 516q0 246 147 395t387 149t387 -149t147 -395q0 -247 -147 -397.5t-387 -150.5t-387 150.5t-147 397.5zM792 516q0 121 -49.5 188.5t-136.5 67.5q-89 0 -138.5 -67.5t-49.5 -188.5q0 -124 49.5 -192t138.5 -68
q88 0 137 68t49 192z" />
    <glyph glyph-name="otilde" unicode="&#xf5;" horiz-adv-x="1212" 
d="M388 1518q18 0 34 -1t32 -5t26.5 -6t26.5 -9t22.5 -9.5t23 -12t19.5 -11t21 -13t19 -11.5q59 -37 87 -44q16 -4 33 -4q54 0 85 30t31 84h190q0 -176 -73.5 -272t-208.5 -96q-41 0 -79.5 11.5t-59 23t-51.5 31.5q-6 4 -21 14.5t-21.5 15t-19 11.5t-21.5 10.5t-21 6
t-24 2.5q-46 0 -73 -32t-27 -86h-196q0 183 63 277.5t183 94.5zM72 516q0 246 147 395t387 149t387 -149t147 -395q0 -247 -147 -397.5t-387 -150.5t-387 150.5t-147 397.5zM792 516q0 121 -49.5 188.5t-136.5 67.5q-89 0 -138.5 -67.5t-49.5 -188.5q0 -124 49.5 -192
t138.5 -68q88 0 137 68t49 192z" />
    <glyph glyph-name="odieresis" unicode="&#xf6;" horiz-adv-x="1212" 
d="M688 1472h336v-326h-336v326zM178 1472h338v-326h-338v326zM72 516q0 246 147 395t387 149t387 -149t147 -395q0 -247 -147 -397.5t-387 -150.5t-387 150.5t-147 397.5zM792 516q0 121 -49.5 188.5t-136.5 67.5q-89 0 -138.5 -67.5t-49.5 -188.5q0 -124 49.5 -192
t138.5 -68q88 0 137 68t49 192z" />
    <glyph glyph-name="divide" unicode="&#xf7;" horiz-adv-x="1032" 
d="M368 1120h302v-310h-302v310zM56 700h922v-268h-922v268zM368 312h302v-310h-302v310z" />
    <glyph glyph-name="oslash" unicode="&#xf8;" horiz-adv-x="1212" 
d="M72 516q0 246 147 395t387 149q171 0 296 -76l112 128l126 -112l-112 -128q112 -143 112 -356q0 -247 -147 -397.5t-387 -150.5q-169 0 -294 76l-112 -130l-124 112l110 130q-114 146 -114 360zM402 516q0 -62 10 -100l298 344q-47 28 -104 28q-96 0 -150 -71.5
t-54 -200.5zM810 516q0 47 -10 94l-296 -344q40 -26 102 -26q95 0 149.5 72.5t54.5 203.5z" />
    <glyph glyph-name="ugrave" unicode="&#xf9;" horiz-adv-x="1188" 
d="M202 1540h380l208 -394h-270zM434 444q0 -174 162 -174q68 0 114 46t46 116v592h340v-1024h-340v144q-54 -85 -136 -132.5t-166 -47.5q-162 0 -262 107.5t-100 300.5v652h342v-580z" />
    <glyph glyph-name="uacute" unicode="&#xfa;" horiz-adv-x="1188" 
d="M1002 1540l-320 -394h-270l210 394h380zM434 444q0 -174 162 -174q68 0 114 46t46 116v592h340v-1024h-340v144q-54 -85 -136 -132.5t-166 -47.5q-162 0 -262 107.5t-100 300.5v652h342v-580z" />
    <glyph glyph-name="ucircumflex" unicode="&#xfb;" horiz-adv-x="1188" 
d="M420 1542h328l292 -396h-310l-144 226l-148 -226h-310zM434 444q0 -174 162 -174q68 0 114 46t46 116v592h340v-1024h-340v144q-54 -85 -136 -132.5t-166 -47.5q-162 0 -262 107.5t-100 300.5v652h342v-580z" />
    <glyph glyph-name="udieresis" unicode="&#xfc;" horiz-adv-x="1188" 
d="M678 1472h334v-326h-334v326zM168 1472h336v-326h-336v326zM434 444q0 -174 162 -174q68 0 114 46t46 116v592h340v-1024h-340v144q-54 -85 -136 -132.5t-166 -47.5q-162 0 -262 107.5t-100 300.5v652h342v-580z" />
    <glyph glyph-name="yacute" unicode="&#xfd;" horiz-adv-x="1222" 
d="M1028 1540l-320 -394h-270l210 394h380zM124 -72h126q59 0 93.5 18t52.5 60l16 46l-356 972h354l204 -666l198 666h358l-356 -1046q-65 -192 -173 -268t-321 -76h-196v294z" />
    <glyph glyph-name="thorn" unicode="&#xfe;" horiz-adv-x="1226" 
d="M92 1434h342v-558q51 89 130 136.5t178 47.5q186 0 299 -149t113 -395q0 -247 -113 -397.5t-299 -150.5q-98 0 -177 48t-131 136v-486h-342v1768zM806 516q0 121 -49.5 188.5t-136.5 67.5q-88 0 -137 -67t-49 -189q0 -124 48.5 -192t137.5 -68q88 0 137 68t49 192z" />
    <glyph glyph-name="ydieresis" unicode="&#xff;" horiz-adv-x="1222" 
d="M704 1472h334v-326h-334v326zM194 1472h336v-326h-336v326zM124 -72h126q59 0 93.5 18t52.5 60l16 46l-356 972h354l204 -666l198 666h358l-356 -1046q-65 -192 -173 -268t-321 -76h-196v294z" />
    <glyph glyph-name="Amacron" unicode="&#x100;" horiz-adv-x="1366" 
d="M308 1706h716v-248h-716v248zM1328 0h-356l-72 238h-436l-68 -238h-358l452 1332h388zM680 974l-136 -466h276z" />
    <glyph glyph-name="amacron" unicode="&#x101;" horiz-adv-x="1156" 
d="M206 1418h718v-248h-718v248zM1062 652v-652h-342v138q-45 -79 -124 -121.5t-182 -42.5q-149 0 -245.5 93t-96.5 237q0 297 322 318l246 16q43 1 61.5 16.5t18.5 47.5v4q0 46 -40 79t-96 33q-139 0 -154 -116h-350q12 161 148.5 257.5t353.5 96.5q216 0 348 -111
t132 -293zM416 324q0 -43 36.5 -70.5t95.5 -27.5q72 0 122 46.5t50 113.5v40l-198 -8q-106 -6 -106 -94z" />
    <glyph glyph-name="Abreve" unicode="&#x102;" horiz-adv-x="1366" 
d="M1104 1794q-21 -168 -140 -270t-294 -102q-176 0 -296.5 102t-139.5 270h286q11 -65 50 -100.5t100 -35.5q62 0 99.5 35.5t46.5 100.5h288zM1328 0h-356l-72 238h-436l-68 -238h-358l452 1332h388zM680 974l-136 -466h276z" />
    <glyph glyph-name="abreve" unicode="&#x103;" horiz-adv-x="1156" 
d="M1004 1506q-23 -168 -141 -270t-293 -102q-176 0 -296.5 102t-141.5 270h288q9 -64 48.5 -100t101.5 -36q61 0 99 35.5t47 100.5h288zM1062 652v-652h-342v138q-45 -79 -124 -121.5t-182 -42.5q-149 0 -245.5 93t-96.5 237q0 297 322 318l246 16q43 1 61.5 16.5
t18.5 47.5v4q0 46 -40 79t-96 33q-139 0 -154 -116h-350q12 161 148.5 257.5t353.5 96.5q216 0 348 -111t132 -293zM416 324q0 -43 36.5 -70.5t95.5 -27.5q72 0 122 46.5t50 113.5v40l-198 -8q-106 -6 -106 -94z" />
    <glyph glyph-name="Aogonek" unicode="&#x104;" horiz-adv-x="1366" 
d="M1328 0q-103 -59 -137.5 -102t-34.5 -100q0 -90 116 -90h142v-256h-158q-158 0 -252 71t-94 189q0 179 202 288h-140l-72 238h-436l-68 -238h-358l452 1332h388zM680 974l-136 -466h276z" />
    <glyph glyph-name="aogonek" unicode="&#x105;" horiz-adv-x="1156" 
d="M1062 0q-103 -59 -137.5 -102t-34.5 -100q0 -90 116 -90h142v-256h-158q-158 0 -252 71t-94 189q0 179 202 288h-126v138q-45 -79 -124 -121.5t-182 -42.5q-149 0 -245.5 93t-96.5 237q0 297 322 318l246 16q43 1 61.5 16.5t18.5 47.5v4q0 46 -40 79t-96 33
q-139 0 -154 -116h-350q12 161 148.5 257.5t353.5 96.5q216 0 348 -111t132 -293v-652zM416 324q0 -43 36.5 -70.5t95.5 -27.5q72 0 122 46.5t50 113.5v40l-198 -8q-106 -6 -106 -94z" />
    <glyph glyph-name="Cacute" unicode="&#x106;" horiz-adv-x="1372" 
d="M1082 1828l-320 -394h-270l210 394h380zM76 670q0 308 169.5 495t448.5 187q259 0 422 -134t182 -386h-348q-3 97 -72 155.5t-180 58.5q-131 0 -203.5 -99t-72.5 -277q0 -181 72.5 -279.5t203.5 -98.5q110 0 179 58.5t73 155.5h348q-4 -128 -52.5 -228.5t-130 -164
t-188.5 -96.5t-233 -33q-278 0 -448 188.5t-170 497.5z" />
    <glyph glyph-name="cacute" unicode="&#x107;" horiz-adv-x="1194" 
d="M1008 1540l-318 -394h-272l210 394h380zM72 516q0 246 146 395t386 149q221 0 363 -122t157 -336h-348q-3 170 -172 170q-89 0 -137.5 -66.5t-48.5 -189.5q0 -124 49 -192t137 -68q166 0 172 152h348q-21 -209 -161 -324.5t-359 -115.5q-239 0 -385.5 150.5t-146.5 397.5
z" />
    <glyph glyph-name="Ccircumflex" unicode="&#x108;" horiz-adv-x="1372" 
d="M500 1830h328l292 -396h-310l-144 226l-148 -226h-310zM76 670q0 308 169.5 495t448.5 187q259 0 422 -134t182 -386h-348q-3 97 -72 155.5t-180 58.5q-131 0 -203.5 -99t-72.5 -277q0 -181 72.5 -279.5t203.5 -98.5q110 0 179 58.5t73 155.5h348q-4 -128 -52.5 -228.5
t-130 -164t-188.5 -96.5t-233 -33q-278 0 -448 188.5t-170 497.5z" />
    <glyph glyph-name="ccircumflex" unicode="&#x109;" horiz-adv-x="1194" 
d="M428 1542h326l294 -396h-312l-144 226l-146 -226h-312zM72 516q0 246 146 395t386 149q221 0 363 -122t157 -336h-348q-3 170 -172 170q-89 0 -137.5 -66.5t-48.5 -189.5q0 -124 49 -192t137 -68q166 0 172 152h348q-21 -209 -161 -324.5t-359 -115.5
q-239 0 -385.5 150.5t-146.5 397.5z" />
    <glyph glyph-name="Cdotaccent" unicode="&#x10a;" horiz-adv-x="1372" 
d="M484 1794h370v-360h-370v360zM76 670q0 308 169.5 495t448.5 187q259 0 422 -134t182 -386h-348q-3 97 -72 155.5t-180 58.5q-131 0 -203.5 -99t-72.5 -277q0 -181 72.5 -279.5t203.5 -98.5q110 0 179 58.5t73 155.5h348q-4 -128 -52.5 -228.5t-130 -164t-188.5 -96.5
t-233 -33q-278 0 -448 188.5t-170 497.5z" />
    <glyph glyph-name="cdotaccent" unicode="&#x10b;" horiz-adv-x="1194" 
d="M410 1506h370v-360h-370v360zM72 516q0 246 146 395t386 149q221 0 363 -122t157 -336h-348q-3 170 -172 170q-89 0 -137.5 -66.5t-48.5 -189.5q0 -124 49 -192t137 -68q166 0 172 152h348q-21 -209 -161 -324.5t-359 -115.5q-239 0 -385.5 150.5t-146.5 397.5z" />
    <glyph glyph-name="Ccaron" unicode="&#x10c;" horiz-adv-x="1372" 
d="M828 1434h-328l-292 396h310l146 -224l146 224h310zM76 670q0 308 169.5 495t448.5 187q259 0 422 -134t182 -386h-348q-3 97 -72 155.5t-180 58.5q-131 0 -203.5 -99t-72.5 -277q0 -181 72.5 -279.5t203.5 -98.5q110 0 179 58.5t73 155.5h348q-4 -128 -52.5 -228.5
t-130 -164t-188.5 -96.5t-233 -33q-278 0 -448 188.5t-170 497.5z" />
    <glyph glyph-name="ccaron" unicode="&#x10d;" horiz-adv-x="1194" 
d="M754 1146h-326l-294 396h312l146 -224l144 224h312zM72 516q0 246 146 395t386 149q221 0 363 -122t157 -336h-348q-3 170 -172 170q-89 0 -137.5 -66.5t-48.5 -189.5q0 -124 49 -192t137 -68q166 0 172 152h348q-21 -209 -161 -324.5t-359 -115.5q-239 0 -385.5 150.5
t-146.5 397.5z" />
    <glyph glyph-name="Dcaron" unicode="&#x10e;" horiz-adv-x="1366" 
d="M780 1434h-326l-294 396h312l146 -224l144 224h312zM674 1332q278 0 448 -190t170 -500q0 -289 -159 -465.5t-419 -176.5h-618v1332h578zM438 1028v-724h256q119 0 184.5 89t65.5 249q0 184 -76 285t-214 101h-216z" />
    <glyph glyph-name="dcaron" unicode="&#x10f;" horiz-adv-x="1318" 
d="M1302 1570h294l-84 -546h-286zM1134 1434v-1434h-342v154q-52 -90 -130 -138t-176 -48q-186 0 -300 150.5t-114 397.5q0 246 114 395t300 149q200 0 306 -184v558h342zM418 516q0 -124 49 -192t137 -68q89 0 138.5 68t49.5 192q0 121 -49.5 188.5t-138.5 67.5
q-87 0 -136.5 -67.5t-49.5 -188.5z" />
    <glyph glyph-name="Dcroat" unicode="&#x110;" horiz-adv-x="1508" 
d="M62 806h178v526h578q278 0 448 -190t170 -500q0 -289 -159 -465.5t-419 -176.5h-618v520h-178v286zM580 1028v-222h278v-286h-278v-216h258q118 0 183 88.5t65 249.5q0 184 -76 285t-214 101h-216z" />
    <glyph glyph-name="dcroat" unicode="&#x111;" horiz-adv-x="1314" 
d="M512 1326h280v108h342v-108h160v-214h-160v-1112h-342v148q-52 -87 -130 -133.5t-176 -46.5q-186 0 -300 146t-114 386q0 238 114 383t300 145q98 0 176 -46.5t130 -133.5v264h-280v214zM418 500q0 -115 49.5 -179.5t136.5 -64.5q89 0 138.5 64.5t49.5 179.5
q0 112 -49.5 175t-138.5 63q-87 0 -136.5 -63t-49.5 -175z" />
    <glyph glyph-name="Emacron" unicode="&#x112;" horiz-adv-x="1136" 
d="M232 1706h718v-248h-718v248zM1062 1332v-322h-624v-176h566v-320h-566v-194h624v-320h-966v1332h966z" />
    <glyph glyph-name="emacron" unicode="&#x113;" horiz-adv-x="1208" 
d="M230 1418h716v-248h-716v248zM72 516q0 244 139.5 386t378.5 142t392.5 -153t153.5 -391v-68h-712q27 -188 182 -188q135 0 154 108h364q-28 -185 -161.5 -276.5t-360.5 -91.5q-245 0 -387.5 143t-142.5 389zM594 806q-130 0 -164 -156h340q-7 72 -54.5 114t-121.5 42z
" />
    <glyph glyph-name="Ebreve" unicode="&#x114;" horiz-adv-x="1136" 
d="M1030 1794q-23 -168 -141.5 -270t-292.5 -102q-177 0 -297 102t-141 270h288q9 -64 48.5 -100t101.5 -36q61 0 99 35.5t47 100.5h288zM1062 1332v-322h-624v-176h566v-320h-566v-194h624v-320h-966v1332h966z" />
    <glyph glyph-name="ebreve" unicode="&#x115;" horiz-adv-x="1208" 
d="M1026 1506q-21 -168 -139.5 -270t-292.5 -102q-177 0 -297 102t-141 270h288q9 -65 48 -100.5t102 -35.5q61 0 98 35.5t48 100.5h286zM72 516q0 244 139.5 386t378.5 142t392.5 -153t153.5 -391v-68h-712q27 -188 182 -188q135 0 154 108h364q-28 -185 -161.5 -276.5
t-360.5 -91.5q-245 0 -387.5 143t-142.5 389zM594 806q-130 0 -164 -156h340q-7 72 -54.5 114t-121.5 42z" />
    <glyph glyph-name="Edotaccent" unicode="&#x116;" horiz-adv-x="1136" 
d="M412 1794h370v-360h-370v360zM1062 1332v-322h-624v-176h566v-320h-566v-194h624v-320h-966v1332h966z" />
    <glyph glyph-name="edotaccent" unicode="&#x117;" horiz-adv-x="1208" 
d="M410 1506h370v-360h-370v360zM72 516q0 244 139.5 386t378.5 142t392.5 -153t153.5 -391v-68h-712q27 -188 182 -188q135 0 154 108h364q-28 -185 -161.5 -276.5t-360.5 -91.5q-245 0 -387.5 143t-142.5 389zM594 806q-130 0 -164 -156h340q-7 72 -54.5 114t-121.5 42z
" />
    <glyph glyph-name="Eogonek" unicode="&#x118;" horiz-adv-x="1136" 
d="M1032 0q-103 -59 -137.5 -102t-34.5 -100q0 -90 116 -90h142v-256h-158q-158 0 -252 71t-94 189q0 179 202 288h-720v1332h966v-322h-624v-176h566v-320h-566v-194h624v-320h-30z" />
    <glyph glyph-name="eogonek" unicode="&#x119;" horiz-adv-x="1208" 
d="M72 516q0 244 139.5 386t378.5 142t392.5 -153t153.5 -391v-68h-712q27 -188 182 -188q135 0 154 108h364q-35 -231 -236 -318q-41 -33 -56.5 -63.5t-15.5 -70.5q0 -92 116 -92h144v-254h-160q-156 0 -250 70t-94 188q0 96 56 172h-26q-245 0 -387.5 143t-142.5 389z
M594 806q-130 0 -164 -156h340q-7 72 -54.5 114t-121.5 42z" />
    <glyph glyph-name="Ecaron" unicode="&#x11a;" horiz-adv-x="1136" 
d="M756 1434h-326l-294 396h312l146 -224l144 224h312zM1062 1332v-322h-624v-176h566v-320h-566v-194h624v-320h-966v1332h966z" />
    <glyph glyph-name="ecaron" unicode="&#x11b;" horiz-adv-x="1208" 
d="M754 1146h-328l-292 396h310l146 -224l146 224h310zM72 516q0 244 139.5 386t378.5 142t392.5 -153t153.5 -391v-68h-712q27 -188 182 -188q135 0 154 108h364q-28 -185 -161.5 -276.5t-360.5 -91.5q-245 0 -387.5 143t-142.5 389zM594 806q-130 0 -164 -156h340
q-7 72 -54.5 114t-121.5 42z" />
    <glyph glyph-name="Gcircumflex" unicode="&#x11c;" horiz-adv-x="1392" 
d="M500 1830h328l292 -396h-310l-144 226l-148 -226h-310zM76 670q0 308 170 495t450 187q254 0 419 -130t183 -356h-348q-12 84 -74.5 132t-167.5 48q-135 0 -210.5 -99t-75.5 -277q0 -181 71.5 -279.5t200.5 -100.5q105 2 171.5 55.5t76.5 146.5h-286v274h642v-766h-256
l-12 162q-67 -85 -163 -131.5t-211 -46.5q-261 0 -420.5 188.5t-159.5 497.5z" />
    <glyph glyph-name="gcircumflex" unicode="&#x11d;" horiz-adv-x="1226" 
d="M426 1542h326l294 -396h-312l-144 226l-146 -226h-312zM1134 1024v-1046q0 -176 -139.5 -283t-368.5 -107q-228 0 -376 101.5t-174 272.5h346q6 -56 56 -87t132 -31q87 0 134.5 37.5t47.5 106.5v220q-53 -85 -133.5 -131.5t-180.5 -46.5q-183 0 -294.5 141.5
t-111.5 374.5q0 231 111.5 371.5t294.5 140.5q202 0 314 -176v142h342zM418 546q0 -106 50 -165t140 -59q87 0 135.5 59t48.5 165q0 107 -48.5 166.5t-135.5 59.5q-90 0 -140 -59.5t-50 -166.5z" />
    <glyph glyph-name="Gbreve" unicode="&#x11e;" horiz-adv-x="1392" 
d="M1100 1794q-21 -168 -139.5 -270t-292.5 -102q-177 0 -297 102t-141 270h288q9 -65 48 -100.5t102 -35.5q61 0 98 35.5t48 100.5h286zM76 670q0 308 170 495t450 187q254 0 419 -130t183 -356h-348q-12 84 -74.5 132t-167.5 48q-135 0 -210.5 -99t-75.5 -277
q0 -181 71.5 -279.5t200.5 -100.5q105 2 171.5 55.5t76.5 146.5h-286v274h642v-766h-256l-12 162q-67 -85 -163 -131.5t-211 -46.5q-261 0 -420.5 188.5t-159.5 497.5z" />
    <glyph glyph-name="gbreve" unicode="&#x11f;" horiz-adv-x="1226" 
d="M1026 1506q-23 -168 -141 -270t-293 -102q-176 0 -296.5 102t-141.5 270h288q9 -64 48.5 -100t101.5 -36q61 0 99 35.5t47 100.5h288zM1134 1024v-1046q0 -176 -139.5 -283t-368.5 -107q-228 0 -376 101.5t-174 272.5h346q6 -56 56 -87t132 -31q87 0 134.5 37.5
t47.5 106.5v220q-53 -85 -133.5 -131.5t-180.5 -46.5q-183 0 -294.5 141.5t-111.5 374.5q0 231 111.5 371.5t294.5 140.5q202 0 314 -176v142h342zM418 546q0 -106 50 -165t140 -59q87 0 135.5 59t48.5 165q0 107 -48.5 166.5t-135.5 59.5q-90 0 -140 -59.5t-50 -166.5z" />
    <glyph glyph-name="Gdotaccent" unicode="&#x120;" horiz-adv-x="1392" 
d="M484 1794h370v-360h-370v360zM76 670q0 308 170 495t450 187q254 0 419 -130t183 -356h-348q-12 84 -74.5 132t-167.5 48q-135 0 -210.5 -99t-75.5 -277q0 -181 71.5 -279.5t200.5 -100.5q105 2 171.5 55.5t76.5 146.5h-286v274h642v-766h-256l-12 162
q-67 -85 -163 -131.5t-211 -46.5q-261 0 -420.5 188.5t-159.5 497.5z" />
    <glyph glyph-name="gdotaccent" unicode="&#x121;" horiz-adv-x="1226" 
d="M408 1506h370v-360h-370v360zM1134 1024v-1046q0 -176 -139.5 -283t-368.5 -107q-228 0 -376 101.5t-174 272.5h346q6 -56 56 -87t132 -31q87 0 134.5 37.5t47.5 106.5v220q-53 -85 -133.5 -131.5t-180.5 -46.5q-183 0 -294.5 141.5t-111.5 374.5q0 231 111.5 371.5
t294.5 140.5q202 0 314 -176v142h342zM418 546q0 -106 50 -165t140 -59q87 0 135.5 59t48.5 165q0 107 -48.5 166.5t-135.5 59.5q-90 0 -140 -59.5t-50 -166.5z" />
    <glyph glyph-name="uni0122" unicode="&#x122;" horiz-adv-x="1392" 
d="M76 670q0 308 170 495t450 187q254 0 419 -130t183 -356h-348q-12 84 -74.5 132t-167.5 48q-135 0 -210.5 -99t-75.5 -277q0 -181 71.5 -279.5t200.5 -100.5q105 2 171.5 55.5t76.5 146.5h-286v274h642v-766h-256l-12 162q-67 -85 -163 -131.5t-211 -46.5
q-261 0 -420.5 188.5t-159.5 497.5zM526 -62h370v-418q0 -122 -73.5 -187t-204.5 -65h-94v162h40q87 0 128.5 24t41.5 78v48h-208v358z" />
    <glyph glyph-name="uni0123" unicode="&#x123;" horiz-adv-x="1226" 
d="M776 1146h-370v420q0 120 74.5 186t203.5 66h94v-162h-42q-87 0 -127.5 -23.5t-40.5 -78.5v-48h208v-360zM1134 1024v-1046q0 -176 -139.5 -283t-368.5 -107q-228 0 -376 101.5t-174 272.5h346q6 -56 56 -87t132 -31q87 0 134.5 37.5t47.5 106.5v220
q-53 -85 -133.5 -131.5t-180.5 -46.5q-183 0 -294.5 141.5t-111.5 374.5q0 231 111.5 371.5t294.5 140.5q202 0 314 -176v142h342zM418 546q0 -106 50 -165t140 -59q87 0 135.5 59t48.5 165q0 107 -48.5 166.5t-135.5 59.5q-90 0 -140 -59.5t-50 -166.5z" />
    <glyph glyph-name="Hcircumflex" unicode="&#x124;" horiz-adv-x="1334" 
d="M498 1830h326l294 -396h-312l-144 226l-146 -226h-312zM96 1332h342v-484h460v484h342v-1332h-342v528h-460v-528h-342v1332z" />
    <glyph glyph-name="hcircumflex" unicode="&#x125;" horiz-adv-x="1208" 
d="M152 1938h326l294 -396h-310l-146 224l-146 -224h-312zM776 566q0 95 -46 141.5t-128 46.5q-72 0 -120 -49t-48 -125v-580h-342v1434h342v-560q56 88 139.5 137t170.5 49q167 0 270.5 -111.5t103.5 -310.5v-638h-342v566z" />
    <glyph glyph-name="Hbar" unicode="&#x126;" horiz-adv-x="1382" 
d="M24 1188h96v144h342v-144h460v144h342v-144h94v-218h-94v-970h-342v528h-460v-528h-342v970h-96v218zM462 814h460v156h-460v-156z" />
    <glyph glyph-name="hbar" unicode="&#x127;" horiz-adv-x="1286" 
d="M854 550q0 86 -46 128t-128 42q-72 0 -120 -44.5t-48 -113.5v-562h-342v1112h-154v214h154v108h342v-108h288v-214h-288v-266q56 86 139.5 134t170.5 48q168 0 270 -107t102 -299v-622h-340v550z" />
    <glyph glyph-name="Itilde" unicode="&#x128;" 
d="M52 1806q49 0 95.5 -14.5t65 -25t63.5 -38.5q59 -37 87 -44q16 -4 33 -4q54 0 85 30t31 84h190q0 -175 -74 -271.5t-208 -96.5q-42 0 -81.5 12t-57.5 22t-53 32q-6 4 -21 14.5t-21.5 15t-19 11.5t-21.5 10.5t-21 6t-24 2.5q-45 0 -71.5 -32t-26.5 -86h-196
q0 183 63 277.5t183 94.5zM92 1332h342v-1332h-342v1332z" />
    <glyph glyph-name="itilde" unicode="&#x129;" 
d="M52 1518q50 0 96.5 -14t66 -25.5t61.5 -38.5q59 -37 88 -44q16 -4 34 -4q54 0 84 30t30 84h190q0 -176 -73.5 -272t-208.5 -96q-41 0 -79.5 11.5t-59 23t-51.5 31.5q-6 4 -21 14.5t-21.5 15t-19 11.5t-21.5 10.5t-21 6t-24 2.5q-45 0 -72.5 -32t-27.5 -86h-194
q0 182 62.5 277t181.5 95zM92 1024h342v-1024h-342v1024z" />
    <glyph glyph-name="Imacron" unicode="&#x12a;" 
d="M-102 1706h718v-248h-718v248zM92 1332h342v-1332h-342v1332z" />
    <glyph glyph-name="imacron" unicode="&#x12b;" 
d="M-100 1418h716v-248h-716v248zM92 1024h342v-1024h-342v1024z" />
    <glyph glyph-name="Ibreve" unicode="&#x12c;" 
d="M694 1794q-21 -168 -139.5 -270t-292.5 -102q-177 0 -297 102t-141 270h288q9 -64 48.5 -100t101.5 -36q61 0 99 35.5t47 100.5h286zM92 1332h342v-1332h-342v1332z" />
    <glyph glyph-name="ibreve" unicode="&#x12d;" 
d="M696 1506q-21 -168 -140 -270t-294 -102q-176 0 -296.5 102t-139.5 270h286q11 -65 50 -100.5t100 -35.5q62 0 99.5 35.5t46.5 100.5h288zM92 1024h342v-1024h-342v1024z" />
    <glyph glyph-name="Iogonek" unicode="&#x12e;" 
d="M434 0q-103 -59 -137.5 -102t-34.5 -100q0 -90 116 -90h142v-256h-158q-158 0 -252 71t-94 189q0 179 202 288h-126v1332h342v-1332z" />
    <glyph glyph-name="iogonek" unicode="&#x12f;" 
d="M78 1414h370v-274h-370v274zM434 0q-103 -59 -137.5 -102t-34.5 -100q0 -90 116 -90h142v-256h-158q-158 0 -252 71t-94 189q0 179 202 288h-126v1024h342v-1024z" />
    <glyph glyph-name="Idotaccent" unicode="&#x130;" 
d="M78 1794h370v-360h-370v360zM92 1332h342v-1332h-342v1332z" />
    <glyph glyph-name="dotlessi" unicode="&#x131;" 
d="M92 1024h342v-1024h-342v1024z" />
    <glyph glyph-name="IJ" unicode="&#x132;" horiz-adv-x="1302" 
d="M562 304h160q71 0 107.5 43t36.5 139v846h340v-892q0 -211 -106.5 -325.5t-289.5 -114.5h-248v304zM92 1332h342v-1332h-342v1332z" />
    <glyph glyph-name="ij" unicode="&#x133;" horiz-adv-x="1050" 
d="M604 1414h370v-274h-370v274zM78 1414h370v-274h-370v274zM466 -92h64q46 0 67 20.5t21 67.5v1028h342v-1040q0 -180 -101 -279t-275 -99h-118v302zM92 1024h342v-1024h-342v1024z" />
    <glyph glyph-name="Jcircumflex" unicode="&#x134;" horiz-adv-x="774" 
d="M338 1830h326l294 -396h-312l-144 226l-146 -226h-312zM36 304h158q73 0 109.5 43t36.5 139v846h340v-892q0 -211 -106.5 -325.5t-289.5 -114.5h-248v304z" />
    <glyph glyph-name="jcircumflex" unicode="&#x135;" 
d="M96 1542h326l294 -396h-310l-146 226l-146 -226h-312zM-60 -92h64q46 0 67 20.5t21 67.5v1028h342v-1040q0 -180 -101 -279t-275 -99h-118v302z" />
    <glyph glyph-name="uni0136" unicode="&#x136;" horiz-adv-x="1336" 
d="M96 1332h342v-578l436 578h426l-508 -646l530 -686h-396l-370 502l-118 -164v-338h-342v1332zM480 -62h370v-418q0 -121 -73.5 -186.5t-202.5 -65.5h-94v162h40q87 0 127.5 23.5t40.5 78.5v48h-208v358z" />
    <glyph glyph-name="uni0137" unicode="&#x137;" horiz-adv-x="1212" 
d="M736 1024h422l-366 -470l400 -554h-398l-256 368l-100 -126v-242h-342v1434h342v-832zM430 -62h370v-418q0 -121 -73.5 -186.5t-202.5 -65.5h-94v162h40q87 0 127.5 23.5t40.5 78.5v48h-208v358z" />
    <glyph glyph-name="kgreenlandic" unicode="&#x138;" horiz-adv-x="1212" 
d="M96 1024h342v-422l298 422h422l-366 -470l400 -554h-398l-256 368l-100 -126v-242h-342v1024z" />
    <glyph glyph-name="Lacute" unicode="&#x139;" horiz-adv-x="1014" 
d="M680 1828l-320 -394h-270l210 394h380zM958 0h-862v1332h342v-1012h520v-320z" />
    <glyph glyph-name="lacute" unicode="&#x13a;" 
d="M672 1934l-318 -392h-272l210 392h380zM92 1434h342v-1434h-342v1434z" />
    <glyph glyph-name="uni013B" unicode="&#x13b;" horiz-adv-x="1014" 
d="M958 0h-862v1332h342v-1012h520v-320zM364 -62h370v-418q0 -122 -73.5 -187t-204.5 -65h-94v162h40q87 0 128.5 24t41.5 78v48h-208v358z" />
    <glyph glyph-name="uni013C" unicode="&#x13c;" 
d="M92 1434h342v-1434h-342v1434zM82 -62h370v-418q0 -122 -73.5 -187t-204.5 -65h-94v162h40q87 0 128.5 24t41.5 78v48h-208v358z" />
    <glyph glyph-name="Lcaron" unicode="&#x13d;" horiz-adv-x="1014" 
d="M626 1474h294l-84 -546h-286zM958 0h-862v1332h342v-1012h520v-320z" />
    <glyph glyph-name="lcaron" unicode="&#x13e;" horiz-adv-x="622" 
d="M602 1570h294l-86 -546h-284zM92 1434h342v-1434h-342v1434z" />
    <glyph glyph-name="Ldot" unicode="&#x13f;" horiz-adv-x="1014" 
d="M958 0h-862v1332h342v-1012h520v-320zM594 922h372v-358h-372v358z" />
    <glyph glyph-name="ldot" unicode="&#x140;" horiz-adv-x="1050" 
d="M92 1434h342v-1434h-342v1434zM604 866h370v-358h-370v358z" />
    <glyph glyph-name="Lslash" unicode="&#x141;" horiz-adv-x="1074" 
d="M0 798l158 30v504h340v-436l252 48v-268l-252 -50v-306h522v-320h-862v560l-158 -32v270z" />
    <glyph glyph-name="lslash" unicode="&#x142;" horiz-adv-x="672" 
d="M0 820l166 26v588h340v-534l166 26v-268l-166 -26v-632h-340v576l-166 -26v270z" />
    <glyph glyph-name="Nacute" unicode="&#x143;" horiz-adv-x="1368" 
d="M1096 1828l-318 -394h-272l210 394h380zM932 1332h340v-1332h-354l-480 818v-818h-342v1332h416l420 -762v762z" />
    <glyph glyph-name="nacute" unicode="&#x144;" horiz-adv-x="1208" 
d="M1028 1540l-318 -394h-272l210 394h380zM778 566q0 95 -45.5 141.5t-126.5 46.5q-74 0 -121 -49t-47 -125v-580h-342v1024h342v-150q54 88 137.5 137t170.5 49q168 0 271 -111.5t103 -310.5v-638h-342v566z" />
    <glyph glyph-name="uni0145" unicode="&#x145;" horiz-adv-x="1368" 
d="M932 1332h340v-1332h-354l-480 818v-818h-342v1332h416l420 -762v762zM504 -62h372v-418q0 -122 -73.5 -187t-204.5 -65h-94v162h40q87 0 128.5 24t41.5 78v48h-210v358z" />
    <glyph glyph-name="uni0146" unicode="&#x146;" horiz-adv-x="1208" 
d="M778 566q0 95 -45.5 141.5t-126.5 46.5q-74 0 -121 -49t-47 -125v-580h-342v1024h342v-150q54 88 137.5 137t170.5 49q168 0 271 -111.5t103 -310.5v-638h-342v566zM422 -62h370v-418q0 -121 -73.5 -186.5t-202.5 -65.5h-94v162h40q87 0 127.5 23.5t40.5 78.5v48h-208
v358z" />
    <glyph glyph-name="Ncaron" unicode="&#x147;" horiz-adv-x="1368" 
d="M842 1434h-326l-294 396h312l146 -224l144 224h312zM932 1332h340v-1332h-354l-480 818v-818h-342v1332h416l420 -762v762z" />
    <glyph glyph-name="ncaron" unicode="&#x148;" horiz-adv-x="1208" 
d="M774 1146h-326l-294 396h312l146 -224l144 224h312zM778 566q0 95 -45.5 141.5t-126.5 46.5q-74 0 -121 -49t-47 -125v-580h-342v1024h342v-150q54 88 137.5 137t170.5 49q168 0 271 -111.5t103 -310.5v-638h-342v566z" />
    <glyph glyph-name="napostrophe" unicode="&#x149;" horiz-adv-x="1642" 
d="M70 1428h372v-420q0 -121 -74.5 -186.5t-205.5 -65.5h-92v162h38q88 0 129 23t41 79v48h-208v360zM530 1024h342v-150q56 88 139.5 137t170.5 49q166 0 269 -111.5t103 -310.5v-638h-342v566q0 95 -45.5 141.5t-126.5 46.5q-72 0 -120 -49t-48 -125v-580h-342v1024z" />
    <glyph glyph-name="Eng" unicode="&#x14a;" horiz-adv-x="1368" 
d="M932 1332h340v-1330q0 -190 -109.5 -296t-306.5 -106h-124v302h70q68 0 99 27t31 85v38l-494 766v-818h-342v1332h416l420 -740v740z" />
    <glyph glyph-name="eng" unicode="&#x14b;" horiz-adv-x="1208" 
d="M778 564q0 93 -44 140.5t-128 47.5q-74 0 -121 -49t-47 -125v-580h-342v1024h342v-152q54 88 135 139t173 51q171 0 272.5 -115t101.5 -309v-634q0 -189 -106 -295.5t-294 -106.5h-142v302h88q60 0 86 26.5t26 85.5v550z" />
    <glyph glyph-name="Omacron" unicode="&#x14c;" horiz-adv-x="1428" 
d="M328 1706h716v-248h-716v248zM76 650q0 317 175.5 509.5t464.5 192.5q288 0 464 -193t176 -509q0 -300 -176 -483t-464 -183q-289 0 -464.5 183t-175.5 483zM1008 650q0 187 -77 291.5t-215 104.5q-139 0 -216.5 -104t-77.5 -292q0 -170 77.5 -264t216.5 -94
q138 0 215 94.5t77 263.5z" />
    <glyph glyph-name="omacron" unicode="&#x14d;" horiz-adv-x="1212" 
d="M234 1418h718v-248h-718v248zM72 516q0 246 147 395t387 149t387 -149t147 -395q0 -247 -147 -397.5t-387 -150.5t-387 150.5t-147 397.5zM792 516q0 121 -49.5 188.5t-136.5 67.5q-89 0 -138.5 -67.5t-49.5 -188.5q0 -124 49.5 -192t138.5 -68q88 0 137 68t49 192z" />
    <glyph glyph-name="Obreve" unicode="&#x14e;" horiz-adv-x="1428" 
d="M1124 1794q-21 -168 -139.5 -270t-292.5 -102q-177 0 -297 102t-141 270h288q9 -65 48 -100.5t102 -35.5q61 0 98 35.5t48 100.5h286zM76 650q0 317 175.5 509.5t464.5 192.5q288 0 464 -193t176 -509q0 -300 -176 -483t-464 -183q-289 0 -464.5 183t-175.5 483z
M1008 650q0 187 -77 291.5t-215 104.5q-139 0 -216.5 -104t-77.5 -292q0 -170 77.5 -264t216.5 -94q138 0 215 94.5t77 263.5z" />
    <glyph glyph-name="obreve" unicode="&#x14f;" horiz-adv-x="1212" 
d="M1032 1506q-23 -168 -141 -270t-293 -102q-176 0 -296.5 102t-141.5 270h288q9 -64 48.5 -100t101.5 -36q61 0 99 35.5t47 100.5h288zM72 516q0 246 147 395t387 149t387 -149t147 -395q0 -247 -147 -397.5t-387 -150.5t-387 150.5t-147 397.5zM792 516
q0 121 -49.5 188.5t-136.5 67.5q-89 0 -138.5 -67.5t-49.5 -188.5q0 -124 49.5 -192t138.5 -68q88 0 137 68t49 192z" />
    <glyph glyph-name="Ohungarumlaut" unicode="&#x150;" horiz-adv-x="1428" 
d="M1358 1828l-320 -394h-268l208 394h380zM882 1828l-318 -394h-270l210 394h378zM76 650q0 317 175.5 509.5t464.5 192.5q288 0 464 -193t176 -509q0 -300 -176 -483t-464 -183q-289 0 -464.5 183t-175.5 483zM1008 650q0 187 -77 291.5t-215 104.5q-139 0 -216.5 -104
t-77.5 -292q0 -170 77.5 -264t216.5 -94q138 0 215 94.5t77 263.5z" />
    <glyph glyph-name="ohungarumlaut" unicode="&#x151;" horiz-adv-x="1212" 
d="M1264 1540l-318 -394h-270l208 394h380zM790 1540l-318 -394h-270l208 394h380zM72 516q0 246 147 395t387 149t387 -149t147 -395q0 -247 -147 -397.5t-387 -150.5t-387 150.5t-147 397.5zM792 516q0 121 -49.5 188.5t-136.5 67.5q-89 0 -138.5 -67.5t-49.5 -188.5
q0 -124 49.5 -192t138.5 -68q88 0 137 68t49 192z" />
    <glyph glyph-name="OE" unicode="&#x152;" horiz-adv-x="2048" 
d="M76 658q0 309 154.5 501.5t403.5 192.5q232 0 374 -196v176h966v-322h-624v-176h566v-320h-566v-194h624v-320h-966v170q-142 -186 -374 -186q-251 0 -404.5 185.5t-153.5 488.5zM1008 658q0 182 -77 285t-215 103t-216 -103t-78 -285q0 -175 77 -270.5t217 -95.5
t216 95.5t76 270.5z" />
    <glyph glyph-name="oe" unicode="&#x153;" horiz-adv-x="1932" 
d="M72 516q0 246 133 395t351 149q134 0 237 -58t167 -166q61 100 162.5 154t233.5 54q219 0 361.5 -153t142.5 -391v-68h-712q27 -188 180 -188q135 0 154 108h364q-27 -185 -149 -276.5t-329 -91.5q-137 0 -241.5 54.5t-166.5 157.5q-62 -109 -166 -168.5t-238 -59.5
q-218 0 -351 150.5t-133 397.5zM1316 806q-131 0 -162 -156h338q-7 72 -54.5 114t-121.5 42zM792 516q0 121 -49.5 188.5t-136.5 67.5q-89 0 -138.5 -67.5t-49.5 -188.5q0 -124 49.5 -192t138.5 -68q88 0 137 68t49 192z" />
    <glyph glyph-name="Racute" unicode="&#x154;" horiz-adv-x="1260" 
d="M1034 1828l-318 -394h-272l210 394h380zM644 452h-206v-452h-342v1332h634q204 0 329 -106.5t125 -281.5q0 -119 -61.5 -206t-170.5 -130q96 -25 144.5 -94t63.5 -200l36 -314h-336l-36 282q-11 89 -52 129.5t-128 40.5zM676 1046h-238v-308h238q81 0 125.5 40.5
t44.5 113.5t-44.5 113.5t-125.5 40.5z" />
    <glyph glyph-name="racute" unicode="&#x155;" horiz-adv-x="838" 
d="M890 1540l-318 -394h-270l208 394h380zM92 1024h342v-170q49 90 119 140t143 50h74v-348h-72q-112 0 -188 -52t-76 -132v-512h-342v1024z" />
    <glyph glyph-name="uni0156" unicode="&#x156;" horiz-adv-x="1260" 
d="M644 452h-206v-452h-342v1332h634q204 0 329 -106.5t125 -281.5q0 -119 -61.5 -206t-170.5 -130q96 -25 144.5 -94t63.5 -200l36 -314h-336l-36 282q-11 89 -52 129.5t-128 40.5zM676 1046h-238v-308h238q81 0 125.5 40.5t44.5 113.5t-44.5 113.5t-125.5 40.5zM460 -62
h370v-418q0 -122 -73.5 -187t-204.5 -65h-94v162h40q87 0 128.5 24t41.5 78v48h-208v358z" />
    <glyph glyph-name="uni0157" unicode="&#x157;" horiz-adv-x="838" 
d="M92 1024h342v-170q49 90 119 140t143 50h74v-348h-72q-112 0 -188 -52t-76 -132v-512h-342v1024zM78 -62h370v-418q0 -121 -73.5 -186.5t-202.5 -65.5h-94v162h40q87 0 127.5 23.5t40.5 78.5v48h-208v358z" />
    <glyph glyph-name="Rcaron" unicode="&#x158;" horiz-adv-x="1260" 
d="M780 1434h-326l-294 396h312l146 -224l144 224h312zM644 452h-206v-452h-342v1332h634q204 0 329 -106.5t125 -281.5q0 -119 -61.5 -206t-170.5 -130q96 -25 144.5 -94t63.5 -200l36 -314h-336l-36 282q-11 89 -52 129.5t-128 40.5zM676 1046h-238v-308h238
q81 0 125.5 40.5t44.5 113.5t-44.5 113.5t-125.5 40.5z" />
    <glyph glyph-name="rcaron" unicode="&#x159;" horiz-adv-x="838" 
d="M636 1146h-326l-294 396h312l146 -224l146 224h310zM92 1024h342v-170q49 90 119 140t143 50h74v-348h-72q-112 0 -188 -52t-76 -132v-512h-342v1024z" />
    <glyph glyph-name="Sacute" unicode="&#x15a;" horiz-adv-x="1270" 
d="M1024 1828l-318 -394h-272l210 394h380zM706 492l-220 20q-193 19 -296.5 128t-103.5 294q0 192 143 304t389 112q237 0 384 -112.5t168 -309.5h-346q-14 80 -65 118t-145 38q-83 0 -133.5 -36t-50.5 -94q0 -90 120 -102l200 -20q225 -24 334.5 -131.5t109.5 -302.5
q0 -188 -144 -301t-384 -113q-253 0 -410 116t-180 316h348q27 -162 244 -162q83 0 132.5 36.5t49.5 97.5q0 89 -144 104z" />
    <glyph glyph-name="sacute" unicode="&#x15b;" horiz-adv-x="1132" 
d="M958 1540l-318 -394h-272l210 394h380zM640 372l-206 20q-352 35 -352 322q0 159 126 250.5t344 91.5q208 0 337 -91t149 -249h-332q-17 102 -152 102q-58 0 -92 -23t-34 -61q0 -34 19.5 -52t62.5 -24l222 -20q173 -16 251.5 -96.5t78.5 -237.5q0 -150 -127.5 -241
t-336.5 -91q-226 0 -365.5 89.5t-160.5 246.5h348q20 -102 172 -102q63 0 101.5 22.5t38.5 59.5q0 72 -92 84z" />
    <glyph glyph-name="Scircumflex" unicode="&#x15c;" horiz-adv-x="1270" 
d="M444 1830h326l294 -396h-312l-144 226l-146 -226h-312zM706 492l-220 20q-193 19 -296.5 128t-103.5 294q0 192 143 304t389 112q237 0 384 -112.5t168 -309.5h-346q-14 80 -65 118t-145 38q-83 0 -133.5 -36t-50.5 -94q0 -90 120 -102l200 -20q225 -24 334.5 -131.5
t109.5 -302.5q0 -188 -144 -301t-384 -113q-253 0 -410 116t-180 316h348q27 -162 244 -162q83 0 132.5 36.5t49.5 97.5q0 89 -144 104z" />
    <glyph glyph-name="scircumflex" unicode="&#x15d;" horiz-adv-x="1132" 
d="M378 1542h326l294 -396h-312l-144 226l-146 -226h-312zM640 372l-206 20q-352 35 -352 322q0 159 126 250.5t344 91.5q208 0 337 -91t149 -249h-332q-17 102 -152 102q-58 0 -92 -23t-34 -61q0 -34 19.5 -52t62.5 -24l222 -20q173 -16 251.5 -96.5t78.5 -237.5
q0 -150 -127.5 -241t-336.5 -91q-226 0 -365.5 89.5t-160.5 246.5h348q20 -102 172 -102q63 0 101.5 22.5t38.5 59.5q0 72 -92 84z" />
    <glyph glyph-name="Scedilla" unicode="&#x15e;" horiz-adv-x="1270" 
d="M706 492l-220 20q-193 19 -296.5 128t-103.5 294q0 192 143 304t389 112q237 0 384 -112.5t168 -309.5h-346q-14 80 -65 118t-145 38q-83 0 -133.5 -36t-50.5 -94q0 -90 120 -102l200 -20q225 -24 334.5 -131.5t109.5 -302.5q0 -171 -121.5 -281.5t-328.5 -128.5
l-52 -100h30q100 0 163 -66.5t63 -173.5q0 -105 -90 -166.5t-240 -61.5h-182v238h166q84 0 84 62q0 22 -17 35t-47 13h-70l-50 78l66 142q-212 23 -341.5 135.5t-150.5 292.5h348q27 -162 244 -162q83 0 132.5 36.5t49.5 97.5q0 89 -144 104z" />
    <glyph glyph-name="scedilla" unicode="&#x15f;" horiz-adv-x="1132" 
d="M640 372l-206 20q-352 35 -352 322q0 159 126 250.5t344 91.5q208 0 337 -91t149 -249h-332q-17 102 -152 102q-58 0 -92 -23t-34 -61q0 -34 19.5 -52t62.5 -24l222 -20q173 -16 251.5 -96.5t78.5 -237.5q0 -135 -105.5 -223t-284.5 -105l-46 -88h30q100 0 162 -66.5
t62 -173.5q0 -105 -89 -166.5t-239 -61.5h-182v238h166q84 0 84 62q0 22 -17 35t-47 13h-70l-50 78l60 132q-182 19 -293 106t-131 224h348q20 -102 172 -102q63 0 101.5 22.5t38.5 59.5q0 72 -92 84z" />
    <glyph glyph-name="Scaron" unicode="&#x160;" horiz-adv-x="1270" 
d="M770 1434h-326l-294 396h312l146 -224l144 224h312zM706 492l-220 20q-193 19 -296.5 128t-103.5 294q0 192 143 304t389 112q237 0 384 -112.5t168 -309.5h-346q-14 80 -65 118t-145 38q-83 0 -133.5 -36t-50.5 -94q0 -90 120 -102l200 -20q225 -24 334.5 -131.5
t109.5 -302.5q0 -188 -144 -301t-384 -113q-253 0 -410 116t-180 316h348q27 -162 244 -162q83 0 132.5 36.5t49.5 97.5q0 89 -144 104z" />
    <glyph glyph-name="scaron" unicode="&#x161;" horiz-adv-x="1132" 
d="M704 1146h-326l-294 396h312l146 -224l144 224h312zM640 372l-206 20q-352 35 -352 322q0 159 126 250.5t344 91.5q208 0 337 -91t149 -249h-332q-17 102 -152 102q-58 0 -92 -23t-34 -61q0 -34 19.5 -52t62.5 -24l222 -20q173 -16 251.5 -96.5t78.5 -237.5
q0 -150 -127.5 -241t-336.5 -91q-226 0 -365.5 89.5t-160.5 246.5h348q20 -102 172 -102q63 0 101.5 22.5t38.5 59.5q0 72 -92 84z" />
    <glyph glyph-name="uni0162" unicode="&#x162;" horiz-adv-x="1166" 
d="M1112 1332v-322h-358v-1010h-74l-60 -112h30q100 0 163 -66.5t63 -173.5q0 -105 -89.5 -166.5t-238.5 -61.5h-182v238h166q82 0 82 62q0 22 -17 35t-47 13h-70l-50 78l70 154h-86v1010h-358v322h1056z" />
    <glyph glyph-name="uni0163" unicode="&#x163;" horiz-adv-x="752" 
d="M702 286v-286h-26l-60 -112h30q100 0 163 -66.5t63 -173.5q0 -105 -89.5 -166.5t-238.5 -61.5h-182v238h166q82 0 82 62q0 22 -17 35t-47 13h-70l-50 78l74 160q-140 20 -218 106.5t-78 231.5v410h-152v270h152v266h342v-266h156v-270h-156v-364q0 -56 21.5 -80t66.5 -24
h68z" />
    <glyph glyph-name="Tcaron" unicode="&#x164;" horiz-adv-x="1166" 
d="M730 1434h-326l-294 396h312l146 -224l144 224h312zM1112 1332v-322h-358v-1010h-340v1010h-358v322h1056z" />
    <glyph glyph-name="tcaron" unicode="&#x165;" horiz-adv-x="886" 
d="M698 1634h294l-84 -544h-286zM702 286v-286h-122q-175 0 -275.5 90t-100.5 254v410h-152v270h152v266h342v-266h156v-270h-156v-364q0 -56 21.5 -80t66.5 -24h68z" />
    <glyph glyph-name="Tbar" unicode="&#x166;" horiz-adv-x="1166" 
d="M170 732h244v278h-358v322h1056v-322h-358v-278h264v-304h-264v-428h-340v428h-244v304z" />
    <glyph glyph-name="tbar" unicode="&#x167;" horiz-adv-x="752" 
d="M52 638h152v134h-152v252h152v266h342v-266h156v-252h-156v-134h156v-186h-156v-78q0 -47 21.5 -67.5t66.5 -20.5h68v-286h-122q-175 0 -275.5 90t-100.5 254v108h-152v186z" />
    <glyph glyph-name="Utilde" unicode="&#x168;" horiz-adv-x="1288" 
d="M420 1806q49 0 95.5 -14.5t65 -25t63.5 -38.5q59 -37 87 -44q16 -4 33 -4q54 0 85 30t31 84h190q0 -175 -74 -271.5t-208 -96.5q-42 0 -81.5 12t-57.5 22t-53 32q-6 4 -24 17t-26 17.5t-22.5 12.5t-27.5 10.5t-28 2.5q-45 0 -71.5 -32t-26.5 -86h-196q0 183 63 277.5
t183 94.5zM86 1332h342v-810q0 -102 60 -158t168 -56q98 0 152 56t54 158v810h340v-810q0 -243 -150.5 -390.5t-395.5 -147.5q-257 0 -413.5 147.5t-156.5 390.5v810z" />
    <glyph glyph-name="utilde" unicode="&#x169;" horiz-adv-x="1188" 
d="M376 1518q50 0 96.5 -14t66 -25.5t61.5 -38.5q59 -37 88 -44q16 -4 34 -4q54 0 85 30t31 84h188q0 -176 -73.5 -272t-208.5 -96q-41 0 -80 12t-57 22t-53 32q-6 4 -21 14.5t-21.5 15t-19 11.5t-21.5 10.5t-21 6t-24 2.5q-45 0 -71.5 -32t-26.5 -86h-196q0 182 62.5 277
t181.5 95zM434 444q0 -174 162 -174q68 0 114 46t46 116v592h340v-1024h-340v144q-54 -85 -136 -132.5t-166 -47.5q-162 0 -262 107.5t-100 300.5v652h342v-580z" />
    <glyph glyph-name="Umacron" unicode="&#x16a;" horiz-adv-x="1288" 
d="M266 1706h718v-248h-718v248zM86 1332h342v-810q0 -102 60 -158t168 -56q98 0 152 56t54 158v810h340v-810q0 -243 -150.5 -390.5t-395.5 -147.5q-257 0 -413.5 147.5t-156.5 390.5v810z" />
    <glyph glyph-name="umacron" unicode="&#x16b;" horiz-adv-x="1188" 
d="M224 1418h716v-248h-716v248zM434 444q0 -174 162 -174q68 0 114 46t46 116v592h340v-1024h-340v144q-54 -85 -136 -132.5t-166 -47.5q-162 0 -262 107.5t-100 300.5v652h342v-580z" />
    <glyph glyph-name="Ubreve" unicode="&#x16c;" horiz-adv-x="1288" 
d="M1064 1794q-23 -168 -141.5 -270t-292.5 -102q-177 0 -297 102t-141 270h288q9 -64 48.5 -100t101.5 -36q61 0 99 35.5t47 100.5h288zM86 1332h342v-810q0 -102 60 -158t168 -56q98 0 152 56t54 158v810h340v-810q0 -243 -150.5 -390.5t-395.5 -147.5
q-257 0 -413.5 147.5t-156.5 390.5v810z" />
    <glyph glyph-name="ubreve" unicode="&#x16d;" horiz-adv-x="1188" 
d="M1020 1506q-21 -168 -139.5 -270t-292.5 -102q-177 0 -297 102t-141 270h288q9 -65 48 -100.5t102 -35.5q61 0 98 35.5t48 100.5h286zM434 444q0 -174 162 -174q68 0 114 46t46 116v592h340v-1024h-340v144q-54 -85 -136 -132.5t-166 -47.5q-162 0 -262 107.5t-100 300.5
v652h342v-580z" />
    <glyph glyph-name="Uring" unicode="&#x16e;" horiz-adv-x="1288" 
d="M958 1738q0 -143 -90.5 -230.5t-237.5 -87.5q-148 0 -239 87.5t-91 230.5t90.5 230.5t237.5 87.5q148 0 239 -87.5t91 -230.5zM516 1738q0 -53 30 -82.5t84 -29.5q52 0 81 29.5t29 82.5t-29 82.5t-83 29.5q-52 0 -82 -30t-30 -82zM86 1332h342v-810q0 -102 60 -158
t168 -56q98 0 152 56t54 158v810h340v-810q0 -243 -150.5 -390.5t-395.5 -147.5q-257 0 -413.5 147.5t-156.5 390.5v810z" />
    <glyph glyph-name="uring" unicode="&#x16f;" horiz-adv-x="1188" 
d="M916 1450q0 -143 -90.5 -230.5t-237.5 -87.5q-149 0 -240.5 88t-91.5 230t91.5 230t238.5 88q148 0 239 -87.5t91 -230.5zM474 1450q0 -53 29.5 -82.5t84.5 -29.5q52 0 81 29.5t29 82.5t-29 82.5t-83 29.5t-83 -29.5t-29 -82.5zM434 444q0 -174 162 -174q68 0 114 46
t46 116v592h340v-1024h-340v144q-54 -85 -136 -132.5t-166 -47.5q-162 0 -262 107.5t-100 300.5v652h342v-580z" />
    <glyph glyph-name="Uhungarumlaut" unicode="&#x170;" horiz-adv-x="1288" 
d="M1296 1828l-318 -394h-270l208 394h380zM822 1828l-318 -394h-270l208 394h380zM86 1332h342v-810q0 -102 60 -158t168 -56q98 0 152 56t54 158v810h340v-810q0 -243 -150.5 -390.5t-395.5 -147.5q-257 0 -413.5 147.5t-156.5 390.5v810z" />
    <glyph glyph-name="uhungarumlaut" unicode="&#x171;" horiz-adv-x="1188" 
d="M1254 1540l-320 -394h-268l208 394h380zM778 1540l-318 -394h-270l210 394h378zM434 444q0 -174 162 -174q68 0 114 46t46 116v592h340v-1024h-340v144q-54 -85 -136 -132.5t-166 -47.5q-162 0 -262 107.5t-100 300.5v652h342v-580z" />
    <glyph glyph-name="Uogonek" unicode="&#x172;" horiz-adv-x="1288" 
d="M86 1332h342v-810q0 -102 60 -158t168 -56q98 0 152 56t54 158v810h340v-810q0 -209 -114.5 -350.5t-309.5 -177.5q-98 -56 -131 -98t-33 -98q0 -90 118 -90h142v-256h-158q-158 0 -252 71t-94 189q0 174 184 278q-214 30 -341 173t-127 359v810z" />
    <glyph glyph-name="uogonek" unicode="&#x173;" horiz-adv-x="1188" 
d="M434 444q0 -174 162 -174q68 0 114 46t46 116v592h340v-1024h2q-104 -59 -139 -102t-35 -100q0 -90 118 -90h142v-256h-158q-158 0 -252 71t-94 189q0 179 202 288h-126v144q-54 -85 -136 -132.5t-166 -47.5q-162 0 -262 107.5t-100 300.5v652h342v-580z" />
    <glyph glyph-name="Wcircumflex" unicode="&#x174;" horiz-adv-x="2110" 
d="M868 1830h328l292 -396h-310l-144 226l-148 -226h-310zM38 1332h356l210 -964l238 964h422l242 -964l210 964h356l-364 -1332h-426l-238 956l-214 -956h-442z" />
    <glyph glyph-name="wcircumflex" unicode="&#x175;" horiz-adv-x="1806" 
d="M720 1542h326l294 -396h-310l-146 226l-146 -226h-312zM56 1024h354l136 -692l160 692h390l166 -692l134 692h356l-306 -1024h-392l-160 682l-140 -682h-406z" />
    <glyph glyph-name="Ycircumflex" unicode="&#x176;" horiz-adv-x="1314" 
d="M484 1830h326l294 -396h-310l-146 226l-146 -226h-312zM484 446l-446 886h374l248 -532l242 532h374l-452 -886v-446h-340v446z" />
    <glyph glyph-name="ycircumflex" unicode="&#x177;" horiz-adv-x="1222" 
d="M446 1542h328l292 -396h-310l-144 226l-148 -226h-310zM124 -72h126q59 0 93.5 18t52.5 60l16 46l-356 972h354l204 -666l198 666h358l-356 -1046q-65 -192 -173 -268t-321 -76h-196v294z" />
    <glyph glyph-name="Ydieresis" unicode="&#x178;" horiz-adv-x="1314" 
d="M742 1760h334v-326h-334v326zM232 1760h336v-326h-336v326zM484 446l-446 886h374l248 -532l242 532h374l-452 -886v-446h-340v446z" />
    <glyph glyph-name="Zacute" unicode="&#x179;" horiz-adv-x="1216" 
d="M1018 1828l-318 -394h-270l208 394h380zM92 1332h1032v-342l-660 -704h660v-286h-1032v342l656 704h-656v286z" />
    <glyph glyph-name="zacute" unicode="&#x17a;" horiz-adv-x="1048" 
d="M946 1540l-318 -394h-272l210 394h380zM88 1024h872v-306l-482 -466h482v-252h-872v306l480 466h-480v252z" />
    <glyph glyph-name="Zdotaccent" unicode="&#x17b;" horiz-adv-x="1216" 
d="M422 1794h370v-360h-370v360zM92 1332h1032v-342l-660 -704h660v-286h-1032v342l656 704h-656v286z" />
    <glyph glyph-name="zdotaccent" unicode="&#x17c;" horiz-adv-x="1048" 
d="M350 1506h370v-360h-370v360zM88 1024h872v-306l-482 -466h482v-252h-872v306l480 466h-480v252z" />
    <glyph glyph-name="Zcaron" unicode="&#x17d;" horiz-adv-x="1216" 
d="M764 1434h-326l-294 396h312l146 -224l146 224h310zM92 1332h1032v-342l-660 -704h660v-286h-1032v342l656 704h-656v286z" />
    <glyph glyph-name="zcaron" unicode="&#x17e;" horiz-adv-x="1048" 
d="M692 1146h-326l-294 396h312l146 -224l144 224h312zM88 1024h872v-306l-482 -466h482v-252h-872v306l480 466h-480v252z" />
    <glyph glyph-name="longs" unicode="&#x17f;" horiz-adv-x="646" 
d="M596 1164h-66q-48 0 -70 -20t-22 -68v-1076h-342v1090q0 164 102 254t278 90h120v-270z" />
    <glyph glyph-name="Ohorn" unicode="&#x1a0;" horiz-adv-x="1428" 
d="M76 650q0 317 175.5 509.5t464.5 192.5q82 0 172 -20h218q52 0 80 26t28 94v124h258v-136q0 -71 -23.5 -125.5t-65 -87.5t-90 -52t-105.5 -25q168 -193 168 -500q0 -300 -176 -483t-464 -183q-289 0 -464.5 183t-175.5 483zM1008 650q0 187 -77 291.5t-215 104.5
q-139 0 -216.5 -104t-77.5 -292q0 -170 77.5 -264t216.5 -94q138 0 215 94.5t77 263.5z" />
    <glyph glyph-name="ohorn" unicode="&#x1a1;" horiz-adv-x="1266" 
d="M72 516q0 246 147 395t387 149q119 0 212 -36h112q52 0 81 26t29 96v122h256v-134q0 -127 -70 -196.5t-180 -89.5q94 -138 94 -332q0 -247 -147 -397.5t-387 -150.5t-387 150.5t-147 397.5zM792 516q0 121 -49.5 188.5t-136.5 67.5q-89 0 -138.5 -67.5t-49.5 -188.5
q0 -124 49.5 -192t138.5 -68q88 0 137 68t49 192z" />
    <glyph glyph-name="Uhorn" unicode="&#x1af;" horiz-adv-x="1370" 
d="M86 1332h342v-810q0 -102 60 -158t168 -56q98 0 152 56t54 158v810h222q80 14 80 120v122h256v-134q0 -118 -60 -185.5t-158 -92.5v-640q0 -243 -150.5 -390.5t-395.5 -147.5q-257 0 -413.5 147.5t-156.5 390.5v810z" />
    <glyph glyph-name="uhorn" unicode="&#x1b0;" horiz-adv-x="1282" 
d="M434 444q0 -174 162 -174q68 0 114 46t46 116v592h192q52 0 81 26t29 96v122h256v-134q0 -118 -60 -185.5t-158 -92.5v-856h-340v144q-54 -85 -136 -132.5t-166 -47.5q-162 0 -262 107.5t-100 300.5v652h342v-580z" />
    <glyph glyph-name="uni01CD" unicode="&#x1cd;" horiz-adv-x="1366" 
d="M830 1434h-326l-294 396h312l146 -224l146 224h310zM1328 0h-356l-72 238h-436l-68 -238h-358l452 1332h388zM680 974l-136 -466h276z" />
    <glyph glyph-name="uni01CE" unicode="&#x1ce;" horiz-adv-x="1156" 
d="M730 1146h-326l-294 396h312l146 -224l144 224h312zM1062 652v-652h-342v138q-45 -79 -124 -121.5t-182 -42.5q-149 0 -245.5 93t-96.5 237q0 297 322 318l246 16q43 1 61.5 16.5t18.5 47.5v4q0 46 -40 79t-96 33q-139 0 -154 -116h-350q12 161 148.5 257.5t353.5 96.5
q216 0 348 -111t132 -293zM416 324q0 -43 36.5 -70.5t95.5 -27.5q72 0 122 46.5t50 113.5v40l-198 -8q-106 -6 -106 -94z" />
    <glyph glyph-name="uni01CF" unicode="&#x1cf;" 
d="M422 1434h-326l-294 396h312l146 -224l144 224h312zM92 1332h342v-1332h-342v1332z" />
    <glyph glyph-name="uni01D0" unicode="&#x1d0;" 
d="M422 1146h-326l-294 396h312l146 -224l146 224h310zM92 1024h342v-1024h-342v1024z" />
    <glyph glyph-name="uni01D1" unicode="&#x1d1;" horiz-adv-x="1428" 
d="M852 1434h-328l-292 396h310l146 -224l146 224h310zM76 650q0 317 175.5 509.5t464.5 192.5q288 0 464 -193t176 -509q0 -300 -176 -483t-464 -183q-289 0 -464.5 183t-175.5 483zM1008 650q0 187 -77 291.5t-215 104.5q-139 0 -216.5 -104t-77.5 -292q0 -170 77.5 -264
t216.5 -94q138 0 215 94.5t77 263.5z" />
    <glyph glyph-name="uni01D2" unicode="&#x1d2;" horiz-adv-x="1212" 
d="M758 1146h-326l-294 396h312l146 -224l144 224h312zM72 516q0 246 147 395t387 149t387 -149t147 -395q0 -247 -147 -397.5t-387 -150.5t-387 150.5t-147 397.5zM792 516q0 121 -49.5 188.5t-136.5 67.5q-89 0 -138.5 -67.5t-49.5 -188.5q0 -124 49.5 -192t138.5 -68
q88 0 137 68t49 192z" />
    <glyph glyph-name="uni01D3" unicode="&#x1d3;" horiz-adv-x="1288" 
d="M790 1434h-326l-294 396h312l146 -224l144 224h312zM86 1332h342v-810q0 -102 60 -158t168 -56q98 0 152 56t54 158v810h340v-810q0 -243 -150.5 -390.5t-395.5 -147.5q-257 0 -413.5 147.5t-156.5 390.5v810z" />
    <glyph glyph-name="uni01D4" unicode="&#x1d4;" horiz-adv-x="1188" 
d="M748 1146h-328l-292 396h310l146 -224l146 224h310zM434 444q0 -174 162 -174q68 0 114 46t46 116v592h340v-1024h-340v144q-54 -85 -136 -132.5t-166 -47.5q-162 0 -262 107.5t-100 300.5v652h342v-580z" />
    <glyph glyph-name="uni01DD" unicode="&#x1dd;" horiz-adv-x="1208" 
d="M1136 512q0 -244 -140 -386t-378 -142t-392 144t-154 368v100h712q-30 188 -182 188q-136 0 -158 -108h-364q55 368 510 368q252 0 399 -143t147 -389zM614 222q131 0 162 156h-338q8 -72 54.5 -114t121.5 -42z" />
    <glyph glyph-name="uni01E2" unicode="&#x1e2;" horiz-adv-x="1966" 
d="M768 1706h718v-248h-718v248zM1874 1332v-322h-624v-176h566v-320h-566v-194h624v-320h-966v238h-418l-96 -238h-356l552 1332h1284zM590 508h318v516h-114z" />
    <glyph glyph-name="uni01E3" unicode="&#x1e3;" horiz-adv-x="1858" 
d="M544 1418h716v-248h-716v248zM1294 -16q-160 0 -275 74t-169 210q-33 -138 -143.5 -216t-276.5 -78q-155 0 -256.5 93t-101.5 237q0 145 81.5 224t240.5 88l246 14q43 3 61.5 18.5t18.5 47.5v4q0 46 -41.5 79t-100.5 33q-133 0 -148 -116h-350q10 163 130.5 261.5
t309.5 98.5q282 0 396 -174q128 162 366 162q219 0 360.5 -153t141.5 -391v-68h-710q27 -188 180 -188q132 0 154 108h364q-27 -185 -149 -276.5t-329 -91.5zM1242 806q-131 0 -162 -156h338q-7 72 -54.5 114t-121.5 42zM416 338q0 -45 37 -72.5t95 -27.5q72 0 122 47
t50 115v40l-198 -10q-51 -1 -78.5 -25.5t-27.5 -66.5z" />
    <glyph glyph-name="uni01F0" unicode="&#x1f0;" 
d="M422 1146h-326l-294 396h312l146 -224l146 224h310zM-60 -92h64q46 0 67 20.5t21 67.5v1028h342v-1040q0 -180 -101 -279t-275 -99h-118v302z" />
    <glyph glyph-name="AEacute" unicode="&#x1fc;" horiz-adv-x="1966" 
d="M1276 1828l-318 -394h-272l210 394h380zM1874 1332v-322h-624v-176h566v-320h-566v-194h624v-320h-966v238h-418l-96 -238h-356l552 1332h1284zM590 508h318v516h-114z" />
    <glyph glyph-name="aeacute" unicode="&#x1fd;" horiz-adv-x="1858" 
d="M1320 1540l-318 -394h-270l208 394h380zM1294 -16q-160 0 -275 74t-169 210q-33 -138 -143.5 -216t-276.5 -78q-155 0 -256.5 93t-101.5 237q0 145 81.5 224t240.5 88l246 14q43 3 61.5 18.5t18.5 47.5v4q0 46 -41.5 79t-100.5 33q-133 0 -148 -116h-350
q10 163 130.5 261.5t309.5 98.5q282 0 396 -174q128 162 366 162q219 0 360.5 -153t141.5 -391v-68h-710q27 -188 180 -188q132 0 154 108h364q-27 -185 -149 -276.5t-329 -91.5zM1242 806q-131 0 -162 -156h338q-7 72 -54.5 114t-121.5 42zM416 338q0 -45 37 -72.5
t95 -27.5q72 0 122 47t50 115v40l-198 -10q-51 -1 -78.5 -25.5t-27.5 -66.5z" />
    <glyph glyph-name="uni0237" unicode="&#x237;" 
d="M-60 -92h64q46 0 67 20.5t21 67.5v1028h342v-1040q0 -180 -101 -279t-275 -99h-118v302z" />
    <glyph glyph-name="uni0250" unicode="&#x250;" horiz-adv-x="1152" 
d="M84 690q0 162 -28 334h344q13 -51 24 -150q45 85 124.5 130.5t185.5 45.5q147 0 243.5 -93t96.5 -235q0 -294 -320 -312l-248 -16q-44 -3 -62 -18t-18 -48v-4q0 -46 41.5 -79t100.5 -33q133 0 148 118h350q-12 -165 -148 -263.5t-352 -98.5q-217 0 -349.5 111t-132.5 293
v318zM426 624v-40l198 10q51 3 78.5 26.5t27.5 65.5q0 45 -36.5 72.5t-95.5 27.5q-72 0 -122 -47t-50 -115z" />
    <glyph glyph-name="uni0251" unicode="&#x251;" horiz-adv-x="1228" 
d="M1244 286v-286h-72q-133 0 -225 52t-129 150q-50 -112 -136 -173t-196 -61q-186 0 -300 150.5t-114 397.5q0 246 114 395t300 149q200 0 306 -184v148h342v-634q0 -56 22 -80t68 -24h20zM418 516q0 -124 49 -192t137 -68q89 0 138.5 68t49.5 192q0 121 -49.5 188.5
t-138.5 67.5q-87 0 -136.5 -67.5t-49.5 -188.5z" />
    <glyph glyph-name="uni0252" unicode="&#x252;" horiz-adv-x="1228" 
d="M-16 742v286h72q133 0 224 -51.5t130 -150.5q50 112 135.5 173t196.5 61q186 0 299 -150.5t113 -397.5q0 -246 -113 -395t-299 -149q-99 0 -178 47.5t-130 136.5v-148h-342v634q0 56 -22 80t-68 24h-18zM806 512q0 124 -49 192t-137 68q-89 0 -137.5 -68t-48.5 -192
q0 -122 49 -189t137 -67q87 0 136.5 67.5t49.5 188.5z" />
    <glyph glyph-name="uni0253" unicode="&#x253;" horiz-adv-x="1226" 
d="M72 0v972q0 219 140 353.5t370 134.5q227 0 375 -107t175 -287h-348q-6 62 -53.5 98t-124.5 36q-92 0 -143 -63t-51 -175v-146q53 85 134 131.5t180 46.5q183 0 295.5 -142t112.5 -374q0 -230 -112.5 -371t-295.5 -141q-99 0 -180 46t-134 130v-142h-340zM786 478
q0 106 -49.5 166t-138.5 60q-88 0 -137 -59.5t-49 -166.5t49 -166.5t137 -59.5q89 0 138.5 60t49.5 166z" />
    <glyph glyph-name="uni0254" unicode="&#x254;" horiz-adv-x="1194" 
d="M1124 512q0 -246 -146.5 -395t-387.5 -149q-220 0 -361.5 121t-156.5 335h346q6 -168 172 -168q89 0 137.5 66.5t48.5 189.5q0 124 -48.5 192t-137.5 68q-164 0 -172 -154h-346q21 210 160.5 326t357.5 116q240 0 387 -150.5t147 -397.5z" />
    <glyph glyph-name="uni0255" unicode="&#x255;" horiz-adv-x="1198" 
d="M194 -150q0 151 34 284q-156 147 -156 382q0 246 146 395t386 149q221 0 363 -100t157 -276h-348q-21 59 -60.5 90.5t-111.5 31.5q-89 0 -137.5 -66.5t-48.5 -187.5q0 -28 4 -76q141 122 326 122q159 0 267.5 -83t108.5 -215q0 -99 -63.5 -171.5t-168 -108.5t-236.5 -36
q-109 0 -196 26q-8 -67 -8 -160h-258zM666 218q53 0 84.5 20.5t31.5 61.5q0 31 -26 50.5t-66 19.5q-101 0 -162 -110q57 -42 138 -42z" />
    <glyph glyph-name="uni0256" unicode="&#x256;" horiz-adv-x="1228" 
d="M1244 -48v-286h-72q-176 0 -278 90t-102 254v144q-52 -90 -130 -138t-176 -48q-186 0 -300 150.5t-114 397.5q0 246 114 395t300 149q200 0 306 -184v558h342v-1378q0 -56 22 -80t68 -24h20zM418 516q0 -124 49 -192t137 -68q89 0 138.5 68t49.5 192q0 121 -49.5 188.5
t-138.5 67.5q-87 0 -136.5 -67.5t-49.5 -188.5z" />
    <glyph glyph-name="uni0257" unicode="&#x257;" horiz-adv-x="1228" 
d="M1280 1148h-56q-46 0 -68 -24t-22 -80v-1044h-342v154q-52 -90 -130 -138t-176 -48q-186 0 -300 150.5t-114 397.5q0 246 114 395t300 149q200 0 306 -184v214q0 164 102 254t278 90h108v-286zM418 516q0 -124 49 -192t137 -68q89 0 138.5 68t49.5 192q0 121 -49.5 188.5
t-138.5 67.5q-87 0 -136.5 -67.5t-49.5 -188.5z" />
    <glyph glyph-name="uni0258" unicode="&#x258;" horiz-adv-x="1208" 
d="M1136 516q0 -246 -143 -389t-387 -143q-466 0 -522 368h364q22 -108 154 -108q152 0 182 188h-712v68q0 257 145.5 400.5t382.5 143.5q247 0 391.5 -142t144.5 -386zM438 650h338q-31 156 -162 156q-75 0 -122.5 -42t-53.5 -114z" />
    <glyph glyph-name="uni0259" unicode="&#x259;" horiz-adv-x="1208" 
d="M1136 512q0 -244 -140 -386t-378 -142t-392 144t-154 368v100h712q-30 188 -182 188q-136 0 -158 -108h-364q55 368 510 368q252 0 399 -143t147 -389zM614 222q131 0 162 156h-338q8 -72 54.5 -114t121.5 -42z" />
    <glyph glyph-name="uni025A" unicode="&#x25a;" horiz-adv-x="1564" 
d="M1136 512q0 -244 -140 -386t-378 -142q-239 0 -392.5 136.5t-153.5 347.5v46l698 140q-42 130 -168 130q-136 0 -158 -108h-364q55 368 510 368q186 0 318.5 -81t189.5 -227l152 30h174v-106q0 -46 21 -63t59 -17h56v-232h-94q-38 0 -73.5 6.5t-69.5 22.5t-59 39.5
t-40.5 61t-15.5 84.5v14l-72 -16v-48zM440 364q14 -66 58 -104t116 -38q75 0 118.5 53t53.5 167z" />
    <glyph glyph-name="uni025B" unicode="&#x25b;" horiz-adv-x="1112" 
d="M1040 338q-14 -182 -145.5 -272t-344.5 -90q-212 0 -343 84t-131 222q0 158 148 234q-132 69 -132 218q0 141 126.5 230.5t323.5 89.5q208 0 344.5 -99t151.5 -261h-348q-3 51 -36 81.5t-88 30.5q-57 0 -89.5 -26.5t-32.5 -73.5q0 -80 86 -80h130v-220h-130
q-51 0 -79.5 -23t-28.5 -65q0 -43 33.5 -67.5t92.5 -24.5q64 0 102.5 29t41.5 83h348z" />
    <glyph glyph-name="uni025C" unicode="&#x25c;" horiz-adv-x="1112" 
d="M456 406v220h128q42 0 65 20.5t23 59.5q0 46 -33 73t-89 27q-57 0 -90.5 -30.5t-35.5 -81.5h-346q13 162 144.5 261t331.5 99q204 0 334 -89.5t130 -230.5q0 -148 -128 -218q150 -73 150 -234q0 -138 -126.5 -222t-331.5 -84q-212 0 -352.5 100t-153.5 262h346
q6 -53 44.5 -82.5t101.5 -29.5q59 0 91.5 24.5t32.5 67.5q0 42 -28.5 65t-79.5 23h-128z" />
    <glyph glyph-name="uni025D" unicode="&#x25d;" horiz-adv-x="1412" 
d="M1406 580v-232h-92q-49 0 -93 11t-82 34.5t-60.5 67t-22.5 101.5v14l-116 -24q-18 -18 -50 -36q150 -73 150 -234q0 -138 -126.5 -222t-331.5 -84q-212 0 -352.5 100t-153.5 262h346q6 -53 44.5 -82.5t101.5 -29.5q59 0 91.5 24.5t32.5 67.5q0 42 -28.5 65t-79.5 23h-128
v220h128q42 0 65 20.5t23 59.5q0 46 -33 73t-89 27q-57 0 -90.5 -30.5t-35.5 -81.5h-346q13 162 144.5 261t331.5 99q198 0 326 -84.5t136 -219.5l80 16h174v-106q0 -46 21 -63t59 -17h56z" />
    <glyph glyph-name="uni025E" unicode="&#x25e;" horiz-adv-x="1172" 
d="M948 516q148 -72 148 -234q0 -138 -122.5 -222t-321.5 -84q-166 0 -297 67.5t-205 193.5t-74 289q0 234 153 381t395 147q198 0 325 -89.5t127 -230.5q0 -150 -128 -218zM422 526q0 -134 53.5 -209t150.5 -75q59 0 91.5 21.5t32.5 60.5t-28 60.5t-78 21.5h-104v220h104
q40 0 62 19.5t22 54.5q0 42 -32 66t-88 24q-92 0 -139 -69t-47 -195z" />
    <glyph glyph-name="uni025F" unicode="&#x25f;" horiz-adv-x="752" 
d="M52 -140h66q47 0 69.5 20.5t22.5 67.5v52h-158v270h158v754h342v-754h150v-270h-150v-66q0 -164 -102 -254t-278 -90h-120v270z" />
    <glyph glyph-name="uni0260" unicode="&#x260;" horiz-adv-x="1226" 
d="M1280 1148h-56q-46 0 -68 -24t-22 -80v-1066q0 -176 -139.5 -283t-368.5 -107q-228 0 -376 101.5t-174 272.5h346q6 -56 56 -87t132 -31q87 0 134.5 37.5t47.5 106.5v220q-53 -85 -133.5 -131.5t-180.5 -46.5q-183 0 -294.5 141.5t-111.5 374.5q0 231 111.5 371.5
t294.5 140.5q202 0 314 -176v208q0 164 102 254t278 90h108v-286zM418 546q0 -106 50 -165t140 -59q87 0 135.5 59t48.5 165q0 107 -48.5 166.5t-135.5 59.5q-90 0 -140 -59.5t-50 -166.5z" />
    <glyph glyph-name="uni0261" unicode="&#x261;" horiz-adv-x="1226" 
d="M1134 1024v-1046q0 -176 -139.5 -283t-368.5 -107q-228 0 -376 101.5t-174 272.5h346q6 -56 56 -87t132 -31q87 0 134.5 37.5t47.5 106.5v220q-53 -85 -133.5 -131.5t-180.5 -46.5q-183 0 -294.5 141.5t-111.5 374.5q0 231 111.5 371.5t294.5 140.5q202 0 314 -176v142
h342zM418 546q0 -106 50 -165t140 -59q87 0 135.5 59t48.5 165q0 107 -48.5 166.5t-135.5 59.5q-90 0 -140 -59.5t-50 -166.5z" />
    <glyph glyph-name="uni0262" unicode="&#x262;" horiz-adv-x="1194" 
d="M72 516q0 246 146.5 395t387.5 149q224 0 363.5 -106.5t154.5 -287.5h-348q-10 58 -53 90t-109 32q-93 0 -144.5 -71t-51.5 -201q0 -131 49.5 -203.5t136.5 -72.5q136 0 162 138h-168v206h526v-584h-222l-24 156q-53 -91 -136.5 -139.5t-189.5 -48.5q-216 0 -348 150.5
t-132 397.5z" />
    <glyph glyph-name="uni0263" unicode="&#x263;" horiz-adv-x="1190" 
d="M270 68l100 176l-314 780h354l188 -602l180 602h358l-316 -782l100 -174q62 -112 62 -196q0 -120 -110.5 -200t-275.5 -80q-171 0 -280.5 78t-109.5 198q0 87 64 200zM664 -38l-72 124l-66 -124q-14 -22 -14 -46q0 -28 24 -45t62 -17q36 0 58 16.5t22 43.5q0 26 -14 48z
" />
    <glyph glyph-name="uni0264" unicode="&#x264;" horiz-adv-x="1152" 
d="M272 440l58 68l-274 516h354l168 -358l162 358h358l-278 -516l58 -68q66 -72 66 -178q0 -133 -105 -215.5t-273 -82.5q-163 0 -261.5 78.5t-98.5 209.5q0 113 66 188zM622 334l-50 74l-42 -74q-16 -29 -16 -48q0 -27 17.5 -43.5t46.5 -16.5q27 0 43.5 15.5t16.5 42.5
q0 29 -16 50z" />
    <glyph glyph-name="uni0265" unicode="&#x265;" horiz-adv-x="1190" 
d="M434 440q0 -170 164 -170q68 0 114 45t46 113v596h340v-1358h-340v476q-54 -84 -136 -131t-166 -47q-162 0 -263 106.5t-101 297.5v656h342v-584z" />
    <glyph glyph-name="uni0266" unicode="&#x266;" horiz-adv-x="1208" 
d="M92 0v972q0 219 141 353.5t373 134.5q223 0 367.5 -101t170.5 -271h-348q-6 59 -48.5 92.5t-113.5 33.5q-96 0 -148 -66.5t-52 -185.5v-122q56 89 139.5 138.5t170.5 49.5q166 0 270 -112.5t104 -311.5v-604h-342v532q0 96 -45.5 142t-128.5 46q-72 0 -120 -50t-48 -126
v-544h-342z" />
    <glyph glyph-name="uni0267" unicode="&#x267;" horiz-adv-x="1208" 
d="M96 0v972q0 219 141 353.5t373 134.5q223 0 367.5 -101t170.5 -271h-348q-6 59 -49 92.5t-115 33.5q-94 0 -146 -66.5t-52 -185.5v-126q54 88 135 139t173 51q171 0 272.5 -114.5t101.5 -309.5v-600q0 -189 -106 -295.5t-294 -106.5h-142v302h88q60 0 86 26.5t26 85.5
v516q0 93 -44 140.5t-128 47.5q-73 0 -120.5 -49.5t-47.5 -124.5v-544h-342z" />
    <glyph glyph-name="uni0268" unicode="&#x268;" horiz-adv-x="606" 
d="M118 1414h370v-274h-370v274zM134 1024h340v-324h134v-268h-134v-432h-340v432h-134v268h134v324z" />
    <glyph glyph-name="uni0269" unicode="&#x269;" horiz-adv-x="638" 
d="M590 286v-286h-118q-176 0 -276 89.5t-100 254.5v680h342v-634q0 -56 21 -80t65 -24h66z" />
    <glyph glyph-name="uni026A" unicode="&#x26a;" horiz-adv-x="798" 
d="M744 1024v-302h-174v-418h174v-304h-688v304h174v418h-174v302h688z" />
    <glyph glyph-name="uni026B" unicode="&#x26b;" horiz-adv-x="872" 
d="M242 954q18 0 26 -2v482h342v-596q35 9 54.5 36.5t19.5 67.5h190q0 -168 -69 -261.5t-195 -98.5v-582h-342v698q-34 -7 -53 -36t-19 -72h-196q0 178 61.5 271t180.5 93z" />
    <glyph glyph-name="uni026C" unicode="&#x26c;" horiz-adv-x="842" 
d="M302 1434h340v-738h202v-184h-202v-512h-340v512h-26q-128 0 -202 70t-74 196t74 195t202 69h26v392zM290 696h12v162h-12q-84 0 -84 -80q0 -82 84 -82z" />
    <glyph glyph-name="uni026D" unicode="&#x26d;" horiz-adv-x="636" 
d="M586 -48v-286h-110q-176 0 -278 90t-102 254v1424h342v-1378q0 -56 22 -80t70 -24h56z" />
    <glyph glyph-name="uni026E" unicode="&#x26e;" horiz-adv-x="1348" 
d="M982 458q146 -33 221 -138t75 -276q0 -204 -149 -329t-395 -125q-211 0 -349.5 98t-164.5 264h346q15 -92 168 -92q93 0 144.5 50.5t51.5 141.5q0 84 -50.5 129t-143.5 45h-136v238l260 272l-426 2v-738h-342v1434h342v-410h812v-288z" />
    <glyph glyph-name="uni026F" unicode="&#x26f;" horiz-adv-x="1808" 
d="M434 458q0 -95 39.5 -141.5t112.5 -46.5q63 0 105.5 49t42.5 125v580h342v-566q0 -95 40 -141.5t112 -46.5q63 0 105.5 49t42.5 125v580h340v-1024h-340v144q-53 -85 -131 -132.5t-159 -47.5q-114 0 -199 60.5t-125 173.5q-50 -110 -137 -172t-181 -62q-156 0 -254 111.5
t-98 310.5v638h342v-566z" />
    <glyph glyph-name="uni0270" unicode="&#x270;" horiz-adv-x="1808" 
d="M434 458q0 -95 39.5 -141.5t112.5 -46.5q63 0 105.5 49t42.5 125v580h342v-566q0 -95 40 -141.5t112 -46.5q63 0 105.5 49t42.5 125v580h340v-1358h-340v478q-53 -85 -131 -132.5t-159 -47.5q-114 0 -199 60.5t-125 173.5q-50 -110 -137 -172t-181 -62q-156 0 -254 111.5
t-98 310.5v638h342v-566z" />
    <glyph glyph-name="uni0271" unicode="&#x271;" horiz-adv-x="1808" 
d="M734 566q0 95 -39.5 141.5t-112.5 46.5q-63 0 -105.5 -49t-42.5 -125v-580h-342v1024h342v-144q53 85 131 132.5t159 47.5q112 0 197 -60.5t125 -173.5q50 110 137 172t181 62q157 0 254.5 -111.5t97.5 -310.5v-600q0 -189 -106 -295.5t-294 -106.5h-140v302h88
q58 0 85 27t27 85v516q0 95 -40.5 141.5t-113.5 46.5q-63 0 -104.5 -49t-41.5 -125v-580h-342v566z" />
    <glyph glyph-name="uni0272" unicode="&#x272;" horiz-adv-x="1208" 
d="M-58 -126h64q46 0 68 20.5t22 67.5v1064h342v-152q54 88 137.5 137t170.5 49q168 0 271 -111.5t103 -310.5v-638h-342v566q0 95 -45.5 141.5t-126.5 46.5q-74 0 -121 -49t-47 -125v-632q0 -165 -101 -254.5t-277 -89.5h-118v270z" />
    <glyph glyph-name="uni0273" unicode="&#x273;" horiz-adv-x="1208" 
d="M778 566q0 95 -45.5 141.5t-126.5 46.5q-74 0 -121 -49t-47 -125v-580h-342v1024h342v-150q54 88 137.5 137t170.5 49q168 0 271 -111.5t103 -310.5v-582q0 -56 22 -80t68 -24h20v-286h-74q-175 0 -276.5 90t-101.5 254v556z" />
    <glyph glyph-name="uni0274" unicode="&#x274;" horiz-adv-x="1244" 
d="M806 1024h342v-1024h-356l-354 540v-540h-342v1024h382l328 -526v526z" />
    <glyph glyph-name="uni0275" unicode="&#x275;" horiz-adv-x="1212" 
d="M72 516q0 246 147 395t387 149t387 -149t147 -395q0 -247 -147 -397.5t-387 -150.5t-387 150.5t-147 397.5zM606 806q-83 0 -137.5 -50t-74.5 -142h422q-18 92 -72 142t-138 50zM606 222q83 0 137.5 49.5t72.5 142.5h-422q20 -93 74 -142.5t138 -49.5z" />
    <glyph glyph-name="uni0276" unicode="&#x276;" horiz-adv-x="1656" 
d="M72 516q0 246 119.5 395t314.5 149q180 0 286 -150v114h792v-270h-444v-118h388v-236h-388v-114h444v-286h-792v118q-106 -150 -286 -150q-195 0 -314.5 150.5t-119.5 397.5zM792 516q0 121 -49.5 188.5t-136.5 67.5q-89 0 -138.5 -67.5t-49.5 -188.5q0 -124 49.5 -192
t138.5 -68q88 0 137 68t49 192z" />
    <glyph glyph-name="uni0277" unicode="&#x277;" horiz-adv-x="1482" 
d="M742 158q-91 -182 -288 -182q-167 0 -272.5 129.5t-105.5 336.5q0 271 186 439.5t486 168.5q296 0 478 -162t182 -426q0 -212 -110.5 -349t-281.5 -137q-189 0 -274 182zM756 766q-158 0 -247 -85t-89 -235q0 -166 106 -166q50 0 77 33.5t27 94.5v182h222v-182
q0 -52 26.5 -81t71.5 -29q114 0 114 172q0 141 -80.5 218.5t-227.5 77.5z" />
    <glyph glyph-name="uni0278" unicode="&#x278;" horiz-adv-x="1212" 
d="M72 516q0 226 124.5 371t335.5 169v378h146v-378q211 -23 336.5 -168.5t125.5 -371.5q0 -227 -125.5 -374t-336.5 -170v-306h-146v306q-211 24 -335.5 170.5t-124.5 373.5zM826 516q0 104 -38.5 171.5t-109.5 90.5v-528q71 23 109.5 91.5t38.5 174.5zM386 516
q0 -105 37.5 -173.5t108.5 -92.5v528q-71 -24 -108.5 -91.5t-37.5 -170.5z" />
    <glyph glyph-name="uni0279" unicode="&#x279;" horiz-adv-x="838" 
d="M68 328h74q112 0 187 52t75 132v512h342v-1024h-342v170q-49 -90 -118.5 -140t-141.5 -50h-76v348z" />
    <glyph glyph-name="uni027A" unicode="&#x27a;" horiz-adv-x="838" 
d="M68 328h74q112 0 187 52t75 132v922h342v-1434h-342v170q-49 -90 -118.5 -140t-141.5 -50h-76v348z" />
    <glyph glyph-name="uni027B" unicode="&#x27b;" horiz-adv-x="838" 
d="M68 328h74q112 0 187 52t75 132v512h342v-968q0 -56 22 -80t70 -24h56v-286h-108q-178 0 -280 90t-102 254v160q-49 -90 -118.5 -140t-141.5 -50h-76v348z" />
    <glyph glyph-name="uni027C" unicode="&#x27c;" horiz-adv-x="838" 
d="M92 1024h342v-170q49 90 119 140t143 50h74v-348h-72q-112 0 -188 -52t-76 -132v-846h-342v1358z" />
    <glyph glyph-name="uni027D" unicode="&#x27d;" horiz-adv-x="838" 
d="M582 -48v-286h-110q-176 0 -278 90t-102 254v1014h342v-170q49 90 119 140t143 50h74v-348h-72q-112 0 -188 -52t-76 -132v-456q0 -56 22 -80t70 -24h56z" />
    <glyph glyph-name="uni027E" unicode="&#x27e;" horiz-adv-x="658" 
d="M608 738h-42q-66 0 -97 -33t-31 -109v-596h-342v626q0 189 111 293.5t305 104.5h96v-286z" />
    <glyph glyph-name="uni027F" unicode="&#x27f;" horiz-adv-x="650" 
d="M46 738v286h98q192 0 302 -103.5t110 -292.5v-962h-342v934q0 74 -30 106t-94 32h-44z" />
    <glyph glyph-name="uni0280" unicode="&#x280;" horiz-adv-x="1172" 
d="M602 272h-164v-272h-342v1024h592q184 0 296 -89.5t112 -236.5q0 -94 -54.5 -164t-153.5 -106q88 -24 132.5 -81t59.5 -161l28 -186h-334l-26 156q-9 61 -43.5 88.5t-102.5 27.5zM636 754h-198v-214h198q59 0 90.5 26.5t31.5 77.5q0 53 -32 81.5t-90 28.5z" />
    <glyph glyph-name="uni0281" unicode="&#x281;" horiz-adv-x="1172" 
d="M602 752q68 0 102.5 27.5t43.5 88.5l26 156h334l-28 -186q-15 -104 -59.5 -161t-132.5 -81q99 -36 153.5 -106t54.5 -164q0 -147 -112 -236.5t-296 -89.5h-592v1024h342v-272h164zM636 270q58 0 90 28.5t32 81.5q0 51 -31.5 77.5t-90.5 26.5h-198v-214h198z" />
    <glyph glyph-name="uni0282" unicode="&#x282;" horiz-adv-x="1132" 
d="M562 -128v-270h-110q-177 0 -278.5 81.5t-101.5 230.5v406h324q12 -62 57.5 -91t130.5 -29q68 0 108 25.5t40 68.5q0 62 -92 74l-206 20q-352 35 -352 330q0 156 126.5 247t343.5 91q208 0 337 -89.5t149 -244.5h-332q-18 100 -152 100q-58 0 -92 -22t-34 -60
q0 -36 19 -54t63 -24l222 -20q173 -16 251.5 -97.5t78.5 -238.5q0 -150 -98 -242t-260 -92q-204 0 -308 136v-148q0 -47 22.5 -67.5t69.5 -20.5h74z" />
    <glyph glyph-name="uni0283" unicode="&#x283;" horiz-adv-x="660" 
d="M452 -12q0 -184 -103 -285t-279 -101h-120v304h64q49 0 72.5 21.5t23.5 72.5v1090q0 164 102 254t278 90h120v-270h-66q-48 0 -70 -20t-22 -68v-1088z" />
    <glyph glyph-name="uni0284" unicode="&#x284;" horiz-adv-x="742" 
d="M38 0v270h150v820q0 164 102 254t278 90h120v-270h-66q-48 0 -70 -20t-22 -68v-806h156v-270h-156v-46q0 -166 -102 -259t-278 -93h-118v288h64q48 0 70 17.5t22 58.5v34h-150z" />
    <glyph glyph-name="uni0285" unicode="&#x285;" horiz-adv-x="730" 
d="M38 754v270h120q176 0 278 -90t102 -254v-686q0 -47 22.5 -67.5t69.5 -20.5h64v-304h-116q-177 0 -279.5 100t-102.5 280v686q0 47 -22 66.5t-70 19.5h-66z" />
    <glyph glyph-name="uni0286" unicode="&#x286;" horiz-adv-x="1142" 
d="M294 8q0 -55 38 -86.5t106 -31.5q81 0 116.5 39.5t35.5 130.5v70q-45 8 -104 8q-86 0 -139 -36t-53 -94zM1250 -410h-296q0 161 -48 278q-84 -266 -468 -266q-211 0 -334.5 110t-123.5 296q0 174 138.5 288t351.5 114q60 0 120 -6v686q0 163 100.5 253.5t279.5 90.5h120
v-270h-66q-49 0 -70.5 -20.5t-21.5 -67.5v-802q152 -106 235 -282.5t83 -401.5z" />
    <glyph glyph-name="uni0287" unicode="&#x287;" horiz-adv-x="752" 
d="M702 0h-156v-266h-342v266h-152v270h152v364q0 56 -21 80t-65 24h-66v286h120q175 0 274.5 -89.5t99.5 -254.5v-410h156v-270z" />
    <glyph glyph-name="uni0288" unicode="&#x288;" horiz-adv-x="752" 
d="M702 -48v-286h-122q-175 0 -275.5 90t-100.5 254v744h-152v270h152v266h342v-266h156v-270h-156v-698q0 -56 21.5 -80t66.5 -24h68z" />
    <glyph glyph-name="uni0289" unicode="&#x289;" horiz-adv-x="1188" 
d="M0 714h92v310h342v-310h322v310h340v-310h92v-234h-92v-480h-340v144q-54 -85 -136 -132.5t-166 -47.5q-162 0 -262 107.5t-100 300.5v108h-92v234zM434 444q0 -174 162 -174q68 0 114 46t46 116v48h-322v-36z" />
    <glyph glyph-name="uni028A" unicode="&#x28a;" horiz-adv-x="1288" 
d="M646 -32q-256 0 -413 123t-157 323q0 93 48.5 179t137.5 145h-186v286h504v-286q-74 -25 -116 -91t-42 -149q0 -106 59 -165t165 -59q105 0 162.5 58.5t57.5 165.5q0 83 -42 149t-116 91v286h506v-286h-188q90 -59 139 -145t49 -179q0 -200 -156.5 -323t-411.5 -123z" />
    <glyph glyph-name="uni028B" unicode="&#x28b;" horiz-adv-x="1192" 
d="M92 1024h342v-530q0 -88 42.5 -137t119.5 -49q80 0 123 55.5t43 160.5q0 110 -30.5 162t-97.5 52h-32v286h86q195 0 304.5 -134.5t109.5 -371.5q0 -241 -139 -387.5t-367 -146.5q-227 0 -365.5 140.5t-138.5 369.5v530z" />
    <glyph glyph-name="uni028C" unicode="&#x28c;" horiz-adv-x="1190" 
d="M1136 0h-356l-188 718l-180 -718h-356l344 1024h390z" />
    <glyph glyph-name="uni028D" unicode="&#x28d;" horiz-adv-x="1806" 
d="M1752 0h-356l-134 692l-160 -692h-392l-164 692l-136 -692h-354l306 1024h390l162 -682l138 682h408z" />
    <glyph glyph-name="uni028E" unicode="&#x28e;" horiz-adv-x="1222" 
d="M1096 1140h-118q-51 0 -81.5 -29.5t-56.5 -92.5l-16 -46l346 -972h-356l-206 650l-196 -650h-356l352 1046q49 146 110.5 228t155 121t238.5 39h184v-294z" />
    <glyph glyph-name="uni028F" unicode="&#x28f;" horiz-adv-x="1244" 
d="M450 290l-394 734h374l196 -432l190 432h376l-400 -736v-288h-342v290z" />
    <glyph glyph-name="uni0290" unicode="&#x290;" horiz-adv-x="1048" 
d="M88 1024h872v-306l-482 -466h482v-292q0 -47 22.5 -67.5t69.5 -20.5h74v-270h-110q-177 0 -278.5 81.5t-101.5 230.5v86h-548v306l480 466h-480v252z" />
    <glyph glyph-name="uni0291" unicode="&#x291;" horiz-adv-x="1504" 
d="M632 -222q0 129 16 222h-560v306l480 466h-480v252h872v-306l-482 -466h238q70 165 188 255.5t270 90.5q144 0 238 -79.5t94 -200.5q0 -146 -99.5 -232t-268.5 -86h-248q-14 -116 -14 -222h-244zM1156 380q-117 0 -192 -128h174q50 0 78 17.5t28 48.5q0 27 -24.5 44.5
t-63.5 17.5z" />
    <glyph glyph-name="uni0292" unicode="&#x292;" horiz-adv-x="1206" 
d="M788 458q171 -33 259.5 -138t88.5 -276q0 -204 -145.5 -329t-382.5 -125q-220 0 -362.5 119.5t-169.5 320.5h346q8 -70 57 -110t129 -40q85 0 132.5 45.5t47.5 126.5q0 84 -64.5 129t-183.5 45h-134v238l308 272l-622 2v286h1018v-288z" />
    <glyph glyph-name="uni0293" unicode="&#x293;" horiz-adv-x="1206" 
d="M506 -14q-39 0 -63.5 -18.5t-24.5 -47.5q0 -33 36 -52.5t94 -19.5q126 0 198 48q-99 90 -240 90zM824 518q153 -38 232.5 -158.5t79.5 -315.5q0 -108 -50 -202q68 -123 96 -252h-254q-3 8 -13 33.5t-15 38.5q-144 -72 -332 -72q-211 0 -351.5 90.5t-140.5 239.5
q0 129 106.5 211.5t261.5 82.5q208 0 372 -94q-19 88 -90.5 135t-185.5 47h-134v242l284 192l-598 2v286h1018v-288z" />
    <glyph glyph-name="uni0294" unicode="&#x294;" horiz-adv-x="1178" 
d="M760 496v-496h-340v666q86 38 143.5 71t103.5 74.5t67.5 91.5t21.5 113q0 79 -43.5 124.5t-118.5 45.5q-77 0 -123 -49.5t-49 -134.5h-346q13 207 152 335.5t346 128.5q239 0 383.5 -123.5t144.5 -326.5q0 -91 -24.5 -168.5t-73 -140.5t-107 -112.5t-137.5 -98.5z" />
    <glyph glyph-name="uni0295" unicode="&#x295;" horiz-adv-x="1178" 
d="M418 496q-79 49 -137 98.5t-106.5 112.5t-73.5 140.5t-25 168.5q0 203 144.5 326.5t383.5 123.5q207 0 346 -128.5t152 -335.5h-346q-3 85 -49 134.5t-123 49.5q-75 0 -118.5 -45.5t-43.5 -124.5q0 -63 21.5 -113t67.5 -91.5t103.5 -74.5t143.5 -71v-666h-340v496z" />
    <glyph glyph-name="uni0296" unicode="&#x296;" horiz-adv-x="1178" 
d="M760 938q79 -49 137.5 -98.5t107 -112.5t73 -140.5t24.5 -168.5q0 -203 -144.5 -327.5t-383.5 -124.5q-207 0 -345.5 130.5t-152.5 337.5h346q3 -85 49 -134.5t123 -49.5q75 0 118.5 44.5t43.5 123.5q0 63 -21.5 113t-67.5 91.5t-103.5 74.5t-143.5 71v666h340v-496z" />
    <glyph glyph-name="uni0297" unicode="&#x297;" horiz-adv-x="1244" 
d="M72 312q0 337 157 542.5t415 205.5q225 0 370 -127.5t160 -350.5h-346q-1 97 -50 143.5t-134 46.5q-107 0 -166.5 -120t-59.5 -340q0 -205 59.5 -318.5t166.5 -113.5q178 0 184 172h346q-21 -219 -163.5 -340.5t-366.5 -121.5q-169 0 -299 90t-201.5 254t-71.5 378z" />
    <glyph glyph-name="uni0298" unicode="&#x298;" horiz-adv-x="1444" 
d="M76 650q0 332 171 517t477 185q305 0 475.5 -185.5t170.5 -516.5q0 -315 -170.5 -490.5t-475.5 -175.5q-307 0 -477.5 175.5t-170.5 490.5zM1038 650q0 428 -314 428q-318 0 -318 -428q0 -394 318 -394q314 0 314 394zM590 786h266v-258h-266v258z" />
    <glyph glyph-name="uni0299" unicode="&#x299;" horiz-adv-x="1222" 
d="M962 516q186 -72 186 -234q0 -126 -93.5 -204t-244.5 -78h-714v1024h686q152 0 249 -80.5t97 -209.5q0 -149 -166 -218zM710 626q34 0 52 18t18 50q0 37 -22.5 57.5t-63.5 20.5h-250v-146h266zM710 252q90 0 90 74q0 38 -23.5 59t-66.5 21h-266v-154h266z" />
    <glyph glyph-name="uni029A" unicode="&#x29a;" horiz-adv-x="1172" 
d="M224 514q-146 73 -146 232q0 138 122.5 223t319.5 85q253 0 414.5 -151t161.5 -397q0 -235 -153.5 -382.5t-394.5 -147.5q-200 0 -328 89.5t-128 228.5q0 151 132 220zM750 506q0 133 -53.5 207.5t-150.5 74.5q-57 0 -88.5 -22.5t-31.5 -61.5q0 -38 27.5 -59t76.5 -21v-6
l104 -12l-46 -202l-58 6v-6q-43 0 -66.5 -20t-23.5 -56q0 -40 32.5 -63t89.5 -23q92 0 140 68.5t48 195.5z" />
    <glyph glyph-name="uni029B" unicode="&#x29b;" horiz-adv-x="1194" 
d="M72 516q0 246 128 395t338 149q97 0 173 -44t123 -124v44q0 189 96 292.5t264 103.5h92v-286h-38q-64 0 -95 -33t-31 -107v-240h-340q-10 58 -54.5 90t-113.5 32q-93 0 -144.5 -71t-51.5 -201q0 -131 49.5 -203.5t136.5 -72.5q136 0 162 138h-168v206h526v-584h-222
l-24 156q-53 -91 -136.5 -139.5t-189.5 -48.5q-216 0 -348 150.5t-132 397.5z" />
    <glyph glyph-name="uni029C" unicode="&#x29c;" horiz-adv-x="1244" 
d="M96 1024h342v-352h368v352h342v-1024h-342v368h-368v-368h-342v1024z" />
    <glyph glyph-name="uni029D" unicode="&#x29d;" horiz-adv-x="852" 
d="M404 1414h370v-274h-370v274zM760 -36q0 -170 -116.5 -266t-323.5 -96q-189 0 -296.5 94t-107.5 262q0 156 102 246t282 90h118v730h342v-730h116v-254h-116v-76zM320 -110q52 0 75 20.5t23 65.5v64h-102q-42 0 -65 -19.5t-23 -52.5q0 -37 24 -57.5t68 -20.5z" />
    <glyph glyph-name="uni029E" unicode="&#x29e;" horiz-adv-x="1212" 
d="M478 0h-424l366 470l-400 554h398l256 -368l102 126v242h342v-1358h-342v756z" />
    <glyph glyph-name="uni029F" unicode="&#x29f;" horiz-adv-x="864" 
d="M810 0h-714v1024h342v-704h372v-320z" />
    <glyph glyph-name="uni02A0" unicode="&#x2a0;" horiz-adv-x="1228" 
d="M1280 1148h-56q-46 0 -68 -24t-22 -80v-1378h-342v488q-52 -90 -130 -138t-176 -48q-186 0 -300 150.5t-114 397.5q0 246 114 395t300 149q200 0 306 -184v214q0 164 102 254t278 90h108v-286zM418 516q0 -124 49 -192t137 -68q89 0 138.5 68t49.5 192q0 121 -49.5 188.5
t-138.5 67.5q-87 0 -136.5 -67.5t-49.5 -188.5z" />
    <glyph glyph-name="uni02A1" unicode="&#x2a1;" horiz-adv-x="1178" 
d="M158 502h262v164q86 38 143.5 71t103.5 74.5t67.5 91.5t21.5 113q0 79 -43.5 124.5t-118.5 45.5q-77 0 -123 -49.5t-49 -134.5h-346q13 207 152 335.5t346 128.5q239 0 383.5 -123.5t144.5 -326.5q0 -157 -89 -268t-253 -200v-46h254v-236h-254v-266h-340v266h-262v236z
" />
    <glyph glyph-name="uni02A2" unicode="&#x2a2;" horiz-adv-x="1178" 
d="M158 502h260v64q-163 86 -252.5 193t-89.5 257q0 203 144.5 326.5t383.5 123.5q207 0 346 -128.5t152 -335.5h-346q-3 85 -49 134.5t-123 49.5q-75 0 -118.5 -45.5t-43.5 -124.5q0 -63 21.5 -113t67.5 -91.5t103.5 -74.5t143.5 -71v-164h256v-236h-256v-266h-340v266
h-260v236z" />
    <glyph glyph-name="uni02A3" unicode="&#x2a3;" horiz-adv-x="2172" 
d="M1134 1434v-410h952v-306l-482 -466h482v-252h-872v306l480 466h-560v-772h-342v154q-52 -90 -130 -138t-176 -48q-186 0 -300 150.5t-114 397.5q0 246 114 395t300 149q200 0 306 -184v558h342zM418 516q0 -124 49 -192t137 -68q89 0 138.5 68t49.5 192
q0 121 -49.5 188.5t-138.5 67.5q-87 0 -136.5 -67.5t-49.5 -188.5z" />
    <glyph glyph-name="uni02A4" unicode="&#x2a4;" horiz-adv-x="2050" 
d="M792 1434h342v-410h812v-288l-262 -278q146 -33 221 -138t75 -276q0 -204 -150 -329t-396 -125q-211 0 -349.5 98t-164.5 264h346q15 -92 168 -92q94 0 146 50t52 142q0 84 -51.5 129t-144.5 45h-136v238l258 274h-424v-738h-342v154q-52 -90 -130 -138t-176 -48
q-186 0 -300 150.5t-114 397.5q0 246 114 395t300 149q200 0 306 -184v558zM418 516q0 -124 49 -192t137 -68q89 0 138.5 68t49.5 192q0 121 -49.5 188.5t-138.5 67.5q-87 0 -136.5 -67.5t-49.5 -188.5z" />
    <glyph glyph-name="uni02A5" unicode="&#x2a5;" horiz-adv-x="2610" 
d="M1756 -222q0 110 16 222h-558v306l480 466h-560v-772h-342v154q-52 -90 -130 -138t-176 -48q-186 0 -300 150.5t-114 397.5q0 246 114 395t300 149q200 0 306 -184v558h342v-410h952v-306l-482 -466h236q70 165 188.5 255.5t271.5 90.5q144 0 238 -79.5t94 -200.5
q0 -146 -100.5 -232t-269.5 -86h-246q-14 -92 -14 -222h-246zM418 516q0 -124 49 -192t137 -68q89 0 138.5 68t49.5 192q0 121 -49.5 188.5t-138.5 67.5q-87 0 -136.5 -67.5t-49.5 -188.5zM2282 380q-117 0 -192 -128h172q51 0 79.5 17.5t28.5 48.5q0 27 -24.5 44.5
t-63.5 17.5z" />
    <glyph glyph-name="uni02A6" unicode="&#x2a6;" horiz-adv-x="1806" 
d="M1310 386l-206 22q-352 33 -352 324q0 150 126 237t344 87q209 0 338.5 -89t147.5 -245h-330q-21 100 -154 100q-59 0 -92.5 -20.5t-33.5 -57.5q0 -56 82 -64l222 -20q172 -16 251 -95t79 -235q0 -159 -103.5 -244.5t-296.5 -85.5h-674q-213 0 -333.5 111t-120.5 307v336
h-152v270h152v266h342v-266h156v-270h-156v-288q0 -93 40 -135.5t126 -42.5h566q116 0 116 44q0 42 -84 54z" />
    <glyph glyph-name="uni02A7" unicode="&#x2a7;" horiz-adv-x="1318" 
d="M52 1024h152v266h342v-266h236v66q0 164 102 254t278 90h122v-270h-68q-48 0 -70 -20t-22 -68v-1104q0 -176 -102 -273t-280 -97h-118v304h62q49 0 72.5 18.5t23.5 59.5v16h-202q-175 0 -275.5 90t-100.5 254v410h-152v270zM634 286h148v468h-236v-364q0 -56 21.5 -80
t66.5 -24z" />
    <glyph glyph-name="uni02A8" unicode="&#x2a8;" horiz-adv-x="1852" 
d="M634 0q-209 0 -319.5 93.5t-110.5 268.5v392h-152v270h152v266h342v-266h156v-270h-156v-346q0 -83 29.5 -119.5t92.5 -36.5q62 0 112 22q-54 108 -54 246q0 246 145.5 396t386.5 150q220 0 362.5 -101t155.5 -277h-346q-21 59 -60.5 90.5t-111.5 31.5
q-89 0 -137.5 -66.5t-48.5 -187.5q0 -32 2 -48q136 94 326 94q160 0 268 -86t108 -222q0 -96 -63 -166.5t-167.5 -105t-235.5 -34.5q-222 0 -372 106q-143 -94 -304 -94zM1320 222q113 0 116 72q0 30 -26.5 51t-65.5 21q-82 0 -184 -84q60 -60 160 -60z" />
    <glyph glyph-name="uni02A9" unicode="&#x2a9;" horiz-adv-x="1820" 
d="M52 754v270h148v66q0 164 102 254t278 90h122v-270h-68q-48 0 -70 -20t-22 -68v-52h160v-2h340v-152q54 87 135.5 138.5t174.5 51.5q171 0 271.5 -115t100.5 -309v-634q0 -189 -106 -295.5t-294 -106.5h-142v302h88q60 0 86 26.5t26 85.5v550q0 188 -170 188
q-74 0 -122 -49t-48 -125v-580h-340v756h-160v-754h-342v754h-148z" />
    <glyph glyph-name="uni02AA" unicode="&#x2aa;" horiz-adv-x="1636" 
d="M1138 386l-206 22q-350 33 -350 324q0 150 126 237t342 87q208 0 338 -89t150 -245h-332q-18 100 -152 100q-59 0 -92.5 -20.5t-33.5 -57.5q0 -28 19 -43t63 -21l222 -20q171 -15 250.5 -94.5t79.5 -235.5q0 -159 -109 -244.5t-311 -85.5h-592q-214 0 -334 110.5
t-120 307.5v1016h342v-968q0 -93 39.5 -135.5t126.5 -42.5h498q65 0 92.5 10.5t27.5 33.5q0 42 -84 54z" />
    <glyph glyph-name="uni02AB" unicode="&#x2ab;" horiz-adv-x="1476" 
d="M438 1434v-410h950v-306l-480 -466h480v-252h-870v306l480 466h-560v-772h-342v1434h342z" />
    <glyph glyph-name="uni02AC" unicode="&#x2ac;" horiz-adv-x="1178" 
d="M56 1332h260l82 -364l54 364h272l58 -364l80 364h264l-202 -594h-242l-90 354l-68 -354h-282zM56 594h260l82 -362l54 362h272l58 -362l80 362h264l-202 -594h-242l-90 354l-68 -354h-282z" />
    <glyph glyph-name="uni02AD" unicode="&#x2ad;" horiz-adv-x="1178" 
d="M1084 738h-260v370h-470v-370h-258v594h988v-594zM1084 0h-260v370h-470v-370h-258v594h988v-594z" />
    <glyph glyph-name="uni02AE" unicode="&#x2ae;" horiz-adv-x="1188" 
d="M434 444q0 -174 162 -174q68 0 114 46t46 116v592h340v-1358h-340v478q-54 -85 -136 -132.5t-166 -47.5q-162 0 -262 107.5t-100 300.5v228q0 74 -29 106t-93 32h-48v286h100q191 0 301.5 -104t110.5 -292v-184z" />
    <glyph glyph-name="uni02AF" unicode="&#x2af;" horiz-adv-x="1188" 
d="M434 444q0 -174 162 -174q68 0 114 46t46 116v592h340v-968q0 -56 22 -80t68 -24h58v-286h-112q-176 0 -276 89.5t-100 254.5v134q-54 -85 -136 -132.5t-166 -47.5q-162 0 -262 107.5t-100 300.5v228q0 74 -29 106t-93 32h-48v286h100q191 0 301.5 -104t110.5 -292v-184z
" />
    <glyph glyph-name="uni02BC" unicode="&#x2bc;" horiz-adv-x="440" 
d="M70 1428h372v-420q0 -121 -74.5 -186.5t-205.5 -65.5h-92v162h38q88 0 129 23t41 79v48h-208v360z" />
    <glyph glyph-name="uni02C8" unicode="&#x2c8;" horiz-adv-x="508" 
d="M92 1434h324v-694h-324v694z" />
    <glyph glyph-name="uni02CC" unicode="&#x2cc;" horiz-adv-x="508" 
d="M92 360h324v-694h-324v694z" />
    <glyph glyph-name="uni02D0" unicode="&#x2d0;" horiz-adv-x="648" 
d="M82 1024h486l-244 -408zM324 410l244 -410h-486z" />
    <glyph glyph-name="gravecomb" unicode="&#x300;" horiz-adv-x="614" 
d="M-74 1418h380l208 -394h-268z" />
    <glyph glyph-name="acutecomb" unicode="&#x301;" horiz-adv-x="614" 
d="M726 1418l-318 -394h-272l210 394h380z" />
    <glyph glyph-name="uni0302" unicode="&#x302;" horiz-adv-x="614" 
d="M146 1420h326l294 -396h-312l-144 226l-146 -226h-312z" />
    <glyph glyph-name="tildecomb" unicode="&#x303;" horiz-adv-x="614" 
d="M102 1396q49 0 95.5 -14.5t65 -25t63.5 -38.5q59 -37 87 -44q16 -4 33 -4q54 0 85 30t31 84h190q0 -176 -73.5 -272t-208.5 -96q-42 0 -81.5 12t-57.5 22t-53 32q-7 4 -24.5 17t-25.5 17.5t-22 12t-27 10.5t-27 3q-46 0 -73 -32t-27 -86h-196q0 183 63 277.5t183 94.5z
" />
    <glyph glyph-name="uni0304" unicode="&#x304;" horiz-adv-x="614" 
d="M-52 1296h718v-248h-718v248z" />
    <glyph glyph-name="uni0306" unicode="&#x306;" horiz-adv-x="614" 
d="M746 1384q-23 -168 -141 -270t-293 -102q-176 0 -296.5 102t-141.5 270h288q9 -64 48.5 -100t101.5 -36q61 0 99 35.5t47 100.5h288z" />
    <glyph glyph-name="uni0307" unicode="&#x307;" horiz-adv-x="614" 
d="M128 1384h370v-360h-370v360z" />
    <glyph glyph-name="uni0308" unicode="&#x308;" horiz-adv-x="614" 
d="M402 1350h336v-326h-336v326zM-108 1350h338v-326h-338v326z" />
    <glyph glyph-name="hookabovecomb" unicode="&#x309;" horiz-adv-x="614" 
d="M206 1024q0 50 27.5 86t78.5 72q32 22 46 33.5t28 29t14 33.5q0 30 -18 48t-48 18q-35 0 -56 -19t-24 -55h-236q10 130 89 193t231 63q132 0 212 -65t80 -173q0 -56 -28.5 -92t-81.5 -68q-67 -41 -83 -58q-19 -21 -19 -46h-212z" />
    <glyph glyph-name="uni030A" unicode="&#x30a;" horiz-adv-x="614" 
d="M640 1328q0 -143 -90.5 -230.5t-237.5 -87.5q-148 0 -239 87.5t-91 230.5t90.5 230.5t237.5 87.5q148 0 239 -87.5t91 -230.5zM198 1328q0 -53 30 -82.5t84 -29.5q52 0 81 29.5t29 82.5t-29 82.5t-83 29.5q-52 0 -82 -30t-30 -82z" />
    <glyph glyph-name="uni030B" unicode="&#x30b;" horiz-adv-x="614" 
d="M978 1418l-318 -394h-270l208 394h380zM504 1418l-318 -394h-270l208 394h380z" />
    <glyph glyph-name="uni030C" unicode="&#x30c;" horiz-adv-x="614" 
d="M472 1024h-326l-294 396h312l146 -224l144 224h312z" />
    <glyph glyph-name="uni0312" unicode="&#x312;" horiz-adv-x="614" 
d="M496 1024h-370v420q0 120 74.5 186t203.5 66h94v-162h-42q-87 0 -127.5 -23.5t-40.5 -78.5v-48h208v-360z" />
    <glyph glyph-name="uni0313" unicode="&#x313;" horiz-adv-x="614" 
d="M132 1696h370v-420q0 -121 -74 -186.5t-204 -65.5h-94v162h42q87 0 127.5 23.5t40.5 78.5v48h-208v360z" />
    <glyph glyph-name="uni0315" unicode="&#x315;" horiz-adv-x="614" 
d="M328 1570h296l-86 -546h-284z" />
    <glyph glyph-name="uni031B" unicode="&#x31b;" horiz-adv-x="614" 
d="M156 1122h192q52 0 81 26t29 96v122h256v-134q0 -65 -20 -116t-53 -83.5t-78 -54t-92 -30t-99 -8.5h-216v182z" />
    <glyph glyph-name="dotbelowcomb" unicode="&#x323;" horiz-adv-x="572" 
d="M96 -114h370v-276h-370v276z" />
    <glyph glyph-name="uni0326" unicode="&#x326;" horiz-adv-x="614" 
d="M136 -62h370v-418q0 -122 -73.5 -187t-204.5 -65h-94v162h40q87 0 128.5 24t41.5 78v48h-208v358z" />
    <glyph glyph-name="uni0327" unicode="&#x327;" horiz-adv-x="614" 
d="M248 20h180l-70 -132h30q100 0 163 -66.5t63 -173.5q0 -105 -90 -166.5t-240 -61.5h-182v238h166q84 0 84 62q0 22 -17 35t-47 13h-70l-50 78z" />
    <glyph glyph-name="uni0328" unicode="&#x328;" horiz-adv-x="614" 
d="M402 0q-103 -59 -137.5 -102t-34.5 -100q0 -90 116 -90h142v-256h-158q-158 0 -252 71t-94 189q0 179 202 288h216z" />
    <glyph glyph-name="uni1E9E" unicode="&#x1e9e;" horiz-adv-x="1374" 
d="M1034 746q142 -22 221 -117.5t79 -240.5q0 -174 -123 -281t-325 -107h-244v274h160q98 0 150 33.5t52 96.5q0 62 -52.5 96t-149.5 34h-134v254l326 286q-109 28 -226 28q-174 0 -252 -72.5t-78 -231.5v-798h-342v810q0 276 168 418t498 142q263 0 518 -124v-296z" />
    <glyph glyph-name="uni1EA0" unicode="&#x1ea0;" horiz-adv-x="1366" 
d="M1328 0h-356l-72 238h-436l-68 -238h-358l452 1332h388zM680 974l-136 -466h276zM494 -114h370v-276h-370v276z" />
    <glyph glyph-name="uni1EA1" unicode="&#x1ea1;" horiz-adv-x="1156" 
d="M1062 652v-652h-342v138q-45 -79 -124 -121.5t-182 -42.5q-149 0 -245.5 93t-96.5 237q0 297 322 318l246 16q43 1 61.5 16.5t18.5 47.5v4q0 46 -40 79t-96 33q-139 0 -154 -116h-350q12 161 148.5 257.5t353.5 96.5q216 0 348 -111t132 -293zM416 324q0 -43 36.5 -70.5
t95.5 -27.5q72 0 122 46.5t50 113.5v40l-198 -8q-106 -6 -106 -94zM426 -114h370v-276h-370v276z" />
    <glyph glyph-name="uni1EA2" unicode="&#x1ea2;" horiz-adv-x="1366" 
d="M566 1434q0 51 27 86.5t77 71.5q45 31 66.5 52t21.5 44q0 30 -18 48t-48 18q-35 0 -56 -19t-24 -55h-234q10 130 89 193t229 63q133 0 212.5 -65t79.5 -173q0 -56 -28.5 -92t-81.5 -68q-67 -41 -83 -58q-19 -21 -19 -46h-210zM1328 0h-356l-72 238h-436l-68 -238h-358
l452 1332h388zM680 974l-136 -466h276z" />
    <glyph glyph-name="uni1EA3" unicode="&#x1ea3;" horiz-adv-x="1156" 
d="M464 1146q0 50 27.5 86t78.5 72q32 22 46 33.5t28 29t14 33.5q0 30 -18 48t-48 18q-35 0 -56 -19t-24 -55h-236q10 130 89 193t231 63q132 0 212 -65t80 -173q0 -56 -28.5 -92t-81.5 -68q-67 -41 -83 -58q-19 -21 -19 -46h-212zM1062 652v-652h-342v138
q-45 -79 -124 -121.5t-182 -42.5q-149 0 -245.5 93t-96.5 237q0 297 322 318l246 16q43 1 61.5 16.5t18.5 47.5v4q0 46 -40 79t-96 33q-139 0 -154 -116h-350q12 161 148.5 257.5t353.5 96.5q216 0 348 -111t132 -293zM416 324q0 -43 36.5 -70.5t95.5 -27.5q72 0 122 46.5
t50 113.5v40l-198 -8q-106 -6 -106 -94z" />
    <glyph glyph-name="uni1EA4" unicode="&#x1ea4;" horiz-adv-x="1366" 
d="M1614 2032l-320 -394h-270l210 394h380zM504 1830h326l294 -396h-310l-146 226l-146 -226h-312zM1328 0h-356l-72 238h-436l-68 -238h-358l452 1332h388zM680 974l-136 -466h276z" />
    <glyph glyph-name="uni1EA5" unicode="&#x1ea5;" horiz-adv-x="1156" 
d="M1486 1786l-320 -394h-270l210 394h380zM404 1542h326l294 -396h-312l-144 226l-146 -226h-312zM1062 652v-652h-342v138q-45 -79 -124 -121.5t-182 -42.5q-149 0 -245.5 93t-96.5 237q0 297 322 318l246 16q43 1 61.5 16.5t18.5 47.5v4q0 46 -40 79t-96 33
q-139 0 -154 -116h-350q12 161 148.5 257.5t353.5 96.5q216 0 348 -111t132 -293zM416 324q0 -43 36.5 -70.5t95.5 -27.5q72 0 122 46.5t50 113.5v40l-198 -8q-106 -6 -106 -94z" />
    <glyph glyph-name="uni1EA6" unicode="&#x1ea6;" horiz-adv-x="1366" 
d="M836 2032h380l208 -394h-270zM504 1830h326l294 -396h-310l-146 226l-146 -226h-312zM1328 0h-356l-72 238h-436l-68 -238h-358l452 1332h388zM680 974l-136 -466h276z" />
    <glyph glyph-name="uni1EA7" unicode="&#x1ea7;" horiz-adv-x="1156" 
d="M684 1786h380l208 -394h-268zM404 1542h326l294 -396h-312l-144 226l-146 -226h-312zM1062 652v-652h-342v138q-45 -79 -124 -121.5t-182 -42.5q-149 0 -245.5 93t-96.5 237q0 297 322 318l246 16q43 1 61.5 16.5t18.5 47.5v4q0 46 -40 79t-96 33q-139 0 -154 -116h-350
q12 161 148.5 257.5t353.5 96.5q216 0 348 -111t132 -293zM416 324q0 -43 36.5 -70.5t95.5 -27.5q72 0 122 46.5t50 113.5v40l-198 -8q-106 -6 -106 -94z" />
    <glyph glyph-name="uni1EA8" unicode="&#x1ea8;" horiz-adv-x="1366" 
d="M1074 1638q0 51 27.5 87t78.5 71q32 22 46 33.5t28 29t14 33.5q0 30 -18 48t-48 18q-35 0 -56 -19t-24 -55h-236q10 130 89 193t231 63q132 0 212 -65t80 -173q0 -56 -28.5 -91.5t-81.5 -68.5q-67 -41 -83 -58q-19 -21 -19 -46h-212zM504 1830h326l294 -396h-310
l-146 226l-146 -226h-312zM1328 0h-356l-72 238h-436l-68 -238h-358l452 1332h388zM680 974l-136 -466h276z" />
    <glyph glyph-name="uni1EA9" unicode="&#x1ea9;" horiz-adv-x="1156" 
d="M940 1392q0 50 27.5 86t78.5 72q32 22 46 33.5t28 29t14 33.5q0 30 -18 48t-48 18q-35 0 -56 -19t-24 -55h-236q12 131 90.5 193.5t229.5 62.5q133 0 212.5 -65t79.5 -173q0 -56 -28.5 -92t-81.5 -68q-67 -41 -83 -58q-19 -21 -19 -46h-212zM404 1542h326l294 -396h-312
l-144 226l-146 -226h-312zM1062 652v-652h-342v138q-45 -79 -124 -121.5t-182 -42.5q-149 0 -245.5 93t-96.5 237q0 297 322 318l246 16q43 1 61.5 16.5t18.5 47.5v4q0 46 -40 79t-96 33q-139 0 -154 -116h-350q12 161 148.5 257.5t353.5 96.5q216 0 348 -111t132 -293z
M416 324q0 -43 36.5 -70.5t95.5 -27.5q72 0 122 46.5t50 113.5v40l-198 -8q-106 -6 -106 -94z" />
    <glyph glyph-name="uni1EAA" unicode="&#x1eaa;" horiz-adv-x="1366" 
d="M466 2294q22 0 42 -2t40.5 -8.5t31.5 -9t32.5 -14.5t25.5 -14t28 -17l24 -15q59 -37 87 -44q16 -4 33 -4q54 0 85 30t31 84h190q0 -176 -73.5 -272t-208.5 -96q-41 0 -79.5 11.5t-59 23t-51.5 31.5q-6 4 -21 14.5t-21.5 15t-19 11.5t-21.5 10.5t-21 6t-24 2.5
q-46 0 -73 -32t-27 -86h-196q0 182 63.5 278t182.5 96zM504 1830h326l294 -396h-310l-146 226l-146 -226h-312zM1328 0h-356l-72 238h-436l-68 -238h-358l452 1332h388zM680 974l-136 -466h276z" />
    <glyph glyph-name="uni1EAB" unicode="&#x1eab;" horiz-adv-x="1156" 
d="M366 2008q49 0 95.5 -14.5t65 -25t63.5 -38.5q59 -37 87 -44q16 -4 33 -4q54 0 85 30t31 84h190q0 -175 -74 -271.5t-208 -96.5q-42 0 -81.5 12t-57.5 22t-53 32q-6 4 -24 17t-26 17.5t-22.5 12.5t-27.5 10.5t-28 2.5q-45 0 -71.5 -32t-26.5 -86h-196q0 183 63 277.5
t183 94.5zM404 1542h326l294 -396h-312l-144 226l-146 -226h-312zM1062 652v-652h-342v138q-45 -79 -124 -121.5t-182 -42.5q-149 0 -245.5 93t-96.5 237q0 297 322 318l246 16q43 1 61.5 16.5t18.5 47.5v4q0 46 -40 79t-96 33q-139 0 -154 -116h-350q12 161 148.5 257.5
t353.5 96.5q216 0 348 -111t132 -293zM416 324q0 -43 36.5 -70.5t95.5 -27.5q72 0 122 46.5t50 113.5v40l-198 -8q-106 -6 -106 -94z" />
    <glyph glyph-name="uni1EAC" unicode="&#x1eac;" horiz-adv-x="1366" 
d="M504 1830h326l294 -396h-310l-146 226l-146 -226h-312zM1328 0h-356l-72 238h-436l-68 -238h-358l452 1332h388zM680 974l-136 -466h276zM494 -114h370v-276h-370v276z" />
    <glyph glyph-name="uni1EAD" unicode="&#x1ead;" horiz-adv-x="1156" 
d="M404 1542h326l294 -396h-312l-144 226l-146 -226h-312zM1062 652v-652h-342v138q-45 -79 -124 -121.5t-182 -42.5q-149 0 -245.5 93t-96.5 237q0 297 322 318l246 16q43 1 61.5 16.5t18.5 47.5v4q0 46 -40 79t-96 33q-139 0 -154 -116h-350q12 161 148.5 257.5
t353.5 96.5q216 0 348 -111t132 -293zM416 324q0 -43 36.5 -70.5t95.5 -27.5q72 0 122 46.5t50 113.5v40l-198 -8q-106 -6 -106 -94zM426 -114h370v-276h-370v276z" />
    <glyph glyph-name="uni1EAE" unicode="&#x1eae;" horiz-adv-x="1366" 
d="M1084 2230l-318 -392h-270l208 392h380zM1104 1794q-21 -168 -140 -270t-294 -102q-176 0 -296.5 102t-139.5 270h286q11 -65 50 -100.5t100 -35.5q62 0 99.5 35.5t46.5 100.5h288zM1328 0h-356l-72 238h-436l-68 -238h-358l452 1332h388zM680 974l-136 -466h276z" />
    <glyph glyph-name="uni1EAF" unicode="&#x1eaf;" horiz-adv-x="1156" 
d="M984 1946l-318 -394h-272l210 394h380zM1004 1506q-23 -168 -141 -270t-293 -102q-176 0 -296.5 102t-141.5 270h288q9 -64 48.5 -100t101.5 -36q61 0 99 35.5t47 100.5h288zM1062 652v-652h-342v138q-45 -79 -124 -121.5t-182 -42.5q-149 0 -245.5 93t-96.5 237
q0 297 322 318l246 16q43 1 61.5 16.5t18.5 47.5v4q0 46 -40 79t-96 33q-139 0 -154 -116h-350q12 161 148.5 257.5t353.5 96.5q216 0 348 -111t132 -293zM416 324q0 -43 36.5 -70.5t95.5 -27.5q72 0 122 46.5t50 113.5v40l-198 -8q-106 -6 -106 -94z" />
    <glyph glyph-name="uni1EB0" unicode="&#x1eb0;" horiz-adv-x="1366" 
d="M286 2230h380l208 -392h-270zM1104 1794q-21 -168 -140 -270t-294 -102q-176 0 -296.5 102t-139.5 270h286q11 -65 50 -100.5t100 -35.5q62 0 99.5 35.5t46.5 100.5h288zM1328 0h-356l-72 238h-436l-68 -238h-358l452 1332h388zM680 974l-136 -466h276z" />
    <glyph glyph-name="uni1EB1" unicode="&#x1eb1;" horiz-adv-x="1156" 
d="M184 1946h380l208 -394h-268zM1004 1506q-23 -168 -141 -270t-293 -102q-176 0 -296.5 102t-141.5 270h288q9 -64 48.5 -100t101.5 -36q61 0 99 35.5t47 100.5h288zM1062 652v-652h-342v138q-45 -79 -124 -121.5t-182 -42.5q-149 0 -245.5 93t-96.5 237q0 297 322 318
l246 16q43 1 61.5 16.5t18.5 47.5v4q0 46 -40 79t-96 33q-139 0 -154 -116h-350q12 161 148.5 257.5t353.5 96.5q216 0 348 -111t132 -293zM416 324q0 -43 36.5 -70.5t95.5 -27.5q72 0 122 46.5t50 113.5v40l-198 -8q-106 -6 -106 -94z" />
    <glyph glyph-name="uni1EB2" unicode="&#x1eb2;" horiz-adv-x="1366" 
d="M566 1838q0 49 26.5 84.5t77.5 73.5q32 22 46.5 33t28 28t13.5 33q0 30 -18 49t-48 19q-35 0 -56 -20t-24 -56h-234q10 130 89 193t229 63q134 0 213 -64.5t79 -173.5q0 -55 -29 -92t-81 -68q-37 -21 -53.5 -32t-32.5 -30t-16 -40h-210zM1104 1794q-21 -168 -140 -270
t-294 -102q-176 0 -296.5 102t-139.5 270h286q11 -65 50 -100.5t100 -35.5q62 0 99.5 35.5t46.5 100.5h288zM1328 0h-356l-72 238h-436l-68 -238h-358l452 1332h388zM680 974l-136 -466h276z" />
    <glyph glyph-name="uni1EB3" unicode="&#x1eb3;" horiz-adv-x="1156" 
d="M464 1552q0 50 27 85.5t79 74.5q30 20 45.5 32t29 29t13.5 33q0 30 -18 48t-48 18q-35 0 -56 -19t-24 -55h-236q10 130 89 193t231 63q132 0 212 -65t80 -173q0 -55 -29 -92t-81 -68q-67 -41 -83 -58q-19 -21 -19 -46h-212zM1004 1506q-23 -168 -141 -270t-293 -102
q-176 0 -296.5 102t-141.5 270h288q9 -64 48.5 -100t101.5 -36q61 0 99 35.5t47 100.5h288zM1062 652v-652h-342v138q-45 -79 -124 -121.5t-182 -42.5q-149 0 -245.5 93t-96.5 237q0 297 322 318l246 16q43 1 61.5 16.5t18.5 47.5v4q0 46 -40 79t-96 33q-139 0 -154 -116
h-350q12 161 148.5 257.5t353.5 96.5q216 0 348 -111t132 -293zM416 324q0 -43 36.5 -70.5t95.5 -27.5q72 0 122 46.5t50 113.5v40l-198 -8q-106 -6 -106 -94z" />
    <glyph glyph-name="uni1EB4" unicode="&#x1eb4;" horiz-adv-x="1366" 
d="M460 2244q20 0 39 -2.5t33 -5t32 -8.5t27 -9.5t26 -13t23 -12.5t23.5 -14t20.5 -13q26 -18 39 -26t36.5 -16t46.5 -8q54 0 84 30t30 84h190q0 -176 -73.5 -272t-208.5 -96q-41 0 -79 11.5t-59.5 23.5t-51.5 33q-4 3 -18 12.5t-18.5 12.5t-16 10t-18.5 10t-17 6.5t-20 5
t-20 1.5q-45 0 -72.5 -32t-27.5 -86h-194q0 183 62.5 278.5t181.5 95.5zM1104 1794q-21 -168 -140 -270t-294 -102q-176 0 -296.5 102t-139.5 270h286q11 -65 50 -100.5t100 -35.5q62 0 99.5 35.5t46.5 100.5h288zM1328 0h-356l-72 238h-436l-68 -238h-358l452 1332h388z
M680 974l-136 -466h276z" />
    <glyph glyph-name="uni1EB5" unicode="&#x1eb5;" horiz-adv-x="1156" 
d="M360 1960q49 0 95.5 -14.5t65 -25t63.5 -38.5q59 -37 87 -44q16 -4 33 -4q54 0 85 30t31 82h190q0 -174 -73.5 -270t-208.5 -96q-42 0 -80.5 11t-59.5 22.5t-52 32.5q-7 4 -24.5 17t-25.5 17.5t-22 12t-27 10.5t-27 3q-46 0 -73 -32t-27 -86h-196q0 181 63 276.5
t183 95.5zM1004 1506q-23 -168 -141 -270t-293 -102q-176 0 -296.5 102t-141.5 270h288q9 -64 48.5 -100t101.5 -36q61 0 99 35.5t47 100.5h288zM1062 652v-652h-342v138q-45 -79 -124 -121.5t-182 -42.5q-149 0 -245.5 93t-96.5 237q0 297 322 318l246 16q43 1 61.5 16.5
t18.5 47.5v4q0 46 -40 79t-96 33q-139 0 -154 -116h-350q12 161 148.5 257.5t353.5 96.5q216 0 348 -111t132 -293zM416 324q0 -43 36.5 -70.5t95.5 -27.5q72 0 122 46.5t50 113.5v40l-198 -8q-106 -6 -106 -94z" />
    <glyph glyph-name="uni1EB6" unicode="&#x1eb6;" horiz-adv-x="1366" 
d="M1104 1794q-21 -168 -140 -270t-294 -102q-176 0 -296.5 102t-139.5 270h286q11 -65 50 -100.5t100 -35.5q62 0 99.5 35.5t46.5 100.5h288zM1328 0h-356l-72 238h-436l-68 -238h-358l452 1332h388zM680 974l-136 -466h276zM494 -114h370v-276h-370v276z" />
    <glyph glyph-name="uni1EB7" unicode="&#x1eb7;" horiz-adv-x="1156" 
d="M1004 1506q-23 -168 -141 -270t-293 -102q-176 0 -296.5 102t-141.5 270h288q9 -64 48.5 -100t101.5 -36q61 0 99 35.5t47 100.5h288zM1062 652v-652h-342v138q-45 -79 -124 -121.5t-182 -42.5q-149 0 -245.5 93t-96.5 237q0 297 322 318l246 16q43 1 61.5 16.5
t18.5 47.5v4q0 46 -40 79t-96 33q-139 0 -154 -116h-350q12 161 148.5 257.5t353.5 96.5q216 0 348 -111t132 -293zM416 324q0 -43 36.5 -70.5t95.5 -27.5q72 0 122 46.5t50 113.5v40l-198 -8q-106 -6 -106 -94zM426 -114h370v-276h-370v276z" />
    <glyph glyph-name="uni1EB8" unicode="&#x1eb8;" horiz-adv-x="1136" 
d="M1062 1332v-322h-624v-176h566v-320h-566v-194h624v-320h-966v1332h966zM410 -114h370v-276h-370v276z" />
    <glyph glyph-name="uni1EB9" unicode="&#x1eb9;" horiz-adv-x="1208" 
d="M72 516q0 244 139.5 386t378.5 142t392.5 -153t153.5 -391v-68h-712q27 -188 182 -188q135 0 154 108h364q-28 -185 -161.5 -276.5t-360.5 -91.5q-245 0 -387.5 143t-142.5 389zM594 806q-130 0 -164 -156h340q-7 72 -54.5 114t-121.5 42zM428 -114h370v-276h-370v276z
" />
    <glyph glyph-name="uni1EBA" unicode="&#x1eba;" horiz-adv-x="1136" 
d="M490 1434q0 51 27.5 87t78.5 71q32 22 46 33.5t28 29t14 33.5q0 30 -18 48t-48 18q-35 0 -56 -19t-24 -55h-236q10 130 89 193t231 63q132 0 212 -65t80 -173q0 -56 -28.5 -91.5t-81.5 -68.5q-67 -41 -83 -58q-19 -21 -19 -46h-212zM1062 1332v-322h-624v-176h566v-320
h-566v-194h624v-320h-966v1332h966z" />
    <glyph glyph-name="uni1EBB" unicode="&#x1ebb;" horiz-adv-x="1208" 
d="M488 1146q0 51 27.5 87t78.5 71q30 21 45 33t28 29.5t13 33.5q0 30 -17.5 48t-46.5 18q-36 0 -57.5 -19t-24.5 -55h-234q10 130 89 193t231 63q132 0 212 -65t80 -173q0 -56 -29 -92t-83 -68q-6 -4 -20 -12.5t-19.5 -12t-16.5 -11t-15.5 -12l-12 -12t-10.5 -13.5
t-5.5 -14.5t-2.5 -16.5h-210zM72 516q0 244 139.5 386t378.5 142t392.5 -153t153.5 -391v-68h-712q27 -188 182 -188q135 0 154 108h364q-28 -185 -161.5 -276.5t-360.5 -91.5q-245 0 -387.5 143t-142.5 389zM594 806q-130 0 -164 -156h340q-7 72 -54.5 114t-121.5 42z" />
    <glyph glyph-name="uni1EBC" unicode="&#x1ebc;" horiz-adv-x="1136" 
d="M386 1806q49 0 95.5 -14.5t65 -25t63.5 -38.5q59 -37 87 -44q16 -4 33 -4q54 0 85 30t31 84h190q0 -175 -74 -271.5t-208 -96.5q-42 0 -81.5 12t-57.5 22t-53 32q-6 4 -24 17t-26 17.5t-22.5 12.5t-27.5 10.5t-28 2.5q-45 0 -71.5 -32t-26.5 -86h-196q0 183 63 277.5
t183 94.5zM1062 1332v-322h-624v-176h566v-320h-566v-194h624v-320h-966v1332h966z" />
    <glyph glyph-name="uni1EBD" unicode="&#x1ebd;" horiz-adv-x="1208" 
d="M382 1518q50 0 96.5 -14t66 -25.5t61.5 -38.5q59 -37 88 -44q16 -4 34 -4q54 0 85 30t31 84h188q0 -176 -73.5 -272t-208.5 -96q-41 0 -80 12t-57 22t-53 32q-6 4 -21 14.5t-21.5 15t-19 11.5t-21.5 10.5t-21 6t-24 2.5q-45 0 -71.5 -32t-26.5 -86h-196q0 182 62.5 277
t181.5 95zM72 516q0 244 139.5 386t378.5 142t392.5 -153t153.5 -391v-68h-712q27 -188 182 -188q135 0 154 108h364q-28 -185 -161.5 -276.5t-360.5 -91.5q-245 0 -387.5 143t-142.5 389zM594 806q-130 0 -164 -156h340q-7 72 -54.5 114t-121.5 42z" />
    <glyph glyph-name="uni1EBE" unicode="&#x1ebe;" horiz-adv-x="1136" 
d="M1536 2032l-318 -394h-272l210 394h380zM430 1830h326l294 -396h-312l-144 226l-146 -226h-312zM1062 1332v-322h-624v-176h566v-320h-566v-194h624v-320h-966v1332h966z" />
    <glyph glyph-name="uni1EBF" unicode="&#x1ebf;" horiz-adv-x="1208" 
d="M1512 1786l-318 -394h-272l210 394h380zM426 1542h328l292 -396h-310l-144 226l-148 -226h-310zM72 516q0 244 139.5 386t378.5 142t392.5 -153t153.5 -391v-68h-712q27 -188 182 -188q135 0 154 108h364q-28 -185 -161.5 -276.5t-360.5 -91.5q-245 0 -387.5 143
t-142.5 389zM594 806q-130 0 -164 -156h340q-7 72 -54.5 114t-121.5 42z" />
    <glyph glyph-name="uni1EC0" unicode="&#x1ec0;" horiz-adv-x="1136" 
d="M750 2032h380l208 -394h-268zM430 1830h326l294 -396h-312l-144 226l-146 -226h-312zM1062 1332v-322h-624v-176h566v-320h-566v-194h624v-320h-966v1332h966z" />
    <glyph glyph-name="uni1EC1" unicode="&#x1ec1;" horiz-adv-x="1208" 
d="M722 1786h380l208 -394h-270zM426 1542h328l292 -396h-310l-144 226l-148 -226h-310zM72 516q0 244 139.5 386t378.5 142t392.5 -153t153.5 -391v-68h-712q27 -188 182 -188q135 0 154 108h364q-28 -185 -161.5 -276.5t-360.5 -91.5q-245 0 -387.5 143t-142.5 389z
M594 806q-130 0 -164 -156h340q-7 72 -54.5 114t-121.5 42z" />
    <glyph glyph-name="uni1EC2" unicode="&#x1ec2;" horiz-adv-x="1136" 
d="M980 1642q0 51 27.5 87t78.5 71q30 21 45 33t28 29.5t13 33.5q0 30 -17.5 48t-46.5 18q-36 0 -57.5 -19t-24.5 -55h-234q10 130 89 193t231 63q132 0 212 -65t80 -173q0 -56 -29 -92t-83 -68q-4 -3 -17 -11t-17.5 -10.5t-15 -10t-14.5 -11t-11.5 -10t-10.5 -11.5t-7 -12
t-5.5 -13.5t-1.5 -14.5h-212zM430 1830h326l294 -396h-312l-144 226l-146 -226h-312zM1062 1332v-322h-624v-176h566v-320h-566v-194h624v-320h-966v1332h966z" />
    <glyph glyph-name="uni1EC3" unicode="&#x1ec3;" horiz-adv-x="1208" 
d="M956 1394q0 51 27 86.5t77 71.5q45 31 66.5 52t21.5 44q0 30 -18 48t-48 18q-35 0 -56 -19t-24 -55h-234q10 130 89 193t229 63q133 0 212.5 -65t79.5 -173q0 -56 -28.5 -92t-81.5 -68q-67 -41 -83 -58q-19 -21 -19 -46h-210zM426 1542h328l292 -396h-310l-144 226
l-148 -226h-310zM72 516q0 244 139.5 386t378.5 142t392.5 -153t153.5 -391v-68h-712q27 -188 182 -188q135 0 154 108h364q-28 -185 -161.5 -276.5t-360.5 -91.5q-245 0 -387.5 143t-142.5 389zM594 806q-130 0 -164 -156h340q-7 72 -54.5 114t-121.5 42z" />
    <glyph glyph-name="uni1EC4" unicode="&#x1ec4;" horiz-adv-x="1136" 
d="M392 2296q49 0 95.5 -14.5t65 -25t63.5 -38.5q59 -37 87 -44q16 -4 33 -4q54 0 85 30t31 82h190q0 -174 -74 -270t-208 -96q-42 0 -80.5 11t-59.5 22.5t-52 32.5q-6 4 -21 14.5t-21.5 15t-19 11.5t-21.5 10.5t-21 6t-24 2.5q-45 0 -71.5 -32t-26.5 -86h-196
q0 181 63 276.5t183 95.5zM430 1830h326l294 -396h-312l-144 226l-146 -226h-312zM1062 1332v-322h-624v-176h566v-320h-566v-194h624v-320h-966v1332h966z" />
    <glyph glyph-name="uni1EC5" unicode="&#x1ec5;" horiz-adv-x="1208" 
d="M388 2008q50 0 96.5 -14t66 -25.5t61.5 -38.5q59 -37 88 -44q16 -4 34 -4q54 0 84 30t30 84h190q0 -176 -73.5 -272t-208.5 -96q-41 0 -79.5 11.5t-59 23t-51.5 31.5q-6 4 -21 14.5t-21.5 15t-19 11.5t-21.5 10.5t-21 6t-24 2.5q-45 0 -72.5 -32t-27.5 -86h-194
q0 182 62.5 277t181.5 95zM426 1542h328l292 -396h-310l-144 226l-148 -226h-310zM72 516q0 244 139.5 386t378.5 142t392.5 -153t153.5 -391v-68h-712q27 -188 182 -188q135 0 154 108h364q-28 -185 -161.5 -276.5t-360.5 -91.5q-245 0 -387.5 143t-142.5 389zM594 806
q-130 0 -164 -156h340q-7 72 -54.5 114t-121.5 42z" />
    <glyph glyph-name="uni1EC6" unicode="&#x1ec6;" horiz-adv-x="1136" 
d="M430 1830h326l294 -396h-312l-144 226l-146 -226h-312zM1062 1332v-322h-624v-176h566v-320h-566v-194h624v-320h-966v1332h966zM410 -114h370v-276h-370v276z" />
    <glyph glyph-name="uni1EC7" unicode="&#x1ec7;" horiz-adv-x="1208" 
d="M426 1542h328l292 -396h-310l-144 226l-148 -226h-310zM72 516q0 244 139.5 386t378.5 142t392.5 -153t153.5 -391v-68h-712q27 -188 182 -188q135 0 154 108h364q-28 -185 -161.5 -276.5t-360.5 -91.5q-245 0 -387.5 143t-142.5 389zM594 806q-130 0 -164 -156h340
q-7 72 -54.5 114t-121.5 42zM428 -114h370v-276h-370v276z" />
    <glyph glyph-name="uni1EC8" unicode="&#x1ec8;" 
d="M156 1434q0 51 27.5 87t78.5 71q30 21 45 33t28 29.5t13 33.5q0 30 -17.5 48t-46.5 18q-36 0 -57.5 -19t-24.5 -55h-234q10 130 89 193t231 63q132 0 212 -65t80 -173q0 -56 -29 -92t-83 -68q-4 -3 -17 -11t-17.5 -10.5t-15 -10t-14.5 -11t-11.5 -10t-10.5 -11.5t-7 -12
t-5.5 -13.5t-1.5 -14.5h-212zM92 1332h342v-1332h-342v1332z" />
    <glyph glyph-name="uni1EC9" unicode="&#x1ec9;" 
d="M158 1146q0 51 27 86.5t77 71.5q45 31 66.5 52t21.5 44q0 30 -18 48t-48 18q-35 0 -56 -19t-24 -55h-234q10 130 88 193t230 63q133 0 212.5 -65t79.5 -173q0 -56 -28.5 -92t-81.5 -68q-67 -41 -83 -58q-19 -21 -19 -46h-210zM92 1024h342v-1024h-342v1024z" />
    <glyph glyph-name="uni1ECA" unicode="&#x1eca;" 
d="M92 1332h342v-1332h-342v1332zM76 -114h370v-276h-370v276z" />
    <glyph glyph-name="uni1ECB" unicode="&#x1ecb;" 
d="M78 1414h370v-274h-370v274zM92 1024h342v-1024h-342v1024zM82 -114h370v-276h-370v276z" />
    <glyph glyph-name="uni1ECC" unicode="&#x1ecc;" horiz-adv-x="1428" 
d="M76 650q0 317 175.5 509.5t464.5 192.5q288 0 464 -193t176 -509q0 -300 -176 -483t-464 -183q-289 0 -464.5 183t-175.5 483zM1008 650q0 187 -77 291.5t-215 104.5q-139 0 -216.5 -104t-77.5 -292q0 -170 77.5 -264t216.5 -94q138 0 215 94.5t77 263.5zM504 -114h370
v-276h-370v276z" />
    <glyph glyph-name="uni1ECD" unicode="&#x1ecd;" horiz-adv-x="1212" 
d="M72 516q0 246 147 395t387 149t387 -149t147 -395q0 -247 -147 -397.5t-387 -150.5t-387 150.5t-147 397.5zM792 516q0 121 -49.5 188.5t-136.5 67.5q-89 0 -138.5 -67.5t-49.5 -188.5q0 -124 49.5 -192t138.5 -68q88 0 137 68t49 192zM416 -114h370v-276h-370v276z" />
    <glyph glyph-name="uni1ECE" unicode="&#x1ece;" horiz-adv-x="1428" 
d="M586 1434q0 51 27.5 87t78.5 71q30 21 45 33t28 29.5t13 33.5q0 30 -17.5 48t-46.5 18q-36 0 -57.5 -19t-24.5 -55h-234q10 130 89 193t231 63q132 0 212 -65t80 -173q0 -56 -29 -92t-83 -68q-6 -4 -20 -12.5t-19.5 -12t-16.5 -11t-15.5 -12l-12 -12t-10.5 -13.5
t-5.5 -14.5t-2.5 -16.5h-210zM76 650q0 317 175.5 509.5t464.5 192.5q288 0 464 -193t176 -509q0 -300 -176 -483t-464 -183q-289 0 -464.5 183t-175.5 483zM1008 650q0 187 -77 291.5t-215 104.5q-139 0 -216.5 -104t-77.5 -292q0 -170 77.5 -264t216.5 -94q138 0 215 94.5
t77 263.5z" />
    <glyph glyph-name="uni1ECF" unicode="&#x1ecf;" horiz-adv-x="1212" 
d="M492 1146q0 50 27.5 86t78.5 72q32 22 46 33.5t28 29t14 33.5q0 30 -18 48t-48 18q-35 0 -56 -19t-24 -55h-236q12 131 90.5 193.5t229.5 62.5q133 0 212.5 -65t79.5 -173q0 -56 -28.5 -92t-81.5 -68q-67 -41 -83 -58q-19 -21 -19 -46h-212zM72 516q0 246 147 395
t387 149t387 -149t147 -395q0 -247 -147 -397.5t-387 -150.5t-387 150.5t-147 397.5zM792 516q0 121 -49.5 188.5t-136.5 67.5q-89 0 -138.5 -67.5t-49.5 -188.5q0 -124 49.5 -192t138.5 -68q88 0 137 68t49 192z" />
    <glyph glyph-name="uni1ED0" unicode="&#x1ed0;" horiz-adv-x="1428" 
d="M1640 2032l-318 -394h-272l210 394h380zM544 1830h326l294 -396h-312l-144 226l-146 -226h-312zM76 650q0 317 175.5 509.5t464.5 192.5q288 0 464 -193t176 -509q0 -300 -176 -483t-464 -183q-289 0 -464.5 183t-175.5 483zM1008 650q0 187 -77 291.5t-215 104.5
q-139 0 -216.5 -104t-77.5 -292q0 -170 77.5 -264t216.5 -94q138 0 215 94.5t77 263.5z" />
    <glyph glyph-name="uni1ED1" unicode="&#x1ed1;" horiz-adv-x="1212" 
d="M1524 1786l-318 -394h-270l208 394h380zM432 1542h326l294 -396h-312l-144 226l-146 -226h-312zM72 516q0 246 147 395t387 149t387 -149t147 -395q0 -247 -147 -397.5t-387 -150.5t-387 150.5t-147 397.5zM792 516q0 121 -49.5 188.5t-136.5 67.5q-89 0 -138.5 -67.5
t-49.5 -188.5q0 -124 49.5 -192t138.5 -68q88 0 137 68t49 192z" />
    <glyph glyph-name="uni1ED2" unicode="&#x1ed2;" horiz-adv-x="1428" 
d="M862 2032h380l208 -394h-268zM544 1830h326l294 -396h-312l-144 226l-146 -226h-312zM76 650q0 317 175.5 509.5t464.5 192.5q288 0 464 -193t176 -509q0 -300 -176 -483t-464 -183q-289 0 -464.5 183t-175.5 483zM1008 650q0 187 -77 291.5t-215 104.5
q-139 0 -216.5 -104t-77.5 -292q0 -170 77.5 -264t216.5 -94q138 0 215 94.5t77 263.5z" />
    <glyph glyph-name="uni1ED3" unicode="&#x1ed3;" horiz-adv-x="1212" 
d="M708 1786h380l208 -394h-270zM432 1542h326l294 -396h-312l-144 226l-146 -226h-312zM72 516q0 246 147 395t387 149t387 -149t147 -395q0 -247 -147 -397.5t-387 -150.5t-387 150.5t-147 397.5zM792 516q0 121 -49.5 188.5t-136.5 67.5q-89 0 -138.5 -67.5t-49.5 -188.5
q0 -124 49.5 -192t138.5 -68q88 0 137 68t49 192z" />
    <glyph glyph-name="uni1ED4" unicode="&#x1ed4;" horiz-adv-x="1428" 
d="M1078 1638q0 51 27.5 87t78.5 71q32 22 46 33.5t28 29t14 33.5q0 30 -18 48t-48 18q-35 0 -56 -19t-24 -55h-236q10 130 89 193t231 63q132 0 212 -65t80 -173q0 -56 -28.5 -91.5t-81.5 -68.5q-67 -41 -83 -58q-19 -21 -19 -46h-212zM544 1830h326l294 -396h-312
l-144 226l-146 -226h-312zM76 650q0 317 175.5 509.5t464.5 192.5q288 0 464 -193t176 -509q0 -300 -176 -483t-464 -183q-289 0 -464.5 183t-175.5 483zM1008 650q0 187 -77 291.5t-215 104.5q-139 0 -216.5 -104t-77.5 -292q0 -170 77.5 -264t216.5 -94q138 0 215 94.5
t77 263.5z" />
    <glyph glyph-name="uni1ED5" unicode="&#x1ed5;" horiz-adv-x="1212" 
d="M958 1394q0 50 27.5 86t78.5 72q32 22 46 33.5t28 29t14 33.5q0 30 -18 48t-48 18q-35 0 -56 -19t-24 -55h-236q10 130 89 193t231 63q132 0 212 -65t80 -173q0 -56 -28.5 -92t-81.5 -68q-67 -41 -83 -58q-19 -21 -19 -46h-212zM432 1542h326l294 -396h-312l-144 226
l-146 -226h-312zM72 516q0 246 147 395t387 149t387 -149t147 -395q0 -247 -147 -397.5t-387 -150.5t-387 150.5t-147 397.5zM792 516q0 121 -49.5 188.5t-136.5 67.5q-89 0 -138.5 -67.5t-49.5 -188.5q0 -124 49.5 -192t138.5 -68q88 0 137 68t49 192z" />
    <glyph glyph-name="uni1ED6" unicode="&#x1ed6;" horiz-adv-x="1428" 
d="M486 2296q50 0 96.5 -14t66 -25.5t61.5 -38.5q59 -37 88 -44q16 -4 34 -4q54 0 84 29.5t30 82.5h190q0 -174 -73.5 -270t-208.5 -96q-95 0 -190 66q-6 4 -21 14.5t-21.5 15t-19 11.5t-21.5 10.5t-21 6t-24 2.5q-45 0 -72.5 -32t-27.5 -86h-194q0 181 62.5 276.5
t181.5 95.5zM544 1830h326l294 -396h-312l-144 226l-146 -226h-312zM76 650q0 317 175.5 509.5t464.5 192.5q288 0 464 -193t176 -509q0 -300 -176 -483t-464 -183q-289 0 -464.5 183t-175.5 483zM1008 650q0 187 -77 291.5t-215 104.5q-139 0 -216.5 -104t-77.5 -292
q0 -170 77.5 -264t216.5 -94q138 0 215 94.5t77 263.5z" />
    <glyph glyph-name="uni1ED7" unicode="&#x1ed7;" horiz-adv-x="1212" 
d="M394 2008q49 0 95.5 -14.5t65 -25t63.5 -38.5q59 -37 87 -44q16 -4 33 -4q54 0 85 30t31 84h190q0 -176 -73.5 -272t-208.5 -96q-42 0 -81.5 12t-57.5 22t-53 32q-7 4 -24.5 17t-25.5 17.5t-22 12t-27 10.5t-27 3q-46 0 -73 -32t-27 -86h-196q0 183 63 277.5t183 94.5z
M432 1542h326l294 -396h-312l-144 226l-146 -226h-312zM72 516q0 246 147 395t387 149t387 -149t147 -395q0 -247 -147 -397.5t-387 -150.5t-387 150.5t-147 397.5zM792 516q0 121 -49.5 188.5t-136.5 67.5q-89 0 -138.5 -67.5t-49.5 -188.5q0 -124 49.5 -192t138.5 -68
q88 0 137 68t49 192z" />
    <glyph glyph-name="uni1ED8" unicode="&#x1ed8;" horiz-adv-x="1428" 
d="M524 1830h328l292 -396h-310l-144 226l-148 -226h-310zM76 650q0 317 175.5 509.5t464.5 192.5q288 0 464 -193t176 -509q0 -300 -176 -483t-464 -183q-289 0 -464.5 183t-175.5 483zM1008 650q0 187 -77 291.5t-215 104.5q-139 0 -216.5 -104t-77.5 -292
q0 -170 77.5 -264t216.5 -94q138 0 215 94.5t77 263.5zM504 -114h370v-276h-370v276z" />
    <glyph glyph-name="uni1ED9" unicode="&#x1ed9;" horiz-adv-x="1212" 
d="M432 1542h326l294 -396h-312l-144 226l-146 -226h-312zM72 516q0 246 147 395t387 149t387 -149t147 -395q0 -247 -147 -397.5t-387 -150.5t-387 150.5t-147 397.5zM792 516q0 121 -49.5 188.5t-136.5 67.5q-89 0 -138.5 -67.5t-49.5 -188.5q0 -124 49.5 -192t138.5 -68
q88 0 137 68t49 192zM416 -114h370v-276h-370v276z" />
    <glyph glyph-name="uni1EDA" unicode="&#x1eda;" horiz-adv-x="1428" 
d="M1106 1828l-320 -394h-270l210 394h380zM76 650q0 317 175.5 509.5t464.5 192.5q82 0 172 -20h218q52 0 80 26t28 94v124h258v-136q0 -71 -23.5 -125.5t-65 -87.5t-90 -52t-105.5 -25q168 -193 168 -500q0 -300 -176 -483t-464 -183q-289 0 -464.5 183t-175.5 483z
M1008 650q0 187 -77 291.5t-215 104.5q-139 0 -216.5 -104t-77.5 -292q0 -170 77.5 -264t216.5 -94q138 0 215 94.5t77 263.5z" />
    <glyph glyph-name="uni1EDB" unicode="&#x1edb;" horiz-adv-x="1266" 
d="M1012 1540l-318 -394h-272l210 394h380zM72 516q0 246 147 395t387 149q119 0 212 -36h112q52 0 81 26t29 96v122h256v-134q0 -127 -70 -196.5t-180 -89.5q94 -138 94 -332q0 -247 -147 -397.5t-387 -150.5t-387 150.5t-147 397.5zM792 516q0 121 -49.5 188.5
t-136.5 67.5q-89 0 -138.5 -67.5t-49.5 -188.5q0 -124 49.5 -192t138.5 -68q88 0 137 68t49 192z" />
    <glyph glyph-name="uni1EDC" unicode="&#x1edc;" horiz-adv-x="1428" 
d="M306 1828h380l208 -394h-270zM76 650q0 317 175.5 509.5t464.5 192.5q82 0 172 -20h218q52 0 80 26t28 94v124h258v-136q0 -71 -23.5 -125.5t-65 -87.5t-90 -52t-105.5 -25q168 -193 168 -500q0 -300 -176 -483t-464 -183q-289 0 -464.5 183t-175.5 483zM1008 650
q0 187 -77 291.5t-215 104.5q-139 0 -216.5 -104t-77.5 -292q0 -170 77.5 -264t216.5 -94q138 0 215 94.5t77 263.5z" />
    <glyph glyph-name="uni1EDD" unicode="&#x1edd;" horiz-adv-x="1266" 
d="M212 1540h380l210 -394h-270zM72 516q0 246 147 395t387 149q119 0 212 -36h112q52 0 81 26t29 96v122h256v-134q0 -127 -70 -196.5t-180 -89.5q94 -138 94 -332q0 -247 -147 -397.5t-387 -150.5t-387 150.5t-147 397.5zM792 516q0 121 -49.5 188.5t-136.5 67.5
q-89 0 -138.5 -67.5t-49.5 -188.5q0 -124 49.5 -192t138.5 -68q88 0 137 68t49 192z" />
    <glyph glyph-name="uni1EDE" unicode="&#x1ede;" horiz-adv-x="1428" 
d="M586 1434q0 51 27.5 87t78.5 71q30 21 45 33t28 29.5t13 33.5q0 30 -17.5 48t-46.5 18q-36 0 -57.5 -19t-24.5 -55h-234q10 130 89 193t231 63q132 0 212 -65t80 -173q0 -56 -29 -92t-83 -68q-6 -4 -20 -12.5t-19.5 -12t-16.5 -11t-15.5 -12l-12 -12t-10.5 -13.5
t-5.5 -14.5t-2.5 -16.5h-210zM76 650q0 317 175.5 509.5t464.5 192.5q82 0 172 -20h218q52 0 80 26t28 94v124h258v-136q0 -71 -23.5 -125.5t-65 -87.5t-90 -52t-105.5 -25q168 -193 168 -500q0 -300 -176 -483t-464 -183q-289 0 -464.5 183t-175.5 483zM1008 650
q0 187 -77 291.5t-215 104.5q-139 0 -216.5 -104t-77.5 -292q0 -170 77.5 -264t216.5 -94q138 0 215 94.5t77 263.5z" />
    <glyph glyph-name="uni1EDF" unicode="&#x1edf;" horiz-adv-x="1266" 
d="M492 1146q0 50 27.5 86t78.5 72q32 22 46 33.5t28 29t14 33.5q0 30 -18 48t-48 18q-35 0 -56 -19t-24 -55h-236q12 131 90.5 193.5t229.5 62.5q133 0 212.5 -65t79.5 -173q0 -56 -28.5 -92t-81.5 -68q-67 -41 -83 -58q-19 -21 -19 -46h-212zM72 516q0 246 147 395
t387 149q119 0 212 -36h112q52 0 81 26t29 96v122h256v-134q0 -127 -70 -196.5t-180 -89.5q94 -138 94 -332q0 -247 -147 -397.5t-387 -150.5t-387 150.5t-147 397.5zM792 516q0 121 -49.5 188.5t-136.5 67.5q-89 0 -138.5 -67.5t-49.5 -188.5q0 -124 49.5 -192t138.5 -68
q88 0 137 68t49 192z" />
    <glyph glyph-name="uni1EE0" unicode="&#x1ee0;" horiz-adv-x="1428" 
d="M480 1806q50 0 96.5 -14t66 -25.5t61.5 -38.5q59 -37 88 -44q16 -4 34 -4q54 0 85 30t31 84h188q0 -176 -73.5 -272t-208.5 -96q-41 0 -80 12t-57 22t-53 32q-6 4 -21 14.5t-21.5 15t-19 11.5t-21.5 10.5t-21 6t-24 2.5q-45 0 -71.5 -32t-26.5 -86h-196q0 182 62.5 277
t181.5 95zM76 650q0 317 175.5 509.5t464.5 192.5q82 0 172 -20h218q52 0 80 26t28 94v124h258v-136q0 -71 -23.5 -125.5t-65 -87.5t-90 -52t-105.5 -25q168 -193 168 -500q0 -300 -176 -483t-464 -183q-289 0 -464.5 183t-175.5 483zM1008 650q0 187 -77 291.5t-215 104.5
q-139 0 -216.5 -104t-77.5 -292q0 -170 77.5 -264t216.5 -94q138 0 215 94.5t77 263.5z" />
    <glyph glyph-name="uni1EE1" unicode="&#x1ee1;" horiz-adv-x="1266" 
d="M388 1518q18 0 34 -1t32 -5t26.5 -6t26.5 -9t22.5 -9.5t23 -12t19.5 -11t21 -13t19 -11.5q59 -37 87 -44q16 -4 33 -4q54 0 85 30t31 84h190q0 -176 -73.5 -272t-208.5 -96q-41 0 -79.5 11.5t-59 23t-51.5 31.5q-6 4 -21 14.5t-21.5 15t-19 11.5t-21.5 10.5t-21 6
t-24 2.5q-46 0 -73 -32t-27 -86h-196q0 183 63 277.5t183 94.5zM72 516q0 246 147 395t387 149q119 0 212 -36h112q52 0 81 26t29 96v122h256v-134q0 -127 -70 -196.5t-180 -89.5q94 -138 94 -332q0 -247 -147 -397.5t-387 -150.5t-387 150.5t-147 397.5zM792 516
q0 121 -49.5 188.5t-136.5 67.5q-89 0 -138.5 -67.5t-49.5 -188.5q0 -124 49.5 -192t138.5 -68q88 0 137 68t49 192z" />
    <glyph glyph-name="uni1EE2" unicode="&#x1ee2;" horiz-adv-x="1428" 
d="M76 650q0 317 175.5 509.5t464.5 192.5q82 0 172 -20h218q52 0 80 26t28 94v124h258v-136q0 -71 -23.5 -125.5t-65 -87.5t-90 -52t-105.5 -25q168 -193 168 -500q0 -300 -176 -483t-464 -183q-289 0 -464.5 183t-175.5 483zM1008 650q0 187 -77 291.5t-215 104.5
q-139 0 -216.5 -104t-77.5 -292q0 -170 77.5 -264t216.5 -94q138 0 215 94.5t77 263.5zM504 -114h370v-276h-370v276z" />
    <glyph glyph-name="uni1EE3" unicode="&#x1ee3;" horiz-adv-x="1266" 
d="M72 516q0 246 147 395t387 149q119 0 212 -36h112q52 0 81 26t29 96v122h256v-134q0 -127 -70 -196.5t-180 -89.5q94 -138 94 -332q0 -247 -147 -397.5t-387 -150.5t-387 150.5t-147 397.5zM792 516q0 121 -49.5 188.5t-136.5 67.5q-89 0 -138.5 -67.5t-49.5 -188.5
q0 -124 49.5 -192t138.5 -68q88 0 137 68t49 192zM416 -114h370v-276h-370v276z" />
    <glyph glyph-name="uni1EE4" unicode="&#x1ee4;" horiz-adv-x="1288" 
d="M86 1332h342v-810q0 -102 60 -158t168 -56q98 0 152 56t54 158v810h340v-810q0 -243 -150.5 -390.5t-395.5 -147.5q-257 0 -413.5 147.5t-156.5 390.5v810zM466 -114h370v-276h-370v276z" />
    <glyph glyph-name="uni1EE5" unicode="&#x1ee5;" horiz-adv-x="1188" 
d="M434 444q0 -174 162 -174q68 0 114 46t46 116v592h340v-1024h-340v144q-54 -85 -136 -132.5t-166 -47.5q-162 0 -262 107.5t-100 300.5v652h342v-580zM416 -114h370v-276h-370v276z" />
    <glyph glyph-name="uni1EE6" unicode="&#x1ee6;" horiz-adv-x="1288" 
d="M524 1434q0 51 27.5 87t78.5 71q32 22 46 33.5t28 29t14 33.5q0 30 -18 48t-48 18q-35 0 -56 -19t-24 -55h-236q10 130 89 193t231 63q132 0 212 -65t80 -173q0 -56 -28.5 -91.5t-81.5 -68.5q-67 -41 -83 -58q-19 -21 -19 -46h-212zM86 1332h342v-810q0 -102 60 -158
t168 -56q98 0 152 56t54 158v810h340v-810q0 -243 -150.5 -390.5t-395.5 -147.5q-257 0 -413.5 147.5t-156.5 390.5v810z" />
    <glyph glyph-name="uni1EE7" unicode="&#x1ee7;" horiz-adv-x="1188" 
d="M482 1146q0 51 27.5 87t78.5 71q30 21 45 33t28 29.5t13 33.5q0 30 -17.5 48t-46.5 18q-36 0 -57.5 -19t-24.5 -55h-234q10 130 89 193t231 63q132 0 212 -65t80 -173q0 -56 -29 -92t-83 -68q-6 -4 -20 -12.5t-19.5 -12t-16.5 -11t-15.5 -12l-12 -12t-10.5 -13.5
t-5.5 -14.5t-2.5 -16.5h-210zM434 444q0 -174 162 -174q68 0 114 46t46 116v592h340v-1024h-340v144q-54 -85 -136 -132.5t-166 -47.5q-162 0 -262 107.5t-100 300.5v652h342v-580z" />
    <glyph glyph-name="uni1EE8" unicode="&#x1ee8;" horiz-adv-x="1370" 
d="M1044 1828l-318 -394h-272l210 394h380zM86 1332h342v-810q0 -102 60 -158t168 -56q98 0 152 56t54 158v810h222q80 14 80 120v122h256v-134q0 -118 -60 -185.5t-158 -92.5v-640q0 -243 -150.5 -390.5t-395.5 -147.5q-257 0 -413.5 147.5t-156.5 390.5v810z" />
    <glyph glyph-name="uni1EE9" unicode="&#x1ee9;" horiz-adv-x="1282" 
d="M1002 1540l-320 -394h-270l210 394h380zM434 444q0 -174 162 -174q68 0 114 46t46 116v592h192q52 0 81 26t29 96v122h256v-134q0 -118 -60 -185.5t-158 -92.5v-856h-340v144q-54 -85 -136 -132.5t-166 -47.5q-162 0 -262 107.5t-100 300.5v652h342v-580z" />
    <glyph glyph-name="uni1EEA" unicode="&#x1eea;" horiz-adv-x="1370" 
d="M244 1828h380l208 -394h-270zM86 1332h342v-810q0 -102 60 -158t168 -56q98 0 152 56t54 158v810h222q80 14 80 120v122h256v-134q0 -118 -60 -185.5t-158 -92.5v-640q0 -243 -150.5 -390.5t-395.5 -147.5q-257 0 -413.5 147.5t-156.5 390.5v810z" />
    <glyph glyph-name="uni1EEB" unicode="&#x1eeb;" horiz-adv-x="1282" 
d="M202 1540h380l208 -394h-270zM434 444q0 -174 162 -174q68 0 114 46t46 116v592h192q52 0 81 26t29 96v122h256v-134q0 -118 -60 -185.5t-158 -92.5v-856h-340v144q-54 -85 -136 -132.5t-166 -47.5q-162 0 -262 107.5t-100 300.5v652h342v-580z" />
    <glyph glyph-name="uni1EEC" unicode="&#x1eec;" horiz-adv-x="1370" 
d="M524 1434q0 51 27.5 87t78.5 71q32 22 46 33.5t28 29t14 33.5q0 30 -18 48t-48 18q-35 0 -56 -19t-24 -55h-236q10 130 89 193t231 63q132 0 212 -65t80 -173q0 -56 -28.5 -91.5t-81.5 -68.5q-67 -41 -83 -58q-19 -21 -19 -46h-212zM86 1332h342v-810q0 -102 60 -158
t168 -56q98 0 152 56t54 158v810h222q80 14 80 120v122h256v-134q0 -118 -60 -185.5t-158 -92.5v-640q0 -243 -150.5 -390.5t-395.5 -147.5q-257 0 -413.5 147.5t-156.5 390.5v810z" />
    <glyph glyph-name="uni1EED" unicode="&#x1eed;" horiz-adv-x="1282" 
d="M482 1146q0 51 27.5 87t78.5 71q30 21 45 33t28 29.5t13 33.5q0 30 -17.5 48t-46.5 18q-36 0 -57.5 -19t-24.5 -55h-234q10 130 89 193t231 63q132 0 212 -65t80 -173q0 -56 -29 -92t-83 -68q-6 -4 -20 -12.5t-19.5 -12t-16.5 -11t-15.5 -12l-12 -12t-10.5 -13.5
t-5.5 -14.5t-2.5 -16.5h-210zM434 444q0 -174 162 -174q68 0 114 46t46 116v592h192q52 0 81 26t29 96v122h256v-134q0 -118 -60 -185.5t-158 -92.5v-856h-340v144q-54 -85 -136 -132.5t-166 -47.5q-162 0 -262 107.5t-100 300.5v652h342v-580z" />
    <glyph glyph-name="uni1EEE" unicode="&#x1eee;" horiz-adv-x="1370" 
d="M420 1806q49 0 95.5 -14.5t65 -25t63.5 -38.5q59 -37 87 -44q16 -4 33 -4q54 0 85 30t31 84h190q0 -175 -74 -271.5t-208 -96.5q-42 0 -81.5 12t-57.5 22t-53 32q-6 4 -24 17t-26 17.5t-22.5 12.5t-27.5 10.5t-28 2.5q-45 0 -71.5 -32t-26.5 -86h-196q0 183 63 277.5
t183 94.5zM86 1332h342v-810q0 -102 60 -158t168 -56q98 0 152 56t54 158v810h222q80 14 80 120v122h256v-134q0 -118 -60 -185.5t-158 -92.5v-640q0 -243 -150.5 -390.5t-395.5 -147.5q-257 0 -413.5 147.5t-156.5 390.5v810z" />
    <glyph glyph-name="uni1EEF" unicode="&#x1eef;" horiz-adv-x="1282" 
d="M376 1518q50 0 96.5 -14t66 -25.5t61.5 -38.5q59 -37 88 -44q16 -4 34 -4q54 0 85 30t31 84h188q0 -176 -73.5 -272t-208.5 -96q-41 0 -80 12t-57 22t-53 32q-6 4 -21 14.5t-21.5 15t-19 11.5t-21.5 10.5t-21 6t-24 2.5q-45 0 -71.5 -32t-26.5 -86h-196q0 182 62.5 277
t181.5 95zM434 444q0 -174 162 -174q68 0 114 46t46 116v592h192q52 0 81 26t29 96v122h256v-134q0 -118 -60 -185.5t-158 -92.5v-856h-340v144q-54 -85 -136 -132.5t-166 -47.5q-162 0 -262 107.5t-100 300.5v652h342v-580z" />
    <glyph glyph-name="uni1EF0" unicode="&#x1ef0;" horiz-adv-x="1370" 
d="M86 1332h342v-810q0 -102 60 -158t168 -56q98 0 152 56t54 158v810h222q80 14 80 120v122h256v-134q0 -118 -60 -185.5t-158 -92.5v-640q0 -243 -150.5 -390.5t-395.5 -147.5q-257 0 -413.5 147.5t-156.5 390.5v810zM466 -114h370v-276h-370v276z" />
    <glyph glyph-name="uni1EF1" unicode="&#x1ef1;" horiz-adv-x="1282" 
d="M434 444q0 -174 162 -174q68 0 114 46t46 116v592h192q52 0 81 26t29 96v122h256v-134q0 -118 -60 -185.5t-158 -92.5v-856h-340v144q-54 -85 -136 -132.5t-166 -47.5q-162 0 -262 107.5t-100 300.5v652h342v-580zM416 -114h370v-276h-370v276z" />
    <glyph glyph-name="Ygrave" unicode="&#x1ef2;" horiz-adv-x="1314" 
d="M266 1828h380l208 -394h-270zM484 446l-446 886h374l248 -532l242 532h374l-452 -886v-446h-340v446z" />
    <glyph glyph-name="ygrave" unicode="&#x1ef3;" horiz-adv-x="1222" 
d="M228 1540h380l208 -394h-270zM124 -72h126q59 0 93.5 18t52.5 60l16 46l-356 972h354l204 -666l198 666h358l-356 -1046q-65 -192 -173 -268t-321 -76h-196v294z" />
    <glyph glyph-name="uni1EF4" unicode="&#x1ef4;" horiz-adv-x="1314" 
d="M484 446l-446 886h374l248 -532l242 532h374l-452 -886v-446h-340v446zM472 -114h370v-276h-370v276z" />
    <glyph glyph-name="uni1EF5" unicode="&#x1ef5;" horiz-adv-x="1222" 
d="M124 -72h126q59 0 93.5 18t52.5 60l16 46l-356 972h354l204 -666l198 666h358l-356 -1046q-65 -192 -173 -268t-321 -76h-196v294zM850 -114h370v-276h-370v276z" />
    <glyph glyph-name="uni1EF6" unicode="&#x1ef6;" horiz-adv-x="1314" 
d="M546 1434q0 51 27 86.5t77 71.5q45 31 66.5 52t21.5 44q0 30 -18 48t-48 18q-35 0 -56 -19t-24 -55h-234q10 130 89 193t229 63q133 0 212.5 -65t79.5 -173q0 -56 -28.5 -92t-81.5 -68q-67 -41 -83 -58q-19 -21 -19 -46h-210zM484 446l-446 886h374l248 -532l242 532h374
l-452 -886v-446h-340v446z" />
    <glyph glyph-name="uni1EF7" unicode="&#x1ef7;" horiz-adv-x="1222" 
d="M508 1146q0 51 27.5 87t78.5 71q30 21 45 33t28 29.5t13 33.5q0 30 -17.5 48t-46.5 18q-36 0 -57.5 -19t-24.5 -55h-234q10 130 89 193t231 63q132 0 212 -65t80 -173q0 -56 -29 -92t-83 -68q-6 -4 -20 -12.5t-19.5 -12t-16.5 -11t-15.5 -12l-12 -12t-10.5 -13.5
t-5.5 -14.5t-2.5 -16.5h-210zM124 -72h126q59 0 93.5 18t52.5 60l16 46l-356 972h354l204 -666l198 666h358l-356 -1046q-65 -192 -173 -268t-321 -76h-196v294z" />
    <glyph glyph-name="uni1EF8" unicode="&#x1ef8;" horiz-adv-x="1314" 
d="M440 1806q50 0 96.5 -14t66 -25.5t61.5 -38.5q59 -37 88 -44q16 -4 34 -4q54 0 84 30t30 84h190q0 -176 -73.5 -272t-208.5 -96q-41 0 -79.5 11.5t-59 23t-51.5 31.5q-6 4 -21 14.5t-21.5 15t-19 11.5t-21.5 10.5t-21 6t-24 2.5q-45 0 -72.5 -32t-27.5 -86h-194
q0 182 62.5 277t181.5 95zM484 446l-446 886h374l248 -532l242 532h374l-452 -886v-446h-340v446z" />
    <glyph glyph-name="uni1EF9" unicode="&#x1ef9;" horiz-adv-x="1222" 
d="M402 1518q50 0 96.5 -14t66 -25.5t61.5 -38.5q59 -37 88 -44q16 -4 34 -4q54 0 85 30t31 84h188q0 -176 -73.5 -272t-208.5 -96q-41 0 -80 12t-57 22t-53 32q-6 4 -21 14.5t-21.5 15t-19 11.5t-21.5 10.5t-21 6t-24 2.5q-45 0 -71.5 -32t-26.5 -86h-196q0 182 62.5 277
t181.5 95zM124 -72h126q59 0 93.5 18t52.5 60l16 46l-356 972h354l204 -666l198 666h358l-356 -1046q-65 -192 -173 -268t-321 -76h-196v294z" />
    <glyph glyph-name="endash" unicode="&#x2013;" horiz-adv-x="1416" 
d="M56 718h1308v-304h-1308v304z" />
    <glyph glyph-name="emdash" unicode="&#x2014;" horiz-adv-x="2042" 
d="M56 718h1932v-304h-1932v304z" />
    <glyph glyph-name="quoteleft" unicode="&#x2018;" 
d="M438 714h-370v360l144 360h236l-228 -360h218v-360z" />
    <glyph glyph-name="quoteright" unicode="&#x2019;" 
d="M78 1434h370v-360l-144 -360h-236l228 360h-218v360z" />
    <glyph glyph-name="quotesinglbase" unicode="&#x201a;" 
d="M78 360h370v-360l-144 -360h-236l228 360h-218v360z" />
    <glyph glyph-name="quotereversed" unicode="&#x201b;" 
d="M438 1434v-360h-218l228 -360h-236l-144 360v360h370z" />
    <glyph glyph-name="quotedblleft" unicode="&#x201c;" horiz-adv-x="1032" 
d="M946 714h-370v360l142 360h238l-230 -360h220v-360zM438 714h-370v360l144 360h236l-228 -360h218v-360z" />
    <glyph glyph-name="quotedblright" unicode="&#x201d;" horiz-adv-x="1032" 
d="M78 1434h370v-360l-144 -360h-236l228 360h-218v360zM586 1434h370v-360l-142 -360h-238l228 360h-218v360z" />
    <glyph glyph-name="quotedblbase" unicode="&#x201e;" horiz-adv-x="1032" 
d="M78 360h370v-360l-144 -360h-236l228 360h-218v360zM586 360h370v-360l-142 -360h-238l228 360h-218v360z" />
    <glyph glyph-name="uni201F" unicode="&#x201f;" horiz-adv-x="1032" 
d="M946 1434v-360h-220l230 -360h-238l-142 360v360h370zM438 1434v-360h-218l228 -360h-236l-144 360v360h370z" />
    <glyph glyph-name="dagger" unicode="&#x2020;" horiz-adv-x="820" 
d="M240 754h-188v270h188v266h340v-266h188v-270h-188v-754h-340v754z" />
    <glyph glyph-name="daggerdbl" unicode="&#x2021;" horiz-adv-x="820" 
d="M580 1024h188v-270h-188v-218h188v-270h-188v-266h-340v266h-188v270h188v218h-188v270h188v266h340v-266z" />
    <glyph glyph-name="bullet" unicode="&#x2022;" horiz-adv-x="642" 
d="M64 682q0 106 75 181t181 75q108 0 183 -74.5t75 -181.5q0 -108 -75 -183t-183 -75q-107 0 -181.5 75t-74.5 183z" />
    <glyph glyph-name="uni2023" unicode="&#x2023;" horiz-adv-x="642" 
d="M64 366v628l514 -312z" />
    <glyph glyph-name="ellipsis" unicode="&#x2026;" horiz-adv-x="1536" 
d="M1090 360h368v-360h-368v360zM582 360h372v-360h-372v360zM78 360h370v-360h-370v360z" />
    <glyph glyph-name="perthousand" unicode="&#x2030;" horiz-adv-x="2904" 
d="M68 946q0 190 108.5 306t285.5 116q174 0 281 -116t107 -306q0 -192 -107 -309t-281 -117q-177 0 -285.5 117t-108.5 309zM1150 1332h292l-542 -1332h-292zM588 946q0 95 -33 147.5t-93 52.5q-63 0 -97.5 -52.5t-34.5 -147.5q0 -97 34.5 -150.5t97.5 -53.5q60 0 93 53.5
t33 150.5zM2054 390q0 191 107.5 307.5t284.5 116.5q175 0 282.5 -116.5t107.5 -307.5q0 -192 -107 -309t-283 -117q-177 0 -284.5 117t-107.5 309zM1194 390q0 191 107.5 307.5t284.5 116.5q175 0 282.5 -116.5t107.5 -307.5q0 -192 -107 -309t-283 -117q-177 0 -284.5 117
t-107.5 309zM2574 390q0 96 -33.5 149t-94.5 53q-62 0 -96 -53t-34 -149t34.5 -151t95.5 -55t94.5 54.5t33.5 151.5zM1714 390q0 96 -34 149t-94 53q-62 0 -96 -53t-34 -149t34.5 -151t95.5 -55q60 0 94 55t34 151z" />
    <glyph glyph-name="minute" unicode="&#x2032;" horiz-adv-x="742" 
d="M692 1332l-370 -392h-270l260 392h380z" />
    <glyph glyph-name="second" unicode="&#x2033;" horiz-adv-x="1220" 
d="M1172 1332l-370 -392h-270l260 392h380zM692 1332l-370 -392h-270l260 392h380z" />
    <glyph glyph-name="uni2034" unicode="&#x2034;" horiz-adv-x="1700" 
d="M692 1332l-370 -392h-270l260 392h380zM1652 1332l-370 -392h-270l260 392h380zM1172 1332l-370 -392h-270l260 392h380z" />
    <glyph glyph-name="uni2035" unicode="&#x2035;" horiz-adv-x="742" 
d="M52 1332h380l260 -392h-272z" />
    <glyph glyph-name="uni2036" unicode="&#x2036;" horiz-adv-x="1220" 
d="M52 1332h380l260 -392h-272zM532 1332h380l260 -392h-272z" />
    <glyph glyph-name="uni2037" unicode="&#x2037;" horiz-adv-x="1700" 
d="M1012 1332h380l260 -392h-270zM52 1332h380l260 -392h-272zM532 1332h380l260 -392h-272z" />
    <glyph glyph-name="guilsinglleft" unicode="&#x2039;" horiz-adv-x="636" 
d="M582 1160v-358l-294 -186l294 -174v-360l-524 346v388z" />
    <glyph glyph-name="guilsinglright" unicode="&#x203a;" horiz-adv-x="636" 
d="M58 82v360l294 184l-294 176v358l524 -344v-388z" />
    <glyph glyph-name="uni2070" unicode="&#x2070;" horiz-adv-x="918" 
d="M68 1134q0 190 108.5 307t285.5 117q174 0 281 -117t107 -307q0 -192 -107 -309t-281 -117q-177 0 -285.5 117t-108.5 309zM588 1134q0 96 -33 149t-93 53q-63 0 -97.5 -53t-34.5 -149t34.5 -150t97.5 -54q60 0 93 54t33 150z" />
    <glyph glyph-name="uni2074" unicode="&#x2074;" horiz-adv-x="880" 
d="M730 902v-156h-256v156h-418v218l362 416h312v-436h112v-198h-112zM474 1100v200l-158 -200h158z" />
    <glyph glyph-name="uni2075" unicode="&#x2075;" horiz-adv-x="886" 
d="M536 1002q0 44 -26 69t-72 25q-63 0 -92 -54h-270l72 494h620v-210h-390l-18 -128q69 66 196 66q115 0 187.5 -70.5t72.5 -181.5q0 -137 -97.5 -218.5t-260.5 -81.5t-269 75t-117 195h280q2 -33 26 -52.5t66 -19.5q44 0 68 23.5t24 68.5z" />
    <glyph glyph-name="uni2076" unicode="&#x2076;" horiz-adv-x="908" 
d="M72 1138q0 197 103.5 308.5t286.5 111.5q144 0 239 -65.5t119 -182.5h-278q-19 56 -76 56q-54 0 -84 -50t-30 -138v-34q28 56 90 89t138 33q112 0 184 -72.5t72 -183.5q0 -124 -95 -202t-247 -78q-195 0 -308.5 110t-113.5 298zM380 1002q0 -35 27 -58.5t67 -23.5
q39 0 61.5 21.5t22.5 56.5q0 36 -23.5 57t-64.5 21t-65.5 -20t-24.5 -54z" />
    <glyph glyph-name="uni2077" unicode="&#x2077;" horiz-adv-x="906" 
d="M552 746h-338q3 100 26.5 183t66.5 147.5t90 111.5t113 96h-438v252h762v-272q-146 -92 -212.5 -216.5t-69.5 -301.5z" />
    <glyph glyph-name="uni2078" unicode="&#x2078;" horiz-adv-x="890" 
d="M446 926q45 0 69.5 19t24.5 53q0 35 -23.5 54.5t-66.5 19.5h-8q-44 0 -67 -19t-23 -53q0 -74 94 -74zM356 1292q0 -68 86 -68h8q88 0 88 68q0 33 -24.5 51.5t-67.5 18.5q-90 0 -90 -70zM446 1558q159 0 256.5 -65t97.5 -171q0 -121 -136 -174q156 -52 156 -182
q0 -106 -103 -171t-271 -65q-169 0 -271.5 64t-102.5 170q0 131 156 184q-136 53 -136 176q0 105 97.5 169.5t256.5 64.5z" />
    <glyph glyph-name="uni2079" unicode="&#x2079;" horiz-adv-x="908" 
d="M836 1140q0 -192 -105.5 -301t-292.5 -109q-148 0 -245 65t-123 181h278q11 -54 80 -54q60 0 95 49.5t35 134.5v34q-28 -56 -90 -89t-138 -33q-112 0 -185 73t-73 185q0 125 96.5 203.5t249.5 78.5q192 0 305 -113t113 -305zM530 1284q0 36 -27 60t-67 24
q-39 0 -61.5 -22t-22.5 -58t24 -59t64 -23t65 21.5t25 56.5z" />
    <glyph glyph-name="uni207A" unicode="&#x207a;" horiz-adv-x="786" 
d="M510 1260h224v-234h-224v-222h-234v222h-220v234h220v222h234v-222z" />
    <glyph glyph-name="uni207B" unicode="&#x207b;" horiz-adv-x="786" 
d="M56 1260h678v-234h-678v234z" />
    <glyph glyph-name="uni207C" unicode="&#x207c;" horiz-adv-x="786" 
d="M56 1454h678v-234h-678v234zM56 1074h678v-236h-678v236z" />
    <glyph glyph-name="uni207D" unicode="&#x207d;" horiz-adv-x="554" 
d="M526 528h-276q-86 87 -140 252t-54 352q0 186 54 350.5t140 251.5h276q-192 -192 -192 -602q0 -412 192 -604z" />
    <glyph glyph-name="uni207E" unicode="&#x207e;" horiz-adv-x="554" 
d="M30 1734h276q86 -87 140 -253t54 -353q0 -186 -54 -350t-140 -250h-276q192 192 192 600q0 411 -192 606z" />
    <glyph glyph-name="uni207F" unicode="&#x207f;" horiz-adv-x="1006" 
d="M646 1178q0 156 -140 156q-59 0 -97.5 -40.5t-38.5 -103.5v-446h-274v792h274v-94q47 62 113.5 96t136.5 34q134 0 216 -85t82 -237v-506h-272v434z" />
    <glyph glyph-name="uni2080" unicode="&#x2080;" horiz-adv-x="918" 
d="M68 184q0 190 108.5 307t285.5 117q174 0 281 -117t107 -307q0 -192 -107 -309t-281 -117q-177 0 -285.5 117t-108.5 309zM588 184q0 96 -33 149t-93 53q-63 0 -97.5 -53t-34.5 -149t34.5 -150t97.5 -54q60 0 93 54t33 150z" />
    <glyph glyph-name="uni2081" unicode="&#x2081;" horiz-adv-x="628" 
d="M268 586h274v-790h-274v414h-216v222h94q63 0 92.5 23.5t29.5 84.5v46z" />
    <glyph glyph-name="uni2082" unicode="&#x2082;" horiz-adv-x="890" 
d="M374 12h438v-216h-740v62q0 79 19.5 141.5t47.5 100.5t72.5 68.5t80 45t84.5 28.5q10 3 29 8.5t28.5 8t25 7.5t23.5 8.5t19 8.5t16.5 10.5t11.5 12t8.5 14t2.5 16.5q0 34 -23 53t-63 19q-46 0 -73 -23.5t-29 -62.5h-280q12 128 117 207t265 79q165 0 265.5 -74.5
t100.5 -197.5q0 -51 -20.5 -90.5t-60 -66.5t-76 -43.5t-89.5 -33.5q-9 -3 -36.5 -11.5t-37.5 -12t-32 -11t-32 -12.5t-24.5 -12.5t-23 -15t-14.5 -15.5z" />
    <glyph glyph-name="uni2083" unicode="&#x2083;" horiz-adv-x="908" 
d="M384 116v148h96q27 0 42.5 16t15.5 44q0 39 -25 60.5t-67 21.5t-66 -22t-26 -60h-280q12 128 115.5 206t260.5 78q160 0 263 -67.5t103 -172.5q0 -125 -112 -176q132 -54 132 -190q0 -100 -98.5 -162t-257.5 -62q-171 0 -283.5 81.5t-124.5 212.5h280q4 -42 34 -64
t80 -22q43 0 67.5 18t24.5 50q0 62 -78 62h-96z" />
    <glyph glyph-name="uni2084" unicode="&#x2084;" horiz-adv-x="880" 
d="M730 -48v-156h-256v156h-418v218l362 416h312v-436h112v-198h-112zM474 150v200l-158 -200h158z" />
    <glyph glyph-name="uni2085" unicode="&#x2085;" horiz-adv-x="886" 
d="M536 52q0 44 -26 68t-72 24q-64 0 -92 -52h-270l72 494h620v-210h-390l-18 -128q69 66 196 66q115 0 187.5 -70.5t72.5 -181.5q0 -137 -97.5 -218.5t-260.5 -81.5t-269 74t-117 194h280q2 -33 26 -51.5t66 -18.5q44 0 68 23.5t24 68.5z" />
    <glyph glyph-name="uni2086" unicode="&#x2086;" horiz-adv-x="908" 
d="M72 188q0 197 103.5 308.5t286.5 111.5q144 0 239 -65.5t119 -182.5h-278q-19 56 -76 56q-54 0 -84 -50t-30 -138v-36q28 57 90.5 90.5t137.5 33.5q112 0 184 -72.5t72 -183.5q0 -125 -95.5 -203.5t-246.5 -78.5q-195 0 -308.5 111t-113.5 299zM380 52q0 -36 26.5 -59
t67.5 -23q39 0 61.5 21t22.5 57t-23.5 57t-64.5 21q-40 0 -65 -20.5t-25 -53.5z" />
    <glyph glyph-name="uni2087" unicode="&#x2087;" horiz-adv-x="906" 
d="M552 -204h-338q3 100 26.5 183t66.5 147.5t90 111.5t113 96h-438v252h762v-274q-146 -90 -212.5 -214.5t-69.5 -301.5z" />
    <glyph glyph-name="uni2088" unicode="&#x2088;" horiz-adv-x="890" 
d="M446 -24q45 0 69.5 19t24.5 53q0 35 -23.5 53.5t-66.5 18.5h-8q-90 0 -90 -72t94 -72zM356 342q0 -68 86 -68h8q88 0 88 68q0 33 -24.5 51.5t-67.5 18.5q-90 0 -90 -70zM446 608q159 0 256.5 -65t97.5 -171q0 -121 -136 -174q156 -52 156 -182q0 -107 -103 -172.5
t-271 -65.5t-271 65t-103 171q0 131 156 184q-136 53 -136 176q0 105 97.5 169.5t256.5 64.5z" />
    <glyph glyph-name="uni2089" unicode="&#x2089;" horiz-adv-x="908" 
d="M836 190q0 -193 -105.5 -302.5t-292.5 -109.5q-148 0 -245 65t-123 181h278q11 -52 80 -52q60 0 95 49.5t35 134.5v34q-28 -56 -90 -89t-138 -33q-112 0 -185 73t-73 185q0 125 96.5 203.5t249.5 78.5q192 0 305 -113t113 -305zM530 334q0 36 -27 60t-67 24
q-39 0 -61.5 -22t-22.5 -58t24 -59t64 -23t65 21.5t25 56.5z" />
    <glyph glyph-name="uni208A" unicode="&#x208a;" horiz-adv-x="786" 
d="M510 310h224v-234h-224v-222h-234v222h-220v234h220v222h234v-222z" />
    <glyph glyph-name="uni208B" unicode="&#x208b;" horiz-adv-x="786" 
d="M56 310h678v-234h-678v234z" />
    <glyph glyph-name="uni208C" unicode="&#x208c;" horiz-adv-x="786" 
d="M56 504h678v-234h-678v234zM56 124h678v-236h-678v236z" />
    <glyph glyph-name="uni208D" unicode="&#x208d;" horiz-adv-x="554" 
d="M526 -422h-276q-86 87 -140 252t-54 352q0 186 54 350.5t140 251.5h276q-192 -192 -192 -602q0 -412 192 -604z" />
    <glyph glyph-name="uni208E" unicode="&#x208e;" horiz-adv-x="554" 
d="M30 784h276q86 -87 140 -253t54 -353q0 -186 -54 -350t-140 -250h-276q192 192 192 600q0 411 -192 606z" />
    <glyph glyph-name="uni2099" unicode="&#x2099;" horiz-adv-x="1006" 
d="M96 586h274v-94q47 62 113.5 96t136.5 34q134 0 216 -85t82 -237v-506h-272v434q0 156 -140 156q-59 0 -97.5 -40.5t-38.5 -103.5v-446h-274v792z" />
    <glyph glyph-name="uni20A0" unicode="&#x20a0;" horiz-adv-x="1518" 
d="M72 852q0 231 140.5 370.5t373.5 139.5q177 0 307.5 -95t170.5 -263h-314q-22 52 -65.5 78t-98.5 26q-95 0 -147.5 -66.5t-52.5 -189.5q0 -134 68 -206t194 -72h44v330h752v-236h-436v-108h380v-202h-380v-104h436v-254h-752v320h-44q-261 0 -418.5 145.5t-157.5 386.5z
" />
    <glyph glyph-name="colonmonetary" unicode="&#x20a1;" horiz-adv-x="1372" 
d="M76 670q0 294 155 478.5t413 201.5l50 204h140l-48 -206q45 -5 110 -20l54 226h142l-66 -276q121 -63 190.5 -177t81.5 -269h-314q-3 71 -36 122l-164 -686q88 21 142 85t58 153h314q-9 -237 -164.5 -376.5t-417.5 -145.5l-34 -144h-140l36 154q-49 8 -110 28l-42 -182
h-140l58 246q-127 88 -197.5 239t-70.5 345zM536 304q49 -33 106 -42l188 790q-53 23 -110 26zM388 670q0 -135 40 -230l146 614q-89 -39 -137.5 -138.5t-48.5 -245.5z" />
    <glyph glyph-name="uni20A2" unicode="&#x20a2;" horiz-adv-x="1372" 
d="M76 670q0 308 175 495t463 187q258 0 412 -119.5t172 -334.5h-314q-4 82 -76.5 131t-189.5 49q-156 0 -243 -107.5t-87 -300.5q0 -146 49 -244.5t141 -139.5v522h276v-122q94 134 278 134h74v-280h-90q-129 0 -195.5 -47t-66.5 -139v-74q121 48 130 160h314
q-9 -212 -165.5 -334t-418.5 -122q-288 0 -463 188.5t-175 497.5z" />
    <glyph glyph-name="franc" unicode="&#x20a3;" horiz-adv-x="1238" 
d="M1164 1332v-304h-624v-170h566v-302h-566v-124h286v-248h-286v-184h-342v184h-168v248h168v900h966z" />
    <glyph glyph-name="lira" unicode="&#x20a4;" horiz-adv-x="1228" 
d="M80 614h170v78h-170v168h170v76q0 185 123 298.5t325 113.5q196 0 326.5 -101.5t147.5 -266.5h-340q-6 45 -39 69.5t-87 24.5q-55 0 -85.5 -36t-30.5 -102v-76h346v-168h-346v-78h346v-168h-352q-21 -102 -104 -142h676v-304h-1084v316q128 39 162 130h-154v168z" />
    <glyph glyph-name="uni20A5" unicode="&#x20a5;" horiz-adv-x="1808" 
d="M734 566q0 95 -39.5 141.5t-112.5 46.5q-63 0 -105.5 -49t-42.5 -125v-580h-342v1024h342v-144q53 85 131 132.5t159 47.5q91 0 168 -40l106 312h378l-98 -284q42 12 86 12q157 0 254.5 -111.5t97.5 -310.5v-638h-340v566q0 95 -40.5 141.5t-113.5 46.5q-18 0 -46 -8
l-100 -294v-452h-156l-86 -254h-378l278 810v10z" />
    <glyph glyph-name="uni20A6" unicode="&#x20a6;" horiz-adv-x="1514" 
d="M1504 564v-248h-156v-316h-322l-196 316h-334v-316h-326v316h-160v248h160v228h-160v248h160v292h384l166 -292h304v292h324v-292h156v-248h-156v-228h156zM496 564h180l-140 228h-40v-228zM990 564h34v228h-164z" />
    <glyph glyph-name="peseta" unicode="&#x20a7;" horiz-adv-x="2864" 
d="M726 420h-288v-420h-342v1332h598q181 0 307.5 -82.5t170.5 -225.5h90v266h342v-266h154v-270h-154v-288q0 -93 39.5 -135.5t126.5 -42.5h566q116 0 116 44q0 42 -84 54l-206 22q-352 33 -352 324q0 150 126 237t344 87q208 0 337 -89t149 -245h-332q-18 100 -152 100
q-59 0 -92.5 -20.5t-33.5 -57.5q0 -56 82 -64l222 -20q172 -16 251 -95t79 -235q0 -159 -103.5 -244.5t-298.5 -85.5h-672q-214 0 -334 110.5t-120 307.5v336h-84q-38 -153 -158 -243.5t-294 -90.5zM664 1040h-226v-316h226q84 0 131 41.5t47 116.5t-47 116.5t-131 41.5z
" />
    <glyph glyph-name="uni20A8" unicode="&#x20a8;" horiz-adv-x="2288" 
d="M644 452h-206v-452h-342v1332h634q204 0 329 -106.5t125 -281.5q0 -119 -61.5 -206t-170.5 -130q96 -25 144.5 -94t63.5 -200l36 -314h-336l-36 282q-11 89 -52 129.5t-128 40.5zM1794 372l-204 20q-352 35 -352 322q0 159 126 250.5t342 91.5q209 0 338.5 -91
t149.5 -249h-332q-17 102 -152 102q-58 0 -92 -23t-34 -61q0 -34 19.5 -52t62.5 -24l222 -20q173 -16 251.5 -96.5t78.5 -237.5q0 -150 -128 -241t-338 -91q-224 0 -363.5 90t-160.5 246h348q20 -102 172 -102q63 0 101.5 22.5t38.5 59.5q0 73 -94 84zM676 1046h-238v-308
h238q81 0 125.5 40.5t44.5 113.5t-44.5 113.5t-125.5 40.5z" />
    <glyph glyph-name="uni20A9" unicode="&#x20a9;" horiz-adv-x="2110" 
d="M38 1332h356l64 -292h312l72 292h422l74 -292h314l64 292h356l-80 -292h108v-248h-176l-62 -228h238v-248h-306l-86 -316h-426l-78 316h-304l-70 -316h-442l-84 316h-294v248h230l-60 228h-170v248h104zM560 564h92l56 228h-196zM956 564h186l-56 228h-78zM1458 564h92
l48 228h-198z" />
    <glyph glyph-name="uni20AA" unicode="&#x20aa;" horiz-adv-x="1672" 
d="M782 264h364q76 0 112 34t36 106v620h284v-632q0 -188 -102.5 -290t-303.5 -102h-678v660h288v-396zM382 760v-760h-286v1024h676q201 0 304.5 -102.5t103.5 -289.5v-268h-286v256q0 72 -36 106t-112 34h-364z" />
    <glyph glyph-name="dong" unicode="&#x20ab;" horiz-adv-x="1288" 
d="M496 1326h204v108h342v-108h158v-214h-158v-956h-342v106q-97 -138 -262 -138t-265.5 124.5t-100.5 329.5q0 203 100.5 326.5t265.5 123.5t262 -138v222h-204v214zM418 578q0 -78 37.5 -122t102.5 -44q66 0 104 44t38 122q0 75 -38 117.5t-104 42.5q-65 0 -102.5 -42.5
t-37.5 -117.5zM66 34h1148v-246h-1148v246z" />
    <glyph glyph-name="Euro" unicode="&#x20ac;" horiz-adv-x="1442" 
d="M146 670v42h-136v168h160q53 219 210.5 345.5t383.5 126.5q259 0 422 -134t182 -386h-348q-3 97 -72 155.5t-180 58.5q-171 0 -240 -166h348v-168h-384v-42q0 -38 2 -54h382v-168h-344q67 -156 236 -156q110 0 179 58.5t73 155.5h348q-4 -128 -52.5 -228.5t-130 -164
t-188.5 -96.5t-233 -33q-223 0 -379.5 124t-212.5 340h-162v168h136v54z" />
    <glyph glyph-name="uni20AD" unicode="&#x20ad;" horiz-adv-x="1296" 
d="M0 788h152v544h338v-542l340 542h400l-368 -544h264v-248h-264l344 -540h-404l-310 540h-2v-540h-338v540h-152v248z" />
    <glyph glyph-name="uni20AE" unicode="&#x20ae;" horiz-adv-x="1168" 
d="M998 572v-212l-244 -56v-304h-340v226l-230 -54v212l230 54v100l-230 -54v212l230 54v260h-358v322h1056v-322h-358v-182l244 56v-212l-244 -56v-100z" />
    <glyph glyph-name="uni20AF" unicode="&#x20af;" horiz-adv-x="2480" 
d="M56 298h116l144 670q-89 -26 -158 -54v314q90 41 230 70l30 136h338l-22 -102q278 -11 442 -170.5t164 -421.5q0 -218 -93.5 -386.5t-262 -261t-386.5 -92.5h-542v298zM2406 608q0 -280 -133.5 -452t-330.5 -172q-206 0 -272 156l-82 -474h-338l150 850q47 264 190 396
t354 132q215 0 338.5 -117t123.5 -319zM700 1026h-34l-158 -728h50q206 0 322 118t116 326q0 135 -77.5 209.5t-218.5 74.5zM1854 270q92 0 151 98t59 252q0 63 -35 100.5t-93 37.5q-93 0 -151.5 -97.5t-58.5 -252.5q0 -63 35 -100.5t93 -37.5z" />
    <glyph glyph-name="uni20B0" unicode="&#x20b0;" horiz-adv-x="1282" 
d="M1176 984q0 -68 -12 -120t-52 -144l-98 -174q123 -114 176.5 -226t53.5 -252q0 -460 -552 -460v268q137 0 210.5 52.5t73.5 149.5q0 101 -106 216l-194 -344h-174l-156 334l-72 -284h-262l214 574h190l146 -300l116 196q-117 113 -181.5 247.5t-64.5 266.5
q0 165 100 267.5t262 102.5q174 0 278 -100.5t104 -269.5zM848 760q56 134 56 224q0 52 -28 86t-70 34q-46 0 -72 -34t-26 -96q0 -132 114 -258z" />
    <glyph glyph-name="uni20B1" unicode="&#x20b1;" horiz-adv-x="1352" 
d="M10 792h126v64h-126v158h126v318h596q175 0 299.5 -84.5t174.5 -233.5h136v-158h-108q2 -10 2 -30q0 -24 -2 -34h108v-156h-134q-47 -153 -163.5 -241.5t-278.5 -88.5h-322v-306h-308v636h-126v156zM702 1074h-258v-60h414q-57 60 -156 60zM920 826q0 5 -1 15.5t-1 14.5
h-474v-64h474q0 5 1 16.5t1 17.5zM444 576h258q97 0 154 60h-412v-60z" />
    <glyph glyph-name="uni20B2" unicode="&#x20b2;" horiz-adv-x="1392" 
d="M76 670q0 308 169.5 495t448.5 187q30 0 86 -4l50 206h140l-54 -232q165 -47 267 -166t115 -290h-348q-3 104 -108 152l-60 -252h516v-766h-222l-40 242q-58 -121 -160 -189.5t-230 -68.5q-34 0 -50 2l-34 -146h-140l40 172q-180 62 -283 235.5t-103 422.5zM422 670
q0 -237 118 -330l168 706h-12q-129 0 -201.5 -99t-72.5 -277zM694 290q105 2 171.5 55.5t76.5 146.5h-226l-46 -200q16 0 24 -2z" />
    <glyph glyph-name="uni20B3" unicode="&#x20b3;" horiz-adv-x="1366" 
d="M44 458h148l36 108h-184v202h254l192 564h388l190 -564h252v-202h-182l36 -108h146v-204h-78l86 -254h-356l-74 254h-432l-70 -254h-358l86 254h-80v204zM680 1008l-68 -240h138zM524 458h316l-32 108h-254z" />
    <glyph glyph-name="uni20B4" unicode="&#x20b4;" horiz-adv-x="1300" 
d="M10 610h172q90 81 272 114h-444v148h842q6 24 6 48q0 75 -55 119.5t-147 44.5q-85 0 -131.5 -32.5t-60.5 -101.5h-346q21 186 167 293t381 107q247 0 391.5 -112t144.5 -304q0 -32 -6 -62h94v-148h-182q-96 -84 -284 -114h466v-148h-844q-8 -27 -8 -64q0 -66 54 -105
t144 -39q202 0 228 140h348q-23 -191 -175.5 -300.5t-398.5 -109.5q-247 0 -395.5 113t-148.5 301q0 34 6 64h-90v148z" />
    <glyph glyph-name="uni20B5" unicode="&#x20b5;" horiz-adv-x="1372" 
d="M76 670q0 291 152.5 475.5t407.5 204.5v202h120v-202q234 -15 379 -148.5t163 -369.5h-348q-3 83 -55.5 138.5t-138.5 69.5v-744q86 14 138 69.5t56 140.5h348q-9 -237 -157.5 -370.5t-384.5 -149.5v-248h-120v248q-254 21 -407 206.5t-153 477.5zM422 670
q0 -158 56 -254.5t158 -117.5v740q-102 -21 -158 -116.5t-56 -251.5z" />
    <glyph glyph-name="uni20B6" unicode="&#x20b6;" horiz-adv-x="1350" 
d="M52 1024h156v266h342v-266h254v266h342v-266h154v-270h-154v-364q0 -56 21 -80t67 -24h66v-286h-120q-175 0 -275.5 90t-100.5 254v410h-254v-754h-342v754h-156v270z" />
    <glyph glyph-name="uni20B7" unicode="&#x20b7;" horiz-adv-x="1400" 
d="M298 290q0 76 -44 76q-15 0 -24.5 -9.5t-9.5 -24.5q0 -65 78 -106v64zM776 290q0 76 -50 76q-21 0 -34.5 -19.5t-13.5 -50.5v-140h32q22 0 66 4v130zM536 290q0 76 -48 76q-21 0 -34.5 -19.5t-13.5 -50.5v-118q33 -7 96 -14v126zM836 542l-220 20q-195 20 -297.5 115
t-102.5 257q0 192 143 304t389 112q237 0 384 -112.5t168 -309.5h-346q-26 156 -210 156q-84 0 -134 -35.5t-50 -94.5q0 -90 120 -102l200 -20q225 -24 334.5 -131.5t109.5 -302.5q0 -151 -109 -256.5t-299 -141.5v-166h-140v152q-18 -2 -52 -2h-46v-150h-142v162
q-51 6 -96 18v-180h-142v224q-222 97 -222 274q0 72 53 117t121 45q59 0 104.5 -23t67.5 -65q19 42 51.5 65t68.5 23q87 0 120 -82q21 38 52.5 60t65.5 22q61 0 98.5 -44.5t37.5 -123.5v-128q112 56 112 164q0 80 -48 123t-144 57z" />
    <glyph glyph-name="uni20B8" unicode="&#x20b8;" horiz-adv-x="1166" 
d="M56 1044v288h1056v-288h-1056zM1112 908v-320h-358v-588h-340v588h-358v320h1056z" />
    <glyph glyph-name="uni20B9" unicode="&#x20b9;" horiz-adv-x="982" 
d="M250 418h-176v254h208q130 0 160 118h-368v152h364q-47 120 -198 120h-166v270h834v-270h-220q61 -52 86 -120h134v-152h-126q-19 -75 -75.5 -130.5t-142.5 -85.5q98 -28 145 -97t61 -197l32 -280h-336l-30 282q-9 74 -53 105t-133 31z" />
    <glyph glyph-name="uni20BA" unicode="&#x20ba;" horiz-adv-x="1334" 
d="M582 302q175 0 270.5 119t103.5 347h342q-24 -367 -206.5 -567.5t-491.5 -200.5h-360v444l-224 -52v212l224 52v100l-224 -52v212l224 52v364h320v-290l270 62v-212l-270 -62v-100l270 62v-212l-270 -62v-216h22z" />
    <glyph glyph-name="uni20BB" unicode="&#x20bb;" horiz-adv-x="1520" 
d="M1282 40q-202 -56 -358 -56q-164 0 -279 62t-165 174q-149 -38 -360 -38v226q178 0 324 28v322h-24q-180 0 -281 81.5t-101 228.5q0 137 90.5 218.5t243.5 81.5q159 0 256.5 -91t97.5 -239v-28h374q180 0 281 -94t101 -262q0 -121 -58 -197.5t-136 -76.5q-111 0 -160 104
q-44 -106 -132 -106t-128 110q-45 -84 -124 -148q53 -94 228 -94q152 0 310 62v-268zM462 994v44q0 50 -24.5 81t-63.5 31q-33 0 -53.5 -20.5t-20.5 -53.5q0 -82 116 -82h46zM1218 586q20 0 31 20t11 56q0 45 -27.5 70.5t-78.5 25.5h-428v-216q64 52 64 116h116
q0 -41 21 -65.5t55 -24.5q31 0 51.5 25.5t20.5 64.5h116q0 -72 48 -72z" />
    <glyph glyph-name="uni20BC" unicode="&#x20bc;" horiz-adv-x="1474" 
d="M1390 0h-326v440q0 95 -44.5 160.5t-129.5 95.5v-696h-308v696q-172 -64 -172 -256v-440h-324v440q0 232 134 390t362 200v302h308v-300q231 -42 365.5 -200t134.5 -392v-440z" />
    <glyph glyph-name="uni20BD" unicode="&#x20bd;" horiz-adv-x="1360" 
d="M30 432h168v102h-168v286h168v512h628q210 0 337 -110t127 -290q0 -178 -119 -288t-313 -110h-318v-102h286v-248h-286v-184h-342v184h-168v248zM796 1058h-256v-238h256q68 0 107 30t39 82q0 60 -39 93t-107 33z" />
    <glyph glyph-name="uni20BE" unicode="&#x20be;" horiz-adv-x="1370" 
d="M62 294h190q-170 176 -170 442q0 223 110.5 378.5t303.5 211.5v210h154v-186q16 2 46 2q28 0 44 -2v186h154v-210q179 -54 287 -203.5t123 -384.5h-314q-3 167 -96 260v-260h-154v334q-28 4 -40 4q-18 0 -50 -4v-334h-154v262q-100 -94 -100 -294q0 -198 122 -305
t344 -107h444v-294h-1244v294z" />
    <glyph glyph-name="uni20BF" unicode="&#x20bf;" horiz-adv-x="1206" 
d="M278 1536h238v-204h108v204h238v-212q142 -26 225 -113.5t83 -214.5q0 -96 -49 -174.5t-133 -119.5q113 -42 178.5 -136.5t65.5 -215.5q0 -154 -102.5 -250.5t-267.5 -99.5v-246h-238v246h-108v-246h-238v246h-182v1332h182v204zM716 1046h-278v-228h278q45 0 75.5 32.5
t30.5 83.5q0 48 -30.5 80t-75.5 32zM758 530h-320v-244h320q55 0 90.5 34.5t35.5 87.5q0 54 -35 88t-91 34z" />
    <glyph glyph-name="arrowleft" unicode="&#x2190;" horiz-adv-x="1596" 
d="M76 692l466 466l156 -156l-176 -174h1000v-272h-1000l176 -176l-156 -154z" />
    <glyph glyph-name="arrowup" unicode="&#x2191;" horiz-adv-x="1082" 
d="M542 1414l466 -466l-156 -154l-176 176l4 -1002h-272v1002l-178 -176l-154 154z" />
    <glyph glyph-name="arrowright" unicode="&#x2192;" horiz-adv-x="1596" 
d="M1522 690l-466 -464l-156 154l178 176l-1002 -2v274h1000l-176 174l156 156z" />
    <glyph glyph-name="arrowdown" unicode="&#x2193;" horiz-adv-x="1082" 
d="M542 -32l-466 464l154 156l176 -176l-2 1002h272v-1004l176 178l156 -156z" />
    <glyph glyph-name="arrowboth" unicode="&#x2194;" horiz-adv-x="1596" 
d="M76 692l466 466l156 -156l-176 -174h554l-176 174l156 156l466 -468l-466 -464l-156 154l178 176h-556l176 -176l-156 -154z" />
    <glyph glyph-name="arrowupdn" unicode="&#x2195;" horiz-adv-x="1082" 
d="M542 -32l-466 464l154 156l178 -176v558l-178 -176l-154 154l466 466l466 -466l-156 -154l-176 176v-560l176 178l156 -156z" />
    <glyph glyph-name="uni2196" unicode="&#x2196;" horiz-adv-x="1270" 
d="M76 1246h658v-220h-248l708 -706l-192 -194l-708 708v-246h-218v658z" />
    <glyph glyph-name="uni2197" unicode="&#x2197;" horiz-adv-x="1270" 
d="M1194 1246v-658h-220v246l-706 -708l-192 194l708 708h-248v218h658z" />
    <glyph glyph-name="uni2198" unicode="&#x2198;" horiz-adv-x="1270" 
d="M1194 126h-658v222h248l-708 704l192 194l708 -708v248h218v-660z" />
    <glyph glyph-name="uni2199" unicode="&#x2199;" horiz-adv-x="1270" 
d="M76 126v658h220v-246l706 708l192 -194l-708 -708h248v-218h-658z" />
    <glyph glyph-name="uni219A" unicode="&#x219a;" horiz-adv-x="1596" 
d="M76 692l466 466l156 -156l-176 -174h442l120 366h226l-120 -366l332 2v-274h-422l-134 -406h-226l134 406h-352l176 -176l-156 -154z" />
    <glyph glyph-name="uni219B" unicode="&#x219b;" horiz-adv-x="1596" 
d="M604 1194h226l-122 -366h368l-176 174l156 156l466 -468l-466 -464l-156 154l176 174h-458l-132 -404h-226l132 404h-316v274h406z" />
    <glyph glyph-name="uni219C" unicode="&#x219c;" horiz-adv-x="1678" 
d="M336 1072l564 -260l-94 -200l-222 112q21 -127 54 -181.5t92 -54.5q14 0 26.5 1.5t26.5 6.5t23 8t24 12t21.5 12.5t22.5 16t20 15.5t22.5 18.5t21.5 17.5q45 37 74.5 57.5t81 39.5t106.5 19q179 0 283.5 -123t104.5 -337h-212q0 99 -38.5 158.5t-101.5 59.5
q-13 0 -26.5 -2t-24 -4t-25 -8t-22 -9t-23 -12.5t-21 -12.5t-22.5 -16t-20.5 -15.5t-22.5 -17.5t-21 -17q-37 -28 -57 -41.5t-56 -33.5t-72 -28.5t-77 -8.5q-154 0 -244.5 88t-143.5 280l-86 -194l-196 92z" />
    <glyph glyph-name="uni219D" unicode="&#x219d;" horiz-adv-x="1678" 
d="M464 712q55 0 106 -19t79.5 -39t74.5 -58q80 -65 114 -83q48 -25 96 -25q59 0 90.5 54t53.5 182l-220 -112l-94 200l562 260l262 -562l-198 -92l-86 192q-53 -192 -142.5 -279t-243.5 -87q-41 0 -77 8.5t-72 28.5t-56 33.5t-57 41.5q-43 34 -57 44.5t-49 32.5t-63.5 29.5
t-60.5 7.5q-63 0 -100.5 -59.5t-37.5 -158.5h-212q0 214 104.5 337t283.5 123z" />
    <glyph glyph-name="uni219E" unicode="&#x219e;" horiz-adv-x="1596" 
d="M76 692l466 466l156 -156l-176 -174h122l332 330l154 -156l-174 -174l566 2v-274h-568l176 -176l-154 -154l-330 330h-124l176 -176l-156 -154z" />
    <glyph glyph-name="uni219F" unicode="&#x219f;" horiz-adv-x="1080" 
d="M542 1414l464 -466l-156 -156l-174 178v-124l330 -332l-156 -154l-174 174l2 -566h-272v566l-176 -174l-154 154l330 330v124l-176 -176l-154 156z" />
    <glyph glyph-name="uni21A0" unicode="&#x21a0;" horiz-adv-x="1596" 
d="M1522 690l-466 -464l-156 154l176 174h-122l-332 -328l-154 154l174 174h-566v274h566l-174 174l154 156l330 -330h124l-176 174l156 156z" />
    <glyph glyph-name="uni21A1" unicode="&#x21a1;" horiz-adv-x="1080" 
d="M538 -32l-462 464l154 156l174 -176v124l-328 332l154 154l174 -176v568h272v-568l174 176l156 -154l-330 -332v-122l174 174l156 -156z" />
    <glyph glyph-name="uni21A2" unicode="&#x21a2;" horiz-adv-x="1596" 
d="M76 692l466 466l156 -156l-176 -174h516l330 330l154 -156l-312 -310l312 -312l-154 -154l-330 330h-516l176 -176l-156 -154z" />
    <glyph glyph-name="uni21A3" unicode="&#x21a3;" horiz-adv-x="1596" 
d="M1522 690l-466 -464l-156 154l176 174h-516l-330 -328l-154 154l310 310l-310 312l154 156l330 -330h516l-176 174l156 156z" />
    <glyph glyph-name="uni21A4" unicode="&#x21a4;" horiz-adv-x="1596" 
d="M76 692l466 466l156 -156l-176 -174h762v330h238v-932h-238v330h-762l176 -176l-156 -154z" />
    <glyph glyph-name="uni21A5" unicode="&#x21a5;" horiz-adv-x="1080" 
d="M1006 206v-238h-930v238h330v762l-176 -176l-154 156l466 466l464 -466l-156 -156l-174 178l2 -764h328z" />
    <glyph glyph-name="uni21A6" unicode="&#x21a6;" horiz-adv-x="1596" 
d="M314 226h-238v932h238v-330h762l-176 174l156 156l466 -468l-466 -464l-156 154l176 174h-762v-328z" />
    <glyph glyph-name="uni21A7" unicode="&#x21a7;" horiz-adv-x="1080" 
d="M540 -32l-464 464l154 156l176 -176l-2 762h-328v240h930v-240h-330v-762l174 176l156 -156z" />
    <glyph glyph-name="arrowupdnbse" unicode="&#x21a8;" horiz-adv-x="1080" 
d="M542 1414l464 -466l-156 -154l-172 174v-554l172 174l156 -156l-228 -226h228v-238h-930v238h226l-226 226l154 156l176 -176v556l-176 -174l-154 154z" />
    <glyph glyph-name="uni21AE" unicode="&#x21ae;" horiz-adv-x="1596" 
d="M76 692l414 430l156 -154l-134 -140h246l78 366h140l-80 -366h180l-124 122l156 156l414 -416l-414 -412l-156 154l124 124h-238l-86 -406h-142l88 406h-176l124 -124l-156 -154z" />
    <glyph glyph-name="uni21B0" unicode="&#x21b0;" horiz-adv-x="1092" 
d="M1016 1044l-424 -422l-156 154l158 146l-268 -2v-896h-250v1152h508l-148 138l156 156z" />
    <glyph glyph-name="uni21B1" unicode="&#x21b1;" horiz-adv-x="1092" 
d="M76 1044l424 426l156 -156l-148 -138h508v-1152h-250v896l-266 2l156 -146l-156 -154z" />
    <glyph glyph-name="uni21B2" unicode="&#x21b2;" horiz-adv-x="1092" 
d="M76 364l424 424l156 -156l-154 -144l264 2v894h250v-1152h-508l148 -138l-156 -154z" />
    <glyph glyph-name="uni21B3" unicode="&#x21b3;" horiz-adv-x="1092" 
d="M1016 364l-424 -424l-156 154l148 138h-508v1152h250v-894l266 -2l-156 144l156 156z" />
    <glyph glyph-name="uni21B4" unicode="&#x21b4;" horiz-adv-x="1636" 
d="M1096 66l-466 464l156 156l186 -198l-2 442h-894v250h1150v-684l180 190l156 -156z" />
    <glyph glyph-name="carriagereturn" unicode="&#x21b5;" horiz-adv-x="1266" 
d="M76 364l466 466l156 -156l-198 -186l440 2v894h250v-1152h-682l190 -178l-156 -156z" />
    <glyph glyph-name="uni21B6" unicode="&#x21b6;" horiz-adv-x="1774" 
d="M542 -12l-466 466l154 154l190 -200v110q0 282 173.5 457t452.5 175q135 0 256 -50t208.5 -135.5t138.5 -204t51 -250.5h-244q0 165 -121.5 281.5t-292.5 116.5t-277.5 -108t-106.5 -282v-114l194 204l156 -154z" />
    <glyph glyph-name="uni21B7" unicode="&#x21b7;" horiz-adv-x="1774" 
d="M320 510h-244q0 132 51 250.5t138.5 204t208.5 135.5t256 50q279 0 452.5 -175t173.5 -457v-110l190 200l154 -154l-466 -466l-464 466l154 154l194 -204v114q0 174 -106 282t-278 108q-171 0 -292.5 -116.5t-121.5 -281.5z" />
    <glyph glyph-name="uni21BA" unicode="&#x21ba;" horiz-adv-x="1688" 
d="M714 316q176 0 286 108t110 282q0 112 -54 200l-118 -256l-200 92l280 598l596 -278l-92 -200l-206 94q54 -108 54 -248q0 -183 -84 -329t-234.5 -228.5t-337.5 -82.5q-184 0 -329.5 78.5t-227 218.5t-81.5 317q0 121 43 222t137 202l214 -144q-70 -67 -102 -133.5
t-32 -146.5q0 -163 105 -264.5t273 -101.5z" />
    <glyph glyph-name="uni21BB" unicode="&#x21bb;" horiz-adv-x="1688" 
d="M974 316q168 0 274 101.5t106 264.5q0 80 -32 146.5t-102 133.5l214 144q94 -101 137 -202t43 -222q0 -268 -180.5 -441t-459.5 -173q-187 0 -337 82.5t-233.5 228.5t-83.5 329q0 140 54 248l-204 -94l-94 200l596 278l278 -598l-198 -92l-118 256q-54 -88 -54 -200
q0 -174 109 -282t285 -108z" />
    <glyph glyph-name="uni21BC" unicode="&#x21bc;" horiz-adv-x="1596" 
d="M454 810h1068v-256h-1446v222l366 368l174 -174z" />
    <glyph glyph-name="uni21BD" unicode="&#x21bd;" horiz-adv-x="1596" 
d="M76 590v220h1446v-254h-1068l162 -162l-174 -172z" />
    <glyph glyph-name="uni21BE" unicode="&#x21be;" horiz-adv-x="740" 
d="M330 1058v-1070h-254v1448h222l366 -368l-172 -170z" />
    <glyph glyph-name="uni21BF" unicode="&#x21bf;" horiz-adv-x="740" 
d="M408 1058l-160 -160l-172 170l366 368h222v-1448h-256v1070z" />
    <glyph glyph-name="uni21C0" unicode="&#x21c0;" horiz-adv-x="1596" 
d="M1522 776v-222h-1446v256h1068l-162 160l172 174z" />
    <glyph glyph-name="uni21C1" unicode="&#x21c1;" horiz-adv-x="1596" 
d="M1522 590l-368 -368l-172 172l162 162h-1068v254h1446v-220z" />
    <glyph glyph-name="uni21C2" unicode="&#x21c2;" horiz-adv-x="740" 
d="M330 366l162 162l172 -172l-366 -368h-222v1448h254v-1070z" />
    <glyph glyph-name="uni21C3" unicode="&#x21c3;" horiz-adv-x="740" 
d="M408 366v1070h256v-1448h-222l-366 368l172 172z" />
    <glyph glyph-name="uni21C4" unicode="&#x21c4;" horiz-adv-x="1596" 
d="M1522 988l-400 -400l-140 138l144 144h-1050v236h1052l-146 144l140 140zM76 420l402 398l138 -138l-148 -144h1054v-236h-1050l144 -144l-138 -138z" />
    <glyph glyph-name="uni21C5" unicode="&#x21c5;" horiz-adv-x="1572" 
d="M502 1426l400 -402l-138 -136l-146 146l2 -1054h-238v1052l-142 -144l-140 136zM1070 -20l-398 400l136 138l144 -144v1052h238v-1052l144 144l138 -138z" />
    <glyph glyph-name="uni21C6" unicode="&#x21c6;" horiz-adv-x="1596" 
d="M76 988l402 402l138 -140l-146 -144h1052v-236h-1052l146 -144l-138 -138zM1522 420l-400 -402l-140 138l144 144h-1050v236h1052l-146 144l140 138z" />
    <glyph glyph-name="uni21C7" unicode="&#x21c7;" horiz-adv-x="1596" 
d="M76 1042l366 366l138 -138l-110 -110h1052v-236h-1052l110 -110l-138 -138zM76 300l366 368l138 -140l-110 -108h1052v-238h-1052l110 -110l-138 -138z" />
    <glyph glyph-name="uni21C8" unicode="&#x21c8;" horiz-adv-x="1622" 
d="M1184 1394l366 -368l-140 -136l-108 110v-1052h-238v1052l-110 -110l-138 136zM442 1394l366 -368l-138 -136l-110 110v-1052h-236v1052l-110 -110l-138 136z" />
    <glyph glyph-name="uni21C9" unicode="&#x21c9;" horiz-adv-x="1596" 
d="M1522 1040l-368 -364l-136 138l110 110h-1052v236h1050l-108 110l136 138zM1522 298l-368 -364l-136 138l110 110h-1052v238h1050l-108 108l136 140z" />
    <glyph glyph-name="uni21CA" unicode="&#x21ca;" horiz-adv-x="1622" 
d="M440 -52l-364 366l138 138l110 -112v1054h236v-1052l110 110l138 -138zM1182 -52l-366 366l138 138l110 -112v1054h238v-1052l108 110l140 -138z" />
    <glyph glyph-name="uni21CB" unicode="&#x21cb;" horiz-adv-x="1596" 
d="M454 992h1068v-258h-1446v222l366 368l174 -172zM1144 334h-1068v254h1446v-220l-368 -366l-172 172z" />
    </font>
</defs>
</svg>
