<?xml version="1.0" standalone="no"?>
<!DOCTYPE svg PUBLIC "-//W3C//DTD SVG 1.1//EN" "http://www.w3.org/Graphics/SVG/1.1/DTD/svg11.dtd" >
<svg xmlns="http://www.w3.org/2000/svg" xmlns:xlink="http://www.w3.org/1999/xlink" version="1.1">
<metadata>
Created by FontForge 20201107 at Mon Jul 14 14:24:40 2025
 By 
Copyright (c) 2023, Bao Nguyen (RandomMaerks) (rmforbusiness@gmail.com)
</metadata>
<defs>
<font id="OverusedGrotesk-Light" horiz-adv-x="326" >
  <font-face 
    font-family="Overused Grotesk Light"
    font-weight="300"
    font-stretch="normal"
    units-per-em="2048"
    panose-1="0 0 0 0 0 0 0 0 0 0"
    ascent="1638"
    descent="-410"
    x-height="1024"
    cap-height="1332"
    bbox="-234 -566 2400 2158"
    underline-thickness="102"
    underline-position="-254"
    unicode-range="U+0020-277E"
  />
<missing-glyph horiz-adv-x="1024" 
d="M102 -410v2048h820v-2048h-820zM204 -308h616v1844h-616v-1844z" />
    <glyph glyph-name=".notdef" horiz-adv-x="1024" 
d="M102 -410v2048h820v-2048h-820zM204 -308h616v1844h-616v-1844z" />
    <glyph glyph-name=".null" horiz-adv-x="0" 
 />
    <glyph glyph-name="nonmarkingreturn" horiz-adv-x="682" 
 />
    <glyph glyph-name="space" unicode=" " horiz-adv-x="408" 
 />
    <glyph glyph-name="exclam" unicode="!" 
d="M206 292h-86l-8 1040h104zM230 0h-132v144h132v-144z" />
    <glyph glyph-name="quotedbl" unicode="&#x22;" horiz-adv-x="552" 
d="M338 1434h102l-20 -410h-82v410zM112 1434h104l-22 -410h-82v410z" />
    <glyph glyph-name="numbersign" unicode="#" horiz-adv-x="1408" 
d="M1194 452v-98h-300l-146 -354h-116l146 354h-404l-146 -354h-116l146 354h-186v98h226l180 434h-262v100h304l142 346h114l-142 -346h406l142 346h114l-142 -346h184v-100h-226l-178 -434h260zM414 452h404l180 434h-406z" />
    <glyph glyph-name="dollar" unicode="$" horiz-adv-x="1166" 
d="M538 1536h104v-190q176 -20 284 -126t124 -278h-106q-21 136 -95 209.5t-207 88.5v-520l22 -4q412 -54 412 -364q0 -161 -118.5 -260.5t-315.5 -107.5v-230h-104v234q-194 18 -311 125t-135 277h110q23 -138 105.5 -211.5t230.5 -86.5v530l-36 4q-195 26 -297.5 111.5
t-102.5 230.5q0 170 117 272.5t319 109.5v186zM510 738l28 -4v510q-152 -8 -243 -81.5t-91 -190.5q0 -101 76 -157.5t230 -76.5zM656 606l-14 2v-520q150 6 240 77t90 187q0 212 -316 254z" />
    <glyph glyph-name="percent" unicode="%" horiz-adv-x="1708" 
d="M72 944q0 183 89 294.5t235 111.5q144 0 232 -111.5t88 -294.5q0 -185 -88 -297.5t-232 -112.5q-146 0 -235 113t-89 297zM1072 1332h114l-550 -1332h-114zM608 944q0 145 -55 224.5t-157 79.5t-159 -80t-57 -224q0 -145 57 -226.5t159 -81.5t157 81t55 227zM992 394
q0 183 88 293.5t234 110.5q144 0 233 -111t89 -293q0 -184 -89 -297t-233 -113q-145 0 -233.5 112.5t-88.5 297.5zM1528 394q0 144 -56 223t-158 79t-158 -79t-56 -223q0 -146 56 -227t158 -81t158 81t56 227z" />
    <glyph glyph-name="ampersand" unicode="&#x26;" horiz-adv-x="1242" 
d="M516 1348q144 0 236 -88.5t92 -225.5q0 -66 -20.5 -120t-62 -96.5t-89.5 -74t-116 -65.5l332 -344q72 137 92 324h110q-24 -235 -128 -400l250 -258h-144l-168 174q-168 -190 -404 -190q-184 0 -294 95.5t-110 254.5q0 57 16.5 106.5t42 85t67 69.5t79 56.5t91.5 50.5
q-85 85 -131.5 164t-46.5 172q0 136 86 223t220 87zM320 1042q0 -82 42 -148t122 -144q3 1 8 4t8 4q55 29 88.5 50.5t72 56.5t57 79.5t18.5 99.5q0 90 -60.5 146t-159.5 56q-90 0 -143 -55.5t-53 -148.5zM200 328q0 -115 77.5 -178.5t220.5 -63.5q203 0 332 160l-372 386
q-57 -27 -93.5 -49t-79 -58.5t-64 -86t-21.5 -110.5z" />
    <glyph glyph-name="quotesingle" unicode="'" 
d="M112 1434h104l-22 -410h-82v410z" />
    <glyph glyph-name="parenleft" unicode="(" horiz-adv-x="472" 
d="M442 -274h-104q-121 126 -193.5 343t-72.5 499q0 281 72.5 498.5t193.5 343.5h104q-134 -132 -198 -334.5t-64 -507.5t64 -507.5t198 -334.5z" />
    <glyph glyph-name="parenright" unicode=")" horiz-adv-x="472" 
d="M10 1410h104q121 -126 193.5 -343.5t72.5 -498.5q0 -282 -72.5 -499t-193.5 -343h-104q134 132 198 334.5t64 507.5t-64 507.5t-198 334.5z" />
    <glyph glyph-name="asterisk" unicode="*" horiz-adv-x="1080" 
d="M490 1434h102l-4 -456l424 150l30 -98l-424 -142l264 -352l-82 -58l-262 362l-258 -362l-82 58l264 354l-424 140l32 98l424 -148z" />
    <glyph glyph-name="plus" unicode="+" horiz-adv-x="1118" 
d="M608 614h438v-98h-438v-438h-98v438h-438v98h438v438h98v-438z" />
    <glyph glyph-name="comma" unicode="," 
d="M98 144h132v-144l-62 -256h-84l94 256h-80v144z" />
    <glyph glyph-name="hyphen" unicode="-" horiz-adv-x="946" 
d="M72 614h802v-98h-802v98z" />
    <glyph glyph-name="period" unicode="." 
d="M98 144h132v-144h-132v144z" />
    <glyph glyph-name="slash" unicode="/" horiz-adv-x="806" 
d="M620 1332h116l-550 -1332h-114z" />
    <glyph glyph-name="zero" unicode="0" horiz-adv-x="1116" 
d="M92 650q0 331 124.5 516.5t343.5 185.5t341.5 -185.5t122.5 -516.5q0 -315 -122.5 -490.5t-341.5 -175.5q-221 0 -344.5 175.5t-123.5 490.5zM916 650q0 600 -356 600q-360 0 -360 -600q0 -564 360 -564q356 0 356 564z" />
    <glyph glyph-name="one" unicode="1" horiz-adv-x="606" 
d="M392 1332h102v-1332h-102v1024h-320v88h158q83 0 122.5 30.5t39.5 107.5v82z" />
    <glyph glyph-name="two" unicode="2" horiz-adv-x="1058" 
d="M198 98h760v-98h-866v28q0 60 14 114.5t34.5 96.5t57 82.5t68 68.5t82 61t85 52.5t88.5 49.5q9 5 13 7q53 29 84 47.5t74.5 48t68.5 55.5t50 60.5t36 74t11 84.5q0 150 -88.5 233t-247.5 83q-141 0 -228.5 -83t-93.5 -223h-108q12 181 131.5 294.5t298.5 113.5
q200 0 322 -114.5t122 -303.5q0 -64 -21.5 -122t-53 -101t-83.5 -87t-97.5 -73.5t-110.5 -66.5q-19 -11 -64.5 -36.5t-66 -37.5t-60 -35.5t-59 -39t-48.5 -39t-44 -43.5t-31 -45t-22.5 -51.5t-6.5 -54.5z" />
    <glyph glyph-name="three" unicode="3" horiz-adv-x="1058" 
d="M442 618v102h142q121 0 187.5 65.5t66.5 184.5q0 131 -83 203.5t-233 72.5q-133 0 -214 -73.5t-86 -198.5h-110q12 167 125.5 270.5t284.5 103.5q191 0 307.5 -103.5t116.5 -274.5q0 -104 -50.5 -182.5t-141.5 -117.5q100 -38 156 -120t56 -192q0 -169 -122 -271.5
t-322 -102.5q-179 0 -298.5 101.5t-131.5 264.5h108q6 -121 93.5 -192.5t228.5 -71.5q160 0 248 71t88 201q0 124 -71.5 192t-202.5 68h-142z" />
    <glyph glyph-name="four" unicode="4" horiz-adv-x="1088" 
d="M828 352v-352h-104v352h-652v116l632 864h124v-884h210v-96h-210zM724 448v756l-544 -756h544z" />
    <glyph glyph-name="five" unicode="5" horiz-adv-x="1058" 
d="M858 438q0 166 -88.5 260t-251.5 94q-111 0 -194.5 -42.5t-131.5 -117.5h-100l62 702h766v-100h-678l-46 -490q121 150 336 150q197 0 315.5 -126.5t118.5 -327.5q0 -211 -120.5 -333.5t-319.5 -122.5q-182 0 -302 97.5t-132 254.5h108q6 -115 94 -182.5t232 -67.5
q160 0 246 89.5t86 262.5z" />
    <glyph glyph-name="six" unicode="6" horiz-adv-x="1098" 
d="M92 670q0 323 130.5 502.5t365.5 179.5q159 0 268 -88.5t136 -241.5h-110q-21 111 -96 169.5t-198 58.5q-195 0 -291.5 -144t-96.5 -436q0 -26 4 -70q48 126 154 199t238 73q180 0 296 -125t116 -319t-116 -319t-296 -125q-231 0 -367.5 185.5t-136.5 500.5zM246 428
q0 -145 98 -242.5t244 -97.5q141 0 226.5 93.5t85.5 246.5t-85.5 246.5t-226.5 93.5q-153 0 -247.5 -94t-94.5 -246z" />
    <glyph glyph-name="seven" unicode="7" horiz-adv-x="1110" 
d="M488 0h-112q9 108 24.5 205.5t32 175.5t44 155.5t49 132.5t59.5 120.5t62 104t71 99t71.5 91t77.5 92.5q31 37 47 56h-822v100h926v-120q-73 -83 -120.5 -139.5t-107.5 -137.5t-98 -148.5t-78.5 -158.5t-64 -182t-40.5 -205t-21 -241z" />
    <glyph glyph-name="eight" unicode="8" horiz-adv-x="1058" 
d="M724 672q114 -38 178 -122t64 -200q0 -166 -120 -266t-318 -100q-197 0 -316.5 100t-119.5 266q0 116 64 200t178 122q-95 39 -147.5 119t-52.5 187q0 167 108 268.5t286 101.5q180 0 289 -101.5t109 -268.5q0 -107 -53.5 -187t-148.5 -119zM542 720q131 0 203.5 67.5
t72.5 190.5q0 128 -76 198t-214 70q-136 0 -211 -70t-75 -198q0 -123 71.5 -190.5t202.5 -67.5h26zM542 618h-26q-150 0 -233 -70.5t-83 -197.5q0 -126 86 -195t242 -69t243 69t87 195q0 127 -83 197.5t-233 70.5z" />
    <glyph glyph-name="nine" unicode="9" horiz-adv-x="1098" 
d="M1008 666q0 -323 -130.5 -502.5t-365.5 -179.5q-159 0 -268 88.5t-136 241.5h110q21 -111 96 -169.5t198 -58.5q195 0 291.5 144t96.5 436q0 4 -6 70q-48 -126 -153 -200t-237 -74q-180 0 -296 126t-116 320t116 319t296 125q231 0 367.5 -185.5t136.5 -500.5zM854 908
q0 145 -98 242.5t-244 97.5q-141 0 -226.5 -93.5t-85.5 -246.5t85.5 -246.5t226.5 -93.5q153 0 247.5 94t94.5 246z" />
    <glyph glyph-name="colon" unicode=":" 
d="M98 984h132v-144h-132v144zM98 144h132v-144h-132v144z" />
    <glyph glyph-name="semicolon" unicode=";" 
d="M98 984h132v-144h-132v144zM98 144h132v-144l-62 -256h-84l94 256h-80v144z" />
    <glyph glyph-name="less" unicode="&#x3c;" horiz-adv-x="1166" 
d="M1096 1024v-114l-890 -362l890 -348v-118l-1024 414v114z" />
    <glyph glyph-name="equal" unicode="=" horiz-adv-x="1118" 
d="M1046 870v-98h-974v98h974zM1046 338v-98h-974v98h974z" />
    <glyph glyph-name="greater" unicode="&#x3e;" horiz-adv-x="1166" 
d="M72 82v114l888 362l-888 348v118l1024 -414v-114z" />
    <glyph glyph-name="question" unicode="?" horiz-adv-x="1058" 
d="M482 292q0 58 13.5 109t30.5 85.5t51 73.5t54.5 58.5t62.5 55.5q41 35 63.5 57.5t49.5 57.5t39 74.5t12 86.5q0 141 -88.5 218.5t-247.5 77.5q-141 0 -228.5 -83t-93.5 -223h-108q12 181 131.5 294.5t298.5 113.5q200 0 322 -109t122 -289q0 -26 -4 -51t-8 -44.5
t-16 -42.5t-18 -36.5t-24.5 -35.5t-25.5 -31.5t-30 -31.5t-29 -28t-32.5 -29.5t-30.5 -27.5q-80 -72 -122 -138.5t-42 -161.5h-102zM596 0h-132v144h132v-144z" />
    <glyph glyph-name="at" unicode="@" horiz-adv-x="1812" 
d="M1250 976v-572q0 -74 38 -114t112 -40q108 0 160 80.5t52 255.5q0 333 -189 528.5t-515 195.5q-327 0 -517.5 -197t-190.5 -533q0 -335 189 -527.5t511 -192.5q149 0 326 54v-102q-152 -54 -316 -54q-244 0 -429.5 100.5t-287 287t-101.5 432.5q0 185 59 340.5t165 264.5
t258 170t334 61q241 0 426.5 -104.5t285.5 -287.5t100 -414q0 -222 -84.5 -340t-233.5 -118q-99 0 -163 41t-85 119q-44 -81 -115 -124.5t-163 -43.5q-155 0 -251.5 118t-96.5 310t96.5 310t251.5 118q178 0 270 -152v130h104zM636 570q0 -154 66.5 -240t187.5 -86
q120 0 188 86t68 240q0 153 -67.5 238.5t-188.5 85.5t-187.5 -85.5t-66.5 -238.5z" />
    <glyph glyph-name="A" unicode="A" horiz-adv-x="1260" 
d="M1190 0h-116l-144 386h-598l-142 -386h-118l502 1332h116zM628 1196l-260 -712h526z" />
    <glyph glyph-name="B" unicode="B" horiz-adv-x="1186" 
d="M710 1332q153 0 247.5 -93.5t94.5 -246.5q0 -107 -48.5 -186.5t-133.5 -119.5q114 -38 179 -126t65 -210q0 -158 -99.5 -254t-262.5 -96h-640v1332h598zM700 1232h-484v-500h484q115 0 179.5 68.5t64.5 191.5q0 115 -64 177.5t-180 62.5zM700 632h-484v-534h526
q125 0 194.5 66t69.5 186q0 133 -81 207.5t-225 74.5z" />
    <glyph glyph-name="C" unicode="C" horiz-adv-x="1304" 
d="M92 670q0 308 156 495t412 187q231 0 384 -125.5t168 -326.5h-108q-7 162 -127 256t-317 94q-218 0 -339 -152t-121 -428q0 -277 121 -430.5t339 -153.5q194 0 314 94.5t130 257.5h108q-21 -206 -172 -330t-380 -124q-255 0 -411.5 188.5t-156.5 497.5z" />
    <glyph glyph-name="D" unicode="D" horiz-adv-x="1246" 
d="M588 1332q255 0 411.5 -190t156.5 -500q0 -289 -145.5 -465.5t-382.5 -176.5h-516v1332h476zM216 1232v-1134h392q207 0 322.5 143t115.5 401q0 281 -125 435.5t-353 154.5h-352z" />
    <glyph glyph-name="E" unicode="E" horiz-adv-x="1084" 
d="M994 1332v-100h-778v-500h720v-100h-720v-534h778v-98h-882v1332h882z" />
    <glyph glyph-name="F" unicode="F" horiz-adv-x="1084" 
d="M994 1332v-100h-778v-542h720v-98h-720v-592h-104v1332h882z" />
    <glyph glyph-name="G" unicode="G" horiz-adv-x="1324" 
d="M92 670q0 308 160 495t424 187q225 0 373 -125.5t163 -326.5h-108q-7 162 -123 256t-305 94q-225 0 -350.5 -152t-125.5 -428q0 -277 121 -430.5t339 -153.5q181 0 294 134t128 362h-426v98h556v-680h-86l-8 334q-62 -162 -183 -256t-275 -94q-255 0 -411.5 188.5
t-156.5 497.5z" />
    <glyph glyph-name="H" unicode="H" horiz-adv-x="1248" 
d="M112 1332h104v-594h818v594h102v-1332h-102v638h-818v-638h-104v1332z" />
    <glyph glyph-name="I" unicode="I" 
d="M112 1332h104v-1332h-104v1332z" />
    <glyph glyph-name="J" unicode="J" horiz-adv-x="638" 
d="M54 98h124q56 0 98 14t77 48t53 99t18 159v914h102v-926q0 -90 -20.5 -161t-53.5 -116t-78.5 -75t-93.5 -42t-100 -12h-126v98z" />
    <glyph glyph-name="K" unicode="K" horiz-adv-x="1062" 
d="M112 1332h104v-720l662 720h138l-604 -642l620 -690h-132l-560 616l-124 -138v-478h-104v1332z" />
    <glyph glyph-name="L" unicode="L" horiz-adv-x="962" 
d="M890 0h-778v1332h104v-1234h674v-98z" />
    <glyph glyph-name="M" unicode="M" horiz-adv-x="1486" 
d="M794 0h-102l-476 1190v-1190h-104v1332h146l486 -1184l476 1184h154v-1332h-102v1190z" />
    <glyph glyph-name="N" unicode="N" horiz-adv-x="1248" 
d="M1034 1332h102v-1332h-116l-804 1210v-1210h-104v1332h144l778 -1172v1172z" />
    <glyph glyph-name="O" unicode="O" horiz-adv-x="1360" 
d="M92 650q0 316 162 509t428 193q264 0 426 -193t162 -509q0 -300 -162 -483t-426 -183q-266 0 -428 183t-162 483zM1162 650q0 284 -126 442t-354 158q-229 0 -355.5 -158t-126.5 -442q0 -267 126.5 -415.5t355.5 -148.5q228 0 354 148.5t126 415.5z" />
    <glyph glyph-name="P" unicode="P" horiz-adv-x="1134" 
d="M638 510h-422v-510h-104v1332h516q191 0 307.5 -114.5t116.5 -303.5q0 -177 -112.5 -290.5t-301.5 -113.5zM618 1232h-402v-624h402q153 0 239.5 81t86.5 225q0 151 -85.5 234.5t-240.5 83.5z" />
    <glyph glyph-name="Q" unicode="Q" horiz-adv-x="1360" 
d="M92 650q0 316 162 509t428 193q264 0 426 -193t162 -509q0 -295 -156 -476l174 -126l-60 -84l-190 138q-146 -118 -356 -118q-266 0 -428 183t-162 483zM1162 650q0 284 -126 442t-354 158q-229 0 -355.5 -158t-126.5 -442q0 -267 126.5 -415.5t355.5 -148.5
q162 0 274 76l-300 218l58 84l320 -232q128 146 128 418z" />
    <glyph glyph-name="R" unicode="R" horiz-adv-x="1144" 
d="M558 572h-342v-572h-104v1332h538q182 0 292 -106.5t110 -281.5q0 -130 -74 -220t-202 -120q115 -18 169 -84.5t71 -205.5l36 -314h-102l-34 300q-17 144 -100.5 208t-257.5 64zM638 1232h-422v-562h422q144 0 225 72t81 202q0 136 -81 212t-225 76z" />
    <glyph glyph-name="S" unicode="S" horiz-adv-x="1166" 
d="M656 606l-154 20q-195 24 -297.5 110t-102.5 232q0 176 125 279t341 103q207 0 335.5 -109t146.5 -299h-106q-24 154 -116 228t-262 74q-164 0 -263 -74.5t-99 -197.5q0 -101 76 -157.5t230 -76.5l154 -22q412 -51 412 -364q0 -168 -126.5 -268t-335.5 -100
q-227 0 -364.5 110t-157.5 296h110q25 -154 126.5 -228t287.5 -74q160 0 258 71.5t98 192.5q0 107 -79.5 171.5t-236.5 82.5z" />
    <glyph glyph-name="T" unicode="T" horiz-adv-x="1064" 
d="M994 1332v-100h-410v-1232h-102v1232h-410v100h922z" />
    <glyph glyph-name="U" unicode="U" horiz-adv-x="1184" 
d="M102 1332h102v-826q0 -199 102.5 -309.5t287.5 -110.5q183 0 284.5 110.5t101.5 309.5v826h104v-826q0 -235 -135.5 -378.5t-354.5 -143.5q-221 0 -356.5 143.5t-135.5 378.5v826z" />
    <glyph glyph-name="V" unicode="V" horiz-adv-x="1260" 
d="M72 1332h116l444 -1196l440 1196h118l-502 -1332h-116z" />
    <glyph glyph-name="W" unicode="W" horiz-adv-x="1954" 
d="M72 1332h116l324 -1186l406 1186h116l394 -1186l340 1186h116l-402 -1332h-108l-398 1194l-408 -1194h-110z" />
    <glyph glyph-name="X" unicode="X" horiz-adv-x="1160" 
d="M72 1332h130l376 -616l384 616h128l-422 -670l422 -662h-132l-374 612l-390 -612h-122l422 666z" />
    <glyph glyph-name="Y" unicode="Y" horiz-adv-x="1160" 
d="M526 460l-454 872h126l380 -742l388 742h124l-462 -872v-460h-102v460z" />
    <glyph glyph-name="Z" unicode="Z" horiz-adv-x="1130" 
d="M92 1332h946v-120l-830 -1114h830v-98h-946v118l828 1114h-828v100z" />
    <glyph glyph-name="bracketleft" unicode="[" horiz-adv-x="470" 
d="M194 1314v-1482h246v-98h-348v1680h348v-100h-246z" />
    <glyph glyph-name="backslash" unicode="\" horiz-adv-x="806" 
d="M186 1332l550 -1332h-116l-548 1332h114z" />
    <glyph glyph-name="bracketright" unicode="]" horiz-adv-x="470" 
d="M276 -168v1482h-246v100h348v-1680h-348v98h246z" />
    <glyph glyph-name="asciicircum" unicode="^" horiz-adv-x="750" 
d="M322 1434h108l250 -410h-88l-216 344l-216 -344h-88z" />
    <glyph glyph-name="underscore" unicode="_" horiz-adv-x="1150" 
d="M72 0h1008v-98h-1008v98z" />
    <glyph glyph-name="grave" unicode="`" horiz-adv-x="500" 
d="M72 1434h128l230 -328h-88z" />
    <glyph glyph-name="a" unicode="a" horiz-adv-x="1026" 
d="M912 686v-686h-104v194q-61 -99 -160.5 -156.5t-217.5 -57.5q-149 0 -243.5 83t-94.5 215q0 118 76.5 190.5t211.5 81.5l298 22q70 4 100 30t30 82v4q0 108 -83.5 181t-206.5 73q-281 0 -308 -242h-110q11 156 123.5 250t292.5 94q169 0 282.5 -103t113.5 -255zM198 278
q0 -90 68 -143t184 -53q155 0 256.5 104.5t101.5 263.5v30l-396 -28q-214 -15 -214 -174z" />
    <glyph glyph-name="b" unicode="b" horiz-adv-x="1130" 
d="M112 1434h104v-612q56 106 150 164t214 58q206 0 332 -145t126 -383q0 -240 -126 -386t-332 -146q-121 0 -214.5 58.5t-149.5 165.5v-208h-104v1434zM930 516q0 203 -93.5 314.5t-262.5 111.5q-171 0 -264.5 -111.5t-93.5 -314.5q0 -204 93.5 -317t264.5 -113
q169 0 262.5 113t93.5 317z" />
    <glyph glyph-name="c" unicode="c" horiz-adv-x="1098" 
d="M92 516q0 238 128.5 383t337.5 145q187 0 311.5 -108t138.5 -282h-108q-6 132 -99 210t-243 78q-171 0 -264.5 -111.5t-93.5 -314.5q0 -204 94 -317t264 -113q149 0 242 73t100 197h108q-16 -169 -139 -270.5t-311 -101.5q-209 0 -337.5 146t-128.5 386z" />
    <glyph glyph-name="d" unicode="d" horiz-adv-x="1130" 
d="M1018 1434v-1434h-102v208q-56 -107 -150.5 -165.5t-215.5 -58.5q-206 0 -332 146t-126 386q0 238 126 383t332 145q122 0 216 -58t150 -164v612h102zM200 516q0 -204 94 -317t264 -113q171 0 264.5 113t93.5 317q0 203 -93.5 314.5t-264.5 111.5q-170 0 -264 -112
t-94 -314z" />
    <glyph glyph-name="e" unicode="e" horiz-adv-x="1112" 
d="M92 516q0 244 126.5 386t341.5 142q201 0 330.5 -141t129.5 -359v-60h-820q7 -195 102.5 -296.5t269.5 -101.5q137 0 222 62.5t106 169.5h108q-35 -162 -144 -248t-292 -86q-221 0 -350.5 143t-129.5 389zM560 942q-162 0 -252.5 -91.5t-105.5 -268.5h708
q-13 165 -108.5 262.5t-241.5 97.5z" />
    <glyph glyph-name="f" unicode="f" horiz-adv-x="638" 
d="M72 926v98h166v168q0 66 21.5 115t57.5 75.5t77.5 39t87.5 12.5h86v-98h-84q-69 0 -106.5 -34t-37.5 -122v-156h228v-98h-228v-926h-102v926h-166z" />
    <glyph glyph-name="g" unicode="g" horiz-adv-x="1130" 
d="M1018 1024v-1046q0 -168 -120 -271t-318 -103q-192 0 -318.5 88t-149.5 234h110q14 -102 108 -160t250 -58q159 0 247.5 73.5t88.5 206.5v244q-56 -104 -150.5 -161t-215.5 -57q-206 0 -332 142t-126 374q0 231 126 372.5t332 141.5q122 0 216 -56.5t150 -159.5v196h102z
M200 530q0 -196 94 -305t264 -109q171 0 264.5 108.5t93.5 305.5q0 195 -93.5 303.5t-264.5 108.5q-169 0 -263.5 -108.5t-94.5 -303.5z" />
    <glyph glyph-name="h" unicode="h" horiz-adv-x="1044" 
d="M830 634q0 157 -79 232.5t-221 75.5q-135 0 -224.5 -83t-89.5 -211v-648h-104v1434h104v-570q54 85 145.5 132.5t188.5 47.5q171 0 276.5 -102t105.5 -286v-656h-102v634z" />
    <glyph glyph-name="i" unicode="i" 
d="M98 1316h132v-142h-132v142zM112 1024h104v-1024h-104v1024z" />
    <glyph glyph-name="j" unicode="j" 
d="M98 1316h132v-142h-132v142zM-74 -218h64q58 0 90 34t32 122v1086h104v-1098q0 -66 -19.5 -115t-53 -75.5t-71.5 -39t-80 -12.5h-66v98z" />
    <glyph glyph-name="k" unicode="k" horiz-adv-x="956" 
d="M736 1024h132l-456 -510l472 -514h-132l-412 440l-124 -140v-300h-104v1434h104v-996z" />
    <glyph glyph-name="l" unicode="l" 
d="M112 1434h104v-1434h-104v1434z" />
    <glyph glyph-name="m" unicode="m" horiz-adv-x="1678" 
d="M788 634q0 157 -73 232.5t-205 75.5q-126 0 -210 -83t-84 -211v-648h-104v1024h104v-154q53 82 138 128t176 46q117 0 204.5 -56.5t127.5 -161.5q48 101 144 159.5t200 58.5q161 0 260.5 -102t99.5 -286v-656h-102v634q0 157 -73 232.5t-205 75.5q-126 0 -211 -83
t-85 -211v-648h-102v634z" />
    <glyph glyph-name="n" unicode="n" horiz-adv-x="1044" 
d="M112 1024h104v-160q54 85 145.5 132.5t188.5 47.5q171 0 276.5 -102t105.5 -286v-656h-102v634q0 157 -79 232.5t-221 75.5q-135 0 -224.5 -83t-89.5 -211v-648h-104v1024z" />
    <glyph glyph-name="o" unicode="o" horiz-adv-x="1116" 
d="M92 516q0 238 129 383t339 145q209 0 336.5 -145t127.5 -383q0 -240 -127.5 -386t-336.5 -146q-210 0 -339 146t-129 386zM916 516q0 203 -93.5 314.5t-262.5 111.5q-171 0 -265.5 -112t-94.5 -314q0 -204 94.5 -317t265.5 -113q169 0 262.5 113t93.5 317z" />
    <glyph glyph-name="p" unicode="p" horiz-adv-x="1130" 
d="M112 1024h104v-202q56 106 150 164t214 58q206 0 332 -145t126 -383q0 -240 -126 -386t-332 -146q-121 0 -214.5 58.5t-149.5 165.5v-542h-104v1358zM930 516q0 203 -93.5 314.5t-262.5 111.5q-171 0 -264.5 -111.5t-93.5 -314.5q0 -204 93.5 -317t264.5 -113
q169 0 262.5 113t93.5 317z" />
    <glyph glyph-name="q" unicode="q" horiz-adv-x="1130" 
d="M1018 1024v-1358h-102v542q-56 -107 -150.5 -165.5t-215.5 -58.5q-206 0 -332 146t-126 386q0 238 126 383t332 145q122 0 216 -58t150 -164v202h102zM200 516q0 -204 94 -317t264 -113q171 0 264.5 113t93.5 317q0 203 -93.5 314.5t-264.5 111.5q-170 0 -264 -112
t-94 -314z" />
    <glyph glyph-name="r" unicode="r" horiz-adv-x="622" 
d="M112 1024h104v-148q50 79 129.5 123.5t164.5 44.5h40v-110h-38q-126 0 -211 -80.5t-85 -205.5v-648h-104v1024z" />
    <glyph glyph-name="s" unicode="s" horiz-adv-x="1002" 
d="M574 452l-154 22q-158 20 -238 86.5t-80 191.5q0 134 103 212t281 78q172 0 278.5 -87t121.5 -239h-106q-20 116 -91.5 171t-204.5 55q-126 0 -203 -51t-77 -135q0 -80 54.5 -119t169.5 -53l154 -20q167 -21 248.5 -95t81.5 -207q0 -127 -104 -202.5t-276 -75.5
q-192 0 -307.5 88t-132.5 236h110q19 -115 101 -169.5t231 -54.5q123 0 198.5 48.5t75.5 129.5q0 163 -234 190z" />
    <glyph glyph-name="t" unicode="t" horiz-adv-x="638" 
d="M568 98v-98h-86q-41 0 -77 12.5t-68 39t-50.5 75.5t-18.5 115v684h-196v98h196v266h102v-266h198v-98h-198v-672q0 -88 30 -122t84 -34h84z" />
    <glyph glyph-name="u" unicode="u" horiz-adv-x="1028" 
d="M216 410q0 -167 76.5 -247.5t213.5 -80.5q131 0 219.5 89.5t88.5 226.5v626h102v-1024h-102v170q-55 -89 -144 -139.5t-184 -50.5q-168 0 -271 108t-103 302v634h104v-614z" />
    <glyph glyph-name="v" unicode="v" horiz-adv-x="1086" 
d="M72 1024h116l358 -888l352 888h118l-414 -1024h-116z" />
    <glyph glyph-name="w" unicode="w" horiz-adv-x="1532" 
d="M72 1024h116l238 -878l280 878h118l268 -878l254 878h116l-316 -1024h-108l-272 886l-284 -886h-110z" />
    <glyph glyph-name="x" unicode="x" horiz-adv-x="1016" 
d="M72 1024h126l304 -450l318 450h126l-350 -506l350 -518h-126l-304 468l-318 -468h-126l350 522z" />
    <glyph glyph-name="y" unicode="y" horiz-adv-x="1086" 
d="M124 -208h146q77 0 120.5 32.5t71.5 113.5l24 62l-414 1024h116l358 -888l352 888h118l-438 -1098q-53 -129 -113 -185.5t-145 -56.5h-196v108z" />
    <glyph glyph-name="z" unicode="z" horiz-adv-x="946" 
d="M92 1024h762v-118l-646 -808h646v-98h-762v118l644 808h-644v98z" />
    <glyph glyph-name="braceleft" unicode="{" horiz-adv-x="470" 
d="M440 1314h-42q-65 0 -94.5 -36.5t-29.5 -117.5v-436q0 -113 -92 -150q92 -37 92 -152v-434q0 -81 30 -118.5t94 -37.5h42v-98h-52q-102 0 -159 64t-57 178v434q0 60 -22 87t-70 27h-54v98h54q48 0 70 28t22 88v434q0 114 57 178t159 64h52v-100z" />
    <glyph glyph-name="bar" unicode="|" 
d="M112 1640h104v-2050h-104v2050z" />
    <glyph glyph-name="braceright" unicode="}" horiz-adv-x="470" 
d="M26 -168h44q64 0 93 37.5t29 118.5v434q0 115 92 152q-92 37 -92 150v436q0 81 -29 117.5t-93 36.5h-44v100h54q102 0 158 -64t56 -178v-434q0 -60 23 -88t71 -28h52v-98h-52q-48 0 -71 -27t-23 -87v-434q0 -114 -56 -178t-158 -64h-54v98z" />
    <glyph glyph-name="asciitilde" unicode="~" horiz-adv-x="874" 
d="M272 1024q43 0 82.5 -19.5t57.5 -36t54 -54.5q2 -3 14.5 -15.5t15.5 -16t14 -14t15.5 -13.5t14.5 -11t17 -10.5t16.5 -6.5t19 -5.5t19.5 -1.5q46 0 74 52.5t28 139.5h88q0 -129 -51.5 -205.5t-138.5 -76.5q-44 0 -83 16t-60.5 33.5t-52.5 48.5q-7 7 -34 35.5t-38 38
t-33 21t-43 11.5q-48 0 -76 -53.5t-28 -142.5h-92q0 133 53.5 209.5t146.5 76.5z" />
    <glyph glyph-name="uni00A0" unicode="&#xa0;" horiz-adv-x="408" 
 />
    <glyph glyph-name="exclamdown" unicode="&#xa1;" 
d="M98 1024h132v-144h-132v144zM120 732h86l10 -1040h-104z" />
    <glyph glyph-name="cent" unicode="&#xa2;" horiz-adv-x="1098" 
d="M92 670q0 222 114 365t302 161v136h102v-136q167 -15 276.5 -122t121.5 -268h-108q-6 120 -84 197t-206 91v-852q128 14 205.5 84.5t84.5 183.5h108q-15 -157 -122.5 -256t-275.5 -114v-140h-102v140q-188 18 -302 162t-114 368zM200 670q0 -189 80.5 -300t227.5 -128
v852q-147 -17 -227.5 -127t-80.5 -297z" />
    <glyph glyph-name="sterling" unicode="&#xa3;" horiz-adv-x="1072" 
d="M72 692h190v258q0 178 98.5 288t259.5 110q151 0 251.5 -88t114.5 -232h-104q-12 104 -81 161t-181 57q-121 0 -188.5 -78t-67.5 -218v-258h476v-98h-476v-154q0 -109 -44.5 -201t-145.5 -141h828v-98h-930v110q53 25 91 65t59 87t30.5 95t9.5 99v138h-190v98z" />
    <glyph glyph-name="currency" unicode="&#xa4;" horiz-adv-x="982" 
d="M676 820l166 166l70 -70l-168 -168q48 -75 48 -176q0 -104 -52 -184l172 -172l-70 -70l-172 172q-79 -54 -178 -54t-178 54l-172 -172l-70 70l172 172q-56 81 -56 184q0 97 50 178l-166 166l70 70l164 -164q81 56 184 56q107 0 186 -58zM284 572q0 -102 55.5 -160
t152.5 -58q94 0 149 58.5t55 159.5q0 100 -55.5 158t-150.5 58q-94 0 -150 -58t-56 -158z" />
    <glyph glyph-name="yen" unicode="&#xa5;" horiz-adv-x="1160" 
d="M170 278h356v136h-356v98h350l-448 820h126l380 -702l388 702h124l-456 -820h338v-98h-344v-136h344v-98h-344v-180h-102v180h-356v98z" />
    <glyph glyph-name="brokenbar" unicode="&#xa6;" 
d="M112 1640h104v-918h-104v918zM216 508v-918h-104v918h104z" />
    <glyph glyph-name="section" unicode="&#xa7;" horiz-adv-x="1002" 
d="M574 392l-154 20q-164 23 -241 80t-77 158q0 82 47.5 139t134.5 81q-172 59 -172 212q0 125 98 197.5t266 72.5q186 0 302 -81.5t134 -222.5h-112q-39 204 -314 204q-126 0 -198 -43.5t-72 -118.5q0 -60 51 -95t163 -51l154 -20q165 -23 241.5 -81t76.5 -161
q0 -79 -43 -137t-123 -85q154 -61 154 -208q0 -124 -97 -196t-265 -72q-186 0 -302 80.5t-134 221.5h110q39 -202 316 -202q126 0 198 42.5t72 117.5q0 60 -51 96t-163 52zM204 670q0 -66 51 -100.5t173 -51.5l154 -20q99 0 157.5 45t58.5 121q0 66 -50.5 102t-171.5 52
l-154 20q-99 0 -158.5 -46t-59.5 -122z" />
    <glyph glyph-name="dieresis" unicode="&#xa8;" horiz-adv-x="680" 
d="M480 1168h130v-144h-130v144zM72 1168h130v-144h-130v144z" />
    <glyph glyph-name="copyright" unicode="&#xa9;" horiz-adv-x="1688" 
d="M1598 666q0 -225 -96 -400t-270 -271.5t-398 -96.5q-334 0 -538 205t-204 541q0 228 95.5 407.5t268 279t392.5 99.5q218 0 389 -96.5t266 -271t95 -396.5zM834 6q292 0 473 183t181 479q0 293 -177.5 472.5t-466.5 179.5q-290 0 -467 -182t-177 -480
q0 -295 173.5 -473.5t460.5 -178.5zM456 664q0 192 105.5 309t278.5 117q153 0 254.5 -91.5t113.5 -238.5h-108q-5 104 -75.5 166t-184.5 62q-132 0 -203 -84.5t-71 -239.5q0 -156 72 -242t202 -86q114 0 184 56t76 152h108q-13 -141 -114 -225.5t-254 -84.5
q-173 0 -278.5 118.5t-105.5 311.5z" />
    <glyph glyph-name="ordfeminine" unicode="&#xaa;" horiz-adv-x="870" 
d="M762 764q0 -141 24 -222h-106q-12 53 -18 118q-47 -64 -119 -101t-155 -37q-131 0 -213.5 66.5t-82.5 171.5q0 92 57.5 150t154.5 64l248 18q58 5 83 21t25 51v6q0 72 -61.5 121t-150.5 49q-217 0 -238 -160h-110q9 120 102.5 191t243.5 71q135 0 225.5 -78.5
t90.5 -195.5v-304zM198 760q0 -63 52.5 -99.5t139.5 -36.5q117 0 193.5 69.5t76.5 176.5v30l-326 -24q-70 -4 -103 -33t-33 -83z" />
    <glyph glyph-name="guillemotleft" unicode="&#xab;" horiz-adv-x="1166" 
d="M1096 1024v-146l-394 -330l394 -338v-128l-492 414v114zM564 1024v-146l-394 -330l394 -338v-128l-492 414v114z" />
    <glyph glyph-name="logicalnot" unicode="&#xac;" horiz-adv-x="1048" 
d="M874 516h-802v98h904v-340h-102v242z" />
    <glyph glyph-name="uni00AD" unicode="&#xad;" horiz-adv-x="774" 
d="M72 614h630v-98h-630v98z" />
    <glyph glyph-name="registered" unicode="&#xae;" horiz-adv-x="1688" 
d="M1598 666q0 -225 -96 -400t-270 -271.5t-398 -96.5q-334 0 -538 205t-204 541q0 228 95.5 407.5t268 279t392.5 99.5q218 0 389 -96.5t266 -271t95 -396.5zM834 6q292 0 473 183t181 479q0 293 -177.5 472.5t-466.5 179.5q-290 0 -467 -182t-177 -480
q0 -295 173.5 -473.5t460.5 -178.5zM898 580h-252v-308h-104v798h412q114 0 184 -64.5t70 -169.5q0 -83 -41.5 -142t-114.5 -82q64 -12 95.5 -53t40.5 -121l20 -166h-102l-18 152q-9 83 -54 119.5t-136 36.5zM944 970h-298v-292h298q74 0 115 41.5t41 116.5q0 64 -41 99
t-115 35z" />
    <glyph glyph-name="macron" unicode="&#xaf;" horiz-adv-x="756" 
d="M72 1160h614v-96h-614v96z" />
    <glyph glyph-name="degree" unicode="&#xb0;" horiz-adv-x="664" 
d="M594 1088q0 -117 -73 -191.5t-187 -74.5q-115 0 -188.5 74.5t-73.5 191.5t73 191.5t187 74.5q115 0 188.5 -74.5t73.5 -191.5zM168 1088q0 -82 44.5 -129t121.5 -47q76 0 120 47.5t44 128.5t-45 128.5t-121 47.5q-75 0 -119.5 -47.5t-44.5 -128.5z" />
    <glyph glyph-name="plusminus" unicode="&#xb1;" horiz-adv-x="1118" 
d="M608 614h438v-98h-438v-438h-98v438h-438v98h438v438h98v-438zM1046 0v-98h-974v98h974z" />
    <glyph glyph-name="uni00B2" unicode="&#xb2;" horiz-adv-x="770" 
d="M178 844h512v-98h-618v28q0 58 19 105t45.5 77.5t72.5 58.5t80.5 43t88.5 36q11 4 16 6q96 36 146 75.5t50 104.5q0 77 -50 119.5t-140 42.5q-97 0 -156 -48.5t-64 -131.5h-108q9 125 100.5 203.5t227.5 78.5q134 0 216 -74.5t82 -197.5q0 -49 -21 -89t-63 -72t-81.5 -53
t-98.5 -46q-144 -60 -183 -85q-62 -38 -73 -83z" />
    <glyph glyph-name="uni00B3" unicode="&#xb3;" horiz-adv-x="772" 
d="M332 1084v102h122q56 0 87 29t31 83q0 69 -50 107.5t-140 38.5q-84 0 -135.5 -38.5t-54.5 -103.5h-108q9 108 91.5 176t206.5 68q134 0 216 -68t82 -180q0 -52 -24 -94t-66 -66q52 -26 81 -71.5t29 -104.5q0 -105 -85 -168.5t-225 -63.5q-132 0 -220.5 63t-97.5 165h108
q4 -58 61 -92t149 -34q96 0 149 33.5t53 96.5q0 58 -36 90t-102 32h-122z" />
    <glyph glyph-name="acute" unicode="&#xb4;" horiz-adv-x="500" 
d="M430 1332l-270 -308h-88l230 308h128z" />
    <glyph glyph-name="mu" unicode="&#xb5;" horiz-adv-x="1028" 
d="M216 410q0 -167 76.5 -247.5t213.5 -80.5q131 0 219.5 89.5t88.5 226.5v626h102v-1024h-102v170q-55 -89 -144 -139.5t-184 -50.5q-175 0 -270 126v-440h-104v1358h104v-614z" />
    <glyph glyph-name="paragraph" unicode="&#xb6;" horiz-adv-x="958" 
d="M478 680q-183 0 -294.5 90.5t-111.5 237.5q0 146 111.5 235t294.5 89h368v-1332h-102v1232h-164v-1232h-102v680z" />
    <glyph glyph-name="periodcentered" unicode="&#xb7;" 
d="M98 724h132v-142h-132v142z" />
    <glyph glyph-name="cedilla" unicode="&#xb8;" horiz-adv-x="584" 
d="M200 20h92l-18 -132h32q93 0 150.5 -57.5t57.5 -150.5q0 -103 -70.5 -163.5t-189.5 -60.5h-182v102h166q82 0 125 32t43 94q0 48 -31 74t-85 26h-68l-50 62z" />
    <glyph glyph-name="uni00B9" unicode="&#xb9;" horiz-adv-x="450" 
d="M276 1536h102v-790h-102v532h-224v88h88q71 0 103.5 23.5t32.5 82.5v64z" />
    <glyph glyph-name="ordmasculine" unicode="&#xba;" horiz-adv-x="870" 
d="M72 934q0 183 99.5 294.5t264.5 111.5q163 0 262.5 -111.5t99.5 -294.5q0 -185 -99.5 -297.5t-262.5 -112.5q-165 0 -264.5 112.5t-99.5 297.5zM690 934q0 144 -66.5 223t-187.5 79t-188.5 -79.5t-67.5 -222.5q0 -145 68 -226.5t188 -81.5q121 0 187.5 81t66.5 227z" />
    <glyph glyph-name="guillemotright" unicode="&#xbb;" horiz-adv-x="1166" 
d="M72 82v146l392 330l-392 336v130l492 -414v-114zM604 82v146l394 330l-394 336v130l492 -414v-114z" />
    <glyph glyph-name="onequarter" unicode="&#xbc;" horiz-adv-x="1708" 
d="M400 1332h102v-792h-102v534h-226v88h88q71 0 104.5 23.5t33.5 82.5v64zM1072 1332h114l-550 -1332h-114zM1484 200v-200h-102v200h-410v118l390 472h122v-494h152v-96h-152zM1382 296v368l-300 -368h300z" />
    <glyph glyph-name="onehalf" unicode="&#xbd;" horiz-adv-x="1708" 
d="M400 1332h102v-792h-102v534h-226v88h88q71 0 104.5 23.5t33.5 82.5v64zM1072 1332h114l-550 -1332h-114zM1110 98h512v-98h-618v28q0 58 19 105t45.5 77.5t72.5 58.5t80.5 43t88.5 36q11 4 16 6q96 36 146 75.5t50 104.5q0 77 -50 119.5t-140 42.5q-97 0 -156 -48.5
t-64 -131.5h-108q9 125 100.5 203.5t227.5 78.5q134 0 216 -74.5t82 -197.5q0 -49 -21 -89t-63 -72t-81.5 -53t-98.5 -46q-144 -60 -183 -85q-62 -38 -73 -83z" />
    <glyph glyph-name="threequarters" unicode="&#xbe;" horiz-adv-x="1708" 
d="M332 878v102h122q56 0 87 30t31 84q0 69 -50 107.5t-140 38.5q-84 0 -135.5 -38.5t-54.5 -103.5h-108q9 108 91.5 176t206.5 68q134 0 216 -68t82 -180q0 -108 -92 -162q53 -24 82.5 -69.5t29.5 -104.5q0 -105 -85.5 -169.5t-224.5 -64.5q-132 0 -220.5 64t-97.5 166h108
q5 -59 62 -93.5t148 -34.5q96 0 149 34.5t53 97.5q0 58 -36 89t-102 31h-122zM1072 1332h114l-550 -1332h-114zM1484 200v-200h-102v200h-410v118l390 472h122v-494h152v-96h-152zM1382 296v368l-300 -368h300z" />
    <glyph glyph-name="questiondown" unicode="&#xbf;" horiz-adv-x="1058" 
d="M462 1024h132v-144h-132v144zM578 732q0 -58 -14 -109.5t-30.5 -85t-51.5 -73.5t-55 -58.5t-63 -55.5q-41 -35 -63.5 -57.5t-49.5 -57.5t-39 -74.5t-12 -86.5q0 -141 88.5 -218.5t247.5 -77.5q141 0 228.5 83t93.5 223h108q-12 -181 -131.5 -294.5t-298.5 -113.5
q-200 0 -322 109t-122 289q0 26 4 50.5t8.5 44.5t16 42.5t19 37t24 35.5t25.5 31.5t30 31t29.5 28.5t32.5 29.5t31 27.5q80 72 122 138.5t42 161.5h102z" />
    <glyph glyph-name="Agrave" unicode="&#xc0;" horiz-adv-x="1260" 
d="M372 1742h128l230 -308h-88zM1190 0h-116l-144 386h-598l-142 -386h-118l502 1332h116zM628 1196l-260 -712h526z" />
    <glyph glyph-name="Aacute" unicode="&#xc1;" horiz-adv-x="1260" 
d="M888 1742l-270 -308h-88l228 308h130zM1190 0h-116l-144 386h-598l-142 -386h-118l502 1332h116zM628 1196l-260 -712h526z" />
    <glyph glyph-name="Acircumflex" unicode="&#xc2;" horiz-adv-x="1260" 
d="M566 1762h108l332 -328h-128l-256 262l-258 -262h-130zM1190 0h-116l-144 386h-598l-142 -386h-118l502 1332h116zM628 1196l-260 -712h526z" />
    <glyph glyph-name="Atilde" unicode="&#xc3;" horiz-adv-x="1260" 
d="M472 1720q38 0 73.5 -19t53 -37t47.5 -54q27 -34 39 -48t36.5 -30t48.5 -16q47 0 75.5 52.5t28.5 139.5h88q0 -129 -52.5 -205.5t-139.5 -76.5q-30 0 -55.5 7.5t-48.5 24t-37 30t-35 36.5q-9 11 -30 36.5t-31 36.5t-28.5 22t-36.5 11q-48 0 -76 -53.5t-28 -142.5h-92
q0 133 53.5 209.5t146.5 76.5zM1190 0h-116l-144 386h-598l-142 -386h-118l502 1332h116zM628 1196l-260 -712h526z" />
    <glyph glyph-name="Adieresis" unicode="&#xc4;" horiz-adv-x="1260" 
d="M756 1578h132v-144h-132v144zM348 1578h132v-144h-132v144zM1190 0h-116l-144 386h-598l-142 -386h-118l502 1332h116zM628 1196l-260 -712h526z" />
    <glyph glyph-name="Aring" unicode="&#xc5;" horiz-adv-x="1260" 
d="M1190 0h-116l-144 386h-598l-142 -386h-118l476 1262q-86 21 -136 89.5t-50 166.5q0 120 71.5 193t188.5 73q118 0 190 -73t72 -193q0 -94 -45 -161t-125 -91zM460 1518q0 -86 43 -133t121 -47q77 0 119.5 47.5t42.5 132.5q0 86 -43 133t-121 47q-77 0 -119.5 -47.5
t-42.5 -132.5zM628 1196l-260 -712h526z" />
    <glyph glyph-name="AE" unicode="&#xc6;" horiz-adv-x="1944" 
d="M1854 1332v-100h-778v-500h720v-100h-720v-534h778v-98h-882v386h-594l-194 -386h-112l670 1332h1112zM428 484h544v744h-168z" />
    <glyph glyph-name="Ccedilla" unicode="&#xc7;" horiz-adv-x="1304" 
d="M92 670q0 308 156 495t412 187q231 0 384 -125.5t168 -326.5h-108q-7 162 -127 256t-317 94q-218 0 -339 -152t-121 -428q0 -277 121 -430.5t339 -153.5q194 0 314 94.5t130 257.5h108q-19 -196 -158 -318.5t-352 -133.5l-14 -98h32q93 0 150.5 -57.5t57.5 -150.5
q0 -103 -70.5 -163.5t-189.5 -60.5h-182v102h166q82 0 125 32t43 94q0 48 -31 74t-85 26h-68l-50 62l22 140q-233 20 -374.5 206t-141.5 478z" />
    <glyph glyph-name="Egrave" unicode="&#xc8;" horiz-adv-x="1084" 
d="M312 1742h128l230 -308h-88zM994 1332v-100h-778v-500h720v-100h-720v-534h778v-98h-882v1332h882z" />
    <glyph glyph-name="Eacute" unicode="&#xc9;" horiz-adv-x="1084" 
d="M828 1742l-270 -308h-88l228 308h130zM994 1332v-100h-778v-500h720v-100h-720v-534h778v-98h-882v1332h882z" />
    <glyph glyph-name="Ecircumflex" unicode="&#xca;" horiz-adv-x="1084" 
d="M506 1762h108l332 -328h-128l-256 262l-258 -262h-130zM994 1332v-100h-778v-500h720v-100h-720v-534h778v-98h-882v1332h882z" />
    <glyph glyph-name="Edieresis" unicode="&#xcb;" horiz-adv-x="1084" 
d="M696 1578h132v-144h-132v144zM288 1578h132v-144h-132v144zM994 1332v-100h-778v-500h720v-100h-720v-534h778v-98h-882v1332h882z" />
    <glyph glyph-name="Igrave" unicode="&#xcc;" 
d="M-94 1742h128l230 -308h-88zM112 1332h104v-1332h-104v1332z" />
    <glyph glyph-name="Iacute" unicode="&#xcd;" 
d="M422 1742l-270 -308h-88l228 308h130zM112 1332h104v-1332h-104v1332z" />
    <glyph glyph-name="Icircumflex" unicode="&#xce;" 
d="M100 1762h108l332 -328h-128l-256 262l-258 -262h-130zM112 1332h104v-1332h-104v1332z" />
    <glyph glyph-name="Idieresis" unicode="&#xcf;" 
d="M290 1578h132v-144h-132v144zM-118 1578h132v-144h-132v144zM112 1332h104v-1332h-104v1332z" />
    <glyph glyph-name="Eth" unicode="&#xd0;" horiz-adv-x="1430" 
d="M62 696h234v636h476q255 0 411.5 -190t156.5 -500q0 -289 -144.5 -465.5t-381.5 -176.5h-518v598h-234v98zM400 1232v-536h424v-98h-424v-500h392q207 0 322.5 143t115.5 401q0 281 -125 435.5t-353 154.5h-352z" />
    <glyph glyph-name="Ntilde" unicode="&#xd1;" horiz-adv-x="1248" 
d="M488 1720q38 0 73.5 -19t53 -37t47.5 -54q27 -34 39 -48t36.5 -30t48.5 -16q47 0 75.5 52.5t28.5 139.5h88q0 -129 -52.5 -205.5t-139.5 -76.5q-30 0 -55.5 7.5t-48.5 24t-37 30t-35 36.5q-9 11 -30 36.5t-31 36.5t-28.5 22t-36.5 11q-48 0 -76 -53.5t-28 -142.5h-92
q0 133 53.5 209.5t146.5 76.5zM1034 1332h102v-1332h-116l-804 1210v-1210h-104v1332h144l778 -1172v1172z" />
    <glyph glyph-name="Ograve" unicode="&#xd2;" horiz-adv-x="1360" 
d="M424 1742h128l230 -308h-88zM92 650q0 316 162 509t428 193q264 0 426 -193t162 -509q0 -300 -162 -483t-426 -183q-266 0 -428 183t-162 483zM1162 650q0 284 -126 442t-354 158q-229 0 -355.5 -158t-126.5 -442q0 -267 126.5 -415.5t355.5 -148.5q228 0 354 148.5
t126 415.5z" />
    <glyph glyph-name="Oacute" unicode="&#xd3;" horiz-adv-x="1360" 
d="M940 1742l-270 -308h-88l228 308h130zM92 650q0 316 162 509t428 193q264 0 426 -193t162 -509q0 -300 -162 -483t-426 -183q-266 0 -428 183t-162 483zM1162 650q0 284 -126 442t-354 158q-229 0 -355.5 -158t-126.5 -442q0 -267 126.5 -415.5t355.5 -148.5
q228 0 354 148.5t126 415.5z" />
    <glyph glyph-name="Ocircumflex" unicode="&#xd4;" horiz-adv-x="1360" 
d="M618 1762h108l332 -328h-128l-256 262l-258 -262h-130zM92 650q0 316 162 509t428 193q264 0 426 -193t162 -509q0 -300 -162 -483t-426 -183q-266 0 -428 183t-162 483zM1162 650q0 284 -126 442t-354 158q-229 0 -355.5 -158t-126.5 -442q0 -267 126.5 -415.5
t355.5 -148.5q228 0 354 148.5t126 415.5z" />
    <glyph glyph-name="Otilde" unicode="&#xd5;" horiz-adv-x="1360" 
d="M524 1720q38 0 73.5 -19t53 -37t47.5 -54q27 -34 39 -48t36.5 -30t48.5 -16q47 0 75.5 52.5t28.5 139.5h88q0 -129 -52.5 -205.5t-139.5 -76.5q-30 0 -55.5 7.5t-48.5 24t-37 30t-35 36.5q-9 11 -30 36.5t-31 36.5t-28.5 22t-36.5 11q-48 0 -76 -53.5t-28 -142.5h-92
q0 133 53.5 209.5t146.5 76.5zM92 650q0 316 162 509t428 193q264 0 426 -193t162 -509q0 -300 -162 -483t-426 -183q-266 0 -428 183t-162 483zM1162 650q0 284 -126 442t-354 158q-229 0 -355.5 -158t-126.5 -442q0 -267 126.5 -415.5t355.5 -148.5q228 0 354 148.5
t126 415.5z" />
    <glyph glyph-name="Odieresis" unicode="&#xd6;" horiz-adv-x="1360" 
d="M808 1578h132v-144h-132v144zM400 1578h132v-144h-132v144zM92 650q0 316 162 509t428 193q264 0 426 -193t162 -509q0 -300 -162 -483t-426 -183q-266 0 -428 183t-162 483zM1162 650q0 284 -126 442t-354 158q-229 0 -355.5 -158t-126.5 -442q0 -267 126.5 -415.5
t355.5 -148.5q228 0 354 148.5t126 415.5z" />
    <glyph glyph-name="multiply" unicode="&#xd7;" horiz-adv-x="1118" 
d="M560 634l350 352l68 -70l-350 -350l350 -350l-68 -70l-350 350l-352 -350l-68 70l350 350l-350 350l68 70z" />
    <glyph glyph-name="Oslash" unicode="&#xd8;" horiz-adv-x="1360" 
d="M92 650q0 316 162 509t428 193q220 0 374 -138l140 178l74 -60l-150 -188q150 -191 150 -494q0 -300 -162 -483t-426 -183q-222 0 -376 132l-140 -178l-74 62l146 186q-146 181 -146 464zM200 650q0 -239 102 -384l692 872q-124 112 -312 112q-229 0 -355.5 -158
t-126.5 -442zM1162 650q0 258 -104 414l-690 -872q122 -106 314 -106q228 0 354 148.5t126 415.5z" />
    <glyph glyph-name="Ugrave" unicode="&#xd9;" horiz-adv-x="1184" 
d="M346 1742h128l230 -308h-88zM102 1332h102v-826q0 -199 102.5 -309.5t287.5 -110.5q183 0 284.5 110.5t101.5 309.5v826h104v-826q0 -235 -135.5 -378.5t-354.5 -143.5q-221 0 -356.5 143.5t-135.5 378.5v826z" />
    <glyph glyph-name="Uacute" unicode="&#xda;" horiz-adv-x="1184" 
d="M862 1742l-270 -308h-88l228 308h130zM102 1332h102v-826q0 -199 102.5 -309.5t287.5 -110.5q183 0 284.5 110.5t101.5 309.5v826h104v-826q0 -235 -135.5 -378.5t-354.5 -143.5q-221 0 -356.5 143.5t-135.5 378.5v826z" />
    <glyph glyph-name="Ucircumflex" unicode="&#xdb;" horiz-adv-x="1184" 
d="M540 1762h108l332 -328h-128l-256 262l-258 -262h-130zM102 1332h102v-826q0 -199 102.5 -309.5t287.5 -110.5q183 0 284.5 110.5t101.5 309.5v826h104v-826q0 -235 -135.5 -378.5t-354.5 -143.5q-221 0 -356.5 143.5t-135.5 378.5v826z" />
    <glyph glyph-name="Udieresis" unicode="&#xdc;" horiz-adv-x="1184" 
d="M730 1578h132v-144h-132v144zM322 1578h132v-144h-132v144zM102 1332h102v-826q0 -199 102.5 -309.5t287.5 -110.5q183 0 284.5 110.5t101.5 309.5v826h104v-826q0 -235 -135.5 -378.5t-354.5 -143.5q-221 0 -356.5 143.5t-135.5 378.5v826z" />
    <glyph glyph-name="Yacute" unicode="&#xdd;" horiz-adv-x="1160" 
d="M858 1742l-270 -308h-88l228 308h130zM526 460l-454 872h126l380 -742l388 742h124l-462 -872v-460h-102v460z" />
    <glyph glyph-name="Thorn" unicode="&#xde;" horiz-adv-x="1134" 
d="M112 1332h104v-230h412q191 0 307.5 -114.5t116.5 -303.5q0 -177 -112.5 -290.5t-301.5 -113.5h-422v-280h-104v1332zM216 1004v-626h402q153 0 239.5 81t86.5 225q0 152 -86 236t-240 84h-402z" />
    <glyph glyph-name="germandbls" unicode="&#xdf;" horiz-adv-x="1116" 
d="M580 1348q-169 0 -266.5 -100.5t-97.5 -273.5v-974h-104v988q0 204 129 333t339 129q177 0 300.5 -111.5t123.5 -270.5q0 -121 -52 -210.5t-146 -131.5q103 -39 160.5 -124.5t57.5 -201.5q0 -180 -116.5 -290t-307.5 -110h-182v102h182q150 0 233 78t83 220
q0 130 -71.5 201t-202.5 71h-142v102h142q121 0 186.5 77t65.5 217q0 122 -89 201t-225 79z" />
    <glyph glyph-name="agrave" unicode="&#xe0;" horiz-adv-x="1026" 
d="M258 1454h128l230 -308h-88zM912 686v-686h-104v194q-61 -99 -160.5 -156.5t-217.5 -57.5q-149 0 -243.5 83t-94.5 215q0 118 76.5 190.5t211.5 81.5l298 22q70 4 100 30t30 82v4q0 108 -83.5 181t-206.5 73q-281 0 -308 -242h-110q11 156 123.5 250t292.5 94
q169 0 282.5 -103t113.5 -255zM198 278q0 -90 68 -143t184 -53q155 0 256.5 104.5t101.5 263.5v30l-396 -28q-214 -15 -214 -174z" />
    <glyph glyph-name="aacute" unicode="&#xe1;" horiz-adv-x="1026" 
d="M774 1454l-270 -308h-88l228 308h130zM912 686v-686h-104v194q-61 -99 -160.5 -156.5t-217.5 -57.5q-149 0 -243.5 83t-94.5 215q0 118 76.5 190.5t211.5 81.5l298 22q70 4 100 30t30 82v4q0 108 -83.5 181t-206.5 73q-281 0 -308 -242h-110q11 156 123.5 250t292.5 94
q169 0 282.5 -103t113.5 -255zM198 278q0 -90 68 -143t184 -53q155 0 256.5 104.5t101.5 263.5v30l-396 -28q-214 -15 -214 -174z" />
    <glyph glyph-name="acircumflex" unicode="&#xe2;" horiz-adv-x="1026" 
d="M452 1474h108l332 -328h-128l-256 262l-258 -262h-130zM912 686v-686h-104v194q-61 -99 -160.5 -156.5t-217.5 -57.5q-149 0 -243.5 83t-94.5 215q0 118 76.5 190.5t211.5 81.5l298 22q70 4 100 30t30 82v4q0 108 -83.5 181t-206.5 73q-281 0 -308 -242h-110
q11 156 123.5 250t292.5 94q169 0 282.5 -103t113.5 -255zM198 278q0 -90 68 -143t184 -53q155 0 256.5 104.5t101.5 263.5v30l-396 -28q-214 -15 -214 -174z" />
    <glyph glyph-name="atilde" unicode="&#xe3;" horiz-adv-x="1026" 
d="M358 1432q38 0 73.5 -19t53 -37t47.5 -54q27 -34 39 -48t36.5 -30t48.5 -16q47 0 75.5 52.5t28.5 139.5h88q0 -129 -52.5 -205.5t-139.5 -76.5q-30 0 -55.5 7.5t-48.5 24t-37 30t-35 36.5q-9 11 -30 36.5t-31 36.5t-28.5 22t-36.5 11q-48 0 -76 -53.5t-28 -142.5h-92
q0 133 53.5 209.5t146.5 76.5zM912 686v-686h-104v194q-61 -99 -160.5 -156.5t-217.5 -57.5q-149 0 -243.5 83t-94.5 215q0 118 76.5 190.5t211.5 81.5l298 22q70 4 100 30t30 82v4q0 108 -83.5 181t-206.5 73q-281 0 -308 -242h-110q11 156 123.5 250t292.5 94
q169 0 282.5 -103t113.5 -255zM198 278q0 -90 68 -143t184 -53q155 0 256.5 104.5t101.5 263.5v30l-396 -28q-214 -15 -214 -174z" />
    <glyph glyph-name="adieresis" unicode="&#xe4;" horiz-adv-x="1026" 
d="M642 1290h132v-144h-132v144zM234 1290h132v-144h-132v144zM912 686v-686h-104v194q-61 -99 -160.5 -156.5t-217.5 -57.5q-149 0 -243.5 83t-94.5 215q0 118 76.5 190.5t211.5 81.5l298 22q70 4 100 30t30 82v4q0 108 -83.5 181t-206.5 73q-281 0 -308 -242h-110
q11 156 123.5 250t292.5 94q169 0 282.5 -103t113.5 -255zM198 278q0 -90 68 -143t184 -53q155 0 256.5 104.5t101.5 263.5v30l-396 -28q-214 -15 -214 -174z" />
    <glyph glyph-name="aring" unicode="&#xe5;" horiz-adv-x="1026" 
d="M770 1398q0 -120 -71.5 -193t-188.5 -73q-118 0 -190 73t-72 193t71.5 193t188.5 73q118 0 190 -73t72 -193zM346 1398q0 -86 43 -133t121 -47q77 0 119.5 47.5t42.5 132.5q0 86 -43 133t-121 47q-77 0 -119.5 -47.5t-42.5 -132.5zM912 686v-686h-104v194
q-61 -99 -160.5 -156.5t-217.5 -57.5q-149 0 -243.5 83t-94.5 215q0 118 76.5 190.5t211.5 81.5l298 22q70 4 100 30t30 82v4q0 108 -83.5 181t-206.5 73q-281 0 -308 -242h-110q11 156 123.5 250t292.5 94q169 0 282.5 -103t113.5 -255zM198 278q0 -90 68 -143t184 -53
q155 0 256.5 104.5t101.5 263.5v30l-396 -28q-214 -15 -214 -174z" />
    <glyph glyph-name="ae" unicode="&#xe6;" horiz-adv-x="1828" 
d="M1288 -16q-155 0 -267.5 72.5t-166.5 205.5q-55 -128 -169 -205t-255 -77q-149 0 -243.5 83t-94.5 215q0 118 76.5 190.5t211.5 81.5l298 22q70 4 100 30t30 82v4q0 108 -83.5 181t-206.5 73q-281 0 -308 -242h-110q11 156 123.5 250t292.5 94q125 0 222.5 -59
t143.5 -157q59 104 160 160t234 56q201 0 330.5 -141t129.5 -359v-60h-818q8 -195 102 -296.5t268 -101.5q137 0 222 62.5t106 169.5h108q-35 -162 -144 -248t-292 -86zM1276 942q-162 0 -252 -91.5t-104 -268.5h706q-13 165 -108.5 262.5t-241.5 97.5zM198 278
q0 -90 68 -143t184 -53q155 0 256.5 104.5t101.5 263.5v30l-396 -28q-214 -15 -214 -174z" />
    <glyph glyph-name="ccedilla" unicode="&#xe7;" horiz-adv-x="1098" 
d="M92 516q0 238 128.5 383t337.5 145q187 0 311.5 -108t138.5 -282h-108q-6 132 -99 210t-243 78q-171 0 -264.5 -111.5t-93.5 -314.5q0 -204 94 -317t264 -113q149 0 242 73t100 197h108q-15 -158 -124.5 -258t-279.5 -112l-14 -98h32q93 0 150.5 -57.5t57.5 -150.5
q0 -103 -70.5 -163.5t-189.5 -60.5h-182v102h166q82 0 125 32t43 94q0 48 -31 74t-85 26h-68l-50 62l22 140q-190 17 -304 160.5t-114 369.5z" />
    <glyph glyph-name="egrave" unicode="&#xe8;" horiz-adv-x="1112" 
d="M296 1454h128l230 -308h-88zM92 516q0 244 126.5 386t341.5 142q201 0 330.5 -141t129.5 -359v-60h-820q7 -195 102.5 -296.5t269.5 -101.5q137 0 222 62.5t106 169.5h108q-35 -162 -144 -248t-292 -86q-221 0 -350.5 143t-129.5 389zM560 942q-162 0 -252.5 -91.5
t-105.5 -268.5h708q-13 165 -108.5 262.5t-241.5 97.5z" />
    <glyph glyph-name="eacute" unicode="&#xe9;" horiz-adv-x="1112" 
d="M812 1454l-270 -308h-88l228 308h130zM92 516q0 244 126.5 386t341.5 142q201 0 330.5 -141t129.5 -359v-60h-820q7 -195 102.5 -296.5t269.5 -101.5q137 0 222 62.5t106 169.5h108q-35 -162 -144 -248t-292 -86q-221 0 -350.5 143t-129.5 389zM560 942
q-162 0 -252.5 -91.5t-105.5 -268.5h708q-13 165 -108.5 262.5t-241.5 97.5z" />
    <glyph glyph-name="ecircumflex" unicode="&#xea;" horiz-adv-x="1112" 
d="M490 1474h108l332 -328h-128l-256 262l-258 -262h-130zM92 516q0 244 126.5 386t341.5 142q201 0 330.5 -141t129.5 -359v-60h-820q7 -195 102.5 -296.5t269.5 -101.5q137 0 222 62.5t106 169.5h108q-35 -162 -144 -248t-292 -86q-221 0 -350.5 143t-129.5 389zM560 942
q-162 0 -252.5 -91.5t-105.5 -268.5h708q-13 165 -108.5 262.5t-241.5 97.5z" />
    <glyph glyph-name="edieresis" unicode="&#xeb;" horiz-adv-x="1112" 
d="M680 1290h132v-144h-132v144zM272 1290h132v-144h-132v144zM92 516q0 244 126.5 386t341.5 142q201 0 330.5 -141t129.5 -359v-60h-820q7 -195 102.5 -296.5t269.5 -101.5q137 0 222 62.5t106 169.5h108q-35 -162 -144 -248t-292 -86q-221 0 -350.5 143t-129.5 389z
M560 942q-162 0 -252.5 -91.5t-105.5 -268.5h708q-13 165 -108.5 262.5t-241.5 97.5z" />
    <glyph glyph-name="igrave" unicode="&#xec;" 
d="M-96 1454h128l230 -308h-88zM112 1024h104v-1024h-104v1024z" />
    <glyph glyph-name="iacute" unicode="&#xed;" 
d="M420 1454l-270 -308h-88l228 308h130zM112 1024h104v-1024h-104v1024z" />
    <glyph glyph-name="icircumflex" unicode="&#xee;" 
d="M98 1474h108l332 -328h-128l-256 262l-258 -262h-130zM112 1024h104v-1024h-104v1024z" />
    <glyph glyph-name="idieresis" unicode="&#xef;" 
d="M288 1290h132v-144h-132v144zM-120 1290h132v-144h-132v144zM112 1024h104v-1024h-104v1024z" />
    <glyph glyph-name="eth" unicode="&#xf0;" horiz-adv-x="1140" 
d="M446 1212l296 62q-66 87 -142 160h138q67 -67 118 -136l222 46v-98l-164 -34q134 -226 134 -518q0 -318 -141 -514t-369 -196q-198 0 -322 145t-124 375q0 228 122.5 376t311.5 148q139 0 249.5 -83.5t160.5 -224.5q4 34 4 68q0 83 -37.5 188.5t-104.5 211.5l-352 -74v98
zM894 512q0 182 -99 297t-255 115q-154 0 -247 -114.5t-93 -305.5q0 -189 91 -302.5t241 -113.5q158 0 260 120t102 304z" />
    <glyph glyph-name="ntilde" unicode="&#xf1;" horiz-adv-x="1044" 
d="M372 1432q38 0 73.5 -19t53 -37t47.5 -54q27 -34 39 -48t36.5 -30t48.5 -16q47 0 75.5 52.5t28.5 139.5h88q0 -129 -52.5 -205.5t-139.5 -76.5q-30 0 -55.5 7.5t-48.5 24t-37 30t-35 36.5q-9 11 -30 36.5t-31 36.5t-28.5 22t-36.5 11q-48 0 -76 -53.5t-28 -142.5h-92
q0 133 53.5 209.5t146.5 76.5zM112 1024h104v-160q54 85 145.5 132.5t188.5 47.5q171 0 276.5 -102t105.5 -286v-656h-102v634q0 157 -79 232.5t-221 75.5q-135 0 -224.5 -83t-89.5 -211v-648h-104v1024z" />
    <glyph glyph-name="ograve" unicode="&#xf2;" horiz-adv-x="1116" 
d="M298 1454h128l230 -308h-88zM92 516q0 238 129 383t339 145q209 0 336.5 -145t127.5 -383q0 -240 -127.5 -386t-336.5 -146q-210 0 -339 146t-129 386zM916 516q0 203 -93.5 314.5t-262.5 111.5q-171 0 -265.5 -112t-94.5 -314q0 -204 94.5 -317t265.5 -113
q169 0 262.5 113t93.5 317z" />
    <glyph glyph-name="oacute" unicode="&#xf3;" horiz-adv-x="1116" 
d="M814 1454l-270 -308h-88l228 308h130zM92 516q0 238 129 383t339 145q209 0 336.5 -145t127.5 -383q0 -240 -127.5 -386t-336.5 -146q-210 0 -339 146t-129 386zM916 516q0 203 -93.5 314.5t-262.5 111.5q-171 0 -265.5 -112t-94.5 -314q0 -204 94.5 -317t265.5 -113
q169 0 262.5 113t93.5 317z" />
    <glyph glyph-name="ocircumflex" unicode="&#xf4;" horiz-adv-x="1116" 
d="M492 1474h108l332 -328h-128l-256 262l-258 -262h-130zM92 516q0 238 129 383t339 145q209 0 336.5 -145t127.5 -383q0 -240 -127.5 -386t-336.5 -146q-210 0 -339 146t-129 386zM916 516q0 203 -93.5 314.5t-262.5 111.5q-171 0 -265.5 -112t-94.5 -314
q0 -204 94.5 -317t265.5 -113q169 0 262.5 113t93.5 317z" />
    <glyph glyph-name="otilde" unicode="&#xf5;" horiz-adv-x="1116" 
d="M398 1432q38 0 73.5 -19t53 -37t47.5 -54q27 -34 39 -48t36.5 -30t48.5 -16q47 0 75.5 52.5t28.5 139.5h88q0 -129 -52.5 -205.5t-139.5 -76.5q-30 0 -55.5 7.5t-48.5 24t-37 30t-35 36.5q-9 11 -30 36.5t-31 36.5t-28.5 22t-36.5 11q-48 0 -76 -53.5t-28 -142.5h-92
q0 133 53.5 209.5t146.5 76.5zM92 516q0 238 129 383t339 145q209 0 336.5 -145t127.5 -383q0 -240 -127.5 -386t-336.5 -146q-210 0 -339 146t-129 386zM916 516q0 203 -93.5 314.5t-262.5 111.5q-171 0 -265.5 -112t-94.5 -314q0 -204 94.5 -317t265.5 -113
q169 0 262.5 113t93.5 317z" />
    <glyph glyph-name="odieresis" unicode="&#xf6;" horiz-adv-x="1116" 
d="M682 1290h132v-144h-132v144zM274 1290h132v-144h-132v144zM92 516q0 238 129 383t339 145q209 0 336.5 -145t127.5 -383q0 -240 -127.5 -386t-336.5 -146q-210 0 -339 146t-129 386zM916 516q0 203 -93.5 314.5t-262.5 111.5q-171 0 -265.5 -112t-94.5 -314
q0 -204 94.5 -317t265.5 -113q169 0 262.5 113t93.5 317z" />
    <glyph glyph-name="divide" unicode="&#xf7;" horiz-adv-x="946" 
d="M406 1038h130v-144h-130v144zM72 614h802v-98h-802v98zM406 198h130v-142h-130v142z" />
    <glyph glyph-name="oslash" unicode="&#xf8;" horiz-adv-x="1116" 
d="M92 516q0 238 129 383t339 145q163 0 278 -90l104 132l74 -62l-108 -138q116 -144 116 -370q0 -240 -127.5 -386t-336.5 -146q-165 0 -284 94l-110 -140l-74 62l114 146q-114 146 -114 370zM200 516q0 -178 72 -286l504 644q-87 68 -216 68q-171 0 -265.5 -112
t-94.5 -314zM916 516q0 175 -72 288l-506 -648q88 -70 222 -70q169 0 262.5 113t93.5 317z" />
    <glyph glyph-name="ugrave" unicode="&#xf9;" horiz-adv-x="1028" 
d="M270 1454h128l230 -308h-88zM216 410q0 -167 76.5 -247.5t213.5 -80.5q131 0 219.5 89.5t88.5 226.5v626h102v-1024h-102v170q-55 -89 -144 -139.5t-184 -50.5q-168 0 -271 108t-103 302v634h104v-614z" />
    <glyph glyph-name="uacute" unicode="&#xfa;" horiz-adv-x="1028" 
d="M786 1454l-270 -308h-88l228 308h130zM216 410q0 -167 76.5 -247.5t213.5 -80.5q131 0 219.5 89.5t88.5 226.5v626h102v-1024h-102v170q-55 -89 -144 -139.5t-184 -50.5q-168 0 -271 108t-103 302v634h104v-614z" />
    <glyph glyph-name="ucircumflex" unicode="&#xfb;" horiz-adv-x="1028" 
d="M464 1474h108l332 -328h-128l-256 262l-258 -262h-130zM216 410q0 -167 76.5 -247.5t213.5 -80.5q131 0 219.5 89.5t88.5 226.5v626h102v-1024h-102v170q-55 -89 -144 -139.5t-184 -50.5q-168 0 -271 108t-103 302v634h104v-614z" />
    <glyph glyph-name="udieresis" unicode="&#xfc;" horiz-adv-x="1028" 
d="M654 1290h132v-144h-132v144zM246 1290h132v-144h-132v144zM216 410q0 -167 76.5 -247.5t213.5 -80.5q131 0 219.5 89.5t88.5 226.5v626h102v-1024h-102v170q-55 -89 -144 -139.5t-184 -50.5q-168 0 -271 108t-103 302v634h104v-614z" />
    <glyph glyph-name="yacute" unicode="&#xfd;" horiz-adv-x="1086" 
d="M822 1454l-270 -308h-88l228 308h130zM124 -208h146q77 0 120.5 32.5t71.5 113.5l24 62l-414 1024h116l358 -888l352 888h118l-438 -1098q-53 -129 -113 -185.5t-145 -56.5h-196v108z" />
    <glyph glyph-name="thorn" unicode="&#xfe;" horiz-adv-x="1130" 
d="M112 1434h104v-612q56 106 150 164t214 58q206 0 332 -145t126 -383q0 -240 -126 -386t-332 -146q-121 0 -214.5 58.5t-149.5 165.5v-542h-104v1768zM930 516q0 203 -93.5 314.5t-262.5 111.5q-171 0 -264.5 -111.5t-93.5 -314.5q0 -204 93.5 -317t264.5 -113
q169 0 262.5 113t93.5 317z" />
    <glyph glyph-name="ydieresis" unicode="&#xff;" horiz-adv-x="1086" 
d="M690 1290h132v-144h-132v144zM282 1290h132v-144h-132v144zM124 -208h146q77 0 120.5 32.5t71.5 113.5l24 62l-414 1024h116l358 -888l352 888h118l-438 -1098q-53 -129 -113 -185.5t-145 -56.5h-196v108z" />
    <glyph glyph-name="Amacron" unicode="&#x100;" horiz-adv-x="1260" 
d="M312 1570h614v-96h-614v96zM1190 0h-116l-144 386h-598l-142 -386h-118l502 1332h116zM628 1196l-260 -712h526z" />
    <glyph glyph-name="amacron" unicode="&#x101;" horiz-adv-x="1026" 
d="M198 1282h614v-96h-614v96zM912 686v-686h-104v194q-61 -99 -160.5 -156.5t-217.5 -57.5q-149 0 -243.5 83t-94.5 215q0 118 76.5 190.5t211.5 81.5l298 22q70 4 100 30t30 82v4q0 108 -83.5 181t-206.5 73q-281 0 -308 -242h-110q11 156 123.5 250t292.5 94
q169 0 282.5 -103t113.5 -255zM198 278q0 -90 68 -143t184 -53q155 0 256.5 104.5t101.5 263.5v30l-396 -28q-214 -15 -214 -174z" />
    <glyph glyph-name="Abreve" unicode="&#x102;" horiz-adv-x="1260" 
d="M944 1720q-11 -131 -96 -208.5t-224 -77.5q-141 0 -227 77.5t-97 208.5h104q22 -200 220 -200q194 0 216 200h104zM1190 0h-116l-144 386h-598l-142 -386h-118l502 1332h116zM628 1196l-260 -712h526z" />
    <glyph glyph-name="abreve" unicode="&#x103;" horiz-adv-x="1026" 
d="M830 1432q-11 -131 -96 -208.5t-224 -77.5q-141 0 -227 77.5t-97 208.5h104q22 -200 220 -200q194 0 216 200h104zM912 686v-686h-104v194q-61 -99 -160.5 -156.5t-217.5 -57.5q-149 0 -243.5 83t-94.5 215q0 118 76.5 190.5t211.5 81.5l298 22q70 4 100 30t30 82v4
q0 108 -83.5 181t-206.5 73q-281 0 -308 -242h-110q11 156 123.5 250t292.5 94q169 0 282.5 -103t113.5 -255zM198 278q0 -90 68 -143t184 -53q155 0 256.5 104.5t101.5 263.5v30l-396 -28q-214 -15 -214 -174z" />
    <glyph glyph-name="Aogonek" unicode="&#x104;" horiz-adv-x="1260" 
d="M1190 0q-123 -92 -165.5 -161.5t-42.5 -158.5q0 -142 168 -142h126v-104h-142q-119 0 -189.5 65.5t-70.5 176.5q0 203 218 324h-18l-144 386h-598l-142 -386h-118l502 1332h116zM628 1196l-260 -712h526z" />
    <glyph glyph-name="aogonek" unicode="&#x105;" horiz-adv-x="1026" 
d="M912 0q-123 -92 -165.5 -161.5t-42.5 -158.5q0 -142 168 -142h126v-104h-142q-119 0 -189.5 65.5t-70.5 176.5q0 203 218 324h-6v194q-61 -99 -160.5 -156.5t-217.5 -57.5q-149 0 -243.5 83t-94.5 215q0 118 76.5 190.5t211.5 81.5l298 22q70 4 100 30t30 82v4
q0 108 -83.5 181t-206.5 73q-281 0 -308 -242h-110q11 156 123.5 250t292.5 94q169 0 282.5 -103t113.5 -255v-686zM198 278q0 -90 68 -143t184 -53q155 0 256.5 104.5t101.5 263.5v30l-396 -28q-214 -15 -214 -174z" />
    <glyph glyph-name="Cacute" unicode="&#x106;" horiz-adv-x="1304" 
d="M916 1742l-270 -308h-88l228 308h130zM92 670q0 308 156 495t412 187q231 0 384 -125.5t168 -326.5h-108q-7 162 -127 256t-317 94q-218 0 -339 -152t-121 -428q0 -277 121 -430.5t339 -153.5q194 0 314 94.5t130 257.5h108q-21 -206 -172 -330t-380 -124
q-255 0 -411.5 188.5t-156.5 497.5z" />
    <glyph glyph-name="cacute" unicode="&#x107;" horiz-adv-x="1098" 
d="M816 1454l-270 -308h-88l228 308h130zM92 516q0 238 128.5 383t337.5 145q187 0 311.5 -108t138.5 -282h-108q-6 132 -99 210t-243 78q-171 0 -264.5 -111.5t-93.5 -314.5q0 -204 94 -317t264 -113q149 0 242 73t100 197h108q-16 -169 -139 -270.5t-311 -101.5
q-209 0 -337.5 146t-128.5 386z" />
    <glyph glyph-name="Ccircumflex" unicode="&#x108;" horiz-adv-x="1304" 
d="M594 1762h108l332 -328h-128l-256 262l-258 -262h-130zM92 670q0 308 156 495t412 187q231 0 384 -125.5t168 -326.5h-108q-7 162 -127 256t-317 94q-218 0 -339 -152t-121 -428q0 -277 121 -430.5t339 -153.5q194 0 314 94.5t130 257.5h108q-21 -206 -172 -330
t-380 -124q-255 0 -411.5 188.5t-156.5 497.5z" />
    <glyph glyph-name="ccircumflex" unicode="&#x109;" horiz-adv-x="1098" 
d="M494 1474h108l332 -328h-128l-256 262l-258 -262h-130zM92 516q0 238 128.5 383t337.5 145q187 0 311.5 -108t138.5 -282h-108q-6 132 -99 210t-243 78q-171 0 -264.5 -111.5t-93.5 -314.5q0 -204 94 -317t264 -113q149 0 242 73t100 197h108q-16 -169 -139 -270.5
t-311 -101.5q-209 0 -337.5 146t-128.5 386z" />
    <glyph glyph-name="Cdotaccent" unicode="&#x10a;" horiz-adv-x="1304" 
d="M592 1578h130v-144h-130v144zM92 670q0 308 156 495t412 187q231 0 384 -125.5t168 -326.5h-108q-7 162 -127 256t-317 94q-218 0 -339 -152t-121 -428q0 -277 121 -430.5t339 -153.5q194 0 314 94.5t130 257.5h108q-21 -206 -172 -330t-380 -124q-255 0 -411.5 188.5
t-156.5 497.5z" />
    <glyph glyph-name="cdotaccent" unicode="&#x10b;" horiz-adv-x="1098" 
d="M492 1290h130v-144h-130v144zM92 516q0 238 128.5 383t337.5 145q187 0 311.5 -108t138.5 -282h-108q-6 132 -99 210t-243 78q-171 0 -264.5 -111.5t-93.5 -314.5q0 -204 94 -317t264 -113q149 0 242 73t100 197h108q-16 -169 -139 -270.5t-311 -101.5q-209 0 -337.5 146
t-128.5 386z" />
    <glyph glyph-name="Ccaron" unicode="&#x10c;" horiz-adv-x="1304" 
d="M702 1434h-108l-332 328h130l256 -262l258 262h128zM92 670q0 308 156 495t412 187q231 0 384 -125.5t168 -326.5h-108q-7 162 -127 256t-317 94q-218 0 -339 -152t-121 -428q0 -277 121 -430.5t339 -153.5q194 0 314 94.5t130 257.5h108q-21 -206 -172 -330t-380 -124
q-255 0 -411.5 188.5t-156.5 497.5z" />
    <glyph glyph-name="ccaron" unicode="&#x10d;" horiz-adv-x="1098" 
d="M602 1146h-108l-332 328h130l256 -262l258 262h128zM92 516q0 238 128.5 383t337.5 145q187 0 311.5 -108t138.5 -282h-108q-6 132 -99 210t-243 78q-171 0 -264.5 -111.5t-93.5 -314.5q0 -204 94 -317t264 -113q149 0 242 73t100 197h108q-16 -169 -139 -270.5
t-311 -101.5q-209 0 -337.5 146t-128.5 386z" />
    <glyph glyph-name="Dcaron" unicode="&#x10e;" horiz-adv-x="1246" 
d="M620 1434h-108l-332 328h130l256 -262l258 262h128zM588 1332q255 0 411.5 -190t156.5 -500q0 -289 -145.5 -465.5t-382.5 -176.5h-516v1332h476zM216 1232v-1134h392q207 0 322.5 143t115.5 401q0 281 -125 435.5t-353 154.5h-352z" />
    <glyph glyph-name="dcaron" unicode="&#x10f;" horiz-adv-x="1150" 
d="M1018 1434v-1434h-102v208q-56 -107 -150.5 -165.5t-215.5 -58.5q-206 0 -332 146t-126 386q0 238 126 383t332 145q122 0 216 -58t150 -164v612h102zM1188 1398h106l-68 -374h-96zM200 516q0 -204 94 -317t264 -113q171 0 264.5 113t93.5 317q0 203 -93.5 314.5
t-264.5 111.5q-170 0 -264 -112t-94 -314z" />
    <glyph glyph-name="Dcroat" unicode="&#x110;" horiz-adv-x="1430" 
d="M62 696h234v636h476q255 0 411.5 -190t156.5 -500q0 -289 -144.5 -465.5t-381.5 -176.5h-518v598h-234v98zM400 1232v-536h424v-98h-424v-500h392q207 0 322.5 143t115.5 401q0 281 -125 435.5t-353 154.5h-352z" />
    <glyph glyph-name="dcroat" unicode="&#x111;" horiz-adv-x="1232" 
d="M512 1290h404v144h102v-144h174v-94h-174v-1196h-102v208q-56 -107 -150.5 -165.5t-215.5 -58.5q-206 0 -332 146t-126 386q0 238 126 383t332 145q122 0 216 -58t150 -164v374h-404v94zM200 516q0 -204 94 -317t264 -113q171 0 264.5 113t93.5 317q0 203 -93.5 314.5
t-264.5 111.5q-170 0 -264 -112t-94 -314z" />
    <glyph glyph-name="Emacron" unicode="&#x112;" horiz-adv-x="1084" 
d="M252 1570h614v-96h-614v96zM994 1332v-100h-778v-500h720v-100h-720v-534h778v-98h-882v1332h882z" />
    <glyph glyph-name="emacron" unicode="&#x113;" horiz-adv-x="1112" 
d="M236 1282h614v-96h-614v96zM92 516q0 244 126.5 386t341.5 142q201 0 330.5 -141t129.5 -359v-60h-820q7 -195 102.5 -296.5t269.5 -101.5q137 0 222 62.5t106 169.5h108q-35 -162 -144 -248t-292 -86q-221 0 -350.5 143t-129.5 389zM560 942q-162 0 -252.5 -91.5
t-105.5 -268.5h708q-13 165 -108.5 262.5t-241.5 97.5z" />
    <glyph glyph-name="Ebreve" unicode="&#x114;" horiz-adv-x="1084" 
d="M884 1720q-11 -131 -96 -208.5t-224 -77.5q-141 0 -227 77.5t-97 208.5h104q22 -200 220 -200q194 0 216 200h104zM994 1332v-100h-778v-500h720v-100h-720v-534h778v-98h-882v1332h882z" />
    <glyph glyph-name="ebreve" unicode="&#x115;" horiz-adv-x="1112" 
d="M868 1432q-11 -131 -96 -208.5t-224 -77.5q-141 0 -227 77.5t-97 208.5h104q22 -200 220 -200q194 0 216 200h104zM92 516q0 244 126.5 386t341.5 142q201 0 330.5 -141t129.5 -359v-60h-820q7 -195 102.5 -296.5t269.5 -101.5q137 0 222 62.5t106 169.5h108
q-35 -162 -144 -248t-292 -86q-221 0 -350.5 143t-129.5 389zM560 942q-162 0 -252.5 -91.5t-105.5 -268.5h708q-13 165 -108.5 262.5t-241.5 97.5z" />
    <glyph glyph-name="Edotaccent" unicode="&#x116;" horiz-adv-x="1084" 
d="M504 1578h130v-144h-130v144zM994 1332v-100h-778v-500h720v-100h-720v-534h778v-98h-882v1332h882z" />
    <glyph glyph-name="edotaccent" unicode="&#x117;" horiz-adv-x="1112" 
d="M488 1290h130v-144h-130v144zM92 516q0 244 126.5 386t341.5 142q201 0 330.5 -141t129.5 -359v-60h-820q7 -195 102.5 -296.5t269.5 -101.5q137 0 222 62.5t106 169.5h108q-35 -162 -144 -248t-292 -86q-221 0 -350.5 143t-129.5 389zM560 942q-162 0 -252.5 -91.5
t-105.5 -268.5h708q-13 165 -108.5 262.5t-241.5 97.5z" />
    <glyph glyph-name="Eogonek" unicode="&#x118;" horiz-adv-x="1084" 
d="M952 0q-123 -92 -165.5 -161.5t-42.5 -158.5q0 -142 168 -142h126v-104h-142q-119 0 -189.5 65.5t-70.5 176.5q0 203 218 324h-742v1332h882v-100h-778v-500h720v-100h-720v-534h778v-98h-42z" />
    <glyph glyph-name="eogonek" unicode="&#x119;" horiz-adv-x="1112" 
d="M92 516q0 244 126.5 386t341.5 142q201 0 330.5 -141t129.5 -359v-60h-820q7 -195 102.5 -296.5t269.5 -101.5q137 0 222 62.5t106 169.5h108q-40 -187 -176 -270q-102 -82 -138 -146.5t-36 -147.5q0 -142 168 -142h126v-104h-142q-119 0 -189.5 65.5t-70.5 176.5
q0 138 100 238q-48 -4 -78 -4q-221 0 -350.5 143t-129.5 389zM560 942q-162 0 -252.5 -91.5t-105.5 -268.5h708q-13 165 -108.5 262.5t-241.5 97.5z" />
    <glyph glyph-name="Ecaron" unicode="&#x11a;" horiz-adv-x="1084" 
d="M614 1434h-108l-332 328h130l256 -262l258 262h128zM994 1332v-100h-778v-500h720v-100h-720v-534h778v-98h-882v1332h882z" />
    <glyph glyph-name="ecaron" unicode="&#x11b;" horiz-adv-x="1112" 
d="M598 1146h-108l-332 328h130l256 -262l258 262h128zM92 516q0 244 126.5 386t341.5 142q201 0 330.5 -141t129.5 -359v-60h-820q7 -195 102.5 -296.5t269.5 -101.5q137 0 222 62.5t106 169.5h108q-35 -162 -144 -248t-292 -86q-221 0 -350.5 143t-129.5 389zM560 942
q-162 0 -252.5 -91.5t-105.5 -268.5h708q-13 165 -108.5 262.5t-241.5 97.5z" />
    <glyph glyph-name="Gcircumflex" unicode="&#x11c;" horiz-adv-x="1324" 
d="M594 1762h108l332 -328h-128l-256 262l-258 -262h-130zM92 670q0 308 160 495t424 187q225 0 373 -125.5t163 -326.5h-108q-7 162 -123 256t-305 94q-225 0 -350.5 -152t-125.5 -428q0 -277 121 -430.5t339 -153.5q181 0 294 134t128 362h-426v98h556v-680h-86l-8 334
q-62 -162 -183 -256t-275 -94q-255 0 -411.5 188.5t-156.5 497.5z" />
    <glyph glyph-name="gcircumflex" unicode="&#x11d;" horiz-adv-x="1130" 
d="M484 1474h108l332 -328h-128l-256 262l-258 -262h-130zM1018 1024v-1046q0 -168 -120 -271t-318 -103q-192 0 -318.5 88t-149.5 234h110q14 -102 108 -160t250 -58q159 0 247.5 73.5t88.5 206.5v244q-56 -104 -150.5 -161t-215.5 -57q-206 0 -332 142t-126 374
q0 231 126 372.5t332 141.5q122 0 216 -56.5t150 -159.5v196h102zM200 530q0 -196 94 -305t264 -109q171 0 264.5 108.5t93.5 305.5q0 195 -93.5 303.5t-264.5 108.5q-169 0 -263.5 -108.5t-94.5 -303.5z" />
    <glyph glyph-name="Gbreve" unicode="&#x11e;" horiz-adv-x="1324" 
d="M972 1720q-11 -131 -96 -208.5t-224 -77.5q-141 0 -227 77.5t-97 208.5h104q22 -200 220 -200q194 0 216 200h104zM92 670q0 308 160 495t424 187q225 0 373 -125.5t163 -326.5h-108q-7 162 -123 256t-305 94q-225 0 -350.5 -152t-125.5 -428q0 -277 121 -430.5
t339 -153.5q181 0 294 134t128 362h-426v98h556v-680h-86l-8 334q-62 -162 -183 -256t-275 -94q-255 0 -411.5 188.5t-156.5 497.5z" />
    <glyph glyph-name="gbreve" unicode="&#x11f;" horiz-adv-x="1130" 
d="M862 1432q-11 -131 -96 -208.5t-224 -77.5q-141 0 -227 77.5t-97 208.5h104q22 -200 220 -200q194 0 216 200h104zM1018 1024v-1046q0 -168 -120 -271t-318 -103q-192 0 -318.5 88t-149.5 234h110q14 -102 108 -160t250 -58q159 0 247.5 73.5t88.5 206.5v244
q-56 -104 -150.5 -161t-215.5 -57q-206 0 -332 142t-126 374q0 231 126 372.5t332 141.5q122 0 216 -56.5t150 -159.5v196h102zM200 530q0 -196 94 -305t264 -109q171 0 264.5 108.5t93.5 305.5q0 195 -93.5 303.5t-264.5 108.5q-169 0 -263.5 -108.5t-94.5 -303.5z" />
    <glyph glyph-name="Gdotaccent" unicode="&#x120;" horiz-adv-x="1324" 
d="M592 1578h130v-144h-130v144zM92 670q0 308 160 495t424 187q225 0 373 -125.5t163 -326.5h-108q-7 162 -123 256t-305 94q-225 0 -350.5 -152t-125.5 -428q0 -277 121 -430.5t339 -153.5q181 0 294 134t128 362h-426v98h556v-680h-86l-8 334q-62 -162 -183 -256
t-275 -94q-255 0 -411.5 188.5t-156.5 497.5z" />
    <glyph glyph-name="gdotaccent" unicode="&#x121;" horiz-adv-x="1130" 
d="M482 1290h130v-144h-130v144zM1018 1024v-1046q0 -168 -120 -271t-318 -103q-192 0 -318.5 88t-149.5 234h110q14 -102 108 -160t250 -58q159 0 247.5 73.5t88.5 206.5v244q-56 -104 -150.5 -161t-215.5 -57q-206 0 -332 142t-126 374q0 231 126 372.5t332 141.5
q122 0 216 -56.5t150 -159.5v196h102zM200 530q0 -196 94 -305t264 -109q171 0 264.5 108.5t93.5 305.5q0 195 -93.5 303.5t-264.5 108.5q-169 0 -263.5 -108.5t-94.5 -303.5z" />
    <glyph glyph-name="uni0122" unicode="&#x122;" horiz-adv-x="1324" 
d="M92 670q0 308 160 495t424 187q225 0 373 -125.5t163 -326.5h-108q-7 162 -123 256t-305 94q-225 0 -350.5 -152t-125.5 -428q0 -277 121 -430.5t339 -153.5q181 0 294 134t128 362h-426v98h556v-680h-86l-8 334q-62 -162 -183 -256t-275 -94q-255 0 -411.5 188.5
t-156.5 497.5zM592 -78h132v-174q0 -105 -42.5 -152.5t-101.5 -47.5h-24v70h22q46 0 70 30t24 112v18h-80v144z" />
    <glyph glyph-name="uni0123" unicode="&#x123;" horiz-adv-x="1130" 
d="M616 1146h-132v174q0 105 42.5 152.5t101.5 47.5h24v-68h-22q-45 0 -69.5 -31t-24.5 -113v-18h80v-144zM1018 1024v-1046q0 -168 -120 -271t-318 -103q-192 0 -318.5 88t-149.5 234h110q14 -102 108 -160t250 -58q159 0 247.5 73.5t88.5 206.5v244q-56 -104 -150.5 -161
t-215.5 -57q-206 0 -332 142t-126 374q0 231 126 372.5t332 141.5q122 0 216 -56.5t150 -159.5v196h102zM200 530q0 -196 94 -305t264 -109q171 0 264.5 108.5t93.5 305.5q0 195 -93.5 303.5t-264.5 108.5q-169 0 -263.5 -108.5t-94.5 -303.5z" />
    <glyph glyph-name="Hcircumflex" unicode="&#x124;" horiz-adv-x="1248" 
d="M574 1762h108l332 -328h-128l-256 262l-258 -262h-130zM112 1332h104v-594h818v594h102v-1332h-102v638h-818v-638h-104v1332z" />
    <glyph glyph-name="hcircumflex" unicode="&#x125;" horiz-adv-x="1044" 
d="M464 1874h108l332 -328h-128l-256 262l-258 -262h-130zM830 634q0 157 -79 232.5t-221 75.5q-135 0 -224.5 -83t-89.5 -211v-648h-104v1434h104v-570q54 85 145.5 132.5t188.5 47.5q171 0 276.5 -102t105.5 -286v-656h-102v634z" />
    <glyph glyph-name="Hbar" unicode="&#x126;" horiz-adv-x="1330" 
d="M40 1082h114v250h102v-250h820v250h102v-250h112v-98h-112v-984h-102v638h-820v-638h-102v984h-114v98zM256 738h820v246h-820v-246z" />
    <glyph glyph-name="hbar" unicode="&#x127;" horiz-adv-x="1104" 
d="M890 634q0 157 -78 232.5t-220 75.5q-135 0 -225.5 -83t-90.5 -211v-648h-102v1196h-174v94h174v144h102v-144h404v-94h-404v-334q54 85 146 133.5t190 48.5q171 0 276.5 -102t105.5 -286v-656h-104v634z" />
    <glyph glyph-name="Itilde" unicode="&#x128;" 
d="M6 1720q38 0 73.5 -19t53 -37t47.5 -54q27 -34 39 -48t36.5 -30t48.5 -16q47 0 75.5 52.5t28.5 139.5h88q0 -129 -52.5 -205.5t-139.5 -76.5q-30 0 -55.5 7.5t-48.5 24t-37 30t-35 36.5q-9 11 -30 36.5t-31 36.5t-28.5 22t-36.5 11q-48 0 -76 -53.5t-28 -142.5h-92
q0 133 53.5 209.5t146.5 76.5zM112 1332h104v-1332h-104v1332z" />
    <glyph glyph-name="itilde" unicode="&#x129;" 
d="M4 1432q38 0 73.5 -19t53 -37t47.5 -54q27 -34 39 -48t36.5 -30t48.5 -16q47 0 75.5 52.5t28.5 139.5h88q0 -129 -52.5 -205.5t-139.5 -76.5q-30 0 -55.5 7.5t-48.5 24t-37 30t-35 36.5q-9 11 -30 36.5t-31 36.5t-28.5 22t-36.5 11q-48 0 -76 -53.5t-28 -142.5h-92
q0 133 53.5 209.5t146.5 76.5zM112 1024h104v-1024h-104v1024z" />
    <glyph glyph-name="Imacron" unicode="&#x12a;" 
d="M-154 1570h614v-96h-614v96zM112 1332h104v-1332h-104v1332z" />
    <glyph glyph-name="imacron" unicode="&#x12b;" 
d="M-156 1282h614v-96h-614v96zM112 1024h104v-1024h-104v1024z" />
    <glyph glyph-name="Ibreve" unicode="&#x12c;" 
d="M478 1720q-11 -131 -96 -208.5t-224 -77.5q-141 0 -227 77.5t-97 208.5h104q22 -200 220 -200q194 0 216 200h104zM112 1332h104v-1332h-104v1332z" />
    <glyph glyph-name="ibreve" unicode="&#x12d;" 
d="M476 1432q-11 -131 -96 -208.5t-224 -77.5q-141 0 -227 77.5t-97 208.5h104q22 -200 220 -200q194 0 216 200h104zM112 1024h104v-1024h-104v1024z" />
    <glyph glyph-name="Iogonek" unicode="&#x12e;" 
d="M216 0q-123 -92 -165.5 -161.5t-42.5 -158.5q0 -142 168 -142h126v-104h-142q-119 0 -189.5 65.5t-70.5 176.5q0 203 218 324h-6v1332h104v-1332z" />
    <glyph glyph-name="iogonek" unicode="&#x12f;" 
d="M98 1316h132v-142h-132v142zM216 0q-123 -92 -165.5 -161.5t-42.5 -158.5q0 -142 168 -142h126v-104h-142q-119 0 -189.5 65.5t-70.5 176.5q0 203 218 324h-6v1024h104v-1024z" />
    <glyph glyph-name="Idotaccent" unicode="&#x130;" 
d="M98 1578h130v-144h-130v144zM112 1332h104v-1332h-104v1332z" />
    <glyph glyph-name="dotlessi" unicode="&#x131;" 
d="M112 1024h104v-1024h-104v1024z" />
    <glyph glyph-name="IJ" unicode="&#x132;" horiz-adv-x="966" 
d="M382 98h124q56 0 98 14t77 48t53 99t18 159v914h102v-926q0 -90 -20.5 -161t-53.5 -116t-78.5 -75t-93.5 -42t-100 -12h-126v98zM112 1332h104v-1332h-104v1332z" />
    <glyph glyph-name="ij" unicode="&#x133;" horiz-adv-x="654" 
d="M426 1316h132v-142h-132v142zM98 1316h132v-142h-132v142zM254 -218h64q58 0 90 34t32 122v1086h104v-1098q0 -66 -19.5 -115t-53 -75.5t-71.5 -39t-80 -12.5h-66v98zM112 1024h104v-1024h-104v1024z" />
    <glyph glyph-name="Jcircumflex" unicode="&#x134;" horiz-adv-x="638" 
d="M412 1762h108l332 -328h-128l-256 262l-258 -262h-130zM54 98h124q56 0 98 14t77 48t53 99t18 159v914h102v-926q0 -90 -20.5 -161t-53.5 -116t-78.5 -75t-93.5 -42t-100 -12h-126v98z" />
    <glyph glyph-name="jcircumflex" unicode="&#x135;" 
d="M98 1474h108l332 -328h-128l-256 262l-258 -262h-130zM-74 -218h64q58 0 90 34t32 122v1086h104v-1098q0 -66 -19.5 -115t-53 -75.5t-71.5 -39t-80 -12.5h-66v98z" />
    <glyph glyph-name="uni0136" unicode="&#x136;" horiz-adv-x="1062" 
d="M112 1332h104v-720l662 720h138l-604 -642l620 -690h-132l-560 616l-124 -138v-478h-104v1332zM480 -78h132v-174q0 -105 -42.5 -152.5t-101.5 -47.5h-24v70h22q46 0 70 30t24 112v18h-80v144z" />
    <glyph glyph-name="uni0137" unicode="&#x137;" horiz-adv-x="956" 
d="M736 1024h132l-456 -510l472 -514h-132l-412 440l-124 -140v-300h-104v1434h104v-996zM432 -78h132v-174q0 -105 -42.5 -152.5t-101.5 -47.5h-24v70h22q46 0 70 30t24 112v18h-80v144z" />
    <glyph glyph-name="kgreenlandic" unicode="&#x138;" horiz-adv-x="956" 
d="M112 1024h104v-586l520 586h132l-456 -510l472 -514h-132l-412 440l-124 -140v-300h-104v1024z" />
    <glyph glyph-name="Lacute" unicode="&#x139;" horiz-adv-x="962" 
d="M424 1742l-270 -308h-88l228 308h130zM890 0h-778v1332h104v-1234h674v-98z" />
    <glyph glyph-name="lacute" unicode="&#x13a;" 
d="M418 1854l-270 -308h-88l228 308h130zM112 1434h104v-1434h-104v1434z" />
    <glyph glyph-name="uni013B" unicode="&#x13b;" horiz-adv-x="962" 
d="M890 0h-778v1332h104v-1234h674v-98zM440 -78h132v-174q0 -105 -42.5 -152.5t-101.5 -47.5h-24v70h22q46 0 70 30t24 112v18h-80v144z" />
    <glyph glyph-name="uni013C" unicode="&#x13c;" 
d="M112 1434h104v-1434h-104v1434zM98 -78h132v-174q0 -105 -42.5 -152.5t-101.5 -47.5h-24v70h22q46 0 70 30t24 112v18h-80v144z" />
    <glyph glyph-name="Lcaron" unicode="&#x13d;" horiz-adv-x="962" 
d="M890 0h-778v1332h104v-1234h674v-98zM472 1330h106l-68 -374h-96z" />
    <glyph glyph-name="lcaron" unicode="&#x13e;" horiz-adv-x="366" 
d="M112 1434h104v-1434h-104v1434zM386 1398h106l-68 -374h-96z" />
    <glyph glyph-name="Ldot" unicode="&#x13f;" horiz-adv-x="962" 
d="M890 0h-778v1332h104v-1234h674v-98zM518 746h132v-142h-132v142z" />
    <glyph glyph-name="ldot" unicode="&#x140;" horiz-adv-x="654" 
d="M112 1434h104v-1434h-104v1434zM426 724h132v-142h-132v142z" />
    <glyph glyph-name="Lslash" unicode="&#x141;" horiz-adv-x="1024" 
d="M0 678l174 36v618h102v-598l354 74v-98l-354 -74v-538h676v-98h-778v616l-174 -36v98z" />
    <glyph glyph-name="lslash" unicode="&#x142;" horiz-adv-x="466" 
d="M0 718l190 36v680h102v-660l174 34v-98l-174 -34v-676h-102v656l-190 -36v98z" />
    <glyph glyph-name="Nacute" unicode="&#x143;" horiz-adv-x="1248" 
d="M904 1742l-270 -308h-88l228 308h130zM1034 1332h102v-1332h-116l-804 1210v-1210h-104v1332h144l778 -1172v1172z" />
    <glyph glyph-name="nacute" unicode="&#x144;" horiz-adv-x="1044" 
d="M788 1454l-270 -308h-88l228 308h130zM112 1024h104v-160q54 85 145.5 132.5t188.5 47.5q171 0 276.5 -102t105.5 -286v-656h-102v634q0 157 -79 232.5t-221 75.5q-135 0 -224.5 -83t-89.5 -211v-648h-104v1024z" />
    <glyph glyph-name="uni0145" unicode="&#x145;" horiz-adv-x="1248" 
d="M1034 1332h102v-1332h-116l-804 1210v-1210h-104v1332h144l778 -1172v1172zM588 -78h132v-174q0 -105 -42.5 -152.5t-101.5 -47.5h-24v70h22q46 0 70 30t24 112v18h-80v144z" />
    <glyph glyph-name="uni0146" unicode="&#x146;" horiz-adv-x="1044" 
d="M112 1024h104v-160q54 85 145.5 132.5t188.5 47.5q171 0 276.5 -102t105.5 -286v-656h-102v634q0 157 -79 232.5t-221 75.5q-135 0 -224.5 -83t-89.5 -211v-648h-104v1024zM472 -78h132v-174q0 -105 -42.5 -152.5t-101.5 -47.5h-24v70h22q46 0 70 30t24 112v18h-80v144z
" />
    <glyph glyph-name="Ncaron" unicode="&#x147;" horiz-adv-x="1248" 
d="M690 1434h-108l-332 328h130l256 -262l258 262h128zM1034 1332h102v-1332h-116l-804 1210v-1210h-104v1332h144l778 -1172v1172z" />
    <glyph glyph-name="ncaron" unicode="&#x148;" horiz-adv-x="1044" 
d="M574 1146h-108l-332 328h130l256 -262l258 262h128zM112 1024h104v-160q54 85 145.5 132.5t188.5 47.5q171 0 276.5 -102t105.5 -286v-656h-102v634q0 157 -79 232.5t-221 75.5q-135 0 -224.5 -83t-89.5 -211v-648h-104v1024z" />
    <glyph glyph-name="napostrophe" unicode="&#x149;" horiz-adv-x="1258" 
d="M124 1398h132v-174q0 -105 -42.5 -152.5t-101.5 -47.5h-24v70h22q46 0 70 30t24 112v20h-80v142zM328 1024h104v-160q54 85 145.5 132.5t188.5 47.5q171 0 276.5 -102t105.5 -286v-656h-102v634q0 157 -79 232.5t-221 75.5q-135 0 -224.5 -83t-89.5 -211v-648h-104v1024z
" />
    <glyph glyph-name="Eng" unicode="&#x14a;" horiz-adv-x="1248" 
d="M1034 1332h102v-1406q0 -133 -69.5 -207.5t-194.5 -74.5h-106v98h104q86 0 125 46.5t39 149.5v62l-818 1210v-1210h-104v1332h144l778 -1146v1146z" />
    <glyph glyph-name="eng" unicode="&#x14b;" horiz-adv-x="1044" 
d="M112 1024h104v-162q53 84 141.5 133t192.5 49q176 0 279 -104t103 -284v-730q0 -133 -69.5 -207.5t-194.5 -74.5h-106v98h104q86 0 125 46.5t39 149.5v696q0 151 -76.5 229.5t-223.5 78.5q-136 0 -225 -83t-89 -211v-648h-104v1024z" />
    <glyph glyph-name="Omacron" unicode="&#x14c;" horiz-adv-x="1360" 
d="M364 1570h614v-96h-614v96zM92 650q0 316 162 509t428 193q264 0 426 -193t162 -509q0 -300 -162 -483t-426 -183q-266 0 -428 183t-162 483zM1162 650q0 284 -126 442t-354 158q-229 0 -355.5 -158t-126.5 -442q0 -267 126.5 -415.5t355.5 -148.5q228 0 354 148.5
t126 415.5z" />
    <glyph glyph-name="omacron" unicode="&#x14d;" horiz-adv-x="1116" 
d="M238 1282h614v-96h-614v96zM92 516q0 238 129 383t339 145q209 0 336.5 -145t127.5 -383q0 -240 -127.5 -386t-336.5 -146q-210 0 -339 146t-129 386zM916 516q0 203 -93.5 314.5t-262.5 111.5q-171 0 -265.5 -112t-94.5 -314q0 -204 94.5 -317t265.5 -113
q169 0 262.5 113t93.5 317z" />
    <glyph glyph-name="Obreve" unicode="&#x14e;" horiz-adv-x="1360" 
d="M996 1720q-11 -131 -96 -208.5t-224 -77.5q-141 0 -227 77.5t-97 208.5h104q22 -200 220 -200q194 0 216 200h104zM92 650q0 316 162 509t428 193q264 0 426 -193t162 -509q0 -300 -162 -483t-426 -183q-266 0 -428 183t-162 483zM1162 650q0 284 -126 442t-354 158
q-229 0 -355.5 -158t-126.5 -442q0 -267 126.5 -415.5t355.5 -148.5q228 0 354 148.5t126 415.5z" />
    <glyph glyph-name="obreve" unicode="&#x14f;" horiz-adv-x="1116" 
d="M870 1432q-11 -131 -96 -208.5t-224 -77.5q-141 0 -227 77.5t-97 208.5h104q22 -200 220 -200q194 0 216 200h104zM92 516q0 238 129 383t339 145q209 0 336.5 -145t127.5 -383q0 -240 -127.5 -386t-336.5 -146q-210 0 -339 146t-129 386zM916 516q0 203 -93.5 314.5
t-262.5 111.5q-171 0 -265.5 -112t-94.5 -314q0 -204 94.5 -317t265.5 -113q169 0 262.5 113t93.5 317z" />
    <glyph glyph-name="Ohungarumlaut" unicode="&#x150;" horiz-adv-x="1360" 
d="M1104 1742l-272 -308h-88l230 308h130zM816 1742l-270 -308h-88l230 308h128zM92 650q0 316 162 509t428 193q264 0 426 -193t162 -509q0 -300 -162 -483t-426 -183q-266 0 -428 183t-162 483zM1162 650q0 284 -126 442t-354 158q-229 0 -355.5 -158t-126.5 -442
q0 -267 126.5 -415.5t355.5 -148.5q228 0 354 148.5t126 415.5z" />
    <glyph glyph-name="ohungarumlaut" unicode="&#x151;" horiz-adv-x="1116" 
d="M978 1454l-272 -308h-88l230 308h130zM690 1454l-270 -308h-88l230 308h128zM92 516q0 238 129 383t339 145q209 0 336.5 -145t127.5 -383q0 -240 -127.5 -386t-336.5 -146q-210 0 -339 146t-129 386zM916 516q0 203 -93.5 314.5t-262.5 111.5q-171 0 -265.5 -112
t-94.5 -314q0 -204 94.5 -317t265.5 -113q169 0 262.5 113t93.5 317z" />
    <glyph glyph-name="OE" unicode="&#x152;" horiz-adv-x="2134" 
d="M92 650q0 316 156.5 509t413.5 193q171 0 301.5 -91t198.5 -253v324h880v-100h-778v-500h720v-100h-720v-534h778v-98h-880v310q-68 -154 -198.5 -240t-301.5 -86q-257 0 -413.5 183t-156.5 483zM1162 650q0 284 -126 442t-354 158q-229 0 -355.5 -158t-126.5 -442
q0 -267 126.5 -415.5t355.5 -148.5q228 0 354 148.5t126 415.5z" />
    <glyph glyph-name="oe" unicode="&#x153;" horiz-adv-x="1938" 
d="M92 516q0 238 129 383t339 145q140 0 246 -67.5t162 -188.5q56 122 163 189t251 67q201 0 331.5 -141t130.5 -359v-60h-820q8 -195 102 -296.5t268 -101.5q137 0 222 62.5t106 169.5h108q-35 -162 -144 -248t-292 -86q-149 0 -258.5 68t-165.5 192
q-58 -123 -164.5 -191.5t-245.5 -68.5q-210 0 -339 146t-129 386zM1382 942q-162 0 -252 -91.5t-104 -268.5h706q-13 165 -108.5 262.5t-241.5 97.5zM916 516q0 203 -93.5 314.5t-262.5 111.5q-171 0 -265.5 -112t-94.5 -314q0 -204 94.5 -317t265.5 -113q169 0 262.5 113
t93.5 317z" />
    <glyph glyph-name="Racute" unicode="&#x154;" horiz-adv-x="1144" 
d="M834 1742l-270 -308h-88l228 308h130zM558 572h-342v-572h-104v1332h538q182 0 292 -106.5t110 -281.5q0 -130 -74 -220t-202 -120q115 -18 169 -84.5t71 -205.5l36 -314h-102l-34 300q-17 144 -100.5 208t-257.5 64zM638 1232h-422v-562h422q144 0 225 72t81 202
q0 136 -81 212t-225 76z" />
    <glyph glyph-name="racute" unicode="&#x155;" horiz-adv-x="622" 
d="M584 1454l-270 -308h-88l228 308h130zM112 1024h104v-148q50 79 129.5 123.5t164.5 44.5h40v-110h-38q-126 0 -211 -80.5t-85 -205.5v-648h-104v1024z" />
    <glyph glyph-name="uni0156" unicode="&#x156;" horiz-adv-x="1144" 
d="M558 572h-342v-572h-104v1332h538q182 0 292 -106.5t110 -281.5q0 -130 -74 -220t-202 -120q115 -18 169 -84.5t71 -205.5l36 -314h-102l-34 300q-17 144 -100.5 208t-257.5 64zM638 1232h-422v-562h422q144 0 225 72t81 202q0 136 -81 212t-225 76zM536 -78h132v-174
q0 -105 -42.5 -152.5t-101.5 -47.5h-24v70h22q46 0 70 30t24 112v18h-80v144z" />
    <glyph glyph-name="uni0157" unicode="&#x157;" horiz-adv-x="622" 
d="M112 1024h104v-148q50 79 129.5 123.5t164.5 44.5h40v-110h-38q-126 0 -211 -80.5t-85 -205.5v-648h-104v1024zM100 -78h132v-174q0 -105 -42.5 -152.5t-101.5 -47.5h-24v70h22q46 0 70 30t24 112v18h-80v144z" />
    <glyph glyph-name="Rcaron" unicode="&#x158;" horiz-adv-x="1144" 
d="M620 1434h-108l-332 328h130l256 -262l258 262h128zM558 572h-342v-572h-104v1332h538q182 0 292 -106.5t110 -281.5q0 -130 -74 -220t-202 -120q115 -18 169 -84.5t71 -205.5l36 -314h-102l-34 300q-17 144 -100.5 208t-257.5 64zM638 1232h-422v-562h422q144 0 225 72
t81 202q0 136 -81 212t-225 76z" />
    <glyph glyph-name="rcaron" unicode="&#x159;" horiz-adv-x="622" 
d="M370 1146h-108l-332 328h130l256 -262l258 262h128zM112 1024h104v-148q50 79 129.5 123.5t164.5 44.5h40v-110h-38q-126 0 -211 -80.5t-85 -205.5v-648h-104v1024z" />
    <glyph glyph-name="Sacute" unicode="&#x15a;" horiz-adv-x="1166" 
d="M820 1742l-270 -308h-88l228 308h130zM656 606l-154 20q-195 24 -297.5 110t-102.5 232q0 176 125 279t341 103q207 0 335.5 -109t146.5 -299h-106q-24 154 -116 228t-262 74q-164 0 -263 -74.5t-99 -197.5q0 -101 76 -157.5t230 -76.5l154 -22q412 -51 412 -364
q0 -168 -126.5 -268t-335.5 -100q-227 0 -364.5 110t-157.5 296h110q25 -154 126.5 -228t287.5 -74q160 0 258 71.5t98 192.5q0 107 -79.5 171.5t-236.5 82.5z" />
    <glyph glyph-name="sacute" unicode="&#x15b;" horiz-adv-x="1002" 
d="M740 1454l-270 -308h-88l228 308h130zM574 452l-154 22q-158 20 -238 86.5t-80 191.5q0 134 103 212t281 78q172 0 278.5 -87t121.5 -239h-106q-20 116 -91.5 171t-204.5 55q-126 0 -203 -51t-77 -135q0 -80 54.5 -119t169.5 -53l154 -20q167 -21 248.5 -95t81.5 -207
q0 -127 -104 -202.5t-276 -75.5q-192 0 -307.5 88t-132.5 236h110q19 -115 101 -169.5t231 -54.5q123 0 198.5 48.5t75.5 129.5q0 163 -234 190z" />
    <glyph glyph-name="Scircumflex" unicode="&#x15c;" horiz-adv-x="1166" 
d="M498 1762h108l332 -328h-128l-256 262l-258 -262h-130zM656 606l-154 20q-195 24 -297.5 110t-102.5 232q0 176 125 279t341 103q207 0 335.5 -109t146.5 -299h-106q-24 154 -116 228t-262 74q-164 0 -263 -74.5t-99 -197.5q0 -101 76 -157.5t230 -76.5l154 -22
q412 -51 412 -364q0 -168 -126.5 -268t-335.5 -100q-227 0 -364.5 110t-157.5 296h110q25 -154 126.5 -228t287.5 -74q160 0 258 71.5t98 192.5q0 107 -79.5 171.5t-236.5 82.5z" />
    <glyph glyph-name="scircumflex" unicode="&#x15d;" horiz-adv-x="1002" 
d="M418 1474h108l332 -328h-128l-256 262l-258 -262h-130zM574 452l-154 22q-158 20 -238 86.5t-80 191.5q0 134 103 212t281 78q172 0 278.5 -87t121.5 -239h-106q-20 116 -91.5 171t-204.5 55q-126 0 -203 -51t-77 -135q0 -80 54.5 -119t169.5 -53l154 -20
q167 -21 248.5 -95t81.5 -207q0 -127 -104 -202.5t-276 -75.5q-192 0 -307.5 88t-132.5 236h110q19 -115 101 -169.5t231 -54.5q123 0 198.5 48.5t75.5 129.5q0 163 -234 190z" />
    <glyph glyph-name="Scedilla" unicode="&#x15e;" horiz-adv-x="1166" 
d="M656 606l-154 20q-195 24 -297.5 110t-102.5 232q0 176 125 279t341 103q207 0 335.5 -109t146.5 -299h-106q-24 154 -116 228t-262 74q-164 0 -263 -74.5t-99 -197.5q0 -101 76 -157.5t230 -76.5l154 -22q412 -51 412 -364q0 -159 -114.5 -258t-305.5 -108l-14 -98h32
q93 0 150.5 -57.5t57.5 -150.5q0 -103 -70.5 -163.5t-189.5 -60.5h-182v102h166q82 0 125 32t43 94q0 48 -31 74t-85 26h-68l-50 62l22 140q-204 12 -328 120.5t-142 283.5h110q25 -154 126.5 -228t287.5 -74q160 0 258 71.5t98 192.5q0 107 -79.5 171.5t-236.5 82.5z" />
    <glyph glyph-name="scedilla" unicode="&#x15f;" horiz-adv-x="1002" 
d="M574 452l-154 22q-158 20 -238 86.5t-80 191.5q0 134 103 212t281 78q172 0 278.5 -87t121.5 -239h-106q-20 116 -91.5 171t-204.5 55q-126 0 -203 -51t-77 -135q0 -80 54.5 -119t169.5 -53l154 -20q167 -21 248.5 -95t81.5 -207q0 -118 -91 -192.5t-243 -83.5l-14 -98
h32q93 0 150.5 -57.5t57.5 -150.5q0 -103 -70.5 -163.5t-189.5 -60.5h-182v102h166q82 0 125 32t43 94q0 48 -31 74t-85 26h-68l-50 62l22 140q-171 10 -274 96.5t-118 225.5h110q19 -115 101 -169.5t231 -54.5q123 0 198.5 48.5t75.5 129.5q0 163 -234 190z" />
    <glyph glyph-name="Scaron" unicode="&#x160;" horiz-adv-x="1166" 
d="M606 1434h-108l-332 328h130l256 -262l258 262h128zM656 606l-154 20q-195 24 -297.5 110t-102.5 232q0 176 125 279t341 103q207 0 335.5 -109t146.5 -299h-106q-24 154 -116 228t-262 74q-164 0 -263 -74.5t-99 -197.5q0 -101 76 -157.5t230 -76.5l154 -22
q412 -51 412 -364q0 -168 -126.5 -268t-335.5 -100q-227 0 -364.5 110t-157.5 296h110q25 -154 126.5 -228t287.5 -74q160 0 258 71.5t98 192.5q0 107 -79.5 171.5t-236.5 82.5z" />
    <glyph glyph-name="scaron" unicode="&#x161;" horiz-adv-x="1002" 
d="M526 1146h-108l-332 328h130l256 -262l258 262h128zM574 452l-154 22q-158 20 -238 86.5t-80 191.5q0 134 103 212t281 78q172 0 278.5 -87t121.5 -239h-106q-20 116 -91.5 171t-204.5 55q-126 0 -203 -51t-77 -135q0 -80 54.5 -119t169.5 -53l154 -20q167 -21 248.5 -95
t81.5 -207q0 -127 -104 -202.5t-276 -75.5q-192 0 -307.5 88t-132.5 236h110q19 -115 101 -169.5t231 -54.5q123 0 198.5 48.5t75.5 129.5q0 163 -234 190z" />
    <glyph glyph-name="uni0162" unicode="&#x162;" horiz-adv-x="1064" 
d="M994 1332v-100h-410v-1232h-6l-16 -112h32q93 0 150.5 -57.5t57.5 -150.5q0 -103 -70.5 -163.5t-189.5 -60.5h-182v102h166q82 0 125 32t43 94q0 48 -31 74t-85 26h-68l-50 62l24 154h-2v1232h-410v100h922z" />
    <glyph glyph-name="uni0163" unicode="&#x163;" horiz-adv-x="638" 
d="M568 98v-98h-44l-16 -112h32q93 0 150.5 -57.5t57.5 -150.5q0 -103 -70.5 -163.5t-189.5 -60.5h-182v102h166q82 0 125 32t43 94q0 48 -31 74t-85 26h-68l-50 62l26 160q-72 13 -118 70.5t-46 165.5v684h-196v98h196v266h102v-266h198v-98h-198v-672q0 -88 30 -122
t84 -34h84z" />
    <glyph glyph-name="Tcaron" unicode="&#x164;" horiz-adv-x="1064" 
d="M570 1434h-108l-332 328h130l256 -262l258 262h128zM994 1332v-100h-410v-1232h-102v1232h-410v100h922z" />
    <glyph glyph-name="tcaron" unicode="&#x165;" horiz-adv-x="638" 
d="M534 1498h106l-68 -374h-96zM568 98v-98h-86q-41 0 -77 12.5t-68 39t-50.5 75.5t-18.5 115v684h-196v98h196v266h102v-266h198v-98h-198v-672q0 -88 30 -122t84 -34h84z" />
    <glyph glyph-name="Tbar" unicode="&#x166;" horiz-adv-x="1064" 
d="M154 696h328v536h-410v100h922v-100h-410v-536h332v-98h-332v-598h-102v598h-328v98z" />
    <glyph glyph-name="tbar" unicode="&#x167;" horiz-adv-x="638" 
d="M568 98v-98h-86q-41 0 -77 12.5t-68 39t-50.5 75.5t-18.5 115v274h-196v98h196v312h-196v98h196v266h102v-266h198v-98h-198v-312h198v-98h-198v-262q0 -88 30 -122t84 -34h84z" />
    <glyph glyph-name="Utilde" unicode="&#x168;" horiz-adv-x="1184" 
d="M446 1720q38 0 73.5 -19t53 -37t47.5 -54q27 -34 39 -48t36.5 -30t48.5 -16q47 0 75.5 52.5t28.5 139.5h88q0 -129 -52.5 -205.5t-139.5 -76.5q-30 0 -55.5 7.5t-48.5 24t-37 30t-35 36.5q-9 11 -30 36.5t-31 36.5t-28.5 22t-36.5 11q-48 0 -76 -53.5t-28 -142.5h-92
q0 133 53.5 209.5t146.5 76.5zM102 1332h102v-826q0 -199 102.5 -309.5t287.5 -110.5q183 0 284.5 110.5t101.5 309.5v826h104v-826q0 -235 -135.5 -378.5t-354.5 -143.5q-221 0 -356.5 143.5t-135.5 378.5v826z" />
    <glyph glyph-name="utilde" unicode="&#x169;" horiz-adv-x="1028" 
d="M370 1432q38 0 73.5 -19t53 -37t47.5 -54q27 -34 39 -48t36.5 -30t48.5 -16q47 0 75.5 52.5t28.5 139.5h88q0 -129 -52.5 -205.5t-139.5 -76.5q-30 0 -55.5 7.5t-48.5 24t-37 30t-35 36.5q-9 11 -30 36.5t-31 36.5t-28.5 22t-36.5 11q-48 0 -76 -53.5t-28 -142.5h-92
q0 133 53.5 209.5t146.5 76.5zM216 410q0 -167 76.5 -247.5t213.5 -80.5q131 0 219.5 89.5t88.5 226.5v626h102v-1024h-102v170q-55 -89 -144 -139.5t-184 -50.5q-168 0 -271 108t-103 302v634h104v-614z" />
    <glyph glyph-name="Umacron" unicode="&#x16a;" horiz-adv-x="1184" 
d="M286 1570h614v-96h-614v96zM102 1332h102v-826q0 -199 102.5 -309.5t287.5 -110.5q183 0 284.5 110.5t101.5 309.5v826h104v-826q0 -235 -135.5 -378.5t-354.5 -143.5q-221 0 -356.5 143.5t-135.5 378.5v826z" />
    <glyph glyph-name="umacron" unicode="&#x16b;" horiz-adv-x="1028" 
d="M210 1282h614v-96h-614v96zM216 410q0 -167 76.5 -247.5t213.5 -80.5q131 0 219.5 89.5t88.5 226.5v626h102v-1024h-102v170q-55 -89 -144 -139.5t-184 -50.5q-168 0 -271 108t-103 302v634h104v-614z" />
    <glyph glyph-name="Ubreve" unicode="&#x16c;" horiz-adv-x="1184" 
d="M918 1720q-11 -131 -96 -208.5t-224 -77.5q-141 0 -227 77.5t-97 208.5h104q22 -200 220 -200q194 0 216 200h104zM102 1332h102v-826q0 -199 102.5 -309.5t287.5 -110.5q183 0 284.5 110.5t101.5 309.5v826h104v-826q0 -235 -135.5 -378.5t-354.5 -143.5
q-221 0 -356.5 143.5t-135.5 378.5v826z" />
    <glyph glyph-name="ubreve" unicode="&#x16d;" horiz-adv-x="1028" 
d="M842 1432q-11 -131 -96 -208.5t-224 -77.5q-141 0 -227 77.5t-97 208.5h104q22 -200 220 -200q194 0 216 200h104zM216 410q0 -167 76.5 -247.5t213.5 -80.5q131 0 219.5 89.5t88.5 226.5v626h102v-1024h-102v170q-55 -89 -144 -139.5t-184 -50.5q-168 0 -271 108
t-103 302v634h104v-614z" />
    <glyph glyph-name="Uring" unicode="&#x16e;" horiz-adv-x="1184" 
d="M858 1686q0 -120 -71.5 -193t-188.5 -73q-118 0 -190 73t-72 193t71.5 193t188.5 73q118 0 190 -73t72 -193zM434 1686q0 -86 43 -133t121 -47q77 0 119.5 47.5t42.5 132.5q0 86 -43 133t-121 47q-77 0 -119.5 -47.5t-42.5 -132.5zM102 1332h102v-826
q0 -199 102.5 -309.5t287.5 -110.5q183 0 284.5 110.5t101.5 309.5v826h104v-826q0 -235 -135.5 -378.5t-354.5 -143.5q-221 0 -356.5 143.5t-135.5 378.5v826z" />
    <glyph glyph-name="uring" unicode="&#x16f;" horiz-adv-x="1028" 
d="M782 1398q0 -120 -71.5 -193t-188.5 -73q-118 0 -190 73t-72 193t71.5 193t188.5 73q118 0 190 -73t72 -193zM358 1398q0 -86 43 -133t121 -47q77 0 119.5 47.5t42.5 132.5q0 86 -43 133t-121 47q-77 0 -119.5 -47.5t-42.5 -132.5zM216 410q0 -167 76.5 -247.5
t213.5 -80.5q131 0 219.5 89.5t88.5 226.5v626h102v-1024h-102v170q-55 -89 -144 -139.5t-184 -50.5q-168 0 -271 108t-103 302v634h104v-614z" />
    <glyph glyph-name="Uhungarumlaut" unicode="&#x170;" horiz-adv-x="1184" 
d="M1026 1742l-272 -308h-88l230 308h130zM738 1742l-270 -308h-88l230 308h128zM102 1332h102v-826q0 -199 102.5 -309.5t287.5 -110.5q183 0 284.5 110.5t101.5 309.5v826h104v-826q0 -235 -135.5 -378.5t-354.5 -143.5q-221 0 -356.5 143.5t-135.5 378.5v826z" />
    <glyph glyph-name="uhungarumlaut" unicode="&#x171;" horiz-adv-x="1028" 
d="M950 1454l-272 -308h-88l230 308h130zM662 1454l-270 -308h-88l230 308h128zM216 410q0 -167 76.5 -247.5t213.5 -80.5q131 0 219.5 89.5t88.5 226.5v626h102v-1024h-102v170q-55 -89 -144 -139.5t-184 -50.5q-168 0 -271 108t-103 302v634h104v-614z" />
    <glyph glyph-name="Uogonek" unicode="&#x172;" horiz-adv-x="1184" 
d="M102 1332h102v-826q0 -199 102.5 -309.5t287.5 -110.5q183 0 284.5 110.5t101.5 309.5v826h104v-826q0 -220 -119.5 -361t-316.5 -159q-112 -86 -151 -153t-39 -153q0 -142 168 -142h126v-104h-142q-119 0 -189.5 65.5t-70.5 176.5q0 192 194 310q-200 17 -321 158
t-121 362v826z" />
    <glyph glyph-name="uogonek" unicode="&#x173;" horiz-adv-x="1028" 
d="M216 410q0 -167 76.5 -247.5t213.5 -80.5q131 0 219.5 89.5t88.5 226.5v626h102v-1024q-123 -92 -165.5 -161.5t-42.5 -158.5q0 -142 168 -142h126v-104h-142q-119 0 -189.5 65.5t-70.5 176.5q0 203 218 324h-4v170q-55 -89 -144 -139.5t-184 -50.5q-168 0 -271 108
t-103 302v634h104v-614z" />
    <glyph glyph-name="Wcircumflex" unicode="&#x174;" horiz-adv-x="1954" 
d="M912 1762h108l332 -328h-128l-256 262l-258 -262h-130zM72 1332h116l324 -1186l406 1186h116l394 -1186l340 1186h116l-402 -1332h-108l-398 1194l-408 -1194h-110z" />
    <glyph glyph-name="wcircumflex" unicode="&#x175;" horiz-adv-x="1532" 
d="M692 1474h108l332 -328h-128l-256 262l-258 -262h-130zM72 1024h116l238 -878l280 878h118l268 -878l254 878h116l-316 -1024h-108l-272 886l-284 -886h-110z" />
    <glyph glyph-name="Ycircumflex" unicode="&#x176;" horiz-adv-x="1160" 
d="M536 1762h108l332 -328h-128l-256 262l-258 -262h-130zM526 460l-454 872h126l380 -742l388 742h124l-462 -872v-460h-102v460z" />
    <glyph glyph-name="ycircumflex" unicode="&#x177;" horiz-adv-x="1086" 
d="M500 1474h108l332 -328h-128l-256 262l-258 -262h-130zM124 -208h146q77 0 120.5 32.5t71.5 113.5l24 62l-414 1024h116l358 -888l352 888h118l-438 -1098q-53 -129 -113 -185.5t-145 -56.5h-196v108z" />
    <glyph glyph-name="Ydieresis" unicode="&#x178;" horiz-adv-x="1160" 
d="M726 1578h132v-144h-132v144zM318 1578h132v-144h-132v144zM526 460l-454 872h126l380 -742l388 742h124l-462 -872v-460h-102v460z" />
    <glyph glyph-name="Zacute" unicode="&#x179;" horiz-adv-x="1130" 
d="M832 1742l-270 -308h-88l228 308h130zM92 1332h946v-120l-830 -1114h830v-98h-946v118l828 1114h-828v100z" />
    <glyph glyph-name="zacute" unicode="&#x17a;" horiz-adv-x="946" 
d="M728 1454l-270 -308h-88l228 308h130zM92 1024h762v-118l-646 -808h646v-98h-762v118l644 808h-644v98z" />
    <glyph glyph-name="Zdotaccent" unicode="&#x17b;" horiz-adv-x="1130" 
d="M508 1578h130v-144h-130v144zM92 1332h946v-120l-830 -1114h830v-98h-946v118l828 1114h-828v100z" />
    <glyph glyph-name="zdotaccent" unicode="&#x17c;" horiz-adv-x="946" 
d="M404 1290h130v-144h-130v144zM92 1024h762v-118l-646 -808h646v-98h-762v118l644 808h-644v98z" />
    <glyph glyph-name="Zcaron" unicode="&#x17d;" horiz-adv-x="1130" 
d="M618 1434h-108l-332 328h130l256 -262l258 262h128zM92 1332h946v-120l-830 -1114h830v-98h-946v118l828 1114h-828v100z" />
    <glyph glyph-name="zcaron" unicode="&#x17e;" horiz-adv-x="946" 
d="M514 1146h-108l-332 328h130l256 -262l258 262h128zM92 1024h762v-118l-646 -808h646v-98h-762v118l644 808h-644v98z" />
    <glyph glyph-name="longs" unicode="&#x17f;" horiz-adv-x="514" 
d="M442 1336h-84q-68 0 -105 -34t-37 -122v-1180h-104v1192q0 66 21.5 115t57.5 75.5t77.5 39t87.5 12.5h86v-98z" />
    <glyph glyph-name="Ohorn" unicode="&#x1a0;" horiz-adv-x="1360" 
d="M92 650q0 316 162 509t428 193q87 0 156 -20h252q69 0 105.5 33t36.5 121v54h104v-66q0 -66 -19.5 -115t-53 -75.5t-71.5 -39t-80 -12.5h-78q112 -91 174 -241t62 -341q0 -300 -162 -483t-426 -183q-266 0 -428 183t-162 483zM1162 650q0 236 -88 386.5t-252 195.5
q-66 18 -140 18q-229 0 -355.5 -158t-126.5 -442q0 -267 126.5 -415.5t355.5 -148.5q228 0 354 148.5t126 415.5z" />
    <glyph glyph-name="ohorn" unicode="&#x1a1;" horiz-adv-x="1116" 
d="M92 516q0 238 129 383t339 145q79 0 142 -20h162q69 0 106.5 34t37.5 122v52h102v-64q0 -66 -19.5 -115t-53 -75.5t-71.5 -39t-80 -12.5h-16q154 -145 154 -410q0 -240 -127.5 -386t-336.5 -146q-210 0 -339 146t-129 386zM916 516q0 203 -93.5 314.5t-262.5 111.5
q-171 0 -265.5 -112t-94.5 -314q0 -204 94.5 -317t265.5 -113q169 0 262.5 113t93.5 317z" />
    <glyph glyph-name="Uhorn" unicode="&#x1af;" horiz-adv-x="1266" 
d="M102 1332h102v-826q0 -199 102.5 -309.5t287.5 -110.5q183 0 284.5 110.5t101.5 309.5v826h104v-2h22q69 0 106.5 34t37.5 122v54h102v-66q0 -66 -19.5 -115t-52.5 -75.5t-70.5 -39t-79.5 -12.5h-46v-726q0 -235 -135.5 -378.5t-354.5 -143.5q-221 0 -356.5 143.5
t-135.5 378.5v826z" />
    <glyph glyph-name="uhorn" unicode="&#x1b0;" horiz-adv-x="1142" 
d="M216 410q0 -167 76.5 -247.5t213.5 -80.5q131 0 219.5 89.5t88.5 226.5v626h124q69 0 106.5 34t37.5 122v54h102v-66q0 -66 -19.5 -115t-52.5 -75.5t-70.5 -39t-79.5 -12.5h-46v-926h-102v170q-55 -89 -144 -139.5t-184 -50.5q-168 0 -271 108t-103 302v634h104v-614z
" />
    <glyph glyph-name="uni01CD" unicode="&#x1cd;" horiz-adv-x="1260" 
d="M674 1434h-108l-332 328h130l256 -262l258 262h128zM1190 0h-116l-144 386h-598l-142 -386h-118l502 1332h116zM628 1196l-260 -712h526z" />
    <glyph glyph-name="uni01CE" unicode="&#x1ce;" horiz-adv-x="1026" 
d="M560 1146h-108l-332 328h130l256 -262l258 262h128zM912 686v-686h-104v194q-61 -99 -160.5 -156.5t-217.5 -57.5q-149 0 -243.5 83t-94.5 215q0 118 76.5 190.5t211.5 81.5l298 22q70 4 100 30t30 82v4q0 108 -83.5 181t-206.5 73q-281 0 -308 -242h-110
q11 156 123.5 250t292.5 94q169 0 282.5 -103t113.5 -255zM198 278q0 -90 68 -143t184 -53q155 0 256.5 104.5t101.5 263.5v30l-396 -28q-214 -15 -214 -174z" />
    <glyph glyph-name="uni01CF" unicode="&#x1cf;" 
d="M208 1434h-108l-332 328h130l256 -262l258 262h128zM112 1332h104v-1332h-104v1332z" />
    <glyph glyph-name="uni01D0" unicode="&#x1d0;" 
d="M206 1146h-108l-332 328h130l256 -262l258 262h128zM112 1024h104v-1024h-104v1024z" />
    <glyph glyph-name="uni01D1" unicode="&#x1d1;" horiz-adv-x="1360" 
d="M726 1434h-108l-332 328h130l256 -262l258 262h128zM92 650q0 316 162 509t428 193q264 0 426 -193t162 -509q0 -300 -162 -483t-426 -183q-266 0 -428 183t-162 483zM1162 650q0 284 -126 442t-354 158q-229 0 -355.5 -158t-126.5 -442q0 -267 126.5 -415.5
t355.5 -148.5q228 0 354 148.5t126 415.5z" />
    <glyph glyph-name="uni01D2" unicode="&#x1d2;" horiz-adv-x="1116" 
d="M600 1146h-108l-332 328h130l256 -262l258 262h128zM92 516q0 238 129 383t339 145q209 0 336.5 -145t127.5 -383q0 -240 -127.5 -386t-336.5 -146q-210 0 -339 146t-129 386zM916 516q0 203 -93.5 314.5t-262.5 111.5q-171 0 -265.5 -112t-94.5 -314q0 -204 94.5 -317
t265.5 -113q169 0 262.5 113t93.5 317z" />
    <glyph glyph-name="uni01D3" unicode="&#x1d3;" horiz-adv-x="1184" 
d="M648 1434h-108l-332 328h130l256 -262l258 262h128zM102 1332h102v-826q0 -199 102.5 -309.5t287.5 -110.5q183 0 284.5 110.5t101.5 309.5v826h104v-826q0 -235 -135.5 -378.5t-354.5 -143.5q-221 0 -356.5 143.5t-135.5 378.5v826z" />
    <glyph glyph-name="uni01D4" unicode="&#x1d4;" horiz-adv-x="1028" 
d="M572 1146h-108l-332 328h130l256 -262l258 262h128zM216 410q0 -167 76.5 -247.5t213.5 -80.5q131 0 219.5 89.5t88.5 226.5v626h102v-1024h-102v170q-55 -89 -144 -139.5t-184 -50.5q-168 0 -271 108t-103 302v634h104v-614z" />
    <glyph glyph-name="uni01DD" unicode="&#x1dd;" horiz-adv-x="1112" 
d="M1020 512q0 -244 -126.5 -386t-341.5 -142q-201 0 -330.5 141t-129.5 359v60h820q-7 195 -102.5 296.5t-269.5 101.5q-139 0 -225 -62t-109 -170h-108q35 162 145.5 248t296.5 86q221 0 350.5 -143t129.5 -389zM552 86q162 0 252.5 91.5t105.5 268.5h-708
q13 -165 108.5 -262.5t241.5 -97.5z" />
    <glyph glyph-name="uni01E2" unicode="&#x1e2;" horiz-adv-x="1944" 
d="M926 1570h614v-96h-614v96zM1854 1332v-100h-778v-500h720v-100h-720v-534h778v-98h-882v386h-594l-194 -386h-112l670 1332h1112zM428 484h544v744h-168z" />
    <glyph glyph-name="uni01E3" unicode="&#x1e3;" horiz-adv-x="1828" 
d="M578 1282h614v-96h-614v96zM1288 -16q-155 0 -267.5 72.5t-166.5 205.5q-55 -128 -169 -205t-255 -77q-149 0 -243.5 83t-94.5 215q0 118 76.5 190.5t211.5 81.5l298 22q70 4 100 30t30 82v4q0 108 -83.5 181t-206.5 73q-281 0 -308 -242h-110q11 156 123.5 250t292.5 94
q125 0 222.5 -59t143.5 -157q59 104 160 160t234 56q201 0 330.5 -141t129.5 -359v-60h-818q8 -195 102 -296.5t268 -101.5q137 0 222 62.5t106 169.5h108q-35 -162 -144 -248t-292 -86zM1276 942q-162 0 -252 -91.5t-104 -268.5h706q-13 165 -108.5 262.5t-241.5 97.5z
M198 278q0 -90 68 -143t184 -53q155 0 256.5 104.5t101.5 263.5v30l-396 -28q-214 -15 -214 -174z" />
    <glyph glyph-name="uni01F0" unicode="&#x1f0;" 
d="M206 1146h-108l-332 328h130l256 -262l258 262h128zM-74 -218h64q58 0 90 34t32 122v1086h104v-1098q0 -66 -19.5 -115t-53 -75.5t-71.5 -39t-80 -12.5h-66v98z" />
    <glyph glyph-name="AEacute" unicode="&#x1fc;" horiz-adv-x="1944" 
d="M1214 1742l-270 -308h-88l228 308h130zM1854 1332v-100h-778v-500h720v-100h-720v-534h778v-98h-882v386h-594l-194 -386h-112l670 1332h1112zM428 484h544v744h-168z" />
    <glyph glyph-name="aeacute" unicode="&#x1fd;" horiz-adv-x="1828" 
d="M1154 1454l-270 -308h-88l228 308h130zM1288 -16q-155 0 -267.5 72.5t-166.5 205.5q-55 -128 -169 -205t-255 -77q-149 0 -243.5 83t-94.5 215q0 118 76.5 190.5t211.5 81.5l298 22q70 4 100 30t30 82v4q0 108 -83.5 181t-206.5 73q-281 0 -308 -242h-110
q11 156 123.5 250t292.5 94q125 0 222.5 -59t143.5 -157q59 104 160 160t234 56q201 0 330.5 -141t129.5 -359v-60h-818q8 -195 102 -296.5t268 -101.5q137 0 222 62.5t106 169.5h108q-35 -162 -144 -248t-292 -86zM1276 942q-162 0 -252 -91.5t-104 -268.5h706
q-13 165 -108.5 262.5t-241.5 97.5zM198 278q0 -90 68 -143t184 -53q155 0 256.5 104.5t101.5 263.5v30l-396 -28q-214 -15 -214 -174z" />
    <glyph glyph-name="uni0237" unicode="&#x237;" 
d="M-74 -218h64q58 0 90 34t32 122v1086h104v-1098q0 -66 -19.5 -115t-53 -75.5t-71.5 -39t-80 -12.5h-66v98z" />
    <glyph glyph-name="uni0250" unicode="&#x250;" horiz-adv-x="1026" 
d="M116 742q0 177 -24 282h106q18 -105 20 -196q61 99 161.5 157.5t218.5 58.5q149 0 243.5 -83t94.5 -215q0 -118 -76.5 -190.5t-211.5 -81.5l-298 -22q-70 -4 -100 -30t-30 -82v-4q0 -108 83.5 -181t206.5 -73q281 0 308 242h110q-11 -156 -123.5 -250t-292.5 -94
q-169 0 -282.5 103t-113.5 255v404zM220 574v-30l396 28q214 15 214 174q0 90 -68 143t-184 53q-155 0 -256.5 -104.5t-101.5 -263.5z" />
    <glyph glyph-name="uni0251" unicode="&#x251;" horiz-adv-x="1150" 
d="M1172 98v-98h-26q-89 0 -154.5 50.5t-73.5 159.5q-56 -108 -151 -167t-217 -59q-206 0 -332 146t-126 386q0 238 126 383t332 145q122 0 216 -58t150 -164v202h102v-770q0 -88 34 -122t96 -34h24zM200 516q0 -204 94 -317t264 -113q171 0 264.5 113t93.5 317
q0 203 -93.5 314.5t-264.5 111.5q-170 0 -264 -112t-94 -314z" />
    <glyph glyph-name="uni0252" unicode="&#x252;" horiz-adv-x="1150" 
d="M-20 930v98h24q89 0 155.5 -50.5t74.5 -159.5q56 108 150 167t216 59q206 0 332 -146t126 -386q0 -238 -126 -383t-332 -145q-120 0 -214 58t-150 164v-202h-102v770q0 88 -35 122t-97 34h-22zM950 512q0 204 -93.5 317t-262.5 113q-171 0 -264.5 -113t-93.5 -317
q0 -203 93.5 -314.5t264.5 -111.5q169 0 262.5 111.5t93.5 314.5z" />
    <glyph glyph-name="uni0253" unicode="&#x253;" horiz-adv-x="1130" 
d="M92 0v1006q0 204 125.5 329t332.5 125q183 0 304 -93.5t144 -248.5h-110q-14 112 -103 176t-235 64q-170 0 -263 -95t-93 -267v-204q56 104 150.5 161t215.5 57q206 0 332 -142t126 -374q0 -231 -126 -372.5t-332 -141.5q-122 0 -216 56.5t-150 159.5v-196h-102zM910 494
q0 196 -94 305t-264 109q-171 0 -264.5 -108.5t-93.5 -305.5q0 -195 93.5 -303.5t264.5 -108.5q169 0 263.5 108.5t94.5 303.5z" />
    <glyph glyph-name="uni0254" unicode="&#x254;" horiz-adv-x="1098" 
d="M1008 512q0 -238 -128.5 -383t-337.5 -145q-187 0 -311.5 104.5t-138.5 271.5h108q6 -126 99 -200t243 -74q171 0 264.5 111.5t93.5 314.5q0 204 -94 317t-264 113q-149 0 -242 -77t-100 -207h-108q16 175 139 280.5t311 105.5q209 0 337.5 -146t128.5 -386z" />
    <glyph glyph-name="uni0255" unicode="&#x255;" horiz-adv-x="1098" 
d="M216 -150q0 152 36 278q-160 144 -160 388q0 238 128.5 383t337.5 145q187 0 311.5 -108t138.5 -282h-108q-6 132 -99 210t-243 78q-171 0 -264.5 -111.5t-93.5 -314.5q0 -173 90 -282q62 137 168 212.5t242 75.5q130 0 219 -74.5t89 -191.5q0 -121 -100 -196.5
t-248 -75.5q-181 0 -318 78q-18 -96 -18 -212h-108zM660 86q106 0 172.5 45.5t67.5 124.5q0 73 -56 118.5t-144 45.5q-119 0 -202.5 -66t-127.5 -192q112 -76 290 -76z" />
    <glyph glyph-name="uni0256" unicode="&#x256;" horiz-adv-x="1150" 
d="M1172 -236v-98h-26q-44 0 -83 12.5t-73 39t-54 75.5t-20 115v300q-56 -107 -150.5 -165.5t-215.5 -58.5q-206 0 -332 146t-126 386q0 238 126 383t332 145q122 0 216 -58t150 -164v612h102v-1514q0 -88 34 -122t96 -34h24zM200 516q0 -204 94 -317t264 -113
q171 0 264.5 113t93.5 317q0 203 -93.5 314.5t-264.5 111.5q-170 0 -264 -112t-94 -314z" />
    <glyph glyph-name="uni0257" unicode="&#x257;" horiz-adv-x="1150" 
d="M1172 1336h-24q-62 0 -96 -34t-34 -122v-1180h-102v208q-56 -107 -150.5 -165.5t-215.5 -58.5q-206 0 -332 146t-126 386q0 238 126 383t332 145q122 0 216 -58t150 -164v370q0 66 20 115t54 75.5t73 39t83 12.5h26v-98zM200 516q0 -204 94 -317t264 -113
q171 0 264.5 113t93.5 317q0 203 -93.5 314.5t-264.5 111.5q-170 0 -264 -112t-94 -314z" />
    <glyph glyph-name="uni0258" unicode="&#x258;" horiz-adv-x="1112" 
d="M1020 516q0 -246 -129.5 -389t-350.5 -143q-184 0 -294.5 86t-145.5 248h108q23 -108 108.5 -170t223.5 -62q174 0 269.5 101.5t102.5 296.5h-820v60q0 218 129.5 359t330.5 141q215 0 341.5 -142t126.5 -386zM202 582h708q-15 177 -105.5 268.5t-252.5 91.5
q-153 0 -249.5 -98t-100.5 -262z" />
    <glyph glyph-name="uni0259" unicode="&#x259;" horiz-adv-x="1112" 
d="M1020 512q0 -244 -126.5 -386t-341.5 -142q-201 0 -330.5 141t-129.5 359v60h820q-7 195 -102.5 296.5t-269.5 101.5q-139 0 -225 -62t-109 -170h-108q35 162 145.5 248t296.5 86q221 0 350.5 -143t129.5 -389zM552 86q162 0 252.5 91.5t105.5 268.5h-708
q13 -165 108.5 -262.5t241.5 -97.5z" />
    <glyph glyph-name="uni025A" unicode="&#x25a;" horiz-adv-x="1402" 
d="M1020 512q0 -244 -126.5 -386t-341.5 -142q-201 0 -330.5 123t-129.5 315v46l812 154q-23 156 -115.5 238t-248.5 82q-139 0 -225 -62t-109 -170h-108q35 162 145.5 248t296.5 86q188 0 311.5 -105.5t156.5 -292.5l174 34h54v-106q0 -74 30 -102t84 -28h22v-96h-24
q-40 0 -75 11t-66 34.5t-49 67t-18 101.5v14l-120 -26v-38zM202 386q13 -136 108.5 -218t241.5 -82q177 0 268.5 108.5t91.5 317.5v12z" />
    <glyph glyph-name="uni025B" unicode="&#x25b;" horiz-adv-x="976" 
d="M884 294q-12 -138 -122.5 -224t-275.5 -86q-177 0 -285.5 80.5t-108.5 213.5q0 81 38.5 142.5t107.5 93.5q-59 32 -92.5 90t-33.5 134q0 139 105 223.5t275 84.5q159 0 263.5 -90t116.5 -236h-108q-5 102 -78 163t-194 61q-129 0 -199.5 -53.5t-70.5 -152.5
q0 -83 40.5 -128.5t115.5 -45.5h246v-104h-246q-85 0 -131.5 -47.5t-46.5 -134.5q0 -92 75 -142t211 -50q128 0 206 56t84 152h108z" />
    <glyph glyph-name="uni025C" unicode="&#x25c;" horiz-adv-x="976" 
d="M352 460v104h246q75 0 116.5 45.5t41.5 128.5q0 99 -70.5 152.5t-199.5 53.5q-121 0 -195 -61t-79 -163h-108q12 146 117.5 236t264.5 90q170 0 274 -84.5t104 -223.5q0 -76 -33.5 -134t-92.5 -90q69 -32 107.5 -93.5t38.5 -142.5q0 -133 -107.5 -213.5t-284.5 -80.5
q-165 0 -276.5 86t-123.5 224h108q6 -96 85 -152t207 -56q136 0 210 49.5t74 142.5q0 87 -46.5 134.5t-131.5 47.5h-246z" />
    <glyph glyph-name="uni025D" unicode="&#x25d;" horiz-adv-x="1198" 
d="M1168 444v-96h-26q-86 0 -146 51t-60 163v14l-156 -34q-21 -18 -42 -28q69 -32 107.5 -93.5t38.5 -142.5q0 -133 -107.5 -213.5t-284.5 -80.5q-165 0 -276.5 86t-123.5 224h108q6 -96 85 -152t207 -56q136 0 210 49.5t74 142.5q0 87 -46.5 134.5t-131.5 47.5h-246v104
h246q75 0 116.5 45.5t41.5 128.5q0 99 -70.5 152.5t-199.5 53.5q-121 0 -195 -61t-79 -163h-108q12 146 117.5 236t264.5 90q170 0 274 -84.5t104 -223.5q0 -46 -12 -82l124 24h56v-106q0 -74 29 -102t83 -28h24z" />
    <glyph glyph-name="uni025E" unicode="&#x25e;" horiz-adv-x="1016" 
d="M780 514q69 -32 107.5 -93.5t38.5 -142.5q0 -132 -96.5 -213t-255.5 -81q-212 0 -347 150.5t-135 385.5q0 234 132 380t344 146q153 0 245.5 -84.5t92.5 -223.5q0 -75 -33 -134t-93 -90zM200 520q0 -205 99 -319.5t275 -114.5q117 0 180.5 50t63.5 142q0 87 -47 134.5
t-133 47.5h-184v104h184q75 0 116.5 45.5t41.5 128.5q0 99 -59 152.5t-169 53.5q-173 0 -270.5 -112.5t-97.5 -311.5z" />
    <glyph glyph-name="uni025F" unicode="&#x25f;" horiz-adv-x="638" 
d="M72 -312h84q69 0 106.5 34t37.5 122v156h-228v98h228v926h102v-926h166v-98h-166v-168q0 -66 -21.5 -115t-57.5 -75.5t-77.5 -39t-87.5 -12.5h-86v98z" />
    <glyph glyph-name="uni0260" unicode="&#x260;" horiz-adv-x="1130" 
d="M1172 1336h-24q-62 0 -96 -34t-34 -122v-1202q0 -168 -120 -271t-318 -103q-192 0 -318.5 88t-149.5 234h110q14 -102 108 -160t250 -58q159 0 247.5 73.5t88.5 206.5v244q-56 -104 -150.5 -161t-215.5 -57q-206 0 -332 142t-126 374q0 231 126 372.5t332 141.5
q122 0 216 -56.5t150 -159.5v364q0 66 20 115t54 75.5t73 39t83 12.5h26v-98zM200 530q0 -196 94 -305t264 -109q171 0 264.5 108.5t93.5 305.5q0 195 -93.5 303.5t-264.5 108.5q-169 0 -263.5 -108.5t-94.5 -303.5z" />
    <glyph glyph-name="uni0261" unicode="&#x261;" horiz-adv-x="1130" 
d="M1018 1024v-1046q0 -168 -120 -271t-318 -103q-192 0 -318.5 88t-149.5 234h110q14 -102 108 -160t250 -58q159 0 247.5 73.5t88.5 206.5v244q-56 -104 -150.5 -161t-215.5 -57q-206 0 -332 142t-126 374q0 231 126 372.5t332 141.5q122 0 216 -56.5t150 -159.5v196h102z
M200 530q0 -196 94 -305t264 -109q171 0 264.5 108.5t93.5 305.5q0 195 -93.5 303.5t-264.5 108.5q-169 0 -263.5 -108.5t-94.5 -303.5z" />
    <glyph glyph-name="uni0262" unicode="&#x262;" horiz-adv-x="1098" 
d="M92 516q0 238 131.5 383t344.5 145q183 0 304.5 -102.5t135.5 -267.5h-108q-6 123 -96 195.5t-236 72.5q-175 0 -271.5 -111.5t-96.5 -314.5q0 -204 94 -317t262 -113q134 0 222 88.5t98 243.5h-344v98h476v-516h-82l-10 242q-48 -121 -144 -189.5t-216 -68.5
q-209 0 -336.5 146t-127.5 386z" />
    <glyph glyph-name="uni0263" unicode="&#x263;" horiz-adv-x="1086" 
d="M346 -106l120 250l-394 880h116l358 -806l352 806h118l-396 -880l118 -250q20 -43 20 -88q0 -85 -64.5 -147.5t-153.5 -62.5q-90 0 -153 59t-63 143q0 49 22 96zM632 -126l-92 196l-90 -196q-18 -42 -18 -74q0 -44 29.5 -69t80.5 -25q47 0 77.5 28.5t30.5 71.5
q0 32 -18 68z" />
    <glyph glyph-name="uni0264" unicode="&#x264;" horiz-adv-x="862" 
d="M262 278l90 152l-280 594h116l242 -520l242 520h118l-288 -594l88 -152q28 -50 28 -102q0 -81 -56.5 -136.5t-137.5 -55.5q-84 0 -139 52t-55 130q0 54 32 112zM486 258l-62 94l-58 -94q-26 -46 -26 -88q0 -80 86 -80q41 0 63.5 22t22.5 62q0 42 -26 84z" />
    <glyph glyph-name="uni0265" unicode="&#x265;" horiz-adv-x="1044" 
d="M216 390q0 -157 78 -232.5t220 -75.5q135 0 225.5 83t90.5 211v648h102v-1358h-102v496q-54 -85 -146 -133.5t-190 -48.5q-171 0 -276.5 102t-105.5 286v656h104v-634z" />
    <glyph glyph-name="uni0266" unicode="&#x266;" horiz-adv-x="1044" 
d="M112 0v1006q0 204 120 329t318 125q176 0 290.5 -87.5t135.5 -234.5h-108q-12 103 -95.5 161.5t-222.5 58.5q-159 0 -246.5 -95t-87.5 -267v-132q54 85 145.5 132.5t188.5 47.5q171 0 276.5 -102t105.5 -286v-656h-102v634q0 157 -79 232.5t-221 75.5q-135 0 -224.5 -83
t-89.5 -211v-648h-104z" />
    <glyph glyph-name="uni0267" unicode="&#x267;" horiz-adv-x="1044" 
d="M112 0v1006q0 204 120 329t318 125q176 0 290.5 -87.5t135.5 -234.5h-108q-12 103 -95.5 161.5t-222.5 58.5q-159 0 -246.5 -95t-87.5 -267v-134q53 84 141.5 133t192.5 49q176 0 279 -104t103 -284v-730q0 -133 -69.5 -207.5t-194.5 -74.5h-106v98h104q86 0 125 46.5
t39 149.5v696q0 151 -76.5 229.5t-223.5 78.5q-136 0 -225 -83t-89 -211v-648h-104z" />
    <glyph glyph-name="uni0268" unicode="&#x268;" horiz-adv-x="408" 
d="M140 1316h130v-142h-130v142zM154 1024h102v-410h154v-98h-154v-516h-102v516h-154v98h154v410z" />
    <glyph glyph-name="uni0269" unicode="&#x269;" horiz-adv-x="462" 
d="M412 98v-98h-86q-41 0 -77 12.5t-68 39t-50.5 75.5t-18.5 115v782h104v-770q0 -88 29 -122t83 -34h84z" />
    <glyph glyph-name="uni026A" unicode="&#x26a;" horiz-adv-x="696" 
d="M624 1024v-98h-224v-828h224v-98h-552v98h224v828h-224v98h552z" />
    <glyph glyph-name="uni026B" unicode="&#x26b;" horiz-adv-x="566" 
d="M180 860q28 0 56 -14v588h102v-698q33 -40 60 -40q37 0 59.5 41.5t22.5 110.5h88q0 -110 -46 -176t-124 -66q-29 0 -60 14v-620h-102v722q-33 48 -60 48q-39 0 -61.5 -42.5t-22.5 -113.5h-92q0 114 48 180t132 66z" />
    <glyph glyph-name="uni026C" unicode="&#x26c;" horiz-adv-x="574" 
d="M250 1434h102v-772h224v-98h-224v-564h-102v564h-20q-44 0 -83 11t-73 34t-54 66.5t-20 102.5t20 102.5t54 66.5t73 34t83 11h20v442zM240 662h10v230h-10q-66 0 -102 -24.5t-36 -89.5q0 -66 36 -91t102 -25z" />
    <glyph glyph-name="uni026D" unicode="&#x26d;" horiz-adv-x="452" 
d="M380 -236v-98h-24q-46 0 -87.5 12.5t-77.5 39t-57.5 75.5t-21.5 115v1526h104v-1514q0 -88 37.5 -122t104.5 -34h22z" />
    <glyph glyph-name="uni026E" unicode="&#x26e;" horiz-adv-x="1092" 
d="M606 442q204 -7 310 -116t106 -310q0 -192 -121.5 -309t-320.5 -117q-183 0 -303 82.5t-143 219.5h108q14 -92 103 -146t235 -54q159 0 246.5 85t87.5 239q0 158 -86.5 244t-245.5 86h-84v102l354 476l-636 2v-926h-104v1434h104v-410h756v-100z" />
    <glyph glyph-name="uni026F" unicode="&#x26f;" horiz-adv-x="1678" 
d="M216 390q0 -157 73 -232.5t205 -75.5q126 0 210 83t84 211v648h102v-634q0 -157 73.5 -232.5t206.5 -75.5q126 0 210 83t84 211v648h102v-1024h-102v154q-53 -82 -139 -128t-177 -46q-117 0 -204.5 55.5t-127.5 160.5q-47 -100 -142.5 -158t-199.5 -58q-161 0 -261.5 102
t-100.5 286v656h104v-634z" />
    <glyph glyph-name="uni0270" unicode="&#x270;" horiz-adv-x="1678" 
d="M216 390q0 -157 73 -232.5t205 -75.5q126 0 210 83t84 211v648h102v-634q0 -157 73.5 -232.5t206.5 -75.5q126 0 210 83t84 211v648h102v-1358h-102v488q-53 -82 -139 -128t-177 -46q-117 0 -204.5 55.5t-127.5 160.5q-47 -100 -142.5 -158t-199.5 -58q-161 0 -261.5 102
t-100.5 286v656h104v-634z" />
    <glyph glyph-name="uni0271" unicode="&#x271;" horiz-adv-x="1678" 
d="M788 634q0 157 -73 232.5t-205 75.5q-126 0 -210 -83t-84 -211v-648h-104v1024h104v-154q53 82 138 128t176 46q117 0 204.5 -56.5t127.5 -161.5q48 101 144 159.5t200 58.5q161 0 260.5 -102t99.5 -286v-730q0 -133 -69.5 -207.5t-194.5 -74.5h-106v98h104
q86 0 125 46.5t39 149.5v696q0 157 -73 232.5t-205 75.5q-126 0 -211 -83t-85 -211v-648h-102v634z" />
    <glyph glyph-name="uni0272" unicode="&#x272;" horiz-adv-x="1044" 
d="M-74 -236h64q58 0 90 34t32 122v1104h104v-160q54 85 145.5 132.5t188.5 47.5q171 0 276.5 -102t105.5 -286v-656h-102v634q0 157 -79 232.5t-221 75.5q-135 0 -224.5 -83t-89.5 -211v-740q0 -66 -19.5 -115t-53 -75.5t-71.5 -39t-80 -12.5h-66v98z" />
    <glyph glyph-name="uni0273" unicode="&#x273;" horiz-adv-x="1044" 
d="M112 1024h104v-160q54 85 145.5 132.5t188.5 47.5q171 0 276.5 -102t105.5 -286v-736q0 -88 34 -122t96 -34h24v-98h-26q-44 0 -83 12.5t-73 39t-54 75.5t-20 115v726q0 157 -79 232.5t-221 75.5q-135 0 -224.5 -83t-89.5 -211v-648h-104v1024z" />
    <glyph glyph-name="uni0274" unicode="&#x274;" horiz-adv-x="1048" 
d="M834 1024h102v-1024h-116l-604 904v-904h-104v1024h144l578 -864v864z" />
    <glyph glyph-name="uni0275" unicode="&#x275;" horiz-adv-x="1116" 
d="M92 516q0 238 129 383t339 145q209 0 336.5 -145t127.5 -383q0 -240 -127.5 -386t-336.5 -146q-210 0 -339 146t-129 386zM560 942q-160 0 -253 -98t-105 -278h712q-11 180 -103 278t-251 98zM560 86q159 0 251 99t103 281h-712q12 -182 105 -281t253 -99z" />
    <glyph glyph-name="uni0276" unicode="&#x276;" horiz-adv-x="1724" 
d="M92 516q0 238 129 383t339 145q111 0 202.5 -43.5t153.5 -124.5v148h736v-98h-628v-362h572v-100h-572v-366h628v-98h-736v154q-62 -82 -153.5 -126t-202.5 -44q-210 0 -339 146t-129 386zM916 516q0 203 -93.5 314.5t-262.5 111.5q-171 0 -265.5 -112t-94.5 -314
q0 -204 94.5 -317t265.5 -113q169 0 262.5 113t93.5 317z" />
    <glyph glyph-name="uni0277" unicode="&#x277;" horiz-adv-x="1430" 
d="M710 182q-39 -99 -112.5 -152.5t-169.5 -53.5q-150 0 -243 125t-93 329q0 270 176 442t452 172q275 0 447.5 -168.5t172.5 -439.5q0 -207 -95.5 -333.5t-254.5 -126.5q-94 0 -166.5 53.5t-113.5 152.5zM720 936q-248 0 -387 -133t-139 -373q0 -166 60.5 -256t173.5 -90
q112 0 173 79.5t61 222.5v244h102v-244q0 -144 59 -223t167 -79q118 0 182 92t64 260q0 234 -136.5 367t-379.5 133z" />
    <glyph glyph-name="uni0278" unicode="&#x278;" horiz-adv-x="1116" 
d="M92 516q0 222 113 364t301 162v392h102v-392q190 -18 303 -160t113 -366q0 -226 -113 -369t-303 -161v-320h-102v320q-188 20 -301 163.5t-113 366.5zM916 516q0 187 -80.5 297t-227.5 127v-852q147 17 227.5 128t80.5 300zM200 516q0 -187 80 -298t226 -128v848
q-146 -17 -226 -126.5t-80 -295.5z" />
    <glyph glyph-name="uni0279" unicode="&#x279;" horiz-adv-x="622" 
d="M72 90h38q126 0 212 81t86 205v648h102v-1024h-102v152q-50 -81 -130 -126.5t-166 -45.5h-40v110z" />
    <glyph glyph-name="uni027A" unicode="&#x27a;" horiz-adv-x="622" 
d="M72 90h38q126 0 212 81t86 205v1058h102v-1434h-102v152q-50 -81 -130 -126.5t-166 -45.5h-40v110z" />
    <glyph glyph-name="uni027B" unicode="&#x27b;" horiz-adv-x="622" 
d="M72 90h38q126 0 212 81t86 205v648h102v-1104q0 -88 38 -122t106 -34h22v-98h-24q-46 0 -87.5 12.5t-77.5 39t-57.5 75.5t-21.5 115v244q-50 -81 -130 -126.5t-166 -45.5h-40v110z" />
    <glyph glyph-name="uni027C" unicode="&#x27c;" horiz-adv-x="622" 
d="M112 1024h104v-148q50 79 129.5 123.5t164.5 44.5h40v-110h-38q-126 0 -211 -80.5t-85 -205.5v-982h-104v1358z" />
    <glyph glyph-name="uni027D" unicode="&#x27d;" horiz-adv-x="622" 
d="M380 -236v-98h-24q-46 0 -87.5 12.5t-77.5 39t-57.5 75.5t-21.5 115v1116h104v-148q50 79 129.5 123.5t164.5 44.5h40v-110h-38q-126 0 -211 -80.5t-85 -205.5v-728q0 -88 37.5 -122t104.5 -34h22z" />
    <glyph glyph-name="uni027E" unicode="&#x27e;" horiz-adv-x="472" 
d="M402 926h-24q-79 0 -120.5 -37.5t-41.5 -138.5v-750h-104v762q0 72 23 125t62.5 81.5t84 42t94.5 13.5h26v-98z" />
    <glyph glyph-name="uni027F" unicode="&#x27f;" horiz-adv-x="432" 
d="M30 926v98h66q42 0 80 -12.5t71.5 -39t53 -75.5t19.5 -115v-1116h-102v1104q0 88 -32.5 122t-91.5 34h-64z" />
    <glyph glyph-name="uni0280" unicode="&#x280;" horiz-adv-x="1020" 
d="M516 408h-300v-408h-104v1024h496q144 0 233 -85.5t89 -224.5q0 -104 -58 -177t-158 -97q92 -19 138 -84t60 -186l18 -170h-102l-16 156q-15 137 -83.5 194.5t-212.5 57.5zM598 926h-382v-420h382q105 0 164.5 53t59.5 149q0 103 -59.5 160.5t-164.5 57.5z" />
    <glyph glyph-name="uni0281" unicode="&#x281;" horiz-adv-x="1020" 
d="M516 616q144 0 212.5 57.5t83.5 194.5l16 156h102l-18 -170q-14 -121 -60 -186t-138 -84q100 -24 158 -97t58 -177q0 -139 -89 -224.5t-233 -85.5h-496v1024h104v-408h300zM598 98q105 0 164.5 57.5t59.5 160.5q0 96 -59.5 149t-164.5 53h-382v-420h382z" />
    <glyph glyph-name="uni0282" unicode="&#x282;" horiz-adv-x="1002" 
d="M360 -236v-98h-24q-46 0 -87.5 12.5t-77.5 39t-57.5 75.5t-21.5 115v400h102q21 -115 104 -169.5t236 -54.5q123 0 198.5 48.5t75.5 129.5q0 82 -57.5 128.5t-176.5 61.5l-154 22q-159 22 -238.5 87.5t-79.5 190.5q0 134 103 212t281 78q172 0 278.5 -87t121.5 -239h-106
q-20 116 -91.5 171t-204.5 55q-126 0 -203 -51t-77 -135q0 -79 54 -117.5t170 -54.5l154 -20q168 -23 249 -96t81 -206q0 -127 -98.5 -202.5t-261.5 -75.5q-248 0 -358 158v-222q0 -88 38 -122t106 -34h22z" />
    <glyph glyph-name="uni0283" unicode="&#x283;" horiz-adv-x="594" 
d="M296 -52q0 -78 -21.5 -135t-59 -87.5t-79.5 -45t-90 -14.5h-78v98h62q78 0 121 43t43 155v1230q0 66 21.5 115t57.5 75.5t77.5 39t87.5 12.5h86v-98h-84q-69 0 -106.5 -34t-37.5 -122v-1232z" />
    <glyph glyph-name="uni0284" unicode="&#x284;" horiz-adv-x="638" 
d="M72 0v98h166v1094q0 66 21.5 115t57.5 75.5t77.5 39t87.5 12.5h86v-98h-84q-69 0 -106.5 -34t-37.5 -122v-1082h228v-98h-228v-92q0 -66 -21.5 -115t-57.5 -75.5t-77.5 -39t-87.5 -12.5h-66v98h64q69 0 106.5 34t37.5 122v80h-166z" />
    <glyph glyph-name="uni0285" unicode="&#x285;" horiz-adv-x="678" 
d="M72 926v98h86q46 0 87.5 -12.5t77.5 -39t57.5 -75.5t21.5 -115v-862q0 -88 37 -122t105 -34h64v-98h-66q-46 0 -87 12.5t-77 39t-57 75.5t-21 115v862q0 88 -37.5 122t-106.5 34h-84z" />
    <glyph glyph-name="uni0286" unicode="&#x286;" horiz-adv-x="858" 
d="M88 -70q0 -77 47.5 -119.5t132.5 -42.5q99 0 143.5 58.5t44.5 187.5v48q-74 40 -170 40q-88 0 -143 -47.5t-55 -124.5zM772 -410h-108q0 251 -104 386q-8 -146 -85 -228t-207 -82q-133 0 -210.5 71t-77.5 193q0 118 87 196t219 78q94 0 170 -32v1020q0 114 64.5 178
t179.5 64h86v-98h-84q-75 0 -108.5 -37.5t-33.5 -118.5v-1066q101 -79 156.5 -214.5t55.5 -309.5z" />
    <glyph glyph-name="uni0287" unicode="&#x287;" horiz-adv-x="638" 
d="M568 0h-198v-266h-102v266h-196v98h196v672q0 88 -29 122t-83 34h-84v98h86q88 0 150 -57.5t62 -184.5v-684h198v-98z" />
    <glyph glyph-name="uni0288" unicode="&#x288;" horiz-adv-x="638" 
d="M568 -236v-98h-86q-41 0 -77 12.5t-68 39t-50.5 75.5t-18.5 115v1018h-196v98h196v266h102v-266h198v-98h-198v-1006q0 -88 30 -122t84 -34h84z" />
    <glyph glyph-name="uni0289" unicode="&#x289;" horiz-adv-x="1028" 
d="M0 594h112v430h104v-430h598v430h102v-430h112v-98h-112v-496h-102v170q-55 -89 -144 -139.5t-184 -50.5q-168 0 -271 108t-103 302v106h-112v98zM216 410q0 -167 76.5 -247.5t213.5 -80.5q131 0 219.5 89.5t88.5 226.5v98h-598v-86z" />
    <glyph glyph-name="uni028A" unicode="&#x28a;" horiz-adv-x="1116" 
d="M560 -16q-210 0 -339 135.5t-129 356.5q0 143 62.5 261.5t171.5 188.5h-234v98h386v-98q-129 -46 -203.5 -170t-74.5 -280q0 -185 94.5 -287.5t265.5 -102.5t264.5 102.5t93.5 287.5q0 157 -73.5 281t-202.5 169v98h384v-98h-234q109 -70 171.5 -188.5t62.5 -261.5
q0 -221 -128 -356.5t-338 -135.5z" />
    <glyph glyph-name="uni028B" unicode="&#x28b;" horiz-adv-x="1048" 
d="M112 1024h104v-642q0 -140 78 -218t216 -78q167 0 255.5 117.5t88.5 344.5q0 192 -64 285t-202 93h-44v98h58q166 0 260 -132t94 -358q0 -252 -121 -401t-325 -149q-177 0 -287.5 109.5t-110.5 288.5v642z" />
    <glyph glyph-name="uni028C" unicode="&#x28c;" horiz-adv-x="1086" 
d="M1016 0h-116l-360 888l-350 -888h-118l414 1024h116z" />
    <glyph glyph-name="uni028D" unicode="&#x28d;" horiz-adv-x="1532" 
d="M1462 0h-116l-238 878l-280 -878h-118l-268 878l-254 -878h-116l316 1024h108l272 -886l284 886h110z" />
    <glyph glyph-name="uni028E" unicode="&#x28e;" horiz-adv-x="1086" 
d="M962 1328h-84q-99 0 -151.5 -53t-102.5 -189l-22 -62l414 -1024h-116l-360 888l-350 -888h-118l438 1098q72 181 144 258.5t176 77.5h132v-106z" />
    <glyph glyph-name="uni028F" unicode="&#x28f;" horiz-adv-x="998" 
d="M446 338l-374 686h126l300 -558l306 558h124l-380 -686v-338h-102v338z" />
    <glyph glyph-name="uni0290" unicode="&#x290;" horiz-adv-x="946" 
d="M92 1024h762v-118l-646 -808h646v-178q0 -88 38 -122t106 -34h22v-98h-24q-46 0 -87.5 12.5t-77.5 39t-57.5 75.5t-21.5 115v92h-660v118l644 808h-644v98z" />
    <glyph glyph-name="uni0291" unicode="&#x291;" horiz-adv-x="1078" 
d="M448 -198q0 102 16 198h-372v118l644 808h-644v98h762v-118l-646 -808h280q45 148 136 231t210 83q106 0 176 -60t70 -150q0 -93 -61 -147.5t-165 -54.5h-280q-14 -102 -14 -198h-112zM834 314q-168 0 -236 -216h256q55 0 85.5 27t30.5 77t-37.5 81t-98.5 31z" />
    <glyph glyph-name="uni0292" unicode="&#x292;" horiz-adv-x="1056" 
d="M570 442q204 -7 310 -116t106 -310q0 -192 -122 -309t-322 -117q-184 0 -303.5 98t-142.5 264h108q14 -121 103 -190.5t235 -69.5q159 0 246.5 85t87.5 239q0 158 -86.5 244t-245.5 86h-84v102l392 476l-760 2v98h884v-100z" />
    <glyph glyph-name="uni0293" unicode="&#x293;" horiz-adv-x="1056" 
d="M396 34q-84 0 -138 -46t-54 -118q0 -79 83 -128.5t215 -49.5q229 0 320 134q-75 107 -179 157.5t-247 50.5zM570 442q204 -7 310 -116t106 -310q0 -109 -46 -198q55 -96 92 -228h-100q-25 80 -56 140q-134 -140 -374 -140q-176 0 -291 79.5t-115 200.5q0 115 85.5 191.5
t214.5 76.5q292 0 470 -212q10 47 10 90q0 158 -86.5 244t-245.5 86h-84v102l392 476l-760 2v98h884v-100z" />
    <glyph glyph-name="uni0294" unicode="&#x294;" horiz-adv-x="1058" 
d="M584 450v-450h-102v518q183 70 279.5 197t96.5 297q0 160 -88 248t-248 88q-141 0 -228.5 -88t-93.5 -238h-108q12 190 131.5 309t298.5 119q201 0 322.5 -120t121.5 -318q0 -177 -101 -325t-281 -237z" />
    <glyph glyph-name="uni0295" unicode="&#x295;" horiz-adv-x="1058" 
d="M476 450q-181 89 -282.5 237.5t-101.5 324.5q0 198 121.5 318t322.5 120q179 0 298.5 -119t131.5 -309h-108q-6 150 -93.5 238t-228.5 88q-160 0 -248 -88t-88 -248q0 -169 97.5 -296t280.5 -198v-518h-102v450z" />
    <glyph glyph-name="uni0296" unicode="&#x296;" horiz-adv-x="1058" 
d="M584 984q180 -89 281 -237t101 -325q0 -198 -121.5 -318t-322.5 -120q-179 0 -298.5 119t-131.5 309h108q6 -150 93.5 -238t228.5 -88q160 0 248 88t88 248q0 170 -96.5 297t-279.5 197v518h102v-450z" />
    <glyph glyph-name="uni0297" unicode="&#x297;" horiz-adv-x="1098" 
d="M92 312q0 329 134 530.5t352 201.5q178 0 297 -114.5t133 -297.5h-108q-6 141 -93.5 225.5t-228.5 84.5q-180 0 -279 -165t-99 -465q0 -294 99.5 -457t278.5 -163q140 0 227.5 79.5t94.5 212.5h108q-17 -179 -134.5 -286.5t-295.5 -107.5q-144 0 -254.5 90t-171 254
t-60.5 378z" />
    <glyph glyph-name="uni0298" unicode="&#x298;" horiz-adv-x="1238" 
d="M92 650q0 331 139.5 516.5t388.5 185.5t387.5 -185t138.5 -517q0 -315 -138.5 -490.5t-387.5 -175.5q-250 0 -389 175.5t-139 490.5zM1038 650q0 600 -418 600q-420 0 -420 -600q0 -564 420 -564q418 0 418 564zM558 724h130v-142h-130v142z" />
    <glyph glyph-name="uni0299" unicode="&#x299;" horiz-adv-x="1016" 
d="M756 516q80 -32 125 -94t45 -144q0 -126 -82.5 -202t-217.5 -76h-514v1024h508q128 0 207 -78.5t79 -207.5q0 -76 -39.5 -134t-110.5 -88zM618 564q85 0 131.5 45.5t46.5 128.5q0 90 -49 139t-139 49h-386v-362h396zM614 98q97 0 150.5 47t53.5 133q0 88 -52.5 137
t-147.5 49h-396v-366h392z" />
    <glyph glyph-name="uni029A" unicode="&#x29a;" horiz-adv-x="1016" 
d="M238 514q-60 31 -93 90t-33 134q0 139 92.5 223.5t245.5 84.5q212 0 344 -146t132 -380q0 -235 -135 -385.5t-347 -150.5q-159 0 -255.5 81t-96.5 213q0 81 38.5 142.5t107.5 93.5zM818 520q0 199 -97.5 311.5t-270.5 112.5q-110 0 -169 -53.5t-59 -152.5
q0 -83 40.5 -128.5t115.5 -45.5h186v-104h-186q-85 0 -131.5 -47.5t-46.5 -134.5q0 -92 63.5 -142t180.5 -50q176 0 275 114.5t99 319.5z" />
    <glyph glyph-name="uni029B" unicode="&#x29b;" horiz-adv-x="1098" 
d="M92 516q0 238 131.5 383t344.5 145q106 0 192.5 -44.5t139.5 -123.5v214q0 66 20 115t54 75.5t73 39t83 12.5h26v-100h-24q-62 0 -96 -33t-34 -121v-404h-102q-6 123 -96 195.5t-236 72.5q-175 0 -271.5 -111.5t-96.5 -314.5q0 -204 94 -317t262 -113q134 0 222 88.5
t98 243.5h-344v98h476v-516h-82l-10 242q-48 -121 -144 -189.5t-216 -68.5q-209 0 -336.5 146t-127.5 386z" />
    <glyph glyph-name="uni029C" unicode="&#x29c;" horiz-adv-x="1048" 
d="M112 1024h104v-462h618v462h102v-1024h-102v462h-618v-462h-104v1024z" />
    <glyph glyph-name="uni029D" unicode="&#x29d;" horiz-adv-x="466" 
d="M238 1316h130v-142h-130v142zM354 -94q0 -112 -60.5 -176t-167.5 -64q-112 0 -177 64.5t-65 175.5q0 110 81 182t205 72h82v864h102v-864h126v-100h-126v-154zM126 -236q66 0 96 36.5t30 117.5v142h-62q-88 0 -143 -43t-55 -111q0 -67 35 -104.5t99 -37.5z" />
    <glyph glyph-name="uni029E" unicode="&#x29e;" horiz-adv-x="956" 
d="M222 0h-134l456 510l-472 514h132l412 -440l126 142v298h102v-1358h-102v922z" />
    <glyph glyph-name="uni029F" unicode="&#x29f;" horiz-adv-x="778" 
d="M706 0h-594v1024h104v-926h490v-98z" />
    <glyph glyph-name="uni02A0" unicode="&#x2a0;" horiz-adv-x="1150" 
d="M1172 1336h-24q-62 0 -96 -34t-34 -122v-1514h-102v542q-56 -107 -150.5 -165.5t-215.5 -58.5q-206 0 -332 146t-126 386q0 238 126 383t332 145q122 0 216 -58t150 -164v370q0 66 20 115t54 75.5t73 39t83 12.5h26v-98zM200 516q0 -204 94 -317t264 -113
q171 0 264.5 113t93.5 317q0 203 -93.5 314.5t-264.5 111.5q-170 0 -264 -112t-94 -314z" />
    <glyph glyph-name="uni02A1" unicode="&#x2a1;" horiz-adv-x="1058" 
d="M174 348h308v170q183 70 279.5 197t96.5 297q0 160 -88 248t-248 88q-141 0 -228.5 -88t-93.5 -238h-108q12 190 131.5 309t298.5 119q201 0 322.5 -120t121.5 -318q0 -177 -101 -325t-281 -237v-102h310v-98h-310v-250h-102v250h-308v98z" />
    <glyph glyph-name="uni02A2" unicode="&#x2a2;" horiz-adv-x="1058" 
d="M174 348h302v102q-181 89 -282.5 237.5t-101.5 324.5q0 198 121.5 318t322.5 120q179 0 298.5 -119t131.5 -309h-108q-6 150 -93.5 238t-228.5 88q-160 0 -248 -88t-88 -248q0 -169 97.5 -296t280.5 -198v-170h316v-98h-316v-250h-102v250h-302v98z" />
    <glyph glyph-name="uni02A3" unicode="&#x2a3;" horiz-adv-x="1966" 
d="M1018 1434v-410h856v-118l-646 -808h646v-98h-762v118l644 808h-738v-926h-102v208q-56 -107 -150.5 -165.5t-215.5 -58.5q-206 0 -332 146t-126 386q0 238 126 383t332 145q122 0 216 -58t150 -164v612h102zM200 516q0 -204 94 -317t264 -113q171 0 264.5 113t93.5 317
q0 203 -93.5 314.5t-264.5 111.5q-170 0 -264 -112t-94 -314z" />
    <glyph glyph-name="uni02A4" unicode="&#x2a4;" horiz-adv-x="1916" 
d="M916 1434h102v-410h758v-100l-366 -482q204 -7 309 -116t105 -310q0 -192 -121.5 -309t-320.5 -117q-183 0 -303 82.5t-143 219.5h108q14 -92 103 -146t235 -54q159 0 246.5 85t87.5 239q0 158 -86.5 244t-245.5 86h-84v102l356 476l-638 2v-926h-102v208
q-56 -107 -150.5 -165.5t-215.5 -58.5q-206 0 -332 146t-126 386q0 238 126 383t332 145q122 0 216 -58t150 -164v612zM200 516q0 -204 94 -317t264 -113q171 0 264.5 113t93.5 317q0 203 -93.5 314.5t-264.5 111.5q-170 0 -264 -112t-94 -314z" />
    <glyph glyph-name="uni02A5" unicode="&#x2a5;" horiz-adv-x="1966" 
d="M1468 -198q0 102 16 198h-372v118l644 808h-738v-926h-102v208q-56 -107 -150.5 -165.5t-215.5 -58.5q-206 0 -332 146t-126 386q0 238 126 383t332 145q122 0 216 -58t150 -164v612h102v-410h856v-118l-646 -808h280q45 148 136 231t210 83q106 0 176 -60t70 -150
q0 -93 -61 -147.5t-165 -54.5h-280q-14 -102 -14 -198h-112zM200 516q0 -204 94 -317t264 -113q171 0 264.5 113t93.5 317q0 203 -93.5 314.5t-264.5 111.5q-170 0 -264 -112t-94 -314zM1854 314q-168 0 -236 -216h256q55 0 85.5 27t30.5 77t-37.5 81t-98.5 31z" />
    <glyph glyph-name="uni02A6" unicode="&#x2a6;" horiz-adv-x="1506" 
d="M1078 452l-154 22q-164 23 -241 90t-77 188q0 135 103.5 212.5t280.5 77.5q172 0 278.5 -87t121.5 -239h-106q-20 116 -91.5 171t-204.5 55q-126 0 -203 -51t-77 -135q0 -76 52 -115.5t172 -56.5l154 -20q168 -23 249 -96.5t81 -205.5q0 -119 -92.5 -190.5t-245.5 -71.5
h-536q-129 0 -201.5 74.5t-72.5 207.5v644h-196v98h196v266h102v-266h198v-98h-198v-632q0 -99 41.5 -144.5t132.5 -45.5h524q111 0 177.5 43t66.5 115q0 81 -57 127t-177 63z" />
    <glyph glyph-name="uni02A7" unicode="&#x2a7;" horiz-adv-x="1112" 
d="M814 -52q0 -77 -22 -134.5t-59.5 -88t-80 -45t-90.5 -14.5h-78v98h62q78 0 121 43t43 155v38h-228q-41 0 -77 12.5t-68 39t-50.5 75.5t-18.5 115v684h-196v98h196v266h102v-266h340v168q0 66 21.5 115t57.5 75.5t77.5 39t87.5 12.5h86v-98h-84q-68 0 -105 -34t-37 -122
v-1232zM484 98h226v828h-340v-672q0 -88 30 -122t84 -34z" />
    <glyph glyph-name="uni02A8" unicode="&#x2a8;" horiz-adv-x="1590" 
d="M484 0q-41 0 -77.5 12.5t-68.5 39t-51 75.5t-19 115v684h-196v98h196v266h102v-266h198v-98h-198v-672q0 -88 30 -122t84 -34q106 0 210 104q-110 141 -110 338q0 238 127.5 384t336.5 146q187 0 312.5 -109t139.5 -283h-110q-6 132 -99 210t-243 78
q-171 0 -263.5 -111.5t-92.5 -314.5q0 -158 72 -260q8 8 23 26t17 20q44 50 77 82t81 67.5t103 53t117 17.5q135 0 226.5 -74t91.5 -192q0 -120 -101.5 -196t-248.5 -76q-232 0 -382 122q-126 -130 -284 -130zM1150 110q106 0 172.5 45.5t67.5 124.5q0 73 -55.5 118.5
t-142.5 45.5q-46 0 -88.5 -13.5t-71.5 -30t-66 -52t-55.5 -56t-56.5 -66.5q-12 -16 -20 -22q118 -94 316 -94z" />
    <glyph glyph-name="uni02A9" unicode="&#x2a9;" horiz-adv-x="1498" 
d="M72 926v98h166v168q0 66 21.5 115t57.5 75.5t77.5 39t87.5 12.5h86v-98h-84q-69 0 -106.5 -34t-37.5 -122v-156h330v-162q53 84 142.5 133t193.5 49q176 0 278 -104t102 -284v-730q0 -133 -69.5 -207.5t-194.5 -74.5h-106v98h104q86 0 125 46.5t39 149.5v696
q0 152 -75.5 230t-222.5 78q-137 0 -226.5 -83.5t-89.5 -210.5v-648h-102v926h-228v-926h-102v926h-166z" />
    <glyph glyph-name="uni02AA" unicode="&#x2aa;" horiz-adv-x="1290" 
d="M860 452l-154 22q-164 23 -240 90t-76 188q0 135 102.5 212.5t279.5 77.5q172 0 279.5 -87t122.5 -239h-106q-20 116 -92.5 171t-205.5 55q-126 0 -202 -51t-76 -135q0 -76 51 -115.5t171 -56.5l154 -20q168 -23 249 -96.5t81 -205.5q0 -119 -103 -190.5t-275 -71.5h-432
q-129 0 -202.5 74.5t-73.5 207.5v1152h104v-1140q0 -99 41.5 -144.5t132.5 -45.5h418q130 0 209 43t79 115q0 81 -58 127t-178 63z" />
    <glyph glyph-name="uni02AB" unicode="&#x2ab;" horiz-adv-x="1162" 
d="M216 1434v-410h856v-118l-646 -808h646v-98h-762v118l642 808h-736v-926h-104v1434h104z" />
    <glyph glyph-name="uni02AC" unicode="&#x2ac;" horiz-adv-x="1042" 
d="M72 1332h116l116 -450l156 450h118l144 -450l132 450h116l-192 -594h-108l-150 456l-162 -456h-108zM72 594h116l116 -448l156 448h118l144 -448l132 448h116l-192 -594h-108l-150 456l-162 -456h-108z" />
    <glyph glyph-name="uni02AD" unicode="&#x2ad;" horiz-adv-x="1042" 
d="M930 738h-102v490h-610v-490h-104v594h816v-594zM930 0h-102v492h-610v-492h-104v594h816v-594z" />
    <glyph glyph-name="uni02AE" unicode="&#x2ae;" horiz-adv-x="1028" 
d="M216 410q0 -167 76.5 -247.5t213.5 -80.5q131 0 219.5 89.5t88.5 226.5v626h102v-1358h-102v504q-55 -89 -144 -139.5t-184 -50.5q-168 0 -271 108t-103 302v380q0 88 -32 122t-90 34h-64v98h66q42 0 80 -12.5t71.5 -39t53 -75.5t19.5 -115v-372z" />
    <glyph glyph-name="uni02AF" unicode="&#x2af;" horiz-adv-x="1028" 
d="M216 410q0 -167 76.5 -247.5t213.5 -80.5q131 0 219.5 89.5t88.5 226.5v626h102v-1104q0 -88 34 -122t96 -34h24v-98h-26q-44 0 -83 12.5t-73 39t-54 75.5t-20 115v262q-55 -89 -144 -139.5t-184 -50.5q-168 0 -271 108t-103 302v380q0 88 -32 122t-90 34h-64v98h66
q42 0 80 -12.5t71.5 -39t53 -75.5t19.5 -115v-372z" />
    <glyph glyph-name="uni02BC" unicode="&#x2bc;" horiz-adv-x="256" 
d="M124 1398h132v-174q0 -105 -42.5 -152.5t-101.5 -47.5h-24v70h22q46 0 70 30t24 112v20h-80v142z" />
    <glyph glyph-name="uni02C8" unicode="&#x2c8;" 
d="M112 1434h104v-644h-104v644z" />
    <glyph glyph-name="uni02CC" unicode="&#x2cc;" 
d="M112 310h104v-644h-104v644z" />
    <glyph glyph-name="uni02D0" unicode="&#x2d0;" horiz-adv-x="408" 
d="M98 1024h214l-108 -204zM204 204l108 -204h-214z" />
    <glyph glyph-name="gravecomb" unicode="&#x300;" horiz-adv-x="614" 
d="M60 1332h128l230 -308h-88z" />
    <glyph glyph-name="acutecomb" unicode="&#x301;" horiz-adv-x="614" 
d="M576 1332l-270 -308h-88l228 308h130z" />
    <glyph glyph-name="uni0302" unicode="&#x302;" horiz-adv-x="614" 
d="M254 1352h108l332 -328h-128l-256 262l-258 -262h-130z" />
    <glyph glyph-name="tildecomb" unicode="&#x303;" horiz-adv-x="614" 
d="M160 1310q38 0 73.5 -19t53 -37t47.5 -54q27 -34 39 -48t36.5 -30t48.5 -16q47 0 75.5 52.5t28.5 139.5h88q0 -129 -52.5 -205.5t-139.5 -76.5q-30 0 -55.5 7.5t-48.5 24t-37 30t-35 36.5q-9 11 -30 36.5t-31 36.5t-28.5 22t-36.5 11q-48 0 -76 -53.5t-28 -142.5h-92
q0 133 53.5 209.5t146.5 76.5z" />
    <glyph glyph-name="uni0304" unicode="&#x304;" horiz-adv-x="614" 
d="M0 1160h614v-96h-614v96z" />
    <glyph glyph-name="uni0306" unicode="&#x306;" horiz-adv-x="614" 
d="M632 1310q-11 -131 -96 -208.5t-224 -77.5q-141 0 -227 77.5t-97 208.5h104q22 -200 220 -200q194 0 216 200h104z" />
    <glyph glyph-name="uni0307" unicode="&#x307;" horiz-adv-x="614" 
d="M252 1168h130v-144h-130v144z" />
    <glyph glyph-name="uni0308" unicode="&#x308;" horiz-adv-x="614" 
d="M444 1168h132v-144h-132v144zM36 1168h132v-144h-132v144z" />
    <glyph glyph-name="hookabovecomb" unicode="&#x309;" horiz-adv-x="614" 
d="M258 1024q0 39 21 70t83 82q37 29 50.5 50t13.5 46q0 33 -25 52.5t-67 19.5q-92 0 -114 -88h-100q19 79 77 123.5t141 44.5t132.5 -43t49.5 -115q0 -43 -17 -70t-67 -64q-39 -29 -54.5 -52t-15.5 -56h-108z" />
    <glyph glyph-name="uni030A" unicode="&#x30a;" horiz-adv-x="614" 
d="M572 1276q0 -120 -71.5 -193t-188.5 -73q-118 0 -190 73t-72 193t71.5 193t188.5 73q118 0 190 -73t72 -193zM148 1276q0 -86 43 -133t121 -47q77 0 119.5 47.5t42.5 132.5q0 86 -43 133t-121 47q-77 0 -119.5 -47.5t-42.5 -132.5z" />
    <glyph glyph-name="uni030B" unicode="&#x30b;" horiz-adv-x="614" 
d="M740 1332l-272 -308h-88l230 308h130zM452 1332l-270 -308h-88l230 308h128z" />
    <glyph glyph-name="uni030C" unicode="&#x30c;" horiz-adv-x="614" 
d="M362 1024h-108l-332 328h130l256 -262l258 262h128z" />
    <glyph glyph-name="uni0312" unicode="&#x312;" horiz-adv-x="614" 
d="M386 1024h-132v174q0 105 42.5 152.5t101.5 47.5h24v-68h-22q-45 0 -69.5 -31t-24.5 -113v-18h80v-144z" />
    <glyph glyph-name="uni0313" unicode="&#x313;" horiz-adv-x="614" 
d="M290 1398h132v-174q0 -105 -42.5 -152.5t-101.5 -47.5h-24v70h22q46 0 70 30t24 112v20h-80v142z" />
    <glyph glyph-name="uni0315" unicode="&#x315;" horiz-adv-x="614" 
d="M312 1398h106l-68 -374h-96z" />
    <glyph glyph-name="uni031B" unicode="&#x31b;" horiz-adv-x="614" 
d="M156 1122h124q69 0 106.5 34t37.5 122v54h102v-66q0 -66 -19.5 -115t-52.5 -75.5t-70.5 -39t-79.5 -12.5h-148v98z" />
    <glyph glyph-name="dotbelowcomb" unicode="&#x323;" horiz-adv-x="614" 
d="M244 -150h130v-142h-130v142z" />
    <glyph glyph-name="uni0326" unicode="&#x326;" horiz-adv-x="614" 
d="M262 -78h132v-174q0 -105 -42.5 -152.5t-101.5 -47.5h-24v70h22q46 0 70 30t24 112v18h-80v144z" />
    <glyph glyph-name="uni0327" unicode="&#x327;" horiz-adv-x="614" 
d="M284 20h92l-18 -132h32q93 0 150.5 -57.5t57.5 -150.5q0 -103 -70.5 -163.5t-189.5 -60.5h-182v102h166q82 0 125 32t43 94q0 48 -31 74t-85 26h-68l-50 62z" />
    <glyph glyph-name="uni0328" unicode="&#x328;" horiz-adv-x="614" 
d="M402 0q-123 -92 -165.5 -161.5t-42.5 -158.5q0 -142 168 -142h126v-104h-142q-119 0 -189.5 65.5t-70.5 176.5q0 203 218 324h98z" />
    <glyph glyph-name="uni1E9E" unicode="&#x1e9e;" horiz-adv-x="1238" 
d="M732 714q212 -7 313 -97.5t101 -246.5q0 -167 -123 -268.5t-325 -101.5h-142v102h128q169 0 261.5 70t92.5 198q0 119 -86.5 183.5t-245.5 64.5h-84v102l336 496q-153 40 -308 40q-228 0 -331 -101t-103 -323v-832h-104v844q0 252 134.5 381t397.5 129q207 0 412 -74v-92
z" />
    <glyph glyph-name="uni1EA0" unicode="&#x1ea0;" horiz-adv-x="1260" 
d="M1190 0h-116l-144 386h-598l-142 -386h-118l502 1332h116zM628 1196l-260 -712h526zM564 -150h130v-142h-130v142z" />
    <glyph glyph-name="uni1EA1" unicode="&#x1ea1;" horiz-adv-x="1026" 
d="M912 686v-686h-104v194q-61 -99 -160.5 -156.5t-217.5 -57.5q-149 0 -243.5 83t-94.5 215q0 118 76.5 190.5t211.5 81.5l298 22q70 4 100 30t30 82v4q0 108 -83.5 181t-206.5 73q-281 0 -308 -242h-110q11 156 123.5 250t292.5 94q169 0 282.5 -103t113.5 -255zM198 278
q0 -90 68 -143t184 -53q155 0 256.5 104.5t101.5 263.5v30l-396 -28q-214 -15 -214 -174zM502 -150h130v-142h-130v142z" />
    <glyph glyph-name="uni1EA2" unicode="&#x1ea2;" horiz-adv-x="1260" 
d="M570 1434q0 39 21 70t83 82q37 29 50.5 50t13.5 46q0 33 -25 52.5t-67 19.5q-92 0 -114 -88h-100q19 79 77 123.5t141 44.5t132.5 -43t49.5 -115q0 -43 -17 -70t-67 -64q-39 -29 -54.5 -52t-15.5 -56h-108zM1190 0h-116l-144 386h-598l-142 -386h-118l502 1332h116z
M628 1196l-260 -712h526z" />
    <glyph glyph-name="uni1EA3" unicode="&#x1ea3;" horiz-adv-x="1026" 
d="M456 1146q0 39 21 70t83 82q37 29 50.5 50t13.5 46q0 33 -25 52.5t-67 19.5q-92 0 -114 -88h-100q19 79 77 123.5t141 44.5t132.5 -43t49.5 -115q0 -43 -17 -70t-67 -64q-39 -29 -54.5 -52t-15.5 -56h-108zM912 686v-686h-104v194q-61 -99 -160.5 -156.5t-217.5 -57.5
q-149 0 -243.5 83t-94.5 215q0 118 76.5 190.5t211.5 81.5l298 22q70 4 100 30t30 82v4q0 108 -83.5 181t-206.5 73q-281 0 -308 -242h-110q11 156 123.5 250t292.5 94q169 0 282.5 -103t113.5 -255zM198 278q0 -90 68 -143t184 -53q155 0 256.5 104.5t101.5 263.5v30
l-396 -28q-214 -15 -214 -174z" />
    <glyph glyph-name="uni1EA4" unicode="&#x1ea4;" horiz-adv-x="1260" 
d="M1258 1946l-270 -308h-88l228 308h130zM566 1762h108l332 -328h-128l-256 262l-258 -262h-130zM1190 0h-116l-144 386h-598l-142 -386h-118l502 1332h116zM628 1196l-260 -712h526z" />
    <glyph glyph-name="uni1EA5" unicode="&#x1ea5;" horiz-adv-x="1026" 
d="M1170 1700l-270 -308h-88l228 308h130zM452 1474h108l332 -328h-128l-256 262l-258 -262h-130zM912 686v-686h-104v194q-61 -99 -160.5 -156.5t-217.5 -57.5q-149 0 -243.5 83t-94.5 215q0 118 76.5 190.5t211.5 81.5l298 22q70 4 100 30t30 82v4q0 108 -83.5 181
t-206.5 73q-281 0 -308 -242h-110q11 156 123.5 250t292.5 94q169 0 282.5 -103t113.5 -255zM198 278q0 -90 68 -143t184 -53q155 0 256.5 104.5t101.5 263.5v30l-396 -28q-214 -15 -214 -174z" />
    <glyph glyph-name="uni1EA6" unicode="&#x1ea6;" horiz-adv-x="1260" 
d="M748 1946h128l230 -308h-88zM566 1762h108l332 -328h-128l-256 262l-258 -262h-130zM1190 0h-116l-144 386h-598l-142 -386h-118l502 1332h116zM628 1196l-260 -712h526z" />
    <glyph glyph-name="uni1EA7" unicode="&#x1ea7;" horiz-adv-x="1026" 
d="M648 1700h128l230 -308h-88zM452 1474h108l332 -328h-128l-256 262l-258 -262h-130zM912 686v-686h-104v194q-61 -99 -160.5 -156.5t-217.5 -57.5q-149 0 -243.5 83t-94.5 215q0 118 76.5 190.5t211.5 81.5l298 22q70 4 100 30t30 82v4q0 108 -83.5 181t-206.5 73
q-281 0 -308 -242h-110q11 156 123.5 250t292.5 94q169 0 282.5 -103t113.5 -255zM198 278q0 -90 68 -143t184 -53q155 0 256.5 104.5t101.5 263.5v30l-396 -28q-214 -15 -214 -174z" />
    <glyph glyph-name="uni1EA8" unicode="&#x1ea8;" horiz-adv-x="1260" 
d="M954 1638q0 39 21 70t83 82q37 29 50.5 50t13.5 46q0 33 -25 52.5t-67 19.5q-92 0 -114 -88h-100q19 79 77 123.5t141 44.5t132.5 -43t49.5 -115q0 -43 -17 -70t-67 -64q-39 -29 -54.5 -52t-15.5 -56h-108zM566 1762h108l332 -328h-128l-256 262l-258 -262h-130zM1190 0
h-116l-144 386h-598l-142 -386h-118l502 1332h116zM628 1196l-260 -712h526z" />
    <glyph glyph-name="uni1EA9" unicode="&#x1ea9;" horiz-adv-x="1026" 
d="M804 1392q0 39 21 70t83 82q37 29 50.5 50t13.5 46q0 33 -25 52.5t-67 19.5q-92 0 -114 -88h-100q19 79 77 123.5t141 44.5t132.5 -43t49.5 -115q0 -43 -17 -70t-67 -64q-39 -29 -54.5 -52t-15.5 -56h-108zM452 1474h108l332 -328h-128l-256 262l-258 -262h-130zM912 686
v-686h-104v194q-61 -99 -160.5 -156.5t-217.5 -57.5q-149 0 -243.5 83t-94.5 215q0 118 76.5 190.5t211.5 81.5l298 22q70 4 100 30t30 82v4q0 108 -83.5 181t-206.5 73q-281 0 -308 -242h-110q11 156 123.5 250t292.5 94q169 0 282.5 -103t113.5 -255zM198 278
q0 -90 68 -143t184 -53q155 0 256.5 104.5t101.5 263.5v30l-396 -28q-214 -15 -214 -174z" />
    <glyph glyph-name="uni1EAA" unicode="&#x1eaa;" horiz-adv-x="1260" 
d="M476 2138q38 0 73.5 -19t53 -37t47.5 -54q27 -34 39 -48t36.5 -30t48.5 -16q47 0 75.5 52.5t28.5 139.5h88q0 -129 -52.5 -205.5t-139.5 -76.5q-30 0 -55.5 7.5t-48.5 24t-37 30t-35 36.5q-9 11 -30 36.5t-31 36.5t-28.5 22t-36.5 11q-48 0 -76 -53.5t-28 -142.5h-92
q0 133 53.5 209.5t146.5 76.5zM566 1762h108l332 -328h-128l-256 262l-258 -262h-130zM1190 0h-116l-144 386h-598l-142 -386h-118l502 1332h116zM628 1196l-260 -712h526z" />
    <glyph glyph-name="uni1EAB" unicode="&#x1eab;" horiz-adv-x="1026" 
d="M362 1872q38 0 73.5 -19t53 -37t47.5 -54q27 -34 39 -48t36.5 -30t48.5 -16q47 0 75.5 52.5t28.5 139.5h88q0 -129 -52.5 -205.5t-139.5 -76.5q-30 0 -55.5 7.5t-48.5 24t-37 30t-35 36.5q-9 11 -30 36.5t-31 36.5t-28.5 22t-36.5 11q-48 0 -76 -53.5t-28 -142.5h-92
q0 133 53.5 209.5t146.5 76.5zM452 1474h108l332 -328h-128l-256 262l-258 -262h-130zM912 686v-686h-104v194q-61 -99 -160.5 -156.5t-217.5 -57.5q-149 0 -243.5 83t-94.5 215q0 118 76.5 190.5t211.5 81.5l298 22q70 4 100 30t30 82v4q0 108 -83.5 181t-206.5 73
q-281 0 -308 -242h-110q11 156 123.5 250t292.5 94q169 0 282.5 -103t113.5 -255zM198 278q0 -90 68 -143t184 -53q155 0 256.5 104.5t101.5 263.5v30l-396 -28q-214 -15 -214 -174z" />
    <glyph glyph-name="uni1EAC" unicode="&#x1eac;" horiz-adv-x="1260" 
d="M566 1762h108l332 -328h-128l-256 262l-258 -262h-130zM1190 0h-116l-144 386h-598l-142 -386h-118l502 1332h116zM628 1196l-260 -712h526zM564 -150h130v-142h-130v142z" />
    <glyph glyph-name="uni1EAD" unicode="&#x1ead;" horiz-adv-x="1026" 
d="M452 1474h108l332 -328h-128l-256 262l-258 -262h-130zM912 686v-686h-104v194q-61 -99 -160.5 -156.5t-217.5 -57.5q-149 0 -243.5 83t-94.5 215q0 118 76.5 190.5t211.5 81.5l298 22q70 4 100 30t30 82v4q0 108 -83.5 181t-206.5 73q-281 0 -308 -242h-110
q11 156 123.5 250t292.5 94q169 0 282.5 -103t113.5 -255zM198 278q0 -90 68 -143t184 -53q155 0 256.5 104.5t101.5 263.5v30l-396 -28q-214 -15 -214 -174zM502 -150h130v-142h-130v142z" />
    <glyph glyph-name="uni1EAE" unicode="&#x1eae;" horiz-adv-x="1260" 
d="M888 2010l-270 -308h-88l228 308h130zM944 1720q-11 -131 -96 -208.5t-224 -77.5q-141 0 -227 77.5t-97 208.5h104q22 -200 220 -200q194 0 216 200h104zM1190 0h-116l-144 386h-598l-142 -386h-118l502 1332h116zM628 1196l-260 -712h526z" />
    <glyph glyph-name="uni1EAF" unicode="&#x1eaf;" horiz-adv-x="1026" 
d="M774 1742l-270 -308h-88l228 308h130zM830 1432q-11 -131 -96 -208.5t-224 -77.5q-141 0 -227 77.5t-97 208.5h104q22 -200 220 -200q194 0 216 200h104zM912 686v-686h-104v194q-61 -99 -160.5 -156.5t-217.5 -57.5q-149 0 -243.5 83t-94.5 215q0 118 76.5 190.5
t211.5 81.5l298 22q70 4 100 30t30 82v4q0 108 -83.5 181t-206.5 73q-281 0 -308 -242h-110q11 156 123.5 250t292.5 94q169 0 282.5 -103t113.5 -255zM198 278q0 -90 68 -143t184 -53q155 0 256.5 104.5t101.5 263.5v30l-396 -28q-214 -15 -214 -174z" />
    <glyph glyph-name="uni1EB0" unicode="&#x1eb0;" horiz-adv-x="1260" 
d="M372 2010h128l230 -308h-88zM944 1720q-11 -131 -96 -208.5t-224 -77.5q-141 0 -227 77.5t-97 208.5h104q22 -200 220 -200q194 0 216 200h104zM1190 0h-116l-144 386h-598l-142 -386h-118l502 1332h116zM628 1196l-260 -712h526z" />
    <glyph glyph-name="uni1EB1" unicode="&#x1eb1;" horiz-adv-x="1026" 
d="M258 1742h128l230 -308h-88zM830 1432q-11 -131 -96 -208.5t-224 -77.5q-141 0 -227 77.5t-97 208.5h104q22 -200 220 -200q194 0 216 200h104zM912 686v-686h-104v194q-61 -99 -160.5 -156.5t-217.5 -57.5q-149 0 -243.5 83t-94.5 215q0 118 76.5 190.5t211.5 81.5
l298 22q70 4 100 30t30 82v4q0 108 -83.5 181t-206.5 73q-281 0 -308 -242h-110q11 156 123.5 250t292.5 94q169 0 282.5 -103t113.5 -255zM198 278q0 -90 68 -143t184 -53q155 0 256.5 104.5t101.5 263.5v30l-396 -28q-214 -15 -214 -174z" />
    <glyph glyph-name="uni1EB2" unicode="&#x1eb2;" horiz-adv-x="1260" 
d="M570 1702q0 39 21 70t83 82q37 29 50.5 50t13.5 46q0 33 -25 52.5t-67 19.5q-92 0 -114 -88h-100q19 79 77 123.5t141 44.5t132.5 -43t49.5 -115q0 -43 -17 -70t-67 -64q-39 -29 -54.5 -52t-15.5 -56h-108zM944 1720q-11 -131 -96 -208.5t-224 -77.5q-141 0 -227 77.5
t-97 208.5h104q22 -200 220 -200q194 0 216 200h104zM1190 0h-116l-144 386h-598l-142 -386h-118l502 1332h116zM628 1196l-260 -712h526z" />
    <glyph glyph-name="uni1EB3" unicode="&#x1eb3;" horiz-adv-x="1026" 
d="M456 1434q0 39 21 70t83 82q37 29 50.5 50t13.5 46q0 33 -25 52.5t-67 19.5q-92 0 -114 -88h-100q19 79 77 123.5t141 44.5t132.5 -43t49.5 -115q0 -43 -17 -70t-67 -64q-39 -29 -54.5 -52t-15.5 -56h-108zM830 1432q-11 -131 -96 -208.5t-224 -77.5q-141 0 -227 77.5
t-97 208.5h104q22 -200 220 -200q194 0 216 200h104zM912 686v-686h-104v194q-61 -99 -160.5 -156.5t-217.5 -57.5q-149 0 -243.5 83t-94.5 215q0 118 76.5 190.5t211.5 81.5l298 22q70 4 100 30t30 82v4q0 108 -83.5 181t-206.5 73q-281 0 -308 -242h-110q11 156 123.5 250
t292.5 94q169 0 282.5 -103t113.5 -255zM198 278q0 -90 68 -143t184 -53q155 0 256.5 104.5t101.5 263.5v30l-396 -28q-214 -15 -214 -174z" />
    <glyph glyph-name="uni1EB4" unicode="&#x1eb4;" horiz-adv-x="1260" 
d="M472 2090q38 0 73.5 -19t53 -37t47.5 -54q27 -34 39 -48t36.5 -30t48.5 -16q47 0 75.5 52.5t28.5 139.5h88q0 -129 -52.5 -205.5t-139.5 -76.5q-30 0 -55.5 7.5t-48.5 24t-37 30t-35 36.5q-9 11 -30 36.5t-31 36.5t-28.5 22t-36.5 11q-48 0 -76 -53.5t-28 -142.5h-92
q0 133 53.5 209.5t146.5 76.5zM944 1720q-11 -131 -96 -208.5t-224 -77.5q-141 0 -227 77.5t-97 208.5h104q22 -200 220 -200q194 0 216 200h104zM1190 0h-116l-144 386h-598l-142 -386h-118l502 1332h116zM628 1196l-260 -712h526z" />
    <glyph glyph-name="uni1EB5" unicode="&#x1eb5;" horiz-adv-x="1026" 
d="M358 1822q38 0 73.5 -19t53 -37t47.5 -54q27 -34 39 -48t36.5 -30t48.5 -16q47 0 75.5 52.5t28.5 139.5h88q0 -129 -52.5 -205.5t-139.5 -76.5q-30 0 -55.5 7.5t-48.5 24t-37 30t-35 36.5q-9 11 -30 36.5t-31 36.5t-28.5 22t-36.5 11q-48 0 -76 -53.5t-28 -142.5h-92
q0 133 53.5 209.5t146.5 76.5zM830 1432q-11 -131 -96 -208.5t-224 -77.5q-141 0 -227 77.5t-97 208.5h104q22 -200 220 -200q194 0 216 200h104zM912 686v-686h-104v194q-61 -99 -160.5 -156.5t-217.5 -57.5q-149 0 -243.5 83t-94.5 215q0 118 76.5 190.5t211.5 81.5
l298 22q70 4 100 30t30 82v4q0 108 -83.5 181t-206.5 73q-281 0 -308 -242h-110q11 156 123.5 250t292.5 94q169 0 282.5 -103t113.5 -255zM198 278q0 -90 68 -143t184 -53q155 0 256.5 104.5t101.5 263.5v30l-396 -28q-214 -15 -214 -174z" />
    <glyph glyph-name="uni1EB6" unicode="&#x1eb6;" horiz-adv-x="1260" 
d="M944 1720q-11 -131 -96 -208.5t-224 -77.5q-141 0 -227 77.5t-97 208.5h104q22 -200 220 -200q194 0 216 200h104zM1190 0h-116l-144 386h-598l-142 -386h-118l502 1332h116zM628 1196l-260 -712h526zM564 -150h130v-142h-130v142z" />
    <glyph glyph-name="uni1EB7" unicode="&#x1eb7;" horiz-adv-x="1026" 
d="M830 1432q-11 -131 -96 -208.5t-224 -77.5q-141 0 -227 77.5t-97 208.5h104q22 -200 220 -200q194 0 216 200h104zM912 686v-686h-104v194q-61 -99 -160.5 -156.5t-217.5 -57.5q-149 0 -243.5 83t-94.5 215q0 118 76.5 190.5t211.5 81.5l298 22q70 4 100 30t30 82v4
q0 108 -83.5 181t-206.5 73q-281 0 -308 -242h-110q11 156 123.5 250t292.5 94q169 0 282.5 -103t113.5 -255zM198 278q0 -90 68 -143t184 -53q155 0 256.5 104.5t101.5 263.5v30l-396 -28q-214 -15 -214 -174zM502 -150h130v-142h-130v142z" />
    <glyph glyph-name="uni1EB8" unicode="&#x1eb8;" horiz-adv-x="1084" 
d="M994 1332v-100h-778v-500h720v-100h-720v-534h778v-98h-882v1332h882zM508 -150h130v-142h-130v142z" />
    <glyph glyph-name="uni1EB9" unicode="&#x1eb9;" horiz-adv-x="1112" 
d="M92 516q0 244 126.5 386t341.5 142q201 0 330.5 -141t129.5 -359v-60h-820q7 -195 102.5 -296.5t269.5 -101.5q137 0 222 62.5t106 169.5h108q-35 -162 -144 -248t-292 -86q-221 0 -350.5 143t-129.5 389zM560 942q-162 0 -252.5 -91.5t-105.5 -268.5h708
q-13 165 -108.5 262.5t-241.5 97.5zM512 -150h130v-142h-130v142z" />
    <glyph glyph-name="uni1EBA" unicode="&#x1eba;" horiz-adv-x="1084" 
d="M510 1434q0 39 21 70t83 82q37 29 50.5 50t13.5 46q0 33 -25 52.5t-67 19.5q-92 0 -114 -88h-100q19 79 77 123.5t141 44.5t132.5 -43t49.5 -115q0 -43 -17 -70t-67 -64q-39 -29 -54.5 -52t-15.5 -56h-108zM994 1332v-100h-778v-500h720v-100h-720v-534h778v-98h-882
v1332h882z" />
    <glyph glyph-name="uni1EBB" unicode="&#x1ebb;" horiz-adv-x="1112" 
d="M494 1146q0 39 21 70t83 82q37 29 50.5 50t13.5 46q0 33 -25 52.5t-67 19.5q-92 0 -114 -88h-100q19 79 77 123.5t141 44.5t132.5 -43t49.5 -115q0 -43 -17 -70t-67 -64q-39 -29 -54.5 -52t-15.5 -56h-108zM92 516q0 244 126.5 386t341.5 142q201 0 330.5 -141
t129.5 -359v-60h-820q7 -195 102.5 -296.5t269.5 -101.5q137 0 222 62.5t106 169.5h108q-35 -162 -144 -248t-292 -86q-221 0 -350.5 143t-129.5 389zM560 942q-162 0 -252.5 -91.5t-105.5 -268.5h708q-13 165 -108.5 262.5t-241.5 97.5z" />
    <glyph glyph-name="uni1EBC" unicode="&#x1ebc;" horiz-adv-x="1084" 
d="M412 1720q38 0 73.5 -19t53 -37t47.5 -54q27 -34 39 -48t36.5 -30t48.5 -16q47 0 75.5 52.5t28.5 139.5h88q0 -129 -52.5 -205.5t-139.5 -76.5q-30 0 -55.5 7.5t-48.5 24t-37 30t-35 36.5q-9 11 -30 36.5t-31 36.5t-28.5 22t-36.5 11q-48 0 -76 -53.5t-28 -142.5h-92
q0 133 53.5 209.5t146.5 76.5zM994 1332v-100h-778v-500h720v-100h-720v-534h778v-98h-882v1332h882z" />
    <glyph glyph-name="uni1EBD" unicode="&#x1ebd;" horiz-adv-x="1112" 
d="M396 1432q38 0 73.5 -19t53 -37t47.5 -54q27 -34 39 -48t36.5 -30t48.5 -16q47 0 75.5 52.5t28.5 139.5h88q0 -129 -52.5 -205.5t-139.5 -76.5q-30 0 -55.5 7.5t-48.5 24t-37 30t-35 36.5q-9 11 -30 36.5t-31 36.5t-28.5 22t-36.5 11q-48 0 -76 -53.5t-28 -142.5h-92
q0 133 53.5 209.5t146.5 76.5zM92 516q0 244 126.5 386t341.5 142q201 0 330.5 -141t129.5 -359v-60h-820q7 -195 102.5 -296.5t269.5 -101.5q137 0 222 62.5t106 169.5h108q-35 -162 -144 -248t-292 -86q-221 0 -350.5 143t-129.5 389zM560 942q-162 0 -252.5 -91.5
t-105.5 -268.5h708q-13 165 -108.5 262.5t-241.5 97.5z" />
    <glyph glyph-name="uni1EBE" unicode="&#x1ebe;" horiz-adv-x="1084" 
d="M1214 1946l-270 -308h-88l228 308h130zM506 1762h108l332 -328h-128l-256 262l-258 -262h-130zM994 1332v-100h-778v-500h720v-100h-720v-534h778v-98h-882v1332h882z" />
    <glyph glyph-name="uni1EBF" unicode="&#x1ebf;" horiz-adv-x="1112" 
d="M1190 1700l-270 -308h-88l228 308h130zM490 1474h108l332 -328h-128l-256 262l-258 -262h-130zM92 516q0 244 126.5 386t341.5 142q201 0 330.5 -141t129.5 -359v-60h-820q7 -195 102.5 -296.5t269.5 -101.5q137 0 222 62.5t106 169.5h108q-35 -162 -144 -248t-292 -86
q-221 0 -350.5 143t-129.5 389zM560 942q-162 0 -252.5 -91.5t-105.5 -268.5h708q-13 165 -108.5 262.5t-241.5 97.5z" />
    <glyph glyph-name="uni1EC0" unicode="&#x1ec0;" horiz-adv-x="1084" 
d="M714 1946h128l230 -308h-88zM506 1762h108l332 -328h-128l-256 262l-258 -262h-130zM994 1332v-100h-778v-500h720v-100h-720v-534h778v-98h-882v1332h882z" />
    <glyph glyph-name="uni1EC1" unicode="&#x1ec1;" horiz-adv-x="1112" 
d="M702 1700h128l230 -308h-88zM490 1474h108l332 -328h-128l-256 262l-258 -262h-130zM92 516q0 244 126.5 386t341.5 142q201 0 330.5 -141t129.5 -359v-60h-820q7 -195 102.5 -296.5t269.5 -101.5q137 0 222 62.5t106 169.5h108q-35 -162 -144 -248t-292 -86
q-221 0 -350.5 143t-129.5 389zM560 942q-162 0 -252.5 -91.5t-105.5 -268.5h708q-13 165 -108.5 262.5t-241.5 97.5z" />
    <glyph glyph-name="uni1EC2" unicode="&#x1ec2;" horiz-adv-x="1084" 
d="M878 1642q0 39 21 70t83 82q37 29 50.5 50t13.5 46q0 33 -25 52.5t-67 19.5q-92 0 -114 -88h-100q19 79 77 123.5t141 44.5t132.5 -43t49.5 -115q0 -43 -17 -70t-67 -64q-39 -29 -54.5 -52t-15.5 -56h-108zM506 1762h108l332 -328h-128l-256 262l-258 -262h-130z
M994 1332v-100h-778v-500h720v-100h-720v-534h778v-98h-882v1332h882z" />
    <glyph glyph-name="uni1EC3" unicode="&#x1ec3;" horiz-adv-x="1112" 
d="M870 1394q0 39 21 70t83 82q37 29 50.5 50t13.5 46q0 33 -25 52.5t-67 19.5q-92 0 -114 -88h-100q19 79 77 123.5t141 44.5t132.5 -43t49.5 -115q0 -43 -17 -70t-67 -64q-39 -29 -54.5 -52t-15.5 -56h-108zM490 1474h108l332 -328h-128l-256 262l-258 -262h-130zM92 516
q0 244 126.5 386t341.5 142q201 0 330.5 -141t129.5 -359v-60h-820q7 -195 102.5 -296.5t269.5 -101.5q137 0 222 62.5t106 169.5h108q-35 -162 -144 -248t-292 -86q-221 0 -350.5 143t-129.5 389zM560 942q-162 0 -252.5 -91.5t-105.5 -268.5h708q-13 165 -108.5 262.5
t-241.5 97.5z" />
    <glyph glyph-name="uni1EC4" unicode="&#x1ec4;" horiz-adv-x="1084" 
d="M416 2158q38 0 73.5 -19t53 -37t47.5 -54q27 -34 39 -48t36.5 -30t48.5 -16q47 0 75.5 52.5t28.5 139.5h88q0 -129 -52.5 -205.5t-139.5 -76.5q-30 0 -55.5 7.5t-48.5 24t-37 30t-35 36.5q-9 11 -30 36.5t-31 36.5t-28.5 22t-36.5 11q-48 0 -76 -53.5t-28 -142.5h-92
q0 133 53.5 209.5t146.5 76.5zM506 1762h108l332 -328h-128l-256 262l-258 -262h-130zM994 1332v-100h-778v-500h720v-100h-720v-534h778v-98h-882v1332h882z" />
    <glyph glyph-name="uni1EC5" unicode="&#x1ec5;" horiz-adv-x="1112" 
d="M400 1872q38 0 73.5 -19t53 -37t47.5 -54q27 -34 39 -48t36.5 -30t48.5 -16q47 0 75.5 52.5t28.5 139.5h88q0 -129 -52.5 -205.5t-139.5 -76.5q-30 0 -55.5 7.5t-48.5 24t-37 30t-35 36.5q-9 11 -30 36.5t-31 36.5t-28.5 22t-36.5 11q-48 0 -76 -53.5t-28 -142.5h-92
q0 133 53.5 209.5t146.5 76.5zM490 1474h108l332 -328h-128l-256 262l-258 -262h-130zM92 516q0 244 126.5 386t341.5 142q201 0 330.5 -141t129.5 -359v-60h-820q7 -195 102.5 -296.5t269.5 -101.5q137 0 222 62.5t106 169.5h108q-35 -162 -144 -248t-292 -86
q-221 0 -350.5 143t-129.5 389zM560 942q-162 0 -252.5 -91.5t-105.5 -268.5h708q-13 165 -108.5 262.5t-241.5 97.5z" />
    <glyph glyph-name="uni1EC6" unicode="&#x1ec6;" horiz-adv-x="1084" 
d="M506 1762h108l332 -328h-128l-256 262l-258 -262h-130zM994 1332v-100h-778v-500h720v-100h-720v-534h778v-98h-882v1332h882zM508 -150h130v-142h-130v142z" />
    <glyph glyph-name="uni1EC7" unicode="&#x1ec7;" horiz-adv-x="1112" 
d="M490 1474h108l332 -328h-128l-256 262l-258 -262h-130zM92 516q0 244 126.5 386t341.5 142q201 0 330.5 -141t129.5 -359v-60h-820q7 -195 102.5 -296.5t269.5 -101.5q137 0 222 62.5t106 169.5h108q-35 -162 -144 -248t-292 -86q-221 0 -350.5 143t-129.5 389zM560 942
q-162 0 -252.5 -91.5t-105.5 -268.5h708q-13 165 -108.5 262.5t-241.5 97.5zM512 -150h130v-142h-130v142z" />
    <glyph glyph-name="uni1EC8" unicode="&#x1ec8;" 
d="M104 1434q0 39 21 70t83 82q37 29 50.5 50t13.5 46q0 33 -25 52.5t-67 19.5q-92 0 -114 -88h-100q19 79 77 123.5t141 44.5t132.5 -43t49.5 -115q0 -43 -17 -70t-67 -64q-39 -29 -54.5 -52t-15.5 -56h-108zM112 1332h104v-1332h-104v1332z" />
    <glyph glyph-name="uni1EC9" unicode="&#x1ec9;" 
d="M102 1146q0 39 21 70t83 82q37 29 50.5 50t13.5 46q0 33 -25 52.5t-67 19.5q-92 0 -114 -88h-100q19 79 77 123.5t141 44.5t132.5 -43t49.5 -115q0 -43 -17 -70t-67 -64q-39 -29 -54.5 -52t-15.5 -56h-108zM112 1024h104v-1024h-104v1024z" />
    <glyph glyph-name="uni1ECA" unicode="&#x1eca;" 
d="M112 1332h104v-1332h-104v1332zM100 -150h130v-142h-130v142z" />
    <glyph glyph-name="uni1ECB" unicode="&#x1ecb;" 
d="M98 1316h132v-142h-132v142zM112 1024h104v-1024h-104v1024zM102 -150h130v-142h-130v142z" />
    <glyph glyph-name="uni1ECC" unicode="&#x1ecc;" horiz-adv-x="1360" 
d="M92 650q0 316 162 509t428 193q264 0 426 -193t162 -509q0 -300 -162 -483t-426 -183q-266 0 -428 183t-162 483zM1162 650q0 284 -126 442t-354 158q-229 0 -355.5 -158t-126.5 -442q0 -267 126.5 -415.5t355.5 -148.5q228 0 354 148.5t126 415.5zM616 -150h130v-142
h-130v142z" />
    <glyph glyph-name="uni1ECD" unicode="&#x1ecd;" horiz-adv-x="1116" 
d="M92 516q0 238 129 383t339 145q209 0 336.5 -145t127.5 -383q0 -240 -127.5 -386t-336.5 -146q-210 0 -339 146t-129 386zM916 516q0 203 -93.5 314.5t-262.5 111.5q-171 0 -265.5 -112t-94.5 -314q0 -204 94.5 -317t265.5 -113q169 0 262.5 113t93.5 317zM496 -150h130
v-142h-130v142z" />
    <glyph glyph-name="uni1ECE" unicode="&#x1ece;" horiz-adv-x="1360" 
d="M622 1434q0 39 21 70t83 82q37 29 50.5 50t13.5 46q0 33 -25 52.5t-67 19.5q-92 0 -114 -88h-100q19 79 77 123.5t141 44.5t132.5 -43t49.5 -115q0 -43 -17 -70t-67 -64q-39 -29 -54.5 -52t-15.5 -56h-108zM92 650q0 316 162 509t428 193q264 0 426 -193t162 -509
q0 -300 -162 -483t-426 -183q-266 0 -428 183t-162 483zM1162 650q0 284 -126 442t-354 158q-229 0 -355.5 -158t-126.5 -442q0 -267 126.5 -415.5t355.5 -148.5q228 0 354 148.5t126 415.5z" />
    <glyph glyph-name="uni1ECF" unicode="&#x1ecf;" horiz-adv-x="1116" 
d="M496 1146q0 39 21 70t83 82q37 29 50.5 50t13.5 46q0 33 -25 52.5t-67 19.5q-92 0 -114 -88h-100q19 79 77 123.5t141 44.5t132.5 -43t49.5 -115q0 -43 -17 -70t-67 -64q-39 -29 -54.5 -52t-15.5 -56h-108zM92 516q0 238 129 383t339 145q209 0 336.5 -145t127.5 -383
q0 -240 -127.5 -386t-336.5 -146q-210 0 -339 146t-129 386zM916 516q0 203 -93.5 314.5t-262.5 111.5q-171 0 -265.5 -112t-94.5 -314q0 -204 94.5 -317t265.5 -113q169 0 262.5 113t93.5 317z" />
    <glyph glyph-name="uni1ED0" unicode="&#x1ed0;" horiz-adv-x="1360" 
d="M1332 1946l-270 -308h-88l228 308h130zM618 1762h108l332 -328h-128l-256 262l-258 -262h-130zM92 650q0 316 162 509t428 193q264 0 426 -193t162 -509q0 -300 -162 -483t-426 -183q-266 0 -428 183t-162 483zM1162 650q0 284 -126 442t-354 158q-229 0 -355.5 -158
t-126.5 -442q0 -267 126.5 -415.5t355.5 -148.5q228 0 354 148.5t126 415.5z" />
    <glyph glyph-name="uni1ED1" unicode="&#x1ed1;" horiz-adv-x="1116" 
d="M1188 1700l-270 -308h-88l228 308h130zM492 1474h108l332 -328h-128l-256 262l-258 -262h-130zM92 516q0 238 129 383t339 145q209 0 336.5 -145t127.5 -383q0 -240 -127.5 -386t-336.5 -146q-210 0 -339 146t-129 386zM916 516q0 203 -93.5 314.5t-262.5 111.5
q-171 0 -265.5 -112t-94.5 -314q0 -204 94.5 -317t265.5 -113q169 0 262.5 113t93.5 317z" />
    <glyph glyph-name="uni1ED2" unicode="&#x1ed2;" horiz-adv-x="1360" 
d="M826 1946h128l230 -308h-88zM618 1762h108l332 -328h-128l-256 262l-258 -262h-130zM92 650q0 316 162 509t428 193q264 0 426 -193t162 -509q0 -300 -162 -483t-426 -183q-266 0 -428 183t-162 483zM1162 650q0 284 -126 442t-354 158q-229 0 -355.5 -158t-126.5 -442
q0 -267 126.5 -415.5t355.5 -148.5q228 0 354 148.5t126 415.5z" />
    <glyph glyph-name="uni1ED3" unicode="&#x1ed3;" horiz-adv-x="1116" 
d="M670 1700h128l230 -308h-88zM492 1474h108l332 -328h-128l-256 262l-258 -262h-130zM92 516q0 238 129 383t339 145q209 0 336.5 -145t127.5 -383q0 -240 -127.5 -386t-336.5 -146q-210 0 -339 146t-129 386zM916 516q0 203 -93.5 314.5t-262.5 111.5q-171 0 -265.5 -112
t-94.5 -314q0 -204 94.5 -317t265.5 -113q169 0 262.5 113t93.5 317z" />
    <glyph glyph-name="uni1ED4" unicode="&#x1ed4;" horiz-adv-x="1360" 
d="M1028 1638q0 39 21 70t83 82q37 29 50.5 50t13.5 46q0 33 -25 52.5t-67 19.5q-92 0 -114 -88h-100q19 79 77 123.5t141 44.5t132.5 -43t49.5 -115q0 -43 -17 -70t-67 -64q-39 -29 -54.5 -52t-15.5 -56h-108zM618 1762h108l332 -328h-128l-256 262l-258 -262h-130zM92 650
q0 316 162 509t428 193q264 0 426 -193t162 -509q0 -300 -162 -483t-426 -183q-266 0 -428 183t-162 483zM1162 650q0 284 -126 442t-354 158q-229 0 -355.5 -158t-126.5 -442q0 -267 126.5 -415.5t355.5 -148.5q228 0 354 148.5t126 415.5z" />
    <glyph glyph-name="uni1ED5" unicode="&#x1ed5;" horiz-adv-x="1116" 
d="M840 1394q0 39 21 70t83 82q37 29 50.5 50t13.5 46q0 33 -25 52.5t-67 19.5q-92 0 -114 -88h-100q19 79 77 123.5t141 44.5t132.5 -43t49.5 -115q0 -43 -17 -70t-67 -64q-39 -29 -54.5 -52t-15.5 -56h-108zM492 1474h108l332 -328h-128l-256 262l-258 -262h-130zM92 516
q0 238 129 383t339 145q209 0 336.5 -145t127.5 -383q0 -240 -127.5 -386t-336.5 -146q-210 0 -339 146t-129 386zM916 516q0 203 -93.5 314.5t-262.5 111.5q-171 0 -265.5 -112t-94.5 -314q0 -204 94.5 -317t265.5 -113q169 0 262.5 113t93.5 317z" />
    <glyph glyph-name="uni1ED6" unicode="&#x1ed6;" horiz-adv-x="1360" 
d="M528 2158q38 0 73.5 -19t53 -37t47.5 -54q27 -34 39 -48t36.5 -30t48.5 -16q47 0 75.5 52.5t28.5 139.5h88q0 -129 -52.5 -205.5t-139.5 -76.5q-30 0 -55.5 7.5t-48.5 24t-37 30t-35 36.5q-9 11 -30 36.5t-31 36.5t-28.5 22t-36.5 11q-48 0 -76 -53.5t-28 -142.5h-92
q0 133 53.5 209.5t146.5 76.5zM618 1762h108l332 -328h-128l-256 262l-258 -262h-130zM92 650q0 316 162 509t428 193q264 0 426 -193t162 -509q0 -300 -162 -483t-426 -183q-266 0 -428 183t-162 483zM1162 650q0 284 -126 442t-354 158q-229 0 -355.5 -158t-126.5 -442
q0 -267 126.5 -415.5t355.5 -148.5q228 0 354 148.5t126 415.5z" />
    <glyph glyph-name="uni1ED7" unicode="&#x1ed7;" horiz-adv-x="1116" 
d="M402 1872q38 0 73.5 -19t53 -37t47.5 -54q27 -34 39 -48t36.5 -30t48.5 -16q47 0 75.5 52.5t28.5 139.5h88q0 -129 -52.5 -205.5t-139.5 -76.5q-30 0 -55.5 7.5t-48.5 24t-37 30t-35 36.5q-9 11 -30 36.5t-31 36.5t-28.5 22t-36.5 11q-48 0 -76 -53.5t-28 -142.5h-92
q0 133 53.5 209.5t146.5 76.5zM492 1474h108l332 -328h-128l-256 262l-258 -262h-130zM92 516q0 238 129 383t339 145q209 0 336.5 -145t127.5 -383q0 -240 -127.5 -386t-336.5 -146q-210 0 -339 146t-129 386zM916 516q0 203 -93.5 314.5t-262.5 111.5q-171 0 -265.5 -112
t-94.5 -314q0 -204 94.5 -317t265.5 -113q169 0 262.5 113t93.5 317z" />
    <glyph glyph-name="uni1ED8" unicode="&#x1ed8;" horiz-adv-x="1360" 
d="M618 1762h108l332 -328h-128l-256 262l-258 -262h-130zM92 650q0 316 162 509t428 193q264 0 426 -193t162 -509q0 -300 -162 -483t-426 -183q-266 0 -428 183t-162 483zM1162 650q0 284 -126 442t-354 158q-229 0 -355.5 -158t-126.5 -442q0 -267 126.5 -415.5
t355.5 -148.5q228 0 354 148.5t126 415.5zM616 -150h130v-142h-130v142z" />
    <glyph glyph-name="uni1ED9" unicode="&#x1ed9;" horiz-adv-x="1116" 
d="M492 1474h108l332 -328h-128l-256 262l-258 -262h-130zM92 516q0 238 129 383t339 145q209 0 336.5 -145t127.5 -383q0 -240 -127.5 -386t-336.5 -146q-210 0 -339 146t-129 386zM916 516q0 203 -93.5 314.5t-262.5 111.5q-171 0 -265.5 -112t-94.5 -314
q0 -204 94.5 -317t265.5 -113q169 0 262.5 113t93.5 317zM496 -150h130v-142h-130v142z" />
    <glyph glyph-name="uni1EDA" unicode="&#x1eda;" horiz-adv-x="1360" 
d="M940 1742l-270 -308h-88l228 308h130zM92 650q0 316 162 509t428 193q87 0 156 -20h252q69 0 105.5 33t36.5 121v54h104v-66q0 -66 -19.5 -115t-53 -75.5t-71.5 -39t-80 -12.5h-78q112 -91 174 -241t62 -341q0 -300 -162 -483t-426 -183q-266 0 -428 183t-162 483z
M1162 650q0 236 -88 386.5t-252 195.5q-66 18 -140 18q-229 0 -355.5 -158t-126.5 -442q0 -267 126.5 -415.5t355.5 -148.5q228 0 354 148.5t126 415.5z" />
    <glyph glyph-name="uni1EDB" unicode="&#x1edb;" horiz-adv-x="1116" 
d="M814 1454l-270 -308h-88l228 308h130zM92 516q0 238 129 383t339 145q79 0 142 -20h162q69 0 106.5 34t37.5 122v52h102v-64q0 -66 -19.5 -115t-53 -75.5t-71.5 -39t-80 -12.5h-16q154 -145 154 -410q0 -240 -127.5 -386t-336.5 -146q-210 0 -339 146t-129 386zM916 516
q0 203 -93.5 314.5t-262.5 111.5q-171 0 -265.5 -112t-94.5 -314q0 -204 94.5 -317t265.5 -113q169 0 262.5 113t93.5 317z" />
    <glyph glyph-name="uni1EDC" unicode="&#x1edc;" horiz-adv-x="1360" 
d="M424 1742h128l230 -308h-88zM92 650q0 316 162 509t428 193q87 0 156 -20h252q69 0 105.5 33t36.5 121v54h104v-66q0 -66 -19.5 -115t-53 -75.5t-71.5 -39t-80 -12.5h-78q112 -91 174 -241t62 -341q0 -300 -162 -483t-426 -183q-266 0 -428 183t-162 483zM1162 650
q0 236 -88 386.5t-252 195.5q-66 18 -140 18q-229 0 -355.5 -158t-126.5 -442q0 -267 126.5 -415.5t355.5 -148.5q228 0 354 148.5t126 415.5z" />
    <glyph glyph-name="uni1EDD" unicode="&#x1edd;" horiz-adv-x="1116" 
d="M298 1454h128l230 -308h-88zM92 516q0 238 129 383t339 145q79 0 142 -20h162q69 0 106.5 34t37.5 122v52h102v-64q0 -66 -19.5 -115t-53 -75.5t-71.5 -39t-80 -12.5h-16q154 -145 154 -410q0 -240 -127.5 -386t-336.5 -146q-210 0 -339 146t-129 386zM916 516
q0 203 -93.5 314.5t-262.5 111.5q-171 0 -265.5 -112t-94.5 -314q0 -204 94.5 -317t265.5 -113q169 0 262.5 113t93.5 317z" />
    <glyph glyph-name="uni1EDE" unicode="&#x1ede;" horiz-adv-x="1360" 
d="M622 1434q0 39 21 70t83 82q37 29 50.5 50t13.5 46q0 33 -25 52.5t-67 19.5q-92 0 -114 -88h-100q19 79 77 123.5t141 44.5t132.5 -43t49.5 -115q0 -43 -17 -70t-67 -64q-39 -29 -54.5 -52t-15.5 -56h-108zM92 650q0 316 162 509t428 193q87 0 156 -20h252q69 0 105.5 33
t36.5 121v54h104v-66q0 -66 -19.5 -115t-53 -75.5t-71.5 -39t-80 -12.5h-78q112 -91 174 -241t62 -341q0 -300 -162 -483t-426 -183q-266 0 -428 183t-162 483zM1162 650q0 236 -88 386.5t-252 195.5q-66 18 -140 18q-229 0 -355.5 -158t-126.5 -442q0 -267 126.5 -415.5
t355.5 -148.5q228 0 354 148.5t126 415.5z" />
    <glyph glyph-name="uni1EDF" unicode="&#x1edf;" horiz-adv-x="1116" 
d="M496 1146q0 39 21 70t83 82q37 29 50.5 50t13.5 46q0 33 -25 52.5t-67 19.5q-92 0 -114 -88h-100q19 79 77 123.5t141 44.5t132.5 -43t49.5 -115q0 -43 -17 -70t-67 -64q-39 -29 -54.5 -52t-15.5 -56h-108zM92 516q0 238 129 383t339 145q79 0 142 -20h162q69 0 106.5 34
t37.5 122v52h102v-64q0 -66 -19.5 -115t-53 -75.5t-71.5 -39t-80 -12.5h-16q154 -145 154 -410q0 -240 -127.5 -386t-336.5 -146q-210 0 -339 146t-129 386zM916 516q0 203 -93.5 314.5t-262.5 111.5q-171 0 -265.5 -112t-94.5 -314q0 -204 94.5 -317t265.5 -113
q169 0 262.5 113t93.5 317z" />
    <glyph glyph-name="uni1EE0" unicode="&#x1ee0;" horiz-adv-x="1360" 
d="M524 1720q38 0 73.5 -19t53 -37t47.5 -54q27 -34 39 -48t36.5 -30t48.5 -16q47 0 75.5 52.5t28.5 139.5h88q0 -129 -52.5 -205.5t-139.5 -76.5q-30 0 -55.5 7.5t-48.5 24t-37 30t-35 36.5q-9 11 -30 36.5t-31 36.5t-28.5 22t-36.5 11q-48 0 -76 -53.5t-28 -142.5h-92
q0 133 53.5 209.5t146.5 76.5zM92 650q0 316 162 509t428 193q87 0 156 -20h252q69 0 105.5 33t36.5 121v54h104v-66q0 -66 -19.5 -115t-53 -75.5t-71.5 -39t-80 -12.5h-78q112 -91 174 -241t62 -341q0 -300 -162 -483t-426 -183q-266 0 -428 183t-162 483zM1162 650
q0 236 -88 386.5t-252 195.5q-66 18 -140 18q-229 0 -355.5 -158t-126.5 -442q0 -267 126.5 -415.5t355.5 -148.5q228 0 354 148.5t126 415.5z" />
    <glyph glyph-name="uni1EE1" unicode="&#x1ee1;" horiz-adv-x="1116" 
d="M398 1432q38 0 73.5 -19t53 -37t47.5 -54q27 -34 39 -48t36.5 -30t48.5 -16q47 0 75.5 52.5t28.5 139.5h88q0 -129 -52.5 -205.5t-139.5 -76.5q-30 0 -55.5 7.5t-48.5 24t-37 30t-35 36.5q-9 11 -30 36.5t-31 36.5t-28.5 22t-36.5 11q-48 0 -76 -53.5t-28 -142.5h-92
q0 133 53.5 209.5t146.5 76.5zM92 516q0 238 129 383t339 145q79 0 142 -20h162q69 0 106.5 34t37.5 122v52h102v-64q0 -66 -19.5 -115t-53 -75.5t-71.5 -39t-80 -12.5h-16q154 -145 154 -410q0 -240 -127.5 -386t-336.5 -146q-210 0 -339 146t-129 386zM916 516
q0 203 -93.5 314.5t-262.5 111.5q-171 0 -265.5 -112t-94.5 -314q0 -204 94.5 -317t265.5 -113q169 0 262.5 113t93.5 317z" />
    <glyph glyph-name="uni1EE2" unicode="&#x1ee2;" horiz-adv-x="1360" 
d="M92 650q0 316 162 509t428 193q87 0 156 -20h252q69 0 105.5 33t36.5 121v54h104v-66q0 -66 -19.5 -115t-53 -75.5t-71.5 -39t-80 -12.5h-78q112 -91 174 -241t62 -341q0 -300 -162 -483t-426 -183q-266 0 -428 183t-162 483zM1162 650q0 236 -88 386.5t-252 195.5
q-66 18 -140 18q-229 0 -355.5 -158t-126.5 -442q0 -267 126.5 -415.5t355.5 -148.5q228 0 354 148.5t126 415.5zM616 -150h130v-142h-130v142z" />
    <glyph glyph-name="uni1EE3" unicode="&#x1ee3;" horiz-adv-x="1116" 
d="M92 516q0 238 129 383t339 145q79 0 142 -20h162q69 0 106.5 34t37.5 122v52h102v-64q0 -66 -19.5 -115t-53 -75.5t-71.5 -39t-80 -12.5h-16q154 -145 154 -410q0 -240 -127.5 -386t-336.5 -146q-210 0 -339 146t-129 386zM916 516q0 203 -93.5 314.5t-262.5 111.5
q-171 0 -265.5 -112t-94.5 -314q0 -204 94.5 -317t265.5 -113q169 0 262.5 113t93.5 317zM496 -150h130v-142h-130v142z" />
    <glyph glyph-name="uni1EE4" unicode="&#x1ee4;" horiz-adv-x="1184" 
d="M102 1332h102v-826q0 -199 102.5 -309.5t287.5 -110.5q183 0 284.5 110.5t101.5 309.5v826h104v-826q0 -235 -135.5 -378.5t-354.5 -143.5q-221 0 -356.5 143.5t-135.5 378.5v826zM532 -150h130v-142h-130v142z" />
    <glyph glyph-name="uni1EE5" unicode="&#x1ee5;" horiz-adv-x="1028" 
d="M216 410q0 -167 76.5 -247.5t213.5 -80.5q131 0 219.5 89.5t88.5 226.5v626h102v-1024h-102v170q-55 -89 -144 -139.5t-184 -50.5q-168 0 -271 108t-103 302v634h104v-614zM434 -150h130v-142h-130v142z" />
    <glyph glyph-name="uni1EE6" unicode="&#x1ee6;" horiz-adv-x="1184" 
d="M544 1434q0 39 21 70t83 82q37 29 50.5 50t13.5 46q0 33 -25 52.5t-67 19.5q-92 0 -114 -88h-100q19 79 77 123.5t141 44.5t132.5 -43t49.5 -115q0 -43 -17 -70t-67 -64q-39 -29 -54.5 -52t-15.5 -56h-108zM102 1332h102v-826q0 -199 102.5 -309.5t287.5 -110.5
q183 0 284.5 110.5t101.5 309.5v826h104v-826q0 -235 -135.5 -378.5t-354.5 -143.5q-221 0 -356.5 143.5t-135.5 378.5v826z" />
    <glyph glyph-name="uni1EE7" unicode="&#x1ee7;" horiz-adv-x="1028" 
d="M468 1146q0 39 21 70t83 82q37 29 50.5 50t13.5 46q0 33 -25 52.5t-67 19.5q-92 0 -114 -88h-100q19 79 77 123.5t141 44.5t132.5 -43t49.5 -115q0 -43 -17 -70t-67 -64q-39 -29 -54.5 -52t-15.5 -56h-108zM216 410q0 -167 76.5 -247.5t213.5 -80.5q131 0 219.5 89.5
t88.5 226.5v626h102v-1024h-102v170q-55 -89 -144 -139.5t-184 -50.5q-168 0 -271 108t-103 302v634h104v-614z" />
    <glyph glyph-name="uni1EE8" unicode="&#x1ee8;" horiz-adv-x="1266" 
d="M862 1742l-270 -308h-88l228 308h130zM102 1332h102v-826q0 -199 102.5 -309.5t287.5 -110.5q183 0 284.5 110.5t101.5 309.5v826h104v-2h22q69 0 106.5 34t37.5 122v54h102v-66q0 -66 -19.5 -115t-52.5 -75.5t-70.5 -39t-79.5 -12.5h-46v-726q0 -235 -135.5 -378.5
t-354.5 -143.5q-221 0 -356.5 143.5t-135.5 378.5v826z" />
    <glyph glyph-name="uni1EE9" unicode="&#x1ee9;" horiz-adv-x="1142" 
d="M786 1454l-270 -308h-88l228 308h130zM216 410q0 -167 76.5 -247.5t213.5 -80.5q131 0 219.5 89.5t88.5 226.5v626h124q69 0 106.5 34t37.5 122v54h102v-66q0 -66 -19.5 -115t-52.5 -75.5t-70.5 -39t-79.5 -12.5h-46v-926h-102v170q-55 -89 -144 -139.5t-184 -50.5
q-168 0 -271 108t-103 302v634h104v-614z" />
    <glyph glyph-name="uni1EEA" unicode="&#x1eea;" horiz-adv-x="1266" 
d="M346 1742h128l230 -308h-88zM102 1332h102v-826q0 -199 102.5 -309.5t287.5 -110.5q183 0 284.5 110.5t101.5 309.5v826h104v-2h22q69 0 106.5 34t37.5 122v54h102v-66q0 -66 -19.5 -115t-52.5 -75.5t-70.5 -39t-79.5 -12.5h-46v-726q0 -235 -135.5 -378.5t-354.5 -143.5
q-221 0 -356.5 143.5t-135.5 378.5v826z" />
    <glyph glyph-name="uni1EEB" unicode="&#x1eeb;" horiz-adv-x="1142" 
d="M270 1454h128l230 -308h-88zM216 410q0 -167 76.5 -247.5t213.5 -80.5q131 0 219.5 89.5t88.5 226.5v626h124q69 0 106.5 34t37.5 122v54h102v-66q0 -66 -19.5 -115t-52.5 -75.5t-70.5 -39t-79.5 -12.5h-46v-926h-102v170q-55 -89 -144 -139.5t-184 -50.5
q-168 0 -271 108t-103 302v634h104v-614z" />
    <glyph glyph-name="uni1EEC" unicode="&#x1eec;" horiz-adv-x="1266" 
d="M544 1434q0 39 21 70t83 82q37 29 50.5 50t13.5 46q0 33 -25 52.5t-67 19.5q-92 0 -114 -88h-100q19 79 77 123.5t141 44.5t132.5 -43t49.5 -115q0 -43 -17 -70t-67 -64q-39 -29 -54.5 -52t-15.5 -56h-108zM102 1332h102v-826q0 -199 102.5 -309.5t287.5 -110.5
q183 0 284.5 110.5t101.5 309.5v826h104v-2h22q69 0 106.5 34t37.5 122v54h102v-66q0 -66 -19.5 -115t-52.5 -75.5t-70.5 -39t-79.5 -12.5h-46v-726q0 -235 -135.5 -378.5t-354.5 -143.5q-221 0 -356.5 143.5t-135.5 378.5v826z" />
    <glyph glyph-name="uni1EED" unicode="&#x1eed;" horiz-adv-x="1142" 
d="M468 1146q0 39 21 70t83 82q37 29 50.5 50t13.5 46q0 33 -25 52.5t-67 19.5q-92 0 -114 -88h-100q19 79 77 123.5t141 44.5t132.5 -43t49.5 -115q0 -43 -17 -70t-67 -64q-39 -29 -54.5 -52t-15.5 -56h-108zM216 410q0 -167 76.5 -247.5t213.5 -80.5q131 0 219.5 89.5
t88.5 226.5v626h124q69 0 106.5 34t37.5 122v54h102v-66q0 -66 -19.5 -115t-52.5 -75.5t-70.5 -39t-79.5 -12.5h-46v-926h-102v170q-55 -89 -144 -139.5t-184 -50.5q-168 0 -271 108t-103 302v634h104v-614z" />
    <glyph glyph-name="uni1EEE" unicode="&#x1eee;" horiz-adv-x="1266" 
d="M446 1720q38 0 73.5 -19t53 -37t47.5 -54q27 -34 39 -48t36.5 -30t48.5 -16q47 0 75.5 52.5t28.5 139.5h88q0 -129 -52.5 -205.5t-139.5 -76.5q-30 0 -55.5 7.5t-48.5 24t-37 30t-35 36.5q-9 11 -30 36.5t-31 36.5t-28.5 22t-36.5 11q-48 0 -76 -53.5t-28 -142.5h-92
q0 133 53.5 209.5t146.5 76.5zM102 1332h102v-826q0 -199 102.5 -309.5t287.5 -110.5q183 0 284.5 110.5t101.5 309.5v826h104v-2h22q69 0 106.5 34t37.5 122v54h102v-66q0 -66 -19.5 -115t-52.5 -75.5t-70.5 -39t-79.5 -12.5h-46v-726q0 -235 -135.5 -378.5t-354.5 -143.5
q-221 0 -356.5 143.5t-135.5 378.5v826z" />
    <glyph glyph-name="uni1EEF" unicode="&#x1eef;" horiz-adv-x="1142" 
d="M370 1432q38 0 73.5 -19t53 -37t47.5 -54q27 -34 39 -48t36.5 -30t48.5 -16q47 0 75.5 52.5t28.5 139.5h88q0 -129 -52.5 -205.5t-139.5 -76.5q-30 0 -55.5 7.5t-48.5 24t-37 30t-35 36.5q-9 11 -30 36.5t-31 36.5t-28.5 22t-36.5 11q-48 0 -76 -53.5t-28 -142.5h-92
q0 133 53.5 209.5t146.5 76.5zM216 410q0 -167 76.5 -247.5t213.5 -80.5q131 0 219.5 89.5t88.5 226.5v626h124q69 0 106.5 34t37.5 122v54h102v-66q0 -66 -19.5 -115t-52.5 -75.5t-70.5 -39t-79.5 -12.5h-46v-926h-102v170q-55 -89 -144 -139.5t-184 -50.5q-168 0 -271 108
t-103 302v634h104v-614z" />
    <glyph glyph-name="uni1EF0" unicode="&#x1ef0;" horiz-adv-x="1266" 
d="M102 1332h102v-826q0 -199 102.5 -309.5t287.5 -110.5q183 0 284.5 110.5t101.5 309.5v826h104v-2h22q69 0 106.5 34t37.5 122v54h102v-66q0 -66 -19.5 -115t-52.5 -75.5t-70.5 -39t-79.5 -12.5h-46v-726q0 -235 -135.5 -378.5t-354.5 -143.5q-221 0 -356.5 143.5
t-135.5 378.5v826zM532 -150h130v-142h-130v142z" />
    <glyph glyph-name="uni1EF1" unicode="&#x1ef1;" horiz-adv-x="1142" 
d="M216 410q0 -167 76.5 -247.5t213.5 -80.5q131 0 219.5 89.5t88.5 226.5v626h124q69 0 106.5 34t37.5 122v54h102v-66q0 -66 -19.5 -115t-52.5 -75.5t-70.5 -39t-79.5 -12.5h-46v-926h-102v170q-55 -89 -144 -139.5t-184 -50.5q-168 0 -271 108t-103 302v634h104v-614z
M434 -150h130v-142h-130v142z" />
    <glyph glyph-name="Ygrave" unicode="&#x1ef2;" horiz-adv-x="1160" 
d="M342 1742h128l230 -308h-88zM526 460l-454 872h126l380 -742l388 742h124l-462 -872v-460h-102v460z" />
    <glyph glyph-name="ygrave" unicode="&#x1ef3;" horiz-adv-x="1086" 
d="M306 1454h128l230 -308h-88zM124 -208h146q77 0 120.5 32.5t71.5 113.5l24 62l-414 1024h116l358 -888l352 888h118l-438 -1098q-53 -129 -113 -185.5t-145 -56.5h-196v108z" />
    <glyph glyph-name="uni1EF4" unicode="&#x1ef4;" horiz-adv-x="1160" 
d="M526 460l-454 872h126l380 -742l388 742h124l-462 -872v-460h-102v460zM516 -150h130v-142h-130v142z" />
    <glyph glyph-name="uni1EF5" unicode="&#x1ef5;" horiz-adv-x="1086" 
d="M124 -208h146q77 0 120.5 32.5t71.5 113.5l24 62l-414 1024h116l358 -888l352 888h118l-438 -1098q-53 -129 -113 -185.5t-145 -56.5h-196v108zM680 -150h130v-142h-130v142z" />
    <glyph glyph-name="uni1EF6" unicode="&#x1ef6;" horiz-adv-x="1160" 
d="M540 1434q0 39 21 70t83 82q37 29 50.5 50t13.5 46q0 33 -25 52.5t-67 19.5q-92 0 -114 -88h-100q19 79 77 123.5t141 44.5t132.5 -43t49.5 -115q0 -43 -17 -70t-67 -64q-39 -29 -54.5 -52t-15.5 -56h-108zM526 460l-454 872h126l380 -742l388 742h124l-462 -872v-460
h-102v460z" />
    <glyph glyph-name="uni1EF7" unicode="&#x1ef7;" horiz-adv-x="1086" 
d="M504 1146q0 39 21 70t83 82q37 29 50.5 50t13.5 46q0 33 -25 52.5t-67 19.5q-92 0 -114 -88h-100q19 79 77 123.5t141 44.5t132.5 -43t49.5 -115q0 -43 -17 -70t-67 -64q-39 -29 -54.5 -52t-15.5 -56h-108zM124 -208h146q77 0 120.5 32.5t71.5 113.5l24 62l-414 1024h116
l358 -888l352 888h118l-438 -1098q-53 -129 -113 -185.5t-145 -56.5h-196v108z" />
    <glyph glyph-name="uni1EF8" unicode="&#x1ef8;" horiz-adv-x="1160" 
d="M442 1720q38 0 73.5 -19t53 -37t47.5 -54q27 -34 39 -48t36.5 -30t48.5 -16q47 0 75.5 52.5t28.5 139.5h88q0 -129 -52.5 -205.5t-139.5 -76.5q-30 0 -55.5 7.5t-48.5 24t-37 30t-35 36.5q-9 11 -30 36.5t-31 36.5t-28.5 22t-36.5 11q-48 0 -76 -53.5t-28 -142.5h-92
q0 133 53.5 209.5t146.5 76.5zM526 460l-454 872h126l380 -742l388 742h124l-462 -872v-460h-102v460z" />
    <glyph glyph-name="uni1EF9" unicode="&#x1ef9;" horiz-adv-x="1086" 
d="M406 1432q38 0 73.5 -19t53 -37t47.5 -54q27 -34 39 -48t36.5 -30t48.5 -16q47 0 75.5 52.5t28.5 139.5h88q0 -129 -52.5 -205.5t-139.5 -76.5q-30 0 -55.5 7.5t-48.5 24t-37 30t-35 36.5q-9 11 -30 36.5t-31 36.5t-28.5 22t-36.5 11q-48 0 -76 -53.5t-28 -142.5h-92
q0 133 53.5 209.5t146.5 76.5zM124 -208h146q77 0 120.5 32.5t71.5 113.5l24 62l-414 1024h116l358 -888l352 888h118l-438 -1098q-53 -129 -113 -185.5t-145 -56.5h-196v108z" />
    <glyph glyph-name="endash" unicode="&#x2013;" horiz-adv-x="1338" 
d="M72 614h1196v-98h-1196v98z" />
    <glyph glyph-name="emdash" unicode="&#x2014;" horiz-adv-x="2010" 
d="M72 614h1868v-98h-1868v98z" />
    <glyph glyph-name="quoteleft" unicode="&#x2018;" 
d="M216 1024h-132v144l62 266h84l-94 -266h80v-144z" />
    <glyph glyph-name="quoteright" unicode="&#x2019;" 
d="M98 1434h132v-144l-62 -266h-84l94 266h-80v144z" />
    <glyph glyph-name="quotesinglbase" unicode="&#x201a;" 
d="M98 144h132v-144l-62 -266h-84l94 266h-80v144z" />
    <glyph glyph-name="quotereversed" unicode="&#x201b;" 
d="M216 1434v-144h-80l94 -266h-84l-62 266v144h132z" />
    <glyph glyph-name="quotedblleft" unicode="&#x201c;" horiz-adv-x="552" 
d="M440 1024h-130v144l60 266h84l-94 -266h80v-144zM216 1024h-132v144l62 266h84l-94 -266h80v-144z" />
    <glyph glyph-name="quotedblright" unicode="&#x201d;" horiz-adv-x="552" 
d="M98 1434h132v-144l-62 -266h-84l94 266h-80v144zM324 1434h130v-144l-60 -266h-84l94 266h-80v144z" />
    <glyph glyph-name="quotedblbase" unicode="&#x201e;" horiz-adv-x="552" 
d="M98 144h132v-144l-62 -266h-84l94 266h-80v144zM324 144h130v-144l-60 -266h-84l94 266h-80v144z" />
    <glyph glyph-name="uni201F" unicode="&#x201f;" horiz-adv-x="552" 
d="M440 1434v-144h-80l94 -266h-84l-60 266v144h130zM216 1434v-144h-80l94 -266h-84l-62 266v144h132z" />
    <glyph glyph-name="dagger" unicode="&#x2020;" horiz-adv-x="638" 
d="M268 926h-196v98h196v266h102v-266h198v-98h-198v-926h-102v926z" />
    <glyph glyph-name="daggerdbl" unicode="&#x2021;" horiz-adv-x="638" 
d="M370 1024h198v-98h-198v-562h198v-98h-198v-266h-102v266h-196v98h196v562h-196v98h196v266h102v-266z" />
    <glyph glyph-name="bullet" unicode="&#x2022;" horiz-adv-x="408" 
d="M78 766q0 52 37 89t89 37q53 0 90.5 -37t37.5 -89t-38 -90t-90 -38t-89 37.5t-37 90.5z" />
    <glyph glyph-name="uni2023" unicode="&#x2023;" horiz-adv-x="408" 
d="M78 598v334l254 -166z" />
    <glyph glyph-name="ellipsis" unicode="&#x2026;" horiz-adv-x="982" 
d="M754 144h130v-144h-130v144zM426 144h132v-144h-132v144zM98 144h132v-144h-132v144z" />
    <glyph glyph-name="perthousand" unicode="&#x2030;" horiz-adv-x="2470" 
d="M72 944q0 183 89 294.5t235 111.5q144 0 232 -111.5t88 -294.5q0 -185 -88 -297.5t-232 -112.5q-146 0 -235 113t-89 297zM1072 1332h114l-550 -1332h-114zM608 944q0 145 -55 224.5t-157 79.5t-159 -80t-57 -224q0 -145 57 -226.5t159 -81.5t157 81t55 227zM1756 394
q0 183 88 293.5t234 110.5q144 0 233 -111t89 -293q0 -184 -89 -297t-233 -113q-145 0 -233.5 112.5t-88.5 297.5zM992 394q0 183 88 293.5t234 110.5q144 0 233 -111t89 -293q0 -184 -89 -297t-233 -113q-145 0 -233.5 112.5t-88.5 297.5zM2292 394q0 144 -56 223t-158 79
t-158 -79t-56 -223q0 -146 56 -227t158 -81t158 81t56 227zM1528 394q0 144 -56 223t-158 79t-158 -79t-56 -223q0 -146 56 -227t158 -81t158 81t56 227z" />
    <glyph glyph-name="minute" unicode="&#x2032;" horiz-adv-x="460" 
d="M410 1332l-270 -308h-88l228 308h130z" />
    <glyph glyph-name="second" unicode="&#x2033;" horiz-adv-x="722" 
d="M672 1332l-270 -308h-88l228 308h130zM410 1332l-270 -308h-88l228 308h130z" />
    <glyph glyph-name="uni2034" unicode="&#x2034;" horiz-adv-x="984" 
d="M410 1332l-270 -308h-88l228 308h130zM934 1332l-270 -308h-88l228 308h130zM672 1332l-270 -308h-88l228 308h130z" />
    <glyph glyph-name="uni2035" unicode="&#x2035;" horiz-adv-x="460" 
d="M52 1332h128l230 -308h-88z" />
    <glyph glyph-name="uni2036" unicode="&#x2036;" horiz-adv-x="722" 
d="M52 1332h128l230 -308h-88zM314 1332h128l230 -308h-88z" />
    <glyph glyph-name="uni2037" unicode="&#x2037;" horiz-adv-x="984" 
d="M576 1332h128l230 -308h-88zM52 1332h128l230 -308h-88zM314 1332h128l230 -308h-88z" />
    <glyph glyph-name="guilsinglleft" unicode="&#x2039;" horiz-adv-x="616" 
d="M564 1024v-146l-394 -330l394 -338v-128l-492 414v114z" />
    <glyph glyph-name="guilsinglright" unicode="&#x203a;" horiz-adv-x="616" 
d="M72 82v146l394 330l-394 338v128l492 -414v-114z" />
    <glyph glyph-name="uni2070" unicode="&#x2070;" horiz-adv-x="788" 
d="M72 1138q0 183 89 294.5t235 111.5q144 0 232 -111.5t88 -294.5q0 -184 -88 -296t-232 -112q-146 0 -235 112t-89 296zM608 1138q0 145 -55 224.5t-157 79.5t-159 -80t-57 -224q0 -145 57 -225.5t159 -80.5t157 80t55 226z" />
    <glyph glyph-name="uni2074" unicode="&#x2074;" horiz-adv-x="806" 
d="M584 946v-200h-102v200h-410v116l388 474h124v-494h152v-96h-152zM482 1042v368l-302 -368h302z" />
    <glyph glyph-name="uni2075" unicode="&#x2075;" horiz-adv-x="742" 
d="M564 1010q0 82 -46 129t-130 47q-74 0 -129.5 -28.5t-86.5 -79.5h-100l50 458h510v-98h-422l-26 -250q77 100 218 100q123 0 196.5 -77t73.5 -199q0 -130 -82 -206t-216 -76q-127 0 -210 63t-92 165h108q3 -58 55 -92t139 -34q91 0 140.5 45.5t49.5 132.5z" />
    <glyph glyph-name="uni2076" unicode="&#x2076;" horiz-adv-x="772" 
d="M72 1128q0 197 89 306.5t249 109.5q108 0 181.5 -58t92.5 -160h-108q-24 116 -166 116q-230 0 -230 -304q0 -16 4 -52q28 76 93 120t145 44q122 0 200 -73t78 -187t-78 -187t-200 -73q-161 0 -255.5 107.5t-94.5 290.5zM226 990q0 -67 53.5 -111.5t134.5 -44.5
t129.5 42.5t48.5 113.5q0 70 -48.5 112t-129.5 42q-84 0 -136 -42.5t-52 -111.5z" />
    <glyph glyph-name="uni2077" unicode="&#x2077;" horiz-adv-x="790" 
d="M364 746h-110q16 120 49.5 222.5t84.5 186.5t103 148t123 135h-542v98h646v-118q-319 -299 -354 -672z" />
    <glyph glyph-name="uni2078" unicode="&#x2078;" horiz-adv-x="772" 
d="M392 832q96 0 148 31.5t52 90.5q0 63 -50 97.5t-142 34.5h-14q-98 0 -152 -34.5t-54 -97.5q0 -58 55.5 -90t156.5 -32zM200 1306q0 -57 49 -87.5t137 -30.5h14q83 0 127.5 30.5t44.5 87.5q0 65 -46.5 100.5t-133.5 35.5q-91 0 -141.5 -35.5t-50.5 -100.5zM392 1544
q130 0 209 -63t79 -165q0 -121 -120 -178q67 -27 103.5 -77t36.5 -115q0 -98 -84.5 -157t-223.5 -59q-144 0 -232 59.5t-88 156.5q0 64 38.5 114.5t107.5 77.5q-126 57 -126 178q0 102 82.5 165t217.5 63z" />
    <glyph glyph-name="uni2079" unicode="&#x2079;" horiz-adv-x="772" 
d="M700 1104q0 -177 -89 -275.5t-249 -98.5q-114 0 -191.5 55.5t-96.5 152.5h108q27 -106 180 -106q234 0 234 282q0 18 -4 54q-28 -75 -93 -118.5t-145 -43.5q-123 0 -202.5 75.5t-79.5 192.5t82.5 193.5t209.5 76.5q153 0 244.5 -119t91.5 -321zM552 1272
q0 71 -53.5 118.5t-134.5 47.5t-129.5 -45.5t-48.5 -120.5q0 -74 48.5 -119t129.5 -45q84 0 136 45.5t52 118.5z" />
    <glyph glyph-name="uni207A" unicode="&#x207a;" horiz-adv-x="748" 
d="M424 1204h254v-98h-254v-254h-98v254h-254v98h254v254h98v-254z" />
    <glyph glyph-name="uni207B" unicode="&#x207b;" horiz-adv-x="748" 
d="M72 1204h606v-98h-606v98z" />
    <glyph glyph-name="uni207C" unicode="&#x207c;" horiz-adv-x="748" 
d="M72 1378h606v-98h-606v98zM72 1030h606v-98h-606v98z" />
    <glyph glyph-name="uni207D" unicode="&#x207d;" horiz-adv-x="366" 
d="M336 602h-104q-72 82 -116 225.5t-44 328.5q0 174 43.5 309.5t116.5 214.5h104q-79 -98 -117.5 -224t-38.5 -300q0 -185 38.5 -318.5t117.5 -235.5z" />
    <glyph glyph-name="uni207E" unicode="&#x207e;" horiz-adv-x="366" 
d="M30 1680h106q72 -81 115 -225t43 -329q0 -175 -43 -310.5t-115 -213.5h-106q79 98 117.5 224t38.5 300q0 185 -38.5 318.5t-117.5 235.5z" />
    <glyph glyph-name="uni207F" unicode="&#x207f;" horiz-adv-x="860" 
d="M646 1228q0 115 -53.5 170.5t-148.5 55.5q-98 0 -163 -60t-65 -152v-496h-104v790h104v-102q44 58 111 90t137 32q127 0 205.5 -80.5t78.5 -225.5v-504h-102v482z" />
    <glyph glyph-name="uni2080" unicode="&#x2080;" horiz-adv-x="788" 
d="M72 188q0 183 89 294.5t235 111.5q144 0 232 -111.5t88 -294.5q0 -184 -88 -297t-232 -113q-146 0 -235 113t-89 297zM608 188q0 145 -55 224.5t-157 79.5t-159 -80t-57 -224q0 -145 57 -225.5t159 -80.5t157 80t55 226z" />
    <glyph glyph-name="uni2081" unicode="&#x2081;" horiz-adv-x="450" 
d="M276 586h102v-790h-102v532h-224v88h88q71 0 103.5 23.5t32.5 82.5v64z" />
    <glyph glyph-name="uni2082" unicode="&#x2082;" horiz-adv-x="770" 
d="M178 -106h512v-98h-618v28q0 58 19 105t45.5 77.5t72.5 58.5t80.5 43t88.5 36q11 4 16 6q96 36 146 75.5t50 104.5q0 77 -50 119.5t-140 42.5q-97 0 -156 -48.5t-64 -131.5h-108q9 125 100.5 203.5t227.5 78.5q134 0 216 -74.5t82 -197.5q0 -49 -21 -89t-63 -72
t-81.5 -53t-98.5 -46q-144 -60 -183 -85q-62 -38 -73 -83z" />
    <glyph glyph-name="uni2083" unicode="&#x2083;" horiz-adv-x="772" 
d="M332 134v102h122q56 0 87 29t31 83q0 69 -50 107.5t-140 38.5q-84 0 -135.5 -38.5t-54.5 -103.5h-108q9 108 91.5 176t206.5 68q134 0 216 -68t82 -180q0 -52 -24 -94t-66 -66q52 -26 81 -71.5t29 -104.5q0 -105 -85.5 -169.5t-224.5 -64.5q-132 0 -220.5 64t-97.5 166
h108q4 -58 61 -92t149 -34q96 0 149 33.5t53 96.5q0 58 -36 90t-102 32h-122z" />
    <glyph glyph-name="uni2084" unicode="&#x2084;" horiz-adv-x="806" 
d="M584 -4v-200h-102v200h-410v116l388 474h124v-494h152v-96h-152zM482 92v366l-302 -366h302z" />
    <glyph glyph-name="uni2085" unicode="&#x2085;" horiz-adv-x="742" 
d="M564 60q0 82 -46 129t-130 47q-73 0 -129 -29.5t-87 -80.5h-100l50 460h510v-98h-422l-26 -250q77 100 218 100q123 0 196.5 -77t73.5 -199q0 -131 -82 -207.5t-216 -76.5q-127 0 -210 63.5t-92 166.5h108q3 -58 55 -92t139 -34q91 0 140.5 45.5t49.5 132.5z" />
    <glyph glyph-name="uni2086" unicode="&#x2086;" horiz-adv-x="772" 
d="M72 178q0 197 89 306.5t249 109.5q108 0 181 -59t93 -161h-108q-25 118 -166 118q-230 0 -230 -304q0 -16 4 -52q28 76 93 120t145 44q121 0 199.5 -74t78.5 -188t-78 -187t-200 -73q-160 0 -255 108.5t-95 291.5zM226 38q0 -67 53.5 -110.5t134.5 -43.5t129.5 42
t48.5 112q0 71 -48.5 113.5t-129.5 42.5q-84 0 -136 -43.5t-52 -112.5z" />
    <glyph glyph-name="uni2087" unicode="&#x2087;" horiz-adv-x="790" 
d="M364 -204h-110q16 120 49.5 222.5t84.5 186.5t103 148t123 135h-542v98h646v-120q-319 -299 -354 -670z" />
    <glyph glyph-name="uni2088" unicode="&#x2088;" horiz-adv-x="772" 
d="M392 -118q96 0 148 31.5t52 90.5q0 63 -50 97.5t-142 34.5h-14q-98 0 -152 -34.5t-54 -97.5q0 -58 55.5 -90t156.5 -32zM200 356q0 -57 49 -87.5t137 -30.5h14q83 0 127.5 30.5t44.5 87.5q0 65 -46.5 100.5t-133.5 35.5q-91 0 -141.5 -35.5t-50.5 -100.5zM392 594
q130 0 209 -63t79 -165q0 -121 -120 -178q67 -27 103.5 -77t36.5 -115q0 -98 -84.5 -158t-223.5 -60q-144 0 -232 60t-88 158q0 64 38.5 114.5t107.5 77.5q-126 57 -126 178q0 102 82.5 165t217.5 63z" />
    <glyph glyph-name="uni2089" unicode="&#x2089;" horiz-adv-x="772" 
d="M700 154q0 -177 -89 -276.5t-249 -99.5q-114 0 -191.5 56.5t-96.5 153.5h108q27 -106 180 -106q234 0 234 282q0 18 -4 54q-28 -75 -93 -118.5t-145 -43.5q-123 0 -202.5 75.5t-79.5 192.5t82.5 193.5t209.5 76.5q153 0 244.5 -119t91.5 -321zM552 322q0 71 -53.5 118.5
t-134.5 47.5t-129.5 -45.5t-48.5 -120.5q0 -74 48.5 -119t129.5 -45q84 0 136 45.5t52 118.5z" />
    <glyph glyph-name="uni208A" unicode="&#x208a;" horiz-adv-x="748" 
d="M424 254h254v-98h-254v-254h-98v254h-254v98h254v254h98v-254z" />
    <glyph glyph-name="uni208B" unicode="&#x208b;" horiz-adv-x="748" 
d="M72 254h606v-98h-606v98z" />
    <glyph glyph-name="uni208C" unicode="&#x208c;" horiz-adv-x="748" 
d="M72 428h606v-98h-606v98zM72 80h606v-98h-606v98z" />
    <glyph glyph-name="uni208D" unicode="&#x208d;" horiz-adv-x="366" 
d="M336 -348h-104q-73 82 -116.5 224.5t-43.5 327.5q0 175 44 311t116 215h104q-79 -97 -117.5 -224.5t-38.5 -301.5q0 -184 38.5 -317t117.5 -235z" />
    <glyph glyph-name="uni208E" unicode="&#x208e;" horiz-adv-x="366" 
d="M30 730h106q72 -81 115 -225t43 -329q0 -175 -43 -310.5t-115 -213.5h-106q79 98 117.5 224t38.5 300q0 185 -38.5 318.5t-117.5 235.5z" />
    <glyph glyph-name="uni2099" unicode="&#x2099;" horiz-adv-x="860" 
d="M112 586h104v-102q44 58 111 90t137 32q127 0 205.5 -80.5t78.5 -225.5v-504h-102v482q0 115 -53.5 170.5t-148.5 55.5q-98 0 -163 -60.5t-65 -153.5v-494h-104v790z" />
    <glyph glyph-name="uni20A0" unicode="&#x20a0;" horiz-adv-x="1504" 
d="M92 876q0 219 115 353.5t303 134.5q135 0 226 -77.5t112 -212.5h-108q-15 87 -77 137.5t-153 50.5q-147 0 -228.5 -101t-81.5 -285q0 -183 106 -277.5t312 -94.5h98v400h696v-98h-588v-302h532v-100h-532v-306h588v-98h-696v404h-98q-244 0 -385 126.5t-141 345.5z" />
    <glyph glyph-name="colonmonetary" unicode="&#x20a1;" horiz-adv-x="1304" 
d="M92 670q0 307 155 494.5t409 187.5l64 202h108l-66 -208q114 -18 210 -70l88 278h108l-108 -340q137 -125 152 -314h-108q-6 120 -78 208l-326 -1020q177 9 285.5 102.5t118.5 247.5h108q-21 -204 -170.5 -328.5t-375.5 -125.5l-46 -144h-106l48 152q-109 17 -206 82
l-76 -234h-106l98 306q-87 91 -133.5 225t-46.5 299zM200 670q0 -261 108 -412l314 990q-200 -12 -311 -163.5t-111 -414.5zM386 174q87 -69 208 -84l348 1090q-87 54 -212 66z" />
    <glyph glyph-name="uni20A2" unicode="&#x20a2;" horiz-adv-x="1304" 
d="M92 670q0 308 156 495t412 187q231 0 384 -125.5t168 -326.5h-108q-7 162 -127 256t-317 94q-218 0 -339 -152t-121 -428q0 -277 121 -430.5t339 -153.5h28v638h104v-148q50 79 129.5 123.5t164.5 44.5h40v-110h-38q-126 0 -211 -80.5t-85 -205.5v-248q139 29 221 117
t91 221h108q-21 -206 -172 -330t-380 -124q-255 0 -411.5 188.5t-156.5 497.5z" />
    <glyph glyph-name="franc" unicode="&#x20a3;" horiz-adv-x="1196" 
d="M1106 1332v-100h-778v-462h720v-98h-720v-290h464v-98h-464v-284h-104v284h-194v98h194v950h882z" />
    <glyph glyph-name="lira" unicode="&#x20a4;" horiz-adv-x="1072" 
d="M72 508h212v182h-212v98h212v162q0 180 96 290t252 110q147 0 243.5 -88t110.5 -234h-104q-12 105 -77 162.5t-173 57.5q-117 0 -181.5 -78.5t-64.5 -219.5v-162h454v-98h-454v-182h454v-98h-454q-7 -101 -57 -184t-155 -128h828v-98h-930v110q187 81 210 300h-210v98z
" />
    <glyph glyph-name="uni20A5" unicode="&#x20a5;" horiz-adv-x="1678" 
d="M112 1024h104v-154q53 82 138 128t176 46q116 0 202 -53.5t126 -154.5l202 496h116l-132 -326q79 38 162 38q161 0 260.5 -102t99.5 -286v-656h-102v634q0 157 -73 232.5t-205 75.5q-117 0 -198 -72l-98 -240v-630h-102v380l-248 -608h-114l362 890q-7 143 -79.5 211.5
t-198.5 68.5t-210 -83t-84 -211v-648h-104v1024z" />
    <glyph glyph-name="uni20A6" unicode="&#x20a6;" horiz-adv-x="1348" 
d="M1338 522v-98h-152v-424h-116l-282 424h-522v-424h-104v424h-152v98h152v294h-152v98h152v418h144l278 -418h500v418h102v-418h152v-98h-152v-294h152zM266 1210v-296h196zM266 522h458l-196 294h-262v-294zM844 522h240v294h-436zM1084 160v264h-176z" />
    <glyph glyph-name="peseta" unicode="&#x20a7;" horiz-adv-x="2440" 
d="M638 510h-422v-510h-104v1332h516q160 0 270 -82.5t142 -225.5h162v266h102v-266h198v-98h-198v-632q0 -99 41.5 -144.5t132.5 -45.5h524q111 0 177.5 43t66.5 115q0 81 -57 127t-177 63l-154 22q-164 23 -241 90t-77 188q0 135 103.5 212.5t280.5 77.5q172 0 278.5 -87
t121.5 -239h-106q-20 116 -91.5 171t-204.5 55q-126 0 -203 -51t-77 -135q0 -76 52 -115.5t172 -56.5l154 -20q168 -23 249 -96.5t81 -205.5q0 -119 -92.5 -190.5t-245.5 -71.5h-536q-129 0 -201.5 74.5t-72.5 207.5v644h-150v-12q0 -177 -112.5 -290.5t-301.5 -113.5z
M618 1232h-402v-624h402q153 0 239.5 81t86.5 225q0 151 -85.5 234.5t-240.5 83.5z" />
    <glyph glyph-name="uni20A8" unicode="&#x20a8;" horiz-adv-x="2026" 
d="M558 572h-342v-572h-104v1332h538q182 0 292 -106.5t110 -281.5q0 -130 -74 -220t-202 -120q115 -18 169 -84.5t71 -205.5l36 -314h-102l-34 300q-17 144 -100.5 208t-257.5 64zM638 1232h-422v-562h422q144 0 225 72t81 202q0 136 -81 212t-225 76zM1598 452l-154 22
q-158 20 -238 86.5t-80 191.5q0 134 103 212t281 78q172 0 278.5 -87t121.5 -239h-106q-20 116 -91.5 171t-204.5 55q-126 0 -203 -51t-77 -135q0 -80 54.5 -119t169.5 -53l154 -20q167 -21 248.5 -95t81.5 -207q0 -127 -104 -202.5t-276 -75.5q-192 0 -307.5 88t-132.5 236
h110q19 -115 101 -169.5t231 -54.5q123 0 198.5 48.5t75.5 129.5q0 163 -234 190z" />
    <glyph glyph-name="uni20A9" unicode="&#x20a9;" horiz-adv-x="1954" 
d="M72 1332h116l114 -418h472l144 418h116l138 -418h476l120 418h116l-126 -418h186v-98h-216l-88 -294h304v-98h-334l-128 -424h-108l-142 424h-520l-144 -424h-110l-122 424h-326v98h296l-84 294h-212v98h184zM976 1194l-96 -280h190zM410 522h230l102 294h-414zM746 522
h454l-98 294h-256zM1304 522h232l84 294h-414zM512 146l96 278h-172zM1428 146l80 278h-172z" />
    <glyph glyph-name="uni20AA" unicode="&#x20aa;" horiz-adv-x="1274" 
d="M532 98h280q129 0 188.5 61.5t59.5 194.5v670h102v-682q0 -163 -82 -252.5t-242 -89.5h-410v744h104v-646zM216 926v-926h-104v1024h410q160 0 242 -89.5t82 -252.5v-402h-102v390q0 133 -59.5 194.5t-188.5 61.5h-280z" />
    <glyph glyph-name="dong" unicode="&#x20ab;" horiz-adv-x="1072" 
d="M512 1290h244v144h102v-144h174v-94h-174v-1056h-102v154q-47 -82 -120.5 -126t-165.5 -44q-170 0 -274 126.5t-104 333.5q0 208 104 334t274 126q92 0 165.5 -44t120.5 -126v322h-244v94zM200 584q0 -170 73 -264t205 -94q133 0 205.5 94t72.5 264t-72.5 264t-205.5 94
q-132 0 -205 -94t-73 -264zM130 0h848v-98h-848v98z" />
    <glyph glyph-name="Euro" unicode="&#x20ac;" horiz-adv-x="1384" 
d="M172 670q0 69 10 146h-172v98h192q54 204 196.5 321t341.5 117q231 0 384 -125.5t168 -326.5h-108q-7 162 -127 256t-317 94q-163 0 -273 -86.5t-157 -249.5h528v-98h-548q-10 -77 -10 -146q0 -71 10 -148h548v-98h-528q47 -164 157 -251t273 -87q194 0 314 94.5
t130 257.5h108q-21 -206 -172 -330t-380 -124q-198 0 -340 117.5t-198 322.5h-192v98h172q-10 77 -10 148z" />
    <glyph glyph-name="uni20AD" unicode="&#x20ad;" horiz-adv-x="1062" 
d="M0 722h152v610h104v-600l590 600h150l-596 -610h442v-98h-452l582 -624h-154l-562 612v-612h-104v624h-152v98z" />
    <glyph glyph-name="uni20AE" unicode="&#x20ae;" horiz-adv-x="1064" 
d="M898 638v-112l-314 -96v-430h-102v398l-298 -92v112l298 92v200l-298 -92v112l298 92v410h-410v100h922v-100h-410v-378l314 96v-112l-314 -96v-200z" />
    <glyph glyph-name="uni20AF" unicode="&#x20af;" horiz-adv-x="2382" 
d="M72 98h170l186 1096q-147 -33 -254 -80v102q114 58 272 90l22 128h104l-18 -110q88 8 130 8q261 0 416.5 -161t155.5 -431q0 -163 -52 -301t-144.5 -234.5t-224 -150.5t-287.5 -54h-476v98zM684 1226q-69 0 -150 -12l-188 -1116h162q299 0 468.5 171.5t169.5 472.5
q0 231 -121 357.5t-341 126.5zM2290 624q0 -130 -42 -248.5t-112.5 -204.5t-169 -136.5t-206.5 -50.5q-133 0 -225 58t-133 166l-96 -542h-104l150 850q40 238 188.5 383t349.5 145q186 0 293 -112.5t107 -307.5zM1738 86q195 0 319.5 154t124.5 396q0 140 -79.5 223
t-214.5 83q-195 0 -319.5 -154t-124.5 -396q0 -141 80 -223.5t214 -82.5z" />
    <glyph glyph-name="uni20B0" unicode="&#x20b0;" horiz-adv-x="1026" 
d="M920 1064q0 -86 -12 -157t-52 -187l-78 -178q95 -138 135.5 -237t40.5 -203q0 -187 -105.5 -290.5t-296.5 -103.5v102q144 0 222 74t78 210q0 81 -29.5 158t-94.5 178l-192 -430h-120l-118 350l-120 -350h-106l180 490h90l130 -382l186 424q-216 290 -216 532
q0 129 63 209.5t165 80.5q113 0 181.5 -77.5t68.5 -212.5zM698 652l8 -10l52 118q56 171 56 304q0 84 -40 134t-100 50q-58 0 -90 -50.5t-32 -143.5q0 -100 32 -197t114 -205z" />
    <glyph glyph-name="uni20B1" unicode="&#x20b1;" horiz-adv-x="1268" 
d="M10 778h140v182h-140v98h140v274h516q151 0 261 -73t157 -201h174v-98h-150q6 -42 6 -86q0 -56 -8 -96h152v-98h-182q-47 -116 -151.5 -183t-248.5 -67h-422v-430h-104v680h-140v98zM656 1232h-402v-174h716q-84 174 -314 174zM1006 874q0 47 -6 86h-746v-182h742
q10 50 10 96zM254 528h402q217 0 304 152h-706v-152z" />
    <glyph glyph-name="uni20B2" unicode="&#x20b2;" horiz-adv-x="1324" 
d="M92 670q0 308 156 495t412 187q84 0 156 -18l70 220h108l-80 -250q130 -54 209 -160t89 -244h-108q-4 108 -62 187.5t-158 122.5l-170 -530h498v-680h-82l-10 352q-59 -170 -181 -269t-279 -99q-81 0 -160 22l-54 -166h-106l66 204q-148 77 -231 240.5t-83 385.5z
M200 670q0 -194 60.5 -329.5t175.5 -200.5l350 1098q-60 12 -126 12q-218 0 -339 -152t-121 -428zM660 86q181 0 294 134t128 362h-398l-154 -480q64 -16 130 -16z" />
    <glyph glyph-name="uni20B3" unicode="&#x20b3;" horiz-adv-x="1260" 
d="M94 484h160l94 246h-254v98h290l190 504h116l190 -504h274v-98h-238l92 -246h146v-98h-108l144 -386h-116l-144 386h-598l-142 -386h-118l146 386h-124v98zM628 1196l-134 -368h272zM368 484h526l-92 246h-344z" />
    <glyph glyph-name="uni20B4" unicode="&#x20b4;" horiz-adv-x="1166" 
d="M10 576h164q102 105 330 132l154 22q70 9 128 28h-776v98h922q32 47 32 116q0 123 -99 197.5t-263 74.5q-170 0 -262 -64.5t-116 -197.5h-106q18 172 146.5 270t335.5 98q216 0 341 -103t125 -279q0 -63 -20 -112h110v-98h-174q-99 -97 -316 -124l-154 -20
q-98 -13 -156 -38h800v-98h-926q-34 -56 -34 -126q0 -121 98 -192.5t258 -71.5q186 0 287 64t127 198h110q-20 -168 -157.5 -267t-364.5 -99q-209 0 -335.5 100t-126.5 268q0 72 20 126h-102v98z" />
    <glyph glyph-name="uni20B5" unicode="&#x20b5;" horiz-adv-x="1304" 
d="M92 670q0 290 141 475t375 205v186h104v-186q211 -15 349 -138.5t151 -311.5h-108q-7 151 -112 243.5t-280 104.5v-1160q172 12 277 105t115 245h108q-19 -193 -155 -315t-345 -137v-232h-104v232q-234 20 -375 206t-141 478zM200 670q0 -260 107 -412t301 -170v1160
q-194 -18 -301 -168.5t-107 -409.5z" />
    <glyph glyph-name="uni20B6" unicode="&#x20b6;" horiz-adv-x="1114" 
d="M72 1024h214v266h104v-266h354v266h102v-266h198v-98h-198v-672q0 -88 30 -122t84 -34h84v-98h-86q-41 0 -77 12.5t-68 39t-50.5 75.5t-18.5 115v684h-354v-926h-104v926h-214v98z" />
    <glyph glyph-name="uni20B7" unicode="&#x20b7;" horiz-adv-x="1246" 
d="M280 244q0 146 -54 146q-18 0 -31 -17t-13 -41q0 -103 98 -164v76zM830 244q0 146 -84 146q-43 0 -72.5 -38.5t-29.5 -95.5v-168h28q92 0 158 20v136zM554 244q0 146 -86 146q-42 0 -70 -38t-28 -96v-130q83 -26 184 -34v152zM736 606l-154 20q-400 52 -400 342
q0 177 125.5 279.5t340.5 102.5q207 0 335.5 -109t146.5 -299h-106q-24 155 -116.5 228.5t-261.5 73.5q-164 0 -263 -74.5t-99 -197.5q0 -98 74.5 -155t231.5 -79l154 -22q210 -30 311 -119.5t101 -244.5q0 -111 -61.5 -195.5t-172.5 -128.5v-190h-92v162q-77 -16 -160 -16
h-26v-146h-90v152q-95 8 -184 38v-190h-90v226q-90 47 -139 116t-49 152q0 65 38 107.5t96 42.5q86 0 124 -96q23 44 59 70t77 26q95 0 136 -98q52 98 142 98q73 0 115.5 -58.5t42.5 -159.5v-120q130 73 130 208q0 212 -316 254z" />
    <glyph glyph-name="uni20B8" unicode="&#x20b8;" horiz-adv-x="1064" 
d="M72 1232v100h922v-100h-922zM994 992v-100h-410v-892h-102v892h-410v100h922z" />
    <glyph glyph-name="uni20B9" unicode="&#x20b9;" horiz-adv-x="1018" 
d="M252 572h-162v98h242q129 0 208 58t94 166h-544v98h546q-15 116 -94.5 179t-209.5 63h-242v98h834v-98h-316q118 -87 136 -242h180v-98h-182q-13 -110 -85 -186.5t-187 -103.5q115 -18 169 -84.5t71 -205.5l36 -314h-102l-34 300q-17 144 -100.5 208t-257.5 64z" />
    <glyph glyph-name="uni20BA" unicode="&#x20ba;" horiz-adv-x="1228" 
d="M476 102q254 0 393 141t149 409h108q-23 -312 -187.5 -482t-444.5 -170h-176v508l-268 -82v112l268 82v200l-268 -82v112l268 82v400h104v-368l342 106v-112l-342 -106v-200l342 106v-112l-342 -106v-438h54z" />
    <glyph glyph-name="uni20BB" unicode="&#x20bb;" horiz-adv-x="1360" 
d="M1088 60q-177 -76 -314 -76q-160 0 -253 92.5t-93 251.5v10q-129 -40 -308 -40v94q182 0 308 46v470h-46q-147 0 -228.5 59.5t-81.5 166.5q0 99 58.5 158.5t157.5 59.5q108 0 173 -78.5t65 -209.5v-54h414q164 0 256 -86t92 -240q0 -116 -59 -188t-139 -72
q-118 0 -170 98q-21 -47 -55.5 -72.5t-76.5 -25.5q-88 0 -128 90q-47 -85 -134 -134v-32q0 -123 64.5 -190.5t181.5 -67.5q155 0 316 82v-112zM428 1010v54q0 87 -42.5 139.5t-111.5 52.5q-46 0 -75 -31t-29 -81q0 -65 54 -99.5t154 -34.5h50zM1076 514q50 0 79 46.5
t29 127.5q0 105 -63 162.5t-177 57.5h-418v-422q104 69 104 168h82q0 -62 20.5 -101t53.5 -39q47 0 77.5 39.5t30.5 100.5h82q0 -67 26 -103.5t74 -36.5z" />
    <glyph glyph-name="uni20BC" unicode="&#x20bc;" horiz-adv-x="1304" 
d="M1204 0h-102v506q0 184 -104.5 292t-293.5 122v-920h-104v920q-188 -14 -291 -122t-103 -292v-506h-104v506q0 220 136 360.5t362 155.5v310h104v-310q226 -15 363 -155.5t137 -360.5v-506z" />
    <glyph glyph-name="uni20BD" unicode="&#x20bd;" horiz-adv-x="1214" 
d="M30 382h194v208h-194v98h194v644h516q182 0 293 -103.5t111 -274.5q0 -160 -107 -262t-287 -102h-422v-208h464v-98h-464v-284h-104v284h-194v98zM730 1232h-402v-544h402q144 0 225 70.5t81 195.5q0 132 -80.5 205t-225.5 73z" />
    <glyph glyph-name="uni20BE" unicode="&#x20be;" horiz-adv-x="1304" 
d="M72 98h324q-144 82 -224 233.5t-80 350.5q0 240 100.5 408t275.5 230v216h104v-190q42 6 88 6q51 0 108 -10v194h104v-220q147 -56 237.5 -181.5t102.5 -296.5h-108q-4 131 -65 227t-167 143v-370h-104v402q-57 10 -108 10q-46 0 -88 -6v-406h-104v374
q-130 -56 -199 -191.5t-69 -338.5q0 -277 158 -430.5t442 -153.5h420v-98h-1148v98z" />
    <glyph glyph-name="uni20BF" unicode="&#x20bf;" horiz-adv-x="1206" 
d="M328 1536h104v-204h176v204h104v-204q153 0 246.5 -94t93.5 -246q0 -105 -47.5 -185.5t-134.5 -120.5q115 -39 179.5 -127.5t64.5 -208.5q0 -158 -99.5 -254t-262.5 -96h-40v-246h-104v246h-176v-246h-104v246h-216v1332h216v204zM700 1232h-484v-500h484
q115 0 179.5 68.5t64.5 191.5q0 114 -63.5 177t-180.5 63zM700 632h-484v-534h526q125 0 194.5 66t69.5 186q0 133 -81 207.5t-225 74.5z" />
    <glyph glyph-name="arrowleft" unicode="&#x2190;" horiz-adv-x="1596" 
d="M92 692l382 380l68 -70l-260 -260l1224 2v-102h-1224l260 -262l-68 -68z" />
    <glyph glyph-name="arrowup" unicode="&#x2191;" horiz-adv-x="944" 
d="M474 1398l378 -382l-70 -68l-260 262l2 -1226h-102v1222l-260 -258l-70 68z" />
    <glyph glyph-name="arrowright" unicode="&#x2192;" horiz-adv-x="1596" 
d="M1506 690l-382 -378l-70 68l264 262l-1226 -4v104h1222l-260 260l70 70z" />
    <glyph glyph-name="arrowdown" unicode="&#x2193;" horiz-adv-x="944" 
d="M472 -16l-380 382l70 70l260 -262l-2 1224h102v-1224l260 262l70 -70z" />
    <glyph glyph-name="arrowboth" unicode="&#x2194;" horiz-adv-x="1596" 
d="M92 692l382 380l68 -70l-260 -260h1032l-260 260l70 70l382 -382l-382 -378l-70 68l264 262h-1036l260 -262l-68 -68z" />
    <glyph glyph-name="arrowupdn" unicode="&#x2195;" horiz-adv-x="944" 
d="M472 -16l-380 382l70 70l260 -262v1032l-260 -258l-70 68l382 382l378 -382l-70 -68l-260 262v-1036l260 262l70 -70z" />
    <glyph glyph-name="uni2196" unicode="&#x2196;" horiz-adv-x="1218" 
d="M92 1208h536v-98h-366l864 -862l-72 -74l-864 864v-366h-98v536z" />
    <glyph glyph-name="uni2197" unicode="&#x2197;" horiz-adv-x="1218" 
d="M1126 1208v-536h-98v366l-862 -864l-74 72l864 864h-366v98h536z" />
    <glyph glyph-name="uni2198" unicode="&#x2198;" horiz-adv-x="1218" 
d="M1126 174h-536v98h366l-864 862l72 74l864 -864v366h98v-536z" />
    <glyph glyph-name="uni2199" unicode="&#x2199;" horiz-adv-x="1218" 
d="M92 174v536h98v-366l862 864l74 -72l-864 -864h366v-98h-536z" />
    <glyph glyph-name="uni219A" unicode="&#x219a;" horiz-adv-x="1596" 
d="M92 692l382 380l68 -70l-260 -260l654 2l148 450h106l-148 -450h464v-102h-498l-162 -492h-106l162 492h-620l260 -262l-68 -68z" />
    <glyph glyph-name="uni219B" unicode="&#x219b;" horiz-adv-x="1596" 
d="M762 1194h106l-148 -452h594l-260 260l70 70l382 -382l-382 -378l-70 68l264 262l-632 -2l-162 -490h-106l162 490l-488 -2v104h522z" />
    <glyph glyph-name="uni219C" unicode="&#x219c;" horiz-adv-x="1678" 
d="M320 960l484 -226l-40 -88l-344 160q41 -243 94.5 -340.5t163.5 -97.5q21 0 41.5 4.5t35 8t36 17t31 18.5t33 25t29 25t32.5 30t30 28q5 4 29 26t31.5 28t30 25t34.5 25.5t34.5 21t40 20t41 13t47.5 10.5t50 3q140 0 222 -110t82 -300h-92q0 144 -57.5 232t-150.5 88
q-33 0 -63.5 -8.5t-62 -29t-51.5 -35.5t-58 -48t-55 -47q-6 -5 -41.5 -35.5t-47 -39.5t-44.5 -31t-56 -30t-58.5 -16t-72.5 -8q-146 0 -222.5 114.5t-119.5 375.5l-156 -336l-88 44z" />
    <glyph glyph-name="uni219D" unicode="&#x219d;" horiz-adv-x="1678" 
d="M396 696q26 0 50 -3t47.5 -10.5t41 -13t40 -20t34.5 -21t34.5 -25.5t30 -25t31.5 -28t29 -26q6 -6 27 -25.5t28.5 -26t26 -23t28.5 -23t27.5 -18.5t30.5 -17t30 -11.5t34.5 -9t35.5 -2.5q110 0 163.5 98t94.5 340l-344 -160l-42 88l486 226l228 -484l-88 -44l-158 334
q-43 -260 -118.5 -374t-221.5 -114q-37 0 -72.5 8t-58.5 16t-56 30t-44.5 31t-47 39.5t-41.5 35.5q-17 14 -55 47t-58 48t-51.5 35.5t-62 29t-63.5 8.5q-93 0 -150.5 -88t-57.5 -232h-92q0 190 82 300t222 110z" />
    <glyph glyph-name="uni219E" unicode="&#x219e;" horiz-adv-x="1596" 
d="M92 692l382 380l68 -70l-260 -260h208l332 330l68 -70l-260 -260l876 2v-102h-876l260 -262l-68 -68l-332 330h-208l260 -262l-68 -68z" />
    <glyph glyph-name="uni219F" unicode="&#x219f;" horiz-adv-x="944" 
d="M474 1396l378 -380l-70 -70l-260 264v-210l330 -332l-70 -70l-260 262l2 -876h-102v874l-260 -260l-70 70l330 328v210l-260 -260l-70 70z" />
    <glyph glyph-name="uni21A0" unicode="&#x21a0;" horiz-adv-x="1596" 
d="M1506 690l-382 -378l-70 68l264 262h-210l-332 -330l-70 68l262 260l-876 -2v104h874l-260 260l70 70l330 -330h208l-260 260l70 70z" />
    <glyph glyph-name="uni21A1" unicode="&#x21a1;" horiz-adv-x="944" 
d="M472 -16l-380 380l70 70l260 -262v210l-330 330l70 70l260 -260l-2 874h102v-874l260 260l70 -70l-330 -330v-210l260 262l70 -70z" />
    <glyph glyph-name="uni21A2" unicode="&#x21a2;" horiz-adv-x="1596" 
d="M92 692l382 380l68 -70l-260 -260l824 2l330 328l70 -70l-312 -310l312 -312l-70 -68l-332 330h-822l260 -262l-68 -68z" />
    <glyph glyph-name="uni21A3" unicode="&#x21a3;" horiz-adv-x="1596" 
d="M1506 690l-382 -378l-70 68l264 262l-828 -4l-328 -326l-70 68l312 310l-312 312l70 70l328 -330h824l-260 260l70 70z" />
    <glyph glyph-name="uni21A4" unicode="&#x21a4;" horiz-adv-x="1596" 
d="M92 692l382 380l68 -70l-260 -260l1120 2v328h104v-760h-104v330h-1120l260 -262l-68 -68z" />
    </font>
</defs>
</svg>
