<?xml version="1.0" standalone="no"?>
<!DOCTYPE svg PUBLIC "-//W3C//DTD SVG 1.1//EN" "http://www.w3.org/Graphics/SVG/1.1/DTD/svg11.dtd" >
<svg xmlns="http://www.w3.org/2000/svg" xmlns:xlink="http://www.w3.org/1999/xlink" version="1.1">
<metadata>
Created by FontForge 20201107 at Mon Jul 14 14:24:46 2025
 By 
Copyright (c) 2023, Bao Nguyen (RandomMaerks) (rmforbusiness@gmail.com)
</metadata>
<defs>
<font id="OverusedGrotesk-Black" horiz-adv-x="564" >
  <font-face 
    font-family="Overused Grotesk Black"
    font-weight="900"
    font-stretch="normal"
    units-per-em="2048"
    panose-1="0 0 0 0 0 0 0 0 0 0"
    ascent="1638"
    descent="-410"
    x-height="1024"
    cap-height="1332"
    bbox="-240 -834 2922 2386"
    underline-thickness="102"
    underline-position="-254"
    unicode-range="U+0020-277E"
  />
<missing-glyph horiz-adv-x="1024" 
d="M102 -410v2048h820v-2048h-820zM204 -308h616v1844h-616v-1844z" />
    <glyph glyph-name=".notdef" horiz-adv-x="1024" 
d="M102 -410v2048h820v-2048h-820zM204 -308h616v1844h-616v-1844z" />
    <glyph glyph-name=".null" horiz-adv-x="0" 
 />
    <glyph glyph-name="nonmarkingreturn" horiz-adv-x="682" 
 />
    <glyph glyph-name="space" unicode=" " horiz-adv-x="408" 
 />
    <glyph glyph-name="exclam" unicode="!" 
d="M436 410h-306l-42 922h390zM492 0h-418v302h418v-302z" />
    <glyph glyph-name="quotedbl" unicode="&#x22;" horiz-adv-x="1006" 
d="M568 1434h348l-42 -614h-306v614zM92 1434h348l-40 -614h-308v614z" />
    <glyph glyph-name="numbersign" unicode="#" horiz-adv-x="1514" 
d="M464 1332h370l-78 -294h204l78 294h368l-78 -294h136v-262h-206l-62 -230h166v-262h-236l-76 -284h-368l76 284h-204l-76 -284h-370l76 284h-132v262h202l62 230h-162v262h232zM624 546h204l62 230h-204z" />
    <glyph glyph-name="dollar" unicode="$" horiz-adv-x="1290" 
d="M588 1556h122v-210q209 -18 337 -129.5t147 -292.5h-372q-18 94 -112 118v-202l56 -6q229 -22 340.5 -127t111.5 -299q0 -185 -138 -300t-370 -124v-250h-122v254q-221 20 -357.5 134t-158.5 300h376q21 -104 140 -128v206l-106 10q-193 16 -296.5 124.5t-103.5 293.5
q0 187 135.5 299t370.5 123v206zM558 854l30 -2v198q-53 -8 -82.5 -34t-29.5 -66q0 -87 82 -96zM716 490h-6v-202q54 8 85 36.5t31 71.5q0 85 -110 94z" />
    <glyph glyph-name="percent" unicode="%" horiz-adv-x="2110" 
d="M68 946q0 192 111.5 309t294.5 117q181 0 291.5 -117t110.5 -309q0 -194 -110.5 -312t-291.5 -118q-183 0 -294.5 118t-111.5 312zM1166 1332h326l-540 -1332h-328zM584 946q0 86 -29 133t-81 47q-54 0 -84 -47.5t-30 -132.5q0 -87 30 -135.5t84 -48.5q52 0 81 48.5
t29 135.5zM1234 390q0 192 111.5 309t294.5 117q182 0 293 -117t111 -309q0 -193 -111 -311.5t-293 -118.5q-183 0 -294.5 118t-111.5 312zM1752 390q0 85 -29.5 132.5t-82.5 47.5q-54 0 -83 -47t-29 -133q0 -88 29 -137t83 -49q52 0 82 49.5t30 136.5z" />
    <glyph glyph-name="ampersand" unicode="&#x26;" horiz-adv-x="1456" 
d="M636 1348q211 0 342.5 -100t131.5 -262q0 -114 -61.5 -195t-188.5 -135l116 -130q22 61 28 126h352q-12 -227 -140 -396l230 -256h-428l-52 52q-145 -68 -316 -68q-258 0 -418 111t-160 291q0 116 59.5 194t186.5 136q-66 74 -95 137t-29 141q0 156 123 255t319 99z
M572 978q0 -31 25 -61t73 -71q54 28 80 58.5t26 71.5q0 45 -26 70.5t-74 25.5t-76 -25.5t-28 -68.5zM466 422q0 -67 52.5 -104.5t145.5 -37.5q40 0 72 8l-230 234q-40 -37 -40 -100z" />
    <glyph glyph-name="quotesingle" unicode="'" horiz-adv-x="532" 
d="M92 1434h348l-40 -614h-308v614z" />
    <glyph glyph-name="parenleft" unicode="(" horiz-adv-x="736" 
d="M706 -274h-390q-116 122 -190 354t-74 488t74 488t190 354h390q-129 -129 -194.5 -345.5t-65.5 -496.5t65.5 -496.5t194.5 -345.5z" />
    <glyph glyph-name="parenright" unicode=")" horiz-adv-x="736" 
d="M30 1410h392q116 -122 190 -354t74 -488t-74 -488t-190 -354h-392q129 129 194.5 345.5t65.5 496.5t-65.5 496.5t-194.5 345.5z" />
    <glyph glyph-name="asterisk" unicode="*" horiz-adv-x="1158" 
d="M446 1434h266l-32 -376l346 148l82 -254l-366 -84l248 -282l-218 -156l-192 322l-192 -322l-218 156l248 282l-366 84l82 254l346 -148z" />
    <glyph glyph-name="plus" unicode="+" horiz-adv-x="1204" 
d="M774 820h380v-344h-380v-380h-344v380h-378v344h378v378h344v-378z" />
    <glyph glyph-name="comma" unicode="," 
d="M74 404h418v-404l-160 -378h-268l256 378h-246v404z" />
    <glyph glyph-name="hyphen" unicode="-" horiz-adv-x="1048" 
d="M52 738h946v-344h-946v344z" />
    <glyph glyph-name="period" unicode="." 
d="M74 404h418v-404h-418v404z" />
    <glyph glyph-name="slash" unicode="/" horiz-adv-x="1024" 
d="M526 1332h430l-458 -1332h-430z" />
    <glyph glyph-name="zero" unicode="0" horiz-adv-x="1320" 
d="M72 650q0 331 156 516.5t434 185.5t433 -185.5t155 -516.5q0 -315 -155 -490.5t-433 -175.5q-279 0 -434.5 175.5t-155.5 490.5zM854 650q0 354 -192 354q-196 0 -196 -354q0 -318 196 -318q192 0 192 318z" />
    <glyph glyph-name="one" unicode="1" horiz-adv-x="850" 
d="M370 1332h390v-1332h-390v778h-318v334h156q83 0 122.5 30.5t39.5 107.5v82z" />
    <glyph glyph-name="two" unicode="2" horiz-adv-x="1202" 
d="M556 344h566v-344h-1050v70q0 123 25.5 224t63.5 167.5t96.5 122t108.5 86.5t116 62q25 12 65 29.5t62 27.5t50 25.5t42 28.5t24.5 31t10.5 38q0 55 -34.5 84.5t-93.5 29.5q-63 0 -101 -42t-41 -114h-394q15 212 157 345t355 133q247 0 396.5 -119.5t149.5 -316.5
q0 -64 -19 -119t-47 -94t-72.5 -74.5t-84 -58.5t-91.5 -48q-26 -12 -65 -29.5t-62.5 -28t-52 -25.5t-44 -27.5t-26 -29t-10.5 -34.5z" />
    <glyph glyph-name="three" unicode="3" horiz-adv-x="1222" 
d="M504 532v280h142q44 0 67 26.5t23 75.5q0 60 -33.5 94t-90.5 34t-90 -34.5t-34 -95.5h-396q15 197 161 316.5t371 119.5q220 0 363 -113t143 -287q0 -182 -154 -276q83 -50 128.5 -127.5t45.5 -174.5q0 -173 -138.5 -279.5t-363.5 -106.5q-241 0 -400 124.5t-176 325.5
h394q7 -67 48.5 -104.5t107.5 -37.5q63 0 98.5 34.5t35.5 95.5q0 54 -28.5 82t-81.5 28h-142z" />
    <glyph glyph-name="four" unicode="4" horiz-adv-x="1250" 
d="M1052 270v-270h-368v270h-632v404l510 658h490v-740h168v-322h-168zM684 592v322l-240 -322h240z" />
    <glyph glyph-name="five" unicode="5" horiz-adv-x="1222" 
d="M756 460q0 78 -41 122t-113 44q-102 0 -144 -78h-386l82 786h950v-324h-600l-32 -248q103 146 290 146q172 0 280 -123.5t108 -320.5q0 -219 -142 -349.5t-382 -130.5q-234 0 -386.5 124.5t-167.5 325.5h394q3 -57 42 -89.5t104 -32.5q69 0 106.5 38t37.5 110z" />
    <glyph glyph-name="six" unicode="6" horiz-adv-x="1262" 
d="M72 682q0 314 156 492t430 178q208 0 345 -103.5t173 -288.5h-396q-18 104 -120 104q-86 0 -140 -87t-54 -229v-26q39 69 122.5 109.5t187.5 40.5q180 0 298 -122t118 -308q0 -203 -144.5 -330.5t-375.5 -127.5q-276 0 -438 188.5t-162 509.5zM512 432q0 -69 42 -114.5
t106 -45.5q61 0 98.5 42.5t37.5 113.5t-38 113.5t-102 42.5t-104 -42t-40 -110z" />
    <glyph glyph-name="seven" unicode="7" horiz-adv-x="1190" 
d="M734 0h-466q0 149 22 277t58 224t92.5 184t114 151t133.5 130h-616v366h1048v-386q-210 -159 -298 -384t-88 -562z" />
    <glyph glyph-name="eight" unicode="8" horiz-adv-x="1222" 
d="M924 674q226 -85 226 -312q0 -169 -149 -273.5t-391 -104.5q-241 0 -389.5 103.5t-148.5 272.5q0 229 228 314q-188 88 -188 300q0 166 138.5 270t359.5 104q222 0 361 -104t139 -272q0 -211 -186 -298zM616 814q57 0 88.5 31t31.5 87q0 57 -33 87.5t-93 30.5
q-59 0 -90.5 -30.5t-31.5 -87.5t30.5 -87.5t87.5 -30.5h10zM616 526h-10q-68 0 -104 -31t-36 -89q0 -60 38 -93t106 -33q69 0 107.5 33t38.5 93q0 57 -37 88.5t-103 31.5z" />
    <glyph glyph-name="nine" unicode="9" horiz-adv-x="1262" 
d="M1192 654q0 -314 -156 -492t-430 -178q-209 0 -345.5 103t-172.5 287h396q18 -104 120 -104q86 0 139 88t53 230v24q-39 -69 -122 -109.5t-186 -40.5q-180 0 -298 122t-118 308q0 203 144.5 331.5t375.5 128.5q276 0 438 -188.5t162 -509.5zM752 904q0 69 -41.5 113.5
t-106.5 44.5q-62 0 -100 -42t-38 -112q0 -71 39 -113.5t103 -42.5t104 42t40 110z" />
    <glyph glyph-name="colon" unicode=":" 
d="M74 1022h418v-404h-418v404zM74 404h418v-404h-418v404z" />
    <glyph glyph-name="semicolon" unicode=";" 
d="M74 1022h418v-404h-418v404zM74 404h418v-404l-160 -378h-268l256 378h-246v404z" />
    <glyph glyph-name="less" unicode="&#x3c;" horiz-adv-x="1210" 
d="M1160 1188v-402l-766 -156l766 -142v-406l-1106 332v442z" />
    <glyph glyph-name="equal" unicode="=" horiz-adv-x="1204" 
d="M1154 1064v-322h-1102v322h1102zM1154 512v-324h-1102v324h1102z" />
    <glyph glyph-name="greater" unicode="&#x3e;" horiz-adv-x="1210" 
d="M54 82v402l766 154l-766 144v406l1106 -332v-442z" />
    <glyph glyph-name="question" unicode="?" horiz-adv-x="1202" 
d="M416 410q9 79 38 141t58 94.5t74 70.5q8 7 36.5 30t37.5 31t28.5 29t26.5 36t14 38t7 48q0 55 -34.5 85.5t-93.5 30.5q-63 0 -101 -42t-41 -114h-394q15 204 157 332t355 128q247 0 396.5 -115.5t149.5 -304.5q0 -67 -13.5 -120t-40 -91.5t-51.5 -62.5t-63 -52
q-3 -2 -22.5 -16.5t-24 -18t-21 -16.5t-22 -19t-18 -19t-17.5 -22.5t-13 -23t-12.5 -27.5t-7.5 -30h-388zM820 0h-418v302h418v-302z" />
    <glyph glyph-name="at" unicode="@" horiz-adv-x="1936" 
d="M1382 906v-432q0 -80 70 -80q42 0 60 33.5t18 112.5q0 267 -142 416.5t-398 149.5q-276 0 -430 -153t-154 -427q0 -258 158.5 -400t445.5 -142q252 0 416 70v-308q-178 -70 -400 -70q-213 0 -391 61.5t-302 172t-192.5 269t-68.5 347.5q0 197 66.5 362.5t186 281
t290.5 180t375 64.5q195 0 358.5 -61.5t277 -172t177 -269t63.5 -347.5q0 -215 -107.5 -332.5t-306.5 -117.5q-300 0 -376 176q-36 -76 -96.5 -117t-137.5 -41q-137 0 -220.5 112t-83.5 296q0 183 83.5 294.5t220.5 111.5q134 0 212 -118v78h328zM872 540q0 -68 23.5 -105
t66.5 -37q45 0 68.5 37t23.5 105q0 66 -24.5 103t-67.5 37t-66.5 -37t-23.5 -103z" />
    <glyph glyph-name="A" unicode="A" horiz-adv-x="1386" 
d="M1356 0h-404l-58 208h-402l-56 -208h-406l442 1332h444zM690 930l-114 -418h232z" />
    <glyph glyph-name="B" unicode="B" horiz-adv-x="1326" 
d="M770 1332q189 0 306.5 -93.5t117.5 -242.5q0 -93 -49 -171.5t-133 -118.5q113 -44 178.5 -139.5t65.5 -216.5q0 -156 -106.5 -253t-277.5 -97h-780v1332h678zM720 1008h-238v-174h238q30 0 54 26t24 62q0 34 -24 60t-54 26zM770 510h-288v-186h280q40 0 69 28.5t29 67.5
q0 38 -26 64t-64 26z" />
    <glyph glyph-name="C" unicode="C" horiz-adv-x="1386" 
d="M72 670q0 308 172.5 495t455.5 187q265 0 430 -136t184 -398h-394q-3 85 -61.5 135.5t-152.5 50.5q-114 0 -177 -87.5t-63 -246.5q0 -162 63 -250t177 -88q93 0 151 51t63 137h394q-3 -134 -51.5 -237.5t-132 -168t-192.5 -97.5t-238 -33q-282 0 -455 188.5t-173 497.5z
" />
    <glyph glyph-name="D" unicode="D" horiz-adv-x="1390" 
d="M690 1332q282 0 455 -190t173 -500q0 -289 -161 -465.5t-425 -176.5h-640v1332h598zM482 988v-644h228q102 0 158 78.5t56 219.5q0 165 -67 255.5t-187 90.5h-188z" />
    <glyph glyph-name="E" unicode="E" horiz-adv-x="1146" 
d="M1076 1332v-366h-594v-112h536v-364h-536v-126h594v-364h-984v1332h984z" />
    <glyph glyph-name="F" unicode="F" horiz-adv-x="1146" 
d="M1076 1332v-366h-594v-174h536v-364h-536v-428h-390v1332h984z" />
    <glyph glyph-name="G" unicode="G" horiz-adv-x="1406" 
d="M72 670q0 308 172.5 495t455.5 187q261 0 428.5 -131t185.5 -363h-394q-14 70 -66 109t-140 39q-117 0 -182.5 -88.5t-65.5 -247.5q0 -162 61.5 -250t172.5 -88q90 0 146.5 38t67.5 104h-258v308h658v-782h-290l-12 138q-138 -154 -356 -154q-263 0 -423.5 188.5
t-160.5 497.5z" />
    <glyph glyph-name="H" unicode="H" horiz-adv-x="1350" 
d="M92 1332h390v-462h388v462h390v-1332h-390v506h-388v-506h-390v1332z" />
    <glyph glyph-name="I" unicode="I" 
d="M88 1332h390v-1332h-390v1332z" />
    <glyph glyph-name="J" unicode="J" horiz-adv-x="802" 
d="M32 344h166q63 0 93.5 37.5t30.5 118.5v832h388v-886q0 -210 -107 -328t-299 -118h-272v344z" />
    <glyph glyph-name="K" unicode="K" horiz-adv-x="1390" 
d="M92 1332h390v-542l392 542h482l-488 -648l512 -684h-450l-332 478l-116 -168v-310h-390v1332z" />
    <glyph glyph-name="L" unicode="L" horiz-adv-x="1024" 
d="M972 0h-880v1332h390v-968h490v-364z" />
    <glyph glyph-name="M" unicode="M" horiz-adv-x="1772" 
d="M1060 0h-348l-230 780v-780h-390v1332h576l218 -796l212 796h584v-1332h-390v780z" />
    <glyph glyph-name="N" unicode="N" horiz-adv-x="1392" 
d="M912 1332h388v-1332h-402l-416 740v-740h-390v1332h472l348 -680v680z" />
    <glyph glyph-name="O" unicode="O" horiz-adv-x="1442" 
d="M72 650q0 317 178 509.5t472 192.5q293 0 471.5 -193t178.5 -509q0 -300 -178.5 -483t-471.5 -183q-294 0 -472 183t-178 483zM976 650q0 168 -67 261t-187 93q-121 0 -188.5 -93t-67.5 -261q0 -150 67.5 -234t188.5 -84q120 0 187 84t67 234z" />
    <glyph glyph-name="P" unicode="P" horiz-adv-x="1282" 
d="M744 402h-262v-402h-390v1332h614q232 0 373 -125.5t141 -330.5q0 -212 -131.5 -343t-344.5 -131zM672 1002h-190v-256h190q71 0 110.5 34.5t39.5 95.5q0 60 -39.5 93t-110.5 33z" />
    <glyph glyph-name="Q" unicode="Q" horiz-adv-x="1442" 
d="M72 650q0 317 178 509.5t472 192.5q293 0 471.5 -193t178.5 -509q0 -183 -72 -330l134 -110l-198 -244l-144 118q-159 -100 -370 -100q-294 0 -472 183t-178 483zM976 650q0 168 -67 261t-187 93q-121 0 -188.5 -93t-67.5 -261q0 -150 67.5 -234t188.5 -84q33 0 60 6
l-180 148l196 246l174 -144q4 40 4 62z" />
    <glyph glyph-name="R" unicode="R" horiz-adv-x="1282" 
d="M662 428h-180v-428h-390v1332h654q209 0 336.5 -106.5t127.5 -281.5q0 -116 -60 -203t-166 -131q94 -27 141.5 -96t62.5 -200l36 -314h-382l-36 278q-9 77 -42 113.5t-102 36.5zM684 1008h-202v-256h202q68 0 105 33.5t37 96.5q0 60 -37 93t-105 33z" />
    <glyph glyph-name="S" unicode="S" horiz-adv-x="1290" 
d="M716 468l-234 22q-193 18 -296.5 131t-103.5 307q0 195 147 308.5t399 113.5q243 0 394 -114t172 -312h-394q-23 128 -176 128q-67 0 -107.5 -27.5t-40.5 -74.5q0 -67 82 -76l208 -20q229 -22 340.5 -132.5t111.5 -313.5q0 -192 -148 -308t-394 -116q-258 0 -419 117
t-185 321h396q24 -136 210 -136q67 0 107.5 30t40.5 80q0 63 -110 72z" />
    <glyph glyph-name="T" unicode="T" horiz-adv-x="1186" 
d="M1136 1332v-366h-348v-966h-388v966h-348v366h1084z" />
    <glyph glyph-name="U" unicode="U" horiz-adv-x="1308" 
d="M82 1332h390v-806q0 -83 51.5 -128.5t144.5 -45.5q81 0 125.5 45.5t44.5 128.5v806h388v-806q0 -244 -153.5 -393t-404.5 -149q-264 0 -425 149t-161 393v806z" />
    <glyph glyph-name="V" unicode="V" horiz-adv-x="1386" 
d="M30 1332h404l262 -930l254 930h406l-440 -1332h-444z" />
    <glyph glyph-name="W" unicode="W" horiz-adv-x="2140" 
d="M30 1332h404l188 -920l204 920h484l212 -920l184 920h404l-358 -1332h-488l-206 908l-176 -908h-508z" />
    <glyph glyph-name="X" unicode="X" horiz-adv-x="1344" 
d="M30 1332h436l210 -448l202 448h436l-322 -666l322 -666h-434l-210 446l-202 -446h-438l324 666z" />
    <glyph glyph-name="Y" unicode="Y" horiz-adv-x="1344" 
d="M476 444l-446 888h424l222 -490l212 490h426l-450 -890v-442h-388v444z" />
    <glyph glyph-name="Z" unicode="Z" horiz-adv-x="1232" 
d="M92 1332h1048v-386l-624 -622h624v-324h-1048v386l622 622h-622v324z" />
    <glyph glyph-name="bracketleft" unicode="[" horiz-adv-x="736" 
d="M460 1048v-950h226v-364h-614v1680h614v-366h-226z" />
    <glyph glyph-name="backslash" unicode="\" horiz-adv-x="1024" 
d="M498 1332l458 -1332h-430l-458 1332h430z" />
    <glyph glyph-name="bracketright" unicode="]" horiz-adv-x="736" 
d="M276 98v950h-224v366h614v-1680h-614v364h224z" />
    <glyph glyph-name="asciicircum" unicode="^" horiz-adv-x="962" 
d="M296 1474h370l224 -450h-306l-102 278l-104 -278h-306z" />
    <glyph glyph-name="underscore" unicode="_" horiz-adv-x="1310" 
d="M52 0h1208v-274h-1208v274z" />
    <glyph glyph-name="grave" unicode="`" horiz-adv-x="880" 
d="M72 1474h470l266 -410h-306z" />
    <glyph glyph-name="a" unicode="a" horiz-adv-x="1182" 
d="M1092 646v-646h-390v128q-42 -75 -117 -115.5t-175 -40.5q-147 0 -244.5 95.5t-97.5 240.5q0 307 328 328l236 14q38 3 54 16t16 40v4q0 33 -31.5 57.5t-74.5 24.5q-110 0 -122 -90h-398q12 162 153 259t365 97q227 0 362.5 -112.5t135.5 -299.5zM460 334q0 -35 30 -57.5
t78 -22.5q55 0 94.5 35t39.5 85v42l-158 -6q-40 -1 -62 -21t-22 -55z" />
    <glyph glyph-name="b" unicode="b" horiz-adv-x="1244" 
d="M88 1434h390v-546q107 176 296 176q182 0 293 -150.5t111 -397.5q0 -249 -111 -400.5t-293 -151.5q-188 0 -296 178v-142h-390v1434zM782 516q0 105 -40.5 163.5t-111.5 58.5q-72 0 -112 -58.5t-40 -163.5q0 -108 40 -167t112 -59q71 0 111.5 59.5t40.5 166.5z" />
    <glyph glyph-name="c" unicode="c" horiz-adv-x="1214" 
d="M68 516q0 248 149.5 398t396.5 150q226 0 371.5 -125t160.5 -347h-394q-3 146 -138 146q-72 0 -112 -58t-40 -164q0 -108 40 -167t112 -59q64 0 99.5 29t38.5 99h394q-21 -217 -164 -335.5t-368 -118.5q-246 0 -396 151.5t-150 400.5z" />
    <glyph glyph-name="d" unicode="d" horiz-adv-x="1244" 
d="M1158 1434v-1434h-390v142q-108 -178 -296 -178q-182 0 -293 151.5t-111 400.5q0 247 111 397.5t293 150.5q189 0 296 -176v546h390zM462 516q0 -107 40.5 -166.5t111.5 -59.5q72 0 113 59.5t41 166.5q0 105 -41 163.5t-113 58.5q-71 0 -111.5 -58.5t-40.5 -163.5z" />
    <glyph glyph-name="e" unicode="e" horiz-adv-x="1226" 
d="M68 516q0 244 142.5 386t385.5 142q246 0 405 -155.5t159 -398.5v-68h-690q27 -146 142 -146q105 0 120 82h414q-52 -374 -538 -374q-249 0 -394.5 143t-145.5 389zM600 778q-93 0 -124 -114h266q-6 53 -44 83.5t-98 30.5z" />
    <glyph glyph-name="f" unicode="f" horiz-adv-x="774" 
d="M48 720v304h144v46q0 172 108 268t300 96h128v-304h-64q-43 0 -62.5 -17.5t-19.5 -56.5v-32h146v-304h-146v-720h-390v720h-144z" />
    <glyph glyph-name="g" unicode="g" horiz-adv-x="1244" 
d="M1158 1024v-1046q0 -177 -143.5 -285.5t-378.5 -108.5t-388 104.5t-180 279.5h394q5 -45 46 -71.5t108 -26.5q72 0 112 31t40 87v216q-51 -82 -129 -126t-175 -44q-178 0 -287 141.5t-109 374.5q0 230 109 370t287 140q96 0 174 -44t130 -124v132h390zM462 550
q0 -89 41.5 -138.5t114.5 -49.5q71 0 110.5 50t39.5 138t-39.5 138t-110.5 50q-73 0 -114.5 -49.5t-41.5 -138.5z" />
    <glyph glyph-name="h" unicode="h" horiz-adv-x="1240" 
d="M764 552q0 83 -39 123.5t-109 40.5q-60 0 -99 -42t-39 -108v-566h-390v1434h390v-558q56 90 137 139t167 49q166 0 269 -114t103 -316v-634h-390v552z" />
    <glyph glyph-name="i" unicode="i" 
d="M74 1434h418v-302h-418v302zM88 1024h390v-1024h-390v1024z" />
    <glyph glyph-name="j" unicode="j" 
d="M74 1434h418v-302h-418v302zM-58 -66h64q43 0 62.5 17.5t19.5 56.5v1016h390v-1028q0 -191 -108 -298.5t-300 -107.5h-128v344z" />
    <glyph glyph-name="k" unicode="k" horiz-adv-x="1262" 
d="M736 1024h480l-348 -462l386 -562h-452l-224 354l-96 -122v-232h-390v1434h390v-790z" />
    <glyph glyph-name="l" unicode="l" 
d="M88 1434h390v-1434h-390v1434z" />
    <glyph glyph-name="m" unicode="m" horiz-adv-x="1834" 
d="M722 552q0 164 -126 164q-51 0 -84.5 -42t-33.5 -108v-566h-390v1024h390v-140q53 86 129 133t155 47q113 0 197.5 -61t122.5 -175q50 110 136 173t178 63q156 0 253 -114t97 -316v-634h-388v552q0 83 -33.5 123.5t-94.5 40.5q-51 0 -84.5 -42t-33.5 -108v-566h-390v552z
" />
    <glyph glyph-name="n" unicode="n" horiz-adv-x="1240" 
d="M768 552q0 83 -39 123.5t-109 40.5q-60 0 -99 -42t-39 -108v-566h-390v1024h390v-148q56 90 137 139t167 49q166 0 269 -114t103 -316v-634h-390v552z" />
    <glyph glyph-name="o" unicode="o" horiz-adv-x="1230" 
d="M68 516q0 248 150 398t398 150q246 0 397 -150.5t151 -397.5q0 -249 -151 -400.5t-397 -151.5q-247 0 -397.5 151.5t-150.5 400.5zM768 516q0 105 -40.5 163.5t-111.5 58.5q-72 0 -113 -58.5t-41 -163.5q0 -107 41 -166.5t113 -59.5q71 0 111.5 59.5t40.5 166.5z" />
    <glyph glyph-name="p" unicode="p" horiz-adv-x="1244" 
d="M88 1024h390v-136q107 176 296 176q182 0 293 -150.5t111 -397.5q0 -249 -111 -400.5t-293 -151.5q-188 0 -296 178v-476h-390v1358zM782 516q0 105 -40.5 163.5t-111.5 58.5q-72 0 -112 -58.5t-40 -163.5q0 -108 40 -167t112 -59q71 0 111.5 59.5t40.5 166.5z" />
    <glyph glyph-name="q" unicode="q" horiz-adv-x="1244" 
d="M1158 1024v-1358h-390v476q-108 -178 -296 -178q-182 0 -293 151.5t-111 400.5q0 247 111 397.5t293 150.5q189 0 296 -176v136h390zM462 516q0 -107 40.5 -166.5t111.5 -59.5q72 0 113 59.5t41 166.5q0 105 -41 163.5t-113 58.5q-71 0 -111.5 -58.5t-40.5 -163.5z" />
    <glyph glyph-name="r" unicode="r" horiz-adv-x="880" 
d="M88 1024h390v-172q49 92 116.5 142t137.5 50h82v-396h-80q-109 0 -182.5 -46.5t-73.5 -117.5v-484h-390v1024z" />
    <glyph glyph-name="s" unicode="s" horiz-adv-x="1158" 
d="M652 356l-216 20q-358 32 -358 330q0 163 130.5 257.5t355.5 94.5q216 0 350 -91.5t154 -250.5h-376q-15 76 -124 76q-45 0 -70.5 -16.5t-25.5 -45.5q0 -49 54 -58l236 -20q174 -15 252 -96.5t78 -243.5q0 -153 -132.5 -247.5t-349.5 -94.5q-232 0 -375.5 90t-166.5 248
h396q17 -78 140 -78q51 0 81.5 17t30.5 47q0 54 -64 62z" />
    <glyph glyph-name="t" unicode="t" horiz-adv-x="774" 
d="M728 324v-324h-128q-192 0 -300 96t-108 268v356h-144v304h144v266h390v-266h146v-304h-146v-302q0 -50 19.5 -72t62.5 -22h64z" />
    <glyph glyph-name="u" unicode="u" horiz-adv-x="1220" 
d="M478 450q0 -142 136 -142q56 0 93 36.5t37 93.5v586h388v-1024h-388v138q-55 -84 -134.5 -131t-161.5 -47q-161 0 -260.5 107.5t-99.5 300.5v656h390v-574z" />
    <glyph glyph-name="v" unicode="v" horiz-adv-x="1210" 
d="M52 1024h402l154 -684l146 684h406l-332 -1024h-446z" />
    <glyph glyph-name="w" unicode="w" horiz-adv-x="1860" 
d="M52 1024h402l116 -654l136 654h444l146 -654l110 654h404l-304 -1024h-448l-138 642l-112 -642h-466z" />
    <glyph glyph-name="x" unicode="x" horiz-adv-x="1188" 
d="M52 1024h402l144 -316l136 316h404l-252 -512l252 -512h-402l-144 316l-136 -316h-404l252 512z" />
    <glyph glyph-name="y" unicode="y" horiz-adv-x="1250" 
d="M124 -46h122q104 0 136 66l16 42l-346 962h402l174 -622l166 622h406l-340 -1036q-66 -204 -184 -284t-356 -80h-196v330z" />
    <glyph glyph-name="z" unicode="z" horiz-adv-x="1068" 
d="M88 1024h892v-344l-448 -398h448v-282h-892v344l446 398h-446v282z" />
    <glyph glyph-name="braceleft" unicode="{" horiz-adv-x="736" 
d="M686 1070h-62q-43 0 -62.5 -17.5t-19.5 -56.5v-214q0 -79 -46 -133t-130 -75q84 -21 130 -76t46 -134v-212q0 -39 19.5 -56.5t62.5 -17.5h62v-344h-124q-183 0 -285.5 101.5t-102.5 282.5v214q0 39 -19.5 56.5t-62.5 17.5h-40v336h40q43 0 62.5 17.5t19.5 56.5v212
q0 182 102.5 284t285.5 102h124v-344z" />
    <glyph glyph-name="bar" unicode="|" 
d="M88 1638h390v-2048h-390v2048z" />
    <glyph glyph-name="braceright" unicode="}" horiz-adv-x="736" 
d="M52 78h60q43 0 62.5 17.5t19.5 56.5v212q0 79 46 134t130 76q-84 21 -130 75t-46 133v214q0 39 -19.5 56.5t-62.5 17.5h-60v344h124q183 0 285.5 -102t102.5 -284v-212q0 -39 19.5 -56.5t62.5 -17.5h40v-336h-40q-43 0 -62.5 -17.5t-19.5 -56.5v-214
q0 -181 -102.5 -282.5t-285.5 -101.5h-124v344z" />
    <glyph glyph-name="asciitilde" unicode="~" horiz-adv-x="1038" 
d="M306 1034q23 0 44 -2t41.5 -7t33.5 -8.5t32.5 -13t27 -13t28.5 -15t25 -13.5q72 -38 122 -38q55 0 85.5 25.5t30.5 72.5h212q0 -184 -79 -285t-223 -101q-42 0 -81 10.5t-58.5 20.5t-52.5 29q-3 2 -20.5 12.5t-22.5 13t-19 10t-22.5 9.5t-21 4.5t-24.5 2.5
q-45 0 -71.5 -27.5t-26.5 -74.5h-214q0 192 64.5 290t189.5 98z" />
    <glyph glyph-name="uni00A0" unicode="&#xa0;" horiz-adv-x="408" 
 />
    <glyph glyph-name="exclamdown" unicode="&#xa1;" 
d="M74 1024h418v-302h-418v302zM130 614h306l42 -922h-390z" />
    <glyph glyph-name="cent" unicode="&#xa2;" horiz-adv-x="1214" 
d="M68 670q0 232 132 380t356 166v114h122v-114q201 -18 328 -141t140 -329h-374q-3 130 -94 158v-472q91 23 94 140h374q-19 -201 -144.5 -319t-323.5 -135v-118h-122v118q-223 20 -355.5 169.5t-132.5 382.5zM442 670q0 -193 114 -236v468q-114 -40 -114 -232z" />
    <glyph glyph-name="sterling" unicode="&#xa3;" horiz-adv-x="1258" 
d="M82 794h160v116q0 197 129 317.5t339 120.5q207 0 344.5 -111t155.5 -291h-388q-4 45 -31 69.5t-71 24.5q-43 0 -66.5 -34t-23.5 -96v-116h326v-262h-326v-18q0 -125 -90 -170h646v-344h-1114v356q90 25 130 72t40 102v2h-160v262z" />
    <glyph glyph-name="currency" unicode="&#xa4;" horiz-adv-x="1204" 
d="M724 928l146 156l244 -244l-148 -138q22 -57 22 -126q0 -59 -24 -134l150 -138l-244 -244l-152 162q-54 -16 -114 -16q-64 0 -118 16l-152 -162l-244 244l152 138q-22 69 -22 134q0 61 20 124l-150 140l244 244l146 -156q64 16 122 16t122 -16zM480 576q0 -63 33 -99.5
t91 -36.5q57 0 90.5 36.5t33.5 99.5q0 61 -34.5 97.5t-91.5 36.5t-89.5 -36t-32.5 -98z" />
    <glyph glyph-name="yen" unicode="&#xa5;" horiz-adv-x="1344" 
d="M200 342h276v88h-276v242h178l-348 660h424l222 -490l212 490h426l-350 -660h182v-242h-282v-88h282v-242h-282v-100h-388v100h-276v242z" />
    <glyph glyph-name="brokenbar" unicode="&#xa6;" 
d="M92 1640h382v-918h-382v918zM474 508v-918h-382v918h382z" />
    <glyph glyph-name="section" unicode="&#xa7;" horiz-adv-x="1158" 
d="M652 324l-216 20q-358 26 -358 228q0 68 52.5 118.5t151.5 79.5q-214 70 -214 262q0 150 131.5 242t348.5 92q232 0 376.5 -88.5t167.5 -243.5h-398q-17 78 -138 78q-51 0 -82.5 -18t-31.5 -48q0 -34 66 -40l214 -20q360 -26 360 -228q0 -69 -46.5 -122t-133.5 -86
q190 -73 190 -254q0 -150 -132 -241t-350 -91q-232 0 -375.5 87.5t-166.5 242.5h396q9 -40 42.5 -58t97.5 -18q51 0 81.5 17t30.5 47q0 36 -64 42zM532 610l90 -10q66 13 66 62q0 50 -62 56l-92 10q-62 -12 -62 -60q0 -53 60 -58z" />
    <glyph glyph-name="dieresis" unicode="&#xa8;" horiz-adv-x="1006" 
d="M580 1386h376v-362h-376v362zM52 1386h376v-362h-376v362z" />
    <glyph glyph-name="copyright" unicode="&#xa9;" horiz-adv-x="1812" 
d="M1720 666q0 -231 -103 -410.5t-291 -278.5t-430 -99q-239 0 -421.5 95t-282.5 269t-100 402q0 234 103.5 418t290 286t424.5 102q236 0 420.5 -98.5t287 -277.5t102.5 -408zM896 126q244 0 396 150t152 392q0 239 -148.5 385.5t-389.5 146.5q-242 0 -390 -149t-148 -393
q0 -240 145 -386t383 -146zM474 664q0 192 117.5 309t312.5 117q177 0 289.5 -93t124.5 -257h-312q-1 56 -27 80t-75 24q-56 0 -87 -47t-31 -133q0 -88 31 -136t87 -48q48 0 73.5 19.5t28.5 66.5h312q-16 -159 -127 -245.5t-287 -86.5q-194 0 -312 118t-118 312z" />
    <glyph glyph-name="ordfeminine" unicode="&#xaa;" horiz-adv-x="1026" 
d="M938 764q0 -154 24 -244h-310q-13 60 -16 112q-44 -61 -109 -96.5t-139 -35.5q-140 0 -228 72.5t-88 187.5q0 102 77 163t215 75l180 18q46 5 66 15t20 33v6q0 30 -30 49t-74 19q-118 0 -130 -78h-316q12 135 132 215.5t312 80.5q177 0 295.5 -82.5t118.5 -205.5v-304z
M382 784q0 -27 27 -41.5t73 -14.5q65 0 106.5 34t41.5 86v8l-174 -18q-40 -4 -57 -17t-17 -37z" />
    <glyph glyph-name="guillemotleft" unicode="&#xab;" horiz-adv-x="1250" 
d="M1200 1188v-402l-274 -156l274 -142v-406l-532 332v442zM586 1188v-402l-274 -156l274 -142v-406l-532 332v442z" />
    <glyph glyph-name="logicalnot" unicode="&#xac;" horiz-adv-x="1314" 
d="M874 394h-822v344h1212v-616h-390v272z" />
    <glyph glyph-name="uni00AD" unicode="&#xad;" horiz-adv-x="864" 
d="M52 738h762v-344h-762v344z" />
    <glyph glyph-name="registered" unicode="&#xae;" horiz-adv-x="1812" 
d="M1720 666q0 -231 -103 -410.5t-291 -278.5t-430 -99q-239 0 -421.5 95t-282.5 269t-100 402q0 234 103.5 418t290 286t424.5 102q236 0 420.5 -98.5t287 -277.5t102.5 -408zM896 126q244 0 396 150t152 392q0 239 -148.5 385.5t-389.5 146.5q-242 0 -390 -149t-148 -393
q0 -240 145 -386t383 -146zM890 492h-88v-220h-286v776h476q126 0 203 -59.5t77 -156.5q0 -63 -36 -113t-100 -81q58 -22 88.5 -68t41.5 -126l20 -172h-280l-18 138q-12 82 -98 82zM914 834h-112v-134h112q36 0 56 18.5t20 51.5q0 30 -20 47t-56 17z" />
    <glyph glyph-name="macron" unicode="&#xaf;" horiz-adv-x="838" 
d="M52 1324h736v-280h-736v280z" />
    <glyph glyph-name="degree" unicode="&#xb0;" horiz-adv-x="870" 
d="M820 1006q0 -162 -108 -266t-276 -104q-170 0 -277 103.5t-107 266.5q0 162 107 265t275 103q170 0 278 -103t108 -265zM332 1006q0 -54 28 -85t76 -31t75 31.5t27 84.5t-28 83.5t-76 30.5q-47 0 -74.5 -31t-27.5 -83z" />
    <glyph glyph-name="plusminus" unicode="&#xb1;" horiz-adv-x="1204" 
d="M774 922h380v-344h-380v-276h-344v276h-378v344h378v276h344v-276zM1154 204v-344h-1102v344h1102z" />
    <glyph glyph-name="uni00B2" unicode="&#xb2;" horiz-adv-x="914" 
d="M412 988h424v-242h-764v70q0 83 19 148t47 104.5t71.5 70t79 44.5t83.5 27q15 4 48 12.5t46 12.5t31.5 12t25.5 18t7 23q0 25 -18 39.5t-48 14.5q-35 0 -55.5 -18.5t-22.5 -49.5h-314q12 128 120 207t272 79q172 0 276 -74.5t104 -197.5q0 -41 -14.5 -75t-36.5 -57
t-56.5 -42t-64.5 -30.5t-70 -23.5q-16 -5 -46 -13.5t-47 -13.5t-38.5 -12.5t-35.5 -15.5t-23 -17z" />
    <glyph glyph-name="uni00B3" unicode="&#xb3;" horiz-adv-x="934" 
d="M394 1062v158h92q44 0 44 50q0 31 -19.5 49.5t-52.5 18.5t-51.5 -18.5t-20.5 -51.5h-314q12 132 119.5 212t272.5 80t272.5 -66.5t107.5 -169.5q0 -130 -118 -180q138 -57 138 -194q0 -99 -101 -159.5t-265 -60.5q-179 0 -296.5 84t-129.5 220h314q4 -37 28.5 -57.5
t65.5 -20.5q34 0 52 15t18 41q0 50 -64 50h-92z" />
    <glyph glyph-name="acute" unicode="&#xb4;" horiz-adv-x="736" 
d="M686 1434l-328 -410h-306l204 410h430z" />
    <glyph glyph-name="mu" unicode="&#xb5;" horiz-adv-x="1220" 
d="M478 450q0 -142 136 -142q56 0 93 36.5t37 93.5v586h388v-1024h-388v138q-48 -76 -119.5 -122t-146.5 -54v-296h-390v1358h390v-574z" />
    <glyph glyph-name="paragraph" unicode="&#xb6;" horiz-adv-x="1482" 
d="M518 516q-201 0 -323.5 112.5t-122.5 297.5q0 182 122 293.5t324 112.5h852v-1332h-348v996h-144v-996h-360v516z" />
    <glyph glyph-name="periodcentered" unicode="&#xb7;" 
d="M74 894h418v-402h-418v402z" />
    <glyph glyph-name="cedilla" unicode="&#xb8;" horiz-adv-x="626" 
d="M198 20h200l-80 -132h28q102 0 166 -68.5t64 -177.5q0 -105 -93 -167.5t-249 -62.5h-182v266h166q64 0 64 48q0 38 -52 38h-70l-52 82z" />
    <glyph glyph-name="uni00B9" unicode="&#xb9;" horiz-adv-x="664" 
d="M266 1536h308v-790h-308v390h-214v248h94q62 0 91 25t29 87v40z" />
    <glyph glyph-name="ordmasculine" unicode="&#xba;" horiz-adv-x="1026" 
d="M68 930q0 192 122.5 309t323.5 117q200 0 322 -117t122 -309q0 -193 -122 -311.5t-322 -118.5q-201 0 -323.5 118t-122.5 312zM666 930q0 85 -40 132.5t-112 47.5q-73 0 -113.5 -47t-40.5 -133q0 -87 40.5 -135.5t113.5 -48.5q72 0 112 48.5t40 135.5z" />
    <glyph glyph-name="guillemotright" unicode="&#xbb;" horiz-adv-x="1250" 
d="M54 82v402l274 154l-274 144v406l532 -332v-442zM668 82v402l274 154l-274 144v406l532 -332v-442z" />
    <glyph glyph-name="onequarter" unicode="&#xbc;" horiz-adv-x="2110" 
d="M374 1332h308v-792h-308v392h-214v248h94q63 0 91.5 24t28.5 86v42zM1166 1332h326l-540 -1332h-328zM1918 148v-148h-286v148h-420v240l358 402h348v-424h108v-218h-108zM1632 366v166l-128 -166h128z" />
    <glyph glyph-name="onehalf" unicode="&#xbd;" horiz-adv-x="2110" 
d="M374 1332h308v-792h-308v392h-214v248h94q63 0 91.5 24t28.5 86v42zM1166 1332h326l-540 -1332h-328zM1606 242h424v-242h-764v70q0 83 19 148t47 104.5t71.5 70t79 44.5t83.5 27q15 4 48 12.5t46 12.5t31.5 12t25.5 18t7 23q0 25 -18 39.5t-48 14.5q-35 0 -55.5 -18.5
t-22.5 -49.5h-314q12 128 120 208t272 80q172 0 276 -75.5t104 -198.5q0 -41 -14.5 -75t-36.5 -56t-56.5 -41.5t-64 -30.5t-70.5 -23q-12 -4 -46 -13.5t-48 -14t-37 -13t-36.5 -16.5t-22.5 -17z" />
    <glyph glyph-name="threequarters" unicode="&#xbe;" horiz-adv-x="2110" 
d="M394 858v158h92q44 0 44 48q0 31 -19.5 49.5t-52.5 18.5t-51.5 -18.5t-20.5 -51.5h-314q12 132 119.5 213t272.5 81t272.5 -67.5t107.5 -170.5q0 -130 -118 -180q138 -54 138 -192q0 -99 -101.5 -160.5t-264.5 -61.5q-178 0 -296 84.5t-130 221.5h314q4 -37 28.5 -57.5
t65.5 -20.5q70 0 70 54q0 52 -64 52h-92zM1166 1332h326l-540 -1332h-328zM1918 148v-148h-286v148h-420v240l358 402h348v-424h108v-218h-108zM1632 366v166l-128 -166h128z" />
    <glyph glyph-name="questiondown" unicode="&#xbf;" horiz-adv-x="1202" 
d="M382 1024h418v-302h-418v302zM786 614q-9 -79 -38 -141t-58 -94.5t-74 -70.5q-8 -7 -36.5 -30t-37.5 -31t-28.5 -29t-26.5 -36t-14 -38t-7 -48q0 -55 34.5 -85.5t93.5 -30.5q63 0 101 42t41 114h394q-15 -204 -157 -332t-355 -128q-247 0 -396.5 115.5t-149.5 304.5
q0 67 13.5 120t40 91.5t51.5 62.5t63 52q3 2 22.5 16.5t24 18t21 16.5t22 19t18 19t17.5 22.5t13 23t12.5 27.5t7.5 30h388z" />
    <glyph glyph-name="Agrave" unicode="&#xc0;" horiz-adv-x="1386" 
d="M268 1844h430l204 -410h-306zM1356 0h-404l-58 208h-402l-56 -208h-406l442 1332h444zM690 930l-114 -418h232z" />
    <glyph glyph-name="Aacute" unicode="&#xc1;" horiz-adv-x="1386" 
d="M1124 1844l-328 -410h-308l206 410h430zM1356 0h-404l-58 208h-402l-56 -208h-406l442 1332h444zM690 930l-114 -418h232z" />
    <glyph glyph-name="Acircumflex" unicode="&#xc2;" horiz-adv-x="1386" 
d="M492 1844h370l286 -410h-348l-122 218l-124 -218h-348zM1356 0h-404l-58 208h-402l-56 -208h-406l442 1332h444zM690 930l-114 -418h232z" />
    <glyph glyph-name="Atilde" unicode="&#xc3;" horiz-adv-x="1386" 
d="M458 1824q20 0 40 -2t35 -4.5t33 -8t28 -9t27.5 -12t23.5 -11.5t24.5 -13t22.5 -12q63 -33 95 -38q12 -2 25 -2q56 0 87 26t31 72h210q0 -184 -78 -284t-222 -100q-42 0 -81 10.5t-60 20.5t-53 29q-4 3 -15.5 9.5t-16 9.5t-14.5 8.5t-16 7.5t-15 6t-16.5 5.5t-16.5 2.5
t-18 1q-45 0 -71.5 -27.5t-26.5 -74.5h-216q0 192 64.5 291t189.5 99zM1356 0h-404l-58 208h-402l-56 -208h-406l442 1332h444zM690 930l-114 -418h232z" />
    <glyph glyph-name="Adieresis" unicode="&#xc4;" horiz-adv-x="1386" 
d="M762 1796h376v-362h-376v362zM232 1796h378v-362h-378v362zM1356 0h-404l-58 208h-402l-56 -208h-406l442 1332h444zM690 930l-114 -418h232z" />
    <glyph glyph-name="Aring" unicode="&#xc5;" horiz-adv-x="1386" 
d="M1356 0h-404l-58 208h-402l-56 -208h-406l400 1204q-94 91 -94 236q0 147 94.5 237.5t247.5 90.5q154 0 249 -90.5t95 -237.5q0 -127 -72 -212zM576 1440q0 -47 27.5 -72.5t76.5 -25.5q48 0 74 25.5t26 72.5t-26.5 72.5t-75.5 25.5q-48 0 -75 -26t-27 -72zM690 930
l-114 -418h232z" />
    <glyph glyph-name="AE" unicode="&#xc6;" horiz-adv-x="1970" 
d="M1878 1332v-366h-594v-112h536v-364h-536v-126h594v-364h-984v208h-382l-76 -208h-406l530 1332h1318zM622 512h272v472h-102z" />
    <glyph glyph-name="Ccedilla" unicode="&#xc7;" horiz-adv-x="1386" 
d="M72 670q0 308 172.5 495t455.5 187q265 0 430 -136t184 -398h-394q-3 85 -61.5 135.5t-152.5 50.5q-114 0 -177 -87.5t-63 -246.5q0 -162 63 -250t177 -88q93 0 151 51t63 137h394q-3 -124 -45.5 -223t-116 -164t-170 -102t-212.5 -45l-60 -98h30q102 0 165 -68t63 -178
q0 -105 -93 -167.5t-249 -62.5h-182v266h166q31 0 48.5 12.5t17.5 35.5q0 38 -54 38h-70l-50 82l76 148q-232 41 -369 222t-137 454z" />
    <glyph glyph-name="Egrave" unicode="&#xc8;" horiz-adv-x="1146" 
d="M190 1844h430l204 -410h-306zM1076 1332v-366h-594v-112h536v-364h-536v-126h594v-364h-984v1332h984z" />
    <glyph glyph-name="Eacute" unicode="&#xc9;" horiz-adv-x="1146" 
d="M1046 1844l-328 -410h-308l206 410h430zM1076 1332v-366h-594v-112h536v-364h-536v-126h594v-364h-984v1332h984z" />
    <glyph glyph-name="Ecircumflex" unicode="&#xca;" horiz-adv-x="1146" 
d="M414 1844h370l286 -410h-348l-122 218l-124 -218h-348zM1076 1332v-366h-594v-112h536v-364h-536v-126h594v-364h-984v1332h984z" />
    <glyph glyph-name="Edieresis" unicode="&#xcb;" horiz-adv-x="1146" 
d="M684 1796h376v-362h-376v362zM154 1796h378v-362h-378v362zM1076 1332v-366h-594v-112h536v-364h-536v-126h594v-364h-984v1332h984z" />
    <glyph glyph-name="Igrave" unicode="&#xcc;" 
d="M-130 1844h430l204 -410h-306zM88 1332h390v-1332h-390v1332z" />
    <glyph glyph-name="Iacute" unicode="&#xcd;" 
d="M726 1844l-328 -410h-308l206 410h430zM88 1332h390v-1332h-390v1332z" />
    <glyph glyph-name="Icircumflex" unicode="&#xce;" 
d="M94 1844h370l286 -410h-348l-122 218l-124 -218h-348zM88 1332h390v-1332h-390v1332z" />
    <glyph glyph-name="Idieresis" unicode="&#xcf;" 
d="M364 1796h376v-362h-376v362zM-166 1796h378v-362h-378v362zM88 1332h390v-1332h-390v1332z" />
    <glyph glyph-name="Eth" unicode="&#xd0;" horiz-adv-x="1524" 
d="M62 828h166v504h598q282 0 455 -190t173 -500q0 -289 -162 -465.5t-426 -176.5h-638v504h-166v324zM616 988v-160h248v-324h-248v-160h230q102 0 157 78t55 220q0 165 -67 255.5t-187 90.5h-188z" />
    <glyph glyph-name="Ntilde" unicode="&#xd1;" horiz-adv-x="1392" 
d="M468 1824q20 0 40 -2t35 -4.5t33 -8t28 -9t27.5 -12t23.5 -11.5t24.5 -13t22.5 -12q63 -33 95 -38q12 -2 25 -2q56 0 87 26t31 72h210q0 -184 -78 -284t-222 -100q-42 0 -81 10.5t-60 20.5t-53 29q-4 3 -15.5 9.5t-16 9.5t-14.5 8.5t-16 7.5t-15 6t-16.5 5.5t-16.5 2.5
t-18 1q-45 0 -71.5 -27.5t-26.5 -74.5h-216q0 192 64.5 291t189.5 99zM912 1332h388v-1332h-402l-416 740v-740h-390v1332h472l348 -680v680z" />
    <glyph glyph-name="Ograve" unicode="&#xd2;" horiz-adv-x="1442" 
d="M304 1844h430l204 -410h-306zM72 650q0 317 178 509.5t472 192.5q293 0 471.5 -193t178.5 -509q0 -300 -178.5 -483t-471.5 -183q-294 0 -472 183t-178 483zM976 650q0 168 -67 261t-187 93q-121 0 -188.5 -93t-67.5 -261q0 -150 67.5 -234t188.5 -84q120 0 187 84
t67 234z" />
    <glyph glyph-name="Oacute" unicode="&#xd3;" horiz-adv-x="1442" 
d="M1160 1844l-328 -410h-308l206 410h430zM72 650q0 317 178 509.5t472 192.5q293 0 471.5 -193t178.5 -509q0 -300 -178.5 -483t-471.5 -183q-294 0 -472 183t-178 483zM976 650q0 168 -67 261t-187 93q-121 0 -188.5 -93t-67.5 -261q0 -150 67.5 -234t188.5 -84
q120 0 187 84t67 234z" />
    <glyph glyph-name="Ocircumflex" unicode="&#xd4;" horiz-adv-x="1442" 
d="M528 1844h370l286 -410h-348l-122 218l-124 -218h-348zM72 650q0 317 178 509.5t472 192.5q293 0 471.5 -193t178.5 -509q0 -300 -178.5 -483t-471.5 -183q-294 0 -472 183t-178 483zM976 650q0 168 -67 261t-187 93q-121 0 -188.5 -93t-67.5 -261q0 -150 67.5 -234
t188.5 -84q120 0 187 84t67 234z" />
    <glyph glyph-name="Otilde" unicode="&#xd5;" horiz-adv-x="1442" 
d="M494 1824q20 0 40 -2t35 -4.5t33 -8t28 -9t27.5 -12t23.5 -11.5t24.5 -13t22.5 -12q63 -33 95 -38q12 -2 25 -2q56 0 87 26t31 72h210q0 -184 -78 -284t-222 -100q-42 0 -81 10.5t-60 20.5t-53 29q-4 3 -15.5 9.5t-16 9.5t-14.5 8.5t-16 7.5t-15 6t-16.5 5.5t-16.5 2.5
t-18 1q-45 0 -71.5 -27.5t-26.5 -74.5h-216q0 192 64.5 291t189.5 99zM72 650q0 317 178 509.5t472 192.5q293 0 471.5 -193t178.5 -509q0 -300 -178.5 -483t-471.5 -183q-294 0 -472 183t-178 483zM976 650q0 168 -67 261t-187 93q-121 0 -188.5 -93t-67.5 -261
q0 -150 67.5 -234t188.5 -84q120 0 187 84t67 234z" />
    <glyph glyph-name="Odieresis" unicode="&#xd6;" horiz-adv-x="1442" 
d="M798 1796h376v-362h-376v362zM268 1796h378v-362h-378v362zM72 650q0 317 178 509.5t472 192.5q293 0 471.5 -193t178.5 -509q0 -300 -178.5 -483t-471.5 -183q-294 0 -472 183t-178 483zM976 650q0 168 -67 261t-187 93q-121 0 -188.5 -93t-67.5 -261q0 -150 67.5 -234
t188.5 -84q120 0 187 84t67 234z" />
    <glyph glyph-name="multiply" unicode="&#xd7;" horiz-adv-x="1204" 
d="M602 870l268 290l244 -244l-288 -268l288 -270l-244 -242l-268 288l-268 -288l-244 242l288 270l-288 268l244 244z" />
    <glyph glyph-name="Oslash" unicode="&#xd8;" horiz-adv-x="1442" 
d="M72 650q0 317 178 509.5t472 192.5q180 0 324 -78l130 160l196 -164l-134 -166q134 -184 134 -454q0 -300 -178.5 -483t-471.5 -183q-181 0 -326 74l-128 -160l-196 164l130 162q-130 170 -130 426zM466 650q0 -53 8 -90l342 426q-42 18 -94 18q-121 0 -188.5 -93
t-67.5 -261zM976 650q0 56 -10 116l-336 -418q45 -16 92 -16q120 0 187 84t67 234z" />
    <glyph glyph-name="Ugrave" unicode="&#xd9;" horiz-adv-x="1308" 
d="M224 1844h430l204 -410h-306zM82 1332h390v-806q0 -83 51.5 -128.5t144.5 -45.5q81 0 125.5 45.5t44.5 128.5v806h388v-806q0 -244 -153.5 -393t-404.5 -149q-264 0 -425 149t-161 393v806z" />
    <glyph glyph-name="Uacute" unicode="&#xda;" horiz-adv-x="1308" 
d="M1080 1844l-328 -410h-308l206 410h430zM82 1332h390v-806q0 -83 51.5 -128.5t144.5 -45.5q81 0 125.5 45.5t44.5 128.5v806h388v-806q0 -244 -153.5 -393t-404.5 -149q-264 0 -425 149t-161 393v806z" />
    <glyph glyph-name="Ucircumflex" unicode="&#xdb;" horiz-adv-x="1308" 
d="M448 1844h370l286 -410h-348l-122 218l-124 -218h-348zM82 1332h390v-806q0 -83 51.5 -128.5t144.5 -45.5q81 0 125.5 45.5t44.5 128.5v806h388v-806q0 -244 -153.5 -393t-404.5 -149q-264 0 -425 149t-161 393v806z" />
    <glyph glyph-name="Udieresis" unicode="&#xdc;" horiz-adv-x="1308" 
d="M718 1796h376v-362h-376v362zM188 1796h378v-362h-378v362zM82 1332h390v-806q0 -83 51.5 -128.5t144.5 -45.5q81 0 125.5 45.5t44.5 128.5v806h388v-806q0 -244 -153.5 -393t-404.5 -149q-264 0 -425 149t-161 393v806z" />
    <glyph glyph-name="Yacute" unicode="&#xdd;" horiz-adv-x="1344" 
d="M1106 1844l-328 -410h-308l206 410h430zM476 444l-446 888h424l222 -490l212 490h426l-450 -890v-442h-388v444z" />
    <glyph glyph-name="Thorn" unicode="&#xde;" horiz-adv-x="1282" 
d="M88 1332h390v-186h228q232 0 373 -125t141 -329q0 -212 -131.5 -343t-344.5 -131h-262v-218h-394v1332zM482 818v-256h190q71 0 110.5 34.5t39.5 95.5q0 60 -39.5 93t-110.5 33h-190z" />
    <glyph glyph-name="germandbls" unicode="&#xdf;" horiz-adv-x="1320" 
d="M694 1128q-99 0 -155.5 -63t-56.5 -173v-892h-390v906q0 240 165.5 392t436.5 152q223 0 378.5 -124.5t155.5 -301.5q0 -98 -51 -177t-145 -127q104 -55 161 -143t57 -199q0 -171 -133 -274.5t-349 -103.5h-166v328h126q70 0 108 30t38 86q0 57 -44.5 89.5t-123.5 32.5
h-84v306h84q70 0 109 32.5t39 91.5q0 57 -45.5 94.5t-114.5 37.5z" />
    <glyph glyph-name="agrave" unicode="&#xe0;" horiz-adv-x="1182" 
d="M170 1556h430l204 -410h-306zM1092 646v-646h-390v128q-42 -75 -117 -115.5t-175 -40.5q-147 0 -244.5 95.5t-97.5 240.5q0 307 328 328l236 14q38 3 54 16t16 40v4q0 33 -31.5 57.5t-74.5 24.5q-110 0 -122 -90h-398q12 162 153 259t365 97q227 0 362.5 -112.5
t135.5 -299.5zM460 334q0 -35 30 -57.5t78 -22.5q55 0 94.5 35t39.5 85v42l-158 -6q-40 -1 -62 -21t-22 -55z" />
    <glyph glyph-name="aacute" unicode="&#xe1;" horiz-adv-x="1182" 
d="M1026 1556l-328 -410h-308l206 410h430zM1092 646v-646h-390v128q-42 -75 -117 -115.5t-175 -40.5q-147 0 -244.5 95.5t-97.5 240.5q0 307 328 328l236 14q38 3 54 16t16 40v4q0 33 -31.5 57.5t-74.5 24.5q-110 0 -122 -90h-398q12 162 153 259t365 97
q227 0 362.5 -112.5t135.5 -299.5zM460 334q0 -35 30 -57.5t78 -22.5q55 0 94.5 35t39.5 85v42l-158 -6q-40 -1 -62 -21t-22 -55z" />
    <glyph glyph-name="acircumflex" unicode="&#xe2;" horiz-adv-x="1182" 
d="M394 1556h370l286 -410h-348l-122 218l-124 -218h-348zM1092 646v-646h-390v128q-42 -75 -117 -115.5t-175 -40.5q-147 0 -244.5 95.5t-97.5 240.5q0 307 328 328l236 14q38 3 54 16t16 40v4q0 33 -31.5 57.5t-74.5 24.5q-110 0 -122 -90h-398q12 162 153 259t365 97
q227 0 362.5 -112.5t135.5 -299.5zM460 334q0 -35 30 -57.5t78 -22.5q55 0 94.5 35t39.5 85v42l-158 -6q-40 -1 -62 -21t-22 -55z" />
    <glyph glyph-name="atilde" unicode="&#xe3;" horiz-adv-x="1182" 
d="M360 1536q20 0 40 -2t35 -4.5t33 -8t28 -9t27.5 -12t23.5 -11.5t24.5 -13t22.5 -12q63 -33 95 -38q12 -2 25 -2q56 0 87 26t31 72h210q0 -184 -78 -284t-222 -100q-42 0 -81 10.5t-60 20.5t-53 29q-4 3 -15.5 9.5t-16 9.5t-14.5 8.5t-16 7.5t-15 6t-16.5 5.5t-16.5 2.5
t-18 1q-45 0 -71.5 -27.5t-26.5 -74.5h-216q0 192 64.5 291t189.5 99zM1092 646v-646h-390v128q-42 -75 -117 -115.5t-175 -40.5q-147 0 -244.5 95.5t-97.5 240.5q0 307 328 328l236 14q38 3 54 16t16 40v4q0 33 -31.5 57.5t-74.5 24.5q-110 0 -122 -90h-398q12 162 153 259
t365 97q227 0 362.5 -112.5t135.5 -299.5zM460 334q0 -35 30 -57.5t78 -22.5q55 0 94.5 35t39.5 85v42l-158 -6q-40 -1 -62 -21t-22 -55z" />
    <glyph glyph-name="adieresis" unicode="&#xe4;" horiz-adv-x="1182" 
d="M664 1508h376v-362h-376v362zM134 1508h378v-362h-378v362zM1092 646v-646h-390v128q-42 -75 -117 -115.5t-175 -40.5q-147 0 -244.5 95.5t-97.5 240.5q0 307 328 328l236 14q38 3 54 16t16 40v4q0 33 -31.5 57.5t-74.5 24.5q-110 0 -122 -90h-398q12 162 153 259t365 97
q227 0 362.5 -112.5t135.5 -299.5zM460 334q0 -35 30 -57.5t78 -22.5q55 0 94.5 35t39.5 85v42l-158 -6q-40 -1 -62 -21t-22 -55z" />
    <glyph glyph-name="aring" unicode="&#xe5;" horiz-adv-x="1182" 
d="M924 1460q0 -147 -94.5 -237.5t-247.5 -90.5q-154 0 -249 90.5t-95 237.5t94.5 237.5t247.5 90.5q154 0 249 -90.5t95 -237.5zM478 1460q0 -47 27.5 -72.5t76.5 -25.5q48 0 74 25.5t26 72.5t-26.5 72.5t-75.5 25.5q-48 0 -75 -26t-27 -72zM1092 646v-646h-390v128
q-42 -75 -117 -115.5t-175 -40.5q-147 0 -244.5 95.5t-97.5 240.5q0 307 328 328l236 14q38 3 54 16t16 40v4q0 33 -31.5 57.5t-74.5 24.5q-110 0 -122 -90h-398q12 162 153 259t365 97q227 0 362.5 -112.5t135.5 -299.5zM460 334q0 -35 30 -57.5t78 -22.5q55 0 94.5 35
t39.5 85v42l-158 -6q-40 -1 -62 -21t-22 -55z" />
    <glyph glyph-name="ae" unicode="&#xe6;" horiz-adv-x="1864" 
d="M1294 -16q-161 0 -276.5 75t-171.5 213q-27 -143 -135.5 -221.5t-280.5 -78.5q-156 0 -259 95.5t-103 240.5q0 302 328 320l236 14q38 1 54 14.5t16 41.5v4q0 34 -33.5 59t-78.5 25q-104 0 -116 -92h-398q10 166 131.5 265t312.5 99q287 0 402 -168q129 154 360 154
q224 0 368 -155.5t144 -398.5v-68h-688q27 -146 142 -146q103 0 118 82h416q-49 -374 -488 -374zM1234 778q-94 0 -122 -114h264q-6 53 -44 83.5t-98 30.5zM460 350q0 -36 30.5 -58t77.5 -22q55 0 94.5 35t39.5 85v42l-158 -6q-40 -1 -62 -21t-22 -55z" />
    <glyph glyph-name="ccedilla" unicode="&#xe7;" horiz-adv-x="1214" 
d="M68 516q0 248 149.5 398t396.5 150q226 0 371.5 -125t160.5 -347h-394q-3 146 -138 146q-72 0 -112 -58t-40 -164q0 -108 40 -167t112 -59q64 0 99.5 29t38.5 99h394q-18 -193 -134.5 -309t-303.5 -139l-50 -82h30q102 0 165 -68t63 -178q0 -105 -93 -167.5t-249 -62.5
h-182v266h166q31 0 48.5 12.5t17.5 35.5q0 38 -54 38h-70l-50 82l64 126q-205 30 -325.5 176t-120.5 368z" />
    <glyph glyph-name="egrave" unicode="&#xe8;" horiz-adv-x="1226" 
d="M190 1556h430l204 -410h-306zM68 516q0 244 142.5 386t385.5 142q246 0 405 -155.5t159 -398.5v-68h-690q27 -146 142 -146q105 0 120 82h414q-52 -374 -538 -374q-249 0 -394.5 143t-145.5 389zM600 778q-93 0 -124 -114h266q-6 53 -44 83.5t-98 30.5z" />
    <glyph glyph-name="eacute" unicode="&#xe9;" horiz-adv-x="1226" 
d="M1046 1556l-328 -410h-308l206 410h430zM68 516q0 244 142.5 386t385.5 142q246 0 405 -155.5t159 -398.5v-68h-690q27 -146 142 -146q105 0 120 82h414q-52 -374 -538 -374q-249 0 -394.5 143t-145.5 389zM600 778q-93 0 -124 -114h266q-6 53 -44 83.5t-98 30.5z" />
    <glyph glyph-name="ecircumflex" unicode="&#xea;" horiz-adv-x="1226" 
d="M414 1556h370l286 -410h-348l-122 218l-124 -218h-348zM68 516q0 244 142.5 386t385.5 142q246 0 405 -155.5t159 -398.5v-68h-690q27 -146 142 -146q105 0 120 82h414q-52 -374 -538 -374q-249 0 -394.5 143t-145.5 389zM600 778q-93 0 -124 -114h266q-6 53 -44 83.5
t-98 30.5z" />
    <glyph glyph-name="edieresis" unicode="&#xeb;" horiz-adv-x="1226" 
d="M684 1508h376v-362h-376v362zM154 1508h378v-362h-378v362zM68 516q0 244 142.5 386t385.5 142q246 0 405 -155.5t159 -398.5v-68h-690q27 -146 142 -146q105 0 120 82h414q-52 -374 -538 -374q-249 0 -394.5 143t-145.5 389zM600 778q-93 0 -124 -114h266
q-6 53 -44 83.5t-98 30.5z" />
    <glyph glyph-name="igrave" unicode="&#xec;" 
d="M-128 1556h430l204 -410h-306zM88 1024h390v-1024h-390v1024z" />
    <glyph glyph-name="iacute" unicode="&#xed;" 
d="M728 1556l-328 -410h-308l206 410h430zM88 1024h390v-1024h-390v1024z" />
    <glyph glyph-name="icircumflex" unicode="&#xee;" 
d="M96 1556h370l286 -410h-348l-122 218l-124 -218h-348zM88 1024h390v-1024h-390v1024z" />
    <glyph glyph-name="idieresis" unicode="&#xef;" 
d="M366 1508h376v-362h-376v362zM-164 1508h378v-362h-378v362zM88 1024h390v-1024h-390v1024z" />
    <glyph glyph-name="eth" unicode="&#xf0;" horiz-adv-x="1344" 
d="M492 1314l188 12q-42 53 -100 108h428q31 -34 68 -84l210 14v-242l-82 -4q70 -175 70 -364q0 -354 -167.5 -562t-452.5 -208q-258 0 -420 150t-162 388q0 218 125 361t315 143q123 0 222 -63t144 -169v26q0 143 -56 274l-330 -20v240zM834 512q0 91 -50.5 147.5
t-133.5 56.5t-133.5 -57t-50.5 -151q0 -97 49.5 -156.5t130.5 -59.5q82 0 135 62t53 158z" />
    <glyph glyph-name="ntilde" unicode="&#xf1;" horiz-adv-x="1240" 
d="M410 1536q20 0 40 -2t35 -4.5t33 -8t28 -9t27.5 -12t23.5 -11.5t24.5 -13t22.5 -12q63 -33 95 -38q12 -2 25 -2q56 0 87 26t31 72h210q0 -184 -78 -284t-222 -100q-42 0 -81 10.5t-60 20.5t-53 29q-4 3 -15.5 9.5t-16 9.5t-14.5 8.5t-16 7.5t-15 6t-16.5 5.5t-16.5 2.5
t-18 1q-45 0 -71.5 -27.5t-26.5 -74.5h-216q0 192 64.5 291t189.5 99zM768 552q0 83 -39 123.5t-109 40.5q-60 0 -99 -42t-39 -108v-566h-390v1024h390v-148q56 90 137 139t167 49q166 0 269 -114t103 -316v-634h-390v552z" />
    <glyph glyph-name="ograve" unicode="&#xf2;" horiz-adv-x="1230" 
d="M196 1556h430l204 -410h-306zM68 516q0 248 150 398t398 150q246 0 397 -150.5t151 -397.5q0 -249 -151 -400.5t-397 -151.5q-247 0 -397.5 151.5t-150.5 400.5zM768 516q0 105 -40.5 163.5t-111.5 58.5q-72 0 -113 -58.5t-41 -163.5q0 -107 41 -166.5t113 -59.5
q71 0 111.5 59.5t40.5 166.5z" />
    <glyph glyph-name="oacute" unicode="&#xf3;" horiz-adv-x="1230" 
d="M1052 1556l-328 -410h-308l206 410h430zM68 516q0 248 150 398t398 150q246 0 397 -150.5t151 -397.5q0 -249 -151 -400.5t-397 -151.5q-247 0 -397.5 151.5t-150.5 400.5zM768 516q0 105 -40.5 163.5t-111.5 58.5q-72 0 -113 -58.5t-41 -163.5q0 -107 41 -166.5
t113 -59.5q71 0 111.5 59.5t40.5 166.5z" />
    <glyph glyph-name="ocircumflex" unicode="&#xf4;" horiz-adv-x="1230" 
d="M420 1556h370l286 -410h-348l-122 218l-124 -218h-348zM68 516q0 248 150 398t398 150q246 0 397 -150.5t151 -397.5q0 -249 -151 -400.5t-397 -151.5q-247 0 -397.5 151.5t-150.5 400.5zM768 516q0 105 -40.5 163.5t-111.5 58.5q-72 0 -113 -58.5t-41 -163.5
q0 -107 41 -166.5t113 -59.5q71 0 111.5 59.5t40.5 166.5z" />
    <glyph glyph-name="otilde" unicode="&#xf5;" horiz-adv-x="1230" 
d="M386 1536q20 0 40 -2t35 -4.5t33 -8t28 -9t27.5 -12t23.5 -11.5t24.5 -13t22.5 -12q63 -33 95 -38q12 -2 25 -2q56 0 87 26t31 72h210q0 -184 -78 -284t-222 -100q-42 0 -81 10.5t-60 20.5t-53 29q-4 3 -15.5 9.5t-16 9.5t-14.5 8.5t-16 7.5t-15 6t-16.5 5.5t-16.5 2.5
t-18 1q-45 0 -71.5 -27.5t-26.5 -74.5h-216q0 192 64.5 291t189.5 99zM68 516q0 248 150 398t398 150q246 0 397 -150.5t151 -397.5q0 -249 -151 -400.5t-397 -151.5q-247 0 -397.5 151.5t-150.5 400.5zM768 516q0 105 -40.5 163.5t-111.5 58.5q-72 0 -113 -58.5t-41 -163.5
q0 -107 41 -166.5t113 -59.5q71 0 111.5 59.5t40.5 166.5z" />
    <glyph glyph-name="odieresis" unicode="&#xf6;" horiz-adv-x="1230" 
d="M690 1508h376v-362h-376v362zM160 1508h378v-362h-378v362zM68 516q0 248 150 398t398 150q246 0 397 -150.5t151 -397.5q0 -249 -151 -400.5t-397 -151.5q-247 0 -397.5 151.5t-150.5 400.5zM768 516q0 105 -40.5 163.5t-111.5 58.5q-72 0 -113 -58.5t-41 -163.5
q0 -107 41 -166.5t113 -59.5q71 0 111.5 59.5t40.5 166.5z" />
    <glyph glyph-name="divide" unicode="&#xf7;" horiz-adv-x="1048" 
d="M360 1136h336v-342h-336v342zM52 716h946v-302h-946v302zM360 334h336v-342h-336v342z" />
    <glyph glyph-name="oslash" unicode="&#xf8;" horiz-adv-x="1230" 
d="M68 516q0 248 150 398t398 150q172 0 298 -74l114 128l136 -122l-112 -126q112 -143 112 -354q0 -249 -151 -400.5t-397 -151.5q-168 0 -298 74l-112 -128l-134 122l110 124q-114 145 -114 360zM442 516q0 -24 4 -60l248 282q-31 20 -78 20q-82 0 -128 -64t-46 -178z
M788 516q0 34 -2 50l-246 -278q33 -18 76 -18q80 0 126 65t46 181z" />
    <glyph glyph-name="ugrave" unicode="&#xf9;" horiz-adv-x="1220" 
d="M188 1556h430l204 -410h-306zM478 450q0 -142 136 -142q56 0 93 36.5t37 93.5v586h388v-1024h-388v138q-55 -84 -134.5 -131t-161.5 -47q-161 0 -260.5 107.5t-99.5 300.5v656h390v-574z" />
    <glyph glyph-name="uacute" unicode="&#xfa;" horiz-adv-x="1220" 
d="M1044 1556l-328 -410h-308l206 410h430zM478 450q0 -142 136 -142q56 0 93 36.5t37 93.5v586h388v-1024h-388v138q-55 -84 -134.5 -131t-161.5 -47q-161 0 -260.5 107.5t-99.5 300.5v656h390v-574z" />
    <glyph glyph-name="ucircumflex" unicode="&#xfb;" horiz-adv-x="1220" 
d="M412 1556h370l286 -410h-348l-122 218l-124 -218h-348zM478 450q0 -142 136 -142q56 0 93 36.5t37 93.5v586h388v-1024h-388v138q-55 -84 -134.5 -131t-161.5 -47q-161 0 -260.5 107.5t-99.5 300.5v656h390v-574z" />
    <glyph glyph-name="udieresis" unicode="&#xfc;" horiz-adv-x="1220" 
d="M682 1508h376v-362h-376v362zM152 1508h378v-362h-378v362zM478 450q0 -142 136 -142q56 0 93 36.5t37 93.5v586h388v-1024h-388v138q-55 -84 -134.5 -131t-161.5 -47q-161 0 -260.5 107.5t-99.5 300.5v656h390v-574z" />
    <glyph glyph-name="yacute" unicode="&#xfd;" horiz-adv-x="1250" 
d="M1068 1556l-328 -410h-308l206 410h430zM124 -46h122q104 0 136 66l16 42l-346 962h402l174 -622l166 622h406l-340 -1036q-66 -204 -184 -284t-356 -80h-196v330z" />
    <glyph glyph-name="thorn" unicode="&#xfe;" horiz-adv-x="1244" 
d="M88 1434h390v-546q107 176 296 176q182 0 293 -150.5t111 -397.5q0 -249 -111 -400.5t-293 -151.5q-188 0 -296 178v-476h-390v1768zM782 516q0 105 -40.5 163.5t-111.5 58.5q-72 0 -112 -58.5t-40 -163.5q0 -108 40 -167t112 -59q71 0 111.5 59.5t40.5 166.5z" />
    <glyph glyph-name="ydieresis" unicode="&#xff;" horiz-adv-x="1250" 
d="M706 1508h376v-362h-376v362zM176 1508h378v-362h-378v362zM124 -46h122q104 0 136 66l16 42l-346 962h402l174 -622l166 622h406l-340 -1036q-66 -204 -184 -284t-356 -80h-196v330z" />
    <glyph glyph-name="Amacron" unicode="&#x100;" horiz-adv-x="1386" 
d="M306 1734h738v-280h-738v280zM1356 0h-404l-58 208h-402l-56 -208h-406l442 1332h444zM690 930l-114 -418h232z" />
    <glyph glyph-name="amacron" unicode="&#x101;" horiz-adv-x="1182" 
d="M208 1446h738v-280h-738v280zM1092 646v-646h-390v128q-42 -75 -117 -115.5t-175 -40.5q-147 0 -244.5 95.5t-97.5 240.5q0 307 328 328l236 14q38 3 54 16t16 40v4q0 33 -31.5 57.5t-74.5 24.5q-110 0 -122 -90h-398q12 162 153 259t365 97q227 0 362.5 -112.5
t135.5 -299.5zM460 334q0 -35 30 -57.5t78 -22.5q55 0 94.5 35t39.5 85v42l-158 -6q-40 -1 -62 -21t-22 -55z" />
    <glyph glyph-name="Abreve" unicode="&#x102;" horiz-adv-x="1386" 
d="M1136 1808q-24 -175 -149 -281.5t-307 -106.5q-184 0 -311 106.5t-149 281.5h324q9 -58 45 -90t91 -32q54 0 88.5 32t43.5 90h324zM1356 0h-404l-58 208h-402l-56 -208h-406l442 1332h444zM690 930l-114 -418h232z" />
    <glyph glyph-name="abreve" unicode="&#x103;" horiz-adv-x="1182" 
d="M1038 1520q-24 -175 -149 -281.5t-307 -106.5q-184 0 -311 106.5t-149 281.5h324q9 -58 45 -90t91 -32q54 0 88.5 32t43.5 90h324zM1092 646v-646h-390v128q-42 -75 -117 -115.5t-175 -40.5q-147 0 -244.5 95.5t-97.5 240.5q0 307 328 328l236 14q38 3 54 16t16 40v4
q0 33 -31.5 57.5t-74.5 24.5q-110 0 -122 -90h-398q12 162 153 259t365 97q227 0 362.5 -112.5t135.5 -299.5zM460 334q0 -35 30 -57.5t78 -22.5q55 0 94.5 35t39.5 85v42l-158 -6q-40 -1 -62 -21t-22 -55z" />
    <glyph glyph-name="Aogonek" unicode="&#x104;" horiz-adv-x="1386" 
d="M1356 0q-99 -52 -132.5 -89.5t-33.5 -88.5q0 -80 106 -80h146v-286h-162q-165 0 -263.5 71t-98.5 191q0 177 198 282h-164l-58 208h-402l-56 -208h-406l442 1332h444zM690 930l-114 -418h232z" />
    <glyph glyph-name="aogonek" unicode="&#x105;" horiz-adv-x="1182" 
d="M1092 0q-99 -52 -132.5 -89.5t-33.5 -88.5q0 -80 106 -80h146v-286h-162q-165 0 -263.5 71t-98.5 191q0 177 198 282h-150v128q-42 -75 -117 -115.5t-175 -40.5q-147 0 -244.5 95.5t-97.5 240.5q0 307 328 328l236 14q38 3 54 16t16 40v4q0 33 -31.5 57.5t-74.5 24.5
q-110 0 -122 -90h-398q12 162 153 259t365 97q227 0 362.5 -112.5t135.5 -299.5v-646zM460 334q0 -35 30 -57.5t78 -22.5q55 0 94.5 35t39.5 85v42l-158 -6q-40 -1 -62 -21t-22 -55z" />
    <glyph glyph-name="Cacute" unicode="&#x106;" horiz-adv-x="1386" 
d="M1114 1844l-328 -410h-308l206 410h430zM72 670q0 308 172.5 495t455.5 187q265 0 430 -136t184 -398h-394q-3 85 -61.5 135.5t-152.5 50.5q-114 0 -177 -87.5t-63 -246.5q0 -162 63 -250t177 -88q93 0 151 51t63 137h394q-3 -134 -51.5 -237.5t-132 -168t-192.5 -97.5
t-238 -33q-282 0 -455 188.5t-173 497.5z" />
    <glyph glyph-name="cacute" unicode="&#x107;" horiz-adv-x="1214" 
d="M1046 1556l-328 -410h-308l206 410h430zM68 516q0 248 149.5 398t396.5 150q226 0 371.5 -125t160.5 -347h-394q-3 146 -138 146q-72 0 -112 -58t-40 -164q0 -108 40 -167t112 -59q64 0 99.5 29t38.5 99h394q-21 -217 -164 -335.5t-368 -118.5q-246 0 -396 151.5
t-150 400.5z" />
    <glyph glyph-name="Ccircumflex" unicode="&#x108;" horiz-adv-x="1386" 
d="M482 1844h370l286 -410h-348l-122 218l-124 -218h-348zM72 670q0 308 172.5 495t455.5 187q265 0 430 -136t184 -398h-394q-3 85 -61.5 135.5t-152.5 50.5q-114 0 -177 -87.5t-63 -246.5q0 -162 63 -250t177 -88q93 0 151 51t63 137h394q-3 -134 -51.5 -237.5t-132 -168
t-192.5 -97.5t-238 -33q-282 0 -455 188.5t-173 497.5z" />
    <glyph glyph-name="ccircumflex" unicode="&#x109;" horiz-adv-x="1214" 
d="M414 1556h370l286 -410h-348l-122 218l-124 -218h-348zM68 516q0 248 149.5 398t396.5 150q226 0 371.5 -125t160.5 -347h-394q-3 146 -138 146q-72 0 -112 -58t-40 -164q0 -108 40 -167t112 -59q64 0 99.5 29t38.5 99h394q-21 -217 -164 -335.5t-368 -118.5
q-246 0 -396 151.5t-150 400.5z" />
    <glyph glyph-name="Cdotaccent" unicode="&#x10a;" horiz-adv-x="1386" 
d="M462 1838h418v-404h-418v404zM72 670q0 308 172.5 495t455.5 187q265 0 430 -136t184 -398h-394q-3 85 -61.5 135.5t-152.5 50.5q-114 0 -177 -87.5t-63 -246.5q0 -162 63 -250t177 -88q93 0 151 51t63 137h394q-3 -134 -51.5 -237.5t-132 -168t-192.5 -97.5t-238 -33
q-282 0 -455 188.5t-173 497.5z" />
    <glyph glyph-name="cdotaccent" unicode="&#x10b;" horiz-adv-x="1214" 
d="M394 1550h418v-404h-418v404zM68 516q0 248 149.5 398t396.5 150q226 0 371.5 -125t160.5 -347h-394q-3 146 -138 146q-72 0 -112 -58t-40 -164q0 -108 40 -167t112 -59q64 0 99.5 29t38.5 99h394q-21 -217 -164 -335.5t-368 -118.5q-246 0 -396 151.5t-150 400.5z" />
    <glyph glyph-name="Ccaron" unicode="&#x10c;" horiz-adv-x="1386" 
d="M852 1434h-370l-286 410h348l124 -218l122 218h348zM72 670q0 308 172.5 495t455.5 187q265 0 430 -136t184 -398h-394q-3 85 -61.5 135.5t-152.5 50.5q-114 0 -177 -87.5t-63 -246.5q0 -162 63 -250t177 -88q93 0 151 51t63 137h394q-3 -134 -51.5 -237.5t-132 -168
t-192.5 -97.5t-238 -33q-282 0 -455 188.5t-173 497.5z" />
    <glyph glyph-name="ccaron" unicode="&#x10d;" horiz-adv-x="1214" 
d="M784 1146h-370l-286 410h348l124 -218l122 218h348zM68 516q0 248 149.5 398t396.5 150q226 0 371.5 -125t160.5 -347h-394q-3 146 -138 146q-72 0 -112 -58t-40 -164q0 -108 40 -167t112 -59q64 0 99.5 29t38.5 99h394q-21 -217 -164 -335.5t-368 -118.5
q-246 0 -396 151.5t-150 400.5z" />
    <glyph glyph-name="Dcaron" unicode="&#x10e;" horiz-adv-x="1390" 
d="M812 1434h-370l-286 410h348l124 -218l122 218h348zM690 1332q282 0 455 -190t173 -500q0 -289 -161 -465.5t-425 -176.5h-640v1332h598zM482 988v-644h228q102 0 158 78.5t56 219.5q0 165 -67 255.5t-187 90.5h-188z" />
    <glyph glyph-name="dcaron" unicode="&#x10f;" horiz-adv-x="1352" 
d="M1324 1604h332l-88 -580h-322zM1158 1434v-1434h-390v142q-108 -178 -296 -178q-182 0 -293 151.5t-111 400.5q0 247 111 397.5t293 150.5q189 0 296 -176v546h390zM462 516q0 -107 40.5 -166.5t111.5 -59.5q72 0 113 59.5t41 166.5q0 105 -41 163.5t-113 58.5
q-71 0 -111.5 -58.5t-40.5 -163.5z" />
    <glyph glyph-name="Dcroat" unicode="&#x110;" horiz-adv-x="1524" 
d="M62 828h166v504h598q282 0 455 -190t173 -500q0 -289 -162 -465.5t-426 -176.5h-638v504h-166v324zM616 988v-160h248v-324h-248v-160h230q102 0 157 78t55 220q0 165 -67 255.5t-187 90.5h-188z" />
    <glyph glyph-name="dcroat" unicode="&#x111;" horiz-adv-x="1330" 
d="M512 1332h256v102h390v-102h156v-238h-156v-1094h-390v136q-106 -172 -296 -172q-182 0 -293 146t-111 386q0 238 111 383t293 145q189 0 296 -170v240h-256v238zM462 496q0 -97 40.5 -151.5t111.5 -54.5q72 0 113 54.5t41 151.5q0 94 -41 147t-113 53q-71 0 -111.5 -53
t-40.5 -147z" />
    <glyph glyph-name="Emacron" unicode="&#x112;" horiz-adv-x="1146" 
d="M228 1734h738v-280h-738v280zM1076 1332v-366h-594v-112h536v-364h-536v-126h594v-364h-984v1332h984z" />
    <glyph glyph-name="emacron" unicode="&#x113;" horiz-adv-x="1226" 
d="M228 1446h738v-280h-738v280zM68 516q0 244 142.5 386t385.5 142q246 0 405 -155.5t159 -398.5v-68h-690q27 -146 142 -146q105 0 120 82h414q-52 -374 -538 -374q-249 0 -394.5 143t-145.5 389zM600 778q-93 0 -124 -114h266q-6 53 -44 83.5t-98 30.5z" />
    <glyph glyph-name="Ebreve" unicode="&#x114;" horiz-adv-x="1146" 
d="M1058 1808q-24 -175 -149 -281.5t-307 -106.5q-184 0 -311 106.5t-149 281.5h324q9 -58 45 -90t91 -32q54 0 88.5 32t43.5 90h324zM1076 1332v-366h-594v-112h536v-364h-536v-126h594v-364h-984v1332h984z" />
    <glyph glyph-name="ebreve" unicode="&#x115;" horiz-adv-x="1226" 
d="M1058 1520q-24 -175 -149 -281.5t-307 -106.5q-184 0 -311 106.5t-149 281.5h324q9 -58 45 -90t91 -32q54 0 88.5 32t43.5 90h324zM68 516q0 244 142.5 386t385.5 142q246 0 405 -155.5t159 -398.5v-68h-690q27 -146 142 -146q105 0 120 82h414q-52 -374 -538 -374
q-249 0 -394.5 143t-145.5 389zM600 778q-93 0 -124 -114h266q-6 53 -44 83.5t-98 30.5z" />
    <glyph glyph-name="Edotaccent" unicode="&#x116;" horiz-adv-x="1146" 
d="M394 1838h418v-404h-418v404zM1076 1332v-366h-594v-112h536v-364h-536v-126h594v-364h-984v1332h984z" />
    <glyph glyph-name="edotaccent" unicode="&#x117;" horiz-adv-x="1226" 
d="M394 1550h418v-404h-418v404zM68 516q0 244 142.5 386t385.5 142q246 0 405 -155.5t159 -398.5v-68h-690q27 -146 142 -146q105 0 120 82h414q-52 -374 -538 -374q-249 0 -394.5 143t-145.5 389zM600 778q-93 0 -124 -114h266q-6 53 -44 83.5t-98 30.5z" />
    <glyph glyph-name="Eogonek" unicode="&#x118;" horiz-adv-x="1146" 
d="M1048 0q-99 -52 -132.5 -89.5t-33.5 -88.5q0 -80 106 -80h146v-286h-162q-165 0 -263.5 71t-98.5 191q0 177 198 282h-716v1332h984v-366h-594v-112h536v-364h-536v-126h594v-364h-28z" />
    <glyph glyph-name="eogonek" unicode="&#x119;" horiz-adv-x="1226" 
d="M68 516q0 244 142.5 386t385.5 142q246 0 405 -155.5t159 -398.5v-68h-690q27 -146 142 -146q105 0 120 82h414q-32 -239 -250 -326q-48 -43 -48 -104q0 -80 106 -80h146v-286h-162q-165 0 -263.5 71t-98.5 191q0 90 50 160h-18q-249 0 -394.5 143t-145.5 389zM600 778
q-93 0 -124 -114h266q-6 53 -44 83.5t-98 30.5z" />
    <glyph glyph-name="Ecaron" unicode="&#x11a;" horiz-adv-x="1146" 
d="M784 1434h-370l-286 410h348l124 -218l122 218h348zM1076 1332v-366h-594v-112h536v-364h-536v-126h594v-364h-984v1332h984z" />
    <glyph glyph-name="ecaron" unicode="&#x11b;" horiz-adv-x="1226" 
d="M784 1146h-370l-286 410h348l124 -218l122 218h348zM68 516q0 244 142.5 386t385.5 142q246 0 405 -155.5t159 -398.5v-68h-690q27 -146 142 -146q105 0 120 82h414q-52 -374 -538 -374q-249 0 -394.5 143t-145.5 389zM600 778q-93 0 -124 -114h266q-6 53 -44 83.5
t-98 30.5z" />
    <glyph glyph-name="Gcircumflex" unicode="&#x11c;" horiz-adv-x="1406" 
d="M482 1844h370l286 -410h-348l-122 218l-124 -218h-348zM72 670q0 308 172.5 495t455.5 187q261 0 428.5 -131t185.5 -363h-394q-14 70 -66 109t-140 39q-117 0 -182.5 -88.5t-65.5 -247.5q0 -162 61.5 -250t172.5 -88q90 0 146.5 38t67.5 104h-258v308h658v-782h-290
l-12 138q-138 -154 -356 -154q-263 0 -423.5 188.5t-160.5 497.5z" />
    <glyph glyph-name="gcircumflex" unicode="&#x11d;" horiz-adv-x="1244" 
d="M414 1556h370l286 -410h-348l-122 218l-124 -218h-348zM1158 1024v-1046q0 -177 -143.5 -285.5t-378.5 -108.5t-388 104.5t-180 279.5h394q5 -45 46 -71.5t108 -26.5q72 0 112 31t40 87v216q-51 -82 -129 -126t-175 -44q-178 0 -287 141.5t-109 374.5q0 230 109 370
t287 140q96 0 174 -44t130 -124v132h390zM462 550q0 -89 41.5 -138.5t114.5 -49.5q71 0 110.5 50t39.5 138t-39.5 138t-110.5 50q-73 0 -114.5 -49.5t-41.5 -138.5z" />
    <glyph glyph-name="Gbreve" unicode="&#x11e;" horiz-adv-x="1406" 
d="M1126 1808q-24 -175 -149 -281.5t-307 -106.5q-184 0 -311 106.5t-149 281.5h324q9 -58 45 -90t91 -32q54 0 88.5 32t43.5 90h324zM72 670q0 308 172.5 495t455.5 187q261 0 428.5 -131t185.5 -363h-394q-14 70 -66 109t-140 39q-117 0 -182.5 -88.5t-65.5 -247.5
q0 -162 61.5 -250t172.5 -88q90 0 146.5 38t67.5 104h-258v308h658v-782h-290l-12 138q-138 -154 -356 -154q-263 0 -423.5 188.5t-160.5 497.5z" />
    <glyph glyph-name="gbreve" unicode="&#x11f;" horiz-adv-x="1244" 
d="M1058 1520q-24 -175 -149 -281.5t-307 -106.5q-184 0 -311 106.5t-149 281.5h324q9 -58 45 -90t91 -32q54 0 88.5 32t43.5 90h324zM1158 1024v-1046q0 -177 -143.5 -285.5t-378.5 -108.5t-388 104.5t-180 279.5h394q5 -45 46 -71.5t108 -26.5q72 0 112 31t40 87v216
q-51 -82 -129 -126t-175 -44q-178 0 -287 141.5t-109 374.5q0 230 109 370t287 140q96 0 174 -44t130 -124v132h390zM462 550q0 -89 41.5 -138.5t114.5 -49.5q71 0 110.5 50t39.5 138t-39.5 138t-110.5 50q-73 0 -114.5 -49.5t-41.5 -138.5z" />
    <glyph glyph-name="Gdotaccent" unicode="&#x120;" horiz-adv-x="1406" 
d="M462 1838h418v-404h-418v404zM72 670q0 308 172.5 495t455.5 187q261 0 428.5 -131t185.5 -363h-394q-14 70 -66 109t-140 39q-117 0 -182.5 -88.5t-65.5 -247.5q0 -162 61.5 -250t172.5 -88q90 0 146.5 38t67.5 104h-258v308h658v-782h-290l-12 138q-138 -154 -356 -154
q-263 0 -423.5 188.5t-160.5 497.5z" />
    <glyph glyph-name="gdotaccent" unicode="&#x121;" horiz-adv-x="1244" 
d="M394 1550h418v-404h-418v404zM1158 1024v-1046q0 -177 -143.5 -285.5t-378.5 -108.5t-388 104.5t-180 279.5h394q5 -45 46 -71.5t108 -26.5q72 0 112 31t40 87v216q-51 -82 -129 -126t-175 -44q-178 0 -287 141.5t-109 374.5q0 230 109 370t287 140q96 0 174 -44
t130 -124v132h390zM462 550q0 -89 41.5 -138.5t114.5 -49.5q71 0 110.5 50t39.5 138t-39.5 138t-110.5 50q-73 0 -114.5 -49.5t-41.5 -138.5z" />
    <glyph glyph-name="uni0122" unicode="&#x122;" horiz-adv-x="1406" 
d="M72 670q0 308 172.5 495t455.5 187q261 0 428.5 -131t185.5 -363h-394q-14 70 -66 109t-140 39q-117 0 -182.5 -88.5t-65.5 -247.5q0 -162 61.5 -250t172.5 -88q90 0 146.5 38t67.5 104h-258v308h658v-782h-290l-12 138q-138 -154 -356 -154q-263 0 -423.5 188.5
t-160.5 497.5zM512 -58h418v-468q0 -124 -80 -193t-224 -69h-108v180h44q95 0 139.5 22.5t44.5 71.5v54h-234v402z" />
    <glyph glyph-name="uni0123" unicode="&#x123;" horiz-adv-x="1244" 
d="M808 1146h-418v468q0 124 81 194t225 70h106v-182h-44q-95 0 -139.5 -22.5t-44.5 -71.5v-52h234v-404zM1158 1024v-1046q0 -177 -143.5 -285.5t-378.5 -108.5t-388 104.5t-180 279.5h394q5 -45 46 -71.5t108 -26.5q72 0 112 31t40 87v216q-51 -82 -129 -126t-175 -44
q-178 0 -287 141.5t-109 374.5q0 230 109 370t287 140q96 0 174 -44t130 -124v132h390zM462 550q0 -89 41.5 -138.5t114.5 -49.5q71 0 110.5 50t39.5 138t-39.5 138t-110.5 50q-73 0 -114.5 -49.5t-41.5 -138.5z" />
    <glyph glyph-name="Hcircumflex" unicode="&#x124;" horiz-adv-x="1350" 
d="M482 1844h370l286 -410h-348l-122 218l-124 -218h-348zM92 1332h390v-462h388v462h390v-1332h-390v506h-388v-506h-390v1332z" />
    <glyph glyph-name="hcircumflex" unicode="&#x125;" horiz-adv-x="1240" 
d="M90 1950h370l286 -410h-348l-122 218l-124 -218h-348zM764 552q0 83 -39 123.5t-109 40.5q-60 0 -99 -42t-39 -108v-566h-390v1434h390v-558q56 90 137 139t167 49q166 0 269 -114t103 -316v-634h-390v552z" />
    <glyph glyph-name="Hbar" unicode="&#x126;" horiz-adv-x="1392" 
d="M20 1208h92v124h390v-124h388v124h390v-124h92v-242h-92v-966h-390v506h-388v-506h-390v966h-92v242zM502 830h388v136h-388v-136z" />
    <glyph glyph-name="hbar" unicode="&#x127;" horiz-adv-x="1322" 
d="M846 532q0 73 -39 108.5t-109 35.5q-60 0 -99 -37.5t-39 -94.5v-544h-390v1094h-150v238h150v102h390v-102h264v-238h-264v-250q56 86 137.5 133t166.5 47q166 0 268 -108t102 -302v-614h-388v532z" />
    <glyph glyph-name="Itilde" unicode="&#x128;" 
d="M60 1824q20 0 40 -2t35 -4.5t33 -8t28 -9t27.5 -12t23.5 -11.5t24.5 -13t22.5 -12q63 -33 95 -38q12 -2 25 -2q56 0 87 26t31 72h210q0 -184 -78 -284t-222 -100q-42 0 -81 10.5t-60 20.5t-53 29q-4 3 -15.5 9.5t-16 9.5t-14.5 8.5t-16 7.5t-15 6t-16.5 5.5t-16.5 2.5
t-18 1q-45 0 -71.5 -27.5t-26.5 -74.5h-216q0 192 64.5 291t189.5 99zM88 1332h390v-1332h-390v1332z" />
    <glyph glyph-name="itilde" unicode="&#x129;" 
d="M62 1536q20 0 40 -2t35 -4.5t33 -8t28 -9t27.5 -12t23.5 -11.5t24.5 -13t22.5 -12q63 -33 95 -38q12 -2 25 -2q56 0 87 26t31 72h210q0 -184 -78 -284t-222 -100q-42 0 -81 10.5t-60 20.5t-53 29q-4 3 -15.5 9.5t-16 9.5t-14.5 8.5t-16 7.5t-15 6t-16.5 5.5t-16.5 2.5
t-18 1q-45 0 -71.5 -27.5t-26.5 -74.5h-216q0 192 64.5 291t189.5 99zM88 1024h390v-1024h-390v1024z" />
    <glyph glyph-name="Imacron" unicode="&#x12a;" 
d="M-92 1734h738v-280h-738v280zM88 1332h390v-1332h-390v1332z" />
    <glyph glyph-name="imacron" unicode="&#x12b;" 
d="M-90 1446h738v-280h-738v280zM88 1024h390v-1024h-390v1024z" />
    <glyph glyph-name="Ibreve" unicode="&#x12c;" 
d="M738 1808q-24 -175 -149 -281.5t-307 -106.5q-184 0 -311 106.5t-149 281.5h324q9 -58 45 -90t91 -32q54 0 88.5 32t43.5 90h324zM88 1332h390v-1332h-390v1332z" />
    <glyph glyph-name="ibreve" unicode="&#x12d;" 
d="M740 1520q-24 -175 -149 -281.5t-307 -106.5q-184 0 -311 106.5t-149 281.5h324q9 -58 45 -90t91 -32q54 0 88.5 32t43.5 90h324zM88 1024h390v-1024h-390v1024z" />
    <glyph glyph-name="Iogonek" unicode="&#x12e;" 
d="M478 0q-99 -52 -132.5 -89.5t-33.5 -88.5q0 -80 106 -80h146v-286h-162q-165 0 -263.5 71t-98.5 191q0 177 198 282h-150v1332h390v-1332z" />
    <glyph glyph-name="iogonek" unicode="&#x12f;" 
d="M74 1434h418v-302h-418v302zM478 0q-99 -52 -132.5 -89.5t-33.5 -88.5q0 -80 106 -80h146v-286h-162q-165 0 -263.5 71t-98.5 191q0 177 198 282h-150v1024h390v-1024z" />
    <glyph glyph-name="Idotaccent" unicode="&#x130;" 
d="M74 1838h418v-404h-418v404zM88 1332h390v-1332h-390v1332z" />
    <glyph glyph-name="dotlessi" unicode="&#x131;" 
d="M88 1024h390v-1024h-390v1024z" />
    <glyph glyph-name="IJ" unicode="&#x132;" horiz-adv-x="1368" 
d="M598 344h166q63 0 93.5 37.5t30.5 118.5v832h388v-886q0 -210 -107 -328t-299 -118h-272v344zM88 1332h390v-1332h-390v1332z" />
    <glyph glyph-name="ij" unicode="&#x133;" horiz-adv-x="1130" 
d="M640 1434h418v-302h-418v302zM74 1434h418v-302h-418v302zM508 -66h64q43 0 62.5 17.5t19.5 56.5v1016h390v-1028q0 -191 -108 -298.5t-300 -107.5h-128v344zM88 1024h390v-1024h-390v1024z" />
    <glyph glyph-name="Jcircumflex" unicode="&#x134;" horiz-adv-x="802" 
d="M322 1844h370l286 -410h-348l-122 218l-124 -218h-348zM32 344h166q63 0 93.5 37.5t30.5 118.5v832h388v-886q0 -210 -107 -328t-299 -118h-272v344z" />
    <glyph glyph-name="jcircumflex" unicode="&#x135;" 
d="M96 1556h370l286 -410h-348l-122 218l-124 -218h-348zM-58 -66h64q43 0 62.5 17.5t19.5 56.5v1016h390v-1028q0 -191 -108 -298.5t-300 -107.5h-128v344z" />
    <glyph glyph-name="uni0136" unicode="&#x136;" horiz-adv-x="1390" 
d="M92 1332h390v-542l392 542h482l-488 -648l512 -684h-450l-332 478l-116 -168v-310h-390v1332zM480 -58h418v-468q0 -124 -80 -193t-224 -69h-108v180h44q95 0 139.5 22.5t44.5 71.5v54h-234v402z" />
    <glyph glyph-name="uni0137" unicode="&#x137;" horiz-adv-x="1262" 
d="M736 1024h480l-348 -462l386 -562h-452l-224 354l-96 -122v-232h-390v1434h390v-790zM430 -58h418v-468q0 -124 -80 -193t-224 -69h-108v180h44q95 0 139.5 22.5t44.5 71.5v54h-234v402z" />
    <glyph glyph-name="kgreenlandic" unicode="&#x138;" horiz-adv-x="1262" 
d="M92 1024h390v-380l254 380h480l-348 -462l386 -562h-452l-224 354l-96 -122v-232h-390v1024z" />
    <glyph glyph-name="Lacute" unicode="&#x139;" horiz-adv-x="1024" 
d="M730 1844l-328 -410h-308l206 410h430zM972 0h-880v1332h390v-968h490v-364z" />
    <glyph glyph-name="lacute" unicode="&#x13a;" 
d="M722 1950l-328 -410h-308l206 410h430zM88 1434h390v-1434h-390v1434z" />
    <glyph glyph-name="uni013B" unicode="&#x13b;" horiz-adv-x="1024" 
d="M972 0h-880v1332h390v-968h490v-364zM348 -58h418v-468q0 -124 -80 -193t-224 -69h-108v180h44q95 0 139.5 22.5t44.5 71.5v54h-234v402z" />
    <glyph glyph-name="uni013C" unicode="&#x13c;" 
d="M88 1434h390v-1434h-390v1434zM78 -58h418v-468q0 -124 -80 -193t-224 -69h-108v180h44q95 0 139.5 22.5t44.5 71.5v54h-234v402z" />
    <glyph glyph-name="Lcaron" unicode="&#x13d;" horiz-adv-x="1024" 
d="M656 1502h332l-88 -580h-322zM972 0h-880v1332h390v-968h490v-364z" />
    <glyph glyph-name="lcaron" unicode="&#x13e;" horiz-adv-x="672" 
d="M644 1604h332l-88 -580h-322zM88 1434h390v-1434h-390v1434z" />
    <glyph glyph-name="Ldot" unicode="&#x13f;" horiz-adv-x="1024" 
d="M972 0h-880v1332h390v-968h490v-364zM610 958h418v-402h-418v402z" />
    <glyph glyph-name="ldot" unicode="&#x140;" horiz-adv-x="1130" 
d="M88 1434h390v-1434h-390v1434zM640 894h418v-402h-418v402z" />
    <glyph glyph-name="Lslash" unicode="&#x141;" horiz-adv-x="1084" 
d="M0 822l154 30v480h388v-404l232 44v-302l-232 -46v-260h492v-364h-880v548l-154 -30v304z" />
    <glyph glyph-name="lslash" unicode="&#x142;" horiz-adv-x="712" 
d="M0 840l160 24v570h388v-510l164 26v-302l-164 -26v-622h-388v562l-160 -26v304z" />
    <glyph glyph-name="Nacute" unicode="&#x143;" horiz-adv-x="1392" 
d="M1134 1844l-328 -410h-308l206 410h430zM912 1332h388v-1332h-402l-416 740v-740h-390v1332h472l348 -680v680z" />
    <glyph glyph-name="nacute" unicode="&#x144;" horiz-adv-x="1240" 
d="M1076 1556l-328 -410h-308l206 410h430zM768 552q0 83 -39 123.5t-109 40.5q-60 0 -99 -42t-39 -108v-566h-390v1024h390v-148q56 90 137 139t167 49q166 0 269 -114t103 -316v-634h-390v552z" />
    <glyph glyph-name="uni0145" unicode="&#x145;" horiz-adv-x="1392" 
d="M912 1332h388v-1332h-402l-416 740v-740h-390v1332h472l348 -680v680zM488 -58h418v-468q0 -124 -80 -193t-224 -69h-108v180h44q95 0 139.5 22.5t44.5 71.5v54h-234v402z" />
    <glyph glyph-name="uni0146" unicode="&#x146;" horiz-adv-x="1240" 
d="M768 552q0 83 -39 123.5t-109 40.5q-60 0 -99 -42t-39 -108v-566h-390v1024h390v-148q56 90 137 139t167 49q166 0 269 -114t103 -316v-634h-390v552zM412 -58h418v-468q0 -124 -80 -193t-224 -69h-108v180h44q95 0 139.5 22.5t44.5 71.5v54h-234v402z" />
    <glyph glyph-name="Ncaron" unicode="&#x147;" horiz-adv-x="1392" 
d="M872 1434h-370l-286 410h348l124 -218l122 218h348zM912 1332h388v-1332h-402l-416 740v-740h-390v1332h472l348 -680v680z" />
    <glyph glyph-name="ncaron" unicode="&#x148;" horiz-adv-x="1240" 
d="M814 1146h-370l-286 410h348l124 -218l122 218h348zM768 552q0 83 -39 123.5t-109 40.5q-60 0 -99 -42t-39 -108v-566h-390v1024h390v-148q56 90 137 139t167 49q166 0 269 -114t103 -316v-634h-390v552z" />
    <glyph glyph-name="napostrophe" unicode="&#x149;" horiz-adv-x="1718" 
d="M60 1434h418v-470q0 -124 -81 -193t-225 -69h-106v180h42q95 0 139.5 22.5t44.5 71.5v54h-232v404zM570 1024h390v-148q56 90 137 139t167 49q166 0 269 -114t103 -316v-634h-390v552q0 83 -39 123.5t-109 40.5q-60 0 -99 -42t-39 -108v-566h-390v1024z" />
    <glyph glyph-name="Eng" unicode="&#x14a;" horiz-adv-x="1392" 
d="M912 1332h388v-1316q0 -201 -118.5 -313.5t-329.5 -112.5h-128v344h64q65 0 94.5 22.5t29.5 71.5v34l-430 678v-740h-390v1332h472l348 -660v660z" />
    <glyph glyph-name="eng" unicode="&#x14b;" horiz-adv-x="1240" 
d="M768 550q0 81 -38 122.5t-110 41.5q-60 0 -99 -42t-39 -108v-566h-390v1024h390v-150q53 89 133 139.5t171 50.5q170 0 271 -117t101 -313v-616q0 -200 -113.5 -313t-314.5 -113h-148v344h84q54 0 78 22t24 72v522z" />
    <glyph glyph-name="Omacron" unicode="&#x14c;" horiz-adv-x="1442" 
d="M320 1734h738v-280h-738v280zM72 650q0 317 178 509.5t472 192.5q293 0 471.5 -193t178.5 -509q0 -300 -178.5 -483t-471.5 -183q-294 0 -472 183t-178 483zM976 650q0 168 -67 261t-187 93q-121 0 -188.5 -93t-67.5 -261q0 -150 67.5 -234t188.5 -84q120 0 187 84
t67 234z" />
    <glyph glyph-name="omacron" unicode="&#x14d;" horiz-adv-x="1230" 
d="M234 1446h738v-280h-738v280zM68 516q0 248 150 398t398 150q246 0 397 -150.5t151 -397.5q0 -249 -151 -400.5t-397 -151.5q-247 0 -397.5 151.5t-150.5 400.5zM768 516q0 105 -40.5 163.5t-111.5 58.5q-72 0 -113 -58.5t-41 -163.5q0 -107 41 -166.5t113 -59.5
q71 0 111.5 59.5t40.5 166.5z" />
    <glyph glyph-name="Obreve" unicode="&#x14e;" horiz-adv-x="1442" 
d="M1150 1808q-24 -175 -149 -281.5t-307 -106.5q-184 0 -311 106.5t-149 281.5h324q9 -58 45 -90t91 -32q54 0 88.5 32t43.5 90h324zM72 650q0 317 178 509.5t472 192.5q293 0 471.5 -193t178.5 -509q0 -300 -178.5 -483t-471.5 -183q-294 0 -472 183t-178 483zM976 650
q0 168 -67 261t-187 93q-121 0 -188.5 -93t-67.5 -261q0 -150 67.5 -234t188.5 -84q120 0 187 84t67 234z" />
    <glyph glyph-name="obreve" unicode="&#x14f;" horiz-adv-x="1230" 
d="M1064 1520q-24 -175 -149 -281.5t-307 -106.5q-184 0 -311 106.5t-149 281.5h324q9 -58 45 -90t91 -32q54 0 88.5 32t43.5 90h324zM68 516q0 248 150 398t398 150q246 0 397 -150.5t151 -397.5q0 -249 -151 -400.5t-397 -151.5q-247 0 -397.5 151.5t-150.5 400.5z
M768 516q0 105 -40.5 163.5t-111.5 58.5q-72 0 -113 -58.5t-41 -163.5q0 -107 41 -166.5t113 -59.5q71 0 111.5 59.5t40.5 166.5z" />
    <glyph glyph-name="Ohungarumlaut" unicode="&#x150;" horiz-adv-x="1442" 
d="M1408 1844l-328 -410h-306l204 410h430zM896 1844l-328 -410h-306l204 410h430zM72 650q0 317 178 509.5t472 192.5q293 0 471.5 -193t178.5 -509q0 -300 -178.5 -483t-471.5 -183q-294 0 -472 183t-178 483zM976 650q0 168 -67 261t-187 93q-121 0 -188.5 -93
t-67.5 -261q0 -150 67.5 -234t188.5 -84q120 0 187 84t67 234z" />
    <glyph glyph-name="ohungarumlaut" unicode="&#x151;" horiz-adv-x="1230" 
d="M1322 1556l-328 -410h-306l204 410h430zM810 1556l-328 -410h-306l204 410h430zM68 516q0 248 150 398t398 150q246 0 397 -150.5t151 -397.5q0 -249 -151 -400.5t-397 -151.5q-247 0 -397.5 151.5t-150.5 400.5zM768 516q0 105 -40.5 163.5t-111.5 58.5
q-72 0 -113 -58.5t-41 -163.5q0 -107 41 -166.5t113 -59.5q71 0 111.5 59.5t40.5 166.5z" />
    <glyph glyph-name="OE" unicode="&#x152;" horiz-adv-x="2030" 
d="M72 660q0 308 154.5 500t401.5 192q214 0 348 -172v152h984v-366h-594v-112h536v-364h-536v-126h594v-364h-984v148q-133 -164 -348 -164q-249 0 -402.5 186t-153.5 490zM976 660q0 161 -67 252.5t-187 91.5t-188 -91.5t-68 -252.5q0 -157 67 -242.5t189 -85.5t188 85.5
t66 242.5z" />
    <glyph glyph-name="oe" unicode="&#x153;" horiz-adv-x="1930" 
d="M68 516q0 247 134.5 397.5t353.5 150.5q131 0 234.5 -57.5t167.5 -162.5q62 97 162 148.5t230 51.5q224 0 368 -155.5t144 -398.5v-68h-688q24 -146 140 -146q105 0 120 82h416q-49 -374 -488 -374q-134 0 -237 52.5t-167 149.5q-62 -106 -166 -164t-236 -58
q-219 0 -353.5 151.5t-134.5 400.5zM1302 778q-94 0 -122 -114h264q-6 53 -44 83.5t-98 30.5zM768 516q0 105 -40.5 163.5t-111.5 58.5q-72 0 -113 -58.5t-41 -163.5q0 -107 41 -166.5t113 -59.5q71 0 111.5 59.5t40.5 166.5z" />
    <glyph glyph-name="Racute" unicode="&#x154;" horiz-adv-x="1282" 
d="M1074 1844l-328 -410h-308l206 410h430zM662 428h-180v-428h-390v1332h654q209 0 336.5 -106.5t127.5 -281.5q0 -116 -60 -203t-166 -131q94 -27 141.5 -96t62.5 -200l36 -314h-382l-36 278q-9 77 -42 113.5t-102 36.5zM684 1008h-202v-256h202q68 0 105 33.5t37 96.5
q0 60 -37 93t-105 33z" />
    <glyph glyph-name="racute" unicode="&#x155;" horiz-adv-x="880" 
d="M952 1556l-328 -410h-308l206 410h430zM88 1024h390v-172q49 92 116.5 142t137.5 50h82v-396h-80q-109 0 -182.5 -46.5t-73.5 -117.5v-484h-390v1024z" />
    <glyph glyph-name="uni0156" unicode="&#x156;" horiz-adv-x="1282" 
d="M662 428h-180v-428h-390v1332h654q209 0 336.5 -106.5t127.5 -281.5q0 -116 -60 -203t-166 -131q94 -27 141.5 -96t62.5 -200l36 -314h-382l-36 278q-9 77 -42 113.5t-102 36.5zM684 1008h-202v-256h202q68 0 105 33.5t37 96.5q0 60 -37 93t-105 33zM444 -58h418v-468
q0 -124 -80 -193t-224 -69h-108v180h44q95 0 139.5 22.5t44.5 71.5v54h-234v402z" />
    <glyph glyph-name="uni0157" unicode="&#x157;" horiz-adv-x="880" 
d="M88 1024h390v-172q49 92 116.5 142t137.5 50h82v-396h-80q-109 0 -182.5 -46.5t-73.5 -117.5v-484h-390v1024zM74 -58h418v-468q0 -124 -80 -193t-224 -69h-108v180h44q95 0 139.5 22.5t44.5 71.5v54h-234v402z" />
    <glyph glyph-name="Rcaron" unicode="&#x158;" horiz-adv-x="1282" 
d="M812 1434h-370l-286 410h348l124 -218l122 218h348zM662 428h-180v-428h-390v1332h654q209 0 336.5 -106.5t127.5 -281.5q0 -116 -60 -203t-166 -131q94 -27 141.5 -96t62.5 -200l36 -314h-382l-36 278q-9 77 -42 113.5t-102 36.5zM684 1008h-202v-256h202q68 0 105 33.5
t37 96.5q0 60 -37 93t-105 33z" />
    <glyph glyph-name="rcaron" unicode="&#x159;" horiz-adv-x="880" 
d="M690 1146h-370l-286 410h348l124 -218l122 218h348zM88 1024h390v-172q49 92 116.5 142t137.5 50h82v-396h-80q-109 0 -182.5 -46.5t-73.5 -117.5v-484h-390v1024z" />
    <glyph glyph-name="Sacute" unicode="&#x15a;" horiz-adv-x="1290" 
d="M1064 1844l-328 -410h-308l206 410h430zM716 468l-234 22q-193 18 -296.5 131t-103.5 307q0 195 147 308.5t399 113.5q243 0 394 -114t172 -312h-394q-23 128 -176 128q-67 0 -107.5 -27.5t-40.5 -74.5q0 -67 82 -76l208 -20q229 -22 340.5 -132.5t111.5 -313.5
q0 -192 -148 -308t-394 -116q-258 0 -419 117t-185 321h396q24 -136 210 -136q67 0 107.5 30t40.5 80q0 63 -110 72z" />
    <glyph glyph-name="sacute" unicode="&#x15b;" horiz-adv-x="1158" 
d="M1002 1556l-328 -410h-308l206 410h430zM652 356l-216 20q-358 32 -358 330q0 163 130.5 257.5t355.5 94.5q216 0 350 -91.5t154 -250.5h-376q-15 76 -124 76q-45 0 -70.5 -16.5t-25.5 -45.5q0 -49 54 -58l236 -20q174 -15 252 -96.5t78 -243.5q0 -153 -132.5 -247.5
t-349.5 -94.5q-232 0 -375.5 90t-166.5 248h396q17 -78 140 -78q51 0 81.5 17t30.5 47q0 54 -64 62z" />
    <glyph glyph-name="Scircumflex" unicode="&#x15c;" horiz-adv-x="1290" 
d="M432 1844h370l286 -410h-348l-122 218l-124 -218h-348zM716 468l-234 22q-193 18 -296.5 131t-103.5 307q0 195 147 308.5t399 113.5q243 0 394 -114t172 -312h-394q-23 128 -176 128q-67 0 -107.5 -27.5t-40.5 -74.5q0 -67 82 -76l208 -20q229 -22 340.5 -132.5
t111.5 -313.5q0 -192 -148 -308t-394 -116q-258 0 -419 117t-185 321h396q24 -136 210 -136q67 0 107.5 30t40.5 80q0 63 -110 72z" />
    <glyph glyph-name="scircumflex" unicode="&#x15d;" horiz-adv-x="1158" 
d="M370 1556h370l286 -410h-348l-122 218l-124 -218h-348zM652 356l-216 20q-358 32 -358 330q0 163 130.5 257.5t355.5 94.5q216 0 350 -91.5t154 -250.5h-376q-15 76 -124 76q-45 0 -70.5 -16.5t-25.5 -45.5q0 -49 54 -58l236 -20q174 -15 252 -96.5t78 -243.5
q0 -153 -132.5 -247.5t-349.5 -94.5q-232 0 -375.5 90t-166.5 248h396q17 -78 140 -78q51 0 81.5 17t30.5 47q0 54 -64 62z" />
    <glyph glyph-name="Scedilla" unicode="&#x15e;" horiz-adv-x="1290" 
d="M716 468l-234 22q-193 18 -296.5 131t-103.5 307q0 195 147 308.5t399 113.5q243 0 394 -114t172 -312h-394q-23 128 -176 128q-67 0 -107.5 -27.5t-40.5 -74.5q0 -67 82 -76l208 -20q229 -22 340.5 -132.5t111.5 -313.5q0 -174 -123 -286.5t-333 -133.5l-60 -100h30
q102 0 165 -68t63 -178q0 -105 -93 -167.5t-249 -62.5h-182v266h166q31 0 48.5 12.5t17.5 35.5q0 38 -54 38h-70l-50 82l74 144q-214 24 -344.5 137.5t-151.5 294.5h396q24 -136 210 -136q67 0 107.5 30t40.5 80q0 63 -110 72z" />
    <glyph glyph-name="scedilla" unicode="&#x15f;" horiz-adv-x="1158" 
d="M652 356l-216 20q-358 32 -358 330q0 163 130.5 257.5t355.5 94.5q216 0 350 -91.5t154 -250.5h-376q-15 76 -124 76q-45 0 -70.5 -16.5t-25.5 -45.5q0 -49 54 -58l236 -20q174 -15 252 -96.5t78 -243.5q0 -139 -109 -230t-293 -108l-52 -86h30q102 0 165 -68t63 -178
q0 -105 -93 -167.5t-249 -62.5h-182v266h166q31 0 48.5 12.5t17.5 35.5q0 38 -54 38h-70l-50 82l68 130q-185 21 -298 107.5t-132 224.5h396q17 -78 140 -78q51 0 81.5 17t30.5 47q0 54 -64 62z" />
    <glyph glyph-name="Scaron" unicode="&#x160;" horiz-adv-x="1290" 
d="M802 1434h-370l-286 410h348l124 -218l122 218h348zM716 468l-234 22q-193 18 -296.5 131t-103.5 307q0 195 147 308.5t399 113.5q243 0 394 -114t172 -312h-394q-23 128 -176 128q-67 0 -107.5 -27.5t-40.5 -74.5q0 -67 82 -76l208 -20q229 -22 340.5 -132.5
t111.5 -313.5q0 -192 -148 -308t-394 -116q-258 0 -419 117t-185 321h396q24 -136 210 -136q67 0 107.5 30t40.5 80q0 63 -110 72z" />
    <glyph glyph-name="scaron" unicode="&#x161;" horiz-adv-x="1158" 
d="M740 1146h-370l-286 410h348l124 -218l122 218h348zM652 356l-216 20q-358 32 -358 330q0 163 130.5 257.5t355.5 94.5q216 0 350 -91.5t154 -250.5h-376q-15 76 -124 76q-45 0 -70.5 -16.5t-25.5 -45.5q0 -49 54 -58l236 -20q174 -15 252 -96.5t78 -243.5
q0 -153 -132.5 -247.5t-349.5 -94.5q-232 0 -375.5 90t-166.5 248h396q17 -78 140 -78q51 0 81.5 17t30.5 47q0 54 -64 62z" />
    <glyph glyph-name="uni0162" unicode="&#x162;" horiz-adv-x="1186" 
d="M1136 1332v-366h-348v-966h-88l-68 -112h30q102 0 165 -68t63 -178q0 -105 -93 -167.5t-249 -62.5h-182v266h166q31 0 48.5 12.5t17.5 35.5q0 38 -54 38h-70l-50 82l80 154h-104v966h-348v366h1084z" />
    <glyph glyph-name="uni0163" unicode="&#x163;" horiz-adv-x="774" 
d="M728 324v-324h-22l-68 -112h30q102 0 165 -68t63 -178q0 -105 -93 -167.5t-249 -62.5h-182v266h166q31 0 48.5 12.5t17.5 35.5q0 38 -54 38h-70l-50 82l82 160q-152 21 -236 114t-84 244v356h-144v304h144v266h390v-266h146v-304h-146v-302q0 -50 19.5 -72t62.5 -22h64z
" />
    <glyph glyph-name="Tcaron" unicode="&#x164;" horiz-adv-x="1186" 
d="M762 1434h-370l-286 410h348l124 -218l122 218h348zM1136 1332v-366h-348v-966h-388v966h-348v366h1084z" />
    <glyph glyph-name="tcaron" unicode="&#x165;" horiz-adv-x="936" 
d="M730 1662h332l-88 -580h-322zM728 324v-324h-128q-192 0 -300 96t-108 268v356h-144v304h144v266h390v-266h146v-304h-146v-302q0 -50 19.5 -72t62.5 -22h64z" />
    <glyph glyph-name="Tbar" unicode="&#x166;" horiz-adv-x="1186" 
d="M174 738h226v228h-348v366h1084v-366h-348v-228h250v-344h-250v-394h-388v394h-226v344z" />
    <glyph glyph-name="tbar" unicode="&#x167;" horiz-adv-x="774" 
d="M48 642h144v100h-144v282h144v266h390v-266h146v-282h-146v-100h146v-202h-146v-42q0 -39 19.5 -56.5t62.5 -17.5h64v-324h-128q-192 0 -300 96t-108 268v76h-144v202z" />
    <glyph glyph-name="Utilde" unicode="&#x168;" horiz-adv-x="1308" 
d="M414 1824q20 0 40 -2t35 -4.5t33 -8t28 -9t27.5 -12t23.5 -11.5t24.5 -13t22.5 -12q63 -33 95 -38q12 -2 25 -2q56 0 87 26t31 72h210q0 -184 -78 -284t-222 -100q-42 0 -81 10.5t-60 20.5t-53 29q-4 3 -15.5 9.5t-16 9.5t-14.5 8.5t-16 7.5t-15 6t-16.5 5.5t-16.5 2.5
t-18 1q-45 0 -71.5 -27.5t-26.5 -74.5h-216q0 192 64.5 291t189.5 99zM82 1332h390v-806q0 -83 51.5 -128.5t144.5 -45.5q81 0 125.5 45.5t44.5 128.5v806h388v-806q0 -244 -153.5 -393t-404.5 -149q-264 0 -425 149t-161 393v806z" />
    <glyph glyph-name="utilde" unicode="&#x169;" horiz-adv-x="1220" 
d="M378 1536q20 0 40 -2t35 -4.5t33 -8t28 -9t27.5 -12t23.5 -11.5t24.5 -13t22.5 -12q63 -33 95 -38q12 -2 25 -2q56 0 87 26t31 72h210q0 -184 -78 -284t-222 -100q-42 0 -81 10.5t-60 20.5t-53 29q-4 3 -15.5 9.5t-16 9.5t-14.5 8.5t-16 7.5t-15 6t-16.5 5.5t-16.5 2.5
t-18 1q-45 0 -71.5 -27.5t-26.5 -74.5h-216q0 192 64.5 291t189.5 99zM478 450q0 -142 136 -142q56 0 93 36.5t37 93.5v586h388v-1024h-388v138q-55 -84 -134.5 -131t-161.5 -47q-161 0 -260.5 107.5t-99.5 300.5v656h390v-574z" />
    <glyph glyph-name="Umacron" unicode="&#x16a;" horiz-adv-x="1308" 
d="M262 1734h738v-280h-738v280zM82 1332h390v-806q0 -83 51.5 -128.5t144.5 -45.5q81 0 125.5 45.5t44.5 128.5v806h388v-806q0 -244 -153.5 -393t-404.5 -149q-264 0 -425 149t-161 393v806z" />
    <glyph glyph-name="umacron" unicode="&#x16b;" horiz-adv-x="1220" 
d="M226 1446h738v-280h-738v280zM478 450q0 -142 136 -142q56 0 93 36.5t37 93.5v586h388v-1024h-388v138q-55 -84 -134.5 -131t-161.5 -47q-161 0 -260.5 107.5t-99.5 300.5v656h390v-574z" />
    <glyph glyph-name="Ubreve" unicode="&#x16c;" horiz-adv-x="1308" 
d="M1092 1808q-24 -175 -149 -281.5t-307 -106.5q-184 0 -311 106.5t-149 281.5h324q9 -58 45 -90t91 -32q54 0 88.5 32t43.5 90h324zM82 1332h390v-806q0 -83 51.5 -128.5t144.5 -45.5q81 0 125.5 45.5t44.5 128.5v806h388v-806q0 -244 -153.5 -393t-404.5 -149
q-264 0 -425 149t-161 393v806z" />
    <glyph glyph-name="ubreve" unicode="&#x16d;" horiz-adv-x="1220" 
d="M1056 1520q-24 -175 -149 -281.5t-307 -106.5q-184 0 -311 106.5t-149 281.5h324q9 -58 45 -90t91 -32q54 0 88.5 32t43.5 90h324zM478 450q0 -142 136 -142q56 0 93 36.5t37 93.5v586h388v-1024h-388v138q-55 -84 -134.5 -131t-161.5 -47q-161 0 -260.5 107.5
t-99.5 300.5v656h390v-574z" />
    <glyph glyph-name="Uring" unicode="&#x16e;" horiz-adv-x="1308" 
d="M978 1748q0 -147 -94.5 -237.5t-247.5 -90.5q-154 0 -249 90.5t-95 237.5t94.5 237.5t247.5 90.5q154 0 249 -90.5t95 -237.5zM532 1748q0 -47 27.5 -72.5t76.5 -25.5q48 0 74 25.5t26 72.5t-26.5 72.5t-75.5 25.5q-48 0 -75 -26t-27 -72zM82 1332h390v-806
q0 -83 51.5 -128.5t144.5 -45.5q81 0 125.5 45.5t44.5 128.5v806h388v-806q0 -244 -153.5 -393t-404.5 -149q-264 0 -425 149t-161 393v806z" />
    <glyph glyph-name="uring" unicode="&#x16f;" horiz-adv-x="1220" 
d="M942 1460q0 -147 -94.5 -237.5t-247.5 -90.5q-154 0 -249 90.5t-95 237.5t94.5 237.5t247.5 90.5q154 0 249 -90.5t95 -237.5zM496 1460q0 -47 27.5 -72.5t76.5 -25.5q48 0 74 25.5t26 72.5t-26.5 72.5t-75.5 25.5q-48 0 -75 -26t-27 -72zM478 450q0 -142 136 -142
q56 0 93 36.5t37 93.5v586h388v-1024h-388v138q-55 -84 -134.5 -131t-161.5 -47q-161 0 -260.5 107.5t-99.5 300.5v656h390v-574z" />
    <glyph glyph-name="Uhungarumlaut" unicode="&#x170;" horiz-adv-x="1308" 
d="M1350 1844l-328 -410h-306l204 410h430zM838 1844l-328 -410h-306l204 410h430zM82 1332h390v-806q0 -83 51.5 -128.5t144.5 -45.5q81 0 125.5 45.5t44.5 128.5v806h388v-806q0 -244 -153.5 -393t-404.5 -149q-264 0 -425 149t-161 393v806z" />
    <glyph glyph-name="uhungarumlaut" unicode="&#x171;" horiz-adv-x="1220" 
d="M1314 1556l-328 -410h-306l204 410h430zM802 1556l-328 -410h-306l204 410h430zM478 450q0 -142 136 -142q56 0 93 36.5t37 93.5v586h388v-1024h-388v138q-55 -84 -134.5 -131t-161.5 -47q-161 0 -260.5 107.5t-99.5 300.5v656h390v-574z" />
    <glyph glyph-name="Uogonek" unicode="&#x172;" horiz-adv-x="1308" 
d="M82 1332h390v-806q0 -83 51.5 -128.5t144.5 -45.5q81 0 125.5 45.5t44.5 128.5v806h388v-806q0 -207 -113 -348t-305 -180q-97 -50 -129.5 -88t-32.5 -88q0 -80 106 -80h146v-286h-162q-165 0 -263.5 71t-98.5 191q0 172 182 274q-217 30 -345.5 173.5t-128.5 360.5v806z
" />
    <glyph glyph-name="uogonek" unicode="&#x173;" horiz-adv-x="1220" 
d="M478 450q0 -142 136 -142q56 0 93 36.5t37 93.5v586h388v-1024h2q-99 -52 -132.5 -89.5t-33.5 -88.5q0 -80 106 -80h146v-286h-162q-165 0 -263.5 71t-98.5 191q0 177 198 282h-150v138q-55 -84 -134.5 -131t-161.5 -47q-161 0 -260.5 107.5t-99.5 300.5v656h390v-574z
" />
    <glyph glyph-name="Wcircumflex" unicode="&#x174;" horiz-adv-x="2140" 
d="M860 1844h370l286 -410h-348l-122 218l-124 -218h-348zM30 1332h404l188 -920l204 920h484l212 -920l184 920h404l-358 -1332h-488l-206 908l-176 -908h-508z" />
    <glyph glyph-name="wcircumflex" unicode="&#x175;" horiz-adv-x="1860" 
d="M726 1556h370l286 -410h-348l-122 218l-124 -218h-348zM52 1024h402l116 -654l136 654h444l146 -654l110 654h404l-304 -1024h-448l-138 642l-112 -642h-466z" />
    <glyph glyph-name="Ycircumflex" unicode="&#x176;" horiz-adv-x="1344" 
d="M474 1844h370l286 -410h-348l-122 218l-124 -218h-348zM476 444l-446 888h424l222 -490l212 490h426l-450 -890v-442h-388v444z" />
    <glyph glyph-name="ycircumflex" unicode="&#x177;" horiz-adv-x="1250" 
d="M436 1556h370l286 -410h-348l-122 218l-124 -218h-348zM124 -46h122q104 0 136 66l16 42l-346 962h402l174 -622l166 622h406l-340 -1036q-66 -204 -184 -284t-356 -80h-196v330z" />
    <glyph glyph-name="Ydieresis" unicode="&#x178;" horiz-adv-x="1344" 
d="M744 1796h376v-362h-376v362zM214 1796h378v-362h-378v362zM476 444l-446 888h424l222 -490l212 490h426l-450 -890v-442h-388v444z" />
    <glyph glyph-name="Zacute" unicode="&#x179;" horiz-adv-x="1232" 
d="M1056 1844l-328 -410h-308l206 410h430zM92 1332h1048v-386l-624 -622h624v-324h-1048v386l622 622h-622v324z" />
    <glyph glyph-name="zacute" unicode="&#x17a;" horiz-adv-x="1068" 
d="M990 1556l-328 -410h-308l206 410h430zM88 1024h892v-344l-448 -398h448v-282h-892v344l446 398h-446v282z" />
    <glyph glyph-name="Zdotaccent" unicode="&#x17b;" horiz-adv-x="1232" 
d="M404 1838h418v-404h-418v404zM92 1332h1048v-386l-624 -622h624v-324h-1048v386l622 622h-622v324z" />
    <glyph glyph-name="zdotaccent" unicode="&#x17c;" horiz-adv-x="1068" 
d="M338 1550h418v-404h-418v404zM88 1024h892v-344l-448 -398h448v-282h-892v344l446 398h-446v282z" />
    <glyph glyph-name="Zcaron" unicode="&#x17d;" horiz-adv-x="1232" 
d="M794 1434h-370l-286 410h348l124 -218l122 218h348zM92 1332h1048v-386l-624 -622h624v-324h-1048v386l622 622h-622v324z" />
    <glyph glyph-name="zcaron" unicode="&#x17e;" horiz-adv-x="1068" 
d="M728 1146h-370l-286 410h348l124 -218l122 218h348zM88 1024h892v-344l-448 -398h448v-282h-892v344l446 398h-446v282z" />
    <glyph glyph-name="longs" unicode="&#x17f;" horiz-adv-x="672" 
d="M626 1130h-62q-43 0 -62.5 -17.5t-19.5 -56.5v-1056h-390v1070q0 172 108 268t300 96h126v-304z" />
    <glyph glyph-name="Ohorn" unicode="&#x1a0;" horiz-adv-x="1442" 
d="M72 650q0 317 178 509.5t472 192.5q92 0 180 -22v2h206q49 0 75.5 24.5t26.5 89.5v136h288v-148q0 -136 -80.5 -208.5t-203.5 -89.5q158 -193 158 -486q0 -300 -178.5 -483t-471.5 -183q-294 0 -472 183t-178 483zM976 650q0 168 -67 261t-187 93q-121 0 -188.5 -93
t-67.5 -261q0 -150 67.5 -234t188.5 -84q120 0 187 84t67 234z" />
    <glyph glyph-name="ohorn" unicode="&#x1a1;" horiz-adv-x="1296" 
d="M68 516q0 248 150 398t398 150q121 0 226 -40h102q49 0 75.5 24.5t26.5 89.5v136h288v-148q0 -128 -71.5 -199t-184.5 -93q86 -132 86 -318q0 -249 -151 -400.5t-397 -151.5q-247 0 -397.5 151.5t-150.5 400.5zM768 516q0 105 -40.5 163.5t-111.5 58.5q-72 0 -113 -58.5
t-41 -163.5q0 -107 41 -166.5t113 -59.5q71 0 111.5 59.5t40.5 166.5z" />
    <glyph glyph-name="Uhorn" unicode="&#x1af;" horiz-adv-x="1390" 
d="M82 1332h390v-806q0 -83 51.5 -128.5t144.5 -45.5q81 0 125.5 45.5t44.5 128.5v806h234q74 10 74 112v136h288v-148q0 -215 -208 -280v-626q0 -244 -153.5 -393t-404.5 -149q-264 0 -425 149t-161 393v806z" />
    <glyph glyph-name="uhorn" unicode="&#x1b0;" horiz-adv-x="1310" 
d="M478 450q0 -142 136 -142q56 0 93 36.5t37 93.5v586h206q49 0 75.5 24.5t26.5 89.5v136h288v-148q0 -215 -208 -280v-846h-388v138q-55 -84 -134.5 -131t-161.5 -47q-161 0 -260.5 107.5t-99.5 300.5v656h390v-574z" />
    <glyph glyph-name="uni01CD" unicode="&#x1cd;" horiz-adv-x="1386" 
d="M862 1434h-370l-286 410h348l124 -218l122 218h348zM1356 0h-404l-58 208h-402l-56 -208h-406l442 1332h444zM690 930l-114 -418h232z" />
    <glyph glyph-name="uni01CE" unicode="&#x1ce;" horiz-adv-x="1182" 
d="M764 1146h-370l-286 410h348l124 -218l122 218h348zM1092 646v-646h-390v128q-42 -75 -117 -115.5t-175 -40.5q-147 0 -244.5 95.5t-97.5 240.5q0 307 328 328l236 14q38 3 54 16t16 40v4q0 33 -31.5 57.5t-74.5 24.5q-110 0 -122 -90h-398q12 162 153 259t365 97
q227 0 362.5 -112.5t135.5 -299.5zM460 334q0 -35 30 -57.5t78 -22.5q55 0 94.5 35t39.5 85v42l-158 -6q-40 -1 -62 -21t-22 -55z" />
    <glyph glyph-name="uni01CF" unicode="&#x1cf;" 
d="M464 1434h-370l-286 410h348l124 -218l122 218h348zM88 1332h390v-1332h-390v1332z" />
    <glyph glyph-name="uni01D0" unicode="&#x1d0;" 
d="M466 1146h-370l-286 410h348l124 -218l122 218h348zM88 1024h390v-1024h-390v1024z" />
    <glyph glyph-name="uni01D1" unicode="&#x1d1;" horiz-adv-x="1442" 
d="M876 1434h-370l-286 410h348l124 -218l122 218h348zM72 650q0 317 178 509.5t472 192.5q293 0 471.5 -193t178.5 -509q0 -300 -178.5 -483t-471.5 -183q-294 0 -472 183t-178 483zM976 650q0 168 -67 261t-187 93q-121 0 -188.5 -93t-67.5 -261q0 -150 67.5 -234
t188.5 -84q120 0 187 84t67 234z" />
    <glyph glyph-name="uni01D2" unicode="&#x1d2;" horiz-adv-x="1230" 
d="M790 1146h-370l-286 410h348l124 -218l122 218h348zM68 516q0 248 150 398t398 150q246 0 397 -150.5t151 -397.5q0 -249 -151 -400.5t-397 -151.5q-247 0 -397.5 151.5t-150.5 400.5zM768 516q0 105 -40.5 163.5t-111.5 58.5q-72 0 -113 -58.5t-41 -163.5
q0 -107 41 -166.5t113 -59.5q71 0 111.5 59.5t40.5 166.5z" />
    <glyph glyph-name="uni01D3" unicode="&#x1d3;" horiz-adv-x="1308" 
d="M818 1434h-370l-286 410h348l124 -218l122 218h348zM82 1332h390v-806q0 -83 51.5 -128.5t144.5 -45.5q81 0 125.5 45.5t44.5 128.5v806h388v-806q0 -244 -153.5 -393t-404.5 -149q-264 0 -425 149t-161 393v806z" />
    <glyph glyph-name="uni01D4" unicode="&#x1d4;" horiz-adv-x="1220" 
d="M782 1146h-370l-286 410h348l124 -218l122 218h348zM478 450q0 -142 136 -142q56 0 93 36.5t37 93.5v586h388v-1024h-388v138q-55 -84 -134.5 -131t-161.5 -47q-161 0 -260.5 107.5t-99.5 300.5v656h390v-574z" />
    <glyph glyph-name="uni01DD" unicode="&#x1dd;" horiz-adv-x="1226" 
d="M1160 512q0 -244 -143 -386t-387 -142q-246 0 -404 144.5t-158 369.5v108h688q-27 146 -142 146q-107 0 -122 -82h-416q52 374 524 374q258 0 409 -143t151 -389zM626 250q93 0 124 114h-264q6 -53 43 -83.5t97 -30.5z" />
    <glyph glyph-name="uni01E2" unicode="&#x1e2;" horiz-adv-x="1970" 
d="M736 1734h738v-280h-738v280zM1878 1332v-366h-594v-112h536v-364h-536v-126h594v-364h-984v208h-382l-76 -208h-406l530 1332h1318zM622 512h272v472h-102z" />
    <glyph glyph-name="uni01E3" unicode="&#x1e3;" horiz-adv-x="1864" 
d="M536 1446h738v-280h-738v280zM1294 -16q-161 0 -276.5 75t-171.5 213q-27 -143 -135.5 -221.5t-280.5 -78.5q-156 0 -259 95.5t-103 240.5q0 302 328 320l236 14q38 1 54 14.5t16 41.5v4q0 34 -33.5 59t-78.5 25q-104 0 -116 -92h-398q10 166 131.5 265t312.5 99
q287 0 402 -168q129 154 360 154q224 0 368 -155.5t144 -398.5v-68h-688q27 -146 142 -146q103 0 118 82h416q-49 -374 -488 -374zM1234 778q-94 0 -122 -114h264q-6 53 -44 83.5t-98 30.5zM460 350q0 -36 30.5 -58t77.5 -22q55 0 94.5 35t39.5 85v42l-158 -6
q-40 -1 -62 -21t-22 -55z" />
    <glyph glyph-name="uni01F0" unicode="&#x1f0;" 
d="M466 1146h-370l-286 410h348l124 -218l122 218h348zM-58 -66h64q43 0 62.5 17.5t19.5 56.5v1016h390v-1028q0 -191 -108 -298.5t-300 -107.5h-128v344z" />
    <glyph glyph-name="AEacute" unicode="&#x1fc;" horiz-adv-x="1970" 
d="M1288 1844l-328 -410h-308l206 410h430zM1878 1332v-366h-594v-112h536v-364h-536v-126h594v-364h-984v208h-382l-76 -208h-406l530 1332h1318zM622 512h272v472h-102z" />
    <glyph glyph-name="aeacute" unicode="&#x1fd;" horiz-adv-x="1864" 
d="M1354 1556l-328 -410h-308l206 410h430zM1294 -16q-161 0 -276.5 75t-171.5 213q-27 -143 -135.5 -221.5t-280.5 -78.5q-156 0 -259 95.5t-103 240.5q0 302 328 320l236 14q38 1 54 14.5t16 41.5v4q0 34 -33.5 59t-78.5 25q-104 0 -116 -92h-398q10 166 131.5 265
t312.5 99q287 0 402 -168q129 154 360 154q224 0 368 -155.5t144 -398.5v-68h-688q27 -146 142 -146q103 0 118 82h416q-49 -374 -488 -374zM1234 778q-94 0 -122 -114h264q-6 53 -44 83.5t-98 30.5zM460 350q0 -36 30.5 -58t77.5 -22q55 0 94.5 35t39.5 85v42l-158 -6
q-40 -1 -62 -21t-22 -55z" />
    <glyph glyph-name="uni0237" unicode="&#x237;" 
d="M-58 -66h64q43 0 62.5 17.5t19.5 56.5v1016h390v-1028q0 -191 -108 -298.5t-300 -107.5h-128v344z" />
    <glyph glyph-name="uni0250" unicode="&#x250;" horiz-adv-x="1178" 
d="M78 680q0 149 -30 344h392q18 -61 24 -140q87 168 296 168q147 0 244.5 -95.5t97.5 -240.5q0 -302 -328 -320l-236 -14q-38 -3 -54 -16t-16 -40v-4q0 -34 33.5 -59t78.5 -25q104 0 116 92h398q-12 -165 -153.5 -264.5t-364.5 -99.5q-227 0 -362.5 112.5t-135.5 299.5v302
zM468 634v-42l158 6q40 1 62 21t22 55t-30 57.5t-78 22.5q-55 0 -94.5 -35t-39.5 -85z" />
    <glyph glyph-name="uni0251" unicode="&#x251;" horiz-adv-x="1244" 
d="M1258 324v-324h-82q-140 0 -237 52t-141 150q-49 -114 -132.5 -176t-193.5 -62q-182 0 -293 151.5t-111 400.5q0 247 111 397.5t293 150.5q189 0 296 -176v136h390v-606q0 -50 19.5 -72t62.5 -22h18zM462 516q0 -107 40.5 -166.5t111.5 -59.5q72 0 113 59.5t41 166.5
q0 105 -41 163.5t-113 58.5q-71 0 -111.5 -58.5t-40.5 -163.5z" />
    <glyph glyph-name="uni0252" unicode="&#x252;" horiz-adv-x="1244" 
d="M-16 704v324h82q140 0 237 -52t141 -150q49 114 132.5 176t193.5 62q182 0 293 -151.5t111 -400.5q0 -247 -111 -397.5t-293 -150.5q-189 0 -296 176v-136h-390v606q0 50 -19.5 72t-62.5 22h-18zM778 512q0 107 -40.5 166.5t-111.5 59.5q-72 0 -112 -59t-40 -167
q0 -105 40 -163.5t112 -58.5q71 0 111.5 58.5t40.5 163.5z" />
    <glyph glyph-name="uni0253" unicode="&#x253;" horiz-adv-x="1244" 
d="M68 0v964q0 223 142.5 359.5t377.5 136.5q236 0 389.5 -110t180.5 -294h-396q-5 51 -43 81.5t-101 30.5q-76 0 -119 -56.5t-43 -157.5v-134q51 82 129 126t175 44q179 0 288.5 -142t109.5 -374q0 -229 -109.5 -369.5t-288.5 -140.5q-96 0 -174 44t-130 124v-132h-388z
M762 474q0 89 -41.5 138.5t-114.5 49.5q-71 0 -110.5 -50t-39.5 -138t39.5 -138t110.5 -50q73 0 114.5 49.5t41.5 138.5z" />
    <glyph glyph-name="uni0254" unicode="&#x254;" horiz-adv-x="1214" 
d="M1146 512q0 -248 -149.5 -398t-396.5 -150q-226 0 -371.5 125t-160.5 347h394q3 -146 138 -146q72 0 112 58t40 164q0 108 -40 167t-112 59q-64 0 -99.5 -29t-38.5 -99h-394q21 217 164 335.5t368 118.5q246 0 396 -151.5t150 -400.5z" />
    <glyph glyph-name="uni0255" unicode="&#x255;" horiz-adv-x="1218" 
d="M190 -150q0 153 34 286q-156 144 -156 380q0 248 149.5 398t396.5 150q226 0 371.5 -99t160.5 -275h-394q-27 46 -54.5 67t-83.5 21q-72 0 -112 -57t-40 -163v-38q132 94 296 94q165 0 276.5 -85t111.5 -221q0 -153 -138.5 -238.5t-351.5 -85.5q-91 0 -172 18
q-6 -69 -6 -152h-288zM668 244q90 0 90 64q0 24 -19.5 38t-50.5 14q-79 0 -128 -82q46 -34 108 -34z" />
    <glyph glyph-name="uni0256" unicode="&#x256;" horiz-adv-x="1244" 
d="M1258 -10v-324h-82q-192 0 -300 96t-108 268v112q-108 -178 -296 -178q-182 0 -293 151.5t-111 400.5q0 247 111 397.5t293 150.5q189 0 296 -176v546h390v-1350q0 -50 19.5 -72t62.5 -22h18zM462 516q0 -107 40.5 -166.5t111.5 -59.5q72 0 113 59.5t41 166.5
q0 105 -41 163.5t-113 58.5q-71 0 -111.5 -58.5t-40.5 -163.5z" />
    <glyph glyph-name="uni0257" unicode="&#x257;" horiz-adv-x="1244" 
d="M1302 1110h-62q-43 0 -62.5 -22t-19.5 -72v-1016h-390v142q-108 -178 -296 -178q-182 0 -293 151.5t-111 400.5q0 247 111 397.5t293 150.5q189 0 296 -176v182q0 172 108 268t300 96h126v-324zM462 516q0 -107 40.5 -166.5t111.5 -59.5q72 0 113 59.5t41 166.5
q0 105 -41 163.5t-113 58.5q-71 0 -111.5 -58.5t-40.5 -163.5z" />
    <glyph glyph-name="uni0258" unicode="&#x258;" horiz-adv-x="1226" 
d="M1160 516q0 -246 -146.5 -389t-395.5 -143q-486 0 -538 374h416q15 -82 118 -82q115 0 142 146h-688v68q0 266 149 410t393 144q253 0 401.5 -142t148.5 -386zM486 664h264q-31 114 -124 114q-60 0 -97 -30.5t-43 -83.5z" />
    <glyph glyph-name="uni0259" unicode="&#x259;" horiz-adv-x="1226" 
d="M1160 512q0 -244 -143 -386t-387 -142q-246 0 -404 144.5t-158 369.5v108h688q-27 146 -142 146q-107 0 -122 -82h-416q52 374 524 374q258 0 409 -143t151 -389zM626 250q93 0 124 114h-264q6 -53 43 -83.5t97 -30.5z" />
    <glyph glyph-name="uni025A" unicode="&#x25a;" horiz-adv-x="1596" 
d="M1160 512q0 -244 -143 -386t-387 -142q-246 0 -404 139t-158 355v44l674 138q-37 92 -128 92q-107 0 -122 -82h-416q52 374 524 374q186 0 318.5 -76t193.5 -214l152 28h198v-106q0 -39 19 -53.5t53 -14.5h64v-260h-108q-51 0 -96.5 11t-85 34.5t-63 67t-23.5 101.5v14
l-64 -14q2 -16 2 -50zM488 360q29 -110 138 -110q57 0 90.5 41t43.5 133z" />
    <glyph glyph-name="uni025B" unicode="&#x25b;" horiz-adv-x="1140" 
d="M1070 346q-10 -128 -78 -213t-176 -122t-254 -37q-218 0 -354 85t-136 223q0 158 146 234q-130 70 -130 218q0 141 130.5 231.5t333.5 90.5q218 0 360.5 -101t157.5 -267h-396q-2 42 -26.5 66t-67.5 24q-42 0 -67 -21t-25 -57q0 -62 72 -62h106v-244h-106
q-44 0 -69 -17.5t-25 -50.5q0 -34 25 -53t69 -19q51 0 82 23.5t32 68.5h396z" />
    <glyph glyph-name="uni025C" unicode="&#x25c;" horiz-adv-x="1140" 
d="M476 394v244h106q72 0 72 62q0 36 -25 57t-67 21q-43 0 -68.5 -24t-27.5 -66h-394q15 166 151 267t345 101q210 0 345 -90.5t135 -231.5q0 -149 -126 -218q148 -72 148 -234q0 -138 -130.5 -223t-339.5 -85q-221 0 -367 103t-161 269h394q6 -44 36.5 -68t79.5 -24
q44 0 68 19t24 53q0 33 -24 50.5t-68 17.5h-106z" />
    <glyph glyph-name="uni025D" unicode="&#x25d;" horiz-adv-x="1454" 
d="M1454 608v-260h-106q-51 0 -96.5 11t-85 34.5t-63 67t-23.5 101.5v14l-106 -22q-25 -22 -52 -38q148 -72 148 -234q0 -138 -130.5 -223t-339.5 -85q-221 0 -367 103t-161 269h394q6 -44 36.5 -68t79.5 -24q44 0 68 19t24 53q0 33 -24 50.5t-68 17.5h-106v244h106
q72 0 72 62q0 36 -25 57t-67 21q-43 0 -68.5 -24t-27.5 -66h-394q15 166 151 267t345 101q196 0 328.5 -80t149.5 -208l74 14h198v-106q0 -39 19 -53.5t53 -14.5h64z" />
    <glyph glyph-name="uni025E" unicode="&#x25e;" horiz-adv-x="1202" 
d="M982 516q148 -76 148 -234q0 -138 -128 -223t-334 -85q-261 0 -428.5 152.5t-167.5 401.5q0 233 157.5 380.5t404.5 147.5q207 0 341.5 -90.5t134.5 -231.5q0 -150 -128 -218zM466 528q0 -120 44.5 -187t125.5 -67q47 0 73.5 15.5t26.5 42.5q0 30 -24 46t-68 16h-88v244
h88q70 0 70 54q0 30 -26.5 48t-71.5 18q-150 0 -150 -230z" />
    <glyph glyph-name="uni025F" unicode="&#x25f;" horiz-adv-x="774" 
d="M48 -106h62q43 0 62.5 17.5t19.5 56.5v32h-144v304h144v720h390v-720h146v-304h-146v-46q0 -172 -108 -268t-300 -96h-126v304z" />
    <glyph glyph-name="uni0260" unicode="&#x260;" horiz-adv-x="1244" 
d="M1302 1110h-62q-43 0 -62.5 -22t-19.5 -72v-1038q0 -177 -143.5 -285.5t-378.5 -108.5t-388 104.5t-180 279.5h394q5 -45 46 -71.5t108 -26.5q72 0 112 31t40 87v216q-51 -82 -129 -126t-175 -44q-178 0 -287 141.5t-109 374.5q0 230 109 370t287 140q96 0 174 -44
t130 -124v178q0 172 108 268t300 96h126v-324zM462 550q0 -89 41.5 -138.5t114.5 -49.5q71 0 110.5 50t39.5 138t-39.5 138t-110.5 50q-73 0 -114.5 -49.5t-41.5 -138.5z" />
    <glyph glyph-name="uni0261" unicode="&#x261;" horiz-adv-x="1244" 
d="M1158 1024v-1046q0 -177 -143.5 -285.5t-378.5 -108.5t-388 104.5t-180 279.5h394q5 -45 46 -71.5t108 -26.5q72 0 112 31t40 87v216q-51 -82 -129 -126t-175 -44q-178 0 -287 141.5t-109 374.5q0 230 109 370t287 140q96 0 174 -44t130 -124v132h390zM462 550
q0 -89 41.5 -138.5t114.5 -49.5q71 0 110.5 50t39.5 138t-39.5 138t-110.5 50q-73 0 -114.5 -49.5t-41.5 -138.5z" />
    <glyph glyph-name="uni0262" unicode="&#x262;" horiz-adv-x="1214" 
d="M68 516q0 248 149.5 398t396.5 150q231 0 374 -107.5t158 -292.5h-394q-24 94 -130 94q-76 0 -118 -63t-42 -179q0 -117 40 -181.5t112 -64.5q107 0 130 100h-134v228h536v-598h-248l-28 144q-51 -86 -133 -133t-185 -47q-219 0 -351.5 151.5t-132.5 400.5z" />
    <glyph glyph-name="uni0263" unicode="&#x263;" horiz-adv-x="1210" 
d="M254 102l96 162l-298 760h402l154 -562l146 562h406l-300 -760l96 -162q70 -122 70 -216q0 -128 -119.5 -212t-300.5 -84q-186 0 -305 82t-119 210q0 97 72 220zM670 -20l-68 110l-62 -110q-12 -21 -12 -40q0 -25 22.5 -40.5t57.5 -15.5t55.5 14t20.5 38q0 22 -14 44z
" />
    <glyph glyph-name="uni0264" unicode="&#x264;" horiz-adv-x="1210" 
d="M274 472l50 54l-272 498h402l154 -326l146 326h406l-274 -498l50 -54q74 -80 74 -194q0 -142 -115 -230t-301 -88q-180 0 -286 84t-106 226q0 124 72 202zM650 348l-48 70l-40 -70q-14 -24 -14 -40q0 -24 17 -40t43 -16q24 0 40 15t16 39q0 22 -14 42z" />
    <glyph glyph-name="uni0265" unicode="&#x265;" horiz-adv-x="1220" 
d="M478 450q0 -142 136 -142q56 0 93 36.5t37 93.5v586h388v-1358h-388v472q-55 -84 -134.5 -131t-161.5 -47q-161 0 -260.5 107.5t-99.5 300.5v656h390v-574z" />
    <glyph glyph-name="uni0266" unicode="&#x266;" horiz-adv-x="1240" 
d="M88 0v964q0 223 145.5 359.5t384.5 136.5q231 0 382 -103.5t178 -278.5h-396q-5 50 -39.5 78t-92.5 28q-82 0 -127 -60.5t-45 -169.5v-118q56 89 137.5 138.5t166.5 49.5q166 0 269 -114t103 -316v-594h-390v512q0 83 -39 123.5t-109 40.5q-60 0 -99 -43t-39 -109v-524
h-390z" />
    <glyph glyph-name="uni0267" unicode="&#x267;" horiz-adv-x="1240" 
d="M92 0v964q0 223 145.5 359.5t384.5 136.5q231 0 382 -103.5t178 -278.5h-396q-5 50 -39.5 78t-92.5 28q-82 0 -127 -60.5t-45 -169.5v-122q53 89 133 139.5t171 50.5q170 0 271 -117t101 -313v-576q0 -200 -113.5 -313t-314.5 -113h-148v344h84q54 0 78 22t24 72v482
q0 81 -38 122.5t-110 41.5q-60 0 -99 -43t-39 -109v-522h-390z" />
    <glyph glyph-name="uni0268" unicode="&#x268;" horiz-adv-x="646" 
d="M114 1434h418v-302h-418v302zM130 1024h388v-308h130v-302h-130v-414h-388v414h-130v302h130v308z" />
    <glyph glyph-name="uni0269" unicode="&#x269;" horiz-adv-x="672" 
d="M626 324v-324h-126q-192 0 -300 96t-108 268v660h390v-606q0 -50 19.5 -72t62.5 -22h62z" />
    <glyph glyph-name="uni026A" unicode="&#x26a;" horiz-adv-x="818" 
d="M768 1024v-344h-164v-336h164v-344h-716v344h164v336h-164v344h716z" />
    <glyph glyph-name="uni026B" unicode="&#x26b;" horiz-adv-x="934" 
d="M254 972h20v462h390v-564q60 25 60 90h212q0 -174 -70.5 -272.5t-201.5 -109.5v-578h-390v678q-27 -9 -42.5 -34t-15.5 -60h-216q0 192 64.5 290t189.5 98z" />
    <glyph glyph-name="uni026C" unicode="&#x26c;" horiz-adv-x="896" 
d="M312 1434h388v-732h198v-200h-198v-502h-388v502h-28q-133 0 -208.5 73.5t-75.5 202.5t75 201.5t209 72.5h28v382zM300 702h12v150h-12q-74 0 -74 -74q0 -36 19 -56t55 -20z" />
    <glyph glyph-name="uni026D" unicode="&#x26d;" horiz-adv-x="672" 
d="M626 -10v-324h-126q-192 0 -300 96t-108 268v1404h390v-1350q0 -50 19.5 -72t62.5 -22h62z" />
    <glyph glyph-name="uni026E" unicode="&#x26e;" horiz-adv-x="1400" 
d="M1058 462q134 -39 203 -143t69 -269q0 -207 -155.5 -333.5t-410.5 -126.5q-216 0 -358.5 101.5t-169.5 272.5h394q12 -70 134 -70q81 0 125.5 43.5t44.5 122.5q0 69 -44 105.5t-124 36.5h-146v266l238 230l-380 2v-700h-390v1434h390v-410h822v-326z" />
    <glyph glyph-name="uni026F" unicode="&#x26f;" horiz-adv-x="1834" 
d="M478 472q0 -164 126 -164q51 0 84.5 42t33.5 108v566h390v-552q0 -83 33.5 -123.5t94.5 -40.5q51 0 84.5 42t33.5 108v566h388v-1024h-388v140q-53 -86 -129 -133t-155 -47q-112 0 -197 61.5t-125 174.5q-50 -110 -136 -173t-178 -63q-156 0 -253 114t-97 316v634h390
v-552z" />
    <glyph glyph-name="uni0270" unicode="&#x270;" horiz-adv-x="1834" 
d="M478 472q0 -164 126 -164q51 0 84.5 42t33.5 108v566h390v-552q0 -83 33.5 -123.5t94.5 -40.5q51 0 84.5 42t33.5 108v566h388v-1358h-388v474q-53 -86 -129 -133t-155 -47q-112 0 -197 61.5t-125 174.5q-50 -110 -136 -173t-178 -63q-156 0 -253 114t-97 316v634h390
v-552z" />
    <glyph glyph-name="uni0271" unicode="&#x271;" horiz-adv-x="1834" 
d="M722 552q0 164 -126 164q-51 0 -84.5 -42t-33.5 -108v-566h-390v1024h390v-140q53 86 129 133t155 47q113 0 197.5 -61t122.5 -175q50 110 136 173t178 63q156 0 253 -114t97 -316v-574q0 -200 -113.5 -313t-314.5 -113h-146v344h84q54 0 78 22t24 72v480
q0 83 -33.5 123.5t-94.5 40.5q-51 0 -84.5 -42t-33.5 -108v-566h-390v552z" />
    <glyph glyph-name="uni0272" unicode="&#x272;" horiz-adv-x="1240" 
d="M-54 -104h64q43 0 62.5 17.5t19.5 56.5v1056h390v-150q56 90 137 139t167 49q166 0 269 -114t103 -316v-634h-390v552q0 83 -39 123.5t-109 40.5q-60 0 -99 -42t-39 -108v-610q0 -172 -108 -268t-300 -96h-128v304z" />
    <glyph glyph-name="uni0273" unicode="&#x273;" horiz-adv-x="1240" 
d="M768 552q0 83 -39 123.5t-109 40.5q-60 0 -99 -42t-39 -108v-566h-390v1024h390v-148q56 90 137 139t167 49q166 0 269 -114t103 -316v-550q0 -50 19.5 -72t62.5 -22h18v-324h-82q-192 0 -300 96t-108 268v522z" />
    <glyph glyph-name="uni0274" unicode="&#x274;" horiz-adv-x="1282" 
d="M800 1024h390v-1024h-404l-304 468v-468h-390v1024h430l278 -458v458z" />
    <glyph glyph-name="uni0275" unicode="&#x275;" horiz-adv-x="1230" 
d="M68 516q0 248 150 398t398 150q246 0 397 -150.5t151 -397.5q0 -249 -151 -400.5t-397 -151.5q-247 0 -397.5 151.5t-150.5 400.5zM616 778q-69 0 -115.5 -40t-66.5 -114h362q-20 74 -66.5 114t-113.5 40zM616 250q68 0 114.5 39.5t65.5 114.5h-362q19 -75 66 -114.5
t116 -39.5z" />
    <glyph glyph-name="uni0276" unicode="&#x276;" horiz-adv-x="1642" 
d="M68 516q0 247 117 397.5t309 150.5q171 0 274 -146v106h802v-304h-406v-70h350v-262h-350v-64h406v-324h-802v110q-105 -146 -274 -146q-192 0 -309 151.5t-117 400.5zM768 516q0 105 -40.5 163.5t-111.5 58.5q-72 0 -113 -58.5t-41 -163.5q0 -107 41 -166.5t113 -59.5
q71 0 111.5 59.5t40.5 166.5z" />
    <glyph glyph-name="uni0277" unicode="&#x277;" horiz-adv-x="1492" 
d="M748 154q-94 -178 -288 -178q-171 0 -279.5 130.5t-108.5 337.5q0 271 188.5 439.5t493.5 168.5q299 0 483.5 -162t184.5 -424q0 -211 -113.5 -350.5t-286.5 -139.5q-190 0 -274 178zM762 732q-139 0 -218.5 -76t-79.5 -208q0 -128 82 -128q37 0 57.5 24t20.5 68v170h246
v-170q0 -34 19.5 -53t52.5 -19q88 0 88 136q0 123 -69.5 189.5t-198.5 66.5z" />
    <glyph glyph-name="uni0278" unicode="&#x278;" horiz-adv-x="1230" 
d="M68 516q0 225 127 371.5t341 172.5v374h156v-374q216 -24 344 -170.5t128 -373.5q0 -228 -128 -376t-344 -172v-302h-156v302q-214 26 -341 173.5t-127 374.5zM808 516q0 87 -30 145.5t-86 82.5v-460q116 50 116 232zM422 516q0 -179 114 -230v456q-54 -24 -84 -82.5
t-30 -143.5z" />
    <glyph glyph-name="uni0279" unicode="&#x279;" horiz-adv-x="880" 
d="M68 376h80q109 0 182.5 46.5t73.5 117.5v484h388v-1024h-388v172q-49 -92 -116.5 -142t-137.5 -50h-82v396z" />
    <glyph glyph-name="uni027A" unicode="&#x27a;" horiz-adv-x="880" 
d="M68 376h80q109 0 182.5 46.5t73.5 117.5v894h388v-1434h-388v172q-49 -92 -116.5 -142t-137.5 -50h-82v396z" />
    <glyph glyph-name="uni027B" unicode="&#x27b;" horiz-adv-x="880" 
d="M68 376h80q109 0 182.5 46.5t73.5 117.5v484h388v-940q0 -50 19.5 -72t62.5 -22h64v-324h-126q-192 0 -300 96t-108 268v142q-49 -92 -116.5 -142t-137.5 -50h-82v396z" />
    <glyph glyph-name="uni027C" unicode="&#x27c;" horiz-adv-x="880" 
d="M88 1024h390v-172q49 92 116.5 142t137.5 50h82v-396h-80q-109 0 -182.5 -46.5t-73.5 -117.5v-818h-390v1358z" />
    <glyph glyph-name="uni027D" unicode="&#x27d;" horiz-adv-x="880" 
d="M622 -10v-324h-126q-192 0 -300 96t-108 268v994h390v-172q49 92 116.5 142t137.5 50h82v-396h-80q-109 0 -182.5 -46.5t-73.5 -117.5v-400q0 -50 19.5 -72t62.5 -22h62z" />
    <glyph glyph-name="uni027E" unicode="&#x27e;" horiz-adv-x="694" 
d="M648 700h-44q-64 0 -93 -31.5t-29 -102.5v-566h-390v598q0 200 118.5 313t329.5 113h108v-324z" />
    <glyph glyph-name="uni027F" unicode="&#x27f;" horiz-adv-x="694" 
d="M48 700v324h106q211 0 329.5 -113t118.5 -313v-932h-390v900q0 71 -29 102.5t-93 31.5h-42z" />
    <glyph glyph-name="uni0280" unicode="&#x280;" horiz-adv-x="1202" 
d="M620 244h-138v-244h-390v1024h612q192 0 309 -90.5t117 -239.5q0 -92 -54.5 -161t-153.5 -107q88 -24 132.5 -79.5t59.5 -156.5l30 -190h-382l-28 156q-8 46 -34.5 67t-79.5 21zM644 720h-162v-174h162q102 0 102 86q0 42 -26.5 65t-75.5 23z" />
    <glyph glyph-name="uni0281" unicode="&#x281;" horiz-adv-x="1202" 
d="M620 780q53 0 79.5 21t34.5 67l28 156h382l-30 -190q-15 -101 -59.5 -156.5t-132.5 -79.5q99 -38 153.5 -107t54.5 -161q0 -149 -117 -239.5t-309 -90.5h-612v1024h390v-244h138zM644 304q49 0 75.5 23t26.5 65q0 86 -102 86h-162v-174h162z" />
    <glyph glyph-name="uni0282" unicode="&#x282;" horiz-adv-x="1158" 
d="M602 -106v-304h-126q-192 0 -300 85.5t-108 238.5v408h368q11 -51 48.5 -74.5t109.5 -23.5q56 0 89 20t33 56q0 44 -64 50l-216 20q-358 35 -358 340q0 162 130.5 255t355.5 93q216 0 350 -90t154 -246h-376q-15 76 -124 76q-45 0 -70.5 -16.5t-25.5 -45.5q0 -53 54 -58
l236 -20q174 -15 252 -98.5t78 -245.5q0 -155 -98 -249.5t-260 -94.5q-194 0 -298 132v-134q0 -39 19.5 -56.5t62.5 -17.5h84z" />
    <glyph glyph-name="uni0283" unicode="&#x283;" horiz-adv-x="672" 
d="M482 -4q0 -191 -108 -298.5t-300 -107.5h-128v344h64q43 0 62.5 17.5t19.5 56.5v1062q0 172 108 268t300 96h126v-304h-62q-43 0 -62.5 -17.5t-19.5 -56.5v-1060z" />
    <glyph glyph-name="uni0284" unicode="&#x284;" horiz-adv-x="762" 
d="M30 0v304h148v766q0 172 108 268t300 96h126v-304h-62q-43 0 -62.5 -17.5t-19.5 -56.5v-752h142v-304h-142v-38q0 -174 -108 -273t-300 -99h-128v324h64q43 0 62.5 14t19.5 46v26h-148z" />
    <glyph glyph-name="uni0285" unicode="&#x285;" horiz-adv-x="740" 
d="M30 720v304h128q192 0 300 -96t108 -268v-652q0 -39 19.5 -56.5t62.5 -17.5h62v-344h-126q-192 0 -300 107.5t-108 298.5v652q0 39 -19 55.5t-63 16.5h-64z" />
    <glyph glyph-name="uni0286" unicode="&#x286;" horiz-adv-x="1198" 
d="M334 24q0 -52 36.5 -81t101.5 -29q78 0 111 36t33 120v70q-42 6 -90 6q-85 0 -138.5 -34t-53.5 -88zM1346 -410h-334q0 144 -40 258q-98 -258 -500 -258q-226 0 -359 117t-133 317q0 185 149 306.5t377 121.5q56 0 110 -6v624q0 172 108 268t300 96h126v-304h-62
q-43 0 -62.5 -17.5t-19.5 -56.5v-748q162 -112 251 -297t89 -421z" />
    <glyph glyph-name="uni0287" unicode="&#x287;" horiz-adv-x="774" 
d="M48 700v324h126q192 0 300 -96t108 -268v-356h146v-304h-146v-266h-390v266h-144v304h144v302q0 50 -19.5 72t-62.5 22h-62z" />
    <glyph glyph-name="uni0288" unicode="&#x288;" horiz-adv-x="774" 
d="M728 -10v-324h-128q-192 0 -300 96t-108 268v690h-144v304h144v266h390v-266h146v-304h-146v-636q0 -50 19.5 -72t62.5 -22h64z" />
    <glyph glyph-name="uni0289" unicode="&#x289;" horiz-adv-x="1220" 
d="M0 738h88v286h390v-286h266v286h388v-286h88v-262h-88v-476h-388v138q-55 -84 -134.5 -131t-161.5 -47q-161 0 -260.5 107.5t-99.5 300.5v108h-88v262zM478 450q0 -142 136 -142q56 0 93 36.5t37 93.5v38h-266v-26z" />
    <glyph glyph-name="uni028A" unicode="&#x28a;" horiz-adv-x="1322" 
d="M662 -36q-265 0 -427.5 120.5t-162.5 317.5q0 84 45 163t129 135h-174v324h528v-324q-62 -21 -98 -75t-36 -123q0 -90 51.5 -140t144.5 -50t143.5 50t50.5 140q0 69 -36 123t-98 75v324h530v-324h-174q84 -56 129 -135t45 -163q0 -197 -162.5 -317.5t-427.5 -120.5z" />
    <glyph glyph-name="uni028B" unicode="&#x28b;" horiz-adv-x="1220" 
d="M88 1024h390v-508q0 -78 35.5 -121t100.5 -43q62 0 96 43.5t34 122.5q0 95 -24 138.5t-78 43.5h-28v324h90q201 0 314.5 -135t113.5 -375q0 -238 -142.5 -384t-375.5 -146q-237 0 -381.5 146t-144.5 386v508z" />
    <glyph glyph-name="uni028C" unicode="&#x28c;" horiz-adv-x="1210" 
d="M1160 0h-404l-154 684l-146 -684h-404l330 1024h446z" />
    <glyph glyph-name="uni028D" unicode="&#x28d;" horiz-adv-x="1860" 
d="M1810 0h-404l-114 654l-136 -654h-446l-144 654l-112 -654h-402l304 1024h446l140 -642l110 642h468z" />
    <glyph glyph-name="uni028E" unicode="&#x28e;" horiz-adv-x="1250" 
d="M1122 1102h-124q-42 0 -68 -24.5t-46 -73.5l-16 -42l332 -962h-404l-174 602l-166 -602h-404l336 1036q49 151 113 235t165.5 123.5t261.5 39.5h194v-332z" />
    <glyph glyph-name="uni028F" unicode="&#x28f;" horiz-adv-x="1294" 
d="M450 280l-398 744h424l176 -408l166 408h426l-404 -746v-278h-390v280z" />
    <glyph glyph-name="uni0290" unicode="&#x290;" horiz-adv-x="1068" 
d="M88 1024h892v-344l-448 -398h448v-314q0 -39 19.5 -56.5t62.5 -17.5h84v-304h-126q-192 0 -300 85.5t-108 238.5v86h-524v344l446 398h-446v282z" />
    <glyph glyph-name="uni0291" unicode="&#x291;" horiz-adv-x="1590" 
d="M668 -226q0 114 16 226h-596v344l446 398h-446v282h892v-344l-448 -398h230q74 168 198.5 261t281.5 93q152 0 251 -83.5t99 -212.5q0 -156 -107.5 -248t-290.5 -92h-240q-14 -95 -14 -226h-272zM1220 392q-111 0 -178 -110h152q49 0 76.5 15.5t27.5 42.5q0 23 -22 37.5
t-56 14.5z" />
    <glyph glyph-name="uni0292" unicode="&#x292;" horiz-adv-x="1236" 
d="M832 462q164 -39 249 -143.5t85 -268.5q0 -207 -150.5 -333.5t-395.5 -126.5q-227 0 -374 124t-174 332h394q6 -59 46.5 -93.5t107.5 -34.5q72 0 111 37t39 105q0 69 -60 105.5t-170 36.5h-144v266l284 230l-588 2v324h1044v-326z" />
    <glyph glyph-name="uni0293" unicode="&#x293;" horiz-adv-x="1236" 
d="M528 -24q-30 0 -49 -13t-19 -33q0 -24 27.5 -38t70.5 -14q101 0 166 34q-88 64 -196 64zM874 534q144 -45 218 -167.5t74 -316.5q0 -110 -50 -204q66 -113 96 -256h-286q-16 44 -24 64q-137 -64 -322 -64q-141 0 -255.5 40t-183.5 118.5t-69 181.5q0 132 110 216t272 84
q190 0 342 -76q-26 68 -91.5 104t-164.5 36h-144v268l246 136l-550 2v324h1044v-326z" />
    <glyph glyph-name="uni0294" unicode="&#x294;" horiz-adv-x="1202" 
d="M796 506v-506h-388v696q71 32 115 54.5t89 52.5t69.5 59.5t39.5 68t15 85.5q0 64 -34.5 101t-93.5 37q-63 0 -101 -42t-41 -114h-394q15 210 157 341t355 131q247 0 396.5 -125t149.5 -329q0 -91 -24.5 -167.5t-73.5 -138t-103.5 -107.5t-132.5 -97z" />
    <glyph glyph-name="uni0295" unicode="&#x295;" horiz-adv-x="1202" 
d="M406 506q-78 51 -132.5 97t-103.5 107.5t-73.5 138t-24.5 167.5q0 204 149.5 329t396.5 125q213 0 355 -131t157 -341h-394q-3 72 -41 114t-101 42q-59 0 -93.5 -37t-34.5 -101q0 -47 15 -85.5t39.5 -68t69.5 -59.5t89 -52.5t115 -54.5v-696h-388v506z" />
    <glyph glyph-name="uni0296" unicode="&#x296;" horiz-adv-x="1202" 
d="M796 928q78 -51 132.5 -97t103.5 -107.5t73.5 -138t24.5 -167.5q0 -204 -149.5 -329t-396.5 -125q-213 0 -355 132t-157 342h394q3 -72 41 -114t101 -42q59 0 93.5 36t34.5 100q0 47 -15 85.5t-39.5 68t-69.5 59.5t-89 52.5t-115 54.5v696h388v-506z" />
    <glyph glyph-name="uni0297" unicode="&#x297;" horiz-adv-x="1274" 
d="M68 312q0 339 161.5 545.5t426.5 206.5q235 0 385.5 -130t166.5 -362h-394q-1 89 -42 127.5t-116 38.5q-92 0 -143 -111.5t-51 -314.5q0 -187 51 -290.5t143 -103.5q74 0 114.5 33.5t43.5 114.5h394q-22 -227 -170.5 -351.5t-381.5 -124.5q-264 0 -426 199t-162 523z" />
    <glyph glyph-name="uni0298" unicode="&#x298;" horiz-adv-x="1484" 
d="M72 650q0 331 177.5 516.5t494.5 185.5q316 0 493 -185t177 -517q0 -315 -176.5 -490.5t-493.5 -175.5q-318 0 -495 175.5t-177 490.5zM1038 650q0 394 -294 394q-298 0 -298 -394q0 -360 298 -360q294 0 294 360zM596 798h294v-280h-294v280z" />
    <glyph glyph-name="uni0299" unicode="&#x299;" horiz-adv-x="1262" 
d="M1004 516q188 -75 188 -234q0 -126 -95.5 -204t-250.5 -78h-754v1024h722q156 0 257 -81.5t101 -208.5q0 -149 -168 -218zM728 638q48 0 48 48q0 26 -17 41t-47 15h-224v-104h240zM728 282q68 0 68 54q0 27 -17.5 42.5t-50.5 15.5h-240v-112h240z" />
    <glyph glyph-name="uni029A" unicode="&#x29a;" horiz-adv-x="1202" 
d="M220 514q-148 76 -148 234q0 138 128 223t334 85q261 0 428.5 -152.5t167.5 -401.5q0 -233 -157.5 -380.5t-404.5 -147.5q-207 0 -341.5 90.5t-134.5 231.5q0 150 128 218zM736 502q0 120 -44.5 187t-125.5 67q-47 0 -73.5 -15.5t-26.5 -42.5q0 -30 25 -46t69 -16h88
v-244h-88q-34 0 -53 -14t-19 -40q0 -30 26.5 -48t71.5 -18q150 0 150 230z" />
    <glyph glyph-name="uni029B" unicode="&#x29b;" horiz-adv-x="1214" 
d="M68 516q0 248 127 398t337 150q95 0 169 -44t119 -126v12q0 200 102 313t284 113h106v-324h-42q-64 0 -94 -32.5t-30 -103.5v-208h-388q-24 94 -136 94q-76 0 -118 -63t-42 -179q0 -117 40 -181.5t112 -64.5q107 0 130 100h-134v228h536v-598h-248l-28 144
q-51 -86 -133 -133t-185 -47q-219 0 -351.5 151.5t-132.5 400.5z" />
    <glyph glyph-name="uni029C" unicode="&#x29c;" horiz-adv-x="1282" 
d="M92 1024h390v-330h318v330h390v-1024h-390v350h-318v-350h-390v1024z" />
    <glyph glyph-name="uni029D" unicode="&#x29d;" horiz-adv-x="928" 
d="M438 1434h418v-302h-418v302zM842 -24q0 -182 -128 -284t-356 -102q-204 0 -320 100t-116 278q0 165 107 258.5t297 93.5h126v704h390v-704h112v-284h-112v-60zM358 -86q50 0 72 17.5t22 56.5v48h-112q-66 0 -66 -56q0 -31 22.5 -48.5t61.5 -17.5z" />
    <glyph glyph-name="uni029E" unicode="&#x29e;" horiz-adv-x="1262" 
d="M528 0h-480l348 462l-386 562h450l226 -354l96 122v232h390v-1358h-390v714z" />
    <glyph glyph-name="uni029F" unicode="&#x29f;" horiz-adv-x="880" 
d="M830 0h-738v1024h390v-660h348v-364z" />
    <glyph glyph-name="uni02A0" unicode="&#x2a0;" horiz-adv-x="1244" 
d="M1302 1110h-62q-43 0 -62.5 -22t-19.5 -72v-1350h-390v476q-108 -178 -296 -178q-182 0 -293 151.5t-111 400.5q0 247 111 397.5t293 150.5q189 0 296 -176v182q0 172 108 268t300 96h126v-324zM462 516q0 -107 40.5 -166.5t111.5 -59.5q72 0 113 59.5t41 166.5
q0 105 -41 163.5t-113 58.5q-71 0 -111.5 -58.5t-40.5 -163.5z" />
    <glyph glyph-name="uni02A1" unicode="&#x2a1;" horiz-adv-x="1202" 
d="M154 532h254v164q71 32 115 54.5t89 52.5t69.5 59.5t39.5 68t15 85.5q0 64 -34.5 101t-93.5 37q-63 0 -101 -42t-41 -114h-394q15 210 157 341t355 131q247 0 396.5 -125t149.5 -329q0 -80 -24.5 -147t-73 -121t-104 -95t-132.5 -85v-36h242v-262h-242v-270h-388v270
h-254v262z" />
    <glyph glyph-name="uni02A2" unicode="&#x2a2;" horiz-adv-x="1202" 
d="M154 532h252v56q-78 42 -133 81.5t-103.5 91t-73 115.5t-24.5 140q0 204 149.5 329t396.5 125q213 0 355 -131t157 -341h-394q-3 72 -41 114t-101 42q-59 0 -93.5 -37t-34.5 -101q0 -47 15 -85.5t39.5 -68t69.5 -59.5t89 -52.5t115 -54.5v-164h244v-262h-244v-270h-388
v270h-252v262z" />
    <glyph glyph-name="uni02A3" unicode="&#x2a3;" horiz-adv-x="2212" 
d="M1158 1434v-410h970v-344l-448 -398h448v-282h-894v344l448 398h-524v-742h-390v142q-108 -178 -296 -178q-182 0 -293 151.5t-111 400.5q0 247 111 397.5t293 150.5q189 0 296 -176v546h390zM462 516q0 -107 40.5 -166.5t111.5 -59.5q72 0 113 59.5t41 166.5
q0 105 -41 163.5t-113 58.5q-71 0 -111.5 -58.5t-40.5 -163.5z" />
    <glyph glyph-name="uni02A4" unicode="&#x2a4;" horiz-adv-x="2076" 
d="M768 1434h390v-410h822v-326l-242 -236q134 -39 203 -143t69 -269q0 -207 -155.5 -333.5t-410.5 -126.5q-216 0 -358.5 101.5t-169.5 272.5h394q12 -70 134 -70q81 0 125.5 43.5t44.5 122.5q0 69 -44 105.5t-124 36.5h-146v266l238 232h-380v-700h-390v142
q-108 -178 -296 -178q-182 0 -293 151.5t-111 400.5q0 247 111 397.5t293 150.5q189 0 296 -176v546zM462 516q0 -107 40.5 -166.5t111.5 -59.5q72 0 113 59.5t41 166.5q0 105 -41 163.5t-113 58.5q-71 0 -111.5 -58.5t-40.5 -163.5z" />
    <glyph glyph-name="uni02A5" unicode="&#x2a5;" horiz-adv-x="2738" 
d="M1814 -226q0 114 16 226h-596v344l448 398h-524v-742h-390v142q-108 -178 -296 -178q-182 0 -293 151.5t-111 400.5q0 247 111 397.5t293 150.5q189 0 296 -176v546h390v-410h970v-344l-448 -398h228q74 168 198.5 261t281.5 93q152 0 251 -83.5t99 -212.5
q0 -156 -107.5 -248t-290.5 -92h-240q-14 -95 -14 -226h-272zM462 516q0 -107 40.5 -166.5t111.5 -59.5q72 0 113 59.5t41 166.5q0 105 -41 163.5t-113 58.5q-71 0 -111.5 -58.5t-40.5 -163.5zM2368 392q-110 0 -180 -110h152q49 0 77.5 15.5t28.5 42.5q0 23 -22 37.5
t-56 14.5z" />
    <glyph glyph-name="uni02A6" unicode="&#x2a6;" horiz-adv-x="1866" 
d="M1356 372l-216 22q-358 33 -358 334q0 153 130.5 241.5t355.5 88.5q216 0 350.5 -89.5t153.5 -246.5h-376q-15 76 -124 76q-45 0 -70.5 -14.5t-25.5 -41.5q0 -39 54 -42l236 -20q173 -17 251.5 -96.5t78.5 -239.5q0 -168 -106 -256t-308 -88h-700q-231 0 -360.5 118
t-129.5 328v274h-144v304h144v266h390v-266h146v-304h-146v-220q0 -92 39.5 -134t124.5 -42h574q54 0 72 4.5t18 17.5q0 20 -54 26z" />
    <glyph glyph-name="uni02A7" unicode="&#x2a7;" horiz-adv-x="1360" 
d="M48 1024h144v266h390v-266h214v46q0 172 108 268t300 96h128v-304h-64q-43 0 -62.5 -17.5t-19.5 -56.5v-1080q0 -182 -108 -284t-300 -102h-126v344h62q82 0 82 54v12h-196q-192 0 -300 96t-108 268v356h-144v304zM664 324h132v396h-214v-302q0 -50 19.5 -72t62.5 -22z
" />
    <glyph glyph-name="uni02A8" unicode="&#x2a8;" horiz-adv-x="1904" 
d="M664 0q-233 0 -352.5 100.5t-119.5 285.5v334h-144v304h144v266h390v-266h146v-304h-146v-282q0 -81 29 -118.5t93 -37.5q45 0 94 14q-44 104 -44 220q0 248 149.5 398t396.5 150q226 0 371.5 -99t160.5 -275h-394q-27 46 -54.5 67t-83.5 21q-72 0 -112 -57t-40 -163v-10
q122 66 296 66q165 0 276.5 -89t111.5 -229q0 -99 -66.5 -171t-176 -106.5t-247.5 -34.5q-218 0 -372 104q-144 -88 -306 -88zM1354 244q90 0 90 52q0 23 -20 38.5t-50 15.5q-70 0 -144 -58q48 -48 124 -48z" />
    <glyph glyph-name="uni02A9" unicode="&#x2a9;" horiz-adv-x="1884" 
d="M48 720v304h144v46q0 172 108 268t300 96h128v-304h-64q-43 0 -62.5 -17.5t-19.5 -56.5v-32h146v-2h388v-150q53 88 133.5 139t172.5 51q169 0 269.5 -116.5t100.5 -313.5v-616q0 -200 -113.5 -313t-314.5 -113h-148v344h84q54 0 78 22t24 72v522q0 164 -146 164
q-60 0 -100 -42t-40 -108v-566h-388v722h-146v-720h-390v720h-144z" />
    <glyph glyph-name="uni02AA" unicode="&#x2aa;" horiz-adv-x="1704" 
d="M1194 372l-216 22q-358 33 -358 334q0 153 130.5 241.5t355.5 88.5q216 0 350.5 -89.5t153.5 -246.5h-376q-15 76 -124 76q-45 0 -70.5 -14.5t-25.5 -41.5q0 -36 56 -42l234 -20q172 -15 251 -95t79 -241q0 -168 -109.5 -256t-318.5 -88h-624q-231 0 -360.5 118
t-129.5 328v988h390v-934q0 -92 39.5 -134t124.5 -42h514q54 0 71 4t17 18q0 20 -54 26z" />
    <glyph glyph-name="uni02AB" unicode="&#x2ab;" horiz-adv-x="1538" 
d="M482 1434v-410h970v-344l-448 -398h448v-282h-892v344l446 398h-524v-742h-390v1434h390z" />
    <glyph glyph-name="uni02AC" unicode="&#x2ac;" horiz-adv-x="1206" 
d="M52 1332h290l74 -346l34 346h302l42 -346l70 346h292l-204 -594h-268l-78 334l-48 -334h-318zM52 594h290l74 -346l34 346h302l42 -346l70 346h292l-204 -594h-268l-78 334l-48 -334h-318z" />
    <glyph glyph-name="uni02AD" unicode="&#x2ad;" horiz-adv-x="1206" 
d="M1114 738h-290v346h-442v-346h-290v594h1022v-594zM1114 0h-290v346h-442v-346h-290v594h1022v-594z" />
    <glyph glyph-name="uni02AE" unicode="&#x2ae;" horiz-adv-x="1220" 
d="M478 450q0 -142 136 -142q56 0 93 36.5t37 93.5v586h388v-1358h-388v472q-55 -84 -134.5 -131t-161.5 -47q-161 0 -260.5 107.5t-99.5 300.5v198q0 71 -29 102.5t-93 31.5h-44v324h106q211 0 330.5 -113t119.5 -313v-148z" />
    <glyph glyph-name="uni02AF" unicode="&#x2af;" horiz-adv-x="1220" 
d="M478 450q0 -142 136 -142q56 0 93 36.5t37 93.5v586h388v-940q0 -50 19.5 -72t62.5 -22h64v-324h-128q-192 0 -299 96t-107 268v108q-55 -84 -134.5 -131t-161.5 -47q-161 0 -260.5 107.5t-99.5 300.5v198q0 71 -29 102.5t-93 31.5h-44v324h106q211 0 330.5 -113
t119.5 -313v-148z" />
    <glyph glyph-name="uni02BC" unicode="&#x2bc;" horiz-adv-x="476" 
d="M60 1434h418v-470q0 -124 -81 -193t-225 -69h-106v180h42q95 0 139.5 22.5t44.5 71.5v54h-232v404z" />
    <glyph glyph-name="uni02C8" unicode="&#x2c8;" horiz-adv-x="544" 
d="M88 1434h368v-704h-368v704z" />
    <glyph glyph-name="uni02CC" unicode="&#x2cc;" horiz-adv-x="544" 
d="M88 370h368v-704h-368v704z" />
    <glyph glyph-name="uni02D0" unicode="&#x2d0;" horiz-adv-x="696" 
d="M78 1024h540l-270 -450zM348 450l270 -450h-540z" />
    <glyph glyph-name="gravecomb" unicode="&#x300;" horiz-adv-x="614" 
d="M-100 1434h430l204 -410h-306z" />
    <glyph glyph-name="acutecomb" unicode="&#x301;" horiz-adv-x="614" 
d="M756 1434l-328 -410h-308l206 410h430z" />
    <glyph glyph-name="uni0302" unicode="&#x302;" horiz-adv-x="614" 
d="M124 1434h370l286 -410h-348l-122 218l-124 -218h-348z" />
    <glyph glyph-name="tildecomb" unicode="&#x303;" horiz-adv-x="614" 
d="M90 1414q20 0 40 -2t35 -4.5t33 -8t28 -9t27.5 -12t23.5 -11.5t24.5 -13t22.5 -12q63 -33 95 -38q12 -2 25 -2q56 0 87 26t31 72h210q0 -184 -78 -284t-222 -100q-42 0 -81 10.5t-60 20.5t-53 29q-4 3 -15.5 9.5t-16 9.5t-14.5 8.5t-16 7.5t-15 6t-16.5 5.5t-16.5 2.5
t-18 1q-45 0 -71.5 -27.5t-26.5 -74.5h-216q0 192 64.5 291t189.5 99z" />
    <glyph glyph-name="uni0304" unicode="&#x304;" horiz-adv-x="614" 
d="M-62 1324h738v-280h-738v280z" />
    <glyph glyph-name="uni0306" unicode="&#x306;" horiz-adv-x="614" 
d="M768 1398q-24 -175 -149 -281.5t-307 -106.5q-184 0 -311 106.5t-149 281.5h324q9 -58 45 -90t91 -32q54 0 88.5 32t43.5 90h324z" />
    <glyph glyph-name="uni0307" unicode="&#x307;" horiz-adv-x="614" 
d="M104 1428h418v-404h-418v404z" />
    <glyph glyph-name="uni0308" unicode="&#x308;" horiz-adv-x="614" 
d="M394 1386h376v-362h-376v362zM-136 1386h378v-362h-378v362z" />
    <glyph glyph-name="hookabovecomb" unicode="&#x309;" horiz-adv-x="614" 
d="M196 1024q0 53 28.5 89.5t77.5 70.5q33 22 47 32t29.5 28t15.5 34q0 30 -16.5 48t-43.5 18q-33 0 -53 -19t-21 -53h-262q9 141 92 207.5t248 66.5q143 0 228.5 -69.5t85.5 -184.5q0 -58 -31.5 -96.5t-84.5 -69.5q-6 -3 -18.5 -10t-18 -10.5t-16 -10t-15.5 -10.5t-13 -10
t-11.5 -11.5t-8 -12t-6 -13t-1.5 -14.5h-232z" />
    <glyph glyph-name="uni030A" unicode="&#x30a;" horiz-adv-x="614" 
d="M654 1338q0 -147 -94.5 -237.5t-247.5 -90.5q-154 0 -249 90.5t-95 237.5t94.5 237.5t247.5 90.5q154 0 249 -90.5t95 -237.5zM208 1338q0 -47 27.5 -72.5t76.5 -25.5q48 0 74 25.5t26 72.5t-26.5 72.5t-75.5 25.5q-48 0 -75 -26t-27 -72z" />
    <glyph glyph-name="uni030B" unicode="&#x30b;" horiz-adv-x="614" 
d="M1026 1434l-328 -410h-306l204 410h430zM514 1434l-328 -410h-306l204 410h430z" />
    <glyph glyph-name="uni030C" unicode="&#x30c;" horiz-adv-x="614" 
d="M494 1024h-370l-286 410h348l124 -218l122 218h348z" />
    <glyph glyph-name="uni0312" unicode="&#x312;" horiz-adv-x="614" 
d="M518 1024h-418v468q0 124 81 194t225 70h106v-182h-44q-95 0 -139.5 -22.5t-44.5 -71.5v-52h234v-404z" />
    <glyph glyph-name="uni0313" unicode="&#x313;" horiz-adv-x="614" 
d="M100 1756h418v-470q0 -124 -81 -193t-225 -69h-106v180h44q95 0 139.5 22.5t44.5 71.5v54h-234v404z" />
    <glyph glyph-name="uni0315" unicode="&#x315;" horiz-adv-x="614" 
d="M332 1604h332l-88 -580h-322z" />
    <glyph glyph-name="uni031B" unicode="&#x31b;" horiz-adv-x="614" 
d="M156 1122h206q49 0 75.5 24.5t26.5 89.5v136h288v-148q0 -67 -21.5 -120t-57 -86.5t-84 -55.5t-98.5 -31t-105 -9h-230v200z" />
    <glyph glyph-name="dotbelowcomb" unicode="&#x323;" 
d="M66 -108h418v-302h-418v302z" />
    <glyph glyph-name="uni0326" unicode="&#x326;" horiz-adv-x="614" 
d="M110 -58h418v-468q0 -124 -80 -193t-224 -69h-108v180h44q95 0 139.5 22.5t44.5 71.5v54h-234v402z" />
    <glyph glyph-name="uni0327" unicode="&#x327;" horiz-adv-x="614" 
d="M240 20h198l-80 -132h30q102 0 165 -68t63 -178q0 -105 -93 -167.5t-249 -62.5h-182v266h166q31 0 48.5 12.5t17.5 35.5q0 38 -54 38h-70l-50 82z" />
    <glyph glyph-name="uni0328" unicode="&#x328;" horiz-adv-x="614" 
d="M402 0q-99 -52 -132.5 -89.5t-33.5 -88.5q0 -80 106 -80h146v-286h-162q-165 0 -263.5 71t-98.5 191q0 177 198 282h240z" />
    <glyph glyph-name="uni1E9E" unicode="&#x1e9e;" horiz-adv-x="1402" 
d="M1094 752q128 -26 203 -122t75 -238q0 -176 -123 -284t-325 -108h-266v308h168q83 0 127.5 26.5t44.5 75.5q0 51 -46 78.5t-132 27.5h-142v286l322 244q-95 26 -208 26q-163 0 -236.5 -67.5t-73.5 -214.5v-790h-390v802q0 282 175.5 427t518.5 145q273 0 538 -134v-338z
" />
    <glyph glyph-name="uni1EA0" unicode="&#x1ea0;" horiz-adv-x="1386" 
d="M1356 0h-404l-58 208h-402l-56 -208h-406l442 1332h444zM690 930l-114 -418h232zM480 -108h418v-302h-418v302z" />
    <glyph glyph-name="uni1EA1" unicode="&#x1ea1;" horiz-adv-x="1182" 
d="M1092 646v-646h-390v128q-42 -75 -117 -115.5t-175 -40.5q-147 0 -244.5 95.5t-97.5 240.5q0 307 328 328l236 14q38 3 54 16t16 40v4q0 33 -31.5 57.5t-74.5 24.5q-110 0 -122 -90h-398q12 162 153 259t365 97q227 0 362.5 -112.5t135.5 -299.5zM460 334q0 -35 30 -57.5
t78 -22.5q55 0 94.5 35t39.5 85v42l-158 -6q-40 -1 -62 -21t-22 -55zM410 -108h418v-302h-418v302z" />
    <glyph glyph-name="uni1EA2" unicode="&#x1ea2;" horiz-adv-x="1386" 
d="M564 1434q0 53 28.5 89.5t77.5 70.5q33 22 47 32t29.5 28t15.5 34q0 30 -16.5 48t-43.5 18q-33 0 -53 -19t-21 -53h-262q9 141 92 207.5t248 66.5q143 0 228.5 -69.5t85.5 -184.5q0 -58 -31.5 -96.5t-84.5 -69.5q-6 -3 -18.5 -10t-18 -10.5t-16 -10t-15.5 -10.5t-13 -10
t-11.5 -11.5t-8 -12t-6 -13t-1.5 -14.5h-232zM1356 0h-404l-58 208h-402l-56 -208h-406l442 1332h444zM690 930l-114 -418h232z" />
    <glyph glyph-name="uni1EA3" unicode="&#x1ea3;" horiz-adv-x="1182" 
d="M466 1146q0 53 28.5 89.5t77.5 70.5q33 22 47 32t29.5 28t15.5 34q0 30 -16.5 48t-43.5 18q-33 0 -53 -19t-21 -53h-262q9 141 92 207.5t248 66.5q143 0 228.5 -69.5t85.5 -184.5q0 -58 -31.5 -96.5t-84.5 -69.5q-6 -3 -18.5 -10t-18 -10.5t-16 -10t-15.5 -10.5t-13 -10
t-11.5 -11.5t-8 -12t-6 -13t-1.5 -14.5h-232zM1092 646v-646h-390v128q-42 -75 -117 -115.5t-175 -40.5q-147 0 -244.5 95.5t-97.5 240.5q0 307 328 328l236 14q38 3 54 16t16 40v4q0 33 -31.5 57.5t-74.5 24.5q-110 0 -122 -90h-398q12 162 153 259t365 97
q227 0 362.5 -112.5t135.5 -299.5zM460 334q0 -35 30 -57.5t78 -22.5q55 0 94.5 35t39.5 85v42l-158 -6q-40 -1 -62 -21t-22 -55z" />
    <glyph glyph-name="uni1EA4" unicode="&#x1ea4;" horiz-adv-x="1386" 
d="M1684 2048l-328 -410h-308l206 410h430zM492 1844h370l286 -410h-348l-122 218l-124 -218h-348zM1356 0h-404l-58 208h-402l-56 -208h-406l442 1332h444zM690 930l-114 -418h232z" />
    <glyph glyph-name="uni1EA5" unicode="&#x1ea5;" horiz-adv-x="1182" 
d="M1548 1802l-328 -410h-308l206 410h430zM394 1556h370l286 -410h-348l-122 218l-124 -218h-348zM1092 646v-646h-390v128q-42 -75 -117 -115.5t-175 -40.5q-147 0 -244.5 95.5t-97.5 240.5q0 307 328 328l236 14q38 3 54 16t16 40v4q0 33 -31.5 57.5t-74.5 24.5
q-110 0 -122 -90h-398q12 162 153 259t365 97q227 0 362.5 -112.5t135.5 -299.5zM460 334q0 -35 30 -57.5t78 -22.5q55 0 94.5 35t39.5 85v42l-158 -6q-40 -1 -62 -21t-22 -55z" />
    <glyph glyph-name="uni1EA6" unicode="&#x1ea6;" horiz-adv-x="1386" 
d="M854 2048h430l204 -410h-306zM492 1844h370l286 -410h-348l-122 218l-124 -218h-348zM1356 0h-404l-58 208h-402l-56 -208h-406l442 1332h444zM690 930l-114 -418h232z" />
    <glyph glyph-name="uni1EA7" unicode="&#x1ea7;" horiz-adv-x="1182" 
d="M692 1802h430l204 -410h-306zM394 1556h370l286 -410h-348l-122 218l-124 -218h-348zM1092 646v-646h-390v128q-42 -75 -117 -115.5t-175 -40.5q-147 0 -244.5 95.5t-97.5 240.5q0 307 328 328l236 14q38 3 54 16t16 40v4q0 33 -31.5 57.5t-74.5 24.5q-110 0 -122 -90
h-398q12 162 153 259t365 97q227 0 362.5 -112.5t135.5 -299.5zM460 334q0 -35 30 -57.5t78 -22.5q55 0 94.5 35t39.5 85v42l-158 -6q-40 -1 -62 -21t-22 -55z" />
    <glyph glyph-name="uni1EA8" unicode="&#x1ea8;" horiz-adv-x="1386" 
d="M1098 1638q0 53 28.5 89.5t77.5 70.5q33 22 47 32t29.5 28t15.5 34q0 30 -16.5 48t-43.5 18q-33 0 -53 -19t-21 -53h-262q9 141 92 207.5t248 66.5q143 0 228.5 -69.5t85.5 -184.5q0 -58 -31.5 -96.5t-84.5 -69.5q-6 -3 -18.5 -10t-18 -10.5t-16 -10t-15.5 -10.5t-13 -10
t-11.5 -11.5t-8 -12t-6 -13t-1.5 -14.5h-232zM492 1844h370l286 -410h-348l-122 218l-124 -218h-348zM1356 0h-404l-58 208h-402l-56 -208h-406l442 1332h444zM690 930l-114 -418h232z" />
    <glyph glyph-name="uni1EA9" unicode="&#x1ea9;" horiz-adv-x="1182" 
d="M968 1392q0 53 28.5 89.5t77.5 70.5q33 22 47 32t29.5 28t15.5 34q0 30 -16.5 48t-43.5 18q-33 0 -53 -19t-21 -53h-262q9 141 92 207.5t248 66.5q143 0 228.5 -69.5t85.5 -184.5q0 -58 -31.5 -96.5t-84.5 -69.5q-6 -3 -18.5 -10t-18 -10.5t-16 -10t-15.5 -10.5t-13 -10
t-11.5 -11.5t-8 -12t-6 -13t-1.5 -14.5h-232zM394 1556h370l286 -410h-348l-122 218l-124 -218h-348zM1092 646v-646h-390v128q-42 -75 -117 -115.5t-175 -40.5q-147 0 -244.5 95.5t-97.5 240.5q0 307 328 328l236 14q38 3 54 16t16 40v4q0 33 -31.5 57.5t-74.5 24.5
q-110 0 -122 -90h-398q12 162 153 259t365 97q227 0 362.5 -112.5t135.5 -299.5zM460 334q0 -35 30 -57.5t78 -22.5q55 0 94.5 35t39.5 85v42l-158 -6q-40 -1 -62 -21t-22 -55z" />
    <glyph glyph-name="uni1EAA" unicode="&#x1eaa;" horiz-adv-x="1386" 
d="M464 2324q20 0 40 -2t35 -4.5t33 -8t28 -9t27.5 -12t23.5 -11.5t24.5 -13t22.5 -12q63 -33 95 -38q12 -2 25 -2q56 0 87 26t31 72h210q0 -184 -78 -284t-222 -100q-42 0 -81 10.5t-60 20.5t-53 29q-4 3 -15.5 9.5t-16 9.5t-14.5 8.5t-16 7.5t-15 6t-16.5 5.5t-16.5 2.5
t-18 1q-45 0 -71.5 -27.5t-26.5 -74.5h-216q0 192 64.5 291t189.5 99zM492 1844h370l286 -410h-348l-122 218l-124 -218h-348zM1356 0h-404l-58 208h-402l-56 -208h-406l442 1332h444zM690 930l-114 -418h232z" />
    <glyph glyph-name="uni1EAB" unicode="&#x1eab;" horiz-adv-x="1182" 
d="M366 2036q20 0 40 -2t35 -4.5t33 -8t28 -9t27.5 -12t23.5 -11.5t24.5 -13t22.5 -12q63 -33 95 -38q12 -2 25 -2q56 0 87 26t31 72h210q0 -184 -78 -284t-222 -100q-42 0 -81 10.5t-60 20.5t-53 29q-4 3 -15.5 9.5t-16 9.5t-14.5 8.5t-16 7.5t-15 6t-16.5 5.5t-16.5 2.5
t-18 1q-45 0 -71.5 -27.5t-26.5 -74.5h-216q0 192 64.5 291t189.5 99zM394 1556h370l286 -410h-348l-122 218l-124 -218h-348zM1092 646v-646h-390v128q-42 -75 -117 -115.5t-175 -40.5q-147 0 -244.5 95.5t-97.5 240.5q0 307 328 328l236 14q38 3 54 16t16 40v4
q0 33 -31.5 57.5t-74.5 24.5q-110 0 -122 -90h-398q12 162 153 259t365 97q227 0 362.5 -112.5t135.5 -299.5zM460 334q0 -35 30 -57.5t78 -22.5q55 0 94.5 35t39.5 85v42l-158 -6q-40 -1 -62 -21t-22 -55z" />
    <glyph glyph-name="uni1EAC" unicode="&#x1eac;" horiz-adv-x="1386" 
d="M492 1844h370l286 -410h-348l-122 218l-124 -218h-348zM1356 0h-404l-58 208h-402l-56 -208h-406l442 1332h444zM690 930l-114 -418h232zM480 -108h418v-302h-418v302z" />
    <glyph glyph-name="uni1EAD" unicode="&#x1ead;" horiz-adv-x="1182" 
d="M394 1556h370l286 -410h-348l-122 218l-124 -218h-348zM1092 646v-646h-390v128q-42 -75 -117 -115.5t-175 -40.5q-147 0 -244.5 95.5t-97.5 240.5q0 307 328 328l236 14q38 3 54 16t16 40v4q0 33 -31.5 57.5t-74.5 24.5q-110 0 -122 -90h-398q12 162 153 259t365 97
q227 0 362.5 -112.5t135.5 -299.5zM460 334q0 -35 30 -57.5t78 -22.5q55 0 94.5 35t39.5 85v42l-158 -6q-40 -1 -62 -21t-22 -55zM410 -108h418v-302h-418v302z" />
    <glyph glyph-name="uni1EAE" unicode="&#x1eae;" horiz-adv-x="1386" 
d="M1124 2274l-328 -410h-308l206 410h430zM1136 1808q-24 -175 -149 -281.5t-307 -106.5q-184 0 -311 106.5t-149 281.5h324q9 -58 45 -90t91 -32q54 0 88.5 32t43.5 90h324zM1356 0h-404l-58 208h-402l-56 -208h-406l442 1332h444zM690 930l-114 -418h232z" />
    <glyph glyph-name="uni1EAF" unicode="&#x1eaf;" horiz-adv-x="1182" 
d="M1026 1986l-328 -410h-308l206 410h430zM1038 1520q-24 -175 -149 -281.5t-307 -106.5q-184 0 -311 106.5t-149 281.5h324q9 -58 45 -90t91 -32q54 0 88.5 32t43.5 90h324zM1092 646v-646h-390v128q-42 -75 -117 -115.5t-175 -40.5q-147 0 -244.5 95.5t-97.5 240.5
q0 307 328 328l236 14q38 3 54 16t16 40v4q0 33 -31.5 57.5t-74.5 24.5q-110 0 -122 -90h-398q12 162 153 259t365 97q227 0 362.5 -112.5t135.5 -299.5zM460 334q0 -35 30 -57.5t78 -22.5q55 0 94.5 35t39.5 85v42l-158 -6q-40 -1 -62 -21t-22 -55z" />
    <glyph glyph-name="uni1EB0" unicode="&#x1eb0;" horiz-adv-x="1386" 
d="M268 2274h430l204 -410h-306zM1136 1808q-24 -175 -149 -281.5t-307 -106.5q-184 0 -311 106.5t-149 281.5h324q9 -58 45 -90t91 -32q54 0 88.5 32t43.5 90h324zM1356 0h-404l-58 208h-402l-56 -208h-406l442 1332h444zM690 930l-114 -418h232z" />
    <glyph glyph-name="uni1EB1" unicode="&#x1eb1;" horiz-adv-x="1182" 
d="M170 1986h430l204 -410h-306zM1038 1520q-24 -175 -149 -281.5t-307 -106.5q-184 0 -311 106.5t-149 281.5h324q9 -58 45 -90t91 -32q54 0 88.5 32t43.5 90h324zM1092 646v-646h-390v128q-42 -75 -117 -115.5t-175 -40.5q-147 0 -244.5 95.5t-97.5 240.5q0 307 328 328
l236 14q38 3 54 16t16 40v4q0 33 -31.5 57.5t-74.5 24.5q-110 0 -122 -90h-398q12 162 153 259t365 97q227 0 362.5 -112.5t135.5 -299.5zM460 334q0 -35 30 -57.5t78 -22.5q55 0 94.5 35t39.5 85v42l-158 -6q-40 -1 -62 -21t-22 -55z" />
    <glyph glyph-name="uni1EB2" unicode="&#x1eb2;" horiz-adv-x="1386" 
d="M564 1864q0 53 28.5 89.5t77.5 70.5q33 22 47 32t29.5 28t15.5 34q0 30 -16.5 48t-43.5 18q-33 0 -53 -19t-21 -53h-262q9 141 92 207.5t248 66.5q143 0 228.5 -69.5t85.5 -184.5q0 -58 -31.5 -96.5t-84.5 -69.5q-6 -3 -18.5 -10t-18 -10.5t-16 -10t-15.5 -10.5t-13 -10
t-11.5 -11.5t-8 -12t-6 -13t-1.5 -14.5h-232zM1136 1808q-24 -175 -149 -281.5t-307 -106.5q-184 0 -311 106.5t-149 281.5h324q9 -58 45 -90t91 -32q54 0 88.5 32t43.5 90h324zM1356 0h-404l-58 208h-402l-56 -208h-406l442 1332h444zM690 930l-114 -418h232z" />
    <glyph glyph-name="uni1EB3" unicode="&#x1eb3;" horiz-adv-x="1182" 
d="M466 1576q0 53 28.5 89.5t77.5 70.5q33 22 47 32t29.5 28t15.5 34q0 30 -16.5 48t-43.5 18q-33 0 -53 -19t-21 -53h-262q9 141 92 207.5t248 66.5q143 0 228.5 -69.5t85.5 -184.5q0 -58 -31.5 -96.5t-84.5 -69.5q-6 -3 -18.5 -10t-18 -10.5t-16 -10t-15.5 -10.5t-13 -10
t-11.5 -11.5t-8 -12t-6 -13t-1.5 -14.5h-232zM1038 1520q-24 -175 -149 -281.5t-307 -106.5q-184 0 -311 106.5t-149 281.5h324q9 -58 45 -90t91 -32q54 0 88.5 32t43.5 90h324zM1092 646v-646h-390v128q-42 -75 -117 -115.5t-175 -40.5q-147 0 -244.5 95.5t-97.5 240.5
q0 307 328 328l236 14q38 3 54 16t16 40v4q0 33 -31.5 57.5t-74.5 24.5q-110 0 -122 -90h-398q12 162 153 259t365 97q227 0 362.5 -112.5t135.5 -299.5zM460 334q0 -35 30 -57.5t78 -22.5q55 0 94.5 35t39.5 85v42l-158 -6q-40 -1 -62 -21t-22 -55z" />
    <glyph glyph-name="uni1EB4" unicode="&#x1eb4;" horiz-adv-x="1386" 
d="M458 2274q20 0 40 -2t35 -4.5t33 -8t28 -9t27.5 -12t23.5 -11.5t24.5 -13t22.5 -12q63 -33 95 -38q12 -2 25 -2q56 0 87 26t31 72h210q0 -184 -78 -284t-222 -100q-42 0 -81 10.5t-60 20.5t-53 29q-4 3 -15.5 9.5t-16 9.5t-14.5 8.5t-16 7.5t-15 6t-16.5 5.5t-16.5 2.5
t-18 1q-45 0 -71.5 -27.5t-26.5 -74.5h-216q0 192 64.5 291t189.5 99zM1136 1808q-24 -175 -149 -281.5t-307 -106.5q-184 0 -311 106.5t-149 281.5h324q9 -58 45 -90t91 -32q54 0 88.5 32t43.5 90h324zM1356 0h-404l-58 208h-402l-56 -208h-406l442 1332h444zM690 930
l-114 -418h232z" />
    <glyph glyph-name="uni1EB5" unicode="&#x1eb5;" horiz-adv-x="1182" 
d="M360 1988q20 0 40 -2t35 -4.5t33 -8t28 -9t27.5 -12t23.5 -11.5t24.5 -13t22.5 -12q63 -33 95 -38q12 -2 25 -2q56 0 87 26t31 72h210q0 -184 -78 -284t-222 -100q-42 0 -81 10.5t-60 20.5t-53 29q-4 3 -15.5 9.5t-16 9.5t-14.5 8.5t-16 7.5t-15 6t-16.5 5.5t-16.5 2.5
t-18 1q-45 0 -71.5 -27.5t-26.5 -74.5h-216q0 192 64.5 291t189.5 99zM1038 1520q-24 -175 -149 -281.5t-307 -106.5q-184 0 -311 106.5t-149 281.5h324q9 -58 45 -90t91 -32q54 0 88.5 32t43.5 90h324zM1092 646v-646h-390v128q-42 -75 -117 -115.5t-175 -40.5
q-147 0 -244.5 95.5t-97.5 240.5q0 307 328 328l236 14q38 3 54 16t16 40v4q0 33 -31.5 57.5t-74.5 24.5q-110 0 -122 -90h-398q12 162 153 259t365 97q227 0 362.5 -112.5t135.5 -299.5zM460 334q0 -35 30 -57.5t78 -22.5q55 0 94.5 35t39.5 85v42l-158 -6q-40 -1 -62 -21
t-22 -55z" />
    <glyph glyph-name="uni1EB6" unicode="&#x1eb6;" horiz-adv-x="1386" 
d="M1136 1808q-24 -175 -149 -281.5t-307 -106.5q-184 0 -311 106.5t-149 281.5h324q9 -58 45 -90t91 -32q54 0 88.5 32t43.5 90h324zM1356 0h-404l-58 208h-402l-56 -208h-406l442 1332h444zM690 930l-114 -418h232zM480 -108h418v-302h-418v302z" />
    <glyph glyph-name="uni1EB7" unicode="&#x1eb7;" horiz-adv-x="1182" 
d="M1038 1520q-24 -175 -149 -281.5t-307 -106.5q-184 0 -311 106.5t-149 281.5h324q9 -58 45 -90t91 -32q54 0 88.5 32t43.5 90h324zM1092 646v-646h-390v128q-42 -75 -117 -115.5t-175 -40.5q-147 0 -244.5 95.5t-97.5 240.5q0 307 328 328l236 14q38 3 54 16t16 40v4
q0 33 -31.5 57.5t-74.5 24.5q-110 0 -122 -90h-398q12 162 153 259t365 97q227 0 362.5 -112.5t135.5 -299.5zM460 334q0 -35 30 -57.5t78 -22.5q55 0 94.5 35t39.5 85v42l-158 -6q-40 -1 -62 -21t-22 -55zM410 -108h418v-302h-418v302z" />
    <glyph glyph-name="uni1EB8" unicode="&#x1eb8;" horiz-adv-x="1146" 
d="M1076 1332v-366h-594v-112h536v-364h-536v-126h594v-364h-984v1332h984zM390 -108h418v-302h-418v302z" />
    <glyph glyph-name="uni1EB9" unicode="&#x1eb9;" horiz-adv-x="1226" 
d="M68 516q0 244 142.5 386t385.5 142q246 0 405 -155.5t159 -398.5v-68h-690q27 -146 142 -146q105 0 120 82h414q-52 -374 -538 -374q-249 0 -394.5 143t-145.5 389zM600 778q-93 0 -124 -114h266q-6 53 -44 83.5t-98 30.5zM410 -108h418v-302h-418v302z" />
    <glyph glyph-name="uni1EBA" unicode="&#x1eba;" horiz-adv-x="1146" 
d="M486 1434q0 53 28.5 89.5t77.5 70.5q33 22 47 32t29.5 28t15.5 34q0 30 -16.5 48t-43.5 18q-33 0 -53 -19t-21 -53h-262q9 141 92 207.5t248 66.5q143 0 228.5 -69.5t85.5 -184.5q0 -58 -31.5 -96.5t-84.5 -69.5q-6 -3 -18.5 -10t-18 -10.5t-16 -10t-15.5 -10.5t-13 -10
t-11.5 -11.5t-8 -12t-6 -13t-1.5 -14.5h-232zM1076 1332v-366h-594v-112h536v-364h-536v-126h594v-364h-984v1332h984z" />
    <glyph glyph-name="uni1EBB" unicode="&#x1ebb;" horiz-adv-x="1226" 
d="M486 1146q0 53 28.5 89.5t77.5 70.5q33 22 47 32t29.5 28t15.5 34q0 30 -16.5 48t-43.5 18q-33 0 -53 -19t-21 -53h-262q9 141 92 207.5t248 66.5q143 0 228.5 -69.5t85.5 -184.5q0 -58 -31.5 -96.5t-84.5 -69.5q-6 -3 -18.5 -10t-18 -10.5t-16 -10t-15.5 -10.5t-13 -10
t-11.5 -11.5t-8 -12t-6 -13t-1.5 -14.5h-232zM68 516q0 244 142.5 386t385.5 142q246 0 405 -155.5t159 -398.5v-68h-690q27 -146 142 -146q105 0 120 82h414q-52 -374 -538 -374q-249 0 -394.5 143t-145.5 389zM600 778q-93 0 -124 -114h266q-6 53 -44 83.5t-98 30.5z" />
    <glyph glyph-name="uni1EBC" unicode="&#x1ebc;" horiz-adv-x="1146" 
d="M380 1824q20 0 40 -2t35 -4.5t33 -8t28 -9t27.5 -12t23.5 -11.5t24.5 -13t22.5 -12q63 -33 95 -38q12 -2 25 -2q56 0 87 26t31 72h210q0 -184 -78 -284t-222 -100q-42 0 -81 10.5t-60 20.5t-53 29q-4 3 -15.5 9.5t-16 9.5t-14.5 8.5t-16 7.5t-15 6t-16.5 5.5t-16.5 2.5
t-18 1q-45 0 -71.5 -27.5t-26.5 -74.5h-216q0 192 64.5 291t189.5 99zM1076 1332v-366h-594v-112h536v-364h-536v-126h594v-364h-984v1332h984z" />
    <glyph glyph-name="uni1EBD" unicode="&#x1ebd;" horiz-adv-x="1226" 
d="M380 1536q20 0 40 -2t35 -4.5t33 -8t28 -9t27.5 -12t23.5 -11.5t24.5 -13t22.5 -12q63 -33 95 -38q12 -2 25 -2q56 0 87 26t31 72h210q0 -184 -78 -284t-222 -100q-42 0 -81 10.5t-60 20.5t-53 29q-4 3 -15.5 9.5t-16 9.5t-14.5 8.5t-16 7.5t-15 6t-16.5 5.5t-16.5 2.5
t-18 1q-45 0 -71.5 -27.5t-26.5 -74.5h-216q0 192 64.5 291t189.5 99zM68 516q0 244 142.5 386t385.5 142q246 0 405 -155.5t159 -398.5v-68h-690q27 -146 142 -146q105 0 120 82h414q-52 -374 -538 -374q-249 0 -394.5 143t-145.5 389zM600 778q-93 0 -124 -114h266
q-6 53 -44 83.5t-98 30.5z" />
    <glyph glyph-name="uni1EBE" unicode="&#x1ebe;" horiz-adv-x="1146" 
d="M1600 2048l-328 -410h-308l206 410h430zM414 1844h370l286 -410h-348l-122 218l-124 -218h-348zM1076 1332v-366h-594v-112h536v-364h-536v-126h594v-364h-984v1332h984z" />
    <glyph glyph-name="uni1EBF" unicode="&#x1ebf;" horiz-adv-x="1226" 
d="M1576 1802l-328 -410h-308l206 410h430zM414 1556h370l286 -410h-348l-122 218l-124 -218h-348zM68 516q0 244 142.5 386t385.5 142q246 0 405 -155.5t159 -398.5v-68h-690q27 -146 142 -146q105 0 120 82h414q-52 -374 -538 -374q-249 0 -394.5 143t-145.5 389zM600 778
q-93 0 -124 -114h266q-6 53 -44 83.5t-98 30.5z" />
    <glyph glyph-name="uni1EC0" unicode="&#x1ec0;" horiz-adv-x="1146" 
d="M758 2048h430l204 -410h-306zM414 1844h370l286 -410h-348l-122 218l-124 -218h-348zM1076 1332v-366h-594v-112h536v-364h-536v-126h594v-364h-984v1332h984z" />
    <glyph glyph-name="uni1EC1" unicode="&#x1ec1;" horiz-adv-x="1226" 
d="M726 1802h430l204 -410h-306zM414 1556h370l286 -410h-348l-122 218l-124 -218h-348zM68 516q0 244 142.5 386t385.5 142q246 0 405 -155.5t159 -398.5v-68h-690q27 -146 142 -146q105 0 120 82h414q-52 -374 -538 -374q-249 0 -394.5 143t-145.5 389zM600 778
q-93 0 -124 -114h266q-6 53 -44 83.5t-98 30.5z" />
    <glyph glyph-name="uni1EC2" unicode="&#x1ec2;" horiz-adv-x="1146" 
d="M1000 1642q0 53 28.5 89.5t77.5 70.5q33 22 47 32t29.5 28t15.5 34q0 30 -16.5 48t-43.5 18q-33 0 -53 -19t-21 -53h-262q9 141 92 207.5t248 66.5q143 0 228.5 -69.5t85.5 -184.5q0 -58 -31.5 -96.5t-84.5 -69.5q-6 -3 -18.5 -10t-18 -10.5t-16 -10t-15.5 -10.5t-13 -10
t-11.5 -11.5t-8 -12t-6 -13t-1.5 -14.5h-232zM414 1844h370l286 -410h-348l-122 218l-124 -218h-348zM1076 1332v-366h-594v-112h536v-364h-536v-126h594v-364h-984v1332h984z" />
    <glyph glyph-name="uni1EC3" unicode="&#x1ec3;" horiz-adv-x="1226" 
d="M972 1394q0 53 28.5 89.5t77.5 70.5q33 22 47 32t29.5 28t15.5 34q0 30 -16.5 48t-43.5 18q-33 0 -53 -19t-21 -53h-262q9 141 92 207.5t248 66.5q143 0 228.5 -69.5t85.5 -184.5q0 -58 -31.5 -96.5t-84.5 -69.5q-6 -3 -18.5 -10t-18 -10.5t-16 -10t-15.5 -10.5t-13 -10
t-11.5 -11.5t-8 -12t-6 -13t-1.5 -14.5h-232zM414 1556h370l286 -410h-348l-122 218l-124 -218h-348zM68 516q0 244 142.5 386t385.5 142q246 0 405 -155.5t159 -398.5v-68h-690q27 -146 142 -146q105 0 120 82h414q-52 -374 -538 -374q-249 0 -394.5 143t-145.5 389z
M600 778q-93 0 -124 -114h266q-6 53 -44 83.5t-98 30.5z" />
    <glyph glyph-name="uni1EC4" unicode="&#x1ec4;" horiz-adv-x="1146" 
d="M386 2324q20 0 40 -2t35 -4.5t33 -8t28 -9t27.5 -12t23.5 -11.5t24.5 -13t22.5 -12q63 -33 95 -38q12 -2 25 -2q56 0 87 26t31 72h210q0 -184 -78 -284t-222 -100q-42 0 -81 10.5t-60 20.5t-53 29q-4 3 -15.5 9.5t-16 9.5t-14.5 8.5t-16 7.5t-15 6t-16.5 5.5t-16.5 2.5
t-18 1q-45 0 -71.5 -27.5t-26.5 -74.5h-216q0 192 64.5 291t189.5 99zM414 1844h370l286 -410h-348l-122 218l-124 -218h-348zM1076 1332v-366h-594v-112h536v-364h-536v-126h594v-364h-984v1332h984z" />
    <glyph glyph-name="uni1EC5" unicode="&#x1ec5;" horiz-adv-x="1226" 
d="M386 2036q20 0 40 -2t35 -4.5t33 -8t28 -9t27.5 -12t23.5 -11.5t24.5 -13t22.5 -12q63 -33 95 -38q12 -2 25 -2q56 0 87 26t31 72h210q0 -184 -78 -284t-222 -100q-42 0 -81 10.5t-60 20.5t-53 29q-4 3 -15.5 9.5t-16 9.5t-14.5 8.5t-16 7.5t-15 6t-16.5 5.5t-16.5 2.5
t-18 1q-45 0 -71.5 -27.5t-26.5 -74.5h-216q0 192 64.5 291t189.5 99zM414 1556h370l286 -410h-348l-122 218l-124 -218h-348zM68 516q0 244 142.5 386t385.5 142q246 0 405 -155.5t159 -398.5v-68h-690q27 -146 142 -146q105 0 120 82h414q-52 -374 -538 -374
q-249 0 -394.5 143t-145.5 389zM600 778q-93 0 -124 -114h266q-6 53 -44 83.5t-98 30.5z" />
    <glyph glyph-name="uni1EC6" unicode="&#x1ec6;" horiz-adv-x="1146" 
d="M414 1844h370l286 -410h-348l-122 218l-124 -218h-348zM1076 1332v-366h-594v-112h536v-364h-536v-126h594v-364h-984v1332h984zM390 -108h418v-302h-418v302z" />
    <glyph glyph-name="uni1EC7" unicode="&#x1ec7;" horiz-adv-x="1226" 
d="M414 1556h370l286 -410h-348l-122 218l-124 -218h-348zM68 516q0 244 142.5 386t385.5 142q246 0 405 -155.5t159 -398.5v-68h-690q27 -146 142 -146q105 0 120 82h414q-52 -374 -538 -374q-249 0 -394.5 143t-145.5 389zM600 778q-93 0 -124 -114h266q-6 53 -44 83.5
t-98 30.5zM410 -108h418v-302h-418v302z" />
    <glyph glyph-name="uni1EC8" unicode="&#x1ec8;" 
d="M166 1434q0 53 28.5 89.5t77.5 70.5q33 22 47 32t29.5 28t15.5 34q0 30 -16.5 48t-43.5 18q-33 0 -53 -19t-21 -53h-262q9 141 92 207.5t248 66.5q143 0 228.5 -69.5t85.5 -184.5q0 -58 -31.5 -96.5t-84.5 -69.5q-6 -3 -18.5 -10t-18 -10.5t-16 -10t-15.5 -10.5t-13 -10
t-11.5 -11.5t-8 -12t-6 -13t-1.5 -14.5h-232zM88 1332h390v-1332h-390v1332z" />
    <glyph glyph-name="uni1EC9" unicode="&#x1ec9;" 
d="M168 1146q0 53 28.5 89.5t77.5 70.5q33 22 47 32t29.5 28t15.5 34q0 30 -16.5 48t-43.5 18q-33 0 -53 -19t-21 -53h-262q9 141 92 207.5t248 66.5q143 0 228.5 -69.5t85.5 -184.5q0 -58 -31.5 -96.5t-84.5 -69.5q-6 -3 -18.5 -10t-18 -10.5t-16 -10t-15.5 -10.5t-13 -10
t-11.5 -11.5t-8 -12t-6 -13t-1.5 -14.5h-232zM88 1024h390v-1024h-390v1024z" />
    <glyph glyph-name="uni1ECA" unicode="&#x1eca;" 
d="M88 1332h390v-1332h-390v1332zM70 -108h418v-302h-418v302z" />
    <glyph glyph-name="uni1ECB" unicode="&#x1ecb;" 
d="M74 1434h418v-302h-418v302zM88 1024h390v-1024h-390v1024zM78 -108h418v-302h-418v302z" />
    <glyph glyph-name="uni1ECC" unicode="&#x1ecc;" horiz-adv-x="1442" 
d="M72 650q0 317 178 509.5t472 192.5q293 0 471.5 -193t178.5 -509q0 -300 -178.5 -483t-471.5 -183q-294 0 -472 183t-178 483zM976 650q0 168 -67 261t-187 93q-121 0 -188.5 -93t-67.5 -261q0 -150 67.5 -234t188.5 -84q120 0 187 84t67 234zM482 -108h418v-302h-418
v302z" />
    <glyph glyph-name="uni1ECD" unicode="&#x1ecd;" horiz-adv-x="1230" 
d="M68 516q0 248 150 398t398 150q246 0 397 -150.5t151 -397.5q0 -249 -151 -400.5t-397 -151.5q-247 0 -397.5 151.5t-150.5 400.5zM768 516q0 105 -40.5 163.5t-111.5 58.5q-72 0 -113 -58.5t-41 -163.5q0 -107 41 -166.5t113 -59.5q71 0 111.5 59.5t40.5 166.5z
M400 -108h418v-302h-418v302z" />
    <glyph glyph-name="uni1ECE" unicode="&#x1ece;" horiz-adv-x="1442" 
d="M578 1434q0 53 28.5 89.5t77.5 70.5q33 22 47 32t29.5 28t15.5 34q0 30 -16.5 48t-43.5 18q-33 0 -53 -19t-21 -53h-262q9 141 92 207.5t248 66.5q143 0 228.5 -69.5t85.5 -184.5q0 -58 -31.5 -96.5t-84.5 -69.5q-6 -3 -18.5 -10t-18 -10.5t-16 -10t-15.5 -10.5t-13 -10
t-11.5 -11.5t-8 -12t-6 -13t-1.5 -14.5h-232zM72 650q0 317 178 509.5t472 192.5q293 0 471.5 -193t178.5 -509q0 -300 -178.5 -483t-471.5 -183q-294 0 -472 183t-178 483zM976 650q0 168 -67 261t-187 93q-121 0 -188.5 -93t-67.5 -261q0 -150 67.5 -234t188.5 -84
q120 0 187 84t67 234z" />
    <glyph glyph-name="uni1ECF" unicode="&#x1ecf;" horiz-adv-x="1230" 
d="M492 1146q0 53 28.5 89.5t77.5 70.5q33 22 47 32t29.5 28t15.5 34q0 30 -16.5 48t-43.5 18q-33 0 -53 -19t-21 -53h-262q9 141 92 207.5t248 66.5q143 0 228.5 -69.5t85.5 -184.5q0 -58 -31.5 -96.5t-84.5 -69.5q-6 -3 -18.5 -10t-18 -10.5t-16 -10t-15.5 -10.5t-13 -10
t-11.5 -11.5t-8 -12t-6 -13t-1.5 -14.5h-232zM68 516q0 248 150 398t398 150q246 0 397 -150.5t151 -397.5q0 -249 -151 -400.5t-397 -151.5q-247 0 -397.5 151.5t-150.5 400.5zM768 516q0 105 -40.5 163.5t-111.5 58.5q-72 0 -113 -58.5t-41 -163.5q0 -107 41 -166.5
t113 -59.5q71 0 111.5 59.5t40.5 166.5z" />
    <glyph glyph-name="uni1ED0" unicode="&#x1ed0;" horiz-adv-x="1442" 
d="M1702 2048l-328 -410h-308l206 410h430zM528 1844h370l286 -410h-348l-122 218l-124 -218h-348zM72 650q0 317 178 509.5t472 192.5q293 0 471.5 -193t178.5 -509q0 -300 -178.5 -483t-471.5 -183q-294 0 -472 183t-178 483zM976 650q0 168 -67 261t-187 93
q-121 0 -188.5 -93t-67.5 -261q0 -150 67.5 -234t188.5 -84q120 0 187 84t67 234z" />
    <glyph glyph-name="uni1ED1" unicode="&#x1ed1;" horiz-adv-x="1230" 
d="M1592 1802l-328 -410h-308l206 410h430zM420 1556h370l286 -410h-348l-122 218l-124 -218h-348zM68 516q0 248 150 398t398 150q246 0 397 -150.5t151 -397.5q0 -249 -151 -400.5t-397 -151.5q-247 0 -397.5 151.5t-150.5 400.5zM768 516q0 105 -40.5 163.5t-111.5 58.5
q-72 0 -113 -58.5t-41 -163.5q0 -107 41 -166.5t113 -59.5q71 0 111.5 59.5t40.5 166.5z" />
    <glyph glyph-name="uni1ED2" unicode="&#x1ed2;" horiz-adv-x="1442" 
d="M870 2048h430l204 -410h-306zM528 1844h370l286 -410h-348l-122 218l-124 -218h-348zM72 650q0 317 178 509.5t472 192.5q293 0 471.5 -193t178.5 -509q0 -300 -178.5 -483t-471.5 -183q-294 0 -472 183t-178 483zM976 650q0 168 -67 261t-187 93q-121 0 -188.5 -93
t-67.5 -261q0 -150 67.5 -234t188.5 -84q120 0 187 84t67 234z" />
    <glyph glyph-name="uni1ED3" unicode="&#x1ed3;" horiz-adv-x="1230" 
d="M716 1802h430l204 -410h-306zM420 1556h370l286 -410h-348l-122 218l-124 -218h-348zM68 516q0 248 150 398t398 150q246 0 397 -150.5t151 -397.5q0 -249 -151 -400.5t-397 -151.5q-247 0 -397.5 151.5t-150.5 400.5zM768 516q0 105 -40.5 163.5t-111.5 58.5
q-72 0 -113 -58.5t-41 -163.5q0 -107 41 -166.5t113 -59.5q71 0 111.5 59.5t40.5 166.5z" />
    <glyph glyph-name="uni1ED4" unicode="&#x1ed4;" horiz-adv-x="1442" 
d="M1088 1638q0 53 28.5 89.5t77.5 70.5q33 22 47 32t29.5 28t15.5 34q0 30 -16.5 48t-43.5 18q-33 0 -53 -19t-21 -53h-262q9 141 92 207.5t248 66.5q143 0 228.5 -69.5t85.5 -184.5q0 -58 -31.5 -96.5t-84.5 -69.5q-6 -3 -18.5 -10t-18 -10.5t-16 -10t-15.5 -10.5t-13 -10
t-11.5 -11.5t-8 -12t-6 -13t-1.5 -14.5h-232zM528 1844h370l286 -410h-348l-122 218l-124 -218h-348zM72 650q0 317 178 509.5t472 192.5q293 0 471.5 -193t178.5 -509q0 -300 -178.5 -483t-471.5 -183q-294 0 -472 183t-178 483zM976 650q0 168 -67 261t-187 93
q-121 0 -188.5 -93t-67.5 -261q0 -150 67.5 -234t188.5 -84q120 0 187 84t67 234z" />
    <glyph glyph-name="uni1ED5" unicode="&#x1ed5;" horiz-adv-x="1230" 
d="M982 1394q0 53 28.5 89.5t77.5 70.5q33 22 47 32t29.5 28t15.5 34q0 30 -16.5 48t-43.5 18q-33 0 -53 -19t-21 -53h-262q9 141 92 207.5t248 66.5q143 0 228.5 -69.5t85.5 -184.5q0 -58 -31.5 -96.5t-84.5 -69.5q-6 -3 -18.5 -10t-18 -10.5t-16 -10t-15.5 -10.5t-13 -10
t-11.5 -11.5t-8 -12t-6 -13t-1.5 -14.5h-232zM420 1556h370l286 -410h-348l-122 218l-124 -218h-348zM68 516q0 248 150 398t398 150q246 0 397 -150.5t151 -397.5q0 -249 -151 -400.5t-397 -151.5q-247 0 -397.5 151.5t-150.5 400.5zM768 516q0 105 -40.5 163.5
t-111.5 58.5q-72 0 -113 -58.5t-41 -163.5q0 -107 41 -166.5t113 -59.5q71 0 111.5 59.5t40.5 166.5z" />
    <glyph glyph-name="uni1ED6" unicode="&#x1ed6;" horiz-adv-x="1442" 
d="M478 2324q20 0 40 -2t35 -4.5t33 -8t28 -9t27.5 -12t23.5 -11.5t24.5 -13t22.5 -12q63 -33 95 -38q12 -2 25 -2q56 0 87 26t31 72h210q0 -184 -78 -284t-222 -100q-42 0 -81 10.5t-60 20.5t-53 29q-4 3 -15.5 9.5t-16 9.5t-14.5 8.5t-16 7.5t-15 6t-16.5 5.5t-16.5 2.5
t-18 1q-45 0 -71.5 -27.5t-26.5 -74.5h-216q0 192 64.5 291t189.5 99zM528 1844h370l286 -410h-348l-122 218l-124 -218h-348zM72 650q0 317 178 509.5t472 192.5q293 0 471.5 -193t178.5 -509q0 -300 -178.5 -483t-471.5 -183q-294 0 -472 183t-178 483zM976 650
q0 168 -67 261t-187 93q-121 0 -188.5 -93t-67.5 -261q0 -150 67.5 -234t188.5 -84q120 0 187 84t67 234z" />
    <glyph glyph-name="uni1ED7" unicode="&#x1ed7;" horiz-adv-x="1230" 
d="M392 2036q20 0 40 -2t35 -4.5t33 -8t28 -9t27.5 -12t23.5 -11.5t24.5 -13t22.5 -12q63 -33 95 -38q12 -2 25 -2q56 0 87 26t31 72h210q0 -184 -78 -284t-222 -100q-42 0 -81 10.5t-60 20.5t-53 29q-4 3 -15.5 9.5t-16 9.5t-14.5 8.5t-16 7.5t-15 6t-16.5 5.5t-16.5 2.5
t-18 1q-45 0 -71.5 -27.5t-26.5 -74.5h-216q0 192 64.5 291t189.5 99zM420 1556h370l286 -410h-348l-122 218l-124 -218h-348zM68 516q0 248 150 398t398 150q246 0 397 -150.5t151 -397.5q0 -249 -151 -400.5t-397 -151.5q-247 0 -397.5 151.5t-150.5 400.5zM768 516
q0 105 -40.5 163.5t-111.5 58.5q-72 0 -113 -58.5t-41 -163.5q0 -107 41 -166.5t113 -59.5q71 0 111.5 59.5t40.5 166.5z" />
    <glyph glyph-name="uni1ED8" unicode="&#x1ed8;" horiz-adv-x="1442" 
d="M506 1844h370l286 -410h-348l-122 218l-124 -218h-348zM72 650q0 317 178 509.5t472 192.5q293 0 471.5 -193t178.5 -509q0 -300 -178.5 -483t-471.5 -183q-294 0 -472 183t-178 483zM976 650q0 168 -67 261t-187 93q-121 0 -188.5 -93t-67.5 -261q0 -150 67.5 -234
t188.5 -84q120 0 187 84t67 234zM482 -108h418v-302h-418v302z" />
    <glyph glyph-name="uni1ED9" unicode="&#x1ed9;" horiz-adv-x="1230" 
d="M420 1556h370l286 -410h-348l-122 218l-124 -218h-348zM68 516q0 248 150 398t398 150q246 0 397 -150.5t151 -397.5q0 -249 -151 -400.5t-397 -151.5q-247 0 -397.5 151.5t-150.5 400.5zM768 516q0 105 -40.5 163.5t-111.5 58.5q-72 0 -113 -58.5t-41 -163.5
q0 -107 41 -166.5t113 -59.5q71 0 111.5 59.5t40.5 166.5zM400 -108h418v-302h-418v302z" />
    <glyph glyph-name="uni1EDA" unicode="&#x1eda;" horiz-adv-x="1442" 
d="M1138 1844l-328 -410h-308l206 410h430zM72 650q0 317 178 509.5t472 192.5q92 0 180 -22v2h206q49 0 75.5 24.5t26.5 89.5v136h288v-148q0 -136 -80.5 -208.5t-203.5 -89.5q158 -193 158 -486q0 -300 -178.5 -483t-471.5 -183q-294 0 -472 183t-178 483zM976 650
q0 168 -67 261t-187 93q-121 0 -188.5 -93t-67.5 -261q0 -150 67.5 -234t188.5 -84q120 0 187 84t67 234z" />
    <glyph glyph-name="uni1EDB" unicode="&#x1edb;" horiz-adv-x="1296" 
d="M1052 1556l-328 -410h-308l206 410h430zM68 516q0 248 150 398t398 150q121 0 226 -40h102q49 0 75.5 24.5t26.5 89.5v136h288v-148q0 -128 -71.5 -199t-184.5 -93q86 -132 86 -318q0 -249 -151 -400.5t-397 -151.5q-247 0 -397.5 151.5t-150.5 400.5zM768 516
q0 105 -40.5 163.5t-111.5 58.5q-72 0 -113 -58.5t-41 -163.5q0 -107 41 -166.5t113 -59.5q71 0 111.5 59.5t40.5 166.5z" />
    <glyph glyph-name="uni1EDC" unicode="&#x1edc;" horiz-adv-x="1442" 
d="M282 1844h430l204 -410h-306zM72 650q0 317 178 509.5t472 192.5q92 0 180 -22v2h206q49 0 75.5 24.5t26.5 89.5v136h288v-148q0 -136 -80.5 -208.5t-203.5 -89.5q158 -193 158 -486q0 -300 -178.5 -483t-471.5 -183q-294 0 -472 183t-178 483zM976 650q0 168 -67 261
t-187 93q-121 0 -188.5 -93t-67.5 -261q0 -150 67.5 -234t188.5 -84q120 0 187 84t67 234z" />
    <glyph glyph-name="uni1EDD" unicode="&#x1edd;" horiz-adv-x="1296" 
d="M196 1556h430l204 -410h-306zM68 516q0 248 150 398t398 150q121 0 226 -40h102q49 0 75.5 24.5t26.5 89.5v136h288v-148q0 -128 -71.5 -199t-184.5 -93q86 -132 86 -318q0 -249 -151 -400.5t-397 -151.5q-247 0 -397.5 151.5t-150.5 400.5zM768 516q0 105 -40.5 163.5
t-111.5 58.5q-72 0 -113 -58.5t-41 -163.5q0 -107 41 -166.5t113 -59.5q71 0 111.5 59.5t40.5 166.5z" />
    <glyph glyph-name="uni1EDE" unicode="&#x1ede;" horiz-adv-x="1442" 
d="M578 1434q0 53 28.5 89.5t77.5 70.5q33 22 47 32t29.5 28t15.5 34q0 30 -16.5 48t-43.5 18q-33 0 -53 -19t-21 -53h-262q9 141 92 207.5t248 66.5q143 0 228.5 -69.5t85.5 -184.5q0 -58 -31.5 -96.5t-84.5 -69.5q-6 -3 -18.5 -10t-18 -10.5t-16 -10t-15.5 -10.5t-13 -10
t-11.5 -11.5t-8 -12t-6 -13t-1.5 -14.5h-232zM72 650q0 317 178 509.5t472 192.5q92 0 180 -22v2h206q49 0 75.5 24.5t26.5 89.5v136h288v-148q0 -136 -80.5 -208.5t-203.5 -89.5q158 -193 158 -486q0 -300 -178.5 -483t-471.5 -183q-294 0 -472 183t-178 483zM976 650
q0 168 -67 261t-187 93q-121 0 -188.5 -93t-67.5 -261q0 -150 67.5 -234t188.5 -84q120 0 187 84t67 234z" />
    <glyph glyph-name="uni1EDF" unicode="&#x1edf;" horiz-adv-x="1296" 
d="M492 1146q0 53 28.5 89.5t77.5 70.5q33 22 47 32t29.5 28t15.5 34q0 30 -16.5 48t-43.5 18q-33 0 -53 -19t-21 -53h-262q9 141 92 207.5t248 66.5q143 0 228.5 -69.5t85.5 -184.5q0 -58 -31.5 -96.5t-84.5 -69.5q-6 -3 -18.5 -10t-18 -10.5t-16 -10t-15.5 -10.5t-13 -10
t-11.5 -11.5t-8 -12t-6 -13t-1.5 -14.5h-232zM68 516q0 248 150 398t398 150q121 0 226 -40h102q49 0 75.5 24.5t26.5 89.5v136h288v-148q0 -128 -71.5 -199t-184.5 -93q86 -132 86 -318q0 -249 -151 -400.5t-397 -151.5q-247 0 -397.5 151.5t-150.5 400.5zM768 516
q0 105 -40.5 163.5t-111.5 58.5q-72 0 -113 -58.5t-41 -163.5q0 -107 41 -166.5t113 -59.5q71 0 111.5 59.5t40.5 166.5z" />
    <glyph glyph-name="uni1EE0" unicode="&#x1ee0;" horiz-adv-x="1442" 
d="M472 1824q20 0 40 -2t35 -4.5t33 -8t28 -9t27.5 -12t23.5 -11.5t24.5 -13t22.5 -12q63 -33 95 -38q12 -2 25 -2q56 0 87 26t31 72h210q0 -184 -78 -284t-222 -100q-42 0 -81 10.5t-60 20.5t-53 29q-4 3 -15.5 9.5t-16 9.5t-14.5 8.5t-16 7.5t-15 6t-16.5 5.5t-16.5 2.5
t-18 1q-45 0 -71.5 -27.5t-26.5 -74.5h-216q0 192 64.5 291t189.5 99zM72 650q0 317 178 509.5t472 192.5q92 0 180 -22v2h206q49 0 75.5 24.5t26.5 89.5v136h288v-148q0 -136 -80.5 -208.5t-203.5 -89.5q158 -193 158 -486q0 -300 -178.5 -483t-471.5 -183q-294 0 -472 183
t-178 483zM976 650q0 168 -67 261t-187 93q-121 0 -188.5 -93t-67.5 -261q0 -150 67.5 -234t188.5 -84q120 0 187 84t67 234z" />
    <glyph glyph-name="uni1EE1" unicode="&#x1ee1;" horiz-adv-x="1296" 
d="M386 1536q20 0 40 -2t35 -4.5t33 -8t28 -9t27.5 -12t23.5 -11.5t24.5 -13t22.5 -12q63 -33 95 -38q12 -2 25 -2q56 0 87 26t31 72h210q0 -184 -78 -284t-222 -100q-42 0 -81 10.5t-60 20.5t-53 29q-4 3 -15.5 9.5t-16 9.5t-14.5 8.5t-16 7.5t-15 6t-16.5 5.5t-16.5 2.5
t-18 1q-45 0 -71.5 -27.5t-26.5 -74.5h-216q0 192 64.5 291t189.5 99zM68 516q0 248 150 398t398 150q121 0 226 -40h102q49 0 75.5 24.5t26.5 89.5v136h288v-148q0 -128 -71.5 -199t-184.5 -93q86 -132 86 -318q0 -249 -151 -400.5t-397 -151.5q-247 0 -397.5 151.5
t-150.5 400.5zM768 516q0 105 -40.5 163.5t-111.5 58.5q-72 0 -113 -58.5t-41 -163.5q0 -107 41 -166.5t113 -59.5q71 0 111.5 59.5t40.5 166.5z" />
    <glyph glyph-name="uni1EE2" unicode="&#x1ee2;" horiz-adv-x="1442" 
d="M72 650q0 317 178 509.5t472 192.5q92 0 180 -22v2h206q49 0 75.5 24.5t26.5 89.5v136h288v-148q0 -136 -80.5 -208.5t-203.5 -89.5q158 -193 158 -486q0 -300 -178.5 -483t-471.5 -183q-294 0 -472 183t-178 483zM976 650q0 168 -67 261t-187 93q-121 0 -188.5 -93
t-67.5 -261q0 -150 67.5 -234t188.5 -84q120 0 187 84t67 234zM482 -108h418v-302h-418v302z" />
    <glyph glyph-name="uni1EE3" unicode="&#x1ee3;" horiz-adv-x="1296" 
d="M68 516q0 248 150 398t398 150q121 0 226 -40h102q49 0 75.5 24.5t26.5 89.5v136h288v-148q0 -128 -71.5 -199t-184.5 -93q86 -132 86 -318q0 -249 -151 -400.5t-397 -151.5q-247 0 -397.5 151.5t-150.5 400.5zM768 516q0 105 -40.5 163.5t-111.5 58.5q-72 0 -113 -58.5
t-41 -163.5q0 -107 41 -166.5t113 -59.5q71 0 111.5 59.5t40.5 166.5zM400 -108h418v-302h-418v302z" />
    <glyph glyph-name="uni1EE4" unicode="&#x1ee4;" horiz-adv-x="1308" 
d="M82 1332h390v-806q0 -83 51.5 -128.5t144.5 -45.5q81 0 125.5 45.5t44.5 128.5v806h388v-806q0 -244 -153.5 -393t-404.5 -149q-264 0 -425 149t-161 393v806zM452 -108h418v-302h-418v302z" />
    <glyph glyph-name="uni1EE5" unicode="&#x1ee5;" horiz-adv-x="1220" 
d="M478 450q0 -142 136 -142q56 0 93 36.5t37 93.5v586h388v-1024h-388v138q-55 -84 -134.5 -131t-161.5 -47q-161 0 -260.5 107.5t-99.5 300.5v656h390v-574zM412 -108h418v-302h-418v302z" />
    <glyph glyph-name="uni1EE6" unicode="&#x1ee6;" horiz-adv-x="1308" 
d="M520 1434q0 53 28.5 89.5t77.5 70.5q33 22 47 32t29.5 28t15.5 34q0 30 -16.5 48t-43.5 18q-33 0 -53 -19t-21 -53h-262q9 141 92 207.5t248 66.5q143 0 228.5 -69.5t85.5 -184.5q0 -58 -31.5 -96.5t-84.5 -69.5q-6 -3 -18.5 -10t-18 -10.5t-16 -10t-15.5 -10.5t-13 -10
t-11.5 -11.5t-8 -12t-6 -13t-1.5 -14.5h-232zM82 1332h390v-806q0 -83 51.5 -128.5t144.5 -45.5q81 0 125.5 45.5t44.5 128.5v806h388v-806q0 -244 -153.5 -393t-404.5 -149q-264 0 -425 149t-161 393v806z" />
    <glyph glyph-name="uni1EE7" unicode="&#x1ee7;" horiz-adv-x="1220" 
d="M484 1146q0 53 28.5 89.5t77.5 70.5q33 22 47 32t29.5 28t15.5 34q0 30 -16.5 48t-43.5 18q-33 0 -53 -19t-21 -53h-262q9 141 92 207.5t248 66.5q143 0 228.5 -69.5t85.5 -184.5q0 -58 -31.5 -96.5t-84.5 -69.5q-6 -3 -18.5 -10t-18 -10.5t-16 -10t-15.5 -10.5t-13 -10
t-11.5 -11.5t-8 -12t-6 -13t-1.5 -14.5h-232zM478 450q0 -142 136 -142q56 0 93 36.5t37 93.5v586h388v-1024h-388v138q-55 -84 -134.5 -131t-161.5 -47q-161 0 -260.5 107.5t-99.5 300.5v656h390v-574z" />
    <glyph glyph-name="uni1EE8" unicode="&#x1ee8;" horiz-adv-x="1390" 
d="M1080 1844l-328 -410h-308l206 410h430zM82 1332h390v-806q0 -83 51.5 -128.5t144.5 -45.5q81 0 125.5 45.5t44.5 128.5v806h234q74 10 74 112v136h288v-148q0 -215 -208 -280v-626q0 -244 -153.5 -393t-404.5 -149q-264 0 -425 149t-161 393v806z" />
    <glyph glyph-name="uni1EE9" unicode="&#x1ee9;" horiz-adv-x="1310" 
d="M1044 1556l-328 -410h-308l206 410h430zM478 450q0 -142 136 -142q56 0 93 36.5t37 93.5v586h206q49 0 75.5 24.5t26.5 89.5v136h288v-148q0 -215 -208 -280v-846h-388v138q-55 -84 -134.5 -131t-161.5 -47q-161 0 -260.5 107.5t-99.5 300.5v656h390v-574z" />
    <glyph glyph-name="uni1EEA" unicode="&#x1eea;" horiz-adv-x="1390" 
d="M224 1844h430l204 -410h-306zM82 1332h390v-806q0 -83 51.5 -128.5t144.5 -45.5q81 0 125.5 45.5t44.5 128.5v806h234q74 10 74 112v136h288v-148q0 -215 -208 -280v-626q0 -244 -153.5 -393t-404.5 -149q-264 0 -425 149t-161 393v806z" />
    <glyph glyph-name="uni1EEB" unicode="&#x1eeb;" horiz-adv-x="1310" 
d="M188 1556h430l204 -410h-306zM478 450q0 -142 136 -142q56 0 93 36.5t37 93.5v586h206q49 0 75.5 24.5t26.5 89.5v136h288v-148q0 -215 -208 -280v-846h-388v138q-55 -84 -134.5 -131t-161.5 -47q-161 0 -260.5 107.5t-99.5 300.5v656h390v-574z" />
    <glyph glyph-name="uni1EEC" unicode="&#x1eec;" horiz-adv-x="1390" 
d="M520 1434q0 53 28.5 89.5t77.5 70.5q33 22 47 32t29.5 28t15.5 34q0 30 -16.5 48t-43.5 18q-33 0 -53 -19t-21 -53h-262q9 141 92 207.5t248 66.5q143 0 228.5 -69.5t85.5 -184.5q0 -58 -31.5 -96.5t-84.5 -69.5q-6 -3 -18.5 -10t-18 -10.5t-16 -10t-15.5 -10.5t-13 -10
t-11.5 -11.5t-8 -12t-6 -13t-1.5 -14.5h-232zM82 1332h390v-806q0 -83 51.5 -128.5t144.5 -45.5q81 0 125.5 45.5t44.5 128.5v806h234q74 10 74 112v136h288v-148q0 -215 -208 -280v-626q0 -244 -153.5 -393t-404.5 -149q-264 0 -425 149t-161 393v806z" />
    <glyph glyph-name="uni1EED" unicode="&#x1eed;" horiz-adv-x="1310" 
d="M484 1146q0 53 28.5 89.5t77.5 70.5q33 22 47 32t29.5 28t15.5 34q0 30 -16.5 48t-43.5 18q-33 0 -53 -19t-21 -53h-262q9 141 92 207.5t248 66.5q143 0 228.5 -69.5t85.5 -184.5q0 -58 -31.5 -96.5t-84.5 -69.5q-6 -3 -18.5 -10t-18 -10.5t-16 -10t-15.5 -10.5t-13 -10
t-11.5 -11.5t-8 -12t-6 -13t-1.5 -14.5h-232zM478 450q0 -142 136 -142q56 0 93 36.5t37 93.5v586h206q49 0 75.5 24.5t26.5 89.5v136h288v-148q0 -215 -208 -280v-846h-388v138q-55 -84 -134.5 -131t-161.5 -47q-161 0 -260.5 107.5t-99.5 300.5v656h390v-574z" />
    <glyph glyph-name="uni1EEE" unicode="&#x1eee;" horiz-adv-x="1390" 
d="M414 1824q20 0 40 -2t35 -4.5t33 -8t28 -9t27.5 -12t23.5 -11.5t24.5 -13t22.5 -12q63 -33 95 -38q12 -2 25 -2q56 0 87 26t31 72h210q0 -184 -78 -284t-222 -100q-42 0 -81 10.5t-60 20.5t-53 29q-4 3 -15.5 9.5t-16 9.5t-14.5 8.5t-16 7.5t-15 6t-16.5 5.5t-16.5 2.5
t-18 1q-45 0 -71.5 -27.5t-26.5 -74.5h-216q0 192 64.5 291t189.5 99zM82 1332h390v-806q0 -83 51.5 -128.5t144.5 -45.5q81 0 125.5 45.5t44.5 128.5v806h234q74 10 74 112v136h288v-148q0 -215 -208 -280v-626q0 -244 -153.5 -393t-404.5 -149q-264 0 -425 149t-161 393
v806z" />
    <glyph glyph-name="uni1EEF" unicode="&#x1eef;" horiz-adv-x="1310" 
d="M378 1536q20 0 40 -2t35 -4.5t33 -8t28 -9t27.5 -12t23.5 -11.5t24.5 -13t22.5 -12q63 -33 95 -38q12 -2 25 -2q56 0 87 26t31 72h210q0 -184 -78 -284t-222 -100q-42 0 -81 10.5t-60 20.5t-53 29q-4 3 -15.5 9.5t-16 9.5t-14.5 8.5t-16 7.5t-15 6t-16.5 5.5t-16.5 2.5
t-18 1q-45 0 -71.5 -27.5t-26.5 -74.5h-216q0 192 64.5 291t189.5 99zM478 450q0 -142 136 -142q56 0 93 36.5t37 93.5v586h206q49 0 75.5 24.5t26.5 89.5v136h288v-148q0 -215 -208 -280v-846h-388v138q-55 -84 -134.5 -131t-161.5 -47q-161 0 -260.5 107.5t-99.5 300.5
v656h390v-574z" />
    <glyph glyph-name="uni1EF0" unicode="&#x1ef0;" horiz-adv-x="1390" 
d="M82 1332h390v-806q0 -83 51.5 -128.5t144.5 -45.5q81 0 125.5 45.5t44.5 128.5v806h234q74 10 74 112v136h288v-148q0 -215 -208 -280v-626q0 -244 -153.5 -393t-404.5 -149q-264 0 -425 149t-161 393v806zM452 -108h418v-302h-418v302z" />
    <glyph glyph-name="uni1EF1" unicode="&#x1ef1;" horiz-adv-x="1310" 
d="M478 450q0 -142 136 -142q56 0 93 36.5t37 93.5v586h206q49 0 75.5 24.5t26.5 89.5v136h288v-148q0 -215 -208 -280v-846h-388v138q-55 -84 -134.5 -131t-161.5 -47q-161 0 -260.5 107.5t-99.5 300.5v656h390v-574zM412 -108h418v-302h-418v302z" />
    <glyph glyph-name="Ygrave" unicode="&#x1ef2;" horiz-adv-x="1344" 
d="M250 1844h430l204 -410h-306zM476 444l-446 888h424l222 -490l212 490h426l-450 -890v-442h-388v444z" />
    <glyph glyph-name="ygrave" unicode="&#x1ef3;" horiz-adv-x="1250" 
d="M212 1556h430l204 -410h-306zM124 -46h122q104 0 136 66l16 42l-346 962h402l174 -622l166 622h406l-340 -1036q-66 -204 -184 -284t-356 -80h-196v330z" />
    <glyph glyph-name="uni1EF4" unicode="&#x1ef4;" horiz-adv-x="1344" 
d="M476 444l-446 888h424l222 -490l212 490h426l-450 -890v-442h-388v444zM462 -108h418v-302h-418v302z" />
    <glyph glyph-name="uni1EF5" unicode="&#x1ef5;" horiz-adv-x="1250" 
d="M124 -46h122q104 0 136 66l16 42l-346 962h402l174 -622l166 622h406l-340 -1036q-66 -204 -184 -284t-356 -80h-196v330zM884 -108h418v-302h-418v302z" />
    <glyph glyph-name="uni1EF6" unicode="&#x1ef6;" horiz-adv-x="1344" 
d="M546 1434q0 53 28.5 89.5t77.5 70.5q33 22 47 32t29.5 28t15.5 34q0 30 -16.5 48t-43.5 18q-33 0 -53 -19t-21 -53h-262q9 141 92 207.5t248 66.5q143 0 228.5 -69.5t85.5 -184.5q0 -58 -31.5 -96.5t-84.5 -69.5q-6 -3 -18.5 -10t-18 -10.5t-16 -10t-15.5 -10.5t-13 -10
t-11.5 -11.5t-8 -12t-6 -13t-1.5 -14.5h-232zM476 444l-446 888h424l222 -490l212 490h426l-450 -890v-442h-388v444z" />
    <glyph glyph-name="uni1EF7" unicode="&#x1ef7;" horiz-adv-x="1250" 
d="M508 1146q0 53 28.5 89.5t77.5 70.5q33 22 47 32t29.5 28t15.5 34q0 30 -16.5 48t-43.5 18q-33 0 -53 -19t-21 -53h-262q9 141 92 207.5t248 66.5q143 0 228.5 -69.5t85.5 -184.5q0 -58 -31.5 -96.5t-84.5 -69.5q-6 -3 -18.5 -10t-18 -10.5t-16 -10t-15.5 -10.5t-13 -10
t-11.5 -11.5t-8 -12t-6 -13t-1.5 -14.5h-232zM124 -46h122q104 0 136 66l16 42l-346 962h402l174 -622l166 622h406l-340 -1036q-66 -204 -184 -284t-356 -80h-196v330z" />
    <glyph glyph-name="uni1EF8" unicode="&#x1ef8;" horiz-adv-x="1344" 
d="M440 1824q20 0 40 -2t35 -4.5t33 -8t28 -9t27.5 -12t23.5 -11.5t24.5 -13t22.5 -12q63 -33 95 -38q12 -2 25 -2q56 0 87 26t31 72h210q0 -184 -78 -284t-222 -100q-42 0 -81 10.5t-60 20.5t-53 29q-4 3 -15.5 9.5t-16 9.5t-14.5 8.5t-16 7.5t-15 6t-16.5 5.5t-16.5 2.5
t-18 1q-45 0 -71.5 -27.5t-26.5 -74.5h-216q0 192 64.5 291t189.5 99zM476 444l-446 888h424l222 -490l212 490h426l-450 -890v-442h-388v444z" />
    <glyph glyph-name="uni1EF9" unicode="&#x1ef9;" horiz-adv-x="1250" 
d="M402 1536q20 0 40 -2t35 -4.5t33 -8t28 -9t27.5 -12t23.5 -11.5t24.5 -13t22.5 -12q63 -33 95 -38q12 -2 25 -2q56 0 87 26t31 72h210q0 -184 -78 -284t-222 -100q-42 0 -81 10.5t-60 20.5t-53 29q-4 3 -15.5 9.5t-16 9.5t-14.5 8.5t-16 7.5t-15 6t-16.5 5.5t-16.5 2.5
t-18 1q-45 0 -71.5 -27.5t-26.5 -74.5h-216q0 192 64.5 291t189.5 99zM124 -46h122q104 0 136 66l16 42l-346 962h402l174 -622l166 622h406l-340 -1036q-66 -204 -184 -284t-356 -80h-196v330z" />
    <glyph glyph-name="endash" unicode="&#x2013;" horiz-adv-x="1432" 
d="M52 738h1330v-344h-1330v344z" />
    <glyph glyph-name="emdash" unicode="&#x2014;" horiz-adv-x="2048" 
d="M52 738h1946v-344h-1946v344z" />
    <glyph glyph-name="quoteleft" unicode="&#x2018;" 
d="M482 652h-418v402l160 380h268l-256 -380h246v-402z" />
    <glyph glyph-name="quoteright" unicode="&#x2019;" 
d="M74 1434h418v-404l-160 -378h-268l256 378h-246v404z" />
    <glyph glyph-name="quotesinglbase" unicode="&#x201a;" 
d="M74 404h418v-404l-160 -378h-268l256 378h-246v404z" />
    <glyph glyph-name="quotereversed" unicode="&#x201b;" 
d="M482 1434v-404h-246l256 -378h-268l-160 378v404h418z" />
    <glyph glyph-name="quotedblleft" unicode="&#x201c;" horiz-adv-x="1128" 
d="M1046 652h-418v402l160 380h268l-256 -380h246v-402zM482 652h-418v402l160 380h268l-256 -380h246v-402z" />
    <glyph glyph-name="quotedblright" unicode="&#x201d;" horiz-adv-x="1128" 
d="M74 1434h418v-404l-160 -378h-268l256 378h-246v404zM638 1434h418v-404l-158 -378h-270l256 378h-246v404z" />
    <glyph glyph-name="quotedblbase" unicode="&#x201e;" horiz-adv-x="1128" 
d="M74 404h418v-404l-160 -378h-268l256 378h-246v404zM638 404h418v-404l-158 -378h-270l256 378h-246v404z" />
    <glyph glyph-name="uni201F" unicode="&#x201f;" horiz-adv-x="1128" 
d="M1046 1434v-404h-246l256 -378h-268l-160 378v404h418zM482 1434v-404h-246l256 -378h-268l-160 378v404h418z" />
    <glyph glyph-name="dagger" unicode="&#x2020;" horiz-adv-x="856" 
d="M234 720h-186v304h186v266h388v-266h186v-304h-186v-720h-388v720z" />
    <glyph glyph-name="daggerdbl" unicode="&#x2021;" horiz-adv-x="856" 
d="M622 1024h186v-304h-186v-150h186v-304h-186v-266h-388v266h-186v304h186v150h-186v304h186v266h388v-266z" />
    <glyph glyph-name="bullet" unicode="&#x2022;" horiz-adv-x="688" 
d="M62 664q0 118 82 200t200 82t200 -82t82 -200q0 -119 -82 -201.5t-200 -82.5t-200 82.5t-82 201.5z" />
    <glyph glyph-name="uni2023" unicode="&#x2023;" horiz-adv-x="688" 
d="M62 320v686l564 -342z" />
    <glyph glyph-name="ellipsis" unicode="&#x2026;" horiz-adv-x="1646" 
d="M1156 404h416v-404h-416v404zM614 404h418v-404h-418v404zM74 404h418v-404h-418v404z" />
    <glyph glyph-name="perthousand" unicode="&#x2030;" horiz-adv-x="2990" 
d="M68 946q0 192 111.5 309t294.5 117q181 0 291.5 -117t110.5 -309q0 -194 -110.5 -312t-291.5 -118q-183 0 -294.5 118t-111.5 312zM1166 1332h326l-540 -1332h-328zM584 946q0 86 -29 133t-81 47q-54 0 -84 -47.5t-30 -132.5q0 -87 30 -135.5t84 -48.5q52 0 81 48.5
t29 135.5zM2114 390q0 192 111.5 309t294.5 117q181 0 291.5 -117t110.5 -309q0 -194 -110.5 -312t-291.5 -118q-183 0 -294.5 118t-111.5 312zM1234 390q0 192 111.5 309t294.5 117q182 0 293 -117t111 -309q0 -193 -111 -311.5t-293 -118.5q-183 0 -294.5 118t-111.5 312z
M2630 390q0 86 -29 133t-81 47q-54 0 -84 -47.5t-30 -132.5q0 -87 30 -136.5t84 -49.5q52 0 81 49.5t29 136.5zM1752 390q0 85 -29.5 132.5t-82.5 47.5q-54 0 -83 -47t-29 -133q0 -88 29 -137t83 -49q52 0 82 49.5t30 136.5z" />
    <glyph glyph-name="minute" unicode="&#x2032;" horiz-adv-x="798" 
d="M748 1332l-390 -410h-306l266 410h430z" />
    <glyph glyph-name="second" unicode="&#x2033;" horiz-adv-x="1320" 
d="M1272 1332l-390 -410h-306l266 410h430zM748 1332l-390 -410h-306l266 410h430z" />
    <glyph glyph-name="uni2034" unicode="&#x2034;" horiz-adv-x="1844" 
d="M748 1332l-390 -410h-306l266 410h430zM1796 1332l-390 -410h-306l266 410h430zM1272 1332l-390 -410h-306l266 410h430z" />
    <glyph glyph-name="uni2035" unicode="&#x2035;" horiz-adv-x="798" 
d="M52 1332h430l266 -410h-308z" />
    <glyph glyph-name="uni2036" unicode="&#x2036;" horiz-adv-x="1320" 
d="M52 1332h430l266 -410h-308zM576 1332h430l266 -410h-308z" />
    <glyph glyph-name="uni2037" unicode="&#x2037;" horiz-adv-x="1844" 
d="M1100 1332h430l266 -410h-308zM52 1332h430l266 -410h-308zM576 1332h430l266 -410h-308z" />
    <glyph glyph-name="guilsinglleft" unicode="&#x2039;" horiz-adv-x="640" 
d="M586 1188v-402l-274 -156l274 -142v-406l-532 332v442z" />
    <glyph glyph-name="guilsinglright" unicode="&#x203a;" horiz-adv-x="640" 
d="M54 82v402l274 156l-274 142v406l532 -332v-442z" />
    <glyph glyph-name="uni2070" unicode="&#x2070;" horiz-adv-x="944" 
d="M68 1134q0 192 111.5 309t294.5 117q181 0 291.5 -117t110.5 -309q0 -194 -110.5 -312t-291.5 -118q-183 0 -294.5 118t-111.5 312zM584 1134q0 86 -29 133t-81 47q-54 0 -84 -47.5t-30 -132.5q0 -87 30 -135.5t84 -48.5q52 0 81 48.5t29 135.5z" />
    <glyph glyph-name="uni2074" unicode="&#x2074;" horiz-adv-x="894" 
d="M758 892v-146h-286v146h-420v240l358 404h348v-424h106v-220h-106zM472 1112v166l-130 -166h130z" />
    <glyph glyph-name="uni2075" unicode="&#x2075;" horiz-adv-x="914" 
d="M530 1000q0 36 -21.5 57t-60.5 21q-46 0 -68 -44h-304l78 502h642v-232h-384l-16 -104q66 60 190 60q114 0 186 -69t72 -179q0 -138 -100.5 -221t-269.5 -83t-280 77.5t-122 200.5h314q2 -27 21 -43.5t51 -16.5q72 0 72 74z" />
    <glyph glyph-name="uni2076" unicode="&#x2076;" horiz-adv-x="934" 
d="M72 1140q0 197 106.5 308.5t293.5 111.5q152 0 251.5 -67t124.5 -187h-314q-8 23 -21 33.5t-37 10.5q-40 0 -65 -45t-25 -119v-30q28 52 89.5 83t136.5 31q109 0 180.5 -72.5t71.5 -183.5q0 -126 -99 -205t-257 -79q-201 0 -318.5 110.5t-117.5 299.5zM410 1004
q0 -29 21.5 -48.5t54.5 -19.5q30 0 47 17.5t17 46.5t-18.5 45.5t-49.5 16.5q-33 0 -52.5 -15.5t-19.5 -42.5z" />
    <glyph glyph-name="uni2077" unicode="&#x2077;" horiz-adv-x="928" 
d="M590 746h-384q0 97 21.5 176t63 139.5t87.5 104t110 88.5h-416v282h786v-304q-146 -82 -207 -197.5t-61 -288.5z" />
    <glyph glyph-name="uni2078" unicode="&#x2078;" horiz-adv-x="914" 
d="M456 944q35 0 54.5 16t19.5 46q0 29 -18.5 45.5t-51.5 16.5h-6q-68 0 -68 -60q0 -64 70 -64zM386 1288q0 -27 17.5 -42.5t50.5 -15.5h6q33 0 51.5 15.5t18.5 42.5t-19 42.5t-55 15.5q-70 0 -70 -58zM456 1560q165 0 266.5 -65t101.5 -171q0 -122 -138 -174
q158 -50 158 -180q0 -108 -107 -174t-281 -66q-173 0 -278.5 65t-105.5 173q0 129 158 182q-138 52 -138 176q0 105 100.5 169.5t263.5 64.5z" />
    <glyph glyph-name="uni2079" unicode="&#x2079;" horiz-adv-x="934" 
d="M864 1148q0 -196 -109 -307t-301 -111q-156 0 -257.5 67t-128.5 187h312q8 -44 62 -44q48 0 78 45.5t30 118.5v30q-28 -52 -89.5 -83t-136.5 -31q-109 0 -180.5 72.5t-71.5 183.5q0 126 99 205t257 79q201 0 318.5 -111.5t117.5 -300.5zM526 1286q0 29 -21.5 48.5
t-54.5 19.5q-30 0 -47 -17.5t-17 -46.5t18.5 -46.5t49.5 -17.5q33 0 52.5 16.5t19.5 43.5z" />
    <glyph glyph-name="uni207A" unicode="&#x207a;" horiz-adv-x="794" 
d="M528 1272h216v-262h-216v-216h-262v216h-214v262h214v214h262v-214z" />
    <glyph glyph-name="uni207B" unicode="&#x207b;" horiz-adv-x="794" 
d="M52 1272h692v-262h-692v262z" />
    <glyph glyph-name="uni207C" unicode="&#x207c;" horiz-adv-x="794" 
d="M52 1470h692v-262h-692v262zM52 1082h692v-262h-692v262z" />
    <glyph glyph-name="uni207D" unicode="&#x207d;" horiz-adv-x="592" 
d="M564 512h-310q-88 88 -145 258t-57 358t57 358t145 258h310q-98 -95 -149 -253.5t-51 -362.5t51 -362.5t149 -253.5z" />
    <glyph glyph-name="uni207E" unicode="&#x207e;" horiz-adv-x="592" 
d="M30 1744h310q88 -88 145 -258t57 -358t-57 -358t-145 -258h-310q98 95 149 253.5t51 362.5t-51 362.5t-149 253.5z" />
    <glyph glyph-name="uni207F" unicode="&#x207f;" horiz-adv-x="1036" 
d="M646 1168q0 142 -128 142q-51 0 -84.5 -36.5t-33.5 -93.5v-436h-308v792h308v-92q47 62 114.5 97t135.5 35q135 0 218.5 -86t83.5 -240v-506h-306v424z" />
    <glyph glyph-name="uni2080" unicode="&#x2080;" horiz-adv-x="944" 
d="M68 184q0 192 111.5 309t294.5 117q181 0 291.5 -117t110.5 -309q0 -194 -110.5 -312t-291.5 -118q-183 0 -294.5 118t-111.5 312zM584 184q0 86 -29 133t-81 47q-54 0 -84 -47.5t-30 -132.5q0 -87 30 -135.5t84 -48.5q52 0 81 48.5t29 135.5z" />
    <glyph glyph-name="uni2081" unicode="&#x2081;" horiz-adv-x="664" 
d="M266 586h308v-790h-308v390h-214v248h94q63 0 91.5 24t28.5 86v42z" />
    <glyph glyph-name="uni2082" unicode="&#x2082;" horiz-adv-x="914" 
d="M412 36h424v-240h-764v68q0 83 19 148.5t47 105.5t71 70t79.5 44.5t83.5 27.5q15 4 48 12.5t46 12.5t31.5 12t25.5 18t7 23q0 25 -18 39.5t-48 14.5q-35 0 -55.5 -18.5t-22.5 -49.5h-314q12 128 120 207t272 79q172 0 276 -74.5t104 -197.5q0 -41 -14.5 -75t-36.5 -57
t-56.5 -42t-64.5 -30.5t-70 -23.5q-12 -4 -46 -13.5t-48 -14t-37 -13t-36.5 -16.5t-22.5 -17z" />
    <glyph glyph-name="uni2083" unicode="&#x2083;" horiz-adv-x="934" 
d="M394 112v158h92q44 0 44 50q0 31 -19.5 49.5t-52.5 18.5t-51.5 -18.5t-20.5 -51.5h-314q12 132 119.5 212t272.5 80t272.5 -67.5t107.5 -170.5q0 -126 -116 -180q136 -54 136 -192q0 -99 -101.5 -160.5t-264.5 -61.5q-178 0 -296 84.5t-130 221.5h314q4 -37 28.5 -57.5
t65.5 -20.5q34 0 52 15t18 41q0 50 -64 50h-92z" />
    <glyph glyph-name="uni2084" unicode="&#x2084;" horiz-adv-x="894" 
d="M758 -58v-146h-286v146h-420v240l358 404h348v-424h106v-220h-106zM472 162v166l-130 -166h130z" />
    <glyph glyph-name="uni2085" unicode="&#x2085;" horiz-adv-x="914" 
d="M530 50q0 36 -21.5 56t-60.5 20q-47 0 -68 -42h-304l78 502h642v-232h-384l-16 -104q66 60 190 60q114 0 186 -69t72 -179q0 -138 -100.5 -221t-269.5 -83t-280 76.5t-122 199.5h314q2 -27 20.5 -42.5t51.5 -15.5q72 0 72 74z" />
    <glyph glyph-name="uni2086" unicode="&#x2086;" horiz-adv-x="934" 
d="M72 190q0 197 106.5 308.5t293.5 111.5q152 0 251.5 -67t124.5 -187h-314q-8 23 -21 33.5t-37 10.5q-40 0 -65 -45t-25 -119v-32q29 53 90 84.5t136 31.5q109 0 180.5 -72.5t71.5 -183.5q0 -126 -99.5 -206t-256.5 -80q-201 0 -318.5 111.5t-117.5 300.5zM410 54
q0 -29 21.5 -48.5t54.5 -19.5q30 0 47 17.5t17 46.5t-18.5 45.5t-49.5 16.5q-33 0 -52.5 -15.5t-19.5 -42.5z" />
    <glyph glyph-name="uni2087" unicode="&#x2087;" horiz-adv-x="928" 
d="M590 -204h-384q0 97 21.5 176t63 139.5t87.5 104t110 88.5h-416v282h786v-304q-146 -82 -207 -197.5t-61 -288.5z" />
    <glyph glyph-name="uni2088" unicode="&#x2088;" horiz-adv-x="914" 
d="M456 -6q35 0 54.5 16t19.5 46q0 28 -18.5 44t-51.5 16h-6q-68 0 -68 -60q0 -62 70 -62zM386 338q0 -27 17.5 -42.5t50.5 -15.5h6q33 0 51.5 15.5t18.5 42.5t-19 42.5t-55 15.5q-70 0 -70 -58zM456 610q165 0 266.5 -65t101.5 -171q0 -122 -138 -174q158 -50 158 -180
q0 -108 -107 -175t-281 -67q-173 0 -278.5 66t-105.5 174q0 129 158 182q-138 52 -138 176q0 105 100.5 169.5t263.5 64.5z" />
    <glyph glyph-name="uni2089" unicode="&#x2089;" horiz-adv-x="934" 
d="M864 198q0 -197 -109 -308.5t-301 -111.5q-156 0 -257.5 67t-128.5 187h312q8 -42 62 -42q48 0 78 45.5t30 118.5v30q-28 -52 -89.5 -83t-136.5 -31q-109 0 -180.5 72.5t-71.5 183.5q0 126 99 205t257 79q201 0 318.5 -111.5t117.5 -300.5zM526 336q0 29 -21.5 48.5
t-54.5 19.5q-30 0 -47 -17.5t-17 -46.5t18.5 -46.5t49.5 -17.5q33 0 52.5 16.5t19.5 43.5z" />
    <glyph glyph-name="uni208A" unicode="&#x208a;" horiz-adv-x="794" 
d="M528 322h216v-262h-216v-216h-262v216h-214v262h214v214h262v-214z" />
    <glyph glyph-name="uni208B" unicode="&#x208b;" horiz-adv-x="794" 
d="M52 322h692v-262h-692v262z" />
    <glyph glyph-name="uni208C" unicode="&#x208c;" horiz-adv-x="794" 
d="M52 520h692v-262h-692v262zM52 132h692v-264h-692v264z" />
    <glyph glyph-name="uni208D" unicode="&#x208d;" horiz-adv-x="592" 
d="M564 -438h-310q-88 88 -145 258t-57 358t57 358t145 258h310q-98 -95 -149 -253.5t-51 -362.5t51 -362.5t149 -253.5z" />
    <glyph glyph-name="uni208E" unicode="&#x208e;" horiz-adv-x="592" 
d="M30 794h310q88 -88 145 -258t57 -358t-57 -358t-145 -258h-310q98 95 149 253.5t51 362.5t-51 362.5t-149 253.5z" />
    <glyph glyph-name="uni2099" unicode="&#x2099;" horiz-adv-x="1036" 
d="M92 586h308v-92q47 62 114.5 97t135.5 35q135 0 218.5 -86t83.5 -240v-506h-306v424q0 142 -128 142q-51 0 -84.5 -36.5t-33.5 -93.5v-436h-308v792z" />
    <glyph glyph-name="uni20A0" unicode="&#x20a0;" horiz-adv-x="1520" 
d="M68 848q0 232 146 373t388 141q186 0 324.5 -98.5t179.5 -273.5h-354q-43 86 -150 86q-86 0 -133 -59.5t-47 -168.5q0 -124 61 -192t171 -68h34v316h762v-264h-406v-70h350v-222h-350v-64h406v-284h-762v302h-34q-264 0 -425 150t-161 396z" />
    <glyph glyph-name="colonmonetary" unicode="&#x20a1;" horiz-adv-x="1386" 
d="M72 670q0 291 155.5 475.5t414.5 204.5l46 204h148l-46 -206q53 -7 90 -14l48 220h148l-60 -266q133 -62 209.5 -182t88.5 -288h-354q-3 57 -26 100l-136 -612q71 24 114.5 80.5t47.5 133.5h354q-6 -244 -162 -386t-426 -150l-32 -144h-146l34 154q-30 4 -90 20l-38 -174
h-146l52 236q-137 87 -212.5 240.5t-75.5 353.5zM564 332q32 -24 86 -34l160 728q-39 15 -88 18zM426 670q0 -107 26 -182l114 518q-140 -87 -140 -336z" />
    <glyph glyph-name="uni20A2" unicode="&#x20a2;" horiz-adv-x="1386" 
d="M72 670q0 308 179 495t473 187q264 0 418 -119t172 -335h-354q-3 66 -66 106t-164 40q-144 0 -224 -98t-80 -276q0 -232 130 -328v482h310v-114q92 126 274 126h82v-316h-100q-131 0 -193.5 -40t-62.5 -124v-38q88 41 94 122h354q-6 -213 -163 -334.5t-427 -121.5
q-293 0 -472.5 188.5t-179.5 497.5z" />
    <glyph glyph-name="franc" unicode="&#x20a3;" horiz-adv-x="1246" 
d="M1176 1332v-346h-594v-110h536v-344h-536v-90h250v-278h-250v-164h-390v164h-162v278h162v890h984z" />
    <glyph glyph-name="lira" unicode="&#x20a4;" horiz-adv-x="1258" 
d="M82 634h160v58h-160v182h160v60q0 186 129 300t339 114q207 0 344.5 -104t155.5 -274h-388q-4 33 -31 51.5t-71 18.5q-43 0 -66.5 -28t-23.5 -78v-60h326v-182h-326v-58h326v-182h-334q-17 -74 -82 -108h646v-344h-1114v356q106 30 148 96h-138v182z" />
    <glyph glyph-name="uni20A5" unicode="&#x20a5;" horiz-adv-x="1834" 
d="M722 552q0 164 -126 164q-51 0 -84.5 -42t-33.5 -108v-566h-390v1024h390v-140q53 86 129 133t155 47q68 0 128 -24l96 292h430l-92 -278q40 10 72 10q156 0 253 -114t97 -316v-634h-388v552q0 83 -33.5 123.5t-94.5 40.5q-12 0 -18 -2l-100 -306v-408h-134l-86 -260
h-430l260 790v22z" />
    <glyph glyph-name="uni20A6" unicode="&#x20a6;" horiz-adv-x="1548" 
d="M1538 572v-278h-158v-294h-362l-178 294h-298v-294h-370v294h-162v278h162v214h-162v278h162v268h432l144 -268h264v268h368v-268h158v-278h-158v-214h158zM1012 572v214h-114zM542 784v-212h128z" />
    <glyph glyph-name="peseta" unicode="&#x20a7;" horiz-adv-x="2948" 
d="M744 402h-262v-402h-390v1332h614q185 0 315 -82.5t177 -225.5h76v266h390v-266h146v-304h-146v-220q0 -92 39.5 -134t124.5 -42h574q54 0 72 4.5t18 17.5q0 20 -54 26l-216 22q-358 33 -358 334q0 153 130.5 241.5t355.5 88.5q216 0 350.5 -89.5t153.5 -246.5h-376
q-15 76 -124 76q-45 0 -70.5 -14.5t-25.5 -41.5q0 -39 54 -42l236 -20q173 -17 251.5 -96.5t78.5 -239.5q0 -168 -106 -256t-308 -88h-700q-231 0 -360.5 118t-129.5 328v274h-76q-44 -147 -164.5 -232.5t-289.5 -85.5zM672 1002h-190v-256h190q71 0 110.5 34.5t39.5 95.5
q0 60 -39.5 93t-110.5 33z" />
    <glyph glyph-name="uni20A8" unicode="&#x20a8;" horiz-adv-x="2340" 
d="M662 428h-180v-428h-390v1332h654q209 0 336.5 -106.5t127.5 -281.5q0 -116 -60 -203t-166 -131q94 -27 141.5 -96t62.5 -200l36 -314h-382l-36 278q-9 77 -42 113.5t-102 36.5zM1834 356l-216 20q-358 32 -358 330q0 163 130.5 257.5t355.5 94.5q216 0 350 -91.5
t154 -250.5h-376q-15 76 -124 76q-45 0 -70.5 -16.5t-25.5 -45.5q0 -49 54 -58l236 -20q174 -15 252 -96.5t78 -243.5q0 -153 -132.5 -247.5t-349.5 -94.5q-232 0 -375.5 90t-166.5 248h396q17 -78 140 -78q51 0 81.5 17t30.5 47q0 54 -64 62zM684 1008h-202v-256h202
q68 0 105 33.5t37 96.5q0 60 -37 93t-105 33z" />
    <glyph glyph-name="uni20A9" unicode="&#x20a9;" horiz-adv-x="2140" 
d="M30 1332h404l54 -268h278l60 268h484l62 -268h280l54 268h404l-72 -268h92v-278h-166l-58 -214h224v-278h-298l-80 -294h-488l-66 294h-260l-56 -294h-508l-76 294h-288v278h216l-54 214h-162v278h90zM590 572h68l46 214h-158zM992 572h142l-48 214h-52zM1486 572h68
l42 214h-160z" />
    <glyph glyph-name="uni20AA" unicode="&#x20aa;" horiz-adv-x="1752" 
d="M832 298h380q66 0 97 28t31 88v610h322v-622q0 -192 -107 -297t-317 -105h-730v644h324v-346zM416 726v-726h-324v1024h730q210 0 317 -105t107 -297v-242h-322v230q0 60 -31 88t-97 28h-380z" />
    <glyph glyph-name="dong" unicode="&#x20ab;" horiz-adv-x="1330" 
d="M492 1332h196v102h390v-102h156v-238h-156v-934h-390v96q-94 -132 -256 -132q-164 0 -264 124t-100 328q0 202 100 325t264 123q161 0 256 -130v200h-196v238zM462 576q0 -60 29.5 -93t82.5 -33q54 0 84 33t30 93q0 57 -30 88.5t-84 31.5q-53 0 -82.5 -31.5t-29.5 -88.5z
M52 40h1208v-274h-1208v274z" />
    <glyph glyph-name="Euro" unicode="&#x20ac;" horiz-adv-x="1454" 
d="M140 670v22h-130v182h152q53 222 213.5 350t392.5 128q265 0 430 -136t184 -398h-394q-3 85 -61.5 135.5t-152.5 50.5q-140 0 -202 -130h312v-182h-350v-22v-36h350v-182h-306q62 -120 196 -120q93 0 151 51t63 137h394q-3 -134 -51.5 -237.5t-132 -168t-192.5 -97.5
t-238 -33q-227 0 -386.5 125.5t-215.5 342.5h-156v182h130v36z" />
    <glyph glyph-name="uni20AD" unicode="&#x20ad;" horiz-adv-x="1342" 
d="M0 802h152v530h384v-522l290 522h450l-326 -530h232v-278h-232l302 -524h-454l-262 522v-522h-384v524h-152v278z" />
    <glyph glyph-name="uni20AE" unicode="&#x20ae;" horiz-adv-x="1188" 
d="M1018 558v-232l-230 -50v-276h-388v192l-216 -46v232l216 46v80l-216 -46v232l216 46v230h-348v366h1084v-366h-348v-146l230 50v-232l-230 -50v-80z" />
    <glyph glyph-name="uni20AF" unicode="&#x20af;" horiz-adv-x="2500" 
d="M52 338h108l132 582q-66 -16 -138 -46v356q86 36 222 66l32 138h384l-24 -104q271 -18 429.5 -177t158.5 -413q0 -163 -55 -301t-152.5 -234.5t-236.5 -150.5t-304 -54h-556v338zM2428 604q0 -283 -128.5 -451.5t-321.5 -168.5q-95 0 -160.5 36.5t-93.5 105.5l-80 -460
h-384l150 850q48 269 190 398.5t354 129.5q220 0 347 -118t127 -322zM704 986h-14l-146 -648h24q186 0 292 107.5t106 296.5q0 117 -68.5 180.5t-193.5 63.5zM1876 306q72 0 118 87t46 223q0 48 -25.5 77t-68.5 29q-72 0 -118 -87t-46 -223q0 -49 26 -77.5t68 -28.5z" />
    <glyph glyph-name="uni20B0" unicode="&#x20b0;" horiz-adv-x="1332" 
d="M1228 968q0 -63 -12.5 -111t-51.5 -137l-102 -174q127 -109 183.5 -224t56.5 -262q0 -472 -582 -472v302q135 0 207.5 47.5t72.5 136.5q0 96 -100 196l-196 -330h-186l-162 330l-62 -270h-294l220 590h210l150 -282l96 150q-116 107 -181 241t-65 269q0 172 107.5 279
t280.5 107q188 0 299 -104.5t111 -281.5zM866 760q56 126 56 208q0 46 -25.5 76t-64.5 30q-44 0 -68 -30.5t-24 -85.5q0 -124 104 -234z" />
    <glyph glyph-name="uni20B1" unicode="&#x20b1;" horiz-adv-x="1368" 
d="M10 794h122v42h-122v168h122v328h614q180 0 307 -87.5t179 -240.5h126v-168h-98v-20v-22h98v-168h-124q-47 -159 -166 -251.5t-284 -92.5h-302v-282h-350v626h-122v168zM712 1042h-230v-38h348q-48 38 -118 38zM902 816v20h-420v-42h420v22zM482 586h230q71 0 120 40
h-350v-40z" />
    <glyph glyph-name="uni20B2" unicode="&#x20b2;" horiz-adv-x="1406" 
d="M72 670q0 308 172.5 495t455.5 187q48 0 72 -2l46 204h148l-50 -228q173 -48 279 -168.5t119 -299.5h-394q-3 79 -82 120l-44 -196h520v-782h-250l-44 226q-56 -114 -154.5 -178t-223.5 -64h-26l-32 -144h-146l38 168q-187 56 -295.5 232t-108.5 430zM466 670
q0 -200 92 -286l138 622q-108 -3 -169 -91.5t-61 -244.5zM700 332q90 0 146.5 38t67.5 104h-188l-32 -142h6z" />
    <glyph glyph-name="uni20B3" unicode="&#x20b3;" horiz-adv-x="1386" 
d="M34 452h146l26 80h-172v224h246l192 576h444l190 -576h248v-224h-174l26 -80h148v-224h-74l76 -228h-404l-62 228h-394l-60 -228h-406l76 228h-72v224zM690 970l-56 -214h114zM554 452h276l-22 80h-232z" />
    <glyph glyph-name="uni20B4" unicode="&#x20b4;" horiz-adv-x="1326" 
d="M10 616h174q75 66 214 102h-388v158h824q2 10 2 34q0 65 -46 103.5t-124 38.5q-134 0 -154 -108h-394q21 189 170.5 297.5t389.5 108.5q255 0 403.5 -113.5t148.5 -308.5q0 -20 -4 -52h90v-158h-182q-78 -69 -220 -102h402v-158h-824q-6 -24 -6 -50q0 -55 45.5 -88.5
t120.5 -33.5q171 0 192 116h396q-24 -195 -180 -306.5t-406 -111.5q-254 0 -407 116t-153 308q0 18 4 50h-88v158z" />
    <glyph glyph-name="uni20B5" unicode="&#x20b5;" horiz-adv-x="1386" 
d="M72 670q0 291 155 475.5t415 204.5v206h122v-206q239 -16 386 -151t164 -381h-394q-3 71 -44.5 118.5t-111.5 61.5v-660q69 15 110.5 62.5t45.5 119.5h394q-3 -125 -45.5 -224.5t-117 -164t-172.5 -101t-215 -44.5v-252h-122v252q-259 21 -414.5 206.5t-155.5 477.5z
M466 670q0 -137 46 -222t130 -108v656q-84 -23 -130 -107t-46 -219z" />
    <glyph glyph-name="uni20B6" unicode="&#x20b6;" horiz-adv-x="1398" 
d="M48 1024h144v266h390v-266h234v266h390v-266h146v-304h-146v-302q0 -50 19.5 -72t62.5 -22h64v-324h-128q-192 0 -300 96t-108 268v356h-234v-720h-390v720h-144v304z" />
    <glyph glyph-name="uni20B7" unicode="&#x20b7;" horiz-adv-x="1430" 
d="M302 298q0 64 -42 64q-14 0 -23 -8.5t-9 -21.5q0 -59 74 -96v62zM764 298q0 64 -42 64q-17 0 -27.5 -16.5t-10.5 -41.5v-134h34q32 0 46 2v126zM532 298q0 64 -40 64q-17 0 -27.5 -16.5t-10.5 -41.5v-114q36 -6 78 -12v120zM856 528l-234 22q-194 18 -297 115t-103 263
q0 195 147 308.5t399 113.5q243 0 394 -114t172 -312h-394q-23 128 -176 128q-67 0 -107.5 -27.5t-40.5 -74.5q0 -67 82 -76l208 -20q229 -22 340.5 -132.5t111.5 -313.5q0 -160 -118.5 -268.5t-325.5 -141.5v-166h-150v152h-28h-52v-152h-152v166l-78 12v-178h-152v224
q-109 46 -169.5 116.5t-60.5 159.5q0 73 55.5 118.5t126.5 45.5q62 0 110 -22t72 -62q19 40 50.5 62t65.5 22q39 0 70.5 -20.5t47.5 -57.5q19 37 50.5 57.5t63.5 20.5q57 0 93.5 -42t36.5 -116v-130q110 53 110 156q0 143 -168 164z" />
    <glyph glyph-name="uni20B8" unicode="&#x20b8;" horiz-adv-x="1186" 
d="M52 1006v326h1084v-326h-1084zM1136 892v-366h-348v-526h-388v526h-348v366h1084z" />
    <glyph glyph-name="uni20B9" unicode="&#x20b9;" horiz-adv-x="974" 
d="M250 388h-180v284h202q101 0 132 96h-334v164h326q-46 96 -174 96h-152v304h834v-304h-198q46 -40 72 -96h126v-164h-116q-20 -69 -72.5 -120.5t-133.5 -79.5q95 -30 140.5 -98.5t59.5 -195.5l30 -274h-382l-30 278q-6 60 -42.5 85t-107.5 25z" />
    <glyph glyph-name="uni20BA" unicode="&#x20ba;" horiz-adv-x="1354" 
d="M602 342q160 0 247 114.5t95 335.5h388q-24 -378 -210 -585t-502 -207h-396v432l-214 -46v232l214 46v80l-214 -46v232l214 46v356h364v-278l256 56v-232l-256 -56v-80l256 56v-232l-256 -56v-168h14z" />
    <glyph glyph-name="uni20BB" unicode="&#x20bb;" horiz-adv-x="1552" 
d="M1320 36q-200 -52 -366 -52q-161 0 -278 55.5t-176 158.5q-166 -40 -380 -40v254q184 0 328 24v292h-20q-188 0 -292 86t-104 240q0 145 97 231.5t259 86.5q171 0 274.5 -93.5t103.5 -246.5v-22h366q183 0 285.5 -95.5t102.5 -266.5q0 -123 -57.5 -200.5t-134.5 -77.5
q-108 0 -158 106q-21 -51 -55.5 -79.5t-76.5 -28.5q-87 0 -128 116q-39 -75 -112 -142q60 -66 214 -66q147 0 308 58v-298zM468 990v42q0 43 -20.5 69.5t-53.5 26.5q-30 0 -49 -18.5t-19 -47.5q0 -72 98 -72h44zM1246 600q14 0 22 15.5t8 40.5q0 34 -21 53t-59 19h-430v-174
q56 47 56 104h122q0 -36 21.5 -58t56.5 -22q28 0 46 22.5t18 57.5h122q0 -58 38 -58z" />
    <glyph glyph-name="uni20BC" unicode="&#x20bc;" horiz-adv-x="1508" 
d="M1426 0h-370v426q0 154 -128 220v-646h-350v644q-128 -66 -128 -218v-426h-368v426q0 236 133.5 396.5t362.5 207.5v302h350v-300q229 -45 363.5 -207t134.5 -399v-426z" />
    <glyph glyph-name="uni20BD" unicode="&#x20bd;" horiz-adv-x="1390" 
d="M30 442h162v80h-162v324h162v486h650q215 0 346.5 -111.5t131.5 -292.5t-121.5 -293.5t-318.5 -112.5h-298v-80h250v-278h-250v-164h-390v164h-162v278zM808 1022h-226v-176h226q54 0 84 21.5t30 60.5q0 45 -30 69.5t-84 24.5z" />
    <glyph glyph-name="uni20BE" unicode="&#x20be;" horiz-adv-x="1382" 
d="M60 332h170q-150 172 -150 416q0 219 113 372t309 206v210h164v-184h36h32v184h164v-210q186 -51 297.5 -204.5t126.5 -403.5h-354q-3 139 -70 228v-228h-164v320q-8 2 -26 2q-28 0 -42 -2v-320h-164v230q-68 -87 -68 -238q0 -181 115.5 -279.5t324.5 -98.5h450v-332
h-1264v332z" />
    <glyph glyph-name="uni20BF" unicode="&#x20bf;" horiz-adv-x="1206" 
d="M268 1536h264v-204h96v204h264v-216q139 -29 220.5 -115.5t81.5 -208.5q0 -93 -49 -171.5t-133 -118.5q113 -44 178.5 -139.5t65.5 -216.5q0 -151 -100 -247.5t-264 -102.5v-246h-264v246h-96v-246h-264v246h-176v1332h176v204zM720 1008h-238v-174h238q30 0 54 26t24 62
q0 34 -24 60t-54 26zM770 510h-288v-186h280q40 0 69 28.5t29 67.5q0 38 -26 64t-64 26z" />
    <glyph glyph-name="arrowleft" unicode="&#x2190;" horiz-adv-x="1596" 
d="M72 692l484 482l172 -172l-160 -158h958v-306h-956l158 -158l-172 -172z" />
    <glyph glyph-name="arrowup" unicode="&#x2191;" horiz-adv-x="1110" 
d="M556 1418l482 -484l-172 -172l-160 160l4 -958h-306v958l-160 -160l-172 172z" />
    <glyph glyph-name="arrowright" unicode="&#x2192;" horiz-adv-x="1596" 
d="M1526 690l-484 -482l-172 172l160 158h-958v306h956l-158 158l172 172z" />
    <glyph glyph-name="arrowdown" unicode="&#x2193;" horiz-adv-x="1110" 
d="M556 -36l-484 482l172 172l160 -158l-4 958h306v-960l160 160l172 -172z" />
    <glyph glyph-name="arrowboth" unicode="&#x2194;" horiz-adv-x="1596" 
d="M72 692l484 482l172 -172l-160 -158h460l-158 158l172 172l484 -484l-484 -482l-172 172l160 158h-460l158 -158l-172 -172z" />
    <glyph glyph-name="arrowupdn" unicode="&#x2195;" horiz-adv-x="1110" 
d="M556 -36l-484 482l172 172l160 -158v462l-160 -160l-172 172l484 484l482 -484l-172 -172l-160 162v-466l160 160l172 -172z" />
    <glyph glyph-name="uni2196" unicode="&#x2196;" horiz-adv-x="1280" 
d="M72 1254h682v-246h-224l678 -674l-216 -218l-678 678v-224h-242v684z" />
    <glyph glyph-name="uni2197" unicode="&#x2197;" horiz-adv-x="1280" 
d="M1208 1254v-682h-246v222l-674 -678l-216 218l678 678h-226v242h684z" />
    <glyph glyph-name="uni2198" unicode="&#x2198;" horiz-adv-x="1280" 
d="M1208 116h-682v246h224l-678 674l216 218l678 -678v224h242v-684z" />
    <glyph glyph-name="uni2199" unicode="&#x2199;" horiz-adv-x="1280" 
d="M72 116v682h246v-222l674 678l216 -218l-678 -678h226v-242h-684z" />
    <glyph glyph-name="uni219A" unicode="&#x219a;" horiz-adv-x="1596" 
d="M72 692l484 482l172 -172l-158 -158l400 2l114 348h250l-114 -348h306v-308h-408l-128 -388h-250l128 388h-298l158 -158l-172 -172z" />
    <glyph glyph-name="uni219B" unicode="&#x219b;" horiz-adv-x="1596" 
d="M572 1194h250l-116 -350h322l-158 158l172 172l484 -484l-484 -482l-172 172l158 158l-422 -2l-128 -386h-250l128 386h-284v308h384z" />
    <glyph glyph-name="uni219C" unicode="&#x219c;" horiz-adv-x="1678" 
d="M340 1094l578 -266l-104 -224l-198 102q18 -103 46.5 -148.5t77.5 -45.5q36 0 74 16.5t58 31t64 50.5q62 51 117.5 78.5t128.5 27.5q188 0 297 -125.5t109 -344.5h-236q0 89 -34.5 142.5t-91.5 53.5q-31 0 -58.5 -7t-58.5 -26t-46.5 -30t-52.5 -39q-66 -49 -122.5 -75.5
t-127.5 -26.5q-155 0 -247.5 82.5t-148.5 263.5l-74 -170l-218 102z" />
    <glyph glyph-name="uni219D" unicode="&#x219d;" horiz-adv-x="1678" 
d="M478 716q73 0 127 -27.5t117 -78.5q42 -34 63.5 -49.5t60 -32t74.5 -16.5q49 0 76.5 45t45.5 149l-196 -102l-104 224l576 266l270 -578l-220 -102l-74 168q-55 -179 -147.5 -261.5t-246.5 -82.5q-71 0 -127.5 26.5t-122.5 75.5q-46 35 -70 51.5t-66 33.5t-82 17
q-57 0 -90.5 -53.5t-33.5 -142.5h-236q0 219 109 344.5t297 125.5z" />
    <glyph glyph-name="uni219E" unicode="&#x219e;" horiz-adv-x="1596" 
d="M72 692l484 482l172 -172l-158 -158h106l330 330l172 -172l-158 -156h506v-308h-506l158 -158l-172 -172l-330 330h-106l158 -158l-172 -172z" />
    <glyph glyph-name="uni219F" unicode="&#x219f;" horiz-adv-x="1106" 
d="M556 1418l480 -484l-172 -172l-158 160v-108l330 -330l-172 -172l-156 158v-506h-306v504l-158 -156l-172 172l330 328v108l-158 -158l-172 172z" />
    <glyph glyph-name="uni21A0" unicode="&#x21a0;" horiz-adv-x="1596" 
d="M1526 690l-484 -482l-172 172l158 158h-106l-330 -330l-172 172l158 156h-506v308h506l-158 158l172 172l330 -330h106l-158 158l172 172z" />
    <glyph glyph-name="uni21A1" unicode="&#x21a1;" horiz-adv-x="1106" 
d="M552 -36l-480 482l172 172l158 -158v106l-330 332l172 172l156 -158v506h306v-506l158 158l172 -172l-330 -330v-106l158 156l172 -172z" />
    <glyph glyph-name="uni21A2" unicode="&#x21a2;" horiz-adv-x="1596" 
d="M72 692l484 482l172 -172l-158 -158l454 2l330 328l172 -172l-312 -310l312 -312l-172 -172l-330 330h-454l158 -158l-172 -172z" />
    <glyph glyph-name="uni21A3" unicode="&#x21a3;" horiz-adv-x="1596" 
d="M1526 690l-484 -482l-172 172l158 158l-454 -2l-330 -328l-172 172l310 310l-310 312l172 172l330 -330h454l-158 158l172 172z" />
    <glyph glyph-name="uni21A4" unicode="&#x21a4;" horiz-adv-x="1596" 
d="M72 692l484 482l172 -172l-158 -158l690 2v328h266v-966h-266v330h-690l158 -158l-172 -172z" />
    <glyph glyph-name="uni21A5" unicode="&#x21a5;" horiz-adv-x="1106" 
d="M1036 230v-266h-964v266h330v690l-158 -158l-172 172l484 484l480 -484l-172 -172l-158 160l2 -692h328z" />
    <glyph glyph-name="uni21A6" unicode="&#x21a6;" horiz-adv-x="1596" 
d="M338 208h-266v966h266v-330h690l-158 158l172 172l484 -484l-484 -482l-172 172l158 158l-690 -2v-328z" />
    <glyph glyph-name="uni21A7" unicode="&#x21a7;" horiz-adv-x="1106" 
d="M552 -36l-480 482l172 172l158 -158l-2 690h-328v268h964v-268h-330v-688l158 156l172 -172z" />
    <glyph glyph-name="arrowupdnbse" unicode="&#x21a8;" horiz-adv-x="1106" 
d="M556 1418l480 -484l-172 -172l-156 158v-458l156 156l172 -172l-216 -216h216v-266h-964v266h216l-216 216l172 172l158 -158v460l-158 -158l-172 172z" />
    <glyph glyph-name="uni21AE" unicode="&#x21ae;" horiz-adv-x="1596" 
d="M72 692l422 440l172 -172l-108 -116h196l68 350h146l-68 -350h128l-96 96l172 172l422 -422l-422 -420l-172 172l96 96h-186l-74 -388h-148l76 388h-126l96 -96l-172 -172z" />
    <glyph glyph-name="uni21B0" unicode="&#x21b0;" horiz-adv-x="1130" 
d="M1058 1038l-442 -440l-172 172l142 132l-232 -2v-886h-282v1172h504l-132 122l172 172z" />
    <glyph glyph-name="uni21B1" unicode="&#x21b1;" horiz-adv-x="1130" 
d="M72 1038l442 442l172 -172l-132 -122h504v-1172h-282v886l-232 2l142 -132l-172 -172z" />
    <glyph glyph-name="uni21B2" unicode="&#x21b2;" horiz-adv-x="1130" 
d="M72 354l442 440l172 -172l-140 -130l230 2v884h282v-1172h-504l132 -122l-172 -172z" />
    <glyph glyph-name="uni21B3" unicode="&#x21b3;" horiz-adv-x="1130" 
d="M1058 354l-442 -442l-172 172l132 122h-504v1172h282v-884l230 -2l-140 130l172 172z" />
    <glyph glyph-name="uni21B4" unicode="&#x21b4;" horiz-adv-x="1650" 
d="M1096 50l-482 482l172 172l172 -184l-2 398h-884v282h1172v-670l162 174l174 -172z" />
    <glyph glyph-name="carriagereturn" unicode="&#x21b5;" horiz-adv-x="1294" 
d="M72 354l484 482l172 -172l-184 -172l396 2v884h282v-1172h-668l174 -162l-172 -174z" />
    <glyph glyph-name="uni21B6" unicode="&#x21b6;" horiz-adv-x="1774" 
d="M556 -36l-484 482l172 172l176 -188v88q0 282 174 457t454 175q135 0 256.5 -50t209 -135.5t139 -204t51.5 -250.5h-272q0 153 -114 261.5t-274 108.5t-259 -100t-99 -262v-92l180 192l172 -172z" />
    <glyph glyph-name="uni21B7" unicode="&#x21b7;" horiz-adv-x="1774" 
d="M344 510h-272q0 132 51.5 250.5t139 204t209 135.5t256.5 50q280 0 454 -175t174 -457v-88l176 188l172 -172l-484 -482l-482 482l172 172l180 -192v92q0 162 -99 262t-259 100t-274 -108.5t-114 -261.5z" />
    <glyph glyph-name="uni21BA" unicode="&#x21ba;" horiz-adv-x="1688" 
d="M714 344q164 0 266 100t102 262q0 98 -40 172l-112 -242l-220 104l290 618l618 -286l-104 -224l-184 86q44 -103 44 -226q0 -183 -85 -329t-236 -228.5t-339 -82.5q-185 0 -331.5 78.5t-228.5 218.5t-82 317q0 119 43 219.5t135 200.5l240 -158q-66 -63 -96 -125
t-30 -137q0 -151 97 -244.5t253 -93.5z" />
    <glyph glyph-name="uni21BB" unicode="&#x21bb;" horiz-adv-x="1688" 
d="M974 344q156 0 254 93.5t98 244.5q0 75 -30 137t-96 125l240 158q92 -100 135 -200.5t43 -219.5q0 -177 -82.5 -317t-229.5 -218.5t-332 -78.5q-188 0 -338.5 82.5t-235 228.5t-84.5 329q0 123 44 226l-184 -86l-104 224l618 286l288 -618l-218 -104l-112 242
q-40 -74 -40 -172q0 -162 101 -262t265 -100z" />
    <glyph glyph-name="uni21BC" unicode="&#x21bc;" horiz-adv-x="1596" 
d="M488 824h1038v-288h-1454v256l380 382l194 -194z" />
    <glyph glyph-name="uni21BD" unicode="&#x21bd;" horiz-adv-x="1596" 
d="M72 570v254h1454v-286h-1038l158 -158l-194 -192z" />
    <glyph glyph-name="uni21BE" unicode="&#x21be;" horiz-adv-x="780" 
d="M358 1022v-1038h-286v1454h256l380 -380l-192 -192z" />
    <glyph glyph-name="uni21BF" unicode="&#x21bf;" horiz-adv-x="780" 
d="M422 1022l-158 -156l-192 192l380 380h256v-1454h-286v1038z" />
    <glyph glyph-name="uni21C0" unicode="&#x21c0;" horiz-adv-x="1596" 
d="M1526 792v-256h-1454v288h1038l-158 156l192 194z" />
    <glyph glyph-name="uni21C1" unicode="&#x21c1;" horiz-adv-x="1596" 
d="M1526 570l-382 -382l-192 192l158 158h-1038v286h1454v-254z" />
    <glyph glyph-name="uni21C2" unicode="&#x21c2;" horiz-adv-x="780" 
d="M358 400l158 158l192 -192l-380 -382h-256v1454h286v-1038z" />
    <glyph glyph-name="uni21C3" unicode="&#x21c3;" horiz-adv-x="780" 
d="M422 400v1038h286v-1454h-256l-380 382l192 192z" />
    <glyph glyph-name="uni21C4" unicode="&#x21c4;" horiz-adv-x="1596" 
d="M1526 1002l-422 -420l-152 152l138 136h-1018v264h1018l-138 138l152 152zM72 422l422 420l152 -152l-140 -138h1020v-264h-1018l138 -136l-152 -152z" />
    <glyph glyph-name="uni21C5" unicode="&#x21c5;" horiz-adv-x="1566" 
d="M494 1438l420 -422l-152 -150l-138 140v-1022h-264v1018l-136 -136l-152 150zM1074 -16l-420 422l150 152l138 -138v1018h264v-1018l138 138l152 -152z" />
    </font>
</defs>
</svg>
