<?xml version="1.0" standalone="no"?>
<!DOCTYPE svg PUBLIC "-//W3C//DTD SVG 1.1//EN" "http://www.w3.org/Graphics/SVG/1.1/DTD/svg11.dtd" >
<svg xmlns="http://www.w3.org/2000/svg" xmlns:xlink="http://www.w3.org/1999/xlink" version="1.1">
<metadata>
Created by FontForge 20201107 at Mon Jul 14 14:24:47 2025
 By 
Copyright (c) 2023, Bao Nguyen (RandomMaerks) (rmforbusiness@gmail.com)
</metadata>
<defs>
<font id="OverusedGrotesk-SemiBold" horiz-adv-x="446" >
  <font-face 
    font-family="Overused Grotesk SemiBold"
    font-weight="600"
    font-stretch="normal"
    units-per-em="2048"
    panose-1="0 0 0 0 0 0 0 0 0 0"
    ascent="1638"
    descent="-410"
    x-height="1024"
    cap-height="1332"
    bbox="-212 -640 2662 2244"
    underline-thickness="102"
    underline-position="-254"
    unicode-range="U+0020-277E"
  />
<missing-glyph horiz-adv-x="1024" 
d="M102 -410v2048h820v-2048h-820zM204 -308h616v1844h-616v-1844z" />
    <glyph glyph-name=".notdef" horiz-adv-x="1024" 
d="M102 -410v2048h820v-2048h-820zM204 -308h616v1844h-616v-1844z" />
    <glyph glyph-name=".null" horiz-adv-x="0" 
 />
    <glyph glyph-name="nonmarkingreturn" horiz-adv-x="682" 
 />
    <glyph glyph-name="space" unicode=" " horiz-adv-x="408" 
 />
    <glyph glyph-name="exclam" unicode="!" 
d="M322 352h-196l-26 980h248zM362 0h-276v224h276v-224z" />
    <glyph glyph-name="quotedbl" unicode="&#x22;" horiz-adv-x="780" 
d="M454 1434h224l-30 -512h-194v512zM102 1434h226l-30 -512h-196v512z" />
    <glyph glyph-name="numbersign" unicode="#" horiz-adv-x="1462" 
d="M1278 500v-180h-270l-108 -320h-242l108 320h-304l-108 -320h-244l108 320h-156v180h218l112 332h-206v180h268l110 320h242l-110 -320h306l108 320h242l-110 -320h160v-180h-222l-112 -332h210zM522 500h304l114 332h-306z" />
    <glyph glyph-name="dollar" unicode="$" horiz-adv-x="1228" 
d="M564 1546h112v-200q192 -20 310 -128.5t136 -283.5h-240q-27 178 -206 208v-362l40 -4q218 -26 325 -123.5t107 -272.5q0 -174 -128.5 -281t-343.5 -115v-240h-112v244q-209 19 -335.5 129.5t-146.5 288.5h244q30 -187 238 -214v368l-72 8q-193 21 -296.5 118.5
t-103.5 261.5q0 178 126.5 285.5t345.5 116.5v196zM534 796l30 -4v354q-102 -6 -163 -56t-61 -128q0 -142 194 -166zM686 548l-10 2v-362q101 6 162.5 56.5t61.5 129.5q0 150 -214 174z" />
    <glyph glyph-name="percent" unicode="%" horiz-adv-x="1910" 
d="M70 946q0 188 100.5 302t265.5 114q162 0 261 -114.5t99 -301.5q0 -189 -99 -304.5t-261 -115.5q-165 0 -265.5 115.5t-100.5 304.5zM1120 1332h220l-546 -1332h-220zM596 946q0 114 -42 178t-118 64q-78 0 -122 -64t-44 -178q0 -117 44 -181.5t122 -64.5q76 0 118 64.5
t42 181.5zM1114 392q0 188 99.5 302t264.5 114q162 0 262 -114.5t100 -301.5q0 -189 -100 -304.5t-262 -115.5q-165 0 -264.5 115.5t-99.5 304.5zM1640 392q0 115 -42.5 178.5t-119.5 63.5q-78 0 -121 -63.5t-43 -178.5q0 -116 43 -181t121 -65q76 0 119 65t43 181z" />
    <glyph glyph-name="ampersand" unicode="&#x26;" horiz-adv-x="1350" 
d="M576 1348q177 0 289.5 -94t112.5 -244q0 -120 -67.5 -201t-202.5 -141l224 -242q45 99 60 230h232q-18 -228 -134 -398l240 -258h-286l-102 104q-160 -120 -368 -120q-222 0 -357 103t-135 273q0 85 34.5 151.5t92 111.5t145.5 85q-76 79 -114 150.5t-38 157.5
q0 147 104.5 239.5t269.5 92.5zM446 1010q0 -37 21 -76t45 -66t66 -68q88 43 133 91t45 119q0 68 -43.5 109t-116.5 41q-69 0 -109.5 -40.5t-40.5 -109.5zM334 376q0 -91 64.5 -141.5t183.5 -52.5q117 0 216 70l-320 328q-144 -74 -144 -204z" />
    <glyph glyph-name="quotesingle" unicode="'" horiz-adv-x="430" 
d="M102 1434h226l-30 -512h-196v512z" />
    <glyph glyph-name="parenleft" unicode="(" horiz-adv-x="604" 
d="M574 -274h-246q-119 124 -192.5 348.5t-73.5 493.5t73.5 493.5t192.5 348.5h246q-260 -260 -260 -842t260 -842z" />
    <glyph glyph-name="parenright" unicode=")" horiz-adv-x="604" 
d="M20 1410h248q119 -124 192.5 -348.5t73.5 -493.5t-73.5 -493.5t-192.5 -348.5h-248q262 259 262 842t-262 842z" />
    <glyph glyph-name="asterisk" unicode="*" horiz-adv-x="1120" 
d="M468 1434h184l-18 -416l386 150l56 -176l-396 -114l256 -316l-150 -108l-226 342l-226 -342l-150 108l256 318l-394 112l56 176l386 -148z" />
    <glyph glyph-name="plus" unicode="+" horiz-adv-x="1162" 
d="M692 718h408v-222h-408v-408h-222v408h-408v222h408v408h222v-408z" />
    <glyph glyph-name="comma" unicode="," 
d="M86 274h276v-274l-112 -316h-176l176 316h-164v274z" />
    <glyph glyph-name="hyphen" unicode="-" horiz-adv-x="998" 
d="M62 676h874v-220h-874v220z" />
    <glyph glyph-name="period" unicode="." 
d="M86 274h276v-274h-276v274z" />
    <glyph glyph-name="slash" unicode="/" horiz-adv-x="916" 
d="M574 1332h272l-504 -1332h-272z" />
    <glyph glyph-name="zero" unicode="0" horiz-adv-x="1218" 
d="M82 650q0 331 140.5 516.5t389.5 185.5q248 0 387 -185.5t139 -516.5q0 -315 -139 -490.5t-387 -175.5q-251 0 -390.5 175.5t-139.5 490.5zM886 650q0 478 -274 478q-278 0 -278 -478q0 -440 278 -440q274 0 274 440z" />
    <glyph glyph-name="one" unicode="1" horiz-adv-x="728" 
d="M382 1332h246v-1332h-246v902h-320v210h158q83 0 122.5 30.5t39.5 107.5v82z" />
    <glyph glyph-name="two" unicode="2" horiz-adv-x="1130" 
d="M378 222h662v-222h-958v50q0 75 14 141.5t35.5 116.5t56.5 96.5t68.5 78.5t81 64.5t84 53t86.5 45.5q11 5 31 16q56 29 83 43.5t67.5 42t59.5 50t34 55t15 69.5q0 101 -61.5 157.5t-170.5 56.5q-102 0 -164.5 -62.5t-67.5 -167.5h-252q14 197 145 319.5t327 122.5
q223 0 358.5 -117t135.5 -309q0 -64 -20 -121t-50 -98t-78 -80.5t-90.5 -66t-101.5 -56.5l-69 -36t-69 -36.5t-59.5 -34t-55.5 -38t-39.5 -38.5t-29 -45.5t-8.5 -49.5z" />
    <glyph glyph-name="three" unicode="3" horiz-adv-x="1140" 
d="M474 576v190h142q82 0 127 46t45 130q0 96 -58 149t-162 53q-96 0 -152.5 -53.5t-59.5 -146.5h-254q13 181 143.5 292.5t328.5 111.5q206 0 335 -108t129 -280q0 -197 -172 -288q92 -47 142 -126t50 -182q0 -171 -130 -275.5t-342 -104.5q-210 0 -349.5 113t-154.5 295
h252q6 -94 70 -148t168 -54q112 0 174 52t62 148q0 90 -50 138t-142 48h-142z" />
    <glyph glyph-name="four" unicode="4" horiz-adv-x="1170" 
d="M940 312v-312h-236v312h-642v260l572 760h306v-812h190v-208h-190zM704 520v540l-392 -540h392z" />
    <glyph glyph-name="five" unicode="5" horiz-adv-x="1140" 
d="M808 450q0 121 -65 190.5t-183 69.5q-80 0 -140.5 -31t-93.5 -89h-244l72 744h858v-212h-638l-40 -368q53 70 134 109t180 39q185 0 297.5 -125.5t112.5 -324.5q0 -215 -131 -341.5t-351 -126.5q-208 0 -344 111.5t-150 290.5h252q4 -87 67.5 -136.5t168.5 -49.5
q114 0 176 63.5t62 186.5z" />
    <glyph glyph-name="six" unicode="6" horiz-adv-x="1180" 
d="M82 676q0 318 143.5 497t398.5 179q183 0 306 -96t154 -264h-252q-31 166 -208 166q-140 0 -215 -115.5t-75 -332.5q0 -34 2 -48q43 97 138 153.5t212 56.5q180 0 297 -123.5t117 -312.5q0 -198 -130.5 -325t-335.5 -127q-254 0 -403 187t-149 505zM380 430
q0 -107 69.5 -178.5t174.5 -71.5q102 0 163 68.5t61 179.5q0 113 -61.5 180.5t-164.5 67.5q-108 0 -175 -68t-67 -178z" />
    <glyph glyph-name="seven" unicode="7" horiz-adv-x="1150" 
d="M612 0h-290q6 127 24 239t41 199t61 170.5t72 142t87 127t93 112.5t102 110h-720v232h988v-252q-114 -108 -193.5 -212.5t-140 -234t-91 -285.5t-33.5 -348z" />
    <glyph glyph-name="eight" unicode="8" horiz-adv-x="1140" 
d="M824 674q114 -40 174 -122.5t60 -195.5q0 -168 -134.5 -270t-353.5 -102t-353.5 102t-134.5 270q0 113 60.5 195.5t175.5 122.5q-95 42 -144.5 120t-49.5 182q0 166 123 269t323 103q201 0 324.5 -102.5t123.5 -269.5q0 -217 -194 -302zM580 768q93 0 145.5 49t52.5 139
q0 91 -54.5 141.5t-153.5 50.5q-97 0 -150.5 -50t-53.5 -142q0 -90 51 -139t145 -49h18zM580 572h-18q-109 0 -168.5 -50.5t-59.5 -143.5t61.5 -143.5t174.5 -50.5t175.5 50.5t62.5 143.5t-60 143.5t-168 50.5z" />
    <glyph glyph-name="nine" unicode="9" horiz-adv-x="1180" 
d="M1100 660q0 -318 -142.5 -497t-397.5 -179q-184 0 -307 96t-155 264h254q31 -166 206 -166q141 0 215.5 116t74.5 334q0 8 -1 23.5t-1 22.5q-44 -98 -138 -155t-212 -57q-180 0 -297 124.5t-117 313.5q0 198 130.5 325t335.5 127q254 0 403 -187t149 -505zM804 906
q0 108 -70.5 179t-175.5 71q-101 0 -162.5 -68t-61.5 -180q0 -111 62 -179.5t164 -68.5q109 0 176.5 68t67.5 178z" />
    <glyph glyph-name="colon" unicode=":" 
d="M86 1004h276v-274h-276v274zM86 274h276v-274h-276v274z" />
    <glyph glyph-name="semicolon" unicode=";" 
d="M86 1004h276v-274h-276v274zM86 274h276v-274l-112 -316h-176l176 316h-164v274z" />
    <glyph glyph-name="less" unicode="&#x3c;" horiz-adv-x="1188" 
d="M1128 1106v-258l-828 -258l828 -246v-262l-1064 374v278z" />
    <glyph glyph-name="equal" unicode="=" horiz-adv-x="1162" 
d="M1100 968v-210h-1038v210h1038zM1100 426v-212h-1038v212h1038z" />
    <glyph glyph-name="greater" unicode="&#x3e;" horiz-adv-x="1188" 
d="M64 82v258l826 258l-826 246v262l1064 -372v-278z" />
    <glyph glyph-name="question" unicode="?" horiz-adv-x="1130" 
d="M450 352q4 66 20 119t47 95.5t56 67.5t67 62q38 31 49.5 41.5t39.5 38.5t38.5 47.5t20.5 51t10 65.5q0 97 -62 151.5t-170 54.5q-102 0 -165 -63t-67 -169h-252q13 193 144 313.5t328 120.5q223 0 358.5 -111.5t135.5 -296.5q0 -53 -12 -99t-27.5 -77t-45.5 -65t-50 -52
t-57 -49q-39 -33 -58.5 -51.5t-46.5 -50.5t-40 -67t-17 -77h-244zM708 0h-274v224h274v-224z" />
    <glyph glyph-name="at" unicode="@" horiz-adv-x="1874" 
d="M1316 942v-502q0 -57 28 -87.5t82 -30.5q76 0 111 57t35 185q0 299 -166 471.5t-456 172.5q-301 0 -473.5 -174.5t-172.5 -479.5q0 -297 173.5 -464.5t478.5 -167.5q196 0 370 62v-204q-159 -62 -358 -62q-264 0 -465 103t-311 292.5t-110 438.5q0 255 108 451
t305.5 303.5t454.5 107.5q251 0 443 -105t296.5 -293t104.5 -430q0 -218 -96.5 -336t-269.5 -118q-254 0 -312 168q-41 -78 -106.5 -120t-149.5 -42q-146 0 -236 115t-90 303q0 187 90 301.5t236 114.5q155 0 240 -136v106h216zM754 556q0 -111 45 -172.5t127 -61.5
q83 0 128.5 61.5t45.5 172.5q0 110 -46 171t-128 61t-127 -61t-45 -171z" />
    <glyph glyph-name="A" unicode="A" horiz-adv-x="1324" 
d="M1274 0h-260l-100 298h-504l-96 -298h-262l472 1332h280zM660 1064l-184 -566h372z" />
    <glyph glyph-name="B" unicode="B" horiz-adv-x="1256" 
d="M740 1332q171 0 277.5 -93.5t106.5 -244.5q0 -100 -48.5 -178.5t-133.5 -119.5q113 -41 178.5 -132.5t65.5 -213.5q0 -156 -103 -253t-271 -97h-710v1332h638zM710 1120h-360v-336h360q74 0 118 47.5t44 126.5q0 75 -44 118.5t-118 43.5zM736 572h-386v-360h402
q83 0 132.5 47.5t49.5 126.5q0 85 -54 135.5t-144 50.5z" />
    <glyph glyph-name="C" unicode="C" horiz-adv-x="1346" 
d="M82 670q0 308 164 495t434 187q249 0 407.5 -130t176.5 -362h-252q-4 123 -94 195.5t-234 72.5q-166 0 -258 -120t-92 -338q0 -219 91.5 -339.5t258.5 -120.5q143 0 232 73t96 197h252q-13 -234 -174.5 -365t-409.5 -131q-269 0 -433.5 188.5t-164.5 497.5z" />
    <glyph glyph-name="D" unicode="D" horiz-adv-x="1318" 
d="M640 1332q269 0 433.5 -190t164.5 -500q0 -289 -153.5 -465.5t-404.5 -176.5h-578v1332h538zM350 1110v-888h310q155 0 240.5 110.5t85.5 309.5q0 223 -96 345.5t-270 122.5h-270z" />
    <glyph glyph-name="E" unicode="E" horiz-adv-x="1116" 
d="M1036 1332v-232h-686v-306h628v-232h-628v-330h686v-232h-934v1332h934z" />
    <glyph glyph-name="F" unicode="F" horiz-adv-x="1116" 
d="M1036 1332v-232h-686v-358h628v-232h-628v-510h-248v1332h934z" />
    <glyph glyph-name="G" unicode="G" horiz-adv-x="1366" 
d="M82 670q0 307 166.5 494.5t439.5 187.5q159 0 285.5 -57t203 -164.5t87.5 -250.5h-252q-11 115 -94.5 181.5t-221.5 66.5q-172 0 -267 -120t-95 -338q0 -219 91 -339.5t255 -120.5q136 0 221 86t97 232h-342v204h608v-732h-188l-12 218q-67 -111 -172 -172.5t-234 -61.5
q-259 0 -417.5 188.5t-158.5 497.5z" />
    <glyph glyph-name="H" unicode="H" horiz-adv-x="1300" 
d="M102 1332h248v-528h602v528h246v-1332h-246v572h-602v-572h-248v1332z" />
    <glyph glyph-name="I" unicode="I" 
d="M100 1332h248v-1332h-248v1332z" />
    <glyph glyph-name="J" unicode="J" horiz-adv-x="720" 
d="M44 222h144q90 0 138 53.5t48 184.5v872h244v-906q0 -211 -104 -318.5t-272 -107.5h-198v222z" />
    <glyph glyph-name="K" unicode="K" horiz-adv-x="1226" 
d="M102 1332h248v-640l526 640h310l-546 -644l566 -688h-290l-446 548l-120 -154v-394h-248v1332z" />
    <glyph glyph-name="L" unicode="L" horiz-adv-x="994" 
d="M932 0h-830v1332h248v-1100h582v-232z" />
    <glyph glyph-name="M" unicode="M" horiz-adv-x="1630" 
d="M928 0h-226l-352 986v-986h-248v1332h362l352 -990l344 990h368v-1332h-246v986z" />
    <glyph glyph-name="N" unicode="N" horiz-adv-x="1320" 
d="M974 1332h244v-1332h-258l-610 976v-976h-248v1332h308l564 -926v926z" />
    <glyph glyph-name="O" unicode="O" horiz-adv-x="1402" 
d="M82 650q0 316 170.5 509t449.5 193t449.5 -193t170.5 -509q0 -300 -170.5 -483t-449.5 -183t-449.5 183t-170.5 483zM1070 650q0 226 -97 352t-271 126q-175 0 -271.5 -125.5t-96.5 -352.5q0 -209 96.5 -324.5t271.5 -115.5q174 0 271 116t97 324z" />
    <glyph glyph-name="P" unicode="P" horiz-adv-x="1208" 
d="M692 456h-342v-456h-248v1332h566q211 0 339.5 -119.5t128.5 -316.5q0 -195 -121.5 -317.5t-322.5 -122.5zM646 1118h-296v-440h296q111 0 174.5 57.5t63.5 160.5q0 105 -62.5 163.5t-175.5 58.5z" />
    <glyph glyph-name="Q" unicode="Q" horiz-adv-x="1402" 
d="M82 650q0 316 170.5 509t449.5 193t449.5 -193t170.5 -509q-3 -238 -110 -406l150 -114l-130 -164l-166 128q-150 -110 -364 -110q-279 0 -449.5 183t-170.5 483zM1070 650q0 226 -97 352t-271 126q-175 0 -271.5 -125.5t-96.5 -352.5q0 -209 96.5 -324.5t271.5 -115.5
q96 0 168 36l-240 188l126 164l262 -202q52 104 52 254z" />
    <glyph glyph-name="R" unicode="R" horiz-adv-x="1214" 
d="M610 500h-260v-500h-248v1332h596q195 0 314.5 -106.5t119.5 -281.5q0 -121 -66 -209.5t-182 -128.5q103 -22 153 -90t65 -202l36 -314h-242l-34 290q-14 111 -72 160.5t-180 49.5zM662 1120h-312v-408h312q106 0 165 52.5t59 149.5t-59.5 151.5t-164.5 54.5z" />
    <glyph glyph-name="S" unicode="S" horiz-adv-x="1228" 
d="M686 538l-194 20q-194 21 -297 121t-103 269q0 186 136 294t370 108q225 0 364.5 -111t159.5 -305h-250q-18 110 -85 162t-191 52q-116 0 -186 -51t-70 -135q0 -132 194 -156l182 -20q432 -48 432 -406q0 -180 -137.5 -288t-364.5 -108q-242 0 -391.5 113.5t-172.5 308.5
h254q35 -218 312 -218q113 0 182.5 50.5t69.5 135.5q0 140 -214 164z" />
    <glyph glyph-name="T" unicode="T" horiz-adv-x="1126" 
d="M1066 1332v-232h-380v-1100h-244v1100h-380v232h1004z" />
    <glyph glyph-name="U" unicode="U" horiz-adv-x="1246" 
d="M92 1332h246v-816q0 -141 77 -218.5t217 -77.5q132 0 205 77.5t73 218.5v816h246v-816q0 -239 -144.5 -385.5t-379.5 -146.5q-243 0 -391.5 146t-148.5 386v816z" />
    <glyph glyph-name="V" unicode="V" horiz-adv-x="1324" 
d="M52 1332h260l352 -1062l348 1062h262l-472 -1332h-280z" />
    <glyph glyph-name="W" unicode="W" horiz-adv-x="2048" 
d="M52 1332h260l256 -1052l304 1052h300l304 -1052l262 1052h260l-380 -1332h-298l-302 1052l-292 -1052h-310z" />
    <glyph glyph-name="X" unicode="X" horiz-adv-x="1252" 
d="M52 1332h282l294 -532l292 532h282l-372 -668l372 -664h-282l-292 530l-296 -530h-280l372 666z" />
    <glyph glyph-name="Y" unicode="Y" horiz-adv-x="1252" 
d="M502 452l-450 880h274l302 -616l300 616h274l-456 -880v-452h-244v452z" />
    <glyph glyph-name="Z" unicode="Z" horiz-adv-x="1182" 
d="M92 1332h998v-252l-728 -868h728v-212h-998v252l726 868h-726v212z" />
    <glyph glyph-name="bracketleft" unicode="[" horiz-adv-x="604" 
d="M328 1182v-1216h236v-232h-482v1680h482v-232h-236z" />
    <glyph glyph-name="backslash" unicode="\" horiz-adv-x="916" 
d="M342 1332l504 -1332h-272l-504 1332h272z" />
    <glyph glyph-name="bracketright" unicode="]" horiz-adv-x="604" 
d="M276 -34v1216h-234v232h480v-1680h-480v232h234z" />
    <glyph glyph-name="asciicircum" unicode="^" horiz-adv-x="856" 
d="M310 1454h238l238 -430h-198l-158 312l-160 -312h-198z" />
    <glyph glyph-name="underscore" unicode="_" horiz-adv-x="1230" 
d="M62 0h1108v-186h-1108v186z" />
    <glyph glyph-name="grave" unicode="`" horiz-adv-x="690" 
d="M72 1454h300l248 -368h-198z" />
    <glyph glyph-name="a" unicode="a" horiz-adv-x="1104" 
d="M1002 666v-666h-246v160q-53 -87 -140 -135.5t-196 -48.5q-149 0 -244.5 89.5t-95.5 228.5q0 136 79.5 212.5t228.5 87.5l268 18q54 3 77 22.5t23 61.5v4q0 70 -57.5 119t-140.5 49q-195 0 -216 -166h-254q11 158 138.5 254t329.5 96q197 0 321.5 -108t124.5 -278z
M330 306q0 -63 49 -100.5t131 -37.5q104 0 175 70t71 174v36l-278 -16q-148 -12 -148 -126z" />
    <glyph glyph-name="b" unicode="b" horiz-adv-x="1188" 
d="M100 1434h248v-580q53 96 138 148t192 52q194 0 312 -147.5t118 -390.5q0 -244 -118 -393t-312 -149q-107 0 -192 52t-138 148v-174h-248v1434zM856 516q0 154 -67 239t-187 85q-121 0 -187.5 -84.5t-66.5 -239.5q0 -156 66.5 -242t187.5 -86q120 0 187 86t67 242z" />
    <glyph glyph-name="c" unicode="c" horiz-adv-x="1156" 
d="M80 516q0 243 139 390.5t367 147.5q207 0 342 -116t150 -314h-252q-3 105 -67 160.5t-173 55.5q-121 0 -187.5 -84.5t-66.5 -239.5q0 -156 67 -242t187 -86q107 0 171.5 51.5t68.5 148.5h252q-19 -193 -152.5 -303.5t-339.5 -110.5q-227 0 -366.5 149t-139.5 393z" />
    <glyph glyph-name="d" unicode="d" horiz-adv-x="1188" 
d="M1088 1434v-1434h-246v176q-55 -97 -139 -149.5t-191 -52.5q-194 0 -313 149t-119 393q0 243 119 390.5t313 147.5q107 0 191 -52t139 -148v580h246zM332 516q0 -156 67 -242t187 -86q122 0 189 86t67 242q0 154 -67 239t-189 85q-120 0 -187 -85t-67 -239z" />
    <glyph glyph-name="e" unicode="e" horiz-adv-x="1170" 
d="M80 516q0 244 134.5 386t363.5 142q223 0 367.5 -148t144.5 -378v-64h-756q12 -134 77.5 -203t180.5 -69q95 0 152.5 41t71.5 115h262q-31 -175 -155 -264.5t-333 -89.5q-234 0 -372 143t-138 389zM580 860q-207 0 -242 -236h488q-9 108 -75.5 172t-170.5 64z" />
    <glyph glyph-name="f" unicode="f" horiz-adv-x="706" 
d="M60 824v200h156v108q0 149 90 225.5t236 76.5h106v-200h-74q-56 0 -84 -26t-28 -90v-94h186v-200h-186v-824h-246v824h-156z" />
    <glyph glyph-name="g" unicode="g" horiz-adv-x="1188" 
d="M1088 1024v-1046q0 -173 -131.5 -278.5t-348.5 -105.5q-213 0 -352.5 96.5t-165.5 257.5h252q9 -74 77 -116t179 -42q116 0 180 52t64 146v230q-55 -93 -140.5 -143.5t-193.5 -50.5q-192 0 -310 142t-118 374q0 231 118 371.5t310 140.5q108 0 193.5 -50t140.5 -142v164
h246zM332 540q0 -142 67 -221t189 -79q121 0 187.5 78.5t66.5 221.5t-66.5 221.5t-187.5 78.5q-122 0 -189 -79t-67 -221z" />
    <glyph glyph-name="h" unicode="h" horiz-adv-x="1142" 
d="M798 594q0 119 -59 177.5t-165 58.5q-98 0 -162 -62.5t-64 -159.5v-608h-248v1434h248v-564q54 87 140.5 135.5t177.5 48.5q170 0 274 -107.5t104 -300.5v-646h-246v594z" />
    <glyph glyph-name="i" unicode="i" 
d="M86 1376h276v-222h-276v222zM100 1024h248v-1024h-248v1024z" />
    <glyph glyph-name="j" unicode="j" 
d="M86 1376h276v-222h-276v222zM-66 -142h64q51 0 76.5 26t25.5 90v1050h248v-1062q0 -159 -87 -241.5t-229 -82.5h-98v220z" />
    <glyph glyph-name="k" unicode="k" horiz-adv-x="1110" 
d="M736 1024h306l-402 -486l430 -538h-292l-318 398l-110 -134v-264h-248v1434h248v-906z" />
    <glyph glyph-name="l" unicode="l" 
d="M100 1434h248v-1434h-248v1434z" />
    <glyph glyph-name="m" unicode="m" horiz-adv-x="1756" 
d="M756 594q0 120 -53 178t-149 58q-89 0 -147.5 -62.5t-58.5 -159.5v-608h-248v1024h248v-148q51 84 132.5 131t165.5 47q115 0 201 -59t125 -169q50 107 140.5 167.5t189.5 60.5q158 0 256 -107.5t98 -300.5v-646h-244v594q0 119 -54 177.5t-150 58.5q-88 0 -147 -62.5
t-59 -159.5v-608h-246v594z" />
    <glyph glyph-name="n" unicode="n" horiz-adv-x="1142" 
d="M800 594q0 119 -59 177.5t-165 58.5q-98 0 -162 -62.5t-64 -159.5v-608h-248v1024h248v-154q54 87 140.5 135.5t177.5 48.5q170 0 274 -107.5t104 -300.5v-646h-246v594z" />
    <glyph glyph-name="o" unicode="o" horiz-adv-x="1174" 
d="M80 516q0 243 140 390.5t368 147.5t367 -147.5t139 -390.5q0 -244 -139 -393t-367 -149t-368 149t-140 393zM842 516q0 154 -67 239t-187 85q-122 0 -189 -85t-67 -239q0 -156 67 -242t189 -86q120 0 187 86t67 242z" />
    <glyph glyph-name="p" unicode="p" horiz-adv-x="1188" 
d="M100 1024h248v-170q53 96 138 148t192 52q194 0 312 -147.5t118 -390.5q0 -244 -118 -393t-312 -149q-107 0 -192 52t-138 148v-508h-248v1358zM856 516q0 154 -67 239t-187 85q-121 0 -187.5 -84.5t-66.5 -239.5q0 -156 66.5 -242t187.5 -86q120 0 187 86t67 242z" />
    <glyph glyph-name="q" unicode="q" horiz-adv-x="1188" 
d="M1088 1024v-1358h-246v510q-55 -97 -139 -149.5t-191 -52.5q-194 0 -313 149t-119 393q0 243 119 390.5t313 147.5q107 0 191 -52t139 -148v170h246zM332 516q0 -156 67 -242t187 -86q122 0 189 86t67 242q0 154 -67 239t-189 85q-120 0 -187 -85t-67 -239z" />
    <glyph glyph-name="r" unicode="r" horiz-adv-x="752" 
d="M100 1024h248v-162q49 86 122.5 134t151.5 48h60v-252h-58q-118 0 -197 -64t-79 -162v-566h-248v1024z" />
    <glyph glyph-name="s" unicode="s" horiz-adv-x="1080" 
d="M614 404l-186 22q-170 18 -254 93t-84 211q0 149 117 234.5t319 85.5q193 0 313.5 -89.5t138.5 -244.5h-242q-14 78 -65 115t-145 37q-85 0 -136.5 -34t-51.5 -90q0 -53 34 -80t106 -36l194 -20q170 -18 250 -96t80 -224q0 -141 -118 -225.5t-312 -84.5
q-213 0 -342.5 88.5t-149.5 241.5h254q13 -78 71 -114t165 -36q87 0 139.5 32.5t52.5 87.5q0 109 -148 126z" />
    <glyph glyph-name="t" unicode="t" horiz-adv-x="706" 
d="M648 212v-212h-106q-141 0 -226.5 77t-85.5 227v520h-170v200h170v266h246v-266h172v-200h-172v-488q0 -68 25 -96t73 -28h74z" />
    <glyph glyph-name="u" unicode="u" horiz-adv-x="1124" 
d="M348 430q0 -119 55.5 -176.5t156.5 -57.5q94 0 157 62.5t63 159.5v606h244v-1024h-244v154q-54 -87 -139 -135.5t-173 -48.5q-165 0 -266.5 108.5t-101.5 301.5v644h248v-594z" />
    <glyph glyph-name="v" unicode="v" horiz-adv-x="1148" 
d="M62 1024h260l256 -786l248 786h262l-372 -1024h-282z" />
    <glyph glyph-name="w" unicode="w" horiz-adv-x="1696" 
d="M62 1024h260l176 -766l208 766h282l206 -766l182 766h260l-310 -1024h-278l-204 764l-198 -764h-288z" />
    <glyph glyph-name="x" unicode="x" horiz-adv-x="1102" 
d="M62 1024h264l224 -382l228 382h264l-300 -508l300 -516h-264l-224 392l-226 -392h-266l302 518z" />
    <glyph glyph-name="y" unicode="y" horiz-adv-x="1168" 
d="M124 -126h134q67 0 104.5 24t59.5 82l20 52l-380 992h260l266 -754l258 754h262l-388 -1066q-60 -167 -149.5 -235.5t-250.5 -68.5h-196v220z" />
    <glyph glyph-name="z" unicode="z" horiz-adv-x="1008" 
d="M90 1024h828v-230l-548 -604h548v-190h-828v232l546 602h-546v190z" />
    <glyph glyph-name="braceleft" unicode="{" horiz-adv-x="604" 
d="M564 1192h-52q-54 0 -79 -27t-25 -87v-324q0 -67 -34.5 -113.5t-99.5 -66.5q65 -20 99.5 -66.5t34.5 -113.5v-324q0 -60 25 -87t79 -27h52v-222h-88q-143 0 -222.5 83t-79.5 231v324q0 50 -21 72t-67 22h-46v216h46q46 0 67 23t21 73v322q0 148 79.5 231t222.5 83h88
v-222z" />
    <glyph glyph-name="bar" unicode="|" 
d="M100 1640h248v-2050h-248v2050z" />
    <glyph glyph-name="braceright" unicode="}" horiz-adv-x="604" 
d="M40 -44h52q54 0 78 27t24 87v324q0 67 34.5 113.5t99.5 66.5q-65 20 -99.5 66.5t-34.5 113.5v324q0 60 -24 87t-78 27h-52v222h88q143 0 222.5 -83t79.5 -231v-322q0 -50 21 -73t67 -23h46v-216h-46q-46 0 -67 -22t-21 -72v-324q0 -148 -79.5 -231t-222.5 -83h-88v222z
" />
    <glyph glyph-name="asciitilde" unicode="~" horiz-adv-x="956" 
d="M290 1030q15 0 29.5 -1.5t26 -3.5t25.5 -7t22 -8t21.5 -11t18.5 -10.5t19 -12.5t16.5 -12t17.5 -13.5t16 -12.5q29 -23 43 -33.5t40 -21.5t51 -11q51 0 80.5 39t29.5 107h150q0 -157 -65 -245.5t-181 -88.5q-43 0 -81.5 13t-60 27t-52.5 38q-7 6 -32.5 27.5t-36 28.5
t-31 15.5t-40.5 8.5q-46 0 -73 -41t-27 -109h-154q0 163 59 250.5t169 87.5z" />
    <glyph glyph-name="uni00A0" unicode="&#xa0;" horiz-adv-x="408" 
 />
    <glyph glyph-name="exclamdown" unicode="&#xa1;" 
d="M86 1024h276v-222h-276v222zM126 674h196l26 -982h-248z" />
    <glyph glyph-name="cent" unicode="&#xa2;" horiz-adv-x="1156" 
d="M80 670q0 227 123 372.5t329 163.5v126h112v-126q184 -17 302.5 -131.5t131.5 -298.5h-242q-3 96 -54 153t-138 71v-664q86 12 137 64.5t55 141.5h242q-18 -180 -134 -288.5t-300 -123.5v-130h-112v130q-205 18 -328.5 164.5t-123.5 375.5zM320 670q1 -142 56 -228
t156 -106v664q-102 -18 -156 -103t-56 -227z" />
    <glyph glyph-name="sterling" unicode="&#xa3;" horiz-adv-x="1166" 
d="M78 744h174v186q0 188 114 303t300 115q179 0 298 -99t134 -261h-246q-7 73 -55.5 114.5t-126.5 41.5q-82 0 -127 -56.5t-45 -157.5v-186h400v-180h-400v-86q0 -81 -33 -150.5t-107 -105.5h736v-222h-1022v234q95 36 137.5 107t42.5 153v70h-174v180z" />
    <glyph glyph-name="currency" unicode="&#xa4;" horiz-adv-x="1094" 
d="M700 874l156 162l158 -158l-158 -152q34 -68 34 -152q0 -82 -38 -158l162 -156l-158 -156l-162 166q-65 -34 -146 -34q-83 0 -148 34l-162 -166l-156 156l162 156q-40 74 -40 158q0 80 36 152l-158 152l156 158l156 -160q75 36 152 36q81 0 154 -38zM382 574
q0 -83 44 -129.5t122 -46.5q76 0 120 47.5t44 128.5t-45 128.5t-121 47.5q-75 0 -119.5 -47.5t-44.5 -128.5z" />
    <glyph glyph-name="yen" unicode="&#xa5;" horiz-adv-x="1252" 
d="M186 310h316v112h-316v170h262l-396 740h274l302 -596l300 596h274l-402 -740h260v-170h-314v-112h314v-170h-314v-140h-244v140h-316v170z" />
    <glyph glyph-name="brokenbar" unicode="&#xa6;" 
d="M102 1640h244v-918h-244v918zM346 508v-918h-244v918h244z" />
    <glyph glyph-name="section" unicode="&#xa7;" horiz-adv-x="1080" 
d="M614 358l-186 20q-173 18 -255.5 75.5t-82.5 158.5q0 73 50.5 127t143.5 81q-194 65 -194 238q0 137 115 219.5t307 82.5q209 0 339.5 -85t150.5 -233h-254q-30 140 -226 140q-88 0 -140 -30.5t-52 -83.5q0 -75 140 -92l184 -20q173 -18 255.5 -76t82.5 -160
q0 -73 -45.5 -128.5t-128.5 -85.5q174 -68 174 -232q0 -136 -115 -218t-307 -82q-209 0 -339 84t-151 232h254q26 -138 228 -138q89 0 139.5 30t50.5 82q0 77 -138 94zM480 564l130 -16q62 6 98 36.5t36 79.5q0 46 -33 70.5t-109 33.5l-130 16q-62 -6 -98 -36t-36 -78
q0 -47 33 -71.5t109 -34.5z" />
    <glyph glyph-name="dieresis" unicode="&#xa8;" horiz-adv-x="844" 
d="M530 1278h254v-254h-254v254zM62 1278h254v-254h-254v254z" />
    <glyph glyph-name="copyright" unicode="&#xa9;" horiz-adv-x="1750" 
d="M1660 666q0 -228 -100 -405.5t-280.5 -275t-413.5 -97.5q-348 0 -561 208t-213 548q0 231 99.5 412.5t279.5 282.5t409 101q227 0 405 -97.5t276.5 -274t98.5 -402.5zM866 66q268 0 434 166.5t166 435.5q0 266 -162.5 429t-427.5 163q-266 0 -429 -165.5t-163 -436.5
q0 -267 160 -429.5t422 -162.5zM466 664q0 192 111.5 309t294.5 117q165 0 272.5 -92t119.5 -248h-210q-3 80 -51.5 123t-130.5 43q-93 0 -144.5 -65.5t-51.5 -186.5t51.5 -188.5t144.5 -67.5q81 0 129.5 38t52.5 110h210q-15 -150 -121 -236t-271 -86q-183 0 -294.5 118
t-111.5 312z" />
    <glyph glyph-name="ordfeminine" unicode="&#xaa;" horiz-adv-x="948" 
d="M850 764q0 -148 24 -232h-208q-12 51 -18 114q-46 -63 -114 -98.5t-146 -35.5q-135 0 -220.5 69.5t-85.5 178.5q0 98 67.5 157.5t184.5 68.5l214 18q53 5 75.5 18t22.5 42v6q0 51 -46 85.5t-112 34.5q-169 0 -184 -120h-214q11 128 118 204t278 76q156 0 260 -81
t104 -201v-304zM290 772q0 -45 39.5 -70.5t106.5 -25.5q91 0 150.5 52t59.5 132v18l-250 -20q-106 -9 -106 -86z" />
    <glyph glyph-name="guillemotleft" unicode="&#xab;" horiz-adv-x="1208" 
d="M1148 1106v-274l-334 -242l334 -240v-268l-512 374v278zM576 1106v-274l-334 -242l334 -240v-268l-512 374v278z" />
    <glyph glyph-name="logicalnot" unicode="&#xac;" horiz-adv-x="1182" 
d="M874 456h-812v220h1058v-478h-246v258z" />
    <glyph glyph-name="uni00AD" unicode="&#xad;" horiz-adv-x="820" 
d="M62 676h696v-220h-696v220z" />
    <glyph glyph-name="registered" unicode="&#xae;" horiz-adv-x="1750" 
d="M1660 666q0 -228 -100 -405.5t-280.5 -275t-413.5 -97.5q-348 0 -561 208t-213 548q0 231 99.5 412.5t279.5 282.5t409 101q227 0 405 -97.5t276.5 -274t98.5 -402.5zM866 66q268 0 434 166.5t166 435.5q0 266 -162.5 429t-427.5 163q-266 0 -429 -165.5t-163 -436.5
q0 -267 160 -429.5t422 -162.5zM894 536h-170v-264h-194v788h444q120 0 193 -62t73 -164q0 -71 -39 -126t-107 -82q61 -18 92 -61.5t42 -122.5l20 -170h-192l-18 146q-8 62 -41.5 90t-102.5 28zM930 902h-206v-212h206q54 0 85 30t31 84q0 46 -31 72t-85 26z" />
    <glyph glyph-name="macron" unicode="&#xaf;" horiz-adv-x="798" 
d="M62 1242h676v-188h-676v188z" />
    <glyph glyph-name="degree" unicode="&#xb0;" horiz-adv-x="768" 
d="M708 1048q0 -139 -90.5 -228.5t-231.5 -89.5q-143 0 -233.5 88.5t-90.5 229.5q0 139 90.5 227.5t231.5 88.5q143 0 233.5 -88.5t90.5 -227.5zM250 1048q0 -69 36.5 -107.5t99.5 -38.5q61 0 96.5 39t35.5 107q0 66 -36.5 105t-97.5 39t-97.5 -39t-36.5 -105z" />
    <glyph glyph-name="plusminus" unicode="&#xb1;" horiz-adv-x="1162" 
d="M692 768h408v-220h-408v-358h-222v358h-408v220h408v358h222v-358zM1100 102v-220h-1038v220h1038z" />
    <glyph glyph-name="uni00B2" unicode="&#xb2;" horiz-adv-x="842" 
d="M296 916h468v-170h-692v50q0 71 20 128t47.5 91.5t75 64.5t81 43.5t88.5 32.5q39 13 56.5 19.5t45.5 19t40.5 23.5t23 28.5t10.5 37.5q0 51 -34 79.5t-94 28.5q-66 0 -105.5 -33.5t-42.5 -90.5h-212q10 127 110 205.5t250 78.5q153 0 246.5 -74.5t93.5 -197.5
q0 -49 -20.5 -88.5t-61.5 -68.5t-78.5 -47.5t-93.5 -39.5q-11 -4 -37.5 -13.5t-38 -14t-33.5 -13t-32.5 -14t-26.5 -14t-24.5 -15.5t-17 -16.5t-12.5 -19.5z" />
    <glyph glyph-name="uni00B3" unicode="&#xb3;" horiz-adv-x="854" 
d="M364 1074v130h106q39 0 60.5 20.5t21.5 59.5q0 51 -35 79.5t-97 28.5q-58 0 -93 -29t-37 -77h-212q11 120 106 194t240 74q149 0 243.5 -67t94.5 -175q0 -121 -106 -172q126 -55 126 -184q0 -102 -93 -164t-245 -62q-155 0 -258.5 74t-113.5 192h212q4 -48 45 -75
t107 -27q65 0 100.5 24.5t35.5 69.5q0 41 -26.5 63.5t-75.5 22.5h-106z" />
    <glyph glyph-name="acute" unicode="&#xb4;" horiz-adv-x="618" 
d="M558 1384l-298 -360h-198l218 360h278z" />
    <glyph glyph-name="mu" unicode="&#xb5;" horiz-adv-x="1124" 
d="M348 430q0 -119 55.5 -176.5t156.5 -57.5q94 0 157 62.5t63 159.5v606h244v-1024h-244v154q-54 -87 -139 -135.5t-173 -48.5q-69 0 -120 20v-324h-248v1358h248v-594z" />
    <glyph glyph-name="paragraph" unicode="&#xb6;" horiz-adv-x="1220" 
d="M498 598q-192 0 -309 101.5t-117 268.5q0 164 117 264t309 100h610v-1332h-224v1114h-154v-1114h-232v598z" />
    <glyph glyph-name="periodcentered" unicode="&#xb7;" 
d="M86 810h276v-272h-276v272z" />
    <glyph glyph-name="cedilla" unicode="&#xb8;" horiz-adv-x="606" 
d="M200 20h146l-50 -132h30q98 0 159 -63t61 -163q0 -105 -82 -166.5t-220 -61.5h-182v184h166q57 0 86.5 23t29.5 65q0 68 -84 68h-68l-52 72z" />
    <glyph glyph-name="uni00B9" unicode="&#xb9;" horiz-adv-x="558" 
d="M272 1536h204v-790h-204v462h-220v168h92q66 0 97 23.5t31 84.5v52z" />
    <glyph glyph-name="ordmasculine" unicode="&#xba;" horiz-adv-x="948" 
d="M70 932q0 188 111.5 302t294.5 114q181 0 291.5 -114t110.5 -302q0 -189 -110.5 -304.5t-291.5 -115.5q-183 0 -294.5 115.5t-111.5 304.5zM678 932q0 115 -53 178.5t-149 63.5q-98 0 -152 -63.5t-54 -178.5q0 -116 54.5 -181t151.5 -65q96 0 149 65t53 181z" />
    <glyph glyph-name="guillemotright" unicode="&#xbb;" horiz-adv-x="1208" 
d="M64 82v274l332 242l-332 240v268l512 -372v-278zM636 82v274l334 242l-334 240v268l512 -372v-278z" />
    <glyph glyph-name="onequarter" unicode="&#xbc;" horiz-adv-x="1910" 
d="M388 1332h204v-792h-204v464h-220v168h90q68 0 99 23.5t31 84.5v52zM1120 1332h220l-546 -1332h-220zM1702 174v-174h-194v174h-416v180l374 436h236v-458h130v-158h-130zM1508 332v266l-214 -266h214z" />
    <glyph glyph-name="onehalf" unicode="&#xbd;" horiz-adv-x="1910" 
d="M388 1332h204v-792h-204v464h-220v168h90q68 0 99 23.5t31 84.5v52zM1120 1332h220l-546 -1332h-220zM1358 170h468v-170h-690v50q0 52 10.5 96t26 75.5t42 59.5t50 45.5t59.5 35t60 26.5t62 22q40 13 57 19t46 19t41.5 24t23 28.5t10.5 37.5q0 51 -34 79.5t-94 28.5
q-67 0 -107 -33.5t-43 -90.5h-210q11 128 110.5 207t249.5 79q153 0 245.5 -75.5t92.5 -198.5q0 -40 -15 -74t-37.5 -58t-58 -45.5t-67 -35.5t-74.5 -29q-11 -4 -43.5 -16t-44 -16.5t-36 -15t-35.5 -17t-26.5 -16.5t-24.5 -20t-14 -21z" />
    <glyph glyph-name="threequarters" unicode="&#xbe;" horiz-adv-x="1910" 
d="M364 868v130h106q39 0 60.5 21.5t21.5 60.5q0 49 -35 77.5t-97 28.5q-59 0 -94 -28.5t-36 -77.5h-212q11 120 106 195t240 75q149 0 243.5 -68t94.5 -176q0 -119 -106 -170q126 -55 126 -184q0 -102 -93.5 -165t-244.5 -63q-154 0 -257.5 74.5t-114.5 193.5h212
q4 -48 45 -75t107 -27q64 0 100 24t36 68q0 86 -102 86h-106zM1120 1332h220l-546 -1332h-220zM1702 174v-174h-194v174h-416v180l374 436h236v-458h130v-158h-130zM1508 332v266l-214 -266h214z" />
    <glyph glyph-name="questiondown" unicode="&#xbf;" horiz-adv-x="1130" 
d="M422 1024h276v-222h-276v222zM682 674q-4 -66 -20.5 -119.5t-47.5 -95.5t-56.5 -68t-67.5 -61q-4 -4 -23 -20.5t-24 -21t-21.5 -19.5t-21.5 -21.5t-17.5 -21t-17 -24t-12.5 -24.5t-11 -28t-5.5 -30t-2.5 -34q0 -99 61 -152.5t171 -53.5q102 0 164.5 62.5t67.5 167.5h250
q-14 -192 -144.5 -313t-325.5 -121q-223 0 -359.5 112.5t-136.5 297.5q0 52 12.5 98.5t27.5 77t46 65.5t50.5 52t57.5 49q37 30 58 50t47 51.5t39.5 67t17.5 77.5h244z" />
    <glyph glyph-name="Agrave" unicode="&#xc0;" horiz-adv-x="1324" 
d="M320 1794h280l216 -360h-196zM1274 0h-260l-100 298h-504l-96 -298h-262l472 1332h280zM660 1064l-184 -566h372z" />
    <glyph glyph-name="Aacute" unicode="&#xc1;" horiz-adv-x="1324" 
d="M1006 1794l-298 -360h-198l216 360h280zM1274 0h-260l-100 298h-504l-96 -298h-262l472 1332h280zM660 1064l-184 -566h372z" />
    <glyph glyph-name="Acircumflex" unicode="&#xc2;" horiz-adv-x="1324" 
d="M530 1804h238l310 -370h-238l-190 240l-190 -240h-240zM1274 0h-260l-100 298h-504l-96 -298h-262l472 1332h280zM660 1064l-184 -566h372z" />
    <glyph glyph-name="Atilde" unicode="&#xc3;" horiz-adv-x="1324" 
d="M466 1772q45 0 86.5 -16t60.5 -30t57 -44q52 -47 76 -58q23 -10 46 -10q51 0 80.5 39t29.5 107h150q0 -157 -65 -245.5t-181 -88.5q-41 0 -78.5 13.5t-57 27.5t-50.5 39q-8 7 -24.5 22t-25 22.5t-22.5 16.5t-27 13t-27 4q-46 0 -74 -41t-28 -109h-154q0 163 59 250.5
t169 87.5zM1274 0h-260l-100 298h-504l-96 -298h-262l472 1332h280zM660 1064l-184 -566h372z" />
    <glyph glyph-name="Adieresis" unicode="&#xc4;" horiz-adv-x="1324" 
d="M760 1688h254v-254h-254v254zM290 1688h256v-254h-256v254zM1274 0h-260l-100 298h-504l-96 -298h-262l472 1332h280zM660 1064l-184 -566h372z" />
    <glyph glyph-name="Aring" unicode="&#xc5;" horiz-adv-x="1324" 
d="M1274 0h-260l-100 298h-504l-96 -298h-262l432 1224q-64 38 -99 104t-35 152q0 133 82.5 214.5t217.5 81.5q137 0 220 -81.5t82 -216.5q3 -158 -116 -242zM518 1480q0 -66 35.5 -103t98.5 -37t97.5 37t34.5 103t-35 102t-99 36q-62 0 -97 -36t-35 -102zM660 1064
l-184 -566h372z" />
    <glyph glyph-name="AE" unicode="&#xc6;" horiz-adv-x="1958" 
d="M1866 1332v-232h-686v-306h628v-232h-628v-330h686v-232h-932v298h-488l-136 -298h-258l600 1332h1214zM526 498h408v608h-136z" />
    <glyph glyph-name="Ccedilla" unicode="&#xc7;" horiz-adv-x="1346" 
d="M82 670q0 308 164 495t434 187q249 0 407.5 -130t176.5 -362h-252q-4 123 -94 195.5t-234 72.5q-166 0 -258 -120t-92 -338q0 -219 91.5 -339.5t258.5 -120.5q143 0 232 73t96 197h252q-13 -221 -157.5 -350.5t-370.5 -143.5l-36 -98h30q97 0 157.5 -62.5t60.5 -163.5
q0 -105 -81.5 -166.5t-218.5 -61.5h-182v184h166q57 0 86.5 23t29.5 65q0 33 -22.5 50.5t-61.5 17.5h-70l-50 72l48 144q-232 30 -371 214t-139 466z" />
    <glyph glyph-name="Egrave" unicode="&#xc8;" horiz-adv-x="1116" 
d="M252 1794h278l218 -360h-198zM1036 1332v-232h-686v-306h628v-232h-628v-330h686v-232h-934v1332h934z" />
    <glyph glyph-name="Eacute" unicode="&#xc9;" horiz-adv-x="1116" 
d="M938 1794l-300 -360h-198l218 360h280zM1036 1332v-232h-686v-306h628v-232h-628v-330h686v-232h-934v1332h934z" />
    <glyph glyph-name="Ecircumflex" unicode="&#xca;" horiz-adv-x="1116" 
d="M460 1804h240l308 -370h-238l-188 240l-192 -240h-238zM1036 1332v-232h-686v-306h628v-232h-628v-330h686v-232h-934v1332h934z" />
    <glyph glyph-name="Edieresis" unicode="&#xcb;" horiz-adv-x="1116" 
d="M690 1688h254v-254h-254v254zM222 1688h254v-254h-254v254zM1036 1332v-232h-686v-306h628v-232h-628v-330h686v-232h-934v1332h934z" />
    <glyph glyph-name="Igrave" unicode="&#xcc;" 
d="M-112 1794h280l216 -360h-196zM100 1332h248v-1332h-248v1332z" />
    <glyph glyph-name="Iacute" unicode="&#xcd;" 
d="M574 1794l-298 -360h-198l216 360h280zM100 1332h248v-1332h-248v1332z" />
    <glyph glyph-name="Icircumflex" unicode="&#xce;" 
d="M98 1804h238l310 -370h-238l-190 240l-190 -240h-240zM100 1332h248v-1332h-248v1332z" />
    <glyph glyph-name="Idieresis" unicode="&#xcf;" 
d="M328 1688h254v-254h-254v254zM-142 1688h256v-254h-256v254zM100 1332h248v-1332h-248v1332z" />
    <glyph glyph-name="Eth" unicode="&#xd0;" horiz-adv-x="1478" 
d="M62 762h200v570h538q269 0 433.5 -190t164.5 -500q0 -289 -153.5 -465.5t-404.5 -176.5h-578v552h-200v210zM508 1110v-348h336v-210h-336v-330h312q154 0 239 110t85 310q0 223 -96 345.5t-270 122.5h-270z" />
    <glyph glyph-name="Ntilde" unicode="&#xd1;" horiz-adv-x="1320" 
d="M478 1772q35 0 64 -6.5t57.5 -24t40 -26t42.5 -33.5q52 -47 76 -58q23 -10 46 -10q51 0 81.5 39.5t30.5 106.5h148q0 -157 -65 -245.5t-181 -88.5q-40 0 -77 13.5t-56.5 27.5t-50.5 39q-4 4 -29 26.5t-33.5 28.5t-28 14.5t-37.5 8.5q-46 0 -73 -41t-27 -109h-154
q0 163 59 250.5t167 87.5zM974 1332h244v-1332h-258l-610 976v-976h-248v1332h308l564 -926v926z" />
    <glyph glyph-name="Ograve" unicode="&#xd2;" horiz-adv-x="1402" 
d="M364 1794h280l216 -360h-196zM82 650q0 316 170.5 509t449.5 193t449.5 -193t170.5 -509q0 -300 -170.5 -483t-449.5 -183t-449.5 183t-170.5 483zM1070 650q0 226 -97 352t-271 126q-175 0 -271.5 -125.5t-96.5 -352.5q0 -209 96.5 -324.5t271.5 -115.5q174 0 271 116
t97 324z" />
    <glyph glyph-name="Oacute" unicode="&#xd3;" horiz-adv-x="1402" 
d="M1050 1794l-298 -360h-198l216 360h280zM82 650q0 316 170.5 509t449.5 193t449.5 -193t170.5 -509q0 -300 -170.5 -483t-449.5 -183t-449.5 183t-170.5 483zM1070 650q0 226 -97 352t-271 126q-175 0 -271.5 -125.5t-96.5 -352.5q0 -209 96.5 -324.5t271.5 -115.5
q174 0 271 116t97 324z" />
    <glyph glyph-name="Ocircumflex" unicode="&#xd4;" horiz-adv-x="1402" 
d="M574 1804h238l310 -370h-238l-190 240l-190 -240h-240zM82 650q0 316 170.5 509t449.5 193t449.5 -193t170.5 -509q0 -300 -170.5 -483t-449.5 -183t-449.5 183t-170.5 483zM1070 650q0 226 -97 352t-271 126q-175 0 -271.5 -125.5t-96.5 -352.5q0 -209 96.5 -324.5
t271.5 -115.5q174 0 271 116t97 324z" />
    <glyph glyph-name="Otilde" unicode="&#xd5;" horiz-adv-x="1402" 
d="M510 1772q45 0 86.5 -16t60.5 -30t57 -44q52 -47 76 -58q23 -10 46 -10q51 0 80.5 39t29.5 107h150q0 -157 -65 -245.5t-181 -88.5q-41 0 -78.5 13.5t-57 27.5t-50.5 39q-8 7 -24.5 22t-25 22.5t-22.5 16.5t-27 13t-27 4q-46 0 -74 -41t-28 -109h-154q0 163 59 250.5
t169 87.5zM82 650q0 316 170.5 509t449.5 193t449.5 -193t170.5 -509q0 -300 -170.5 -483t-449.5 -183t-449.5 183t-170.5 483zM1070 650q0 226 -97 352t-271 126q-175 0 -271.5 -125.5t-96.5 -352.5q0 -209 96.5 -324.5t271.5 -115.5q174 0 271 116t97 324z" />
    <glyph glyph-name="Odieresis" unicode="&#xd6;" horiz-adv-x="1402" 
d="M804 1688h254v-254h-254v254zM334 1688h256v-254h-256v254zM82 650q0 316 170.5 509t449.5 193t449.5 -193t170.5 -509q0 -300 -170.5 -483t-449.5 -183t-449.5 183t-170.5 483zM1070 650q0 226 -97 352t-271 126q-175 0 -271.5 -125.5t-96.5 -352.5q0 -209 96.5 -324.5
t271.5 -115.5q174 0 271 116t97 324z" />
    <glyph glyph-name="multiply" unicode="&#xd7;" horiz-adv-x="1162" 
d="M582 752l308 322l156 -158l-318 -308l318 -310l-156 -156l-308 318l-310 -318l-156 156l318 310l-318 308l156 158z" />
    <glyph glyph-name="Oslash" unicode="&#xd8;" horiz-adv-x="1402" 
d="M82 650q0 316 170.5 509t449.5 193q199 0 352 -106l132 168l136 -112l-142 -178q142 -189 142 -474q0 -300 -170.5 -483t-449.5 -183q-202 0 -352 100l-132 -166l-136 114l138 172q-138 179 -138 446zM334 650q0 -145 46 -246l528 660q-85 64 -206 64
q-175 0 -271.5 -125.5t-96.5 -352.5zM1070 650q0 162 -52 272l-522 -656q83 -56 206 -56q174 0 271 116t97 324z" />
    <glyph glyph-name="Ugrave" unicode="&#xd9;" horiz-adv-x="1246" 
d="M286 1794h278l218 -360h-198zM92 1332h246v-816q0 -141 77 -218.5t217 -77.5q132 0 205 77.5t73 218.5v816h246v-816q0 -239 -144.5 -385.5t-379.5 -146.5q-243 0 -391.5 146t-148.5 386v816z" />
    <glyph glyph-name="Uacute" unicode="&#xda;" horiz-adv-x="1246" 
d="M972 1794l-300 -360h-198l218 360h280zM92 1332h246v-816q0 -141 77 -218.5t217 -77.5q132 0 205 77.5t73 218.5v816h246v-816q0 -239 -144.5 -385.5t-379.5 -146.5q-243 0 -391.5 146t-148.5 386v816z" />
    <glyph glyph-name="Ucircumflex" unicode="&#xdb;" horiz-adv-x="1246" 
d="M494 1804h240l308 -370h-238l-188 240l-192 -240h-238zM92 1332h246v-816q0 -141 77 -218.5t217 -77.5q132 0 205 77.5t73 218.5v816h246v-816q0 -239 -144.5 -385.5t-379.5 -146.5q-243 0 -391.5 146t-148.5 386v816z" />
    <glyph glyph-name="Udieresis" unicode="&#xdc;" horiz-adv-x="1246" 
d="M724 1688h254v-254h-254v254zM256 1688h254v-254h-254v254zM92 1332h246v-816q0 -141 77 -218.5t217 -77.5q132 0 205 77.5t73 218.5v816h246v-816q0 -239 -144.5 -385.5t-379.5 -146.5q-243 0 -391.5 146t-148.5 386v816z" />
    <glyph glyph-name="Yacute" unicode="&#xdd;" horiz-adv-x="1252" 
d="M982 1794l-298 -360h-198l216 360h280zM502 452l-450 880h274l302 -616l300 616h274l-456 -880v-452h-244v452z" />
    <glyph glyph-name="Thorn" unicode="&#xde;" horiz-adv-x="1208" 
d="M100 1332h248v-208h320q211 0 339.5 -119.5t128.5 -316.5q0 -194 -121.5 -316t-322.5 -122h-342v-250h-250v1332zM350 912v-442h296q111 0 174.5 58t63.5 160q0 106 -62.5 165t-175.5 59h-296z" />
    <glyph glyph-name="germandbls" unicode="&#xdf;" horiz-adv-x="1218" 
d="M638 1238q-135 0 -211.5 -81.5t-76.5 -222.5v-934h-248v948q0 222 147.5 362t388.5 140q199 0 338.5 -118t139.5 -286q0 -108 -52 -191.5t-146 -130.5q105 -49 162.5 -135t57.5 -199q0 -175 -125 -282.5t-329 -107.5h-174v216h154q111 0 171.5 53.5t60.5 152.5
q0 94 -58.5 146t-163.5 52h-112v204h112q96 0 148 54.5t52 153.5q0 90 -67 148t-169 58z" />
    <glyph glyph-name="agrave" unicode="&#xe0;" horiz-adv-x="1104" 
d="M214 1506h280l216 -360h-196zM1002 666v-666h-246v160q-53 -87 -140 -135.5t-196 -48.5q-149 0 -244.5 89.5t-95.5 228.5q0 136 79.5 212.5t228.5 87.5l268 18q54 3 77 22.5t23 61.5v4q0 70 -57.5 119t-140.5 49q-195 0 -216 -166h-254q11 158 138.5 254t329.5 96
q197 0 321.5 -108t124.5 -278zM330 306q0 -63 49 -100.5t131 -37.5q104 0 175 70t71 174v36l-278 -16q-148 -12 -148 -126z" />
    <glyph glyph-name="aacute" unicode="&#xe1;" horiz-adv-x="1104" 
d="M900 1506l-298 -360h-198l216 360h280zM1002 666v-666h-246v160q-53 -87 -140 -135.5t-196 -48.5q-149 0 -244.5 89.5t-95.5 228.5q0 136 79.5 212.5t228.5 87.5l268 18q54 3 77 22.5t23 61.5v4q0 70 -57.5 119t-140.5 49q-195 0 -216 -166h-254q11 158 138.5 254
t329.5 96q197 0 321.5 -108t124.5 -278zM330 306q0 -63 49 -100.5t131 -37.5q104 0 175 70t71 174v36l-278 -16q-148 -12 -148 -126z" />
    <glyph glyph-name="acircumflex" unicode="&#xe2;" horiz-adv-x="1104" 
d="M424 1516h238l310 -370h-238l-190 240l-190 -240h-240zM1002 666v-666h-246v160q-53 -87 -140 -135.5t-196 -48.5q-149 0 -244.5 89.5t-95.5 228.5q0 136 79.5 212.5t228.5 87.5l268 18q54 3 77 22.5t23 61.5v4q0 70 -57.5 119t-140.5 49q-195 0 -216 -166h-254
q11 158 138.5 254t329.5 96q197 0 321.5 -108t124.5 -278zM330 306q0 -63 49 -100.5t131 -37.5q104 0 175 70t71 174v36l-278 -16q-148 -12 -148 -126z" />
    <glyph glyph-name="atilde" unicode="&#xe3;" horiz-adv-x="1104" 
d="M360 1484q45 0 86.5 -16t60.5 -30t57 -44q52 -47 76 -58q23 -10 46 -10q51 0 80.5 39t29.5 107h150q0 -157 -65 -245.5t-181 -88.5q-41 0 -78.5 13.5t-57 27.5t-50.5 39q-8 7 -24.5 22t-25 22.5t-22.5 16.5t-27 13t-27 4q-46 0 -74 -41t-28 -109h-154q0 163 59 250.5
t169 87.5zM1002 666v-666h-246v160q-53 -87 -140 -135.5t-196 -48.5q-149 0 -244.5 89.5t-95.5 228.5q0 136 79.5 212.5t228.5 87.5l268 18q54 3 77 22.5t23 61.5v4q0 70 -57.5 119t-140.5 49q-195 0 -216 -166h-254q11 158 138.5 254t329.5 96q197 0 321.5 -108t124.5 -278
zM330 306q0 -63 49 -100.5t131 -37.5q104 0 175 70t71 174v36l-278 -16q-148 -12 -148 -126z" />
    <glyph glyph-name="adieresis" unicode="&#xe4;" horiz-adv-x="1104" 
d="M654 1400h254v-254h-254v254zM184 1400h256v-254h-256v254zM1002 666v-666h-246v160q-53 -87 -140 -135.5t-196 -48.5q-149 0 -244.5 89.5t-95.5 228.5q0 136 79.5 212.5t228.5 87.5l268 18q54 3 77 22.5t23 61.5v4q0 70 -57.5 119t-140.5 49q-195 0 -216 -166h-254
q11 158 138.5 254t329.5 96q197 0 321.5 -108t124.5 -278zM330 306q0 -63 49 -100.5t131 -37.5q104 0 175 70t71 174v36l-278 -16q-148 -12 -148 -126z" />
    <glyph glyph-name="aring" unicode="&#xe5;" horiz-adv-x="1104" 
d="M848 1430q0 -133 -83.5 -215.5t-218.5 -82.5q-136 0 -219 82t-83 216q0 133 82.5 214.5t217.5 81.5q137 0 220.5 -81.5t83.5 -214.5zM412 1430q0 -66 35.5 -103t98.5 -37t97.5 37t34.5 103t-35 102t-99 36q-62 0 -97 -36t-35 -102zM1002 666v-666h-246v160
q-53 -87 -140 -135.5t-196 -48.5q-149 0 -244.5 89.5t-95.5 228.5q0 136 79.5 212.5t228.5 87.5l268 18q54 3 77 22.5t23 61.5v4q0 70 -57.5 119t-140.5 49q-195 0 -216 -166h-254q11 158 138.5 254t329.5 96q197 0 321.5 -108t124.5 -278zM330 306q0 -63 49 -100.5
t131 -37.5q104 0 175 70t71 174v36l-278 -16q-148 -12 -148 -126z" />
    <glyph glyph-name="ae" unicode="&#xe6;" horiz-adv-x="1846" 
d="M1292 -16q-158 0 -272 73t-168 207q-42 -133 -154.5 -210.5t-267.5 -77.5q-152 0 -251 89.5t-99 228.5q0 135 79.5 211t228.5 85l268 18q54 3 77 22.5t23 61.5v4q0 70 -59 119t-143 49q-191 0 -212 -166h-254q11 161 128.5 257.5t301.5 96.5q131 0 231 -50t153 -140
q129 182 378 182q212 0 349 -148.5t137 -377.5v-64h-756q27 -272 258 -272q95 0 152 40.5t72 115.5h262q-30 -175 -147.5 -264.5t-314.5 -89.5zM1256 860q-208 0 -240 -236h486q-10 108 -77 172t-169 64zM330 314q0 -63 49.5 -100.5t130.5 -37.5q105 0 175.5 70t70.5 174v36
l-278 -16q-148 -9 -148 -126z" />
    <glyph glyph-name="ccedilla" unicode="&#xe7;" horiz-adv-x="1156" 
d="M80 516q0 243 139 390.5t367 147.5q207 0 342 -116t150 -314h-252q-3 105 -67 160.5t-173 55.5q-121 0 -187.5 -84.5t-66.5 -239.5q0 -156 67 -242t187 -86q107 0 171.5 51.5t68.5 148.5h252q-18 -176 -130 -284t-290 -126l-34 -90h32q97 0 157.5 -62.5t60.5 -163.5
q0 -105 -82 -166.5t-220 -61.5h-182v184h166q57 0 87.5 23t30.5 65q0 33 -22.5 50.5t-63.5 17.5h-68l-50 72l44 132q-198 24 -316 169t-118 369z" />
    <glyph glyph-name="egrave" unicode="&#xe8;" horiz-adv-x="1170" 
d="M244 1506h278l218 -360h-198zM80 516q0 244 134.5 386t363.5 142q223 0 367.5 -148t144.5 -378v-64h-756q12 -134 77.5 -203t180.5 -69q95 0 152.5 41t71.5 115h262q-31 -175 -155 -264.5t-333 -89.5q-234 0 -372 143t-138 389zM580 860q-207 0 -242 -236h488
q-9 108 -75.5 172t-170.5 64z" />
    <glyph glyph-name="eacute" unicode="&#xe9;" horiz-adv-x="1170" 
d="M930 1506l-300 -360h-198l218 360h280zM80 516q0 244 134.5 386t363.5 142q223 0 367.5 -148t144.5 -378v-64h-756q12 -134 77.5 -203t180.5 -69q95 0 152.5 41t71.5 115h262q-31 -175 -155 -264.5t-333 -89.5q-234 0 -372 143t-138 389zM580 860q-207 0 -242 -236h488
q-9 108 -75.5 172t-170.5 64z" />
    <glyph glyph-name="ecircumflex" unicode="&#xea;" horiz-adv-x="1170" 
d="M452 1516h240l308 -370h-238l-188 240l-192 -240h-238zM80 516q0 244 134.5 386t363.5 142q223 0 367.5 -148t144.5 -378v-64h-756q12 -134 77.5 -203t180.5 -69q95 0 152.5 41t71.5 115h262q-31 -175 -155 -264.5t-333 -89.5q-234 0 -372 143t-138 389zM580 860
q-207 0 -242 -236h488q-9 108 -75.5 172t-170.5 64z" />
    <glyph glyph-name="edieresis" unicode="&#xeb;" horiz-adv-x="1170" 
d="M682 1400h254v-254h-254v254zM214 1400h254v-254h-254v254zM80 516q0 244 134.5 386t363.5 142q223 0 367.5 -148t144.5 -378v-64h-756q12 -134 77.5 -203t180.5 -69q95 0 152.5 41t71.5 115h262q-31 -175 -155 -264.5t-333 -89.5q-234 0 -372 143t-138 389zM580 860
q-207 0 -242 -236h488q-9 108 -75.5 172t-170.5 64z" />
    <glyph glyph-name="igrave" unicode="&#xec;" 
d="M-112 1506h280l216 -360h-196zM100 1024h248v-1024h-248v1024z" />
    <glyph glyph-name="iacute" unicode="&#xed;" 
d="M574 1506l-298 -360h-198l216 360h280zM100 1024h248v-1024h-248v1024z" />
    <glyph glyph-name="icircumflex" unicode="&#xee;" 
d="M98 1516h238l310 -370h-238l-190 240l-190 -240h-240zM100 1024h248v-1024h-248v1024z" />
    <glyph glyph-name="idieresis" unicode="&#xef;" 
d="M328 1400h254v-254h-254v254zM-142 1400h256v-254h-256v254zM100 1024h248v-1024h-248v1024z" />
    <glyph glyph-name="eth" unicode="&#xf0;" horiz-adv-x="1242" 
d="M470 1264l246 30q-55 72 -126 140h284q48 -51 90 -108l218 28v-170l-122 -16q102 -204 102 -444q0 -336 -154.5 -538t-411.5 -202q-228 0 -371 148t-143 382q0 222 124 368t314 146q130 0 235 -73.5t153 -196.5q2 20 2 46q0 156 -94 334l-346 -44v170zM864 512
q0 136 -74.5 222t-193.5 86t-190.5 -86t-71.5 -228q0 -143 70.5 -229.5t185.5 -86.5q120 0 197 91t77 231z" />
    <glyph glyph-name="ntilde" unicode="&#xf1;" horiz-adv-x="1142" 
d="M392 1484q45 0 86.5 -16t60.5 -30t57 -44q52 -47 76 -58q23 -10 46 -10q51 0 80.5 39t29.5 107h150q0 -157 -65 -245.5t-181 -88.5q-41 0 -78.5 13.5t-57 27.5t-50.5 39q-8 7 -24.5 22t-25 22.5t-22.5 16.5t-27 13t-27 4q-46 0 -74 -41t-28 -109h-154q0 163 59 250.5
t169 87.5zM800 594q0 119 -59 177.5t-165 58.5q-98 0 -162 -62.5t-64 -159.5v-608h-248v1024h248v-154q54 87 140.5 135.5t177.5 48.5q170 0 274 -107.5t104 -300.5v-646h-246v594z" />
    <glyph glyph-name="ograve" unicode="&#xf2;" horiz-adv-x="1174" 
d="M248 1506h278l218 -360h-198zM80 516q0 243 140 390.5t368 147.5t367 -147.5t139 -390.5q0 -244 -139 -393t-367 -149t-368 149t-140 393zM842 516q0 154 -67 239t-187 85q-122 0 -189 -85t-67 -239q0 -156 67 -242t189 -86q120 0 187 86t67 242z" />
    <glyph glyph-name="oacute" unicode="&#xf3;" horiz-adv-x="1174" 
d="M934 1506l-300 -360h-198l218 360h280zM80 516q0 243 140 390.5t368 147.5t367 -147.5t139 -390.5q0 -244 -139 -393t-367 -149t-368 149t-140 393zM842 516q0 154 -67 239t-187 85q-122 0 -189 -85t-67 -239q0 -156 67 -242t189 -86q120 0 187 86t67 242z" />
    <glyph glyph-name="ocircumflex" unicode="&#xf4;" horiz-adv-x="1174" 
d="M456 1516h240l308 -370h-238l-188 240l-192 -240h-238zM80 516q0 243 140 390.5t368 147.5t367 -147.5t139 -390.5q0 -244 -139 -393t-367 -149t-368 149t-140 393zM842 516q0 154 -67 239t-187 85q-122 0 -189 -85t-67 -239q0 -156 67 -242t189 -86q120 0 187 86t67 242
z" />
    <glyph glyph-name="otilde" unicode="&#xf5;" horiz-adv-x="1174" 
d="M392 1484q35 0 64 -6.5t57.5 -24t40 -26t42.5 -33.5q52 -47 76 -58q23 -10 46 -10q51 0 81.5 39.5t30.5 106.5h148q0 -157 -65 -245.5t-181 -88.5q-40 0 -77 13.5t-56.5 27.5t-50.5 39q-4 4 -29 26.5t-33.5 28.5t-28 14.5t-37.5 8.5q-46 0 -73 -41t-27 -109h-154
q0 163 59 250.5t167 87.5zM80 516q0 243 140 390.5t368 147.5t367 -147.5t139 -390.5q0 -244 -139 -393t-367 -149t-368 149t-140 393zM842 516q0 154 -67 239t-187 85q-122 0 -189 -85t-67 -239q0 -156 67 -242t189 -86q120 0 187 86t67 242z" />
    <glyph glyph-name="odieresis" unicode="&#xf6;" horiz-adv-x="1174" 
d="M686 1400h254v-254h-254v254zM218 1400h254v-254h-254v254zM80 516q0 243 140 390.5t368 147.5t367 -147.5t139 -390.5q0 -244 -139 -393t-367 -149t-368 149t-140 393zM842 516q0 154 -67 239t-187 85q-122 0 -189 -85t-67 -239q0 -156 67 -242t189 -86q120 0 187 86
t67 242z" />
    <glyph glyph-name="divide" unicode="&#xf7;" horiz-adv-x="998" 
d="M384 1088h232v-244h-232v244zM62 666h874v-200h-874v200zM384 266h232v-242h-232v242z" />
    <glyph glyph-name="oslash" unicode="&#xf8;" horiz-adv-x="1174" 
d="M80 516q0 243 140 390.5t368 147.5q165 0 288 -82l110 130l104 -92l-110 -132q114 -146 114 -362q0 -244 -139 -393t-367 -149q-168 0 -292 84l-110 -134l-104 92l112 136q-114 146 -114 364zM322 516q0 -100 28 -178l388 466q-61 46 -150 46q-126 0 -196 -87.5
t-70 -246.5zM852 516q0 99 -28 174l-388 -466q61 -46 152 -46q125 0 194.5 89t69.5 249z" />
    <glyph glyph-name="ugrave" unicode="&#xf9;" horiz-adv-x="1124" 
d="M230 1506h278l218 -360h-198zM348 430q0 -119 55.5 -176.5t156.5 -57.5q94 0 157 62.5t63 159.5v606h244v-1024h-244v154q-54 -87 -139 -135.5t-173 -48.5q-165 0 -266.5 108.5t-101.5 301.5v644h248v-594z" />
    <glyph glyph-name="uacute" unicode="&#xfa;" horiz-adv-x="1124" 
d="M916 1506l-300 -360h-198l218 360h280zM348 430q0 -119 55.5 -176.5t156.5 -57.5q94 0 157 62.5t63 159.5v606h244v-1024h-244v154q-54 -87 -139 -135.5t-173 -48.5q-165 0 -266.5 108.5t-101.5 301.5v644h248v-594z" />
    <glyph glyph-name="ucircumflex" unicode="&#xfb;" horiz-adv-x="1124" 
d="M438 1516h240l308 -370h-238l-188 240l-192 -240h-238zM348 430q0 -119 55.5 -176.5t156.5 -57.5q94 0 157 62.5t63 159.5v606h244v-1024h-244v154q-54 -87 -139 -135.5t-173 -48.5q-165 0 -266.5 108.5t-101.5 301.5v644h248v-594z" />
    <glyph glyph-name="udieresis" unicode="&#xfc;" horiz-adv-x="1124" 
d="M668 1400h254v-254h-254v254zM200 1400h254v-254h-254v254zM348 430q0 -119 55.5 -176.5t156.5 -57.5q94 0 157 62.5t63 159.5v606h244v-1024h-244v154q-54 -87 -139 -135.5t-173 -48.5q-165 0 -266.5 108.5t-101.5 301.5v644h248v-594z" />
    <glyph glyph-name="yacute" unicode="&#xfd;" horiz-adv-x="1168" 
d="M946 1506l-300 -360h-198l218 360h280zM124 -126h134q67 0 104.5 24t59.5 82l20 52l-380 992h260l266 -754l258 754h262l-388 -1066q-60 -167 -149.5 -235.5t-250.5 -68.5h-196v220z" />
    <glyph glyph-name="thorn" unicode="&#xfe;" horiz-adv-x="1188" 
d="M100 1434h248v-580q53 96 138 148t192 52q194 0 312 -147.5t118 -390.5q0 -244 -118 -393t-312 -149q-107 0 -192 52t-138 148v-508h-248v1768zM856 516q0 154 -67 239t-187 85q-121 0 -187.5 -84.5t-66.5 -239.5q0 -156 66.5 -242t187.5 -86q120 0 187 86t67 242z" />
    <glyph glyph-name="ydieresis" unicode="&#xff;" horiz-adv-x="1168" 
d="M698 1400h254v-254h-254v254zM230 1400h254v-254h-254v254zM124 -126h134q67 0 104.5 24t59.5 82l20 52l-380 992h260l266 -754l258 754h262l-388 -1066q-60 -167 -149.5 -235.5t-250.5 -68.5h-196v220z" />
    <glyph glyph-name="Amacron" unicode="&#x100;" horiz-adv-x="1324" 
d="M310 1652h676v-188h-676v188zM1274 0h-260l-100 298h-504l-96 -298h-262l472 1332h280zM660 1064l-184 -566h372z" />
    <glyph glyph-name="amacron" unicode="&#x101;" horiz-adv-x="1104" 
d="M204 1364h676v-188h-676v188zM1002 666v-666h-246v160q-53 -87 -140 -135.5t-196 -48.5q-149 0 -244.5 89.5t-95.5 228.5q0 136 79.5 212.5t228.5 87.5l268 18q54 3 77 22.5t23 61.5v4q0 70 -57.5 119t-140.5 49q-195 0 -216 -166h-254q11 158 138.5 254t329.5 96
q197 0 321.5 -108t124.5 -278zM330 306q0 -63 49 -100.5t131 -37.5q104 0 175 70t71 174v36l-278 -16q-148 -12 -148 -126z" />
    <glyph glyph-name="Abreve" unicode="&#x102;" horiz-adv-x="1324" 
d="M1040 1764q-17 -152 -122 -244t-266 -92q-162 0 -268.5 92t-123.5 244h214q11 -77 56.5 -118.5t121.5 -41.5q155 0 174 160h214zM1274 0h-260l-100 298h-504l-96 -298h-262l472 1332h280zM660 1064l-184 -566h372z" />
    <glyph glyph-name="abreve" unicode="&#x103;" horiz-adv-x="1104" 
d="M934 1476q-17 -152 -122 -244t-266 -92q-162 0 -268.5 92t-123.5 244h214q11 -77 56.5 -118.5t121.5 -41.5q155 0 174 160h214zM1002 666v-666h-246v160q-53 -87 -140 -135.5t-196 -48.5q-149 0 -244.5 89.5t-95.5 228.5q0 136 79.5 212.5t228.5 87.5l268 18
q54 3 77 22.5t23 61.5v4q0 70 -57.5 119t-140.5 49q-195 0 -216 -166h-254q11 158 138.5 254t329.5 96q197 0 321.5 -108t124.5 -278zM330 306q0 -63 49 -100.5t131 -37.5q104 0 175 70t71 174v36l-278 -16q-148 -12 -148 -126z" />
    <glyph glyph-name="Aogonek" unicode="&#x104;" horiz-adv-x="1324" 
d="M1274 0q-112 -72 -150 -125t-38 -123q0 -112 138 -112h136v-194h-152q-143 0 -227.5 68.5t-84.5 183.5q0 188 208 302h-90l-100 298h-504l-96 -298h-262l472 1332h280zM660 1064l-184 -566h372z" />
    <glyph glyph-name="aogonek" unicode="&#x105;" horiz-adv-x="1104" 
d="M1002 0q-111 -72 -148.5 -125t-37.5 -123q0 -112 136 -112h136v-194h-152q-141 0 -225.5 68.5t-84.5 183.5q0 190 208 302h-78v160q-53 -87 -140 -135.5t-196 -48.5q-149 0 -244.5 89.5t-95.5 228.5q0 136 79.5 212.5t228.5 87.5l268 18q54 3 77 22.5t23 61.5v4
q0 70 -57.5 119t-140.5 49q-195 0 -216 -166h-254q11 158 138.5 254t329.5 96q197 0 321.5 -108t124.5 -278v-666zM330 306q0 -63 49 -100.5t131 -37.5q104 0 175 70t71 174v36l-278 -16q-148 -12 -148 -126z" />
    <glyph glyph-name="Cacute" unicode="&#x106;" horiz-adv-x="1346" 
d="M1016 1794l-300 -360h-198l218 360h280zM82 670q0 308 164 495t434 187q249 0 407.5 -130t176.5 -362h-252q-4 123 -94 195.5t-234 72.5q-166 0 -258 -120t-92 -338q0 -219 91.5 -339.5t258.5 -120.5q143 0 232 73t96 197h252q-13 -234 -174.5 -365t-409.5 -131
q-269 0 -433.5 188.5t-164.5 497.5z" />
    <glyph glyph-name="cacute" unicode="&#x107;" horiz-adv-x="1156" 
d="M932 1506l-300 -360h-198l218 360h280zM80 516q0 243 139 390.5t367 147.5q207 0 342 -116t150 -314h-252q-3 105 -67 160.5t-173 55.5q-121 0 -187.5 -84.5t-66.5 -239.5q0 -156 67 -242t187 -86q107 0 171.5 51.5t68.5 148.5h252q-19 -193 -152.5 -303.5t-339.5 -110.5
q-227 0 -366.5 149t-139.5 393z" />
    <glyph glyph-name="Ccircumflex" unicode="&#x108;" horiz-adv-x="1346" 
d="M538 1804h240l308 -370h-238l-188 240l-192 -240h-238zM82 670q0 308 164 495t434 187q249 0 407.5 -130t176.5 -362h-252q-4 123 -94 195.5t-234 72.5q-166 0 -258 -120t-92 -338q0 -219 91.5 -339.5t258.5 -120.5q143 0 232 73t96 197h252q-13 -234 -174.5 -365
t-409.5 -131q-269 0 -433.5 188.5t-164.5 497.5z" />
    <glyph glyph-name="ccircumflex" unicode="&#x109;" horiz-adv-x="1156" 
d="M454 1516h240l308 -370h-238l-188 240l-192 -240h-238zM80 516q0 243 139 390.5t367 147.5q207 0 342 -116t150 -314h-252q-3 105 -67 160.5t-173 55.5q-121 0 -187.5 -84.5t-66.5 -239.5q0 -156 67 -242t187 -86q107 0 171.5 51.5t68.5 148.5h252
q-19 -193 -152.5 -303.5t-339.5 -110.5q-227 0 -366.5 149t-139.5 393z" />
    <glyph glyph-name="Cdotaccent" unicode="&#x10a;" horiz-adv-x="1346" 
d="M528 1708h274v-274h-274v274zM82 670q0 308 164 495t434 187q249 0 407.5 -130t176.5 -362h-252q-4 123 -94 195.5t-234 72.5q-166 0 -258 -120t-92 -338q0 -219 91.5 -339.5t258.5 -120.5q143 0 232 73t96 197h252q-13 -234 -174.5 -365t-409.5 -131
q-269 0 -433.5 188.5t-164.5 497.5z" />
    <glyph glyph-name="cdotaccent" unicode="&#x10b;" horiz-adv-x="1156" 
d="M444 1420h274v-274h-274v274zM80 516q0 243 139 390.5t367 147.5q207 0 342 -116t150 -314h-252q-3 105 -67 160.5t-173 55.5q-121 0 -187.5 -84.5t-66.5 -239.5q0 -156 67 -242t187 -86q107 0 171.5 51.5t68.5 148.5h252q-19 -193 -152.5 -303.5t-339.5 -110.5
q-227 0 -366.5 149t-139.5 393z" />
    <glyph glyph-name="Ccaron" unicode="&#x10c;" horiz-adv-x="1346" 
d="M778 1434h-240l-308 370h238l190 -240l190 240h238zM82 670q0 308 164 495t434 187q249 0 407.5 -130t176.5 -362h-252q-4 123 -94 195.5t-234 72.5q-166 0 -258 -120t-92 -338q0 -219 91.5 -339.5t258.5 -120.5q143 0 232 73t96 197h252q-13 -234 -174.5 -365
t-409.5 -131q-269 0 -433.5 188.5t-164.5 497.5z" />
    <glyph glyph-name="ccaron" unicode="&#x10d;" horiz-adv-x="1156" 
d="M694 1146h-240l-308 370h238l190 -240l190 240h238zM80 516q0 243 139 390.5t367 147.5q207 0 342 -116t150 -314h-252q-3 105 -67 160.5t-173 55.5q-121 0 -187.5 -84.5t-66.5 -239.5q0 -156 67 -242t187 -86q107 0 171.5 51.5t68.5 148.5h252q-19 -193 -152.5 -303.5
t-339.5 -110.5q-227 0 -366.5 149t-139.5 393z" />
    <glyph glyph-name="Dcaron" unicode="&#x10e;" horiz-adv-x="1318" 
d="M716 1434h-238l-310 370h240l190 -240l190 240h238zM640 1332q269 0 433.5 -190t164.5 -500q0 -289 -153.5 -465.5t-404.5 -176.5h-578v1332h538zM350 1110v-888h310q155 0 240.5 110.5t85.5 309.5q0 223 -96 345.5t-270 122.5h-270z" />
    <glyph glyph-name="dcaron" unicode="&#x10f;" horiz-adv-x="1252" 
d="M1256 1502h220l-78 -478h-210zM1088 1434v-1434h-246v176q-55 -97 -139 -149.5t-191 -52.5q-194 0 -313 149t-119 393q0 243 119 390.5t313 147.5q107 0 191 -52t139 -148v580h246zM332 516q0 -156 67 -242t187 -86q122 0 189 86t67 242q0 154 -67 239t-189 85
q-120 0 -187 -85t-67 -239z" />
    <glyph glyph-name="Dcroat" unicode="&#x110;" horiz-adv-x="1478" 
d="M62 762h200v570h538q269 0 433.5 -190t164.5 -500q0 -289 -153.5 -465.5t-404.5 -176.5h-578v552h-200v210zM508 1110v-348h336v-210h-336v-330h312q154 0 239 110t85 310q0 223 -96 345.5t-270 122.5h-270z" />
    <glyph glyph-name="dcroat" unicode="&#x111;" horiz-adv-x="1282" 
d="M512 1312h330v122h246v-122h166v-166h-166v-1146h-246v172q-55 -96 -139 -147t-191 -51q-194 0 -313 146t-119 386q0 238 119 383t313 145q107 0 191 -51t139 -145v308h-330v166zM332 506q0 -150 67 -234t187 -84q121 0 188.5 84t67.5 234q0 149 -67.5 231.5t-188.5 82.5
q-120 0 -187 -83t-67 -231z" />
    <glyph glyph-name="Emacron" unicode="&#x112;" horiz-adv-x="1116" 
d="M240 1652h676v-188h-676v188zM1036 1332v-232h-686v-306h628v-232h-628v-330h686v-232h-934v1332h934z" />
    <glyph glyph-name="emacron" unicode="&#x113;" horiz-adv-x="1170" 
d="M232 1364h676v-188h-676v188zM80 516q0 244 134.5 386t363.5 142q223 0 367.5 -148t144.5 -378v-64h-756q12 -134 77.5 -203t180.5 -69q95 0 152.5 41t71.5 115h262q-31 -175 -155 -264.5t-333 -89.5q-234 0 -372 143t-138 389zM580 860q-207 0 -242 -236h488
q-9 108 -75.5 172t-170.5 64z" />
    <glyph glyph-name="Ebreve" unicode="&#x114;" horiz-adv-x="1116" 
d="M972 1764q-18 -152 -123 -244t-265 -92q-163 0 -269 92t-123 244h214q9 -77 54.5 -118.5t123.5 -41.5q152 0 174 160h214zM1036 1332v-232h-686v-306h628v-232h-628v-330h686v-232h-934v1332h934z" />
    <glyph glyph-name="ebreve" unicode="&#x115;" horiz-adv-x="1170" 
d="M964 1476q-18 -152 -123 -244t-265 -92q-163 0 -269 92t-123 244h214q9 -77 54.5 -118.5t123.5 -41.5q152 0 174 160h214zM80 516q0 244 134.5 386t363.5 142q223 0 367.5 -148t144.5 -378v-64h-756q12 -134 77.5 -203t180.5 -69q95 0 152.5 41t71.5 115h262
q-31 -175 -155 -264.5t-333 -89.5q-234 0 -372 143t-138 389zM580 860q-207 0 -242 -236h488q-9 108 -75.5 172t-170.5 64z" />
    <glyph glyph-name="Edotaccent" unicode="&#x116;" horiz-adv-x="1116" 
d="M450 1708h274v-274h-274v274zM1036 1332v-232h-686v-306h628v-232h-628v-330h686v-232h-934v1332h934z" />
    <glyph glyph-name="edotaccent" unicode="&#x117;" horiz-adv-x="1170" 
d="M442 1420h274v-274h-274v274zM80 516q0 244 134.5 386t363.5 142q223 0 367.5 -148t144.5 -378v-64h-756q12 -134 77.5 -203t180.5 -69q95 0 152.5 41t71.5 115h262q-31 -175 -155 -264.5t-333 -89.5q-234 0 -372 143t-138 389zM580 860q-207 0 -242 -236h488
q-9 108 -75.5 172t-170.5 64z" />
    <glyph glyph-name="Eogonek" unicode="&#x118;" horiz-adv-x="1116" 
d="M1000 0q-111 -72 -148.5 -125t-37.5 -123q0 -112 136 -112h136v-194h-152q-141 0 -225.5 68.5t-84.5 183.5q0 190 208 302h-730v1332h934v-232h-686v-306h628v-232h-628v-330h686v-232h-36z" />
    <glyph glyph-name="eogonek" unicode="&#x119;" horiz-adv-x="1170" 
d="M80 516q0 244 134.5 386t363.5 142q223 0 367.5 -148t144.5 -378v-64h-756q12 -134 77.5 -203t180.5 -69q95 0 152.5 41t71.5 115h262q-39 -212 -208 -296q-68 -53 -92 -97.5t-24 -102.5q0 -112 136 -112h136v-194h-152q-141 0 -225.5 68.5t-84.5 183.5q0 111 70 198
q-14 -2 -44 -2q-234 0 -372 143t-138 389zM580 860q-207 0 -242 -236h488q-9 108 -75.5 172t-170.5 64z" />
    <glyph glyph-name="Ecaron" unicode="&#x11a;" horiz-adv-x="1116" 
d="M700 1434h-240l-308 370h238l190 -240l190 240h238zM1036 1332v-232h-686v-306h628v-232h-628v-330h686v-232h-934v1332h934z" />
    <glyph glyph-name="ecaron" unicode="&#x11b;" horiz-adv-x="1170" 
d="M692 1146h-240l-308 370h238l190 -240l190 240h238zM80 516q0 244 134.5 386t363.5 142q223 0 367.5 -148t144.5 -378v-64h-756q12 -134 77.5 -203t180.5 -69q95 0 152.5 41t71.5 115h262q-31 -175 -155 -264.5t-333 -89.5q-234 0 -372 143t-138 389zM580 860
q-207 0 -242 -236h488q-9 108 -75.5 172t-170.5 64z" />
    <glyph glyph-name="Gcircumflex" unicode="&#x11c;" horiz-adv-x="1366" 
d="M538 1804h240l308 -370h-238l-188 240l-192 -240h-238zM82 670q0 307 166.5 494.5t439.5 187.5q159 0 285.5 -57t203 -164.5t87.5 -250.5h-252q-11 115 -94.5 181.5t-221.5 66.5q-172 0 -267 -120t-95 -338q0 -219 91 -339.5t255 -120.5q136 0 221 86t97 232h-342v204
h608v-732h-188l-12 218q-67 -111 -172 -172.5t-234 -61.5q-259 0 -417.5 188.5t-158.5 497.5z" />
    <glyph glyph-name="gcircumflex" unicode="&#x11d;" horiz-adv-x="1188" 
d="M450 1516h238l310 -370h-238l-190 240l-190 -240h-240zM1088 1024v-1046q0 -173 -131.5 -278.5t-348.5 -105.5q-213 0 -352.5 96.5t-165.5 257.5h252q9 -74 77 -116t179 -42q116 0 180 52t64 146v230q-55 -93 -140.5 -143.5t-193.5 -50.5q-192 0 -310 142t-118 374
q0 231 118 371.5t310 140.5q108 0 193.5 -50t140.5 -142v164h246zM332 540q0 -142 67 -221t189 -79q121 0 187.5 78.5t66.5 221.5t-66.5 221.5t-187.5 78.5q-122 0 -189 -79t-67 -221z" />
    <glyph glyph-name="Gbreve" unicode="&#x11e;" horiz-adv-x="1366" 
d="M1050 1764q-18 -152 -123 -244t-265 -92q-163 0 -269 92t-123 244h214q9 -77 54.5 -118.5t123.5 -41.5q152 0 174 160h214zM82 670q0 307 166.5 494.5t439.5 187.5q159 0 285.5 -57t203 -164.5t87.5 -250.5h-252q-11 115 -94.5 181.5t-221.5 66.5q-172 0 -267 -120
t-95 -338q0 -219 91 -339.5t255 -120.5q136 0 221 86t97 232h-342v204h608v-732h-188l-12 218q-67 -111 -172 -172.5t-234 -61.5q-259 0 -417.5 188.5t-158.5 497.5z" />
    <glyph glyph-name="gbreve" unicode="&#x11f;" horiz-adv-x="1188" 
d="M960 1476q-17 -152 -122 -244t-266 -92q-162 0 -268.5 92t-123.5 244h214q11 -77 56.5 -118.5t121.5 -41.5q155 0 174 160h214zM1088 1024v-1046q0 -173 -131.5 -278.5t-348.5 -105.5q-213 0 -352.5 96.5t-165.5 257.5h252q9 -74 77 -116t179 -42q116 0 180 52t64 146
v230q-55 -93 -140.5 -143.5t-193.5 -50.5q-192 0 -310 142t-118 374q0 231 118 371.5t310 140.5q108 0 193.5 -50t140.5 -142v164h246zM332 540q0 -142 67 -221t189 -79q121 0 187.5 78.5t66.5 221.5t-66.5 221.5t-187.5 78.5q-122 0 -189 -79t-67 -221z" />
    <glyph glyph-name="Gdotaccent" unicode="&#x120;" horiz-adv-x="1366" 
d="M528 1708h274v-274h-274v274zM82 670q0 307 166.5 494.5t439.5 187.5q159 0 285.5 -57t203 -164.5t87.5 -250.5h-252q-11 115 -94.5 181.5t-221.5 66.5q-172 0 -267 -120t-95 -338q0 -219 91 -339.5t255 -120.5q136 0 221 86t97 232h-342v204h608v-732h-188l-12 218
q-67 -111 -172 -172.5t-234 -61.5q-259 0 -417.5 188.5t-158.5 497.5z" />
    <glyph glyph-name="gdotaccent" unicode="&#x121;" horiz-adv-x="1188" 
d="M438 1420h274v-274h-274v274zM1088 1024v-1046q0 -173 -131.5 -278.5t-348.5 -105.5q-213 0 -352.5 96.5t-165.5 257.5h252q9 -74 77 -116t179 -42q116 0 180 52t64 146v230q-55 -93 -140.5 -143.5t-193.5 -50.5q-192 0 -310 142t-118 374q0 231 118 371.5t310 140.5
q108 0 193.5 -50t140.5 -142v164h246zM332 540q0 -142 67 -221t189 -79q121 0 187.5 78.5t66.5 221.5t-66.5 221.5t-187.5 78.5q-122 0 -189 -79t-67 -221z" />
    <glyph glyph-name="uni0122" unicode="&#x122;" horiz-adv-x="1366" 
d="M82 670q0 307 166.5 494.5t439.5 187.5q159 0 285.5 -57t203 -164.5t87.5 -250.5h-252q-11 115 -94.5 181.5t-221.5 66.5q-172 0 -267 -120t-95 -338q0 -219 91 -339.5t255 -120.5q136 0 221 86t97 232h-342v204h608v-732h-188l-12 218q-67 -111 -172 -172.5t-234 -61.5
q-259 0 -417.5 188.5t-158.5 497.5zM552 -68h276v-320q0 -116 -61 -174t-163 -58h-66v126h32q71 0 105.5 26t34.5 92v36h-158v272z" />
    <glyph glyph-name="uni0123" unicode="&#x123;" horiz-adv-x="1188" 
d="M712 1146h-274v322q0 114 61 173t163 59h66v-126h-34q-71 0 -104.5 -26t-33.5 -92v-36h156v-274zM1088 1024v-1046q0 -173 -131.5 -278.5t-348.5 -105.5q-213 0 -352.5 96.5t-165.5 257.5h252q9 -74 77 -116t179 -42q116 0 180 52t64 146v230q-55 -93 -140.5 -143.5
t-193.5 -50.5q-192 0 -310 142t-118 374q0 231 118 371.5t310 140.5q108 0 193.5 -50t140.5 -142v164h246zM332 540q0 -142 67 -221t189 -79q121 0 187.5 78.5t66.5 221.5t-66.5 221.5t-187.5 78.5q-122 0 -189 -79t-67 -221z" />
    <glyph glyph-name="Hcircumflex" unicode="&#x124;" horiz-adv-x="1300" 
d="M528 1804h240l308 -370h-238l-188 240l-192 -240h-238zM102 1332h248v-528h602v528h246v-1332h-246v572h-602v-572h-248v1332z" />
    <glyph glyph-name="hcircumflex" unicode="&#x125;" horiz-adv-x="1142" 
d="M278 1912h238l310 -368h-238l-190 240l-190 -240h-240zM798 594q0 119 -59 177.5t-165 58.5q-98 0 -162 -62.5t-64 -159.5v-608h-248v1434h248v-564q54 87 140.5 135.5t177.5 48.5q170 0 274 -107.5t104 -300.5v-646h-246v594z" />
    <glyph glyph-name="Hbar" unicode="&#x126;" horiz-adv-x="1362" 
d="M30 1146h104v186h246v-186h604v186h246v-186h102v-170h-102v-976h-246v572h-604v-572h-246v976h-104v170zM380 784h604v192h-604v-192z" />
    <glyph glyph-name="hbar" unicode="&#x127;" horiz-adv-x="1214" 
d="M868 584q0 115 -58 170.5t-164 55.5q-98 0 -163 -60.5t-65 -153.5v-596h-246v1146h-162v166h162v122h246v-122h334v-166h-334v-294q56 86 142.5 134t177.5 48q169 0 272.5 -104.5t103.5 -293.5v-636h-246v584z" />
    <glyph glyph-name="Itilde" unicode="&#x128;" 
d="M34 1772q45 0 86.5 -16t60.5 -30t57 -44q52 -47 76 -58q23 -10 46 -10q51 0 80.5 39t29.5 107h150q0 -157 -65 -245.5t-181 -88.5q-41 0 -78.5 13.5t-57 27.5t-50.5 39q-8 7 -24.5 22t-25 22.5t-22.5 16.5t-27 13t-27 4q-46 0 -74 -41t-28 -109h-154q0 163 59 250.5
t169 87.5zM100 1332h248v-1332h-248v1332z" />
    <glyph glyph-name="itilde" unicode="&#x129;" 
d="M34 1484q45 0 86.5 -16t60.5 -30t57 -44q52 -47 76 -58q23 -10 46 -10q51 0 80.5 39t29.5 107h150q0 -157 -65 -245.5t-181 -88.5q-41 0 -78.5 13.5t-57 27.5t-50.5 39q-8 7 -24.5 22t-25 22.5t-22.5 16.5t-27 13t-27 4q-46 0 -74 -41t-28 -109h-154q0 163 59 250.5
t169 87.5zM100 1024h248v-1024h-248v1024z" />
    <glyph glyph-name="Imacron" unicode="&#x12a;" 
d="M-122 1652h676v-188h-676v188zM100 1332h248v-1332h-248v1332z" />
    <glyph glyph-name="imacron" unicode="&#x12b;" 
d="M-122 1364h676v-188h-676v188zM100 1024h248v-1024h-248v1024z" />
    <glyph glyph-name="Ibreve" unicode="&#x12c;" 
d="M608 1764q-17 -152 -122 -244t-266 -92q-162 0 -268.5 92t-123.5 244h214q11 -77 56.5 -118.5t121.5 -41.5q155 0 174 160h214zM100 1332h248v-1332h-248v1332z" />
    <glyph glyph-name="ibreve" unicode="&#x12d;" 
d="M608 1476q-17 -152 -122 -244t-266 -92q-162 0 -268.5 92t-123.5 244h214q11 -77 56.5 -118.5t121.5 -41.5q155 0 174 160h214zM100 1024h248v-1024h-248v1024z" />
    <glyph glyph-name="Iogonek" unicode="&#x12e;" 
d="M348 0q-112 -72 -150 -125t-38 -123q0 -112 138 -112h136v-194h-152q-143 0 -227.5 68.5t-84.5 183.5q0 188 208 302h-78v1332h248v-1332z" />
    <glyph glyph-name="iogonek" unicode="&#x12f;" 
d="M86 1376h276v-222h-276v222zM348 0q-112 -72 -150 -125t-38 -123q0 -112 138 -112h136v-194h-152q-143 0 -227.5 68.5t-84.5 183.5q0 188 208 302h-78v1024h248v-1024z" />
    <glyph glyph-name="Idotaccent" unicode="&#x130;" 
d="M86 1708h274v-274h-274v274zM100 1332h248v-1332h-248v1332z" />
    <glyph glyph-name="dotlessi" unicode="&#x131;" 
d="M100 1024h248v-1024h-248v1024z" />
    <glyph glyph-name="IJ" unicode="&#x132;" horiz-adv-x="1168" 
d="M490 222h146q90 0 137 53.5t47 184.5v872h246v-906q0 -211 -104.5 -318.5t-271.5 -107.5h-200v222zM100 1332h248v-1332h-248v1332z" />
    <glyph glyph-name="ij" unicode="&#x133;" horiz-adv-x="892" 
d="M534 1376h274v-222h-274v222zM86 1376h276v-222h-276v222zM382 -142h64q51 0 76.5 26t25.5 90v1050h246v-1062q0 -159 -86.5 -241.5t-229.5 -82.5h-96v220zM100 1024h248v-1024h-248v1024z" />
    <glyph glyph-name="Jcircumflex" unicode="&#x134;" horiz-adv-x="720" 
d="M368 1804h238l310 -370h-238l-190 240l-190 -240h-240zM44 222h144q90 0 138 53.5t48 184.5v872h244v-906q0 -211 -104 -318.5t-272 -107.5h-198v222z" />
    <glyph glyph-name="jcircumflex" unicode="&#x135;" 
d="M98 1516h238l310 -370h-238l-190 240l-190 -240h-240zM-66 -142h64q51 0 76.5 26t25.5 90v1050h248v-1062q0 -159 -87 -241.5t-229 -82.5h-98v220z" />
    <glyph glyph-name="uni0136" unicode="&#x136;" horiz-adv-x="1226" 
d="M102 1332h248v-640l526 640h310l-546 -644l566 -688h-290l-446 548l-120 -154v-394h-248v1332zM480 -68h276v-320q0 -116 -61 -174t-163 -58h-66v126h32q71 0 105.5 26t34.5 92v36h-158v272z" />
    <glyph glyph-name="uni0137" unicode="&#x137;" horiz-adv-x="1110" 
d="M736 1024h306l-402 -486l430 -538h-292l-318 398l-110 -134v-264h-248v1434h248v-906zM432 -68h274v-320q0 -116 -61 -174t-163 -58h-66v126h34q71 0 104.5 26t33.5 92v36h-156v272z" />
    <glyph glyph-name="kgreenlandic" unicode="&#x138;" horiz-adv-x="1110" 
d="M102 1024h248v-496l386 496h306l-402 -486l430 -538h-292l-318 398l-110 -134v-264h-248v1024z" />
    <glyph glyph-name="Lacute" unicode="&#x139;" horiz-adv-x="994" 
d="M578 1794l-300 -360h-198l218 360h280zM932 0h-830v1332h248v-1100h582v-232z" />
    <glyph glyph-name="lacute" unicode="&#x13a;" 
d="M570 1902l-298 -358h-198l216 358h280zM100 1434h248v-1434h-248v1434z" />
    <glyph glyph-name="uni013B" unicode="&#x13b;" horiz-adv-x="994" 
d="M932 0h-830v1332h248v-1100h582v-232zM394 -68h276v-320q0 -116 -61 -174t-163 -58h-66v126h32q71 0 105.5 26t34.5 92v36h-158v272z" />
    <glyph glyph-name="uni013C" unicode="&#x13c;" 
d="M100 1434h248v-1434h-248v1434zM88 -68h276v-320q0 -116 -61 -174t-163 -58h-66v126h32q71 0 105.5 26t34.5 92v36h-158v272z" />
    <glyph glyph-name="Lcaron" unicode="&#x13d;" horiz-adv-x="994" 
d="M564 1416h220l-78 -476h-210zM932 0h-830v1332h248v-1100h582v-232z" />
    <glyph glyph-name="lcaron" unicode="&#x13e;" horiz-adv-x="520" 
d="M516 1502h218l-78 -478h-208zM100 1434h248v-1434h-248v1434z" />
    <glyph glyph-name="Ldot" unicode="&#x13f;" horiz-adv-x="994" 
d="M932 0h-830v1332h248v-1100h582v-232zM564 852h276v-272h-276v272z" />
    <glyph glyph-name="ldot" unicode="&#x140;" horiz-adv-x="892" 
d="M100 1434h248v-1434h-248v1434zM534 810h274v-272h-274v272z" />
    <glyph glyph-name="Lslash" unicode="&#x141;" horiz-adv-x="1054" 
d="M0 750l164 32v550h246v-500l292 58v-200l-292 -58v-400h584v-232h-830v582l-164 -32v200z" />
    <glyph glyph-name="lslash" unicode="&#x142;" horiz-adv-x="590" 
d="M0 780l176 28v626h244v-584l170 30v-200l-170 -30v-650h-244v608l-176 -30v202z" />
    <glyph glyph-name="Nacute" unicode="&#x143;" horiz-adv-x="1320" 
d="M1020 1794l-300 -360h-198l218 360h280zM974 1332h244v-1332h-258l-610 976v-976h-248v1332h308l564 -926v926z" />
    <glyph glyph-name="nacute" unicode="&#x144;" horiz-adv-x="1142" 
d="M932 1506l-298 -360h-198l216 360h280zM800 594q0 119 -59 177.5t-165 58.5q-98 0 -162 -62.5t-64 -159.5v-608h-248v1024h248v-154q54 87 140.5 135.5t177.5 48.5q170 0 274 -107.5t104 -300.5v-646h-246v594z" />
    <glyph glyph-name="uni0145" unicode="&#x145;" horiz-adv-x="1320" 
d="M974 1332h244v-1332h-258l-610 976v-976h-248v1332h308l564 -926v926zM538 -68h276v-320q0 -116 -61 -174t-163 -58h-66v126h32q71 0 105.5 26t34.5 92v36h-158v272z" />
    <glyph glyph-name="uni0146" unicode="&#x146;" horiz-adv-x="1142" 
d="M800 594q0 119 -59 177.5t-165 58.5q-98 0 -162 -62.5t-64 -159.5v-608h-248v1024h248v-154q54 87 140.5 135.5t177.5 48.5q170 0 274 -107.5t104 -300.5v-646h-246v594zM442 -68h276v-320q0 -116 -61 -174t-163 -58h-66v126h32q71 0 105.5 26t34.5 92v36h-158v272z" />
    <glyph glyph-name="Ncaron" unicode="&#x147;" horiz-adv-x="1320" 
d="M782 1434h-240l-308 370h238l190 -240l190 240h238zM974 1332h244v-1332h-258l-610 976v-976h-248v1332h308l564 -926v926z" />
    <glyph glyph-name="ncaron" unicode="&#x148;" horiz-adv-x="1142" 
d="M694 1146h-238l-310 370h240l190 -240l190 240h238zM800 594q0 119 -59 177.5t-165 58.5q-98 0 -162 -62.5t-64 -159.5v-608h-248v1024h248v-154q54 87 140.5 135.5t177.5 48.5q170 0 274 -107.5t104 -300.5v-646h-246v594z" />
    <glyph glyph-name="napostrophe" unicode="&#x149;" horiz-adv-x="1488" 
d="M92 1416h276v-322q0 -114 -62 -172t-164 -58h-64v124h32q71 0 104.5 26t33.5 92v38h-156v272zM450 1024h246v-154q56 87 142 135.5t178 48.5q168 0 272 -107.5t104 -300.5v-646h-246v594q0 119 -59 177.5t-165 58.5q-97 0 -161.5 -62.5t-64.5 -159.5v-608h-246v1024z" />
    <glyph glyph-name="Eng" unicode="&#x14a;" horiz-adv-x="1320" 
d="M974 1332h244v-1360q0 -168 -94 -261t-262 -93h-116v220h84q75 0 109.5 35t34.5 111v48l-624 944v-976h-248v1332h308l564 -902v902z" />
    <glyph glyph-name="eng" unicode="&#x14b;" horiz-adv-x="1142" 
d="M800 592q0 117 -57 176.5t-167 59.5q-99 0 -162.5 -62.5t-63.5 -159.5v-606h-248v1024h248v-158q53 87 137 137.5t181 50.5q173 0 275.5 -110.5t102.5 -299.5v-672q0 -166 -92 -260t-254 -94h-128v220h94q70 0 102 34.5t32 111.5v608z" />
    <glyph glyph-name="Omacron" unicode="&#x14c;" horiz-adv-x="1402" 
d="M342 1652h676v-188h-676v188zM82 650q0 316 170.5 509t449.5 193t449.5 -193t170.5 -509q0 -300 -170.5 -483t-449.5 -183t-449.5 183t-170.5 483zM1070 650q0 226 -97 352t-271 126q-175 0 -271.5 -125.5t-96.5 -352.5q0 -209 96.5 -324.5t271.5 -115.5q174 0 271 116
t97 324z" />
    <glyph glyph-name="omacron" unicode="&#x14d;" horiz-adv-x="1174" 
d="M236 1364h676v-188h-676v188zM80 516q0 243 140 390.5t368 147.5t367 -147.5t139 -390.5q0 -244 -139 -393t-367 -149t-368 149t-140 393zM842 516q0 154 -67 239t-187 85q-122 0 -189 -85t-67 -239q0 -156 67 -242t189 -86q120 0 187 86t67 242z" />
    <glyph glyph-name="Obreve" unicode="&#x14e;" horiz-adv-x="1402" 
d="M1074 1764q-18 -152 -123 -244t-265 -92q-163 0 -269 92t-123 244h214q9 -77 54.5 -118.5t123.5 -41.5q152 0 174 160h214zM82 650q0 316 170.5 509t449.5 193t449.5 -193t170.5 -509q0 -300 -170.5 -483t-449.5 -183t-449.5 183t-170.5 483zM1070 650q0 226 -97 352
t-271 126q-175 0 -271.5 -125.5t-96.5 -352.5q0 -209 96.5 -324.5t271.5 -115.5q174 0 271 116t97 324z" />
    <glyph glyph-name="obreve" unicode="&#x14f;" horiz-adv-x="1174" 
d="M968 1476q-18 -152 -123 -244t-265 -92q-163 0 -269 92t-123 244h214q9 -77 54.5 -118.5t123.5 -41.5q152 0 174 160h214zM80 516q0 243 140 390.5t368 147.5t367 -147.5t139 -390.5q0 -244 -139 -393t-367 -149t-368 149t-140 393zM842 516q0 154 -67 239t-187 85
q-122 0 -189 -85t-67 -239q0 -156 67 -242t189 -86q120 0 187 86t67 242z" />
    <glyph glyph-name="Ohungarumlaut" unicode="&#x150;" horiz-adv-x="1402" 
d="M1256 1794l-300 -360h-196l216 360h280zM856 1794l-298 -360h-198l218 360h278zM82 650q0 316 170.5 509t449.5 193t449.5 -193t170.5 -509q0 -300 -170.5 -483t-449.5 -183t-449.5 183t-170.5 483zM1070 650q0 226 -97 352t-271 126q-175 0 -271.5 -125.5t-96.5 -352.5
q0 -209 96.5 -324.5t271.5 -115.5q174 0 271 116t97 324z" />
    <glyph glyph-name="ohungarumlaut" unicode="&#x151;" horiz-adv-x="1174" 
d="M1150 1506l-300 -360h-196l216 360h280zM750 1506l-298 -360h-198l218 360h278zM80 516q0 243 140 390.5t368 147.5t367 -147.5t139 -390.5q0 -244 -139 -393t-367 -149t-368 149t-140 393zM842 516q0 154 -67 239t-187 85q-122 0 -189 -85t-67 -239q0 -156 67 -242
t189 -86q120 0 187 86t67 242z" />
    <glyph glyph-name="OE" unicode="&#x152;" horiz-adv-x="2082" 
d="M82 656q0 206 70.5 364.5t198.5 245t293 86.5q136 0 245 -64.5t181 -183.5v228h932v-232h-686v-306h628v-232h-628v-330h686v-232h-932v220q-71 -114 -179.5 -175t-244.5 -61q-254 0 -409 184.5t-155 487.5zM1070 656q0 222 -97 347t-271 125t-271 -125t-97 -347
q0 -213 96 -329.5t272 -116.5t272 116.5t96 329.5z" />
    <glyph glyph-name="oe" unicode="&#x153;" horiz-adv-x="1934" 
d="M80 516q0 243 131.5 390.5t346.5 147.5q135 0 240 -62t164 -174q59 109 163 167.5t241 58.5q213 0 350.5 -148t137.5 -378v-64h-756q12 -135 77 -203.5t179 -68.5q95 0 152.5 41t71.5 115h262q-30 -175 -147 -264.5t-315 -89.5q-141 0 -247 59.5t-167 170.5
q-61 -114 -166 -177t-240 -63q-215 0 -346.5 149t-131.5 393zM1342 860q-205 0 -240 -236h486q-9 108 -75.5 172t-170.5 64zM842 516q0 154 -67 239t-187 85q-122 0 -189 -85t-67 -239q0 -156 67 -242t189 -86q120 0 187 86t67 242z" />
    <glyph glyph-name="Racute" unicode="&#x154;" horiz-adv-x="1214" 
d="M954 1794l-298 -360h-198l216 360h280zM610 500h-260v-500h-248v1332h596q195 0 314.5 -106.5t119.5 -281.5q0 -121 -66 -209.5t-182 -128.5q103 -22 153 -90t65 -202l36 -314h-242l-34 290q-14 111 -72 160.5t-180 49.5zM662 1120h-312v-408h312q106 0 165 52.5
t59 149.5t-59.5 151.5t-164.5 54.5z" />
    <glyph glyph-name="racute" unicode="&#x155;" horiz-adv-x="752" 
d="M768 1506l-298 -360h-198l216 360h280zM100 1024h248v-162q49 86 122.5 134t151.5 48h60v-252h-58q-118 0 -197 -64t-79 -162v-566h-248v1024z" />
    <glyph glyph-name="uni0156" unicode="&#x156;" horiz-adv-x="1214" 
d="M610 500h-260v-500h-248v1332h596q195 0 314.5 -106.5t119.5 -281.5q0 -121 -66 -209.5t-182 -128.5q103 -22 153 -90t65 -202l36 -314h-242l-34 290q-14 111 -72 160.5t-180 49.5zM662 1120h-312v-408h312q106 0 165 52.5t59 149.5t-59.5 151.5t-164.5 54.5zM490 -68
h276v-320q0 -116 -61 -174t-163 -58h-66v126h32q71 0 105.5 26t34.5 92v36h-158v272z" />
    <glyph glyph-name="uni0157" unicode="&#x157;" horiz-adv-x="752" 
d="M100 1024h248v-162q49 86 122.5 134t151.5 48h60v-252h-58q-118 0 -197 -64t-79 -162v-566h-248v1024zM88 -68h274v-320q0 -116 -61 -174t-163 -58h-66v126h34q71 0 104.5 26t33.5 92v36h-156v272z" />
    <glyph glyph-name="Rcaron" unicode="&#x158;" horiz-adv-x="1214" 
d="M716 1434h-238l-310 370h240l190 -240l190 240h238zM610 500h-260v-500h-248v1332h596q195 0 314.5 -106.5t119.5 -281.5q0 -121 -66 -209.5t-182 -128.5q103 -22 153 -90t65 -202l36 -314h-242l-34 290q-14 111 -72 160.5t-180 49.5zM662 1120h-312v-408h312
q106 0 165 52.5t59 149.5t-59.5 151.5t-164.5 54.5z" />
    <glyph glyph-name="rcaron" unicode="&#x159;" horiz-adv-x="752" 
d="M530 1146h-238l-310 370h240l190 -240l190 240h238zM100 1024h248v-162q49 86 122.5 134t151.5 48h60v-252h-58q-118 0 -197 -64t-79 -162v-566h-248v1024z" />
    <glyph glyph-name="Sacute" unicode="&#x15a;" horiz-adv-x="1228" 
d="M942 1794l-298 -360h-198l216 360h280zM686 538l-194 20q-194 21 -297 121t-103 269q0 186 136 294t370 108q225 0 364.5 -111t159.5 -305h-250q-18 110 -85 162t-191 52q-116 0 -186 -51t-70 -135q0 -132 194 -156l182 -20q432 -48 432 -406q0 -180 -137.5 -288
t-364.5 -108q-242 0 -391.5 113.5t-172.5 308.5h254q35 -218 312 -218q113 0 182.5 50.5t69.5 135.5q0 140 -214 164z" />
    <glyph glyph-name="sacute" unicode="&#x15b;" horiz-adv-x="1080" 
d="M872 1506l-300 -360h-198l218 360h280zM614 404l-186 22q-170 18 -254 93t-84 211q0 149 117 234.5t319 85.5q193 0 313.5 -89.5t138.5 -244.5h-242q-14 78 -65 115t-145 37q-85 0 -136.5 -34t-51.5 -90q0 -53 34 -80t106 -36l194 -20q170 -18 250 -96t80 -224
q0 -141 -118 -225.5t-312 -84.5q-213 0 -342.5 88.5t-149.5 241.5h254q13 -78 71 -114t165 -36q87 0 139.5 32.5t52.5 87.5q0 109 -148 126z" />
    <glyph glyph-name="Scircumflex" unicode="&#x15c;" horiz-adv-x="1228" 
d="M466 1804h238l310 -370h-238l-190 240l-190 -240h-240zM686 538l-194 20q-194 21 -297 121t-103 269q0 186 136 294t370 108q225 0 364.5 -111t159.5 -305h-250q-18 110 -85 162t-191 52q-116 0 -186 -51t-70 -135q0 -132 194 -156l182 -20q432 -48 432 -406
q0 -180 -137.5 -288t-364.5 -108q-242 0 -391.5 113.5t-172.5 308.5h254q35 -218 312 -218q113 0 182.5 50.5t69.5 135.5q0 140 -214 164z" />
    <glyph glyph-name="scircumflex" unicode="&#x15d;" horiz-adv-x="1080" 
d="M394 1516h240l308 -370h-238l-188 240l-192 -240h-238zM614 404l-186 22q-170 18 -254 93t-84 211q0 149 117 234.5t319 85.5q193 0 313.5 -89.5t138.5 -244.5h-242q-14 78 -65 115t-145 37q-85 0 -136.5 -34t-51.5 -90q0 -53 34 -80t106 -36l194 -20q170 -18 250 -96
t80 -224q0 -141 -118 -225.5t-312 -84.5q-213 0 -342.5 88.5t-149.5 241.5h254q13 -78 71 -114t165 -36q87 0 139.5 32.5t52.5 87.5q0 109 -148 126z" />
    <glyph glyph-name="Scedilla" unicode="&#x15e;" horiz-adv-x="1228" 
d="M686 538l-194 20q-194 21 -297 121t-103 269q0 186 136 294t370 108q225 0 364.5 -111t159.5 -305h-250q-18 110 -85 162t-191 52q-116 0 -186 -51t-70 -135q0 -132 194 -156l182 -20q432 -48 432 -406q0 -166 -119.5 -272.5t-320.5 -121.5l-36 -98h32q97 0 157.5 -62.5
t60.5 -163.5q0 -105 -82 -166.5t-220 -61.5h-182v184h166q57 0 87.5 23t30.5 65q0 33 -22.5 50.5t-63.5 17.5h-68l-50 72l46 142q-208 18 -335 129t-147 289h254q35 -218 312 -218q113 0 182.5 50.5t69.5 135.5q0 140 -214 164z" />
    <glyph glyph-name="scedilla" unicode="&#x15f;" horiz-adv-x="1080" 
d="M614 404l-186 22q-170 18 -254 93t-84 211q0 149 117 234.5t319 85.5q193 0 313.5 -89.5t138.5 -244.5h-242q-14 78 -65 115t-145 37q-85 0 -136.5 -34t-51.5 -90q0 -53 34 -80t106 -36l194 -20q170 -18 250 -96t80 -224q0 -128 -99.5 -211t-266.5 -97l-34 -92h30
q97 0 157.5 -62.5t60.5 -163.5q0 -105 -81.5 -166.5t-218.5 -61.5h-182v184h166q57 0 86.5 23t29.5 65q0 33 -22.5 50.5t-61.5 17.5h-70l-50 72l46 134q-178 16 -286 103t-126 225h254q13 -78 71 -114t165 -36q87 0 139.5 32.5t52.5 87.5q0 109 -148 126z" />
    <glyph glyph-name="Scaron" unicode="&#x160;" horiz-adv-x="1228" 
d="M704 1434h-238l-310 370h240l190 -240l190 240h238zM686 538l-194 20q-194 21 -297 121t-103 269q0 186 136 294t370 108q225 0 364.5 -111t159.5 -305h-250q-18 110 -85 162t-191 52q-116 0 -186 -51t-70 -135q0 -132 194 -156l182 -20q432 -48 432 -406
q0 -180 -137.5 -288t-364.5 -108q-242 0 -391.5 113.5t-172.5 308.5h254q35 -218 312 -218q113 0 182.5 50.5t69.5 135.5q0 140 -214 164z" />
    <glyph glyph-name="scaron" unicode="&#x161;" horiz-adv-x="1080" 
d="M634 1146h-240l-308 370h238l190 -240l190 240h238zM614 404l-186 22q-170 18 -254 93t-84 211q0 149 117 234.5t319 85.5q193 0 313.5 -89.5t138.5 -244.5h-242q-14 78 -65 115t-145 37q-85 0 -136.5 -34t-51.5 -90q0 -53 34 -80t106 -36l194 -20q170 -18 250 -96
t80 -224q0 -141 -118 -225.5t-312 -84.5q-213 0 -342.5 88.5t-149.5 241.5h254q13 -78 71 -114t165 -36q87 0 139.5 32.5t52.5 87.5q0 109 -148 126z" />
    <glyph glyph-name="uni0162" unicode="&#x162;" horiz-adv-x="1126" 
d="M1066 1332v-232h-380v-1100h-48l-40 -112h30q97 0 157.5 -62.5t60.5 -163.5q0 -105 -81.5 -166.5t-218.5 -61.5h-182v184h166q57 0 86.5 23t29.5 65q0 33 -22.5 50.5t-61.5 17.5h-70l-50 72l52 154h-52v1100h-380v232h1004z" />
    <glyph glyph-name="uni0163" unicode="&#x163;" horiz-adv-x="706" 
d="M648 212v-212h-34l-40 -112h30q97 0 157.5 -62.5t60.5 -163.5q0 -105 -81.5 -166.5t-218.5 -61.5h-182v184h166q57 0 86.5 23t29.5 65q0 33 -22.5 50.5t-61.5 17.5h-70l-50 72l54 160q-111 17 -176.5 92.5t-65.5 205.5v520h-170v200h170v266h246v-266h172v-200h-172v-488
q0 -68 25 -96t73 -28h74z" />
    <glyph glyph-name="Tcaron" unicode="&#x164;" horiz-adv-x="1126" 
d="M666 1434h-238l-310 370h240l190 -240l190 240h238zM1066 1332v-232h-380v-1100h-244v1100h-380v232h1004z" />
    <glyph glyph-name="tcaron" unicode="&#x165;" horiz-adv-x="788" 
d="M632 1580h220l-78 -476h-210zM648 212v-212h-106q-141 0 -226.5 77t-85.5 227v520h-170v200h170v266h246v-266h172v-200h-172v-488q0 -68 25 -96t73 -28h74z" />
    <glyph glyph-name="Tbar" unicode="&#x166;" horiz-adv-x="1126" 
d="M164 718h278v382h-380v232h1004v-232h-380v-382h292v-222h-292v-496h-244v496h-278v222z" />
    <glyph glyph-name="tbar" unicode="&#x167;" horiz-adv-x="706" 
d="M60 628h170v206h-170v190h170v266h246v-266h172v-190h-172v-206h172v-150h-172v-152q0 -63 25 -88.5t73 -25.5h74v-212h-106q-141 0 -226.5 77t-85.5 227v174h-170v150z" />
    <glyph glyph-name="Utilde" unicode="&#x168;" horiz-adv-x="1246" 
d="M430 1772q35 0 64 -6.5t57.5 -24t40 -26t42.5 -33.5q52 -47 76 -58q23 -10 46 -10q51 0 81.5 39.5t30.5 106.5h148q0 -157 -65 -245.5t-181 -88.5q-40 0 -77 13.5t-56.5 27.5t-50.5 39q-4 4 -29 26.5t-33.5 28.5t-28 14.5t-37.5 8.5q-46 0 -73 -41t-27 -109h-154
q0 163 59 250.5t167 87.5zM92 1332h246v-816q0 -141 77 -218.5t217 -77.5q132 0 205 77.5t73 218.5v816h246v-816q0 -239 -144.5 -385.5t-379.5 -146.5q-243 0 -391.5 146t-148.5 386v816z" />
    <glyph glyph-name="utilde" unicode="&#x169;" horiz-adv-x="1124" 
d="M374 1484q35 0 64 -6.5t57.5 -24t40 -26t42.5 -33.5q52 -47 76 -58q23 -10 46 -10q51 0 81.5 39.5t30.5 106.5h148q0 -157 -65 -245.5t-181 -88.5q-40 0 -77 13.5t-56.5 27.5t-50.5 39q-4 4 -29 26.5t-33.5 28.5t-28 14.5t-37.5 8.5q-46 0 -73 -41t-27 -109h-154
q0 163 59 250.5t167 87.5zM348 430q0 -119 55.5 -176.5t156.5 -57.5q94 0 157 62.5t63 159.5v606h244v-1024h-244v154q-54 -87 -139 -135.5t-173 -48.5q-165 0 -266.5 108.5t-101.5 301.5v644h248v-594z" />
    <glyph glyph-name="Umacron" unicode="&#x16a;" horiz-adv-x="1246" 
d="M274 1652h676v-188h-676v188zM92 1332h246v-816q0 -141 77 -218.5t217 -77.5q132 0 205 77.5t73 218.5v816h246v-816q0 -239 -144.5 -385.5t-379.5 -146.5q-243 0 -391.5 146t-148.5 386v816z" />
    <glyph glyph-name="umacron" unicode="&#x16b;" horiz-adv-x="1124" 
d="M218 1364h676v-188h-676v188zM348 430q0 -119 55.5 -176.5t156.5 -57.5q94 0 157 62.5t63 159.5v606h244v-1024h-244v154q-54 -87 -139 -135.5t-173 -48.5q-165 0 -266.5 108.5t-101.5 301.5v644h248v-594z" />
    <glyph glyph-name="Ubreve" unicode="&#x16c;" horiz-adv-x="1246" 
d="M1006 1764q-18 -152 -123 -244t-265 -92q-163 0 -269 92t-123 244h214q9 -77 54.5 -118.5t123.5 -41.5q152 0 174 160h214zM92 1332h246v-816q0 -141 77 -218.5t217 -77.5q132 0 205 77.5t73 218.5v816h246v-816q0 -239 -144.5 -385.5t-379.5 -146.5q-243 0 -391.5 146
t-148.5 386v816z" />
    <glyph glyph-name="ubreve" unicode="&#x16d;" horiz-adv-x="1124" 
d="M950 1476q-18 -152 -123 -244t-265 -92q-163 0 -269 92t-123 244h214q9 -77 54.5 -118.5t123.5 -41.5q152 0 174 160h214zM348 430q0 -119 55.5 -176.5t156.5 -57.5q94 0 157 62.5t63 159.5v606h244v-1024h-244v154q-54 -87 -139 -135.5t-173 -48.5q-165 0 -266.5 108.5
t-101.5 301.5v644h248v-594z" />
    <glyph glyph-name="Uring" unicode="&#x16e;" horiz-adv-x="1246" 
d="M918 1718q0 -134 -82.5 -216t-217.5 -82q-136 0 -220 82t-84 216q0 133 83.5 214.5t218.5 81.5q136 0 219 -81t83 -215zM484 1718q0 -66 35 -103t99 -37q61 0 95.5 37t34.5 103t-34.5 102t-97.5 36t-97.5 -36t-34.5 -102zM92 1332h246v-816q0 -141 77 -218.5t217 -77.5
q132 0 205 77.5t73 218.5v816h246v-816q0 -239 -144.5 -385.5t-379.5 -146.5q-243 0 -391.5 146t-148.5 386v816z" />
    <glyph glyph-name="uring" unicode="&#x16f;" horiz-adv-x="1124" 
d="M862 1430q0 -134 -82.5 -216t-217.5 -82q-136 0 -220 82t-84 216q0 133 83.5 214.5t218.5 81.5q136 0 219 -81t83 -215zM428 1430q0 -66 35 -103t99 -37q61 0 95.5 37t34.5 103t-34.5 102t-97.5 36t-97.5 -36t-34.5 -102zM348 430q0 -119 55.5 -176.5t156.5 -57.5
q94 0 157 62.5t63 159.5v606h244v-1024h-244v154q-54 -87 -139 -135.5t-173 -48.5q-165 0 -266.5 108.5t-101.5 301.5v644h248v-594z" />
    <glyph glyph-name="Uhungarumlaut" unicode="&#x170;" horiz-adv-x="1246" 
d="M1188 1794l-300 -360h-196l216 360h280zM788 1794l-298 -360h-198l218 360h278zM92 1332h246v-816q0 -141 77 -218.5t217 -77.5q132 0 205 77.5t73 218.5v816h246v-816q0 -239 -144.5 -385.5t-379.5 -146.5q-243 0 -391.5 146t-148.5 386v816z" />
    <glyph glyph-name="uhungarumlaut" unicode="&#x171;" horiz-adv-x="1124" 
d="M1132 1506l-300 -360h-196l216 360h280zM732 1506l-298 -360h-198l218 360h278zM348 430q0 -119 55.5 -176.5t156.5 -57.5q94 0 157 62.5t63 159.5v606h244v-1024h-244v154q-54 -87 -139 -135.5t-173 -48.5q-165 0 -266.5 108.5t-101.5 301.5v644h248v-594z" />
    <glyph glyph-name="Uogonek" unicode="&#x172;" horiz-adv-x="1246" 
d="M92 1332h246v-816q0 -141 77 -218.5t217 -77.5q132 0 205 77.5t73 218.5v816h246v-816q0 -213 -117 -354.5t-315 -171.5q-102 -67 -137 -119t-35 -119q0 -112 138 -112h136v-194h-152q-143 0 -227.5 68.5t-84.5 183.5q0 181 188 290q-209 26 -333.5 168t-124.5 360v816z
" />
    <glyph glyph-name="uogonek" unicode="&#x173;" horiz-adv-x="1124" 
d="M348 430q0 -119 55.5 -176.5t156.5 -57.5q94 0 157 62.5t63 159.5v606h244v-1024h2q-112 -72 -150 -125t-38 -123q0 -112 138 -112h136v-194h-152q-143 0 -227.5 68.5t-84.5 183.5q0 188 208 302h-76v154q-54 -87 -139 -135.5t-173 -48.5q-165 0 -266.5 108.5
t-101.5 301.5v644h248v-594z" />
    <glyph glyph-name="Wcircumflex" unicode="&#x174;" horiz-adv-x="2048" 
d="M886 1804h240l308 -370h-238l-188 240l-192 -240h-238zM52 1332h260l256 -1052l304 1052h300l304 -1052l262 1052h260l-380 -1332h-298l-302 1052l-292 -1052h-310z" />
    <glyph glyph-name="wcircumflex" unicode="&#x175;" horiz-adv-x="1696" 
d="M710 1516h238l310 -370h-238l-190 240l-190 -240h-240zM62 1024h260l176 -766l208 766h282l206 -766l182 766h260l-310 -1024h-278l-204 764l-198 -764h-288z" />
    <glyph glyph-name="Ycircumflex" unicode="&#x176;" horiz-adv-x="1252" 
d="M506 1804h238l310 -370h-238l-190 240l-190 -240h-240zM502 452l-450 880h274l302 -616l300 616h274l-456 -880v-452h-244v452z" />
    <glyph glyph-name="ycircumflex" unicode="&#x177;" horiz-adv-x="1168" 
d="M468 1516h240l308 -370h-238l-188 240l-192 -240h-238zM124 -126h134q67 0 104.5 24t59.5 82l20 52l-380 992h260l266 -754l258 754h262l-388 -1066q-60 -167 -149.5 -235.5t-250.5 -68.5h-196v220z" />
    <glyph glyph-name="Ydieresis" unicode="&#x178;" horiz-adv-x="1252" 
d="M736 1688h254v-254h-254v254zM266 1688h256v-254h-256v254zM502 452l-450 880h274l302 -616l300 616h274l-456 -880v-452h-244v452z" />
    <glyph glyph-name="Zacute" unicode="&#x179;" horiz-adv-x="1182" 
d="M944 1794l-298 -360h-198l216 360h280zM92 1332h998v-252l-728 -868h728v-212h-998v252l726 868h-726v212z" />
    <glyph glyph-name="zacute" unicode="&#x17a;" horiz-adv-x="1008" 
d="M860 1506l-300 -360h-198l218 360h280zM90 1024h828v-230l-548 -604h548v-190h-828v232l546 602h-546v190z" />
    <glyph glyph-name="Zdotaccent" unicode="&#x17b;" horiz-adv-x="1182" 
d="M456 1708h274v-274h-274v274zM92 1332h998v-252l-728 -868h728v-212h-998v252l726 868h-726v212z" />
    <glyph glyph-name="zdotaccent" unicode="&#x17c;" horiz-adv-x="1008" 
d="M372 1420h274v-274h-274v274zM90 1024h828v-230l-548 -604h548v-190h-828v232l546 602h-546v190z" />
    <glyph glyph-name="Zcaron" unicode="&#x17d;" horiz-adv-x="1182" 
d="M706 1434h-238l-310 370h240l190 -240l190 240h238zM92 1332h998v-252l-728 -868h728v-212h-998v252l726 868h-726v212z" />
    <glyph glyph-name="zcaron" unicode="&#x17e;" horiz-adv-x="1008" 
d="M622 1146h-240l-308 370h238l190 -240l190 240h238zM90 1024h828v-230l-548 -604h548v-190h-828v232l546 602h-546v190z" />
    <glyph glyph-name="longs" unicode="&#x17f;" horiz-adv-x="594" 
d="M534 1234h-72q-56 0 -84 -26t-28 -90v-1118h-248v1132q0 149 90 225.5t236 76.5h106v-200z" />
    <glyph glyph-name="Ohorn" unicode="&#x1a0;" horiz-adv-x="1402" 
d="M82 650q0 316 170.5 509t449.5 193q90 0 164 -20h234q59 0 90.5 28.5t31.5 105.5v96h196v-108q0 -74 -26 -129.5t-69.5 -85t-91.5 -43.5t-101 -14q93 -94 142.5 -230t49.5 -302q0 -300 -170.5 -483t-449.5 -183t-449.5 183t-170.5 483zM1070 650q0 226 -97 352t-271 126
q-175 0 -271.5 -125.5t-96.5 -352.5q0 -209 96.5 -324.5t271.5 -115.5q174 0 271 116t97 324z" />
    <glyph glyph-name="ohorn" unicode="&#x1a1;" horiz-adv-x="1206" 
d="M80 516q0 243 140 390.5t368 147.5q100 0 184 -30h132q59 0 91.5 29.5t32.5 106.5v94h194v-106q0 -126 -69 -191t-173 -79q114 -146 114 -362q0 -244 -139 -393t-367 -149t-368 149t-140 393zM842 516q0 154 -67 239t-187 85q-122 0 -189 -85t-67 -239q0 -156 67 -242
t189 -86q120 0 187 86t67 242z" />
    <glyph glyph-name="Uhorn" unicode="&#x1af;" horiz-adv-x="1328" 
d="M92 1332h246v-816q0 -141 77 -218.5t217 -77.5q132 0 205 77.5t73 218.5v816h196q44 7 68 37.5t24 96.5v94h196v-106q0 -126 -67.5 -191t-170.5 -79v-668q0 -239 -144.5 -385.5t-379.5 -146.5q-243 0 -391.5 146t-148.5 386v816z" />
    <glyph glyph-name="uhorn" unicode="&#x1b0;" horiz-adv-x="1226" 
d="M348 430q0 -119 55.5 -176.5t156.5 -57.5q94 0 157 62.5t63 159.5v606h164q59 0 91.5 29.5t32.5 106.5v94h194v-106q0 -126 -67.5 -191t-170.5 -79v-878h-244v154q-54 -87 -139 -135.5t-173 -48.5q-165 0 -266.5 108.5t-101.5 301.5v644h248v-594z" />
    <glyph glyph-name="uni01CD" unicode="&#x1cd;" horiz-adv-x="1324" 
d="M768 1434h-238l-310 370h240l190 -240l190 240h238zM1274 0h-260l-100 298h-504l-96 -298h-262l472 1332h280zM660 1064l-184 -566h372z" />
    <glyph glyph-name="uni01CE" unicode="&#x1ce;" horiz-adv-x="1104" 
d="M662 1146h-238l-310 370h240l190 -240l190 240h238zM1002 666v-666h-246v160q-53 -87 -140 -135.5t-196 -48.5q-149 0 -244.5 89.5t-95.5 228.5q0 136 79.5 212.5t228.5 87.5l268 18q54 3 77 22.5t23 61.5v4q0 70 -57.5 119t-140.5 49q-195 0 -216 -166h-254
q11 158 138.5 254t329.5 96q197 0 321.5 -108t124.5 -278zM330 306q0 -63 49 -100.5t131 -37.5q104 0 175 70t71 174v36l-278 -16q-148 -12 -148 -126z" />
    <glyph glyph-name="uni01CF" unicode="&#x1cf;" 
d="M336 1434h-238l-310 370h240l190 -240l190 240h238zM100 1332h248v-1332h-248v1332z" />
    <glyph glyph-name="uni01D0" unicode="&#x1d0;" 
d="M336 1146h-238l-310 370h240l190 -240l190 240h238zM100 1024h248v-1024h-248v1024z" />
    <glyph glyph-name="uni01D1" unicode="&#x1d1;" horiz-adv-x="1402" 
d="M802 1434h-240l-308 370h238l190 -240l190 240h238zM82 650q0 316 170.5 509t449.5 193t449.5 -193t170.5 -509q0 -300 -170.5 -483t-449.5 -183t-449.5 183t-170.5 483zM1070 650q0 226 -97 352t-271 126q-175 0 -271.5 -125.5t-96.5 -352.5q0 -209 96.5 -324.5
t271.5 -115.5q174 0 271 116t97 324z" />
    <glyph glyph-name="uni01D2" unicode="&#x1d2;" horiz-adv-x="1174" 
d="M696 1146h-240l-308 370h238l190 -240l190 240h238zM80 516q0 243 140 390.5t368 147.5t367 -147.5t139 -390.5q0 -244 -139 -393t-367 -149t-368 149t-140 393zM842 516q0 154 -67 239t-187 85q-122 0 -189 -85t-67 -239q0 -156 67 -242t189 -86q120 0 187 86t67 242z
" />
    <glyph glyph-name="uni01D3" unicode="&#x1d3;" horiz-adv-x="1246" 
d="M734 1434h-240l-308 370h238l190 -240l190 240h238zM92 1332h246v-816q0 -141 77 -218.5t217 -77.5q132 0 205 77.5t73 218.5v816h246v-816q0 -239 -144.5 -385.5t-379.5 -146.5q-243 0 -391.5 146t-148.5 386v816z" />
    <glyph glyph-name="uni01D4" unicode="&#x1d4;" horiz-adv-x="1124" 
d="M678 1146h-240l-308 370h238l190 -240l190 240h238zM348 430q0 -119 55.5 -176.5t156.5 -57.5q94 0 157 62.5t63 159.5v606h244v-1024h-244v154q-54 -87 -139 -135.5t-173 -48.5q-165 0 -266.5 108.5t-101.5 301.5v644h248v-594z" />
    <glyph glyph-name="uni01DD" unicode="&#x1dd;" horiz-adv-x="1170" 
d="M1090 512q0 -244 -134.5 -386t-363.5 -142q-224 0 -368 143t-144 365v84h756q-14 134 -79 203t-179 69q-96 0 -154.5 -41.5t-73.5 -116.5h-262q30 176 152 265t330 89q240 0 380 -143t140 -389zM590 168q205 0 240 238h-486q11 -110 77 -174t169 -64z" />
    <glyph glyph-name="uni01E2" unicode="&#x1e2;" horiz-adv-x="1958" 
d="M832 1652h676v-188h-676v188zM1866 1332v-232h-686v-306h628v-232h-628v-330h686v-232h-932v298h-488l-136 -298h-258l600 1332h1214zM526 498h408v608h-136z" />
    <glyph glyph-name="uni01E3" unicode="&#x1e3;" horiz-adv-x="1846" 
d="M558 1364h676v-188h-676v188zM1292 -16q-158 0 -272 73t-168 207q-42 -133 -154.5 -210.5t-267.5 -77.5q-152 0 -251 89.5t-99 228.5q0 135 79.5 211t228.5 85l268 18q54 3 77 22.5t23 61.5v4q0 70 -59 119t-143 49q-191 0 -212 -166h-254q11 161 128.5 257.5t301.5 96.5
q131 0 231 -50t153 -140q129 182 378 182q212 0 349 -148.5t137 -377.5v-64h-756q27 -272 258 -272q95 0 152 40.5t72 115.5h262q-30 -175 -147.5 -264.5t-314.5 -89.5zM1256 860q-208 0 -240 -236h486q-10 108 -77 172t-169 64zM330 314q0 -63 49.5 -100.5t130.5 -37.5
q105 0 175.5 70t70.5 174v36l-278 -16q-148 -9 -148 -126z" />
    <glyph glyph-name="uni01F0" unicode="&#x1f0;" 
d="M336 1146h-238l-310 370h240l190 -240l190 240h238zM-66 -142h64q51 0 76.5 26t25.5 90v1050h248v-1062q0 -159 -87 -241.5t-229 -82.5h-98v220z" />
    <glyph glyph-name="AEacute" unicode="&#x1fc;" horiz-adv-x="1958" 
d="M1252 1794l-300 -360h-198l218 360h280zM1866 1332v-232h-686v-306h628v-232h-628v-330h686v-232h-932v298h-488l-136 -298h-258l600 1332h1214zM526 498h408v608h-136z" />
    <glyph glyph-name="aeacute" unicode="&#x1fd;" horiz-adv-x="1846" 
d="M1254 1506l-298 -360h-198l216 360h280zM1292 -16q-158 0 -272 73t-168 207q-42 -133 -154.5 -210.5t-267.5 -77.5q-152 0 -251 89.5t-99 228.5q0 135 79.5 211t228.5 85l268 18q54 3 77 22.5t23 61.5v4q0 70 -59 119t-143 49q-191 0 -212 -166h-254q11 161 128.5 257.5
t301.5 96.5q131 0 231 -50t153 -140q129 182 378 182q212 0 349 -148.5t137 -377.5v-64h-756q27 -272 258 -272q95 0 152 40.5t72 115.5h262q-30 -175 -147.5 -264.5t-314.5 -89.5zM1256 860q-208 0 -240 -236h486q-10 108 -77 172t-169 64zM330 314q0 -63 49.5 -100.5
t130.5 -37.5q105 0 175.5 70t70.5 174v36l-278 -16q-148 -9 -148 -126z" />
    <glyph glyph-name="uni0237" unicode="&#x237;" 
d="M-66 -142h64q51 0 76.5 26t25.5 90v1050h248v-1062q0 -159 -87 -241.5t-229 -82.5h-98v220z" />
    <glyph glyph-name="uni0250" unicode="&#x250;" horiz-adv-x="1102" 
d="M98 712q0 162 -28 312h250q16 -74 22 -168q52 91 139.5 141.5t198.5 50.5q147 0 243.5 -89t96.5 -227q0 -136 -79.5 -211.5t-228.5 -84.5l-268 -18q-54 -4 -77 -23.5t-23 -60.5v-4q0 -72 58 -121t144 -49q191 0 212 168h254q-12 -162 -139.5 -258t-328.5 -96
q-198 0 -322 107t-124 277v354zM344 604v-36l278 18q148 9 148 124q0 63 -49.5 100.5t-130.5 37.5q-105 0 -175.5 -69.5t-70.5 -174.5z" />
    <glyph glyph-name="uni0251" unicode="&#x251;" horiz-adv-x="1198" 
d="M1216 212v-212h-54q-116 0 -197 50.5t-109 149.5q-53 -108 -142 -167t-202 -59q-194 0 -313 149t-119 393q0 243 119 390.5t313 147.5q107 0 191 -52t139 -148v170h246v-688q0 -69 26.5 -96.5t79.5 -27.5h22zM332 516q0 -156 67 -242t187 -86q122 0 189 86t67 242
q0 154 -67 239t-189 85q-120 0 -187 -85t-67 -239z" />
    <glyph glyph-name="uni0252" unicode="&#x252;" horiz-adv-x="1198" 
d="M-18 818v210h52q117 0 198.5 -50.5t109.5 -149.5q51 108 140.5 167t203.5 59q194 0 312 -149t118 -393q0 -243 -118 -390.5t-312 -147.5q-107 0 -192 52t-138 148v-170h-246v688q0 69 -27.5 97.5t-80.5 28.5h-20zM864 512q0 156 -67 242t-187 86q-121 0 -187.5 -86
t-66.5 -242q0 -153 66.5 -238.5t187.5 -85.5q120 0 187 85.5t67 238.5z" />
    <glyph glyph-name="uni0253" unicode="&#x253;" horiz-adv-x="1188" 
d="M80 0v986q0 213 134 343.5t356 130.5q209 0 346.5 -101.5t161.5 -270.5h-252q-9 82 -73.5 129t-168.5 47q-123 0 -190.5 -75.5t-67.5 -212.5v-170q53 92 139.5 143t194.5 51q192 0 310 -142t118 -374q0 -230 -118 -371t-310 -141q-109 0 -195 50t-139 142v-164h-246z
M836 484q0 143 -67.5 222.5t-188.5 79.5t-187.5 -79.5t-66.5 -222.5q0 -142 66.5 -221t187.5 -79t188.5 79.5t67.5 220.5z" />
    <glyph glyph-name="uni0254" unicode="&#x254;" horiz-adv-x="1156" 
d="M1078 512q0 -243 -139 -390.5t-367 -147.5q-207 0 -342 114.5t-150 309.5h252q3 -102 67 -156t173 -54q121 0 187.5 84.5t66.5 239.5q0 156 -67 242t-187 86q-107 0 -171.5 -53t-68.5 -153h-252q19 196 152.5 308t339.5 112q227 0 366.5 -149t139.5 -393z" />
    <glyph glyph-name="uni0255" unicode="&#x255;" horiz-adv-x="1158" 
d="M204 -150q0 163 34 282q-158 145 -158 384q0 243 139 390.5t367 147.5q207 0 342 -103t150 -279h-252q-14 88 -75 138t-165 50q-122 0 -188 -84t-66 -238q0 -97 22 -160q143 190 376 190q147 0 247.5 -79.5t100.5 -206.5q0 -137 -119.5 -217.5t-300.5 -80.5
q-138 0 -246 42q-10 -68 -10 -176h-198zM664 166q74 0 119.5 30t46.5 86q0 49 -38.5 78.5t-97.5 29.5q-154 0 -230 -168q77 -56 200 -56z" />
    <glyph glyph-name="uni0256" unicode="&#x256;" horiz-adv-x="1198" 
d="M1216 -122v-212h-54q-145 0 -232.5 77t-87.5 227v206q-55 -97 -139 -149.5t-191 -52.5q-194 0 -313 149t-119 393q0 243 119 390.5t313 147.5q107 0 191 -52t139 -148v580h246v-1432q0 -69 26.5 -96.5t79.5 -27.5h22zM332 516q0 -156 67 -242t187 -86q122 0 189 86
t67 242q0 154 -67 239t-189 85q-120 0 -187 -85t-67 -239z" />
    <glyph glyph-name="uni0257" unicode="&#x257;" horiz-adv-x="1198" 
d="M1238 1224h-44q-52 0 -79 -28.5t-27 -97.5v-1098h-246v176q-55 -97 -139 -149.5t-191 -52.5q-194 0 -313 149t-119 393q0 243 119 390.5t313 147.5q107 0 191 -52t139 -148v278q0 149 87.5 225.5t232.5 76.5h76v-210zM332 516q0 -156 67 -242t187 -86q122 0 189 86
t67 242q0 154 -67 239t-189 85q-120 0 -187 -85t-67 -239z" />
    <glyph glyph-name="uni0258" unicode="&#x258;" horiz-adv-x="1170" 
d="M1090 516q0 -246 -138 -389t-372 -143q-210 0 -334.5 89.5t-155.5 264.5h262q15 -74 73 -115t153 -41q231 0 258 272h-756v64q0 241 140 383.5t362 142.5q233 0 370.5 -142t137.5 -386zM344 624h486q-35 236 -240 236q-107 0 -173.5 -64t-72.5 -172z" />
    <glyph glyph-name="uni0259" unicode="&#x259;" horiz-adv-x="1170" 
d="M1090 512q0 -244 -134.5 -386t-363.5 -142q-224 0 -368 143t-144 365v84h756q-14 134 -79 203t-179 69q-96 0 -154.5 -41.5t-73.5 -116.5h-262q30 176 152 265t330 89q240 0 380 -143t140 -389zM590 168q205 0 240 238h-486q11 -110 77 -174t169 -64z" />
    <glyph glyph-name="uni025A" unicode="&#x25a;" horiz-adv-x="1500" 
d="M1090 512q0 -244 -134.5 -386t-363.5 -142q-224 0 -368 131t-144 335v46l746 144q-49 208 -248 208q-96 0 -154.5 -41.5t-73.5 -116.5h-262q30 176 152 265t330 89q188 0 317.5 -90.5t176.5 -253.5l160 32h126v-106q0 -57 24 -78.5t68 -21.5h44v-178h-66q-36 0 -68.5 6.5
t-64 22.5t-54.5 39.5t-37 61t-14 84.5v14l-94 -20q2 -14 2 -44zM346 374q14 -95 78.5 -150.5t165.5 -55.5q233 0 248 308z" />
    <glyph glyph-name="uni025B" unicode="&#x25b;" horiz-adv-x="1058" 
d="M978 320q-13 -164 -136.5 -252t-317.5 -88q-197 0 -319.5 82.5t-122.5 217.5q0 163 150 236q-132 68 -132 220q0 141 117.5 228.5t304.5 87.5q189 0 312.5 -96t137.5 -252h-252q-3 72 -52.5 115t-131.5 43q-86 0 -133 -37.5t-47 -104.5q0 -57 29.5 -87.5t84.5 -30.5h176
v-174h-176q-65 0 -100.5 -33t-35.5 -93q0 -63 50 -97.5t140 -34.5q89 0 143.5 40t58.5 110h252z" />
    <glyph glyph-name="uni025C" unicode="&#x25c;" horiz-adv-x="1058" 
d="M414 428v174h176q56 0 86 30.5t30 87.5q0 67 -48 104.5t-134 37.5q-82 0 -131.5 -43t-52.5 -115h-252q14 156 135 252t305 96q189 0 308.5 -87.5t119.5 -228.5q0 -153 -130 -220q152 -71 152 -236q0 -135 -119 -217.5t-313 -82.5q-192 0 -321.5 94.5t-142.5 245.5h252
q6 -69 61 -109.5t143 -40.5q89 0 138.5 34.5t49.5 97.5q0 60 -35.5 93t-100.5 33h-176z" />
    <glyph glyph-name="uni025D" unicode="&#x25d;" horiz-adv-x="1326" 
d="M1312 526v-178h-66q-36 0 -68.5 6.5t-64 22.5t-54.5 39.5t-37 61t-14 84.5v14l-134 -28q-26 -22 -48 -32q152 -71 152 -236q0 -135 -119 -217.5t-313 -82.5q-192 0 -321.5 94.5t-142.5 245.5h252q6 -69 61 -109.5t143 -40.5q89 0 138.5 34.5t49.5 97.5q0 60 -35.5 93
t-100.5 33h-176v174h176q56 0 86 30.5t30 87.5q0 67 -48 104.5t-134 37.5q-82 0 -131.5 -43t-52.5 -115h-252q14 156 135 252t305 96q189 0 308.5 -87.5t119.5 -228.5v-24l92 20h128v-106q0 -57 24 -78.5t68 -21.5h44z" />
    <glyph glyph-name="uni025E" unicode="&#x25e;" horiz-adv-x="1110" 
d="M882 516q146 -71 146 -236q0 -135 -112 -217.5t-294 -82.5q-237 0 -388.5 151t-151.5 393q0 234 145 381t375 147q180 0 293 -87.5t113 -228.5q0 -152 -126 -220zM334 524q0 -162 71.5 -253t200.5 -91q81 0 126.5 33t45.5 93q0 58 -35.5 90t-100.5 32h-136v174h136
q54 0 84 30t30 84q0 65 -43 100.5t-121 35.5q-124 0 -191 -86.5t-67 -241.5z" />
    <glyph glyph-name="uni025F" unicode="&#x25f;" horiz-adv-x="706" 
d="M60 -208h74q56 0 84 25.5t28 88.5v94h-186v202h186v822h246v-822h156v-202h-156v-106q0 -150 -89.5 -227t-236.5 -77h-106v202z" />
    <glyph glyph-name="uni0260" unicode="&#x260;" horiz-adv-x="1188" 
d="M1238 1224h-44q-52 0 -79 -28.5t-27 -97.5v-1120q0 -173 -131.5 -278.5t-348.5 -105.5q-213 0 -352.5 96.5t-165.5 257.5h252q9 -74 77 -116t179 -42q116 0 180 52t64 146v230q-55 -93 -140.5 -143.5t-193.5 -50.5q-192 0 -310 142t-118 374q0 231 118 371.5t310 140.5
q108 0 193.5 -50t140.5 -142v272q0 149 87.5 225.5t232.5 76.5h76v-210zM332 540q0 -142 67 -221t189 -79q121 0 187.5 78.5t66.5 221.5t-66.5 221.5t-187.5 78.5q-122 0 -189 -79t-67 -221z" />
    <glyph glyph-name="uni0261" unicode="&#x261;" horiz-adv-x="1188" 
d="M1088 1024v-1046q0 -173 -131.5 -278.5t-348.5 -105.5q-213 0 -352.5 96.5t-165.5 257.5h252q9 -74 77 -116t179 -42q116 0 180 52t64 146v230q-55 -93 -140.5 -143.5t-193.5 -50.5q-192 0 -310 142t-118 374q0 231 118 371.5t310 140.5q108 0 193.5 -50t140.5 -142v164
h246zM332 540q0 -142 67 -221t189 -79q121 0 187.5 78.5t66.5 221.5t-66.5 221.5t-187.5 78.5q-122 0 -189 -79t-67 -221z" />
    <glyph glyph-name="uni0262" unicode="&#x262;" horiz-adv-x="1156" 
d="M80 516q0 243 140.5 390.5t371.5 147.5q207 0 339 -105t147 -279h-252q-9 84 -70.5 132t-159.5 48q-126 0 -195 -87.5t-69 -246.5q0 -160 67 -249t187 -89q94 0 152.5 55t73.5 161h-240v164h506v-558h-166l-20 186q-51 -101 -139 -156.5t-199 -55.5q-213 0 -343.5 149
t-130.5 393z" />
    <glyph glyph-name="uni0263" unicode="&#x263;" horiz-adv-x="1148" 
d="M300 -2l110 204l-348 822h260l256 -684l248 684h262l-348 -824l108 -202q44 -79 44 -152q0 -107 -91.5 -179.5t-226.5 -72.5q-138 0 -229 70.5t-91 175.5q0 72 46 158zM652 -72l-80 152l-76 -152q-16 -35 -16 -58q0 -34 26 -54t70 -20q41 0 66.5 21t25.5 55q0 24 -16 56z
" />
    <glyph glyph-name="uni0264" unicode="&#x264;" horiz-adv-x="1036" 
d="M268 376l74 98l-280 550h260l198 -422l194 422h262l-286 -552l74 -96q50 -66 50 -148q0 -112 -85 -184t-219 -72q-132 0 -213 68t-81 178q0 86 52 158zM568 304l-54 82l-50 -82q-20 -37 -20 -64q0 -32 20 -50t54 -18q32 0 51 18.5t19 49.5q0 35 -20 64z" />
    <glyph glyph-name="uni0265" unicode="&#x265;" horiz-adv-x="1132" 
d="M348 420q0 -115 56.5 -169.5t159.5 -54.5q95 0 159.5 60t64.5 152v616h244v-1358h-244v486q-56 -85 -141.5 -133.5t-174.5 -48.5q-167 0 -269.5 104.5t-102.5 293.5v656h248v-604z" />
    <glyph glyph-name="uni0266" unicode="&#x266;" horiz-adv-x="1142" 
d="M100 0v986q0 213 132.5 343.5t351.5 130.5q204 0 337 -95.5t157 -256.5h-252q-9 77 -68.5 120.5t-157.5 43.5q-120 0 -186 -78t-66 -218v-128q54 88 140.5 137t177.5 49q170 0 274 -107.5t104 -300.5v-626h-246v574q0 119 -59 177.5t-165 58.5q-98 0 -162 -63.5
t-64 -160.5v-586h-248z" />
    <glyph glyph-name="uni0267" unicode="&#x267;" horiz-adv-x="1142" 
d="M102 0v986q0 213 132.5 343.5t351.5 130.5q204 0 337 -95.5t157 -256.5h-252q-9 77 -68.5 120.5t-157.5 43.5q-120 0 -186 -78t-66 -218v-130q54 86 137.5 137t180.5 51q173 0 275.5 -110.5t102.5 -299.5v-652q0 -166 -92 -260t-254 -94h-128v220h94q70 0 102 34.5
t32 111.5v588q0 117 -57 176.5t-167 59.5q-99 0 -162.5 -63t-63.5 -159v-586h-248z" />
    <glyph glyph-name="uni0268" unicode="&#x268;" horiz-adv-x="528" 
d="M128 1376h274v-222h-274v222zM142 1024h246v-358h142v-200h-142v-466h-246v466h-142v200h142v358z" />
    <glyph glyph-name="uni0269" unicode="&#x269;" horiz-adv-x="568" 
d="M520 212v-212h-106q-141 0 -226.5 77t-85.5 227v720h248v-688q0 -69 24 -96.5t72 -27.5h74z" />
    <glyph glyph-name="uni026A" unicode="&#x26a;" horiz-adv-x="758" 
d="M696 1024v-220h-194v-582h194v-222h-634v222h194v582h-194v220h634z" />
    <glyph glyph-name="uni026B" unicode="&#x26b;" horiz-adv-x="750" 
d="M218 916q6 0 19 -1t19 -1v520h246v-654h2q46 0 72 33.5t26 90.5h150q0 -147 -62.5 -229.5t-173.5 -84.5q-3 0 -7.5 1t-6.5 1v-592h-246v728h-10q-42 0 -67 -35t-25 -93h-154q0 153 56.5 234.5t161.5 81.5z" />
    <glyph glyph-name="uni026C" unicode="&#x26c;" horiz-adv-x="736" 
d="M282 1434h244v-752h212v-148h-212v-534h-244v534h-24q-114 0 -186 62t-72 182t72 182t186 62h24v412zM270 682h12v190h-12q-106 0 -106 -94q0 -96 106 -96z" />
    <glyph glyph-name="uni026D" unicode="&#x26d;" horiz-adv-x="562" 
d="M504 -122v-212h-76q-147 0 -236.5 77t-89.5 227v1464h248v-1432q0 -69 28 -96.5t84 -27.5h42z" />
    <glyph glyph-name="uni026E" unicode="&#x26e;" horiz-adv-x="1246" 
d="M832 452q169 -22 256.5 -128.5t87.5 -289.5q0 -200 -138 -322t-366 -122q-199 0 -330.5 92t-155.5 246h250q11 -64 71.5 -99t164.5 -35q120 0 186 63.5t66 180.5q0 114 -65 175t-185 61h-114v184l300 354h-512v-812h-248v1434h248v-410h788v-212z" />
    <glyph glyph-name="uni026F" unicode="&#x26f;" horiz-adv-x="1756" 
d="M348 432q0 -236 202 -236q88 0 147 62.5t59 159.5v606h246v-592q0 -120 53.5 -178t150.5 -58q88 0 147 62.5t59 159.5v606h244v-1024h-244v148q-55 -84 -135.5 -131t-164.5 -47q-115 0 -201.5 59t-126.5 169q-50 -107 -140.5 -167.5t-187.5 -60.5q-158 0 -257 108.5
t-99 301.5v644h248v-592z" />
    <glyph glyph-name="uni0270" unicode="&#x270;" horiz-adv-x="1756" 
d="M348 432q0 -236 202 -236q88 0 147 62.5t59 159.5v606h246v-592q0 -120 53.5 -178t150.5 -58q88 0 147 62.5t59 159.5v606h244v-1358h-244v482q-55 -84 -135.5 -131t-164.5 -47q-115 0 -201.5 59t-126.5 169q-50 -107 -140.5 -167.5t-187.5 -60.5q-158 0 -257 108.5
t-99 301.5v644h248v-592z" />
    <glyph glyph-name="uni0271" unicode="&#x271;" horiz-adv-x="1756" 
d="M756 594q0 120 -53 178t-149 58q-89 0 -147.5 -62.5t-58.5 -159.5v-608h-248v1024h248v-148q51 84 132.5 131t165.5 47q115 0 201 -59t125 -169q50 107 140.5 167.5t189.5 60.5q158 0 256 -107.5t98 -300.5v-652q0 -167 -91.5 -260.5t-254.5 -93.5h-126v220h94
q70 0 102 34.5t32 111.5v588q0 119 -54 177.5t-150 58.5q-88 0 -147 -62.5t-59 -159.5v-608h-246v594z" />
    <glyph glyph-name="uni0272" unicode="&#x272;" horiz-adv-x="1142" 
d="M-64 -170h64q51 0 76.5 26t25.5 90v1080h248v-156q54 87 140.5 135.5t177.5 48.5q170 0 274 -107.5t104 -300.5v-646h-246v594q0 119 -59 177.5t-165 58.5q-98 0 -162 -62.5t-64 -159.5v-676q0 -149 -87 -225.5t-229 -76.5h-98v200z" />
    <glyph glyph-name="uni0273" unicode="&#x273;" horiz-adv-x="1142" 
d="M800 594q0 119 -59 177.5t-165 58.5q-98 0 -162 -62.5t-64 -159.5v-608h-248v1024h248v-154q54 87 140.5 135.5t177.5 48.5q170 0 274 -107.5t104 -300.5v-644q0 -69 26.5 -96.5t79.5 -27.5h20v-212h-54q-143 0 -230.5 77t-87.5 227v624z" />
    <glyph glyph-name="uni0274" unicode="&#x274;" horiz-adv-x="1166" 
d="M818 1024h246v-1024h-260l-454 686v-686h-248v1024h288l428 -660v660z" />
    <glyph glyph-name="uni0275" unicode="&#x275;" horiz-adv-x="1174" 
d="M80 516q0 243 140 390.5t368 147.5t367 -147.5t139 -390.5q0 -244 -139 -393t-367 -149t-368 149t-140 393zM588 860q-114 0 -184.5 -69t-87.5 -195h542q-17 126 -87.5 195t-182.5 69zM588 168q112 0 182 69.5t86 198.5h-540q16 -129 87 -198.5t185 -69.5z" />
    <glyph glyph-name="uni0276" unicode="&#x276;" horiz-adv-x="1684" 
d="M80 516q0 243 123.5 390.5t324.5 147.5q97 0 177.5 -41t136.5 -117v128h770v-200h-518v-216h462v-182h-462v-214h518v-212h-770v134q-56 -77 -136.5 -118.5t-177.5 -41.5q-201 0 -324.5 149t-123.5 393zM842 516q0 154 -67 239t-187 85q-122 0 -189 -85t-67 -239
q0 -156 67 -242t189 -86q120 0 187 86t67 242z" />
    <glyph glyph-name="uni0277" unicode="&#x277;" horiz-adv-x="1462" 
d="M730 168q-90 -192 -286 -192q-161 0 -261.5 128.5t-100.5 333.5q0 270 182.5 440t473.5 170q189 0 335.5 -74.5t227.5 -210t81 -311.5q0 -210 -105 -343t-271 -133q-93 0 -164.5 49.5t-111.5 142.5zM742 834q-194 0 -303 -104t-109 -290q0 -115 40.5 -176.5t117.5 -61.5
q75 0 115.5 52t40.5 146v206h174v-206q0 -90 38.5 -139t109.5 -49q82 0 125 63t43 181q0 179 -103 278.5t-289 99.5z" />
    <glyph glyph-name="uni0278" unicode="&#x278;" horiz-adv-x="1174" 
d="M80 516q0 224 120 368.5t322 165.5v384h128v-384q202 -20 323 -164.5t121 -369.5q0 -227 -121 -372.5t-323 -165.5v-312h-128v312q-202 23 -322 168t-120 370zM862 516q0 138 -55.5 223t-156.5 105v-660q101 20 156.5 106.5t55.5 225.5zM312 516q0 -139 54.5 -224
t155.5 -108v660q-101 -21 -155.5 -106.5t-54.5 -221.5z" />
    <glyph glyph-name="uni0279" unicode="&#x279;" horiz-adv-x="752" 
d="M70 234h60q117 0 196.5 63t79.5 161v566h246v-1024h-246v164q-50 -87 -124 -135.5t-150 -48.5h-62v254z" />
    <glyph glyph-name="uni027A" unicode="&#x27a;" horiz-adv-x="752" 
d="M70 234h60q117 0 196.5 63t79.5 161v976h246v-1434h-246v164q-50 -87 -124 -135.5t-150 -48.5h-62v254z" />
    <glyph glyph-name="uni027B" unicode="&#x27b;" horiz-adv-x="752" 
d="M70 234h60q117 0 196.5 63t79.5 161v566h246v-1022q0 -68 28.5 -96t83.5 -28h44v-212h-76q-147 0 -236.5 77t-89.5 227v194q-50 -87 -124 -135.5t-150 -48.5h-62v254z" />
    <glyph glyph-name="uni027C" unicode="&#x27c;" horiz-adv-x="752" 
d="M100 1024h248v-162q49 86 122.5 134t151.5 48h60v-252h-58q-118 0 -197 -64t-79 -162v-900h-248v1358z" />
    <glyph glyph-name="uni027D" unicode="&#x27d;" horiz-adv-x="752" 
d="M502 -122v-212h-76q-147 0 -236.5 77t-89.5 227v1054h248v-162q49 86 122.5 134t151.5 48h60v-252h-58q-118 0 -197 -64t-79 -162v-564q0 -69 28 -96.5t84 -27.5h42z" />
    <glyph glyph-name="uni027E" unicode="&#x27e;" horiz-adv-x="584" 
d="M526 814h-34q-71 0 -106.5 -35t-35.5 -121v-658h-248v680q0 169 98 256.5t258 87.5h68v-210z" />
    <glyph glyph-name="uni027F" unicode="&#x27f;" horiz-adv-x="564" 
d="M40 814v210h86q152 0 244 -85t92 -249v-1024h-246v1002q0 79 -31 112.5t-93 33.5h-52z" />
    <glyph glyph-name="uni0280" unicode="&#x280;" horiz-adv-x="1112" 
d="M568 326h-218v-326h-248v1024h554q168 0 271 -88t103 -232q0 -97 -56 -168.5t-156 -103.5q90 -22 135.5 -81.5t60.5 -170.5l24 -180h-242l-22 156q-12 92 -59.5 131t-146.5 39zM622 824h-272v-298h272q77 0 119.5 37.5t42.5 106.5q0 73 -42.5 113.5t-119.5 40.5z" />
    <glyph glyph-name="uni0281" unicode="&#x281;" horiz-adv-x="1112" 
d="M568 698q99 0 146.5 39t59.5 131l22 156h242l-24 -180q-15 -111 -60.5 -170.5t-135.5 -81.5q100 -32 156 -103.5t56 -168.5q0 -144 -103 -232t-271 -88h-554v1024h248v-326h218zM622 202q77 0 119.5 40t42.5 112q0 69 -42.5 106.5t-119.5 37.5h-272v-296h272z" />
    <glyph glyph-name="uni0282" unicode="&#x282;" horiz-adv-x="1080" 
d="M482 -170v-202h-76q-146 0 -236 72t-90 212v404h236q15 -84 75 -123t173 -39q90 0 144 35t54 93q0 103 -148 120l-186 20q-170 20 -254 96.5t-84 213.5q0 147 117 232.5t319 85.5q193 0 313.5 -88.5t138.5 -241.5h-242q-14 77 -65 113.5t-145 36.5q-86 0 -137 -33.5
t-51 -90.5q0 -53 33.5 -79t106.5 -35l194 -20q171 -19 250.5 -98t79.5 -226q0 -141 -98 -225.5t-260 -84.5q-225 0 -328 144v-178q0 -63 28.5 -88.5t83.5 -25.5h54z" />
    <glyph glyph-name="uni0283" unicode="&#x283;" horiz-adv-x="634" 
d="M390 -28q0 -169 -91 -256.5t-239 -87.5h-102v222h62q61 0 92.5 30.5t31.5 105.5v1146q0 149 90 225.5t236 76.5h106v-200h-74q-56 0 -84 -26t-28 -90v-1146z" />
    <glyph glyph-name="uni0284" unicode="&#x284;" horiz-adv-x="700" 
d="M52 0v202h156v930q0 149 90 225.5t236 76.5h106v-200h-72q-56 0 -85 -26t-29 -90v-916h186v-202h-186v-64q0 -150 -90 -229t-236 -79h-96v212h64q56 0 84 24t28 84v52h-156z" />
    <glyph glyph-name="uni0285" unicode="&#x285;" horiz-adv-x="710" 
d="M52 824v200h106q146 0 236 -76.5t90 -225.5v-758q0 -63 28 -88.5t84 -25.5h64v-222h-96q-146 0 -236 83t-90 241v758q0 63 -28 88.5t-84 25.5h-74z" />
    <glyph glyph-name="uni0286" unicode="&#x286;" horiz-adv-x="1028" 
d="M212 -22q0 -65 41.5 -100.5t116.5 -35.5q88 0 127 46.5t39 153.5v66q-64 16 -130 16q-87 0 -140.5 -40.5t-53.5 -105.5zM1060 -410h-222q0 196 -66 322q-57 -284 -402 -284q-180 0 -285 94.5t-105 255.5q0 151 118 250.5t298 99.5q78 0 140 -14v818q0 142 86.5 222
t239.5 80h106v-200h-72q-59 0 -85.5 -27.5t-26.5 -88.5v-908q131 -96 203.5 -256t72.5 -364z" />
    <glyph glyph-name="uni0287" unicode="&#x287;" horiz-adv-x="706" 
d="M648 0h-172v-266h-246v266h-170v202h170v486q0 69 -24 97.5t-72 28.5h-74v210h106q141 0 225.5 -76.5t84.5 -225.5v-520h172v-202z" />
    <glyph glyph-name="uni0288" unicode="&#x288;" horiz-adv-x="706" 
d="M648 -122v-212h-106q-141 0 -226.5 77t-85.5 227v854h-170v200h170v266h246v-266h172v-200h-172v-822q0 -68 25 -96t73 -28h74z" />
    <glyph glyph-name="uni0289" unicode="&#x289;" horiz-adv-x="1124" 
d="M0 666h100v358h248v-358h432v358h244v-358h100v-180h-100v-486h-244v154q-54 -87 -139 -135.5t-173 -48.5q-165 0 -266.5 108.5t-101.5 301.5v106h-100v180zM348 430q0 -119 55.5 -176.5t156.5 -57.5q94 0 157 62.5t63 159.5v68h-432v-56z" />
    <glyph glyph-name="uni028A" unicode="&#x28a;" horiz-adv-x="1220" 
d="M612 -26q-238 0 -384 128.5t-146 337.5q0 112 55.5 211t156.5 163h-212v210h458v-210q-96 -34 -151 -123t-55 -201q0 -138 73 -214t205 -76t204 76t72 214q0 112 -55 201t-151 123v210h458v-210h-212q100 -64 156 -163.5t56 -210.5q0 -209 -145.5 -337.5t-382.5 -128.5z
" />
    <glyph glyph-name="uni028B" unicode="&#x28b;" horiz-adv-x="1134" 
d="M100 1024h248v-574q0 -109 56.5 -169.5t157.5 -60.5q115 0 176.5 80.5t61.5 233.5q0 143 -44.5 211.5t-139.5 68.5h-36v210h74q183 0 286.5 -133.5t103.5 -366.5q0 -245 -131.5 -392.5t-350.5 -147.5q-206 0 -334 128.5t-128 337.5v574z" />
    <glyph glyph-name="uni028C" unicode="&#x28c;" horiz-adv-x="1148" 
d="M1088 0h-260l-256 786l-248 -786h-262l372 1024h282z" />
    <glyph glyph-name="uni028D" unicode="&#x28d;" horiz-adv-x="1696" 
d="M1636 0h-260l-176 766l-208 -766h-282l-206 766l-182 -766h-260l310 1024h278l206 -764l196 764h290z" />
    <glyph glyph-name="uni028E" unicode="&#x28e;" horiz-adv-x="1168" 
d="M1042 1216h-104q-70 0 -109.5 -39t-74.5 -131l-18 -52l372 -994h-260l-266 746l-258 -746h-262l388 1068q72 201 166 283.5t264 82.5h162v-218z" />
    <glyph glyph-name="uni028F" unicode="&#x28f;" horiz-adv-x="1146" 
d="M448 310l-386 714h276l238 -482l236 482h274l-392 -716v-308h-246v310z" />
    <glyph glyph-name="uni0290" unicode="&#x290;" horiz-adv-x="1008" 
d="M90 1024h828v-230l-548 -604h548v-246q0 -63 28.5 -88.5t83.5 -25.5h54v-202h-76q-146 0 -236 72t-90 212v88h-592v232l546 602h-546v190z" />
    <glyph glyph-name="uni0291" unicode="&#x291;" horiz-adv-x="1334" 
d="M558 -212q0 106 16 212h-484v232l546 602h-546v190h828v-230l-548 -604h254q61 159 167.5 246.5t246.5 87.5q129 0 213.5 -71.5t84.5 -180.5q0 -125 -84 -198.5t-228 -73.5h-260q-14 -90 -14 -212h-192zM1028 354q-141 0 -212 -164h208q52 0 81 21.5t29 60.5q0 36 -29 59
t-77 23z" />
    <glyph glyph-name="uni0292" unicode="&#x292;" horiz-adv-x="1146" 
d="M702 452q183 -23 278.5 -129t95.5 -289q0 -200 -136 -322t-358 -122q-205 0 -338.5 111.5t-159.5 298.5h252q9 -91 74 -142.5t172 -51.5q116 0 179 60.5t63 171.5q0 114 -73.5 175t-208.5 61h-114v184l344 354l-680 2v210h964v-212z" />
    <glyph glyph-name="uni0293" unicode="&#x293;" horiz-adv-x="1146" 
d="M462 6q-57 0 -93.5 -30t-36.5 -76q0 -51 55.5 -82.5t142.5 -31.5q171 0 250 82q-123 138 -318 138zM722 488q174 -25 264 -141.5t90 -314.5q0 -110 -48 -200q61 -107 94 -242h-192q-22 61 -38 94q-141 -94 -350 -94q-196 0 -327 86t-131 224q0 123 98 203.5t242 80.5
q244 0 420 -136q-3 130 -82 201t-220 71h-114v186l336 306l-672 2v210h964v-212z" />
    <glyph glyph-name="uni0294" unicode="&#x294;" horiz-adv-x="1130" 
d="M690 478v-478h-244v608q176 73 264 170t88 236q0 112 -61 175t-171 63q-102 0 -164.5 -65.5t-67.5 -176.5h-252q13 201 144 325.5t328 124.5q223 0 358.5 -122.5t135.5 -323.5q0 -335 -358 -536z" />
    <glyph glyph-name="uni0295" unicode="&#x295;" horiz-adv-x="1130" 
d="M442 478q-360 202 -360 536q0 201 135.5 323.5t360.5 122.5q195 0 326 -124.5t144 -325.5h-250q-5 111 -67.5 176.5t-164.5 65.5q-110 0 -171 -63t-61 -175q0 -139 88 -236t264 -170v-608h-244v478z" />
    <glyph glyph-name="uni0296" unicode="&#x296;" horiz-adv-x="1130" 
d="M690 956q358 -201 358 -536q0 -201 -135.5 -323.5t-358.5 -122.5q-196 0 -327 125t-145 325h252q4 -111 67 -175.5t165 -64.5q110 0 171 62t61 174q0 139 -88 236t-264 170v608h244v-478z" />
    <glyph glyph-name="uni0297" unicode="&#x297;" horiz-adv-x="1186" 
d="M80 312q0 334 148 538t390 204q206 0 340.5 -122t149.5 -330h-250q-4 115 -68.5 176.5t-171.5 61.5q-136 0 -211 -138t-75 -390q0 -240 75.5 -373t210.5 -133q106 0 170 56.5t70 163.5h250q-19 -204 -151.5 -320t-338.5 -116q-241 0 -389.5 199t-148.5 523z" />
    <glyph glyph-name="uni0298" unicode="&#x298;" horiz-adv-x="1362" 
d="M82 650q0 331 159 516.5t441 185.5q283 0 440.5 -185t157.5 -517q0 -315 -157.5 -490.5t-440.5 -175.5q-284 0 -442 175.5t-158 490.5zM1038 650q0 498 -356 498q-358 0 -358 -498q0 -462 358 -462q356 0 356 462zM578 762h212v-212h-212v212z" />
    <glyph glyph-name="uni0299" unicode="&#x299;" horiz-adv-x="1140" 
d="M880 516q87 -35 133.5 -95t46.5 -141q0 -126 -89 -203t-235 -77h-634v1024h616q142 0 232 -80t90 -208q0 -152 -160 -220zM674 602q54 0 83 28.5t29 81.5q0 58 -33 90t-93 32h-304v-232h318zM672 190q65 0 100.5 30.5t35.5 87.5t-35.5 89.5t-98.5 32.5h-318v-240h316z
" />
    <glyph glyph-name="uni029A" unicode="&#x29a;" horiz-adv-x="1110" 
d="M230 514q-138 71 -138 230q0 138 110.5 223t289.5 85q237 0 386.5 -149t149.5 -391q0 -235 -146 -383.5t-376 -148.5q-183 0 -298.5 86t-115.5 222q0 77 35.5 135t102.5 91zM778 512q0 159 -71.5 248.5t-198.5 89.5q-78 0 -121 -34.5t-43 -97.5q0 -56 33 -87t93 -31v-36
l40 36l96 -52l-136 -122q-60 0 -93 -30.5t-33 -87.5q0 -60 45.5 -94t126.5 -34q126 0 194 87t68 245z" />
    <glyph glyph-name="uni029B" unicode="&#x29b;" horiz-adv-x="1156" 
d="M80 516q0 243 129 390.5t341 147.5q101 0 181.5 -44.5t128.5 -125.5v114q0 163 85 248.5t223 85.5h66v-212h-32q-64 0 -96 -32.5t-32 -111.5v-306h-244q-9 84 -72 132t-162 48q-126 0 -195 -87.5t-69 -246.5q0 -160 67 -249t187 -89q94 0 152.5 55t73.5 161h-240v164h506
v-558h-166l-20 186q-51 -101 -139 -156.5t-199 -55.5q-213 0 -343.5 149t-130.5 393z" />
    <glyph glyph-name="uni029C" unicode="&#x29c;" horiz-adv-x="1166" 
d="M102 1024h248v-396h468v396h246v-1024h-246v406h-468v-406h-248v1024z" />
    <glyph glyph-name="uni029D" unicode="&#x29d;" horiz-adv-x="698" 
d="M338 1376h274v-222h-274v222zM598 -58q0 -147 -94 -230.5t-262 -83.5q-158 0 -248 82.5t-90 227.5q0 137 93.5 219.5t250.5 82.5h104v784h246v-784h120v-192h-120v-106zM242 -160q58 0 84 27t26 87v94h-86q-60 0 -96 -28.5t-36 -75.5q0 -49 28.5 -76.5t79.5 -27.5z" />
    <glyph glyph-name="uni029E" unicode="&#x29e;" horiz-adv-x="1110" 
d="M376 0h-308l402 486l-428 538h290l320 -396l110 132v264h246v-1358h-246v830z" />
    <glyph glyph-name="uni029F" unicode="&#x29f;" horiz-adv-x="830" 
d="M768 0h-666v1024h248v-792h418v-232z" />
    <glyph glyph-name="uni02A0" unicode="&#x2a0;" horiz-adv-x="1198" 
d="M1238 1224h-44q-52 0 -79 -28.5t-27 -97.5v-1432h-246v510q-55 -97 -139 -149.5t-191 -52.5q-194 0 -313 149t-119 393q0 243 119 390.5t313 147.5q107 0 191 -52t139 -148v278q0 149 87.5 225.5t232.5 76.5h76v-210zM332 516q0 -156 67 -242t187 -86q122 0 189 86
t67 242q0 154 -67 239t-189 85q-120 0 -187 -85t-67 -239z" />
    <glyph glyph-name="uni02A1" unicode="&#x2a1;" horiz-adv-x="1130" 
d="M164 440h282v168q176 73 264 170t88 236q0 112 -61 175t-171 63q-102 0 -164.5 -65.5t-67.5 -176.5h-252q13 201 144 325.5t328 124.5q223 0 358.5 -122.5t135.5 -323.5q0 -317 -358 -504v-70h276v-180h-276v-260h-244v260h-282v180z" />
    <glyph glyph-name="uni02A2" unicode="&#x2a2;" horiz-adv-x="1130" 
d="M164 440h278v80q-169 87 -264.5 210.5t-95.5 283.5q0 201 135.5 323.5t360.5 122.5q195 0 326 -124.5t144 -325.5h-250q-5 111 -67.5 176.5t-164.5 65.5q-110 0 -171 -63t-61 -175q0 -139 88 -236t264 -170v-168h280v-180h-280v-260h-244v260h-278v180z" />
    <glyph glyph-name="uni02A3" unicode="&#x2a3;" horiz-adv-x="2090" 
d="M1088 1434v-410h914v-230l-548 -604h548v-190h-828v232l546 602h-632v-834h-246v176q-55 -97 -139 -149.5t-191 -52.5q-194 0 -313 149t-119 393q0 243 119 390.5t313 147.5q107 0 191 -52t139 -148v580h246zM332 516q0 -156 67 -242t187 -86q122 0 189 86t67 242
q0 154 -67 239t-189 85q-120 0 -187 -85t-67 -239z" />
    <glyph glyph-name="uni02A4" unicode="&#x2a4;" horiz-adv-x="1996" 
d="M842 1434h246v-410h790v-212l-304 -360q169 -22 256.5 -128.5t87.5 -289.5q0 -200 -139 -322t-365 -122q-200 0 -331 92t-157 246h252q9 -63 70.5 -98.5t165.5 -35.5q120 0 186 63.5t66 180.5q0 113 -65.5 174.5t-184.5 61.5h-116v184l298 354l-510 2v-814h-246v176
q-55 -97 -139 -149.5t-191 -52.5q-194 0 -313 149t-119 393q0 243 119 390.5t313 147.5q107 0 191 -52t139 -148v580zM332 516q0 -156 67 -242t187 -86q122 0 189 86t67 242q0 154 -67 239t-189 85q-120 0 -187 -85t-67 -239z" />
    <glyph glyph-name="uni02A5" unicode="&#x2a5;" horiz-adv-x="2352" 
d="M1642 -212q0 124 16 212h-484v232l546 602h-632v-834h-246v176q-55 -97 -139 -149.5t-191 -52.5q-194 0 -313 149t-119 393q0 243 119 390.5t313 147.5q107 0 191 -52t139 -148v580h246v-410h914v-230l-548 -604h252q61 159 168.5 246.5t247.5 87.5q129 0 213.5 -71.5
t84.5 -180.5q0 -124 -84.5 -198t-227.5 -74h-260q-14 -87 -14 -212h-192zM332 516q0 -156 67 -242t187 -86q122 0 189 86t67 242q0 154 -67 239t-189 85q-120 0 -187 -85t-67 -239zM2112 354q-140 0 -214 -164h210q52 0 81 21.5t29 60.5q0 36 -29 59t-77 23z" />
    <glyph glyph-name="uni02A6" unicode="&#x2a6;" horiz-adv-x="1686" 
d="M1218 412l-186 22q-171 19 -254.5 95t-83.5 211q0 144 117.5 227t318.5 83q194 0 314 -88t138 -242h-242q-14 77 -65 113.5t-145 36.5q-86 0 -137 -32.5t-51 -87.5q0 -48 32.5 -73.5t107.5 -34.5l194 -20q171 -20 250.5 -96.5t79.5 -221.5q0 -144 -99 -224t-277 -80h-618
q-180 0 -281 96.5t-101 267.5v460h-170v200h170v266h246v-266h172v-200h-172v-426q0 -96 40.5 -140t129.5 -44h548q82 0 125 23.5t43 66.5q0 46 -35 72.5t-109 35.5z" />
    <glyph glyph-name="uni02A7" unicode="&#x2a7;" horiz-adv-x="1236" 
d="M1000 -38q0 -164 -91 -249t-239 -85h-102v222h62q61 0 92.5 28t31.5 98v24h-212q-141 0 -226.5 77t-85.5 227v520h-170v200h170v266h246v-266h278v108q0 149 90 225.5t236 76.5h106v-200h-74q-56 0 -84 -26t-28 -90v-1156zM574 212h180v612h-278v-488q0 -68 25 -96
t73 -28z" />
    <glyph glyph-name="uni02A8" unicode="&#x2a8;" horiz-adv-x="1748" 
d="M574 0q-161 0 -252.5 79.5t-91.5 234.5v510h-170v200h170v266h246v-266h172v-200h-172v-478q0 -84 30 -120t88 -36q84 0 154 48q-78 120 -78 290q0 243 138 391.5t366 148.5q207 0 343 -104.5t149 -279.5h-252q-14 88 -75 138t-165 50q-122 0 -188 -84t-66 -238
q0 -70 16 -134q78 76 166.5 120t211.5 44q150 0 251 -81t101 -211q0 -134 -120 -213t-300 -79q-223 0 -374 110q-138 -106 -298 -106zM1252 178q75 0 120 28.5t46 81.5q0 48 -38 79t-96 31q-73 0 -129.5 -36t-126.5 -108q82 -76 224 -76z" />
    <glyph glyph-name="uni02A9" unicode="&#x2a9;" horiz-adv-x="1692" 
d="M60 824v200h156v108q0 149 90 225.5t236 76.5h106v-200h-74q-56 0 -84 -26t-28 -90v-94h186h246v-158q54 86 138.5 137t181.5 51q173 0 274.5 -110.5t101.5 -299.5v-672q0 -166 -92 -260t-254 -94h-128v220h94q70 0 102 34.5t32 111.5v608q0 236 -222 236
q-99 0 -163.5 -62.5t-64.5 -159.5v-606h-246v824h-186v-824h-246v824h-156z" />
    <glyph glyph-name="uni02AA" unicode="&#x2aa;" horiz-adv-x="1498" 
d="M1028 412l-186 22q-171 19 -253.5 95t-82.5 211q0 144 116.5 227t317.5 83q194 0 315 -88t137 -242h-240q-26 150 -212 150q-86 0 -136 -32.5t-50 -87.5q0 -48 32 -72.5t106 -35.5l194 -20q171 -18 250.5 -95t79.5 -223q0 -144 -106 -224t-296 -80h-528q-180 0 -282 96.5
t-102 267.5v1070h248v-1036q0 -96 40 -140t128 -44h466q91 0 139.5 24t48.5 66q0 46 -35 72.5t-109 35.5z" />
    <glyph glyph-name="uni02AB" unicode="&#x2ab;" horiz-adv-x="1350" 
d="M350 1434v-410h912v-230l-546 -604h546v-190h-826v232l544 602h-630v-834h-248v1434h248z" />
    <glyph glyph-name="uni02AC" unicode="&#x2ac;" horiz-adv-x="1124" 
d="M62 1332h204l94 -398l96 398h210l92 -398l102 398h204l-198 -594h-188l-114 396l-106 -396h-212zM62 594h204l94 -396l96 396h210l92 -396l102 396h204l-198 -594h-188l-114 396l-106 -396h-212z" />
    <glyph glyph-name="uni02AD" unicode="&#x2ad;" horiz-adv-x="1124" 
d="M1022 738h-196v418h-526v-418h-196v594h918v-594zM1022 0h-196v420h-526v-420h-196v594h918v-594z" />
    <glyph glyph-name="uni02AE" unicode="&#x2ae;" horiz-adv-x="1124" 
d="M348 430q0 -119 55.5 -176.5t156.5 -57.5q94 0 157 62.5t63 159.5v606h244v-1358h-244v488q-54 -87 -139 -135.5t-173 -48.5q-165 0 -266.5 108.5t-101.5 301.5v288q0 79 -30.5 112.5t-91.5 33.5h-54v210h86q152 0 245 -85.5t93 -248.5v-260z" />
    <glyph glyph-name="uni02AF" unicode="&#x2af;" horiz-adv-x="1124" 
d="M348 430q0 -119 55.5 -176.5t156.5 -57.5q94 0 157 62.5t63 159.5v606h244v-1022q0 -69 26.5 -96.5t79.5 -27.5h44v-212h-76q-144 0 -231 77t-87 227v184q-54 -87 -139 -135.5t-173 -48.5q-165 0 -266.5 108.5t-101.5 301.5v288q0 79 -30.5 112.5t-91.5 33.5h-54v210h86
q152 0 245 -85.5t93 -248.5v-260z" />
    <glyph glyph-name="uni02BC" unicode="&#x2bc;" horiz-adv-x="366" 
d="M92 1416h276v-322q0 -114 -62 -172t-164 -58h-64v124h32q71 0 104.5 26t33.5 92v38h-156v272z" />
    <glyph glyph-name="uni02C8" unicode="&#x2c8;" horiz-adv-x="436" 
d="M100 1434h236v-674h-236v674z" />
    <glyph glyph-name="uni02CC" unicode="&#x2cc;" horiz-adv-x="436" 
d="M100 340h236v-674h-236v674z" />
    <glyph glyph-name="uni02D0" unicode="&#x2d0;" horiz-adv-x="552" 
d="M88 1024h378l-190 -326zM276 328l190 -328h-378z" />
    <glyph glyph-name="gravecomb" unicode="&#x300;" horiz-adv-x="614" 
d="M-20 1384h280l216 -360h-196z" />
    <glyph glyph-name="acutecomb" unicode="&#x301;" horiz-adv-x="614" 
d="M666 1384l-298 -360h-198l216 360h280z" />
    <glyph glyph-name="uni0302" unicode="&#x302;" horiz-adv-x="614" 
d="M190 1394h238l310 -370h-238l-190 240l-190 -240h-240z" />
    <glyph glyph-name="tildecomb" unicode="&#x303;" horiz-adv-x="614" 
d="M126 1362q45 0 86.5 -16t60.5 -30t57 -44q52 -47 76 -58q23 -10 46 -10q51 0 80.5 39t29.5 107h150q0 -157 -65 -245.5t-181 -88.5q-41 0 -78.5 13.5t-57 27.5t-50.5 39q-8 7 -24.5 22t-25 22.5t-22.5 16.5t-27 13t-27 4q-46 0 -74 -41t-28 -109h-154q0 163 59 250.5
t169 87.5z" />
    <glyph glyph-name="uni0304" unicode="&#x304;" horiz-adv-x="614" 
d="M-30 1242h676v-188h-676v188z" />
    <glyph glyph-name="uni0306" unicode="&#x306;" horiz-adv-x="614" 
d="M700 1354q-17 -152 -122 -244t-266 -92q-162 0 -268.5 92t-123.5 244h214q11 -77 56.5 -118.5t121.5 -41.5q155 0 174 160h214z" />
    <glyph glyph-name="uni0307" unicode="&#x307;" horiz-adv-x="614" 
d="M178 1298h274v-274h-274v274z" />
    <glyph glyph-name="uni0308" unicode="&#x308;" horiz-adv-x="614" 
d="M420 1278h254v-254h-254v254zM-50 1278h256v-254h-256v254z" />
    <glyph glyph-name="hookabovecomb" unicode="&#x309;" horiz-adv-x="614" 
d="M228 1024q0 46 24 79t80 77q41 30 59.5 51t18.5 45q0 31 -20.5 49.5t-55.5 18.5q-82 0 -94 -80h-180q27 222 278 222q112 0 180 -56.5t68 -149.5q0 -51 -23.5 -83t-76.5 -67q-33 -22 -48.5 -34t-27.5 -31t-12 -41h-170z" />
    <glyph glyph-name="uni030A" unicode="&#x30a;" horiz-adv-x="614" 
d="M614 1308q0 -133 -83.5 -215.5t-218.5 -82.5q-136 0 -219 82t-83 216q0 133 82.5 214.5t217.5 81.5q137 0 220.5 -81.5t83.5 -214.5zM178 1308q0 -66 35.5 -103t98.5 -37t97.5 37t34.5 103t-35 102t-99 36q-62 0 -97 -36t-35 -102z" />
    <glyph glyph-name="uni030B" unicode="&#x30b;" horiz-adv-x="614" 
d="M884 1384l-300 -360h-198l218 360h280zM484 1384l-300 -360h-196l216 360h280z" />
    <glyph glyph-name="uni030C" unicode="&#x30c;" horiz-adv-x="614" 
d="M428 1024h-238l-310 370h240l190 -240l190 240h238z" />
    <glyph glyph-name="uni0312" unicode="&#x312;" horiz-adv-x="614" 
d="M452 1024h-274v322q0 114 61 173t163 59h66v-126h-34q-71 0 -104.5 -26t-33.5 -92v-36h156v-274z" />
    <glyph glyph-name="uni0313" unicode="&#x313;" horiz-adv-x="614" 
d="M196 1578h274v-322q0 -116 -61 -174t-163 -58h-66v126h34q71 0 104.5 26t33.5 92v36h-156v274z" />
    <glyph glyph-name="uni0315" unicode="&#x315;" horiz-adv-x="614" 
d="M322 1502h220l-78 -478h-210z" />
    <glyph glyph-name="uni031B" unicode="&#x31b;" horiz-adv-x="614" 
d="M156 1122h166q59 0 90.5 29.5t31.5 106.5v94h196v-106q0 -60 -17.5 -108t-45.5 -78t-67 -50t-79.5 -28t-84.5 -8h-190v148z" />
    <glyph glyph-name="dotbelowcomb" unicode="&#x323;" horiz-adv-x="590" 
d="M156 -128h274v-222h-274v222z" />
    <glyph glyph-name="uni0326" unicode="&#x326;" horiz-adv-x="614" 
d="M186 -68h276v-320q0 -116 -61 -174t-163 -58h-66v126h32q71 0 105.5 26t34.5 92v36h-158v272z" />
    <glyph glyph-name="uni0327" unicode="&#x327;" horiz-adv-x="614" 
d="M262 20h146l-50 -132h32q97 0 157.5 -62.5t60.5 -163.5q0 -105 -82 -166.5t-220 -61.5h-182v184h166q57 0 87.5 23t30.5 65q0 33 -22.5 50.5t-63.5 17.5h-68l-50 72z" />
    <glyph glyph-name="uni0328" unicode="&#x328;" horiz-adv-x="614" 
d="M402 0q-111 -72 -148.5 -125t-37.5 -123q0 -112 136 -112h136v-194h-152q-141 0 -225.5 68.5t-84.5 183.5q0 190 208 302h168z" />
    <glyph glyph-name="uni1E9E" unicode="&#x1e9e;" horiz-adv-x="1320" 
d="M914 734q170 -16 258 -109.5t88 -242.5q0 -171 -123 -276.5t-325 -105.5h-204v206h148q126 0 194 48t68 136q0 85 -66 131.5t-188 46.5h-114v194l332 366q-131 36 -260 36q-196 0 -284 -83.5t-88 -268.5v-812h-248v824q0 267 155.5 403.5t458.5 136.5q239 0 474 -104
v-214z" />
    <glyph glyph-name="uni1EA0" unicode="&#x1ea0;" horiz-adv-x="1324" 
d="M1274 0h-260l-100 298h-504l-96 -298h-262l472 1332h280zM660 1064l-184 -566h372zM522 -128h274v-222h-274v222z" />
    <glyph glyph-name="uni1EA1" unicode="&#x1ea1;" horiz-adv-x="1104" 
d="M1002 666v-666h-246v160q-53 -87 -140 -135.5t-196 -48.5q-149 0 -244.5 89.5t-95.5 228.5q0 136 79.5 212.5t228.5 87.5l268 18q54 3 77 22.5t23 61.5v4q0 70 -57.5 119t-140.5 49q-195 0 -216 -166h-254q11 158 138.5 254t329.5 96q197 0 321.5 -108t124.5 -278z
M330 306q0 -63 49 -100.5t131 -37.5q104 0 175 70t71 174v36l-278 -16q-148 -12 -148 -126zM456 -128h274v-222h-274v222z" />
    <glyph glyph-name="uni1EA2" unicode="&#x1ea2;" horiz-adv-x="1324" 
d="M568 1434q0 46 24 79t80 77q41 30 59.5 51t18.5 45q0 31 -20.5 49.5t-55.5 18.5q-82 0 -94 -80h-180q27 222 278 222q112 0 180 -56.5t68 -149.5q0 -51 -23.5 -83t-76.5 -67q-33 -22 -48.5 -34t-27.5 -31t-12 -41h-170zM1274 0h-260l-100 298h-504l-96 -298h-262
l472 1332h280zM660 1064l-184 -566h372z" />
    <glyph glyph-name="uni1EA3" unicode="&#x1ea3;" horiz-adv-x="1104" 
d="M462 1146q0 46 24 79t80 77q41 30 59.5 51t18.5 45q0 31 -20.5 49.5t-55.5 18.5q-82 0 -94 -80h-180q27 222 278 222q112 0 180 -56.5t68 -149.5q0 -51 -23.5 -83t-76.5 -67q-33 -22 -48.5 -34t-27.5 -31t-12 -41h-170zM1002 666v-666h-246v160q-53 -87 -140 -135.5
t-196 -48.5q-149 0 -244.5 89.5t-95.5 228.5q0 136 79.5 212.5t228.5 87.5l268 18q54 3 77 22.5t23 61.5v4q0 70 -57.5 119t-140.5 49q-195 0 -216 -166h-254q11 158 138.5 254t329.5 96q197 0 321.5 -108t124.5 -278zM330 306q0 -63 49 -100.5t131 -37.5q104 0 175 70
t71 174v36l-278 -16q-148 -12 -148 -126z" />
    <glyph glyph-name="uni1EA4" unicode="&#x1ea4;" horiz-adv-x="1324" 
d="M1472 1998l-300 -360h-198l218 360h280zM530 1804h238l310 -370h-238l-190 240l-190 -240h-240zM1274 0h-260l-100 298h-504l-96 -298h-262l472 1332h280zM660 1064l-184 -566h372z" />
    <glyph glyph-name="uni1EA5" unicode="&#x1ea5;" horiz-adv-x="1104" 
d="M1360 1752l-300 -360h-198l218 360h280zM424 1516h238l310 -370h-238l-190 240l-190 -240h-240zM1002 666v-666h-246v160q-53 -87 -140 -135.5t-196 -48.5q-149 0 -244.5 89.5t-95.5 228.5q0 136 79.5 212.5t228.5 87.5l268 18q54 3 77 22.5t23 61.5v4q0 70 -57.5 119
t-140.5 49q-195 0 -216 -166h-254q11 158 138.5 254t329.5 96q197 0 321.5 -108t124.5 -278zM330 306q0 -63 49 -100.5t131 -37.5q104 0 175 70t71 174v36l-278 -16q-148 -12 -148 -126z" />
    <glyph glyph-name="uni1EA6" unicode="&#x1ea6;" horiz-adv-x="1324" 
d="M802 1998h278l218 -360h-198zM530 1804h238l310 -370h-238l-190 240l-190 -240h-240zM1274 0h-260l-100 298h-504l-96 -298h-262l472 1332h280zM660 1064l-184 -566h372z" />
    <glyph glyph-name="uni1EA7" unicode="&#x1ea7;" horiz-adv-x="1104" 
d="M670 1752h280l216 -360h-196zM424 1516h238l310 -370h-238l-190 240l-190 -240h-240zM1002 666v-666h-246v160q-53 -87 -140 -135.5t-196 -48.5q-149 0 -244.5 89.5t-95.5 228.5q0 136 79.5 212.5t228.5 87.5l268 18q54 3 77 22.5t23 61.5v4q0 70 -57.5 119t-140.5 49
q-195 0 -216 -166h-254q11 158 138.5 254t329.5 96q197 0 321.5 -108t124.5 -278zM330 306q0 -63 49 -100.5t131 -37.5q104 0 175 70t71 174v36l-278 -16q-148 -12 -148 -126z" />
    <glyph glyph-name="uni1EA8" unicode="&#x1ea8;" horiz-adv-x="1324" 
d="M1026 1638q0 46 24.5 79.5t81.5 76.5q41 31 59.5 51.5t18.5 44.5q0 31 -20.5 49.5t-55.5 18.5q-82 0 -94 -80h-182q30 222 280 222q112 0 180 -56.5t68 -149.5q0 -50 -24 -82.5t-76 -67.5q-34 -23 -49 -34.5t-28 -30.5t-13 -41h-170zM530 1804h238l310 -370h-238
l-190 240l-190 -240h-240zM1274 0h-260l-100 298h-504l-96 -298h-262l472 1332h280zM660 1064l-184 -566h372z" />
    <glyph glyph-name="uni1EA9" unicode="&#x1ea9;" horiz-adv-x="1104" 
d="M886 1392q0 46 24.5 79.5t81.5 76.5q41 31 59.5 51.5t18.5 44.5q0 31 -20.5 49.5t-55.5 18.5q-82 0 -94 -80h-182q30 222 280 222q112 0 180 -56.5t68 -149.5q0 -50 -24 -82.5t-76 -67.5q-34 -23 -49 -34.5t-28 -30.5t-13 -41h-170zM424 1516h238l310 -370h-238l-190 240
l-190 -240h-240zM1002 666v-666h-246v160q-53 -87 -140 -135.5t-196 -48.5q-149 0 -244.5 89.5t-95.5 228.5q0 136 79.5 212.5t228.5 87.5l268 18q54 3 77 22.5t23 61.5v4q0 70 -57.5 119t-140.5 49q-195 0 -216 -166h-254q11 158 138.5 254t329.5 96q197 0 321.5 -108
t124.5 -278zM330 306q0 -63 49 -100.5t131 -37.5q104 0 175 70t71 174v36l-278 -16q-148 -12 -148 -126z" />
    <glyph glyph-name="uni1EAA" unicode="&#x1eaa;" horiz-adv-x="1324" 
d="M470 2232q14 0 28.5 -1.5t25 -3.5t24 -7.5t21 -7.5t21 -10.5t18 -11t18 -12.5t16 -12t17 -13.5t15.5 -12.5q26 -24 38.5 -34t36.5 -21t47 -11q51 0 81.5 39t30.5 105h148q0 -156 -65 -244t-181 -88q-40 0 -76.5 13t-57.5 27t-50 38q-4 4 -29 26.5t-33.5 28.5t-28 14.5
t-37.5 8.5q-46 0 -73 -40t-27 -108h-154q0 162 59 250t167 88zM530 1804h238l310 -370h-238l-190 240l-190 -240h-240zM1274 0h-260l-100 298h-504l-96 -298h-262l472 1332h280zM660 1064l-184 -566h372z" />
    <glyph glyph-name="uni1EAB" unicode="&#x1eab;" horiz-adv-x="1104" 
d="M364 1954q35 0 64 -6.5t57.5 -24t40 -26t42.5 -33.5q52 -47 76 -58q23 -10 46 -10q51 0 81.5 39.5t30.5 106.5h148q0 -157 -65 -245.5t-181 -88.5q-40 0 -77 13.5t-56.5 27.5t-50.5 39q-4 4 -29 26.5t-33.5 28.5t-28 14.5t-37.5 8.5q-46 0 -73 -41t-27 -109h-154
q0 163 59 250.5t167 87.5zM424 1516h238l310 -370h-238l-190 240l-190 -240h-240zM1002 666v-666h-246v160q-53 -87 -140 -135.5t-196 -48.5q-149 0 -244.5 89.5t-95.5 228.5q0 136 79.5 212.5t228.5 87.5l268 18q54 3 77 22.5t23 61.5v4q0 70 -57.5 119t-140.5 49
q-195 0 -216 -166h-254q11 158 138.5 254t329.5 96q197 0 321.5 -108t124.5 -278zM330 306q0 -63 49 -100.5t131 -37.5q104 0 175 70t71 174v36l-278 -16q-148 -12 -148 -126z" />
    <glyph glyph-name="uni1EAC" unicode="&#x1eac;" horiz-adv-x="1324" 
d="M530 1804h238l310 -370h-238l-190 240l-190 -240h-240zM1274 0h-260l-100 298h-504l-96 -298h-262l472 1332h280zM660 1064l-184 -566h372zM522 -128h274v-222h-274v222z" />
    <glyph glyph-name="uni1EAD" unicode="&#x1ead;" horiz-adv-x="1104" 
d="M424 1516h238l310 -370h-238l-190 240l-190 -240h-240zM1002 666v-666h-246v160q-53 -87 -140 -135.5t-196 -48.5q-149 0 -244.5 89.5t-95.5 228.5q0 136 79.5 212.5t228.5 87.5l268 18q54 3 77 22.5t23 61.5v4q0 70 -57.5 119t-140.5 49q-195 0 -216 -166h-254
q11 158 138.5 254t329.5 96q197 0 321.5 -108t124.5 -278zM330 306q0 -63 49 -100.5t131 -37.5q104 0 175 70t71 174v36l-278 -16q-148 -12 -148 -126zM456 -128h274v-222h-274v222z" />
    <glyph glyph-name="uni1EAE" unicode="&#x1eae;" horiz-adv-x="1324" 
d="M1006 2142l-298 -358h-198l216 358h280zM1040 1764q-17 -152 -122 -244t-266 -92q-162 0 -268.5 92t-123.5 244h214q11 -77 56.5 -118.5t121.5 -41.5q155 0 174 160h214zM1274 0h-260l-100 298h-504l-96 -298h-262l472 1332h280zM660 1064l-184 -566h372z" />
    <glyph glyph-name="uni1EAF" unicode="&#x1eaf;" horiz-adv-x="1104" 
d="M900 1864l-298 -358h-198l216 358h280zM934 1476q-17 -152 -122 -244t-266 -92q-162 0 -268.5 92t-123.5 244h214q11 -77 56.5 -118.5t121.5 -41.5q155 0 174 160h214zM1002 666v-666h-246v160q-53 -87 -140 -135.5t-196 -48.5q-149 0 -244.5 89.5t-95.5 228.5
q0 136 79.5 212.5t228.5 87.5l268 18q54 3 77 22.5t23 61.5v4q0 70 -57.5 119t-140.5 49q-195 0 -216 -166h-254q11 158 138.5 254t329.5 96q197 0 321.5 -108t124.5 -278zM330 306q0 -63 49 -100.5t131 -37.5q104 0 175 70t71 174v36l-278 -16q-148 -12 -148 -126z" />
    <glyph glyph-name="uni1EB0" unicode="&#x1eb0;" horiz-adv-x="1324" 
d="M320 2142h280l216 -358h-196zM1040 1764q-17 -152 -122 -244t-266 -92q-162 0 -268.5 92t-123.5 244h214q11 -77 56.5 -118.5t121.5 -41.5q155 0 174 160h214zM1274 0h-260l-100 298h-504l-96 -298h-262l472 1332h280zM660 1064l-184 -566h372z" />
    <glyph glyph-name="uni1EB1" unicode="&#x1eb1;" horiz-adv-x="1104" 
d="M214 1864h280l216 -358h-196zM934 1476q-17 -152 -122 -244t-266 -92q-162 0 -268.5 92t-123.5 244h214q11 -77 56.5 -118.5t121.5 -41.5q155 0 174 160h214zM1002 666v-666h-246v160q-53 -87 -140 -135.5t-196 -48.5q-149 0 -244.5 89.5t-95.5 228.5q0 136 79.5 212.5
t228.5 87.5l268 18q54 3 77 22.5t23 61.5v4q0 70 -57.5 119t-140.5 49q-195 0 -216 -166h-254q11 158 138.5 254t329.5 96q197 0 321.5 -108t124.5 -278zM330 306q0 -63 49 -100.5t131 -37.5q104 0 175 70t71 174v36l-278 -16q-148 -12 -148 -126z" />
    <glyph glyph-name="uni1EB2" unicode="&#x1eb2;" horiz-adv-x="1324" 
d="M568 1784q0 45 24.5 79t79.5 77q41 29 59.5 50t18.5 44q0 32 -21 51t-55 19q-39 0 -63.5 -21t-30.5 -59h-180q27 220 278 220q113 0 180.5 -56t67.5 -150q0 -50 -24 -83t-76 -67q-46 -29 -67 -51.5t-21 -52.5h-170zM1040 1764q-17 -152 -122 -244t-266 -92
q-162 0 -268.5 92t-123.5 244h214q11 -77 56.5 -118.5t121.5 -41.5q155 0 174 160h214zM1274 0h-260l-100 298h-504l-96 -298h-262l472 1332h280zM660 1064l-184 -566h372z" />
    <glyph glyph-name="uni1EB3" unicode="&#x1eb3;" horiz-adv-x="1104" 
d="M462 1506q0 45 24.5 79t79.5 77q41 29 59.5 50t18.5 44q0 32 -21 51t-55 19q-39 0 -63.5 -21t-30.5 -59h-180q27 220 278 220q113 0 180.5 -56t67.5 -150q0 -50 -24 -83t-76 -67q-46 -29 -67 -51.5t-21 -52.5h-170zM934 1476q-17 -152 -122 -244t-266 -92
q-162 0 -268.5 92t-123.5 244h214q11 -77 56.5 -118.5t121.5 -41.5q155 0 174 160h214zM1002 666v-666h-246v160q-53 -87 -140 -135.5t-196 -48.5q-149 0 -244.5 89.5t-95.5 228.5q0 136 79.5 212.5t228.5 87.5l268 18q54 3 77 22.5t23 61.5v4q0 70 -57.5 119t-140.5 49
q-195 0 -216 -166h-254q11 158 138.5 254t329.5 96q197 0 321.5 -108t124.5 -278zM330 306q0 -63 49 -100.5t131 -37.5q104 0 175 70t71 174v36l-278 -16q-148 -12 -148 -126z" />
    <glyph glyph-name="uni1EB4" unicode="&#x1eb4;" horiz-adv-x="1324" 
d="M466 2182q45 0 86.5 -16t60.5 -30t57 -44q52 -47 76 -58q23 -10 46 -10q51 0 80.5 39t29.5 107h150q0 -157 -65 -245.5t-181 -88.5q-41 0 -78.5 13.5t-57 27.5t-50.5 39q-8 7 -24.5 22t-25 22.5t-22.5 16.5t-27 13t-27 4q-46 0 -74 -41t-28 -109h-154q0 163 59 250.5
t169 87.5zM1040 1764q-17 -152 -122 -244t-266 -92q-162 0 -268.5 92t-123.5 244h214q11 -77 56.5 -118.5t121.5 -41.5q155 0 174 160h214zM1274 0h-260l-100 298h-504l-96 -298h-262l472 1332h280zM660 1064l-184 -566h372z" />
    <glyph glyph-name="uni1EB5" unicode="&#x1eb5;" horiz-adv-x="1104" 
d="M360 1906q42 0 82 -15t59 -28t54 -42q6 -5 9 -7q26 -24 38.5 -34t36.5 -21t47 -11q51 0 80.5 39t29.5 105h150q0 -156 -65 -244t-181 -88q-41 0 -78 13t-58 27t-50 38q-8 7 -24.5 22t-25 22.5t-22.5 16.5t-27 13t-27 4q-47 0 -74.5 -40.5t-27.5 -107.5h-154
q0 162 59.5 250t168.5 88zM934 1476q-17 -152 -122 -244t-266 -92q-162 0 -268.5 92t-123.5 244h214q11 -77 56.5 -118.5t121.5 -41.5q155 0 174 160h214zM1002 666v-666h-246v160q-53 -87 -140 -135.5t-196 -48.5q-149 0 -244.5 89.5t-95.5 228.5q0 136 79.5 212.5
t228.5 87.5l268 18q54 3 77 22.5t23 61.5v4q0 70 -57.5 119t-140.5 49q-195 0 -216 -166h-254q11 158 138.5 254t329.5 96q197 0 321.5 -108t124.5 -278zM330 306q0 -63 49 -100.5t131 -37.5q104 0 175 70t71 174v36l-278 -16q-148 -12 -148 -126z" />
    <glyph glyph-name="uni1EB6" unicode="&#x1eb6;" horiz-adv-x="1324" 
d="M1040 1764q-17 -152 -122 -244t-266 -92q-162 0 -268.5 92t-123.5 244h214q11 -77 56.5 -118.5t121.5 -41.5q155 0 174 160h214zM1274 0h-260l-100 298h-504l-96 -298h-262l472 1332h280zM660 1064l-184 -566h372zM522 -128h274v-222h-274v222z" />
    <glyph glyph-name="uni1EB7" unicode="&#x1eb7;" horiz-adv-x="1104" 
d="M934 1476q-17 -152 -122 -244t-266 -92q-162 0 -268.5 92t-123.5 244h214q11 -77 56.5 -118.5t121.5 -41.5q155 0 174 160h214zM1002 666v-666h-246v160q-53 -87 -140 -135.5t-196 -48.5q-149 0 -244.5 89.5t-95.5 228.5q0 136 79.5 212.5t228.5 87.5l268 18
q54 3 77 22.5t23 61.5v4q0 70 -57.5 119t-140.5 49q-195 0 -216 -166h-254q11 158 138.5 254t329.5 96q197 0 321.5 -108t124.5 -278zM330 306q0 -63 49 -100.5t131 -37.5q104 0 175 70t71 174v36l-278 -16q-148 -12 -148 -126zM456 -128h274v-222h-274v222z" />
    <glyph glyph-name="uni1EB8" unicode="&#x1eb8;" horiz-adv-x="1116" 
d="M1036 1332v-232h-686v-306h628v-232h-628v-330h686v-232h-934v1332h934zM450 -128h274v-222h-274v222z" />
    <glyph glyph-name="uni1EB9" unicode="&#x1eb9;" horiz-adv-x="1170" 
d="M80 516q0 244 134.5 386t363.5 142q223 0 367.5 -148t144.5 -378v-64h-756q12 -134 77.5 -203t180.5 -69q95 0 152.5 41t71.5 115h262q-31 -175 -155 -264.5t-333 -89.5q-234 0 -372 143t-138 389zM580 860q-207 0 -242 -236h488q-9 108 -75.5 172t-170.5 64zM462 -128
h274v-222h-274v222z" />
    <glyph glyph-name="uni1EBA" unicode="&#x1eba;" horiz-adv-x="1116" 
d="M498 1434q0 46 24.5 79.5t81.5 76.5q41 31 59.5 51.5t18.5 44.5q0 31 -20.5 49.5t-55.5 18.5q-82 0 -94 -80h-182q30 222 280 222q112 0 180 -56.5t68 -149.5q0 -50 -24 -82.5t-76 -67.5q-34 -23 -49 -34.5t-28 -30.5t-13 -41h-170zM1036 1332v-232h-686v-306h628v-232
h-628v-330h686v-232h-934v1332h934z" />
    <glyph glyph-name="uni1EBB" unicode="&#x1ebb;" horiz-adv-x="1170" 
d="M490 1146q0 46 24.5 79.5t81.5 76.5q41 31 59.5 51.5t18.5 44.5q0 31 -20.5 49.5t-55.5 18.5q-82 0 -94 -80h-182q30 222 280 222q112 0 180 -56.5t68 -149.5q0 -50 -24 -82.5t-76 -67.5q-34 -23 -49 -34.5t-28 -30.5t-13 -41h-170zM80 516q0 244 134.5 386t363.5 142
q223 0 367.5 -148t144.5 -378v-64h-756q12 -134 77.5 -203t180.5 -69q95 0 152.5 41t71.5 115h262q-31 -175 -155 -264.5t-333 -89.5q-234 0 -372 143t-138 389zM580 860q-207 0 -242 -236h488q-9 108 -75.5 172t-170.5 64z" />
    <glyph glyph-name="uni1EBC" unicode="&#x1ebc;" horiz-adv-x="1116" 
d="M396 1772q35 0 64 -6.5t57.5 -24t40 -26t42.5 -33.5q52 -47 76 -58q23 -10 46 -10q51 0 81.5 39.5t30.5 106.5h148q0 -157 -65 -245.5t-181 -88.5q-40 0 -77 13.5t-56.5 27.5t-50.5 39q-4 4 -29 26.5t-33.5 28.5t-28 14.5t-37.5 8.5q-46 0 -73 -41t-27 -109h-154
q0 163 59 250.5t167 87.5zM1036 1332v-232h-686v-306h628v-232h-628v-330h686v-232h-934v1332h934z" />
    <glyph glyph-name="uni1EBD" unicode="&#x1ebd;" horiz-adv-x="1170" 
d="M388 1484q35 0 64 -6.5t57.5 -24t40 -26t42.5 -33.5q52 -47 76 -58q23 -10 46 -10q51 0 81.5 39.5t30.5 106.5h148q0 -157 -65 -245.5t-181 -88.5q-40 0 -77 13.5t-56.5 27.5t-50.5 39q-4 4 -29 26.5t-33.5 28.5t-28 14.5t-37.5 8.5q-46 0 -73 -41t-27 -109h-154
q0 163 59 250.5t167 87.5zM80 516q0 244 134.5 386t363.5 142q223 0 367.5 -148t144.5 -378v-64h-756q12 -134 77.5 -203t180.5 -69q95 0 152.5 41t71.5 115h262q-31 -175 -155 -264.5t-333 -89.5q-234 0 -372 143t-138 389zM580 860q-207 0 -242 -236h488q-9 108 -75.5 172
t-170.5 64z" />
    <glyph glyph-name="uni1EBE" unicode="&#x1ebe;" horiz-adv-x="1116" 
d="M1408 1998l-300 -360h-198l218 360h280zM460 1804h240l308 -370h-238l-188 240l-192 -240h-238zM1036 1332v-232h-686v-306h628v-232h-628v-330h686v-232h-934v1332h934z" />
    <glyph glyph-name="uni1EBF" unicode="&#x1ebf;" horiz-adv-x="1170" 
d="M1384 1752l-300 -360h-198l218 360h280zM452 1516h240l308 -370h-238l-188 240l-192 -240h-238zM80 516q0 244 134.5 386t363.5 142q223 0 367.5 -148t144.5 -378v-64h-756q12 -134 77.5 -203t180.5 -69q95 0 152.5 41t71.5 115h262q-31 -175 -155 -264.5t-333 -89.5
q-234 0 -372 143t-138 389zM580 860q-207 0 -242 -236h488q-9 108 -75.5 172t-170.5 64z" />
    <glyph glyph-name="uni1EC0" unicode="&#x1ec0;" horiz-adv-x="1116" 
d="M736 1998h280l216 -360h-196zM460 1804h240l308 -370h-238l-188 240l-192 -240h-238zM1036 1332v-232h-686v-306h628v-232h-628v-330h686v-232h-934v1332h934z" />
    <glyph glyph-name="uni1EC1" unicode="&#x1ec1;" horiz-adv-x="1170" 
d="M714 1752h280l216 -360h-196zM452 1516h240l308 -370h-238l-188 240l-192 -240h-238zM80 516q0 244 134.5 386t363.5 142q223 0 367.5 -148t144.5 -378v-64h-756q12 -134 77.5 -203t180.5 -69q95 0 152.5 41t71.5 115h262q-31 -175 -155 -264.5t-333 -89.5
q-234 0 -372 143t-138 389zM580 860q-207 0 -242 -236h488q-9 108 -75.5 172t-170.5 64z" />
    <glyph glyph-name="uni1EC2" unicode="&#x1ec2;" horiz-adv-x="1116" 
d="M940 1642q0 46 24 79t80 77q41 30 59.5 51t18.5 45q0 31 -20.5 49.5t-55.5 18.5q-82 0 -94 -80h-180q27 222 278 222q112 0 180 -56.5t68 -149.5q0 -51 -23.5 -83t-76.5 -67q-33 -22 -48.5 -34t-27.5 -31t-12 -41h-170zM460 1804h240l308 -370h-238l-188 240l-192 -240
h-238zM1036 1332v-232h-686v-306h628v-232h-628v-330h686v-232h-934v1332h934z" />
    <glyph glyph-name="uni1EC3" unicode="&#x1ec3;" horiz-adv-x="1170" 
d="M922 1394q0 46 24 79t80 77q41 30 59.5 51t18.5 45q0 31 -20.5 49.5t-55.5 18.5q-82 0 -94 -80h-180q27 222 278 222q112 0 180 -56.5t68 -149.5q0 -51 -23.5 -83t-76.5 -67q-33 -22 -48.5 -34t-27.5 -31t-12 -41h-170zM452 1516h240l308 -370h-238l-188 240l-192 -240
h-238zM80 516q0 244 134.5 386t363.5 142q223 0 367.5 -148t144.5 -378v-64h-756q12 -134 77.5 -203t180.5 -69q95 0 152.5 41t71.5 115h262q-31 -175 -155 -264.5t-333 -89.5q-234 0 -372 143t-138 389zM580 860q-207 0 -242 -236h488q-9 108 -75.5 172t-170.5 64z" />
    <glyph glyph-name="uni1EC4" unicode="&#x1ec4;" horiz-adv-x="1116" 
d="M402 2242q42 0 82 -15t59 -28t54 -42q6 -5 9 -7q26 -24 38.5 -34t36.5 -21t47 -11q51 0 80.5 39t29.5 105h150q0 -156 -65 -244t-181 -88q-41 0 -78 13t-58 27t-50 38q-8 7 -24.5 22t-25 22.5t-22.5 16.5t-27 13t-27 4q-47 0 -74.5 -40.5t-27.5 -107.5h-154
q0 162 59.5 250t168.5 88zM460 1804h240l308 -370h-238l-188 240l-192 -240h-238zM1036 1332v-232h-686v-306h628v-232h-628v-330h686v-232h-934v1332h934z" />
    <glyph glyph-name="uni1EC5" unicode="&#x1ec5;" horiz-adv-x="1170" 
d="M394 1954q45 0 86.5 -16t60.5 -30t57 -44q52 -47 76 -58q23 -10 46 -10q51 0 80.5 39t29.5 107h150q0 -157 -65 -245.5t-181 -88.5q-41 0 -78.5 13.5t-57 27.5t-50.5 39q-8 7 -24.5 22t-25 22.5t-22.5 16.5t-27 13t-27 4q-46 0 -74 -41t-28 -109h-154q0 163 59 250.5
t169 87.5zM452 1516h240l308 -370h-238l-188 240l-192 -240h-238zM80 516q0 244 134.5 386t363.5 142q223 0 367.5 -148t144.5 -378v-64h-756q12 -134 77.5 -203t180.5 -69q95 0 152.5 41t71.5 115h262q-31 -175 -155 -264.5t-333 -89.5q-234 0 -372 143t-138 389zM580 860
q-207 0 -242 -236h488q-9 108 -75.5 172t-170.5 64z" />
    <glyph glyph-name="uni1EC6" unicode="&#x1ec6;" horiz-adv-x="1116" 
d="M460 1804h240l308 -370h-238l-188 240l-192 -240h-238zM1036 1332v-232h-686v-306h628v-232h-628v-330h686v-232h-934v1332h934zM450 -128h274v-222h-274v222z" />
    <glyph glyph-name="uni1EC7" unicode="&#x1ec7;" horiz-adv-x="1170" 
d="M452 1516h240l308 -370h-238l-188 240l-192 -240h-238zM80 516q0 244 134.5 386t363.5 142q223 0 367.5 -148t144.5 -378v-64h-756q12 -134 77.5 -203t180.5 -69q95 0 152.5 41t71.5 115h262q-31 -175 -155 -264.5t-333 -89.5q-234 0 -372 143t-138 389zM580 860
q-207 0 -242 -236h488q-9 108 -75.5 172t-170.5 64zM462 -128h274v-222h-274v222z" />
    <glyph glyph-name="uni1EC8" unicode="&#x1ec8;" 
d="M136 1434q0 46 24 79t80 77q41 30 59.5 51t18.5 45q0 31 -20.5 49.5t-55.5 18.5q-82 0 -94 -80h-180q27 222 278 222q112 0 180 -56.5t68 -149.5q0 -51 -23.5 -83t-76.5 -67q-33 -22 -48.5 -34t-27.5 -31t-12 -41h-170zM100 1332h248v-1332h-248v1332z" />
    <glyph glyph-name="uni1EC9" unicode="&#x1ec9;" 
d="M136 1146q0 46 24 79t80 77q41 30 59.5 51t18.5 45q0 31 -20.5 49.5t-55.5 18.5q-82 0 -94 -80h-180q27 222 278 222q112 0 180 -56.5t68 -149.5q0 -51 -23.5 -83t-76.5 -67q-33 -22 -48.5 -34t-27.5 -31t-12 -41h-170zM100 1024h248v-1024h-248v1024z" />
    <glyph glyph-name="uni1ECA" unicode="&#x1eca;" 
d="M100 1332h248v-1332h-248v1332zM86 -128h274v-222h-274v222z" />
    <glyph glyph-name="uni1ECB" unicode="&#x1ecb;" 
d="M86 1376h276v-222h-276v222zM100 1024h248v-1024h-248v1024zM90 -128h274v-222h-274v222z" />
    <glyph glyph-name="uni1ECC" unicode="&#x1ecc;" horiz-adv-x="1402" 
d="M82 650q0 316 170.5 509t449.5 193t449.5 -193t170.5 -509q0 -300 -170.5 -483t-449.5 -183t-449.5 183t-170.5 483zM1070 650q0 226 -97 352t-271 126q-175 0 -271.5 -125.5t-96.5 -352.5q0 -209 96.5 -324.5t271.5 -115.5q174 0 271 116t97 324zM550 -128h274v-222
h-274v222z" />
    <glyph glyph-name="uni1ECD" unicode="&#x1ecd;" horiz-adv-x="1174" 
d="M80 516q0 243 140 390.5t368 147.5t367 -147.5t139 -390.5q0 -244 -139 -393t-367 -149t-368 149t-140 393zM842 516q0 154 -67 239t-187 85q-122 0 -189 -85t-67 -239q0 -156 67 -242t189 -86q120 0 187 86t67 242zM448 -128h274v-222h-274v222z" />
    <glyph glyph-name="uni1ECE" unicode="&#x1ece;" horiz-adv-x="1402" 
d="M600 1434q0 46 24.5 79.5t81.5 76.5q41 31 59.5 51.5t18.5 44.5q0 31 -20.5 49.5t-55.5 18.5q-82 0 -94 -80h-182q30 222 280 222q112 0 180 -56.5t68 -149.5q0 -50 -24 -82.5t-76 -67.5q-34 -23 -49 -34.5t-28 -30.5t-13 -41h-170zM82 650q0 316 170.5 509t449.5 193
t449.5 -193t170.5 -509q0 -300 -170.5 -483t-449.5 -183t-449.5 183t-170.5 483zM1070 650q0 226 -97 352t-271 126q-175 0 -271.5 -125.5t-96.5 -352.5q0 -209 96.5 -324.5t271.5 -115.5q174 0 271 116t97 324z" />
    <glyph glyph-name="uni1ECF" unicode="&#x1ecf;" horiz-adv-x="1174" 
d="M494 1146q0 46 24.5 79.5t81.5 76.5q41 31 59.5 51.5t18.5 44.5q0 31 -20.5 49.5t-55.5 18.5q-82 0 -94 -80h-182q30 222 280 222q112 0 180 -56.5t68 -149.5q0 -50 -24 -82.5t-76 -67.5q-34 -23 -49 -34.5t-28 -30.5t-13 -41h-170zM80 516q0 243 140 390.5t368 147.5
t367 -147.5t139 -390.5q0 -244 -139 -393t-367 -149t-368 149t-140 393zM842 516q0 154 -67 239t-187 85q-122 0 -189 -85t-67 -239q0 -156 67 -242t189 -86q120 0 187 86t67 242z" />
    <glyph glyph-name="uni1ED0" unicode="&#x1ed0;" horiz-adv-x="1402" 
d="M1518 1998l-300 -360h-198l218 360h280zM574 1804h238l310 -370h-238l-190 240l-190 -240h-240zM82 650q0 316 170.5 509t449.5 193t449.5 -193t170.5 -509q0 -300 -170.5 -483t-449.5 -183t-449.5 183t-170.5 483zM1070 650q0 226 -97 352t-271 126
q-175 0 -271.5 -125.5t-96.5 -352.5q0 -209 96.5 -324.5t271.5 -115.5q174 0 271 116t97 324z" />
    <glyph glyph-name="uni1ED1" unicode="&#x1ed1;" horiz-adv-x="1174" 
d="M1390 1752l-298 -360h-198l216 360h280zM456 1516h240l308 -370h-238l-188 240l-192 -240h-238zM80 516q0 243 140 390.5t368 147.5t367 -147.5t139 -390.5q0 -244 -139 -393t-367 -149t-368 149t-140 393zM842 516q0 154 -67 239t-187 85q-122 0 -189 -85t-67 -239
q0 -156 67 -242t189 -86q120 0 187 86t67 242z" />
    <glyph glyph-name="uni1ED2" unicode="&#x1ed2;" horiz-adv-x="1402" 
d="M848 1998h280l216 -360h-196zM574 1804h238l310 -370h-238l-190 240l-190 -240h-240zM82 650q0 316 170.5 509t449.5 193t449.5 -193t170.5 -509q0 -300 -170.5 -483t-449.5 -183t-449.5 183t-170.5 483zM1070 650q0 226 -97 352t-271 126q-175 0 -271.5 -125.5
t-96.5 -352.5q0 -209 96.5 -324.5t271.5 -115.5q174 0 271 116t97 324z" />
    <glyph glyph-name="uni1ED3" unicode="&#x1ed3;" horiz-adv-x="1174" 
d="M694 1752h278l218 -360h-198zM456 1516h240l308 -370h-238l-188 240l-192 -240h-238zM80 516q0 243 140 390.5t368 147.5t367 -147.5t139 -390.5q0 -244 -139 -393t-367 -149t-368 149t-140 393zM842 516q0 154 -67 239t-187 85q-122 0 -189 -85t-67 -239q0 -156 67 -242
t189 -86q120 0 187 86t67 242z" />
    <glyph glyph-name="uni1ED4" unicode="&#x1ed4;" horiz-adv-x="1402" 
d="M1058 1638q0 46 24.5 79.5t81.5 76.5q41 31 59.5 51.5t18.5 44.5q0 31 -20.5 49.5t-55.5 18.5q-82 0 -94 -80h-182q30 222 280 222q112 0 180 -56.5t68 -149.5q0 -50 -24 -82.5t-76 -67.5q-34 -23 -49 -34.5t-28 -30.5t-13 -41h-170zM574 1804h238l310 -370h-238
l-190 240l-190 -240h-240zM82 650q0 316 170.5 509t449.5 193t449.5 -193t170.5 -509q0 -300 -170.5 -483t-449.5 -183t-449.5 183t-170.5 483zM1070 650q0 226 -97 352t-271 126q-175 0 -271.5 -125.5t-96.5 -352.5q0 -209 96.5 -324.5t271.5 -115.5q174 0 271 116t97 324z
" />
    <glyph glyph-name="uni1ED5" unicode="&#x1ed5;" horiz-adv-x="1174" 
d="M912 1394q0 46 24 79t80 77q41 30 59.5 51t18.5 45q0 31 -20.5 49.5t-55.5 18.5q-82 0 -94 -80h-180q27 222 278 222q112 0 180 -56.5t68 -149.5q0 -51 -23.5 -83t-76.5 -67q-33 -22 -48.5 -34t-27.5 -31t-12 -41h-170zM456 1516h240l308 -370h-238l-188 240l-192 -240
h-238zM80 516q0 243 140 390.5t368 147.5t367 -147.5t139 -390.5q0 -244 -139 -393t-367 -149t-368 149t-140 393zM842 516q0 154 -67 239t-187 85q-122 0 -189 -85t-67 -239q0 -156 67 -242t189 -86q120 0 187 86t67 242z" />
    <glyph glyph-name="uni1ED6" unicode="&#x1ed6;" horiz-adv-x="1402" 
d="M504 2242q42 0 82 -15t59 -28t54 -42q6 -5 9 -7q26 -24 38.5 -34t36.5 -21t47 -11q51 0 80.5 39t29.5 105h150q0 -156 -65 -244t-181 -88q-41 0 -78 13t-58 27t-50 38q-8 7 -24.5 22t-25 22.5t-22.5 16.5t-27 13t-27 4q-47 0 -74.5 -40.5t-27.5 -107.5h-154
q0 162 59.5 250t168.5 88zM574 1804h238l310 -370h-238l-190 240l-190 -240h-240zM82 650q0 316 170.5 509t449.5 193t449.5 -193t170.5 -509q0 -300 -170.5 -483t-449.5 -183t-449.5 183t-170.5 483zM1070 650q0 226 -97 352t-271 126q-175 0 -271.5 -125.5t-96.5 -352.5
q0 -209 96.5 -324.5t271.5 -115.5q174 0 271 116t97 324z" />
    <glyph glyph-name="uni1ED7" unicode="&#x1ed7;" horiz-adv-x="1174" 
d="M398 1954q45 0 86.5 -16t60.5 -30t57 -44q52 -47 76 -58q23 -10 46 -10q51 0 80.5 39t29.5 107h150q0 -157 -65 -245.5t-181 -88.5q-41 0 -78.5 13.5t-57 27.5t-50.5 39q-8 7 -24.5 22t-25 22.5t-22.5 16.5t-27 13t-27 4q-46 0 -74 -41t-28 -109h-154q0 163 59 250.5
t169 87.5zM456 1516h240l308 -370h-238l-188 240l-192 -240h-238zM80 516q0 243 140 390.5t368 147.5t367 -147.5t139 -390.5q0 -244 -139 -393t-367 -149t-368 149t-140 393zM842 516q0 154 -67 239t-187 85q-122 0 -189 -85t-67 -239q0 -156 67 -242t189 -86q120 0 187 86
t67 242z" />
    <glyph glyph-name="uni1ED8" unicode="&#x1ed8;" horiz-adv-x="1402" 
d="M562 1804h240l308 -370h-238l-188 240l-192 -240h-238zM82 650q0 316 170.5 509t449.5 193t449.5 -193t170.5 -509q0 -300 -170.5 -483t-449.5 -183t-449.5 183t-170.5 483zM1070 650q0 226 -97 352t-271 126q-175 0 -271.5 -125.5t-96.5 -352.5q0 -209 96.5 -324.5
t271.5 -115.5q174 0 271 116t97 324zM550 -128h274v-222h-274v222z" />
    <glyph glyph-name="uni1ED9" unicode="&#x1ed9;" horiz-adv-x="1174" 
d="M456 1516h240l308 -370h-238l-188 240l-192 -240h-238zM80 516q0 243 140 390.5t368 147.5t367 -147.5t139 -390.5q0 -244 -139 -393t-367 -149t-368 149t-140 393zM842 516q0 154 -67 239t-187 85q-122 0 -189 -85t-67 -239q0 -156 67 -242t189 -86q120 0 187 86t67 242
zM448 -128h274v-222h-274v222z" />
    <glyph glyph-name="uni1EDA" unicode="&#x1eda;" horiz-adv-x="1402" 
d="M1040 1794l-300 -360h-198l218 360h280zM82 650q0 316 170.5 509t449.5 193q90 0 164 -20h234q59 0 90.5 28.5t31.5 105.5v96h196v-108q0 -74 -26 -129.5t-69.5 -85t-91.5 -43.5t-101 -14q93 -94 142.5 -230t49.5 -302q0 -300 -170.5 -483t-449.5 -183t-449.5 183
t-170.5 483zM1070 650q0 226 -97 352t-271 126q-175 0 -271.5 -125.5t-96.5 -352.5q0 -209 96.5 -324.5t271.5 -115.5q174 0 271 116t97 324z" />
    <glyph glyph-name="uni1EDB" unicode="&#x1edb;" horiz-adv-x="1206" 
d="M934 1506l-300 -360h-198l218 360h280zM80 516q0 243 140 390.5t368 147.5q100 0 184 -30h132q59 0 91.5 29.5t32.5 106.5v94h194v-106q0 -126 -69 -191t-173 -79q114 -146 114 -362q0 -244 -139 -393t-367 -149t-368 149t-140 393zM842 516q0 154 -67 239t-187 85
q-122 0 -189 -85t-67 -239q0 -156 67 -242t189 -86q120 0 187 86t67 242z" />
    <glyph glyph-name="uni1EDC" unicode="&#x1edc;" horiz-adv-x="1402" 
d="M354 1794h278l218 -360h-198zM82 650q0 316 170.5 509t449.5 193q90 0 164 -20h234q59 0 90.5 28.5t31.5 105.5v96h196v-108q0 -74 -26 -129.5t-69.5 -85t-91.5 -43.5t-101 -14q93 -94 142.5 -230t49.5 -302q0 -300 -170.5 -483t-449.5 -183t-449.5 183t-170.5 483z
M1070 650q0 226 -97 352t-271 126q-175 0 -271.5 -125.5t-96.5 -352.5q0 -209 96.5 -324.5t271.5 -115.5q174 0 271 116t97 324z" />
    <glyph glyph-name="uni1EDD" unicode="&#x1edd;" horiz-adv-x="1206" 
d="M248 1506h278l218 -360h-198zM80 516q0 243 140 390.5t368 147.5q100 0 184 -30h132q59 0 91.5 29.5t32.5 106.5v94h194v-106q0 -126 -69 -191t-173 -79q114 -146 114 -362q0 -244 -139 -393t-367 -149t-368 149t-140 393zM842 516q0 154 -67 239t-187 85
q-122 0 -189 -85t-67 -239q0 -156 67 -242t189 -86q120 0 187 86t67 242z" />
    <glyph glyph-name="uni1EDE" unicode="&#x1ede;" horiz-adv-x="1402" 
d="M600 1434q0 46 24.5 79.5t81.5 76.5q41 31 59.5 51.5t18.5 44.5q0 31 -20.5 49.5t-55.5 18.5q-82 0 -94 -80h-182q30 222 280 222q112 0 180 -56.5t68 -149.5q0 -50 -24 -82.5t-76 -67.5q-34 -23 -49 -34.5t-28 -30.5t-13 -41h-170zM82 650q0 316 170.5 509t449.5 193
q90 0 164 -20h234q59 0 90.5 28.5t31.5 105.5v96h196v-108q0 -74 -26 -129.5t-69.5 -85t-91.5 -43.5t-101 -14q93 -94 142.5 -230t49.5 -302q0 -300 -170.5 -483t-449.5 -183t-449.5 183t-170.5 483zM1070 650q0 226 -97 352t-271 126q-175 0 -271.5 -125.5t-96.5 -352.5
q0 -209 96.5 -324.5t271.5 -115.5q174 0 271 116t97 324z" />
    <glyph glyph-name="uni1EDF" unicode="&#x1edf;" horiz-adv-x="1206" 
d="M494 1146q0 46 24.5 79.5t81.5 76.5q41 31 59.5 51.5t18.5 44.5q0 31 -20.5 49.5t-55.5 18.5q-82 0 -94 -80h-182q30 222 280 222q112 0 180 -56.5t68 -149.5q0 -50 -24 -82.5t-76 -67.5q-34 -23 -49 -34.5t-28 -30.5t-13 -41h-170zM80 516q0 243 140 390.5t368 147.5
q100 0 184 -30h132q59 0 91.5 29.5t32.5 106.5v94h194v-106q0 -126 -69 -191t-173 -79q114 -146 114 -362q0 -244 -139 -393t-367 -149t-368 149t-140 393zM842 516q0 154 -67 239t-187 85q-122 0 -189 -85t-67 -239q0 -156 67 -242t189 -86q120 0 187 86t67 242z" />
    <glyph glyph-name="uni1EE0" unicode="&#x1ee0;" horiz-adv-x="1402" 
d="M498 1772q35 0 64 -6.5t57.5 -24t40 -26t42.5 -33.5q52 -47 76 -58q23 -10 46 -10q51 0 81.5 39.5t30.5 106.5h148q0 -157 -65 -245.5t-181 -88.5q-40 0 -77 13.5t-56.5 27.5t-50.5 39q-4 4 -29 26.5t-33.5 28.5t-28 14.5t-37.5 8.5q-46 0 -73 -41t-27 -109h-154
q0 163 59 250.5t167 87.5zM82 650q0 316 170.5 509t449.5 193q90 0 164 -20h234q59 0 90.5 28.5t31.5 105.5v96h196v-108q0 -74 -26 -129.5t-69.5 -85t-91.5 -43.5t-101 -14q93 -94 142.5 -230t49.5 -302q0 -300 -170.5 -483t-449.5 -183t-449.5 183t-170.5 483zM1070 650
q0 226 -97 352t-271 126q-175 0 -271.5 -125.5t-96.5 -352.5q0 -209 96.5 -324.5t271.5 -115.5q174 0 271 116t97 324z" />
    <glyph glyph-name="uni1EE1" unicode="&#x1ee1;" horiz-adv-x="1206" 
d="M392 1484q35 0 64 -6.5t57.5 -24t40 -26t42.5 -33.5q52 -47 76 -58q23 -10 46 -10q51 0 81.5 39.5t30.5 106.5h148q0 -157 -65 -245.5t-181 -88.5q-40 0 -77 13.5t-56.5 27.5t-50.5 39q-4 4 -29 26.5t-33.5 28.5t-28 14.5t-37.5 8.5q-46 0 -73 -41t-27 -109h-154
q0 163 59 250.5t167 87.5zM80 516q0 243 140 390.5t368 147.5q100 0 184 -30h132q59 0 91.5 29.5t32.5 106.5v94h194v-106q0 -126 -69 -191t-173 -79q114 -146 114 -362q0 -244 -139 -393t-367 -149t-368 149t-140 393zM842 516q0 154 -67 239t-187 85q-122 0 -189 -85
t-67 -239q0 -156 67 -242t189 -86q120 0 187 86t67 242z" />
    <glyph glyph-name="uni1EE2" unicode="&#x1ee2;" horiz-adv-x="1402" 
d="M82 650q0 316 170.5 509t449.5 193q90 0 164 -20h234q59 0 90.5 28.5t31.5 105.5v96h196v-108q0 -74 -26 -129.5t-69.5 -85t-91.5 -43.5t-101 -14q93 -94 142.5 -230t49.5 -302q0 -300 -170.5 -483t-449.5 -183t-449.5 183t-170.5 483zM1070 650q0 226 -97 352t-271 126
q-175 0 -271.5 -125.5t-96.5 -352.5q0 -209 96.5 -324.5t271.5 -115.5q174 0 271 116t97 324zM550 -128h274v-222h-274v222z" />
    <glyph glyph-name="uni1EE3" unicode="&#x1ee3;" horiz-adv-x="1206" 
d="M80 516q0 243 140 390.5t368 147.5q100 0 184 -30h132q59 0 91.5 29.5t32.5 106.5v94h194v-106q0 -126 -69 -191t-173 -79q114 -146 114 -362q0 -244 -139 -393t-367 -149t-368 149t-140 393zM842 516q0 154 -67 239t-187 85q-122 0 -189 -85t-67 -239q0 -156 67 -242
t189 -86q120 0 187 86t67 242zM448 -128h274v-222h-274v222z" />
    <glyph glyph-name="uni1EE4" unicode="&#x1ee4;" horiz-adv-x="1246" 
d="M92 1332h246v-816q0 -141 77 -218.5t217 -77.5q132 0 205 77.5t73 218.5v816h246v-816q0 -239 -144.5 -385.5t-379.5 -146.5q-243 0 -391.5 146t-148.5 386v816zM492 -128h274v-222h-274v222z" />
    <glyph glyph-name="uni1EE5" unicode="&#x1ee5;" horiz-adv-x="1124" 
d="M348 430q0 -119 55.5 -176.5t156.5 -57.5q94 0 157 62.5t63 159.5v606h244v-1024h-244v154q-54 -87 -139 -135.5t-173 -48.5q-165 0 -266.5 108.5t-101.5 301.5v644h248v-594zM424 -128h274v-222h-274v222z" />
    <glyph glyph-name="uni1EE6" unicode="&#x1ee6;" horiz-adv-x="1246" 
d="M532 1434q0 46 24.5 79.5t81.5 76.5q41 31 59.5 51.5t18.5 44.5q0 31 -20.5 49.5t-55.5 18.5q-82 0 -94 -80h-182q30 222 280 222q112 0 180 -56.5t68 -149.5q0 -50 -24 -82.5t-76 -67.5q-34 -23 -49 -34.5t-28 -30.5t-13 -41h-170zM92 1332h246v-816q0 -141 77 -218.5
t217 -77.5q132 0 205 77.5t73 218.5v816h246v-816q0 -239 -144.5 -385.5t-379.5 -146.5q-243 0 -391.5 146t-148.5 386v816z" />
    <glyph glyph-name="uni1EE7" unicode="&#x1ee7;" horiz-adv-x="1124" 
d="M476 1146q0 46 24.5 79.5t81.5 76.5q41 31 59.5 51.5t18.5 44.5q0 31 -20.5 49.5t-55.5 18.5q-82 0 -94 -80h-182q30 222 280 222q112 0 180 -56.5t68 -149.5q0 -50 -24 -82.5t-76 -67.5q-34 -23 -49 -34.5t-28 -30.5t-13 -41h-170zM348 430q0 -119 55.5 -176.5
t156.5 -57.5q94 0 157 62.5t63 159.5v606h244v-1024h-244v154q-54 -87 -139 -135.5t-173 -48.5q-165 0 -266.5 108.5t-101.5 301.5v644h248v-594z" />
    <glyph glyph-name="uni1EE8" unicode="&#x1ee8;" horiz-adv-x="1328" 
d="M972 1794l-300 -360h-198l218 360h280zM92 1332h246v-816q0 -141 77 -218.5t217 -77.5q132 0 205 77.5t73 218.5v816h196q44 7 68 37.5t24 96.5v94h196v-106q0 -126 -67.5 -191t-170.5 -79v-668q0 -239 -144.5 -385.5t-379.5 -146.5q-243 0 -391.5 146t-148.5 386v816z
" />
    <glyph glyph-name="uni1EE9" unicode="&#x1ee9;" horiz-adv-x="1226" 
d="M916 1506l-300 -360h-198l218 360h280zM348 430q0 -119 55.5 -176.5t156.5 -57.5q94 0 157 62.5t63 159.5v606h164q59 0 91.5 29.5t32.5 106.5v94h194v-106q0 -126 -67.5 -191t-170.5 -79v-878h-244v154q-54 -87 -139 -135.5t-173 -48.5q-165 0 -266.5 108.5
t-101.5 301.5v644h248v-594z" />
    <glyph glyph-name="uni1EEA" unicode="&#x1eea;" horiz-adv-x="1328" 
d="M286 1794h278l218 -360h-198zM92 1332h246v-816q0 -141 77 -218.5t217 -77.5q132 0 205 77.5t73 218.5v816h196q44 7 68 37.5t24 96.5v94h196v-106q0 -126 -67.5 -191t-170.5 -79v-668q0 -239 -144.5 -385.5t-379.5 -146.5q-243 0 -391.5 146t-148.5 386v816z" />
    <glyph glyph-name="uni1EEB" unicode="&#x1eeb;" horiz-adv-x="1226" 
d="M230 1506h278l218 -360h-198zM348 430q0 -119 55.5 -176.5t156.5 -57.5q94 0 157 62.5t63 159.5v606h164q59 0 91.5 29.5t32.5 106.5v94h194v-106q0 -126 -67.5 -191t-170.5 -79v-878h-244v154q-54 -87 -139 -135.5t-173 -48.5q-165 0 -266.5 108.5t-101.5 301.5v644h248
v-594z" />
    <glyph glyph-name="uni1EEC" unicode="&#x1eec;" horiz-adv-x="1328" 
d="M532 1434q0 46 24.5 79.5t81.5 76.5q41 31 59.5 51.5t18.5 44.5q0 31 -20.5 49.5t-55.5 18.5q-82 0 -94 -80h-182q30 222 280 222q112 0 180 -56.5t68 -149.5q0 -50 -24 -82.5t-76 -67.5q-34 -23 -49 -34.5t-28 -30.5t-13 -41h-170zM92 1332h246v-816q0 -141 77 -218.5
t217 -77.5q132 0 205 77.5t73 218.5v816h196q44 7 68 37.5t24 96.5v94h196v-106q0 -126 -67.5 -191t-170.5 -79v-668q0 -239 -144.5 -385.5t-379.5 -146.5q-243 0 -391.5 146t-148.5 386v816z" />
    <glyph glyph-name="uni1EED" unicode="&#x1eed;" horiz-adv-x="1226" 
d="M476 1146q0 46 24.5 79.5t81.5 76.5q41 31 59.5 51.5t18.5 44.5q0 31 -20.5 49.5t-55.5 18.5q-82 0 -94 -80h-182q30 222 280 222q112 0 180 -56.5t68 -149.5q0 -50 -24 -82.5t-76 -67.5q-34 -23 -49 -34.5t-28 -30.5t-13 -41h-170zM348 430q0 -119 55.5 -176.5
t156.5 -57.5q94 0 157 62.5t63 159.5v606h164q59 0 91.5 29.5t32.5 106.5v94h194v-106q0 -126 -67.5 -191t-170.5 -79v-878h-244v154q-54 -87 -139 -135.5t-173 -48.5q-165 0 -266.5 108.5t-101.5 301.5v644h248v-594z" />
    <glyph glyph-name="uni1EEE" unicode="&#x1eee;" horiz-adv-x="1328" 
d="M430 1772q35 0 64 -6.5t57.5 -24t40 -26t42.5 -33.5q52 -47 76 -58q23 -10 46 -10q51 0 81.5 39.5t30.5 106.5h148q0 -157 -65 -245.5t-181 -88.5q-40 0 -77 13.5t-56.5 27.5t-50.5 39q-4 4 -29 26.5t-33.5 28.5t-28 14.5t-37.5 8.5q-46 0 -73 -41t-27 -109h-154
q0 163 59 250.5t167 87.5zM92 1332h246v-816q0 -141 77 -218.5t217 -77.5q132 0 205 77.5t73 218.5v816h196q44 7 68 37.5t24 96.5v94h196v-106q0 -126 -67.5 -191t-170.5 -79v-668q0 -239 -144.5 -385.5t-379.5 -146.5q-243 0 -391.5 146t-148.5 386v816z" />
    <glyph glyph-name="uni1EEF" unicode="&#x1eef;" horiz-adv-x="1226" 
d="M374 1484q35 0 64 -6.5t57.5 -24t40 -26t42.5 -33.5q52 -47 76 -58q23 -10 46 -10q51 0 81.5 39.5t30.5 106.5h148q0 -157 -65 -245.5t-181 -88.5q-40 0 -77 13.5t-56.5 27.5t-50.5 39q-4 4 -29 26.5t-33.5 28.5t-28 14.5t-37.5 8.5q-46 0 -73 -41t-27 -109h-154
q0 163 59 250.5t167 87.5zM348 430q0 -119 55.5 -176.5t156.5 -57.5q94 0 157 62.5t63 159.5v606h164q59 0 91.5 29.5t32.5 106.5v94h194v-106q0 -126 -67.5 -191t-170.5 -79v-878h-244v154q-54 -87 -139 -135.5t-173 -48.5q-165 0 -266.5 108.5t-101.5 301.5v644h248v-594z
" />
    <glyph glyph-name="uni1EF0" unicode="&#x1ef0;" horiz-adv-x="1328" 
d="M92 1332h246v-816q0 -141 77 -218.5t217 -77.5q132 0 205 77.5t73 218.5v816h196q44 7 68 37.5t24 96.5v94h196v-106q0 -126 -67.5 -191t-170.5 -79v-668q0 -239 -144.5 -385.5t-379.5 -146.5q-243 0 -391.5 146t-148.5 386v816zM492 -128h274v-222h-274v222z" />
    <glyph glyph-name="uni1EF1" unicode="&#x1ef1;" horiz-adv-x="1226" 
d="M348 430q0 -119 55.5 -176.5t156.5 -57.5q94 0 157 62.5t63 159.5v606h164q59 0 91.5 29.5t32.5 106.5v94h194v-106q0 -126 -67.5 -191t-170.5 -79v-878h-244v154q-54 -87 -139 -135.5t-173 -48.5q-165 0 -266.5 108.5t-101.5 301.5v644h248v-594zM424 -128h274v-222
h-274v222z" />
    <glyph glyph-name="Ygrave" unicode="&#x1ef2;" horiz-adv-x="1252" 
d="M296 1794h280l216 -360h-196zM502 452l-450 880h274l302 -616l300 616h274l-456 -880v-452h-244v452z" />
    <glyph glyph-name="ygrave" unicode="&#x1ef3;" horiz-adv-x="1168" 
d="M260 1506h278l218 -360h-198zM124 -126h134q67 0 104.5 24t59.5 82l20 52l-380 992h260l266 -754l258 754h262l-388 -1066q-60 -167 -149.5 -235.5t-250.5 -68.5h-196v220z" />
    <glyph glyph-name="uni1EF4" unicode="&#x1ef4;" horiz-adv-x="1252" 
d="M502 452l-450 880h274l302 -616l300 616h274l-456 -880v-452h-244v452zM490 -128h274v-222h-274v222z" />
    <glyph glyph-name="uni1EF5" unicode="&#x1ef5;" horiz-adv-x="1168" 
d="M124 -126h134q67 0 104.5 24t59.5 82l20 52l-380 992h260l266 -754l258 754h262l-388 -1066q-60 -167 -149.5 -235.5t-250.5 -68.5h-196v220zM782 -128h274v-222h-274v222z" />
    <glyph glyph-name="uni1EF6" unicode="&#x1ef6;" horiz-adv-x="1252" 
d="M544 1434q0 46 24 79t80 77q41 30 59.5 51t18.5 45q0 31 -20.5 49.5t-55.5 18.5q-82 0 -94 -80h-180q27 222 278 222q112 0 180 -56.5t68 -149.5q0 -51 -23.5 -83t-76.5 -67q-33 -22 -48.5 -34t-27.5 -31t-12 -41h-170zM502 452l-450 880h274l302 -616l300 616h274
l-456 -880v-452h-244v452z" />
    <glyph glyph-name="uni1EF7" unicode="&#x1ef7;" horiz-adv-x="1168" 
d="M506 1146q0 46 24.5 79.5t81.5 76.5q41 31 59.5 51.5t18.5 44.5q0 31 -20.5 49.5t-55.5 18.5q-82 0 -94 -80h-182q30 222 280 222q112 0 180 -56.5t68 -149.5q0 -50 -24 -82.5t-76 -67.5q-34 -23 -49 -34.5t-28 -30.5t-13 -41h-170zM124 -126h134q67 0 104.5 24t59.5 82
l20 52l-380 992h260l266 -754l258 754h262l-388 -1066q-60 -167 -149.5 -235.5t-250.5 -68.5h-196v220z" />
    <glyph glyph-name="uni1EF8" unicode="&#x1ef8;" horiz-adv-x="1252" 
d="M442 1772q45 0 86.5 -16t60.5 -30t57 -44q52 -47 76 -58q23 -10 46 -10q51 0 80.5 39t29.5 107h150q0 -157 -65 -245.5t-181 -88.5q-41 0 -78.5 13.5t-57 27.5t-50.5 39q-8 7 -24.5 22t-25 22.5t-22.5 16.5t-27 13t-27 4q-46 0 -74 -41t-28 -109h-154q0 163 59 250.5
t169 87.5zM502 452l-450 880h274l302 -616l300 616h274l-456 -880v-452h-244v452z" />
    <glyph glyph-name="uni1EF9" unicode="&#x1ef9;" horiz-adv-x="1168" 
d="M404 1484q35 0 64 -6.5t57.5 -24t40 -26t42.5 -33.5q52 -47 76 -58q23 -10 46 -10q51 0 81.5 39.5t30.5 106.5h148q0 -157 -65 -245.5t-181 -88.5q-40 0 -77 13.5t-56.5 27.5t-50.5 39q-4 4 -29 26.5t-33.5 28.5t-28 14.5t-37.5 8.5q-46 0 -73 -41t-27 -109h-154
q0 163 59 250.5t167 87.5zM124 -126h134q67 0 104.5 24t59.5 82l20 52l-380 992h260l266 -754l258 754h262l-388 -1066q-60 -167 -149.5 -235.5t-250.5 -68.5h-196v220z" />
    <glyph glyph-name="endash" unicode="&#x2013;" horiz-adv-x="1386" 
d="M62 676h1264v-220h-1264v220z" />
    <glyph glyph-name="emdash" unicode="&#x2014;" horiz-adv-x="2030" 
d="M62 676h1908v-220h-1908v220z" />
    <glyph glyph-name="quoteleft" unicode="&#x2018;" 
d="M350 838h-276v274l112 322h176l-176 -322h164v-274z" />
    <glyph glyph-name="quoteright" unicode="&#x2019;" 
d="M86 1434h276v-274l-112 -322h-176l176 322h-164v274z" />
    <glyph glyph-name="quotesinglbase" unicode="&#x201a;" 
d="M86 274h276v-274l-112 -322h-176l176 322h-164v274z" />
    <glyph glyph-name="quotereversed" unicode="&#x201b;" 
d="M350 1434v-274h-164l176 -322h-176l-112 322v274h276z" />
    <glyph glyph-name="quotedblleft" unicode="&#x201c;" horiz-adv-x="840" 
d="M744 838h-274v274l110 322h176l-176 -322h164v-274zM350 838h-276v274l112 322h176l-176 -322h164v-274z" />
    <glyph glyph-name="quotedblright" unicode="&#x201d;" horiz-adv-x="840" 
d="M86 1434h276v-274l-112 -322h-176l176 322h-164v274zM482 1434h274v-274l-110 -322h-176l174 322h-162v274z" />
    <glyph glyph-name="quotedblbase" unicode="&#x201e;" horiz-adv-x="840" 
d="M86 274h276v-274l-112 -322h-176l176 322h-164v274zM482 274h274v-274l-110 -322h-176l174 322h-162v274z" />
    <glyph glyph-name="uni201F" unicode="&#x201f;" horiz-adv-x="840" 
d="M744 1434v-274h-164l176 -322h-176l-110 322v274h274zM350 1434v-274h-164l176 -322h-176l-112 322v274h276z" />
    <glyph glyph-name="dagger" unicode="&#x2020;" horiz-adv-x="748" 
d="M252 824h-192v200h192v266h244v-266h192v-200h-192v-824h-244v824z" />
    <glyph glyph-name="daggerdbl" unicode="&#x2021;" horiz-adv-x="748" 
d="M496 1024h192v-200h-192v-356h192v-202h-192v-266h-244v266h-192v202h192v356h-192v200h192v266h244v-266z" />
    <glyph glyph-name="bullet" unicode="&#x2022;" horiz-adv-x="548" 
d="M70 716q0 86 59 145t145 59t146 -59.5t60 -144.5q0 -86 -60 -146t-146 -60q-85 0 -144.5 60t-59.5 146z" />
    <glyph glyph-name="uni2023" unicode="&#x2023;" horiz-adv-x="548" 
d="M70 460v510l410 -254z" />
    <glyph glyph-name="ellipsis" unicode="&#x2026;" horiz-adv-x="1314" 
d="M956 274h272v-274h-272v274zM520 274h276v-274h-276v274zM86 274h276v-274h-276v274z" />
    <glyph glyph-name="perthousand" unicode="&#x2030;" horiz-adv-x="2730" 
d="M70 946q0 188 100.5 302t265.5 114q162 0 261 -114.5t99 -301.5q0 -189 -99 -304.5t-261 -115.5q-165 0 -265.5 115.5t-100.5 304.5zM1120 1332h220l-546 -1332h-220zM596 946q0 114 -42 178t-118 64q-78 0 -122 -64t-44 -178q0 -117 44 -181.5t122 -64.5q76 0 118 64.5
t42 181.5zM1936 392q0 188 99.5 302t264.5 114q162 0 262 -114.5t100 -301.5q0 -189 -100 -304.5t-262 -115.5q-165 0 -264.5 115.5t-99.5 304.5zM1114 392q0 188 99.5 302t264.5 114q162 0 262 -114.5t100 -301.5q0 -189 -100 -304.5t-262 -115.5q-165 0 -264.5 115.5
t-99.5 304.5zM2462 392q0 115 -42.5 178.5t-119.5 63.5q-78 0 -121 -63.5t-43 -178.5q0 -116 43 -181t121 -65q76 0 119 65t43 181zM1640 392q0 115 -42.5 178.5t-119.5 63.5q-78 0 -121 -63.5t-43 -178.5q0 -116 43 -181t121 -65q76 0 119 65t43 181z" />
    <glyph glyph-name="minute" unicode="&#x2032;" horiz-adv-x="630" 
d="M580 1332l-330 -358h-198l248 358h280z" />
    <glyph glyph-name="second" unicode="&#x2033;" horiz-adv-x="1022" 
d="M972 1332l-330 -358h-196l246 358h280zM580 1332l-330 -358h-198l248 358h280z" />
    <glyph glyph-name="uni2034" unicode="&#x2034;" horiz-adv-x="1414" 
d="M580 1332l-330 -358h-198l248 358h280zM1366 1332l-330 -358h-198l248 358h280zM972 1332l-330 -358h-196l246 358h280z" />
    <glyph glyph-name="uni2035" unicode="&#x2035;" horiz-adv-x="630" 
d="M52 1332h280l248 -358h-198z" />
    <glyph glyph-name="uni2036" unicode="&#x2036;" horiz-adv-x="1022" 
d="M52 1332h280l248 -358h-198zM446 1332h278l248 -358h-198z" />
    <glyph glyph-name="uni2037" unicode="&#x2037;" horiz-adv-x="1414" 
d="M838 1332h280l248 -358h-198zM52 1332h280l248 -358h-198zM446 1332h278l248 -358h-198z" />
    <glyph glyph-name="guilsinglleft" unicode="&#x2039;" horiz-adv-x="628" 
d="M576 1106v-274l-334 -242l334 -240v-268l-512 374v278z" />
    <glyph glyph-name="guilsinglright" unicode="&#x203a;" horiz-adv-x="628" 
d="M64 82v274l334 244l-334 240v266l512 -372v-278z" />
    <glyph glyph-name="uni2070" unicode="&#x2070;" horiz-adv-x="866" 
d="M70 1136q0 188 100.5 302t265.5 114q162 0 261 -114.5t99 -301.5q0 -189 -99 -303.5t-261 -114.5q-165 0 -265.5 114.5t-100.5 303.5zM596 1136q0 116 -42 179t-118 63q-78 0 -122 -63.5t-44 -178.5t44 -179.5t122 -64.5q76 0 118 64t42 180z" />
    <glyph glyph-name="uni2074" unicode="&#x2074;" horiz-adv-x="850" 
d="M672 920v-174h-194v174h-416v178l374 438h236v-458h128v-158h-128zM478 1078v266l-216 -266h216z" />
    <glyph glyph-name="uni2075" unicode="&#x2075;" horiz-adv-x="828" 
d="M548 1006q0 59 -34 92.5t-96 33.5q-98 0 -142 -76h-202l64 480h576v-164h-402l-22 -178q74 80 204 80q119 0 191.5 -73t72.5 -189q0 -134 -91 -213t-243 -79q-148 0 -244.5 69.5t-107.5 182.5h212q2 -42 37 -67t95 -25q64 0 98 32t34 94z" />
    <glyph glyph-name="uni2076" unicode="&#x2076;" horiz-adv-x="854" 
d="M72 1134q0 197 98 307.5t272 110.5q129 0 215.5 -62.5t108.5 -173.5h-210q-22 80 -112 80q-78 0 -119 -60t-41 -174q0 -26 2 -40q28 64 91 101t141 37q115 0 189.5 -72.5t74.5 -185.5q0 -120 -88.5 -196t-227.5 -76q-181 0 -287.5 109t-106.5 295zM318 998
q0 -48 37.5 -80t94.5 -32q55 0 88.5 30t33.5 80t-33.5 79t-90.5 29q-59 0 -94.5 -29t-35.5 -77z" />
    <glyph glyph-name="uni2077" unicode="&#x2077;" horiz-adv-x="860" 
d="M478 746h-248q8 108 35.5 199t74 163.5t95.5 126t117 111.5h-480v190h716v-210q-149 -112 -225 -253t-85 -327z" />
    <glyph glyph-name="uni2078" unicode="&#x2078;" horiz-adv-x="844" 
d="M424 888q66 0 102 24t36 68q0 47 -34.5 72.5t-97.5 25.5h-10q-65 0 -100.5 -25.5t-35.5 -70.5t36.5 -69.5t103.5 -24.5zM294 1298q0 -42 33 -65t93 -23h10q58 0 90 23t32 65q0 45 -33.5 70.5t-94.5 25.5q-62 0 -96 -25.5t-34 -70.5zM424 1552q148 0 238 -63.5t90 -168.5
q0 -123 -130 -176q72 -26 111 -74t39 -112q0 -102 -95.5 -165t-252.5 -63q-158 0 -255 62t-97 164q0 135 152 188q-132 57 -132 178q0 103 91.5 166.5t240.5 63.5z" />
    <glyph glyph-name="uni2079" unicode="&#x2079;" horiz-adv-x="854" 
d="M782 1126q0 -186 -98.5 -291t-275.5 -105q-135 0 -224.5 61.5t-111.5 170.5h210q18 -76 120 -76q83 0 127.5 58t44.5 166q0 7 -1 21t-1 21q-28 -64 -91.5 -101t-140.5 -37q-117 0 -192.5 74t-75.5 188q0 121 90.5 198.5t233.5 77.5q177 0 281.5 -115t104.5 -311z
M540 1280q0 50 -37.5 83t-94.5 33q-55 0 -88.5 -31.5t-33.5 -82.5t33.5 -82.5t90.5 -31.5q59 0 94.5 30.5t35.5 81.5z" />
    <glyph glyph-name="uni207A" unicode="&#x207a;" horiz-adv-x="772" 
d="M476 1238h236v-180h-236v-234h-180v234h-234v180h234v234h180v-234z" />
    <glyph glyph-name="uni207B" unicode="&#x207b;" horiz-adv-x="772" 
d="M62 1238h650v-180h-650v180z" />
    <glyph glyph-name="uni207C" unicode="&#x207c;" horiz-adv-x="772" 
d="M62 1424h650v-180h-650v180zM62 1056h650v-180h-650v180z" />
    <glyph glyph-name="uni207D" unicode="&#x207d;" horiz-adv-x="480" 
d="M450 558h-206q-81 85 -131.5 242t-50.5 342q0 181 50.5 333.5t131.5 236.5h206q-178 -193 -178 -570q0 -388 178 -584z" />
    <glyph glyph-name="uni207E" unicode="&#x207e;" horiz-adv-x="480" 
d="M30 1712h208q80 -85 130 -241.5t50 -342.5q0 -181 -50 -334t-130 -236h-208q178 193 178 570q0 388 -178 584z" />
    <glyph glyph-name="uni207F" unicode="&#x207f;" horiz-adv-x="948" 
d="M646 1198q0 184 -164 184q-75 0 -124.5 -47.5t-49.5 -122.5v-466h-206v790h206v-98q46 61 113 94.5t137 33.5q131 0 211.5 -83.5t80.5 -232.5v-504h-204v452z" />
    <glyph glyph-name="uni2080" unicode="&#x2080;" horiz-adv-x="866" 
d="M70 186q0 188 100.5 302t265.5 114q162 0 261 -114.5t99 -301.5q0 -189 -99 -304.5t-261 -115.5q-165 0 -265.5 115.5t-100.5 304.5zM596 186q0 116 -42 179t-118 63q-78 0 -122 -63.5t-44 -178.5t44 -179.5t122 -64.5q76 0 118 64t42 180z" />
    <glyph glyph-name="uni2081" unicode="&#x2081;" horiz-adv-x="558" 
d="M272 586h204v-790h-204v462h-220v168h92q66 0 97 23.5t31 84.5v52z" />
    <glyph glyph-name="uni2082" unicode="&#x2082;" horiz-adv-x="842" 
d="M296 -34h468v-170h-692v48q0 52 10.5 96t26 76t42 60t50.5 45.5t59.5 35t60.5 27t63 22.5q39 13 56.5 19.5t45.5 19t40.5 23.5t23 28.5t10.5 37.5q0 51 -34 79.5t-94 28.5q-66 0 -105.5 -33.5t-42.5 -90.5h-212q10 127 110 205.5t250 78.5q153 0 246.5 -74.5t93.5 -197.5
q0 -49 -20.5 -88.5t-61.5 -68.5t-78.5 -47.5t-93.5 -39.5q-133 -49 -168 -69q-41 -24 -54 -51z" />
    <glyph glyph-name="uni2083" unicode="&#x2083;" horiz-adv-x="854" 
d="M364 124v130h106q39 0 60.5 20.5t21.5 59.5q0 51 -35 79.5t-97 28.5q-58 0 -93 -29t-37 -77h-212q11 120 106 194t240 74q149 0 243.5 -68t94.5 -176q0 -118 -104 -170q124 -56 124 -184q0 -102 -93.5 -165t-244.5 -63q-154 0 -257.5 74.5t-114.5 193.5h212q4 -48 45 -75
t107 -27q65 0 100.5 24.5t35.5 69.5q0 41 -26.5 63.5t-75.5 22.5h-106z" />
    <glyph glyph-name="uni2084" unicode="&#x2084;" horiz-adv-x="850" 
d="M672 -30v-174h-194v174h-416v178l374 438h236v-458h128v-158h-128zM478 128v266l-216 -266h216z" />
    <glyph glyph-name="uni2085" unicode="&#x2085;" horiz-adv-x="828" 
d="M548 56q0 59 -34 92.5t-96 33.5q-96 0 -142 -76h-202l64 480h576v-164h-402l-22 -178q74 80 204 80q119 0 191.5 -73t72.5 -189q0 -135 -91 -214.5t-243 -79.5q-148 0 -244.5 70.5t-107.5 183.5h212q1 -43 36.5 -67.5t95.5 -24.5q64 0 98 32t34 94z" />
    <glyph glyph-name="uni2086" unicode="&#x2086;" horiz-adv-x="854" 
d="M72 184q0 197 98 307.5t272 110.5q129 0 215.5 -62.5t108.5 -173.5h-210q-22 80 -112 80q-78 0 -119 -60t-41 -174q0 -28 2 -42q28 64 91 102t141 38q115 0 189.5 -72.5t74.5 -185.5q0 -120 -88.5 -197t-227.5 -77q-181 0 -287.5 110t-106.5 296zM318 46q0 -48 37.5 -79
t94.5 -31q56 0 89 29.5t33 78.5q0 50 -33.5 80t-90.5 30q-58 0 -94 -30t-36 -78z" />
    <glyph glyph-name="uni2087" unicode="&#x2087;" horiz-adv-x="860" 
d="M478 -204h-248q8 108 35.5 199t74 163.5t95.5 126t117 111.5h-480v190h716v-212q-148 -111 -224.5 -251.5t-85.5 -326.5z" />
    <glyph glyph-name="uni2088" unicode="&#x2088;" horiz-adv-x="844" 
d="M424 -62q66 0 102 24t36 68q0 46 -34.5 71t-97.5 25h-10q-66 0 -101 -24.5t-35 -71.5q0 -44 36.5 -68t103.5 -24zM294 348q0 -42 33 -65t93 -23h10q58 0 90 23t32 65q0 45 -33.5 70.5t-94.5 25.5q-62 0 -96 -25.5t-34 -70.5zM424 602q148 0 238 -63.5t90 -168.5
q0 -123 -130 -176q72 -26 111 -74t39 -112q0 -102 -95.5 -166t-252.5 -64q-158 0 -255 63.5t-97 166.5q0 64 39 112t113 74q-132 57 -132 178q0 103 91.5 166.5t240.5 63.5z" />
    <glyph glyph-name="uni2089" unicode="&#x2089;" horiz-adv-x="854" 
d="M782 176q0 -187 -99 -292.5t-275 -105.5q-135 0 -224 62t-112 170h210q18 -74 120 -74q83 0 127.5 58t44.5 166q0 7 -1 21t-1 21q-28 -64 -91.5 -101t-140.5 -37q-117 0 -192.5 74t-75.5 188q0 121 90.5 198.5t233.5 77.5q177 0 281.5 -115t104.5 -311zM540 330
q0 50 -37.5 83t-94.5 33q-55 0 -88.5 -31.5t-33.5 -82.5t33.5 -82.5t90.5 -31.5q59 0 94.5 30.5t35.5 81.5z" />
    <glyph glyph-name="uni208A" unicode="&#x208a;" horiz-adv-x="772" 
d="M476 288h236v-180h-236v-234h-180v234h-234v180h234v234h180v-234z" />
    <glyph glyph-name="uni208B" unicode="&#x208b;" horiz-adv-x="772" 
d="M62 288h650v-180h-650v180z" />
    <glyph glyph-name="uni208C" unicode="&#x208c;" horiz-adv-x="772" 
d="M62 474h650v-180h-650v180zM62 106h650v-180h-650v180z" />
    <glyph glyph-name="uni208D" unicode="&#x208d;" horiz-adv-x="480" 
d="M450 -392h-206q-81 85 -131.5 241.5t-50.5 342.5q0 181 50.5 333.5t131.5 236.5h206q-178 -193 -178 -570q0 -388 178 -584z" />
    <glyph glyph-name="uni208E" unicode="&#x208e;" horiz-adv-x="480" 
d="M30 762h208q80 -85 130 -241.5t50 -342.5q0 -181 -50 -334t-130 -236h-208q178 193 178 570q0 388 -178 584z" />
    <glyph glyph-name="uni2099" unicode="&#x2099;" horiz-adv-x="948" 
d="M102 586h206v-98q46 61 113 94.5t137 33.5q131 0 211.5 -83.5t80.5 -232.5v-504h-204v452q0 184 -164 184q-75 0 -124.5 -48.5t-49.5 -123.5v-464h-206v790z" />
    <glyph glyph-name="uni20A0" unicode="&#x20a0;" horiz-adv-x="1512" 
d="M80 862q0 226 130.5 364t345.5 138q161 0 275 -88.5t147 -243.5h-232q-19 66 -70 102t-120 36q-117 0 -180.5 -80.5t-63.5 -227.5q0 -153 83.5 -234.5t240.5 -81.5h66v358h730v-180h-498v-186h442v-162h-442v-184h498v-192h-730v354h-66q-254 0 -405 138t-151 370z" />
    <glyph glyph-name="colonmonetary" unicode="&#x20a1;" horiz-adv-x="1346" 
d="M82 670q0 298 155 484t413 198l54 202h128l-56 -208q80 -9 152 -34l66 242h128l-80 -298q201 -135 222 -396l-232 -2q-3 92 -54 162l-224 -826q122 18 196.5 94t81.5 192h232q-13 -225 -166 -358t-402 -138l-38 -144h-126l40 152q-81 15 -150 48l-54 -200h-126l72 268
q-111 89 -171.5 234t-60.5 328zM478 250q64 -46 148 -58l248 914q-68 34 -152 40zM314 670q0 -195 68 -310l210 776q-134 -30 -206 -150.5t-72 -315.5z" />
    <glyph glyph-name="uni20A2" unicode="&#x20a2;" horiz-adv-x="1346" 
d="M82 670q0 308 167 495t443 187q247 0 401 -121.5t171 -330.5h-232q-6 114 -97 181t-239 67q-181 0 -281.5 -125.5t-102.5 -352.5q0 -204 81 -327t229 -149v580h208v-132q48 72 121.5 110t162.5 38h60v-212h-68q-128 0 -202 -60.5t-74 -165.5v-146q89 26 142.5 87
t59.5 147h232q-14 -210 -168 -333t-404 -123q-275 0 -442.5 188.5t-167.5 497.5z" />
    <glyph glyph-name="franc" unicode="&#x20a3;" horiz-adv-x="1222" 
d="M1142 1332v-222h-686v-286h628v-222h-628v-190h356v-188h-356v-224h-248v224h-178v188h178v920h934z" />
    <glyph glyph-name="lira" unicode="&#x20a4;" horiz-adv-x="1166" 
d="M78 572h186v120h-186v140h186v110q0 183 112 295.5t296 112.5q175 0 293 -97t133 -253h-246q-8 68 -54.5 106t-121.5 38q-80 0 -124 -53t-44 -149v-110h390v-140h-390v-120h390v-140h-392q-22 -155 -148 -210h736v-222h-1022v234q155 53 184 198h-178v140z" />
    <glyph glyph-name="uni20A5" unicode="&#x20a5;" horiz-adv-x="1756" 
d="M100 1024h248v-148q51 84 132.5 131t165.5 47q147 0 242 -92l136 370h272l-110 -300q60 22 116 22q158 0 256 -107.5t98 -300.5v-646h-244v594q0 119 -54 177.5t-150 56.5q-63 0 -108 -30l-98 -268v-530h-196l-90 -244h-272l310 846q-1 116 -53.5 172t-146.5 56
q-89 0 -147.5 -62.5t-58.5 -159.5v-608h-248v1024z" />
    <glyph glyph-name="uni20A6" unicode="&#x20a6;" horiz-adv-x="1448" 
d="M1438 548v-188h-154v-360h-240l-230 360h-410v-360h-236v360h-158v188h158v254h-158v188h158v342h288l210 -342h382v342h236v-342h154v-188h-154v-254h154zM404 998v-8h6zM404 548h288l-162 254h-126v-254zM936 548h112v254h-268z" />
    <glyph glyph-name="peseta" unicode="&#x20a7;" horiz-adv-x="2694" 
d="M692 456h-342v-456h-248v1332h566q173 0 293 -83t159 -225h118v266h246v-266h172v-200h-172v-426q0 -96 40.5 -140t129.5 -44h548q82 0 125 23.5t43 66.5q0 46 -35 72.5t-109 35.5l-186 22q-171 19 -254.5 95t-83.5 211q0 144 117.5 227t318.5 83q194 0 314 -88t138 -242
h-242q-14 77 -65 113.5t-145 36.5q-86 0 -137 -32.5t-51 -87.5q0 -48 32.5 -73.5t107.5 -34.5l194 -20q171 -20 250.5 -96.5t79.5 -221.5q0 -144 -99 -224t-277 -80h-618q-180 0 -281 96.5t-101 267.5v460h-106q-23 -167 -141.5 -267.5t-298.5 -100.5zM646 1118h-296v-440
h296q111 0 174.5 57.5t63.5 160.5q0 105 -62.5 163.5t-175.5 58.5z" />
    <glyph glyph-name="uni20A8" unicode="&#x20a8;" horiz-adv-x="2184" 
d="M610 500h-260v-500h-248v1332h596q195 0 314.5 -106.5t119.5 -281.5q0 -121 -66 -209.5t-182 -128.5q103 -22 153 -90t65 -202l36 -314h-242l-34 290q-14 111 -72 160.5t-180 49.5zM662 1120h-312v-408h312q106 0 165 52.5t59 149.5t-59.5 151.5t-164.5 54.5zM1716 404
l-184 22q-170 18 -254 93t-84 211q0 148 116.5 234t317.5 86q194 0 314.5 -89.5t137.5 -244.5h-240q-14 78 -65 115t-145 37q-85 0 -136.5 -34t-51.5 -90q0 -53 33.5 -80t104.5 -36l196 -20q170 -18 250 -96t80 -224q0 -141 -118.5 -225.5t-313.5 -84.5q-211 0 -340.5 88.5
t-149.5 241.5h252q15 -78 72.5 -114t163.5 -36q88 0 141 32.5t53 87.5q0 108 -150 126z" />
    <glyph glyph-name="uni20A9" unicode="&#x20a9;" horiz-adv-x="2048" 
d="M52 1332h260l82 -342h378l100 342h300l98 -342h382l86 342h260l-98 -342h138v-188h-192l-72 -254h264v-188h-318l-102 -360h-298l-104 360h-392l-98 -360h-310l-98 360h-308v188h256l-70 254h-186v188h134zM1018 1052l-18 -62h34zM502 548h142l74 254h-278zM876 548h286
l-74 254h-140zM1398 548h144l62 254h-280zM568 280l22 80h-42zM1476 280l18 80h-42z" />
    <glyph glyph-name="uni20AA" unicode="&#x20aa;" horiz-adv-x="1514" 
d="M682 198h330q98 0 143 44.5t45 141.5v640h212v-652q0 -177 -95 -274.5t-279 -97.5h-570v694h214v-496zM316 826v-826h-214v1024h570q184 0 279 -97.5t95 -274.5v-322h-212v310q0 97 -45 141.5t-143 44.5h-330z" />
    <glyph glyph-name="dong" unicode="&#x20ab;" horiz-adv-x="1202" 
d="M502 1312h220v122h246v-122h166v-166h-166v-996h-246v124q-99 -150 -270 -150q-168 0 -270 125t-102 331q0 205 102 329.5t270 124.5q173 0 270 -150v262h-220v166zM332 580q0 -114 51.5 -178t142.5 -64q93 0 144.5 64t51.5 178t-51.5 177t-144.5 63q-92 0 -143 -63
t-51 -177zM92 20h1028v-186h-1028v186z" />
    <glyph glyph-name="Euro" unicode="&#x20ac;" horiz-adv-x="1420" 
d="M156 670q0 28 4 84h-150v140h172q54 213 205 335.5t367 122.5q249 0 407.5 -130t176.5 -362h-252q-4 123 -94 195.5t-234 72.5q-116 0 -197.5 -60.5t-120.5 -173.5h422v-140h-452q-1 -13 -2 -41.5t-2 -42.5q0 -50 6 -92h450v-140h-420q39 -111 120 -169.5t196 -58.5
q143 0 232 73t96 197h252q-13 -234 -174.5 -365t-409.5 -131q-213 0 -363.5 121t-206.5 333h-174v140h150q-4 60 -4 92z" />
    <glyph glyph-name="uni20AD" unicode="&#x20ad;" horiz-adv-x="1202" 
d="M0 762h152v570h244v-570h2l438 570h300l-454 -570h330v-188h-334l434 -574h-304l-408 574h-4v-574h-244v574h-152v188z" />
    <glyph glyph-name="uni20AE" unicode="&#x20ae;" horiz-adv-x="1126" 
d="M958 598v-172l-272 -70v-356h-244v292l-258 -66v172l258 66v140l-258 -66v172l258 66v324h-380v232h1004v-232h-380v-260l272 70v-172l-272 -70v-140z" />
    <glyph glyph-name="uni20AF" unicode="&#x20af;" horiz-adv-x="2442" 
d="M62 218h136l166 842q-110 -28 -200 -66v230q112 49 248 76l26 134h244l-20 -102h32q279 0 445.5 -161t166.5 -431q0 -163 -53.5 -301t-148.5 -234.5t-230.5 -150.5t-295.5 -54h-516v218zM694 1106q-22 0 -78 -4l-174 -884h96q243 0 380.5 139t137.5 385q0 174 -94.5 269
t-267.5 95zM2360 614q0 -181 -66 -326t-178 -224.5t-246 -79.5q-115 0 -193 47.5t-113 136.5l-88 -502h-244l150 850q43 253 188 390.5t352 137.5q203 0 320.5 -115.5t117.5 -314.5zM1808 196q134 0 219 120.5t85 309.5q0 94 -52.5 150t-141.5 56q-135 0 -219.5 -120.5
t-84.5 -309.5q0 -94 52.5 -150t141.5 -56z" />
    <glyph glyph-name="uni20B0" unicode="&#x20b0;" horiz-adv-x="1180" 
d="M1074 1016q0 -75 -12.5 -134t-51.5 -162l-90 -174q111 -123 159.5 -230.5t48.5 -233.5q0 -213 -125.5 -323.5t-366.5 -110.5v202q139 0 214.5 60.5t75.5 173.5q0 64 -26.5 124.5t-85.5 133.5l-194 -372h-152l-140 340l-92 -310h-200l200 540h150l140 -332l148 286
q-116 125 -177 260.5t-61 261.5q0 150 85.5 244t222.5 94q149 0 239.5 -91.5t90.5 -246.5zM812 760q56 149 56 256q0 65 -32.5 105.5t-81.5 40.5q-51 0 -79.5 -41t-28.5 -115q0 -164 132 -312z" />
    <glyph glyph-name="uni20B1" unicode="&#x20b1;" horiz-adv-x="1318" 
d="M10 786h132v112h-132v134h132v300h564q165 0 283.5 -80t168.5 -220h150v-134h-124q4 -36 4 -52q0 -20 -4 -60h124v-132h-152q-47 -139 -159 -218.5t-267 -79.5h-362v-356h-226v654h-132v132zM684 1138h-316v-106h538q-72 106 -222 106zM954 844q0 10 -1 28t-1 26h-584
v-112h582q4 36 4 58zM368 558h316q143 -3 214 96h-530v-96z" />
    <glyph glyph-name="uni20B2" unicode="&#x20b2;" horiz-adv-x="1366" 
d="M82 670q0 308 164 495t434 187q65 0 116 -8l56 210h128l-64 -238q151 -52 243 -165t105 -271l-252 -2q-3 76 -44 132t-112 86l-100 -364h508v-732h-166l-30 282q-59 -139 -168 -218.5t-248 -79.5q-56 0 -96 8l-40 -152h-126l48 184q-166 68 -261 238t-95 408zM334 670
q0 -306 168 -412l234 868q-18 2 -54 2q-165 0 -256.5 -120.5t-91.5 -337.5zM680 210q136 0 221 86t97 232h-296l-86 -314q20 -4 64 -4z" />
    <glyph glyph-name="uni20B3" unicode="&#x20b3;" horiz-adv-x="1324" 
d="M64 468h152l58 164h-210v160h268l192 540h280l190 -540h260v-160h-204l58 -164h146v-160h-90l110 -308h-260l-102 308h-500l-98 -308h-262l108 308h-96v160zM660 1084l-94 -292h188zM462 468h398l-54 164h-292z" />
    <glyph glyph-name="uni20B4" unicode="&#x20b4;" horiz-adv-x="1246" 
d="M10 596h170q116 110 392 134l56 8h-618v128h876q14 31 14 76q0 93 -73 149.5t-193 56.5q-119 0 -183.5 -45t-82.5 -139h-250q20 180 158.5 283t363.5 103q234 0 371 -108t137 -294q0 -39 -10 -82h98v-128h-178q-114 -105 -362 -126l-92 -12q-12 0 -36 -4h668v-128h-878
q-16 -35 -16 -88q0 -88 71 -140t189 -52q135 0 210 46t94 142h252q-21 -181 -168.5 -286.5t-385.5 -105.5q-231 0 -371 108t-141 288q0 46 12 88h-94v128z" />
    <glyph glyph-name="uni20B5" unicode="&#x20b5;" horiz-adv-x="1346" 
d="M82 670q0 291 148 475.5t396 204.5v196h112v-196q225 -15 367.5 -144t158.5 -346h-252q-4 110 -78 180t-196 84v-912q120 14 193.5 85t80.5 183l252 -2q-13 -219 -157 -348t-369 -144v-242h-112v242q-247 20 -395.5 206t-148.5 478zM334 670q0 -199 76 -317.5t216 -138.5
v908q-140 -20 -216 -137t-76 -315z" />
    <glyph glyph-name="uni20B6" unicode="&#x20b6;" horiz-adv-x="1256" 
d="M60 1024h180v266h246v-266h294v266h246v-266h172v-200h-172v-488q0 -68 25 -96t73 -28h74v-212h-106q-141 0 -226.5 77t-85.5 227v520h-294v-824h-246v824h-180v200z" />
    <glyph glyph-name="uni20B7" unicode="&#x20b7;" horiz-adv-x="1338" 
d="M292 272q0 104 -48 104q-17 0 -27.5 -12.5t-10.5 -31.5q0 -79 86 -128v68zM798 272q0 104 -64 104q-30 0 -50 -27t-20 -69v-150h32q59 0 102 8v134zM544 272q0 104 -64 104q-30 0 -49 -27t-19 -69v-122q62 -16 132 -22v136zM796 568l-194 20q-196 23 -298 114t-102 246
q0 186 136 294t370 108q225 0 364.5 -111t159.5 -305h-250q-18 109 -85.5 161.5t-190.5 52.5q-117 0 -186.5 -51t-69.5 -135q0 -67 46.5 -104.5t147.5 -51.5l182 -20q219 -27 325.5 -127t106.5 -279q0 -137 -90.5 -234t-249.5 -138v-172h-120v152q-64 -4 -94 -4h-40v-148
h-120v158q-72 9 -132 24v-182h-120v224q-101 46 -155.5 115.5t-54.5 156.5q0 68 47 113t111 45q108 0 152 -94q21 44 55 68.5t71 23.5q90 3 128 -88q21 42 55.5 66t72.5 24q65 0 104.5 -50.5t39.5 -137.5v-126q120 63 120 182q0 177 -242 210z" />
    <glyph glyph-name="uni20B8" unicode="&#x20b8;" horiz-adv-x="1126" 
d="M62 1118v214h1004v-214h-1004zM1066 942v-232h-380v-710h-244v710h-380v232h1004z" />
    <glyph glyph-name="uni20B9" unicode="&#x20b9;" horiz-adv-x="996" 
d="M252 480h-172v192h222q88 -1 144.5 40.5t73.5 119.5h-440v130h438q-18 79 -80.5 124.5t-159.5 45.5h-198v200h834v-200h-260q86 -71 110 -170h150v-130h-148q-16 -88 -78 -152t-160 -94q103 -24 153 -92.5t65 -199.5l34 -294h-242l-32 290q-12 101 -72.5 145.5
t-181.5 44.5z" />
    <glyph glyph-name="uni20BA" unicode="&#x20ba;" horiz-adv-x="1292" 
d="M540 222q206 0 319 128t123 372h248q-24 -345 -199.5 -533.5t-472.5 -188.5h-286v468l-242 -62v172l242 62v140l-242 -62v172l242 62v380h234v-320l298 78v-172l-298 -78v-140l298 78v-172l-298 -78v-306h34z" />
    <glyph glyph-name="uni20BB" unicode="&#x20bb;" horiz-adv-x="1456" 
d="M1204 48q-189 -64 -340 -64q-165 0 -273.5 74t-140.5 206q-141 -36 -330 -36v174q174 0 318 32v384h-32q-168 0 -261 72.5t-93 203.5q0 123 77.5 195.5t208.5 72.5q139 0 223.5 -86.5t84.5 -227.5v-38h390q174 0 271 -91t97 -253q0 -119 -58 -193.5t-136 -74.5
q-116 0 -164 102q-23 -50 -57.5 -77t-74.5 -27q-90 0 -130 104q-45 -89 -136 -150q14 -80 76.5 -123t167.5 -43q150 0 312 70v-206zM448 1000v48q0 64 -31.5 104t-82.5 40q-38 0 -62 -24.5t-24 -63.5q0 -104 154 -104h46zM1162 558q32 0 50 30t18 84q0 69 -42 107.5
t-118 38.5h-424v-298q80 58 80 136h102q0 -48 21.5 -79t54.5 -31q38 0 62 31t24 79h102q0 -98 70 -98z" />
    <glyph glyph-name="uni20BC" unicode="&#x20bc;" horiz-adv-x="1406" 
d="M1316 0h-236v466q0 131 -68.5 214.5t-195.5 109.5v-790h-226v790q-126 -26 -194 -110t-68 -214v-466h-236v466q0 228 135 378.5t363 183.5v304h226v-304q229 -30 364.5 -181.5t135.5 -380.5v-466z" />
    <glyph glyph-name="uni20BD" unicode="&#x20bd;" horiz-adv-x="1302" 
d="M30 412h178v144h-178v212h178v564h584q198 0 319 -107t121 -283q0 -171 -114 -278.5t-302 -107.5h-360v-144h356v-188h-356v-224h-248v224h-178v188zM770 1128h-314v-360h314q98 0 154 46t56 128q0 87 -55.5 136.5t-154.5 49.5z" />
    <glyph glyph-name="uni20BE" unicode="&#x20be;" horiz-adv-x="1344" 
d="M66 216h236q-216 182 -216 500q0 229 106.5 390t293.5 218v212h134v-186q20 2 60 2q24 0 72 -4v188h134v-214q166 -54 267.5 -194.5t114.5 -349.5h-232q-3 104 -42 183.5t-108 126.5v-310h-134v362q-33 6 -68 6q-34 0 -64 -6v-362h-134v314q-168 -107 -168 -396
q0 -229 136 -354.5t384 -125.5h434v-216h-1206v216z" />
    <glyph glyph-name="uni20BF" unicode="&#x20bf;" horiz-adv-x="1206" 
d="M298 1536h184v-204h136v204h184v-208q146 -17 234 -107.5t88 -226.5q0 -99 -49 -178t-133 -120q113 -41 178.5 -133t65.5 -213q0 -157 -103.5 -253.5t-270.5 -96.5h-10v-246h-184v246h-136v-246h-184v246h-196v1332h196v204zM710 1120h-360v-336h360q73 0 117.5 47
t44.5 127q0 74 -44 118t-118 44zM736 572h-386v-360h402q83 0 132.5 47.5t49.5 126.5q0 84 -54 135t-144 51z" />
    <glyph glyph-name="arrowleft" unicode="&#x2190;" horiz-adv-x="1596" 
d="M82 692l434 432l120 -122l-210 -208h1090v-204h-1090l210 -210l-120 -120z" />
    <glyph glyph-name="arrowup" unicode="&#x2191;" horiz-adv-x="1028" 
d="M516 1408l430 -432l-122 -120l-210 210l4 -1092h-204v1090l-210 -208l-122 120z" />
    <glyph glyph-name="arrowright" unicode="&#x2192;" horiz-adv-x="1596" 
d="M1516 690l-432 -430l-122 120l212 210l-1092 -2v206h1090l-210 208l122 122z" />
    <glyph glyph-name="arrowdown" unicode="&#x2193;" horiz-adv-x="1028" 
d="M514 -26l-432 432l122 122l208 -210l-2 1090h204v-1092l210 212l122 -122z" />
    <glyph glyph-name="arrowboth" unicode="&#x2194;" horiz-adv-x="1596" 
d="M82 692l434 432l120 -122l-210 -208h746l-210 208l122 122l432 -434l-432 -430l-122 120l212 210h-748l210 -210l-120 -120z" />
    <glyph glyph-name="arrowupdn" unicode="&#x2195;" horiz-adv-x="1028" 
d="M514 -26l-432 432l122 122l210 -210v746l-210 -208l-122 120l434 432l430 -432l-122 -120l-210 210v-750l210 212l122 -122z" />
    <glyph glyph-name="uni2196" unicode="&#x2196;" horiz-adv-x="1250" 
d="M82 1232h610v-172h-296l772 -768l-144 -146l-772 770v-294h-170v610z" />
    <glyph glyph-name="uni2197" unicode="&#x2197;" horiz-adv-x="1250" 
d="M1168 1232v-610h-172v294l-768 -770l-146 144l772 772h-296v170h610z" />
    <glyph glyph-name="uni2198" unicode="&#x2198;" horiz-adv-x="1250" 
d="M1168 146h-610v172h294l-770 768l144 146l772 -772v296h170v-610z" />
    <glyph glyph-name="uni2199" unicode="&#x2199;" horiz-adv-x="1250" 
d="M82 146v608h172v-294l768 772l146 -146l-772 -770h296v-170h-610z" />
    <glyph glyph-name="uni219A" unicode="&#x219a;" horiz-adv-x="1596" 
d="M82 692l434 432l120 -122l-210 -208h526l132 400h178l-132 -400l386 2v-206h-454l-144 -440h-178l144 440h-458l210 -210l-120 -120z" />
    <glyph glyph-name="uni219B" unicode="&#x219b;" horiz-adv-x="1596" 
d="M668 1194h178l-134 -400h460l-210 208l122 122l432 -434l-432 -430l-122 120l210 210l-526 -2l-144 -438h-178l144 438h-386v206h452z" />
    <glyph glyph-name="uni219C" unicode="&#x219c;" horiz-adv-x="1678" 
d="M330 1028l532 -246l-72 -156l-272 132q30 -174 71 -246t121 -72q17 0 34.5 3.5t30 6.5t31.5 14t27 15t28.5 21t25 20.5t28.5 24.5t27 23q39 34 61 51t61 41t80.5 35t89.5 11q164 0 259 -117.5t95 -322.5h-164q0 117 -45.5 187.5t-120.5 70.5q-25 0 -49.5 -6t-42 -13
t-43.5 -24t-37.5 -26t-41.5 -33l-40 -32q-2 -2 -25 -20.5t-28 -22t-26 -19t-29.5 -19.5t-28.5 -15.5t-33.5 -15.5t-33.5 -10t-39.5 -8t-40.5 -2q-153 0 -238 98t-134 316l-112 -248l-154 72z" />
    <glyph glyph-name="uni219D" unicode="&#x219d;" horiz-adv-x="1678" 
d="M438 706q48 0 89 -10.5t80 -35.5t60 -41t61 -51q5 -4 24 -20.5t25 -21.5t23 -19t25 -19t23.5 -15t27 -14t26.5 -9.5t29.5 -7.5t30.5 -2q79 0 119.5 72t68.5 246l-268 -132l-74 156l532 246l248 -532l-154 -72l-112 246q-49 -217 -133.5 -314.5t-236.5 -97.5
q-57 0 -110 20t-83 40.5t-77 58.5q-11 9 -16 13q-7 6 -33.5 27.5t-35.5 28.5t-32 23.5t-37 23t-34.5 15.5t-40.5 12.5t-41 3.5q-75 0 -120.5 -70.5t-45.5 -187.5h-164q0 205 96 322.5t260 117.5z" />
    <glyph glyph-name="uni219E" unicode="&#x219e;" horiz-adv-x="1596" 
d="M82 692l434 432l120 -122l-210 -208h158l330 330l120 -122l-208 -208l690 2v-206h-692l210 -210l-120 -120l-330 330h-158l210 -210l-120 -120z" />
    <glyph glyph-name="uni219F" unicode="&#x219f;" horiz-adv-x="1026" 
d="M516 1408l428 -432l-120 -122l-210 212v-158l330 -332l-120 -120l-210 210l2 -692h-204v690l-208 -208l-122 120l330 328v160l-208 -210l-122 122z" />
    <glyph glyph-name="uni21A0" unicode="&#x21a0;" horiz-adv-x="1596" 
d="M1516 690l-432 -430l-122 120l210 210h-156l-332 -330l-120 120l208 208h-690v206h690l-208 208l120 122l330 -330h158l-210 208l122 122z" />
    <glyph glyph-name="uni21A1" unicode="&#x21a1;" horiz-adv-x="1026" 
d="M512 -26l-430 432l122 120l208 -210v158l-330 332l122 120l208 -210l-2 692h204v-690l210 208l120 -120l-330 -330v-158l210 208l120 -120z" />
    <glyph glyph-name="uni21A2" unicode="&#x21a2;" horiz-adv-x="1596" 
d="M82 692l434 432l120 -122l-210 -208h640l330 330l120 -122l-312 -310l312 -312l-120 -120l-332 330h-638l210 -210l-120 -120z" />
    <glyph glyph-name="uni21A3" unicode="&#x21a3;" horiz-adv-x="1596" 
d="M1516 690l-432 -430l-122 120l210 210l-640 -2l-328 -328l-122 120l312 310l-312 312l122 122l328 -330h640l-210 208l122 122z" />
    <glyph glyph-name="uni21A4" unicode="&#x21a4;" horiz-adv-x="1596" 
d="M82 692l434 432l120 -122l-210 -208h906v330h184v-864h-184v330h-906l210 -210l-120 -120z" />
    <glyph glyph-name="uni21A5" unicode="&#x21a5;" horiz-adv-x="1026" 
d="M946 158v-184h-864v184h332v906l-210 -210l-122 122l434 432l430 -432l-122 -122l-210 212l2 -908h330z" />
    <glyph glyph-name="uni21A6" unicode="&#x21a6;" horiz-adv-x="1596" 
d="M266 260h-184v864h184v-330h906l-210 208l122 122l432 -434l-432 -430l-122 120l210 210l-906 -2v-328z" />
    <glyph glyph-name="uni21A7" unicode="&#x21a7;" horiz-adv-x="1026" 
d="M514 -26l-432 432l122 120l208 -210l-2 906h-328v186h864v-186h-332v-906l210 210l122 -120z" />
    <glyph glyph-name="arrowupdnbse" unicode="&#x21a8;" horiz-adv-x="1026" 
d="M516 1408l428 -432l-120 -120l-208 210v-746l208 208l120 -122l-248 -248h250v-184h-864v184h248l-248 248l122 122l208 -210v746l-208 -208l-122 120z" />
    <glyph glyph-name="uni21AE" unicode="&#x21ae;" horiz-adv-x="1596" 
d="M82 692l402 410l120 -120l-182 -188h338l106 400h126l-106 -400h286l-178 178l120 120l402 -402l-402 -398l-120 120l180 178h-340l-114 -440h-128l116 440h-282l178 -178l-120 -120z" />
    <glyph glyph-name="uni21B0" unicode="&#x21b0;" horiz-adv-x="1016" 
d="M934 1056l-392 -388l-120 120l184 174h-334v-916h-190v1110h518l-178 170l120 122z" />
    <glyph glyph-name="uni21B1" unicode="&#x21b1;" horiz-adv-x="1016" 
d="M82 1056l392 392l120 -122l-178 -170h518v-1110h-190v916h-332l182 -174l-120 -120z" />
    <glyph glyph-name="uni21B2" unicode="&#x21b2;" horiz-adv-x="1016" 
d="M82 386l392 388l120 -120l-182 -176l332 2v916h190v-1110h-516l176 -170l-120 -122z" />
    <glyph glyph-name="uni21B3" unicode="&#x21b3;" horiz-adv-x="1016" 
d="M934 386l-392 -392l-120 122l176 170h-516v1110h190v-916l332 -2l-182 176l120 120z" />
    <glyph glyph-name="uni21B4" unicode="&#x21b4;" horiz-adv-x="1606" 
d="M1094 96l-432 432l122 120l214 -224v528h-916v190h1110v-714l212 220l122 -120z" />
    <glyph glyph-name="carriagereturn" unicode="&#x21b5;" horiz-adv-x="1210" 
d="M82 386l434 430l120 -122l-224 -216l526 2v916h190v-1110h-710l218 -212l-120 -122z" />
    <glyph glyph-name="uni21B6" unicode="&#x21b6;" horiz-adv-x="1774" 
d="M514 36l-432 432l122 122l216 -226v154q0 282 172.5 457t451.5 175q134 0 254 -50t207 -135.5t138 -204t51 -250.5h-190q0 187 -136 319.5t-328 132.5q-195 0 -315.5 -122.5t-120.5 -321.5v-158l220 230l122 -122z" />
    <glyph glyph-name="uni21B7" unicode="&#x21b7;" horiz-adv-x="1774" 
d="M272 510h-190q0 132 51 250.5t138 204t208 135.5t255 50q278 0 450 -175t172 -457v-154l218 226l120 -122l-432 -432l-430 432l120 122l220 -230v158q0 199 -119.5 321.5t-314.5 122.5q-192 0 -329 -132.5t-137 -319.5z" />
    <glyph glyph-name="uni21BA" unicode="&#x21ba;" horiz-adv-x="1688" 
d="M714 262q200 0 325 123t125 321q0 143 -82 250l-130 -280l-156 72l260 554l552 -258l-72 -156l-254 118q82 -132 82 -298q0 -183 -83.5 -329t-232 -228.5t-334.5 -82.5q-276 0 -454 173t-178 441q0 123 45 226t143 204l158 -116q-77 -75 -111.5 -149.5t-34.5 -164.5
q0 -188 119.5 -304t312.5 -116z" />
    <glyph glyph-name="uni21BB" unicode="&#x21bb;" horiz-adv-x="1688" 
d="M974 262q194 0 314 116.5t120 303.5q0 90 -34.5 164.5t-111.5 149.5l158 116q98 -101 143 -204t45 -226q0 -268 -179 -441t-455 -173q-185 0 -333.5 82.5t-231.5 228.5t-83 329q0 166 82 298l-252 -118l-74 156l552 258l258 -554l-154 -72l-130 280q-82 -107 -82 -250
q0 -198 124 -321t324 -123z" />
    <glyph glyph-name="uni21BC" unicode="&#x21bc;" horiz-adv-x="1596" 
d="M386 784h1130v-196l-1434 2v152l340 340l132 -132z" />
    <glyph glyph-name="uni21BD" unicode="&#x21bd;" horiz-adv-x="1596" 
d="M82 632v152h1434v-194h-1130l168 -168l-132 -130z" />
    <glyph glyph-name="uni21BE" unicode="&#x21be;" horiz-adv-x="658" 
d="M276 1128v-1132h-194l2 1434h154l338 -340l-130 -130z" />
    </font>
</defs>
</svg>
